<?xml version="1.0" encoding="utf-8"?>
<!DOCTYPE svg PUBLIC "-//W3C//DTD SVG 1.1//EN" "http://www.w3.org/Graphics/SVG/1.1/DTD/svg11.dtd">
<svg xmlns="http://www.w3.org/2000/svg" xmlns:xlink="http://www.w3.org/1999/xlink" version="1.1" baseProfile="full" width="124.333" height="114.408" viewBox="0 0 124.33 114.41" enable-background="new 0 0 124.33 114.41" xml:space="preserve">
	<path fill="#8b74ea" fill-opacity="1" fill-rule="evenodd" stroke-width="0.2" stroke-linejoin="round" stroke="#8b74ea" stroke-opacity="1" d="M 62.3052,47.1633C 73.6656,47.1633 82.8751,56.3728 82.8751,67.7332C 82.8751,79.0935 73.6657,88.303 62.3052,88.303C 50.9449,88.303 41.7354,79.0935 41.7354,67.7332C 41.7354,56.3728 50.9449,47.1633 62.3052,47.1633 Z M 62.3052,54.804C 55.1645,54.804 49.3756,60.5925 49.3756,67.7336C 49.3756,74.8743 55.1644,80.6628 62.3052,80.6628C 69.446,80.6628 75.2349,74.8743 75.2349,67.7336C 75.2349,60.5925 69.446,54.804 62.3052,54.804 Z M 2.35089,12.0964L 3.91815,12.0964L 3.91815,6.2688C 3.91815,2.80688 6.72485,-0.000244141 10.1871,-0.000244141L 18.6818,-0.000244141C 22.144,-0.000244141 24.9507,2.80688 24.9507,6.2688L 24.9507,12.0964L 121.983,12.0964C 123.281,12.0964 124.333,13.1492 124.333,14.4475L 124.333,112.057C 124.333,113.355 123.281,114.407 121.983,114.407L 2.35089,114.407C 1.05255,114.407 6.10352e-005,113.355 6.10352e-005,112.057L 6.10352e-005,14.4475C 6.10352e-005,13.1492 1.05255,12.0964 2.35089,12.0964 Z M 62.9502,36.8303C 45.9998,36.8303 32.2587,50.5715 32.2587,67.5217C 32.2587,84.4724 45.9998,98.2131 62.9502,98.2131C 79.9006,98.2131 93.6418,84.4724 93.6418,67.5217C 93.6418,50.5715 79.9006,36.8303 62.9502,36.8303 Z M 103.763,19.5427C 101.058,19.5427 98.8655,21.7351 98.8655,24.4402C 98.8655,27.1448 101.058,29.3376 103.763,29.3376L 112.501,29.3376C 115.206,29.3376 117.399,27.1448 117.399,24.4402C 117.399,21.7351 115.206,19.5427 112.501,19.5427L 103.763,19.5427 Z "/>
</svg>
