<?xml version="1.0" encoding="utf-8"?>
<!DOCTYPE svg PUBLIC "-//W3C//DTD SVG 1.1//EN" "http://www.w3.org/Graphics/SVG/1.1/DTD/svg11.dtd">
<svg xmlns="http://www.w3.org/2000/svg" xmlns:xlink="http://www.w3.org/1999/xlink" version="1.1" baseProfile="full" width="261" height="262" viewBox="0 0 261.00 262.00" enable-background="new 0 0 261.00 262.00" xml:space="preserve">
	<g>
		<filter id="Filter_DropShadow1_" filterUnits="userSpaceOnUse">
			<feGaussianBlur in="SourceAlpha" stdDeviation="2" result="blur"/>
			<feOffset dx="-3.2729e-016" dy="1.78169" in="blur" result="offsetBlurredAlpha"/>
			<feMerge>
				<feMergeNode in="offsetBlurredAlpha"/>
				<feMergeNode in="SourceGraphic"/>
			</feMerge>
		</filter>
		<path fill="#987FFF" fill-opacity="0.701961" stroke-width="12" stroke-linejoin="round" stroke="#987FFF" stroke-opacity="1" filter="url(#Filter_DropShadow1_)" d="M 150.372,8.32495C 210.148,8.32495 250.765,48.9424 250.765,108.719L 250.765,149.382L 250.688,153.875C 248.701,211.185 208.638,249.775 150.372,249.775L 110.545,249.775C 50.7687,249.775 10.1515,210.465 10.1515,150.688L 10.1515,107.412C 10.1515,49.4207 48.3793,10.6909 105.242,8.42969L 110.545,8.32495L 150.372,8.32495 Z "/>
		<path fill="#FFFFFF" fill-opacity="1" fill-rule="evenodd" stroke-width="0.2" stroke-linejoin="round" stroke="#FFFFFF" stroke-opacity="1" d="M 130.597,119.01C 141.957,119.01 151.167,128.22 151.167,139.58C 151.167,150.941 141.957,160.15 130.597,160.15C 119.237,160.15 110.027,150.941 110.027,139.58C 110.027,128.22 119.237,119.01 130.597,119.01 Z M 130.597,126.651C 123.456,126.651 117.667,132.44 117.667,139.581C 117.667,146.721 123.456,152.51 130.597,152.51C 137.738,152.51 143.527,146.721 143.527,139.581C 143.527,132.44 137.738,126.651 130.597,126.651 Z M 70.6426,83.9436L 72.2099,83.9436L 72.2099,78.116C 72.2099,74.6538 75.0166,71.8469 78.4788,71.8469L 86.9735,71.8469C 90.4357,71.8469 93.2424,74.6538 93.2424,78.116L 93.2424,83.9436L 190.274,83.9436C 191.573,83.9436 192.625,84.9961 192.625,86.2944L 192.625,183.904C 192.625,185.202 191.573,186.255 190.274,186.255L 70.6426,186.255C 69.3443,186.255 68.2918,185.202 68.2918,183.904L 68.2918,86.2944C 68.2918,84.9961 69.3443,83.9436 70.6426,83.9436 Z M 131.242,108.677C 114.292,108.677 100.55,122.418 100.55,139.369C 100.55,156.319 114.292,170.06 131.242,170.06C 148.192,170.06 161.934,156.319 161.934,139.369C 161.934,122.418 148.192,108.677 131.242,108.677 Z M 172.055,91.3896C 169.35,91.3896 167.157,93.5823 167.157,96.2871C 167.157,98.9919 169.35,101.185 172.055,101.185L 180.793,101.185C 183.498,101.185 185.69,98.9919 185.69,96.2871C 185.69,93.5823 183.498,91.3896 180.793,91.3896L 172.055,91.3896 Z "/>
	</g>
</svg>
