<?xml version="1.0" encoding="UTF-8" standalone="yes"?>
<svg xmlns="http://www.w3.org/2000/svg" xmlns:xlink="http://www.w3.org/1999/xlink" width="48px" height="48px" viewBox="0 0 36 36" version="1.1">
  <g id="surface1">
    <path style=" stroke:none;fill-rule:nonzero;fill:rgb(100%,86.666667%,40.392157%);fill-opacity:1;" d="M 34.875 18 C 34.875 27.320312 27.320312 34.875 18 34.875 C 8.679688 34.875 1.125 27.320312 1.125 18 C 1.125 8.679688 8.679688 1.125 18 1.125 C 27.320312 1.125 34.875 8.679688 34.875 18 Z M 34.875 18 "/>
    <path style=" stroke:none;fill-rule:nonzero;fill:rgb(40%,30.588235%,15.294118%);fill-opacity:1;" d="M 27.953125 19.371094 C 27.726562 19.078125 27.320312 19.128906 26.878906 19.128906 L 9.121094 19.128906 C 8.679688 19.128906 8.273438 19.078125 8.046875 19.371094 C 5.847656 22.175781 8.433594 30.375 18 30.375 C 27.566406 30.375 30.152344 22.175781 27.953125 19.371094 Z M 27.953125 19.371094 "/>
    <path style=" stroke:none;fill-rule:nonzero;fill:rgb(29.803922%,20.784314%,14.901961%);fill-opacity:1;" d="M 19.035156 23.480469 C 18.710938 23.472656 18.210938 23.773438 18.394531 24.582031 C 18.484375 24.988281 19.0625 25.476562 19.0625 26.132812 C 19.0625 27.46875 16.9375 27.46875 16.9375 26.132812 C 16.9375 25.476562 17.515625 24.988281 17.605469 24.582031 C 17.789062 23.773438 17.289062 23.472656 16.960938 23.480469 C 16.078125 23.503906 14.628906 24.457031 14.628906 26.070312 C 14.628906 27.882812 16.140625 29.351562 18 29.351562 C 19.859375 29.351562 21.367188 27.882812 21.367188 26.070312 C 21.371094 24.457031 19.917969 23.503906 19.035156 23.480469 Z M 19.035156 23.480469 "/>
    <path style=" stroke:none;fill-rule:nonzero;fill:rgb(100%,44.313725%,49.803922%);fill-opacity:1;" d="M 13.660156 28.5 C 14.914062 29.035156 16.363281 29.351562 18 29.351562 C 19.640625 29.351562 21.085938 29.035156 22.339844 28.5 C 21.128906 27.917969 19.6875 27.5625 18 27.5625 C 16.3125 27.5625 14.871094 27.917969 13.660156 28.5 Z M 13.660156 28.5 "/>
    <path style=" stroke:none;fill-rule:nonzero;fill:rgb(100%,100%,100%);fill-opacity:1;" d="M 26.410156 20.25 L 9.589844 20.25 C 8.433594 20.25 8.433594 22.5 9.558594 22.5 L 26.441406 22.5 C 27.566406 22.5 27.566406 20.25 26.410156 20.25 Z M 26.410156 20.25 "/>
    <path style=" stroke:none;fill-rule:nonzero;fill:rgb(40%,30.588235%,15.294118%);fill-opacity:1;" d="M 14.34375 12.9375 C 14.34375 14.492188 13.085938 15.75 11.53125 15.75 C 9.976562 15.75 8.71875 14.492188 8.71875 12.9375 C 8.71875 11.382812 9.976562 10.125 11.53125 10.125 C 13.085938 10.125 14.34375 11.382812 14.34375 12.9375 Z M 14.34375 12.9375 "/>
    <path style=" stroke:none;fill-rule:nonzero;fill:rgb(40%,30.588235%,15.294118%);fill-opacity:1;" d="M 27.28125 12.9375 C 27.28125 14.492188 26.023438 15.75 24.46875 15.75 C 22.914062 15.75 21.65625 14.492188 21.65625 12.9375 C 21.65625 11.382812 22.914062 10.125 24.46875 10.125 C 26.023438 10.125 27.28125 11.382812 27.28125 12.9375 Z M 27.28125 12.9375 "/>
  </g>
</svg>