<?xml version="1.0" encoding="UTF-8" standalone="yes"?>
<svg xmlns="http://www.w3.org/2000/svg" xmlns:xlink="http://www.w3.org/1999/xlink" width="48px" height="48px" viewBox="0 0 36 36" version="1.1">
  <g id="surface1">
    <path style=" stroke:none;fill-rule:nonzero;fill:rgb(100%,86.666667%,40.392157%);fill-opacity:1;" d="M 34.875 18 C 34.875 27.320312 27.320312 34.875 18 34.875 C 8.679688 34.875 1.125 27.320312 1.125 18 C 1.125 8.679688 8.679688 1.125 18 1.125 C 27.320312 1.125 34.875 8.679688 34.875 18 Z M 34.875 18 "/>
    <path style=" stroke:none;fill-rule:nonzero;fill:rgb(95.686275%,40.392157%,40.392157%);fill-opacity:1;" d="M 34.789062 7.4375 C 34.527344 5.941406 33.648438 4.6875 32.277344 4.3125 C 30.785156 3.902344 29.421875 4.488281 28.09375 5.832031 C 27.351562 3.789062 26.21875 2.273438 24.425781 1.496094 C 22.59375 0.695312 20.8125 1.234375 19.6875 2.65625 C 18.519531 4.136719 18.054688 6.414062 19.304688 9.394531 C 20.476562 12.183594 25.726562 17.835938 25.878906 18 C 26.082031 17.871094 31.925781 14.21875 33.359375 12.425781 C 34.757812 10.671875 35.046875 8.921875 34.789062 7.4375 Z M 16.3125 2.65625 C 15.191406 1.234375 13.40625 0.695312 11.574219 1.496094 C 9.78125 2.273438 8.648438 3.789062 7.90625 5.832031 C 6.578125 4.492188 5.214844 3.902344 3.722656 4.3125 C 2.355469 4.6875 1.472656 5.941406 1.210938 7.4375 C 0.953125 8.925781 1.242188 10.671875 2.640625 12.425781 C 4.074219 14.21875 9.921875 17.871094 10.125 18 C 10.277344 17.835938 15.523438 12.179688 16.695312 9.390625 C 17.945312 6.414062 17.480469 4.136719 16.3125 2.65625 Z M 16.3125 2.65625 "/>
    <path style=" stroke:none;fill-rule:nonzero;fill:rgb(40%,30.588235%,15.294118%);fill-opacity:1;" d="M 27.5625 21.402344 C 27.5625 20.953125 27.296875 20.386719 26.539062 20.242188 C 24.589844 19.871094 21.710938 19.484375 18 19.484375 C 14.289062 19.484375 11.410156 19.871094 9.460938 20.242188 C 8.703125 20.386719 8.4375 20.953125 8.4375 21.402344 C 8.4375 25.492188 11.59375 29.609375 18 29.609375 C 24.40625 29.609375 27.5625 25.492188 27.5625 21.402344 Z M 27.5625 21.402344 "/>
    <path style=" stroke:none;fill-rule:nonzero;fill:rgb(100%,100%,100%);fill-opacity:1;" d="M 25.136719 21.535156 C 23.902344 21.328125 21.292969 20.964844 18 20.964844 C 14.707031 20.964844 12.097656 21.328125 10.859375 21.535156 C 10.132812 21.65625 10.089844 21.953125 10.140625 22.371094 C 10.171875 22.621094 10.214844 22.917969 10.289062 23.242188 C 10.367188 23.605469 10.4375 23.769531 11 23.703125 C 12.082031 23.574219 23.921875 23.574219 25 23.703125 C 25.566406 23.769531 25.632812 23.605469 25.710938 23.242188 C 25.785156 22.917969 25.832031 22.621094 25.863281 22.371094 C 25.910156 21.953125 25.867188 21.65625 25.136719 21.535156 Z M 25.136719 21.535156 "/>
  </g>
</svg>