<?xml version="1.0" encoding="UTF-8" standalone="yes"?>
<svg xmlns="http://www.w3.org/2000/svg" xmlns:xlink="http://www.w3.org/1999/xlink" width="48px" height="48px" viewBox="0 0 36 36" version="1.1">
  <g id="surface1">
    <path style=" stroke:none;fill-rule:nonzero;fill:rgb(100%,86.666667%,40.392157%);fill-opacity:1;" d="M 34.875 18 C 34.875 27.320312 27.320312 34.875 18 34.875 C 8.679688 34.875 1.125 27.320312 1.125 18 C 1.125 8.679688 8.679688 1.125 18 1.125 C 27.320312 1.125 34.875 8.679688 34.875 18 Z M 34.875 18 "/>
    <path style=" stroke:none;fill-rule:nonzero;fill:rgb(40%,30.588235%,15.294118%);fill-opacity:1;" d="M 14.34375 13.832031 C 14.34375 15.386719 13.085938 16.644531 11.53125 16.644531 C 9.976562 16.644531 8.71875 15.386719 8.71875 13.832031 C 8.71875 12.28125 9.976562 11.019531 11.53125 11.019531 C 13.085938 11.019531 14.34375 12.28125 14.34375 13.832031 Z M 14.34375 13.832031 "/>
    <path style=" stroke:none;fill-rule:nonzero;fill:rgb(40%,30.588235%,15.294118%);fill-opacity:1;" d="M 27.28125 13.832031 C 27.28125 15.386719 26.023438 16.644531 24.46875 16.644531 C 22.914062 16.644531 21.65625 15.386719 21.65625 13.832031 C 21.65625 12.28125 22.914062 11.019531 24.46875 11.019531 C 26.023438 11.019531 27.28125 12.28125 27.28125 13.832031 Z M 27.28125 13.832031 "/>
    <path style=" stroke:none;fill-rule:nonzero;fill:rgb(40%,30.588235%,15.294118%);fill-opacity:1;" d="M 27.0625 20.824219 C 24.628906 24.257812 21.746094 25.125 18 25.125 C 14.253906 25.125 11.371094 24.257812 8.9375 20.824219 C 8.597656 20.34375 7.707031 20.648438 7.902344 21.339844 C 9.183594 25.84375 13.527344 28.464844 18 28.464844 C 22.472656 28.464844 26.816406 25.84375 28.097656 21.339844 C 28.292969 20.648438 27.402344 20.34375 27.0625 20.824219 Z M 27.0625 20.824219 "/>
  </g>
</svg>