<?xml version="1.0" encoding="UTF-8" standalone="yes"?>
<svg xmlns="http://www.w3.org/2000/svg" xmlns:xlink="http://www.w3.org/1999/xlink" width="48px" height="48px" viewBox="0 0 36 36" version="1.1">
  <g id="surface1">
    <path style=" stroke:none;fill-rule:nonzero;fill:rgb(100%,86.666667%,40.392157%);fill-opacity:1;" d="M 34.875 18 C 34.875 27.320312 27.320312 34.875 18 34.875 C 8.679688 34.875 1.125 27.320312 1.125 18 C 1.125 8.679688 8.679688 1.125 18 1.125 C 27.320312 1.125 34.875 8.679688 34.875 18 Z M 34.875 18 "/>
    <path style=" stroke:none;fill-rule:nonzero;fill:rgb(40%,30.588235%,15.294118%);fill-opacity:1;" d="M 14.34375 16.644531 C 14.34375 18.199219 13.085938 19.457031 11.53125 19.457031 C 9.976562 19.457031 8.71875 18.199219 8.71875 16.644531 C 8.71875 15.089844 9.976562 13.832031 11.53125 13.832031 C 13.085938 13.832031 14.34375 15.089844 14.34375 16.644531 Z M 14.34375 16.644531 "/>
    <path style=" stroke:none;fill-rule:nonzero;fill:rgb(40%,30.588235%,15.294118%);fill-opacity:1;" d="M 27.28125 16.644531 C 27.28125 18.199219 26.023438 19.457031 24.46875 19.457031 C 22.914062 19.457031 21.65625 18.199219 21.65625 16.644531 C 21.65625 15.089844 22.914062 13.832031 24.46875 13.832031 C 26.023438 13.832031 27.28125 15.089844 27.28125 16.644531 Z M 27.28125 16.644531 "/>
    <path style=" stroke:none;fill-rule:nonzero;fill:rgb(56.862745%,45.882353%,14.117647%);fill-opacity:1;" d="M 28.800781 10.53125 C 26.980469 8.996094 24.570312 8.351562 22.226562 8.769531 C 21.898438 8.835938 21.613281 7.632812 22.007812 7.558594 C 24.714844 7.070312 27.496094 7.816406 29.597656 9.589844 C 29.902344 9.855469 29.050781 10.75 28.800781 10.53125 Z M 13.773438 8.6875 C 11.429688 8.265625 9.019531 8.910156 7.195312 10.449219 C 6.949219 10.667969 6.097656 9.769531 6.402344 9.507812 C 8.503906 7.734375 11.285156 6.988281 13.992188 7.472656 C 14.386719 7.546875 14.101562 8.75 13.773438 8.6875 Z M 13.773438 8.6875 "/>
    <path style=" stroke:none;fill-rule:nonzero;fill:rgb(40%,30.588235%,15.294118%);fill-opacity:1;" d="M 22.828125 24.992188 C 19.789062 23.5625 16.195312 23.5625 13.152344 24.984375 C 12.402344 25.347656 13.339844 27.320312 14.089844 26.953125 C 16.097656 26.015625 19.09375 25.65625 21.894531 26.957031 C 22.644531 27.304688 23.625 25.375 22.828125 24.992188 Z M 22.828125 24.992188 "/>
  </g>
</svg>