<?xml version="1.0" encoding="UTF-8" standalone="yes"?>
<svg xmlns="http://www.w3.org/2000/svg" xmlns:xlink="http://www.w3.org/1999/xlink" width="48px" height="48px" viewBox="0 0 36 36" version="1.1">
  <g id="surface1">
    <path style=" stroke:none;fill-rule:nonzero;fill:rgb(100%,86.666667%,40.392157%);fill-opacity:1;" d="M 34.875 18 C 34.875 27.320312 27.320312 34.875 18 34.875 C 8.679688 34.875 1.125 27.320312 1.125 18 C 1.125 8.679688 8.679688 1.125 18 1.125 C 27.320312 1.125 34.875 8.679688 34.875 18 Z M 34.875 18 "/>
    <path style=" stroke:none;fill-rule:nonzero;fill:rgb(40%,30.588235%,15.294118%);fill-opacity:1;" d="M 29.539062 22.5 C 28.277344 20.480469 25.210938 19.125 18 19.125 C 10.789062 19.125 7.722656 20.480469 6.460938 22.5 C 5.785156 23.578125 6.75 25.3125 6.75 25.3125 C 7.953125 27.496094 7.785156 28.125 18 28.125 C 28.203125 28.125 28.042969 27.496094 29.25 25.3125 C 29.25 25.3125 30.214844 23.578125 29.539062 22.5 Z M 29.539062 22.5 "/>
    <path style=" stroke:none;fill-rule:nonzero;fill:rgb(40%,30.588235%,15.294118%);fill-opacity:1;" d="M 14.34375 13.78125 C 14.34375 15.335938 13.085938 16.59375 11.53125 16.59375 C 9.976562 16.59375 8.71875 15.335938 8.71875 13.78125 C 8.71875 12.226562 9.976562 10.96875 11.53125 10.96875 C 13.085938 10.96875 14.34375 12.226562 14.34375 13.78125 Z M 14.34375 13.78125 "/>
    <path style=" stroke:none;fill-rule:nonzero;fill:rgb(40%,30.588235%,15.294118%);fill-opacity:1;" d="M 27.28125 13.78125 C 27.28125 15.335938 26.023438 16.59375 24.46875 16.59375 C 22.914062 16.59375 21.65625 15.335938 21.65625 13.78125 C 21.65625 12.226562 22.914062 10.96875 24.46875 10.96875 C 26.023438 10.96875 27.28125 12.226562 27.28125 13.78125 Z M 27.28125 13.78125 "/>
    <path style=" stroke:none;fill-rule:nonzero;fill:rgb(100%,100%,100%);fill-opacity:1;" d="M 26.988281 22.488281 C 27.046875 22.1875 26.890625 21.808594 26.644531 21.652344 C 26.644531 21.652344 24.453125 20.25 18 20.25 C 11.550781 20.25 9.355469 21.652344 9.355469 21.652344 C 9.109375 21.808594 8.953125 22.1875 9.011719 22.488281 L 9.125 23.074219 C 9.179688 23.375 9.460938 23.625 9.746094 23.625 L 26.253906 23.625 C 26.539062 23.625 26.820312 23.375 26.875 23.074219 Z M 18 27 C 21.53125 27 26.570312 27 26.433594 25.84375 C 26.414062 25.640625 26.351562 25.394531 26.277344 25.125 C 26.191406 24.832031 26.121094 24.75 25.511719 24.75 L 10.488281 24.75 C 9.878906 24.75 9.8125 24.832031 9.726562 25.125 C 9.648438 25.394531 9.589844 25.640625 9.566406 25.84375 C 9.429688 27 14.46875 27 18 27 Z M 18 27 "/>
  </g>
</svg>