<?xml version="1.0" encoding="UTF-8" standalone="yes"?>
<svg xmlns="http://www.w3.org/2000/svg" xmlns:xlink="http://www.w3.org/1999/xlink" width="48px" height="48px" viewBox="0 0 36 36" version="1.1">
  <g id="surface1">
    <path style=" stroke:none;fill-rule:nonzero;fill:rgb(39.607843%,69.411765%,93.72549%);fill-opacity:1;" d="M 16.84375 33.691406 C 16.84375 33.226562 13.703125 32.847656 9.828125 32.847656 C 5.953125 32.847656 2.8125 33.226562 2.8125 33.691406 C 2.8125 34.15625 5.953125 34.535156 9.828125 34.535156 C 13.703125 34.535156 16.84375 34.15625 16.84375 33.691406 Z M 16.84375 33.691406 "/>
    <path style=" stroke:none;fill-rule:nonzero;fill:rgb(39.607843%,69.411765%,93.72549%);fill-opacity:1;" d="M 34.875 33.859375 C 34.875 33.300781 30.328125 32.847656 24.722656 32.847656 C 19.117188 32.847656 14.570312 33.300781 14.570312 33.859375 C 14.570312 34.421875 19.117188 34.875 24.722656 34.875 C 30.328125 34.875 34.875 34.421875 34.875 33.859375 Z M 34.875 33.859375 "/>
    <path style=" stroke:none;fill-rule:nonzero;fill:rgb(100%,86.666667%,40.392157%);fill-opacity:1;" d="M 34.875 18 C 34.875 27.320312 27.320312 34.875 18 34.875 C 8.679688 34.875 1.125 27.320312 1.125 18 C 1.125 8.679688 8.679688 1.125 18 1.125 C 27.320312 1.125 34.875 8.679688 34.875 18 Z M 34.875 18 "/>
    <path style=" stroke:none;fill-rule:nonzero;fill:rgb(40%,30.588235%,15.294118%);fill-opacity:1;" d="M 25.164062 25.875 C 24.378906 23.855469 22.476562 22.5 18 22.5 C 13.523438 22.5 11.617188 23.855469 10.835938 25.875 C 10.417969 26.953125 11.015625 28.6875 11.015625 28.6875 C 11.765625 30.871094 11.660156 31.5 18 31.5 C 24.332031 31.5 24.234375 30.871094 24.984375 28.6875 C 24.984375 28.6875 25.582031 26.953125 25.164062 25.875 Z M 25.164062 25.875 "/>
    <path style=" stroke:none;fill-rule:nonzero;fill:rgb(100%,100%,100%);fill-opacity:1;" d="M 23.046875 25.292969 C 23.085938 25.148438 23.046875 24.945312 22.953125 24.84375 C 22.953125 24.84375 21.820312 23.625 18 23.625 C 14.179688 23.625 13.046875 24.84375 13.046875 24.84375 C 12.957031 24.945312 12.914062 25.148438 12.953125 25.292969 L 13.039062 25.609375 C 13.078125 25.753906 13.210938 25.875 13.332031 25.875 L 22.664062 25.875 C 22.789062 25.875 22.921875 25.753906 22.960938 25.609375 Z M 23.046875 25.292969 "/>
    <path style=" stroke:none;fill-rule:nonzero;fill:rgb(39.607843%,69.411765%,93.72549%);fill-opacity:1;" d="M 25.019531 34.015625 L 28.863281 34.015625 C 33.476562 28.4375 27.996094 22.75 29.371094 17.253906 C 28.085938 17.253906 26.804688 18.683594 25.523438 18.683594 C 23.753906 24.023438 29.632812 28.4375 25.019531 34.015625 Z M 10.980469 34.015625 L 7.132812 34.015625 C 2.523438 28.4375 8.003906 22.75 6.628906 17.253906 C 7.910156 17.253906 9.191406 18.683594 10.476562 18.683594 C 12.246094 24.023438 6.367188 28.4375 10.980469 34.015625 Z M 10.980469 34.015625 "/>
    <path style=" stroke:none;fill-rule:nonzero;fill:rgb(56.862745%,45.882353%,14.117647%);fill-opacity:1;" d="M 22.875 10.296875 C 24.554688 11.984375 26.898438 12.839844 29.273438 12.625 C 29.605469 12.589844 29.785156 13.808594 29.382812 13.851562 C 26.644531 14.101562 23.9375 13.113281 22 11.164062 C 21.71875 10.875 22.644531 10.058594 22.875 10.296875 Z M 6.726562 12.625 C 9.097656 12.839844 11.445312 11.984375 13.125 10.292969 C 13.355469 10.054688 14.277344 10.875 13.996094 11.164062 C 12.058594 13.113281 9.351562 14.097656 6.613281 13.851562 C 6.214844 13.808594 6.394531 12.589844 6.726562 12.625 Z M 6.726562 12.625 "/>
    <path style=" stroke:none;fill-rule:nonzero;fill:rgb(40%,30.588235%,15.294118%);fill-opacity:1;" d="M 20.203125 17.03125 C 22.570312 21.503906 27.34375 21.503906 29.714844 17.03125 C 29.832031 16.804688 29.523438 16.703125 29.144531 16.449219 C 26.769531 18.316406 22.925781 18.144531 20.769531 16.449219 C 20.394531 16.703125 20.085938 16.804688 20.203125 17.03125 Z M 6.285156 17.03125 C 8.65625 21.503906 13.429688 21.503906 15.800781 17.03125 C 15.914062 16.804688 15.609375 16.703125 15.230469 16.449219 C 12.855469 18.316406 9.007812 18.144531 6.855469 16.449219 C 6.476562 16.703125 6.171875 16.804688 6.285156 17.03125 Z M 6.285156 17.03125 "/>
  </g>
</svg>