<?xml version="1.0" encoding="UTF-8" standalone="yes"?>
<svg xmlns="http://www.w3.org/2000/svg" xmlns:xlink="http://www.w3.org/1999/xlink" width="48px" height="48px" viewBox="0 0 36 36" version="1.1">
  <g id="surface1">
    <path style=" stroke:none;fill-rule:nonzero;fill:rgb(100%,86.666667%,40.392157%);fill-opacity:1;" d="M 34.871094 18 C 34.871094 27.320312 27.316406 34.875 17.996094 34.875 C 8.679688 34.875 1.121094 27.320312 1.121094 18 C 1.121094 8.679688 8.679688 1.125 17.996094 1.125 C 27.316406 1.125 34.871094 8.679688 34.871094 18 Z M 34.871094 18 "/>
    <path style=" stroke:none;fill-rule:nonzero;fill:rgb(40%,30.588235%,15.294118%);fill-opacity:1;" d="M 21.933594 25.390625 C 21.933594 27.566406 20.171875 29.328125 17.996094 29.328125 C 15.824219 29.328125 14.058594 27.566406 14.058594 25.390625 C 14.058594 23.214844 15.824219 21.453125 17.996094 21.453125 C 20.171875 21.453125 21.933594 23.214844 21.933594 25.390625 Z M 21.933594 25.390625 "/>
    <path style=" stroke:none;fill-rule:nonzero;fill:rgb(40%,30.588235%,15.294118%);fill-opacity:1;" d="M 13.917969 14.085938 C 13.917969 15.484375 12.785156 16.617188 11.386719 16.617188 C 9.988281 16.617188 8.855469 15.484375 8.855469 14.085938 C 8.855469 12.6875 9.988281 11.554688 11.386719 11.554688 C 12.785156 11.554688 13.917969 12.6875 13.917969 14.085938 Z M 13.917969 14.085938 "/>
    <path style=" stroke:none;fill-rule:nonzero;fill:rgb(40%,30.588235%,15.294118%);fill-opacity:1;" d="M 26.574219 14.085938 C 26.574219 15.484375 25.441406 16.617188 24.042969 16.617188 C 22.648438 16.617188 21.511719 15.484375 21.511719 14.085938 C 21.511719 12.6875 22.648438 11.554688 24.042969 11.554688 C 25.441406 11.554688 26.574219 12.6875 26.574219 14.085938 Z M 26.574219 14.085938 "/>
  </g>
</svg>