<?xml version="1.0" encoding="UTF-8" standalone="yes"?>
<svg xmlns="http://www.w3.org/2000/svg" xmlns:xlink="http://www.w3.org/1999/xlink" width="48px" height="48px" viewBox="0 0 36 36" version="1.1">
  <g id="surface1">
    <path style=" stroke:none;fill-rule:nonzero;fill:rgb(100%,86.666667%,40.392157%);fill-opacity:1;" d="M 34.875 18 C 34.875 27.320312 27.320312 34.875 18 34.875 C 8.679688 34.875 1.125 27.320312 1.125 18 C 1.125 8.679688 8.679688 1.125 18 1.125 C 27.320312 1.125 34.875 8.679688 34.875 18 Z M 34.875 18 "/>
    <path style=" stroke:none;fill-rule:nonzero;fill:rgb(100%,100%,100%);fill-opacity:1;" d="M 25.59375 22.5 C 29.011719 22.5 31.78125 19.730469 31.78125 16.3125 C 31.78125 15.390625 31.574219 14.519531 31.214844 13.734375 C 29.628906 13.015625 27.691406 12.585938 25.59375 12.585938 C 23.496094 12.585938 21.5625 13.015625 19.972656 13.734375 C 19.601562 14.542969 19.40625 15.421875 19.40625 16.3125 C 19.40625 19.730469 22.175781 22.5 25.59375 22.5 Z M 25.59375 22.5 "/>
    <path style=" stroke:none;fill-rule:nonzero;fill:rgb(40%,30.588235%,15.294118%);fill-opacity:1;" d="M 25.875 12.59375 C 25.269531 13.492188 25.304688 14.679688 25.964844 15.542969 C 26.621094 16.40625 27.757812 16.753906 28.785156 16.40625 C 29.816406 16.058594 30.507812 15.09375 30.507812 14.007812 C 30.507812 13.804688 30.476562 13.609375 30.429688 13.417969 C 29.082031 12.921875 27.535156 12.625 25.875 12.59375 Z M 25.875 12.59375 "/>
    <path style=" stroke:none;fill-rule:nonzero;fill:rgb(100%,100%,100%);fill-opacity:1;" d="M 10.40625 22.5 C 13.824219 22.5 16.59375 19.730469 16.59375 16.3125 C 16.59375 15.390625 16.386719 14.519531 16.027344 13.734375 C 14.441406 13.015625 12.503906 12.585938 10.40625 12.585938 C 8.308594 12.585938 6.375 13.015625 4.785156 13.734375 C 4.414062 14.542969 4.21875 15.421875 4.21875 16.3125 C 4.21875 19.730469 6.988281 22.5 10.40625 22.5 Z M 10.40625 22.5 "/>
    <path style=" stroke:none;fill-rule:nonzero;fill:rgb(40%,30.588235%,15.294118%);fill-opacity:1;" d="M 10.6875 12.59375 C 10.082031 13.492188 10.117188 14.679688 10.777344 15.542969 C 11.433594 16.40625 12.570312 16.753906 13.597656 16.40625 C 14.628906 16.058594 15.320312 15.09375 15.320312 14.007812 C 15.320312 13.804688 15.289062 13.609375 15.242188 13.417969 C 13.894531 12.921875 12.347656 12.625 10.6875 12.59375 Z M 22.828125 26.621094 C 19.789062 25.191406 16.195312 25.191406 13.152344 26.613281 C 12.402344 26.976562 13.339844 28.949219 14.089844 28.582031 C 16.097656 27.644531 19.09375 27.285156 21.894531 28.589844 C 22.644531 28.9375 23.625 27.007812 22.828125 26.621094 Z M 22.828125 26.621094 "/>
  </g>
</svg>