<?xml version="1.0" encoding="UTF-8" standalone="yes"?>
<svg xmlns="http://www.w3.org/2000/svg" xmlns:xlink="http://www.w3.org/1999/xlink" width="48px" height="48px" viewBox="0 0 36 36" version="1.1">
  <g id="surface1">
    <path style=" stroke:none;fill-rule:nonzero;fill:rgb(100%,86.666667%,40.392157%);fill-opacity:1;" d="M 34.875 18 C 34.875 27.320312 27.320312 34.875 18 34.875 C 8.679688 34.875 1.125 27.320312 1.125 18 C 1.125 8.679688 8.679688 1.125 18 1.125 C 27.320312 1.125 34.875 8.679688 34.875 18 Z M 34.875 18 "/>
    <path style=" stroke:none;fill-rule:nonzero;fill:rgb(100%,100%,100%);fill-opacity:1;" d="M 16.875 16.3125 C 16.875 19.730469 14.105469 22.5 10.6875 22.5 C 7.269531 22.5 4.5 19.730469 4.5 16.3125 C 4.5 12.894531 7.269531 10.125 10.6875 10.125 C 14.105469 10.125 16.875 12.894531 16.875 16.3125 Z M 16.875 16.3125 "/>
    <path style=" stroke:none;fill-rule:nonzero;fill:rgb(40%,30.588235%,15.294118%);fill-opacity:1;" d="M 13.5 16.3125 C 13.5 17.867188 12.238281 19.125 10.6875 19.125 C 9.132812 19.125 7.875 17.863281 7.875 16.3125 C 7.875 14.757812 9.132812 13.5 10.6875 13.5 C 12.242188 13.5 13.5 14.757812 13.5 16.3125 Z M 13.5 16.3125 "/>
    <path style=" stroke:none;fill-rule:nonzero;fill:rgb(100%,100%,100%);fill-opacity:1;" d="M 31.5 16.3125 C 31.5 19.730469 28.726562 22.5 25.3125 22.5 C 21.894531 22.5 19.125 19.730469 19.125 16.3125 C 19.125 12.894531 21.894531 10.125 25.3125 10.125 C 28.726562 10.125 31.5 12.894531 31.5 16.3125 Z M 31.5 16.3125 "/>
    <path style=" stroke:none;fill-rule:nonzero;fill:rgb(40%,30.588235%,15.294118%);fill-opacity:1;" d="M 28.125 16.3125 C 28.125 17.867188 26.863281 19.125 25.3125 19.125 C 23.757812 19.125 22.5 17.863281 22.5 16.3125 C 22.5 14.757812 23.757812 13.5 25.3125 13.5 C 26.867188 13.5 28.125 14.757812 28.125 16.3125 Z M 28.125 16.3125 "/>
    <path style=" stroke:none;fill-rule:nonzero;fill:rgb(56.862745%,45.882353%,14.117647%);fill-opacity:1;" d="M 28.238281 8.875 C 26.417969 7.335938 24.007812 6.691406 21.660156 7.113281 C 21.335938 7.175781 21.050781 5.976562 21.445312 5.898438 C 24.152344 5.414062 26.933594 6.160156 29.035156 7.933594 C 29.339844 8.195312 28.488281 9.09375 28.238281 8.875 Z M 14.335938 7.027344 C 11.992188 6.605469 9.582031 7.253906 7.757812 8.789062 C 7.511719 9.007812 6.660156 8.113281 6.964844 7.847656 C 9.066406 6.074219 11.847656 5.328125 14.554688 5.816406 C 14.949219 5.890625 14.664062 7.089844 14.335938 7.027344 Z M 14.335938 7.027344 "/>
    <path style=" stroke:none;fill-rule:nonzero;fill:rgb(40%,30.588235%,15.294118%);fill-opacity:1;" d="M 23.0625 27.5625 C 23.0625 30.359375 20.796875 32.625 18 32.625 C 15.203125 32.625 12.9375 30.359375 12.9375 27.5625 C 12.9375 24.765625 15.203125 22.5 18 22.5 C 20.796875 22.5 23.0625 24.765625 23.0625 27.5625 Z M 23.0625 27.5625 "/>
    <path style=" stroke:none;fill-rule:nonzero;fill:rgb(100%,100%,100%);fill-opacity:1;" d="M 14.625 25.875 C 15.296875 24.53125 16.558594 23.625 18 23.625 C 19.441406 23.625 20.699219 24.527344 21.375 25.875 Z M 14.625 25.875 "/>
  </g>
</svg>