<?xml version="1.0" encoding="UTF-8" standalone="yes"?>
<svg xmlns="http://www.w3.org/2000/svg" xmlns:xlink="http://www.w3.org/1999/xlink" width="48px" height="48px" viewBox="0 0 36 36" version="1.1">
  <g id="surface1">
    <path style=" stroke:none;fill-rule:nonzero;fill:rgb(100%,86.666667%,40.392157%);fill-opacity:1;" d="M 34.875 18 C 34.875 27.320312 27.320312 34.875 18 34.875 C 8.679688 34.875 1.125 27.320312 1.125 18 C 1.125 8.679688 8.679688 1.125 18 1.125 C 27.320312 1.125 34.875 8.679688 34.875 18 Z M 34.875 18 "/>
    <path style=" stroke:none;fill-rule:nonzero;fill:rgb(40%,30.588235%,15.294118%);fill-opacity:1;" d="M 16.09375 11.164062 L 9.257812 18 C 8.824219 18.433594 7.257812 16.867188 7.691406 16.433594 L 14.527344 9.597656 C 14.960938 9.164062 16.527344 10.730469 16.09375 11.164062 Z M 16.09375 11.164062 "/>
    <path style=" stroke:none;fill-rule:nonzero;fill:rgb(40%,30.588235%,15.294118%);fill-opacity:1;" d="M 14.527344 18 L 7.691406 11.164062 C 7.257812 10.730469 8.824219 9.164062 9.257812 9.597656 L 16.09375 16.433594 C 16.527344 16.867188 14.960938 18.433594 14.527344 18 Z M 14.527344 18 "/>
    <path style=" stroke:none;fill-rule:nonzero;fill:rgb(40%,30.588235%,15.294118%);fill-opacity:1;" d="M 28.3125 11.164062 L 21.472656 18 C 21.039062 18.433594 19.476562 16.867188 19.910156 16.433594 L 26.742188 9.597656 C 27.175781 9.164062 28.742188 10.730469 28.3125 11.164062 Z M 28.3125 11.164062 "/>
    <path style=" stroke:none;fill-rule:nonzero;fill:rgb(40%,30.588235%,15.294118%);fill-opacity:1;" d="M 26.742188 18 L 19.910156 11.164062 C 19.476562 10.730469 21.042969 9.164062 21.472656 9.597656 L 28.308594 16.433594 C 28.742188 16.867188 27.175781 18.433594 26.742188 18 Z M 26.742188 18 "/>
    <path style=" stroke:none;fill-rule:nonzero;fill:rgb(40%,30.588235%,15.294118%);fill-opacity:1;" d="M 23.0625 26.4375 C 23.0625 29.234375 20.796875 31.5 18 31.5 C 15.203125 31.5 12.9375 29.234375 12.9375 26.4375 C 12.9375 23.640625 15.203125 21.375 18 21.375 C 20.796875 21.375 23.0625 23.640625 23.0625 26.4375 Z M 23.0625 26.4375 "/>
    <path style=" stroke:none;fill-rule:nonzero;fill:rgb(100%,100%,100%);fill-opacity:1;" d="M 14.625 24.75 C 15.300781 23.40625 16.558594 22.5 18 22.5 C 19.441406 22.5 20.699219 23.40625 21.375 24.75 Z M 14.625 24.75 "/>
  </g>
</svg>