<?xml version="1.0" encoding="UTF-8" standalone="yes"?>
<svg xmlns="http://www.w3.org/2000/svg" xmlns:xlink="http://www.w3.org/1999/xlink" width="48px" height="48px" viewBox="0 0 36 36" version="1.1">
  <g id="surface1">
    <path style=" stroke:none;fill-rule:nonzero;fill:rgb(100%,86.666667%,40.392157%);fill-opacity:1;" d="M 34.3125 18.5625 C 34.3125 27.574219 27.011719 34.875 18 34.875 C 8.996094 34.875 1.6875 27.574219 1.6875 18.5625 C 1.6875 9.550781 8.996094 2.25 18 2.25 C 27.011719 2.25 34.3125 9.550781 34.3125 18.5625 Z M 34.3125 18.5625 "/>
    <path style=" stroke:none;fill-rule:nonzero;fill:rgb(40%,30.588235%,15.294118%);fill-opacity:1;" d="M 16.109375 19.359375 C 15.101562 16.578125 13.578125 15.1875 12.054688 15.1875 C 10.53125 15.1875 9.007812 16.578125 7.996094 19.359375 C 7.898438 19.636719 8.417969 20.140625 8.679688 19.867188 C 9.660156 18.835938 10.832031 18.421875 12.054688 18.421875 C 13.277344 18.421875 14.449219 18.835938 15.429688 19.867188 C 15.691406 20.140625 16.210938 19.636719 16.109375 19.359375 Z M 28 19.359375 C 26.992188 16.578125 25.46875 15.1875 23.945312 15.1875 C 22.421875 15.1875 20.898438 16.578125 19.886719 19.359375 C 19.789062 19.636719 20.308594 20.140625 20.570312 19.867188 C 21.550781 18.835938 22.722656 18.421875 23.945312 18.421875 C 25.167969 18.421875 26.339844 18.835938 27.320312 19.867188 C 27.578125 20.140625 28.101562 19.636719 28 19.359375 Z M 28 19.359375 "/>
    <path style=" stroke:none;fill-rule:nonzero;fill:rgb(40%,30.588235%,15.294118%);fill-opacity:1;" d="M 24.84375 23.765625 C 20.433594 26.839844 15.539062 26.820312 11.15625 23.765625 C 10.628906 23.394531 10.152344 24.03125 10.511719 24.621094 C 11.847656 26.824219 14.546875 28.78125 18 28.78125 C 21.457031 28.78125 24.152344 26.824219 25.488281 24.621094 C 25.847656 24.03125 25.371094 23.394531 24.84375 23.765625 Z M 24.84375 23.765625 "/>
    <path style=" stroke:none;fill-rule:nonzero;fill:rgb(29.019608%,66.27451%,100%);fill-opacity:1;" d="M 30.523438 4.046875 C 30.273438 1.695312 25.820312 0.464844 16.046875 1.488281 C 6.882812 2.449219 2.175781 4.640625 2.421875 6.992188 C 2.804688 10.613281 9.292969 11.820312 17.054688 11.007812 C 24.8125 10.195312 30.90625 7.664062 30.523438 4.046875 Z M 16.640625 7.089844 C 11.445312 7.632812 7.148438 7.289062 7.054688 6.394531 C 7.019531 6.074219 7.546875 5.707031 8.464844 5.34375 C 11.148438 3.402344 14.4375 2.25 18 2.25 C 20.445312 2.25 22.863281 2.800781 25.066406 3.863281 C 25.558594 4.011719 25.84375 4.199219 25.863281 4.421875 C 25.960938 5.316406 21.832031 6.542969 16.640625 7.089844 Z M 16.640625 7.089844 "/>
  </g>
</svg>