<?xml version="1.0" encoding="UTF-8" standalone="yes"?>
<svg xmlns="http://www.w3.org/2000/svg" xmlns:xlink="http://www.w3.org/1999/xlink" width="48px" height="48px" viewBox="0 0 36 36" version="1.1">
  <g id="surface1">
    <path style=" stroke:none;fill-rule:nonzero;fill:rgb(95.686275%,40.392157%,40.392157%);fill-opacity:1;" d="M 34.875 18 C 34.875 27.320312 27.320312 34.875 18 34.875 C 8.679688 34.875 1.125 27.320312 1.125 18 C 1.125 8.679688 8.679688 1.125 18 1.125 C 27.320312 1.125 34.875 8.679688 34.875 18 Z M 34.875 18 "/>
    <path style=" stroke:none;fill-rule:nonzero;fill:rgb(100%,86.666667%,40.392157%);fill-opacity:1;" d="M 9.367188 5.785156 C 6.222656 4.285156 4.1875 1.203125 4.1875 1.203125 C 3.316406 9.320312 6.628906 11.292969 8.503906 11.328125 C 11.015625 11.378906 12.996094 7.515625 9.367188 5.785156 Z M 26.632812 5.785156 C 29.773438 4.285156 31.8125 1.203125 31.8125 1.203125 C 32.683594 9.320312 29.371094 11.292969 27.496094 11.328125 C 24.984375 11.378906 23.003906 7.515625 26.632812 5.785156 Z M 26.632812 5.785156 "/>
    <path style=" stroke:none;fill-rule:nonzero;fill:rgb(28.627451%,23.137255%,18.823529%);fill-opacity:1;" d="M 9.742188 24.371094 C 11.132812 25.1875 12.476562 25.6875 13.855469 26.015625 C 15.226562 26.34375 16.609375 26.484375 18 26.488281 C 19.390625 26.484375 20.773438 26.34375 22.144531 26.011719 C 23.519531 25.683594 24.863281 25.1875 26.257812 24.371094 C 25.660156 25.898438 24.335938 27.101562 22.859375 27.871094 C 21.367188 28.644531 19.675781 29.019531 18 29.019531 C 16.324219 29.015625 14.632812 28.640625 13.140625 27.867188 C 11.664062 27.097656 10.339844 25.898438 9.742188 24.371094 Z M 9.742188 24.371094 "/>
    <path style=" stroke:none;fill-rule:nonzero;fill:rgb(100%,100%,100%);fill-opacity:1;" d="M 29.414062 15.050781 C 30.546875 17.476562 29.496094 20.359375 27.070312 21.492188 C 24.644531 22.621094 21.761719 21.574219 20.628906 19.148438 C 19.777344 17.320312 28.5625 13.222656 29.414062 15.050781 Z M 29.414062 15.050781 "/>
    <path style=" stroke:none;fill-rule:nonzero;fill:rgb(28.627451%,23.137255%,18.823529%);fill-opacity:1;" d="M 27.992188 15.714844 C 28.753906 17.355469 28.046875 19.304688 26.40625 20.070312 C 24.765625 20.835938 22.816406 20.125 22.050781 18.484375 C 21.566406 17.441406 27.503906 14.671875 27.992188 15.714844 Z M 27.992188 15.714844 "/>
    <path style=" stroke:none;fill-rule:nonzero;fill:rgb(28.627451%,23.137255%,18.823529%);fill-opacity:1;" d="M 30.316406 15.234375 C 29.265625 15.335938 28.324219 15.492188 27.417969 15.738281 C 26.523438 15.972656 25.65625 16.285156 24.816406 16.675781 C 23.980469 17.0625 23.179688 17.519531 22.425781 18.050781 C 21.660156 18.589844 20.9375 19.207031 20.191406 19.957031 C 20.304688 18.898438 20.824219 17.902344 21.523438 17.078125 C 22.226562 16.257812 23.128906 15.59375 24.109375 15.144531 C 25.09375 14.683594 26.167969 14.441406 27.253906 14.425781 C 28.328125 14.417969 29.421875 14.652344 30.316406 15.234375 Z M 30.316406 15.234375 "/>
    <path style=" stroke:none;fill-rule:nonzero;fill:rgb(100%,100%,100%);fill-opacity:1;" d="M 6.585938 15.050781 C 5.453125 17.476562 6.503906 20.359375 8.929688 21.492188 C 11.355469 22.621094 14.238281 21.574219 15.371094 19.148438 C 16.222656 17.320312 7.4375 13.222656 6.585938 15.050781 Z M 6.585938 15.050781 "/>
    <path style=" stroke:none;fill-rule:nonzero;fill:rgb(28.627451%,23.137255%,18.823529%);fill-opacity:1;" d="M 8.007812 15.714844 C 7.503906 16.777344 7.609375 18.027344 8.28125 18.992188 C 8.953125 19.957031 10.089844 20.488281 11.261719 20.382812 C 12.433594 20.277344 13.457031 19.554688 13.949219 18.484375 C 14.433594 17.441406 8.496094 14.671875 8.007812 15.714844 Z M 8.007812 15.714844 "/>
    <path style=" stroke:none;fill-rule:nonzero;fill:rgb(28.627451%,23.137255%,18.823529%);fill-opacity:1;" d="M 5.683594 15.234375 C 6.578125 14.652344 7.671875 14.417969 8.746094 14.425781 C 9.832031 14.4375 10.90625 14.683594 11.890625 15.144531 C 12.871094 15.59375 13.773438 16.257812 14.476562 17.078125 C 15.175781 17.902344 15.695312 18.894531 15.808594 19.957031 C 15.0625 19.207031 14.339844 18.589844 13.574219 18.050781 C 12.820312 17.523438 12.019531 17.0625 11.183594 16.675781 C 10.34375 16.285156 9.476562 15.972656 8.582031 15.738281 C 7.675781 15.492188 6.738281 15.335938 5.683594 15.234375 Z M 5.683594 15.234375 "/>
  </g>
</svg>