<?xml version="1.0" encoding="UTF-8" standalone="yes"?>
<svg xmlns="http://www.w3.org/2000/svg" xmlns:xlink="http://www.w3.org/1999/xlink" width="48px" height="48px" viewBox="0 0 36 36" version="1.1">
  <g id="surface1">
    <path style=" stroke:none;fill-rule:nonzero;fill:rgb(93.72549%,32.54902%,31.372549%);fill-opacity:1;" d="M 34.875 18 C 34.875 27.320312 27.320312 34.875 18 34.875 C 8.679688 34.875 1.125 27.320312 1.125 18 C 1.125 8.679688 8.679688 1.125 18 1.125 C 27.320312 1.125 34.875 8.679688 34.875 18 Z M 34.875 18 "/>
    <path style=" stroke:none;fill-rule:nonzero;fill:rgb(18.823529%,14.117647%,14.117647%);fill-opacity:1;" d="M 23.054688 27.9375 C 19.796875 25.238281 16.183594 25.253906 12.945312 27.9375 C 12.554688 28.257812 12.203125 27.699219 12.464844 27.183594 C 13.453125 25.25 15.445312 23.53125 18 23.53125 C 20.550781 23.53125 22.546875 25.25 23.53125 27.183594 C 23.796875 27.699219 23.445312 28.257812 23.054688 27.9375 Z M 23.054688 27.9375 "/>
    <path style=" stroke:none;fill-rule:nonzero;fill:rgb(100%,100%,100%);fill-opacity:1;" d="M 5.71875 14.027344 C 4.847656 16.683594 6.082031 19.636719 8.683594 20.847656 C 11.277344 22.058594 14.328125 21.109375 15.808594 18.742188 L 11.929688 14.398438 Z M 5.71875 14.027344 "/>
    <path style=" stroke:none;fill-rule:nonzero;fill:rgb(18.823529%,14.117647%,14.117647%);fill-opacity:1;" d="M 8.011719 14.5 C 7.507812 15.5625 7.609375 16.8125 8.28125 17.777344 C 8.953125 18.738281 10.09375 19.269531 11.261719 19.164062 C 12.433594 19.0625 13.457031 18.335938 13.949219 17.269531 C 14.433594 16.226562 8.496094 13.457031 8.011719 14.5 Z M 8.011719 14.5 "/>
    <path style=" stroke:none;fill-rule:nonzero;fill:rgb(18.823529%,14.117647%,14.117647%);fill-opacity:1;" d="M 5.71875 14.027344 C 6.609375 13.445312 7.671875 13.203125 8.75 13.207031 C 9.828125 13.21875 10.910156 13.472656 11.894531 13.925781 C 12.875 14.378906 13.773438 15.042969 14.476562 15.863281 C 15.175781 16.683594 15.695312 17.679688 15.808594 18.742188 C 15.058594 17.992188 14.34375 17.375 13.574219 16.835938 C 12.820312 16.304688 12.019531 15.84375 11.183594 15.457031 C 10.347656 15.070312 9.476562 14.753906 8.585938 14.519531 C 7.675781 14.277344 6.769531 14.128906 5.71875 14.027344 Z M 5.71875 14.027344 "/>
    <path style=" stroke:none;fill-rule:nonzero;fill:rgb(100%,100%,100%);fill-opacity:1;" d="M 30.28125 14.027344 C 31.152344 16.683594 29.917969 19.636719 27.316406 20.847656 C 24.722656 22.058594 21.671875 21.109375 20.191406 18.742188 L 24.070312 14.398438 Z M 30.28125 14.027344 "/>
    <path style=" stroke:none;fill-rule:nonzero;fill:rgb(18.823529%,14.117647%,14.117647%);fill-opacity:1;" d="M 27.988281 14.5 C 28.492188 15.5625 28.390625 16.8125 27.71875 17.777344 C 27.046875 18.738281 25.90625 19.269531 24.738281 19.164062 C 23.566406 19.0625 22.542969 18.335938 22.050781 17.269531 C 21.566406 16.226562 27.503906 13.457031 27.988281 14.5 Z M 27.988281 14.5 "/>
    <path style=" stroke:none;fill-rule:nonzero;fill:rgb(18.823529%,14.117647%,14.117647%);fill-opacity:1;" d="M 30.28125 14.027344 C 29.390625 13.445312 28.328125 13.203125 27.25 13.207031 C 26.171875 13.21875 25.089844 13.472656 24.105469 13.925781 C 23.125 14.378906 22.226562 15.042969 21.523438 15.863281 C 20.824219 16.683594 20.304688 17.679688 20.191406 18.742188 C 20.941406 17.992188 21.65625 17.375 22.425781 16.835938 C 23.179688 16.304688 23.980469 15.84375 24.816406 15.457031 C 25.652344 15.070312 26.523438 14.753906 27.414062 14.519531 C 28.324219 14.277344 29.230469 14.128906 30.28125 14.027344 Z M 30.28125 14.027344 "/>
  </g>
</svg>