<?xml version="1.0" encoding="UTF-8" standalone="yes"?>
<svg xmlns="http://www.w3.org/2000/svg" xmlns:xlink="http://www.w3.org/1999/xlink" width="48px" height="48px" viewBox="0 0 36 36" version="1.1">
  <defs>
    <filter id="alpha" filterUnits="objectBoundingBox" x="0%" y="0%" width="100%" height="100%">
      <feColorMatrix type="matrix" in="SourceGraphic" values="0 0 0 0 1 0 0 0 0 1 0 0 0 0 1 0 0 0 1 0"/>
    </filter>
    <mask id="mask0">
      <g filter="url(#alpha)">
        <rect x="0" y="0" width="36" height="36" style="fill:rgb(0%,0%,0%);fill-opacity:0.101961;stroke:none;"/>
      </g>
    </mask>
    <clipPath id="clip1">
      <rect width="36" height="36"/>
    </clipPath>
    <g id="surface6" clip-path="url(#clip1)">
      <path style=" stroke:none;fill-rule:nonzero;fill:rgb(0%,0%,0%);fill-opacity:1;" d="M 28.046875 22.429688 C 28.046875 28.371094 23.550781 33.1875 18 33.1875 C 12.449219 33.1875 7.953125 28.371094 7.953125 22.429688 C 7.953125 16.480469 13.789062 17.625 18 17.625 C 22.210938 17.625 28.046875 16.480469 28.046875 22.429688 Z M 28.046875 22.429688 "/>
    </g>
  </defs>
  <g id="surface1">
    <path style=" stroke:none;fill-rule:nonzero;fill:rgb(100%,86.666667%,40.392157%);fill-opacity:1;" d="M 34.875 18 C 34.875 27.320312 27.320312 34.875 18 34.875 C 8.679688 34.875 1.125 27.320312 1.125 18 C 1.125 8.679688 8.679688 1.125 18 1.125 C 27.320312 1.125 34.875 8.679688 34.875 18 Z M 34.875 18 "/>
    <path style=" stroke:none;fill-rule:nonzero;fill:rgb(100%,100%,100%);fill-opacity:1;" d="M 10.238281 26.679688 L 5.199219 28.988281 C 5.664062 29.53125 6.160156 30.042969 6.6875 30.523438 L 10.953125 28.515625 Z M 9.628906 19.753906 L 1.128906 17.8125 C 1.128906 17.875 1.125 17.9375 1.125 18 C 1.125 18.628906 1.160156 19.246094 1.226562 19.851562 L 9.191406 21.675781 Z M 30.800781 28.988281 L 25.761719 26.679688 L 25.046875 28.515625 L 29.3125 30.519531 C 29.839844 30.042969 30.335938 29.53125 30.800781 28.988281 Z M 26.808594 21.675781 L 34.773438 19.851562 C 34.839844 19.246094 34.875 18.628906 34.875 18 C 34.875 17.9375 34.871094 17.875 34.871094 17.8125 L 26.371094 19.753906 Z M 26.808594 21.675781 "/>
    <path style=" stroke:none;fill-rule:nonzero;fill:rgb(100%,100%,100%);fill-opacity:1;" d="M 27.84375 21.976562 C 27.84375 27.582031 23.4375 32.128906 18 32.128906 C 12.5625 32.128906 8.15625 27.582031 8.15625 21.976562 C 8.15625 16.367188 13.875 17.445312 18 17.445312 C 22.125 17.445312 27.84375 16.367188 27.84375 21.976562 Z M 27.84375 21.976562 "/>
    <path style=" stroke:none;fill-rule:nonzero;fill:rgb(40%,30.588235%,15.294118%);fill-opacity:1;" d="M 20.160156 11.695312 C 21.289062 16.628906 25.898438 17.863281 29.347656 14.15625 C 29.519531 13.96875 29.246094 13.792969 28.949219 13.445312 C 26.171875 14.636719 22.503906 13.472656 20.859375 11.277344 C 20.429688 11.429688 20.105469 11.445312 20.160156 11.695312 Z M 6.652344 14.15625 C 10.101562 17.863281 14.707031 16.628906 15.839844 11.695312 C 15.894531 11.445312 15.570312 11.429688 15.140625 11.277344 C 13.328125 13.699219 9.570312 14.527344 7.050781 13.445312 C 6.753906 13.792969 6.480469 13.96875 6.652344 14.15625 Z M 6.652344 14.15625 "/>
    <path style=" stroke:none;fill-rule:nonzero;fill:rgb(56.862745%,45.882353%,14.117647%);fill-opacity:1;" d="M 29.925781 9.5625 C 28.105469 8.023438 25.695312 7.378906 23.351562 7.796875 C 23.023438 7.863281 22.738281 6.660156 23.132812 6.585938 C 25.839844 6.101562 28.621094 6.84375 30.722656 8.621094 C 31.027344 8.882812 30.175781 9.777344 29.925781 9.5625 Z M 12.648438 7.714844 C 10.304688 7.292969 7.894531 7.9375 6.074219 9.476562 C 5.824219 9.695312 4.972656 8.796875 5.277344 8.535156 C 7.378906 6.761719 10.160156 6.015625 12.867188 6.5 C 13.261719 6.578125 12.976562 7.777344 12.648438 7.714844 Z M 12.648438 7.714844 "/>
    <use xlink:href="#surface6" mask="url(#mask0)"/>
  </g>
</svg>