<?xml version="1.0" encoding="UTF-8" standalone="yes"?>
<svg xmlns="http://www.w3.org/2000/svg" xmlns:xlink="http://www.w3.org/1999/xlink" width="48px" height="48px" viewBox="0 0 36 36" version="1.1">
  <g id="surface1">
    <path style=" stroke:none;fill-rule:nonzero;fill:rgb(100%,86.666667%,40.392157%);fill-opacity:1;" d="M 34.875 18 C 34.875 27.320312 27.320312 34.875 18 34.875 C 8.679688 34.875 1.125 27.320312 1.125 18 C 1.125 8.679688 8.679688 1.125 18 1.125 C 27.320312 1.125 34.875 8.679688 34.875 18 Z M 34.875 18 "/>
    <path style=" stroke:none;fill-rule:nonzero;fill:rgb(40%,30.588235%,15.294118%);fill-opacity:1;" d="M 10.667969 11.675781 C 10.667969 10.316406 13.625 10.972656 14.621094 11.894531 C 15.207031 10.929688 14.929688 10.117188 14.929688 10.117188 C 14.929688 10.117188 14.074219 9.511719 12.8125 9.28125 L 12.8125 8.015625 C 11.777344 7.699219 10.667969 8.015625 10.667969 8.015625 L 10.667969 9.191406 C 10.667969 9.191406 8.628906 9.566406 8.628906 11.675781 C 8.628906 14.410156 12.8125 13.882812 12.8125 15.640625 C 12.8125 16.925781 10.003906 16.390625 8.628906 15.367188 C 8.199219 16.402344 8.628906 17.292969 8.628906 17.292969 C 9.277344 17.570312 9.964844 17.761719 10.667969 17.867188 L 10.667969 18.976562 C 10.667969 18.976562 11.78125 19.3125 12.8125 18.976562 L 12.8125 17.792969 C 12.8125 17.792969 15.1875 17.660156 15.1875 15.640625 C 15.1875 13.019531 10.667969 13.246094 10.667969 11.675781 Z M 23.042969 11.675781 C 23.042969 10.316406 26 10.972656 26.996094 11.894531 C 27.582031 10.929688 27.304688 10.117188 27.304688 10.117188 C 27.304688 10.117188 26.449219 9.511719 25.1875 9.28125 L 25.1875 8.015625 C 24.152344 7.699219 23.042969 8.015625 23.042969 8.015625 L 23.042969 9.191406 C 23.042969 9.191406 21.003906 9.566406 21.003906 11.675781 C 21.003906 14.410156 25.1875 13.882812 25.1875 15.640625 C 25.1875 16.925781 22.378906 16.390625 21.003906 15.367188 C 20.574219 16.402344 21.003906 17.292969 21.003906 17.292969 C 21.652344 17.570312 22.339844 17.761719 23.039062 17.867188 L 23.042969 18.976562 C 23.042969 18.976562 24.15625 19.3125 25.1875 18.976562 L 25.1875 17.792969 C 25.1875 17.792969 27.5625 17.660156 27.5625 15.640625 C 27.5625 13.019531 23.042969 13.246094 23.042969 11.675781 Z M 23.042969 11.675781 "/>
    <path style=" stroke:none;fill-rule:nonzero;fill:rgb(40%,30.588235%,15.294118%);fill-opacity:1;" d="M 26.929688 21.375 L 9.070312 21.375 C 8.660156 21.375 8.4375 21.660156 8.4375 21.9375 C 8.4375 26.027344 11.789062 30.375 18 30.375 C 24.210938 30.375 27.5625 26.027344 27.5625 21.9375 C 27.5625 21.660156 27.34375 21.375 26.929688 21.375 Z M 26.929688 21.375 "/>
    <path style=" stroke:none;fill-rule:nonzero;fill:rgb(45.490196%,87.843137%,38.823529%);fill-opacity:1;" d="M 23.164062 24.75 L 12.839844 24.75 C 12.441406 24.75 12.375 24.929688 12.375 25.226562 L 12.375 27.476562 C 12.375 32.402344 14.894531 34.871094 18 34.875 C 21.105469 34.871094 23.625 32.402344 23.625 27.476562 L 23.625 25.226562 C 23.625 24.929688 23.5625 24.75 23.164062 24.75 Z M 23.164062 24.75 "/>
    <path style=" stroke:none;fill-rule:nonzero;fill:rgb(26.666667%,58.823529%,21.176471%);fill-opacity:1;" d="M 17.285156 27.824219 C 17.285156 26.941406 19.132812 27.367188 19.753906 27.964844 C 20.121094 27.339844 19.949219 26.8125 19.949219 26.8125 C 19.949219 26.8125 19.414062 26.417969 18.625 26.265625 L 18.625 25.445312 C 17.980469 25.238281 17.285156 25.445312 17.285156 25.445312 L 17.285156 26.207031 C 17.285156 26.207031 16.011719 26.453125 16.011719 27.824219 C 16.011719 29.601562 18.625 29.257812 18.625 30.402344 C 18.625 31.234375 16.867188 30.886719 16.011719 30.222656 C 15.851562 30.625 15.851562 31.070312 16.011719 31.476562 C 16.417969 31.65625 16.84375 31.78125 17.285156 31.847656 L 17.285156 32.566406 C 17.285156 32.566406 17.980469 32.789062 18.625 32.566406 L 18.625 31.796875 C 18.625 31.796875 20.109375 31.714844 20.109375 30.402344 C 20.109375 28.695312 17.285156 28.84375 17.285156 27.824219 Z M 17.285156 27.824219 "/>
    <path style=" stroke:none;fill-rule:nonzero;fill:rgb(26.666667%,58.823529%,21.176471%);fill-opacity:1;" d="M 22.296875 24.75 L 22.296875 26.730469 C 22.296875 31.425781 20.613281 33.464844 18 33.464844 C 15.390625 33.464844 13.703125 31.421875 13.703125 26.730469 L 13.703125 24.75 L 13.25 24.75 L 13.25 26.730469 C 13.25 31.722656 15.117188 33.960938 18 33.960938 C 20.886719 33.960938 22.75 31.726562 22.75 26.730469 L 22.75 24.75 Z M 22.296875 24.75 "/>
  </g>
</svg>