<?xml version="1.0" encoding="UTF-8" standalone="yes"?>
<svg xmlns="http://www.w3.org/2000/svg" xmlns:xlink="http://www.w3.org/1999/xlink" width="48px" height="48px" viewBox="0 0 36 36" version="1.1">
  <g id="surface1">
    <path style=" stroke:none;fill-rule:nonzero;fill:rgb(100%,86.666667%,40.392157%);fill-opacity:1;" d="M 34.875 18 C 34.875 27.320312 27.320312 34.875 18 34.875 C 8.679688 34.875 1.125 27.320312 1.125 18 C 1.125 8.679688 8.679688 1.125 18 1.125 C 27.320312 1.125 34.875 8.679688 34.875 18 Z M 34.875 18 "/>
    <path style=" stroke:none;fill-rule:nonzero;fill:rgb(40%,30.588235%,15.294118%);fill-opacity:1;" d="M 15.328125 17.769531 C 15.328125 19.324219 14.070312 20.582031 12.515625 20.582031 C 10.964844 20.582031 9.703125 19.324219 9.703125 17.769531 C 9.703125 16.21875 10.964844 14.957031 12.515625 14.957031 C 14.070312 14.957031 15.328125 16.21875 15.328125 17.769531 Z M 15.328125 17.769531 "/>
    <path style=" stroke:none;fill-rule:nonzero;fill:rgb(56.862745%,45.882353%,14.117647%);fill-opacity:1;" d="M 28.800781 15.496094 C 26.980469 13.957031 24.570312 13.3125 22.226562 13.734375 C 21.898438 13.796875 21.613281 12.597656 22.007812 12.519531 C 24.714844 12.035156 27.496094 12.78125 29.597656 14.554688 C 29.902344 14.816406 29.050781 15.710938 28.800781 15.496094 Z M 13.773438 10.578125 C 11.429688 10.15625 9.019531 10.804688 7.199219 12.339844 C 6.949219 12.558594 6.097656 11.664062 6.402344 11.398438 C 8.503906 9.625 11.285156 8.878906 13.992188 9.367188 C 14.390625 9.441406 14.101562 10.640625 13.773438 10.578125 Z M 13.773438 10.578125 "/>
    <path style=" stroke:none;fill-rule:nonzero;fill:rgb(40%,30.588235%,15.294118%);fill-opacity:1;" d="M 28.222656 19.269531 C 27.242188 17.296875 25.769531 16.3125 24.296875 16.3125 C 22.820312 16.3125 21.347656 17.296875 20.371094 19.269531 C 20.273438 19.46875 20.777344 19.824219 21.03125 19.632812 C 21.980469 18.898438 23.113281 18.605469 24.296875 18.605469 C 25.480469 18.605469 26.613281 18.898438 27.5625 19.632812 C 27.8125 19.824219 28.316406 19.46875 28.222656 19.269531 Z M 24.824219 23.746094 C 20.921875 25.792969 15.621094 25.375 14.0625 25.375 C 13.644531 25.375 13.398438 25.546875 13.5 25.898438 C 14.625 29.8125 23.0625 29.8125 25.382812 24.359375 C 25.644531 23.75 25.183594 23.558594 24.824219 23.746094 Z M 24.824219 23.746094 "/>
  </g>
</svg>