<?xml version="1.0" encoding="UTF-8" standalone="yes"?>
<svg xmlns="http://www.w3.org/2000/svg" xmlns:xlink="http://www.w3.org/1999/xlink" width="48px" height="48px" viewBox="0 0 36 36" version="1.1">
  <g id="surface1">
    <path style=" stroke:none;fill-rule:nonzero;fill:rgb(100%,86.666667%,40.392157%);fill-opacity:1;" d="M 34.875 18 C 34.875 27.320312 27.320312 34.875 18 34.875 C 8.679688 34.875 1.125 27.320312 1.125 18 C 1.125 8.679688 8.679688 1.125 18 1.125 C 27.320312 1.125 34.875 8.679688 34.875 18 Z M 34.875 18 "/>
    <path style=" stroke:none;fill-rule:nonzero;fill:rgb(100%,100%,100%);fill-opacity:1;" d="M 15.75 16.875 C 15.75 20.292969 12.980469 23.0625 9.5625 23.0625 C 6.144531 23.0625 3.375 20.292969 3.375 16.875 C 3.375 13.457031 6.144531 10.6875 9.5625 10.6875 C 12.980469 10.6875 15.75 13.457031 15.75 16.875 Z M 15.75 16.875 "/>
    <path style=" stroke:none;fill-rule:nonzero;fill:rgb(100%,100%,100%);fill-opacity:1;" d="M 32.625 16.875 C 32.625 20.292969 29.855469 23.0625 26.4375 23.0625 C 23.019531 23.0625 20.25 20.292969 20.25 16.875 C 20.25 13.457031 23.019531 10.6875 26.4375 10.6875 C 29.855469 10.6875 32.625 13.457031 32.625 16.875 Z M 32.625 16.875 "/>
    <path style=" stroke:none;fill-rule:nonzero;fill:rgb(28.627451%,28.627451%,28.627451%);fill-opacity:1;" d="M 20.25 15.1875 C 19.246094 14.4375 16.757812 14.433594 15.75 15.1875 C 15.105469 14.605469 15.269531 14.023438 14.625 13.445312 C 16.394531 12.125 19.324219 11.914062 21.375 13.445312 C 20.730469 14.023438 20.894531 14.605469 20.25 15.1875 Z M 20.25 15.1875 "/>
    <path style=" stroke:none;fill-rule:nonzero;fill:rgb(28.627451%,28.627451%,28.627451%);fill-opacity:1;" d="M 26.4375 9.5625 C 22.398438 9.5625 19.125 12.835938 19.125 16.875 C 19.125 20.914062 22.398438 24.1875 26.4375 24.1875 C 30.476562 24.1875 33.75 20.914062 33.75 16.875 C 33.75 12.835938 30.476562 9.5625 26.4375 9.5625 Z M 26.4375 22.5 C 23.332031 22.5 20.8125 19.980469 20.8125 16.875 C 20.8125 13.769531 23.332031 11.25 26.4375 11.25 C 29.542969 11.25 32.0625 13.765625 32.0625 16.875 C 32.0625 19.980469 29.542969 22.5 26.4375 22.5 Z M 9.5625 9.5625 C 5.523438 9.5625 2.25 12.835938 2.25 16.875 C 2.25 20.914062 5.523438 24.1875 9.5625 24.1875 C 13.601562 24.1875 16.875 20.914062 16.875 16.875 C 16.875 12.835938 13.601562 9.5625 9.5625 9.5625 Z M 9.5625 22.5 C 6.457031 22.5 3.9375 19.980469 3.9375 16.875 C 3.9375 13.765625 6.457031 11.25 9.5625 11.25 C 12.667969 11.25 15.1875 13.765625 15.1875 16.875 C 15.1875 19.980469 12.667969 22.5 9.5625 22.5 Z M 9.5625 22.5 "/>
    <path style=" stroke:none;fill-rule:nonzero;fill:rgb(40%,30.588235%,15.294118%);fill-opacity:1;" d="M 13.5 17.15625 C 13.5 15.601562 12.492188 14.34375 11.25 14.34375 C 10.007812 14.34375 9 15.601562 9 17.15625 C 9 18.710938 10.007812 19.96875 11.25 19.96875 C 12.492188 19.96875 13.5 18.710938 13.5 17.15625 Z M 13.5 17.15625 "/>
    <path style=" stroke:none;fill-rule:nonzero;fill:rgb(40%,30.588235%,15.294118%);fill-opacity:1;" d="M 27 17.15625 C 27 15.601562 25.992188 14.34375 24.75 14.34375 C 23.507812 14.34375 22.5 15.601562 22.5 17.15625 C 22.5 18.710938 23.507812 19.96875 24.75 19.96875 C 25.992188 19.96875 27 18.710938 27 17.15625 Z M 27 17.15625 "/>
    <path style=" stroke:none;fill-rule:nonzero;fill:rgb(40%,30.588235%,15.294118%);fill-opacity:1;" d="M 15.035156 28.867188 C 18.277344 29.738281 21.8125 29.105469 24.554688 27.171875 C 25.234375 26.679688 23.964844 24.90625 23.289062 25.398438 C 21.476562 26.671875 18.589844 27.554688 15.605469 26.765625 C 14.808594 26.554688 14.179688 28.625 15.035156 28.867188 Z M 15.035156 28.867188 "/>
    <path style=" stroke:none;fill-rule:nonzero;fill:rgb(56.862745%,45.882353%,14.117647%);fill-opacity:1;" d="M 29.925781 8.832031 C 28.105469 7.292969 25.695312 6.648438 23.351562 7.066406 C 23.023438 7.132812 22.738281 5.929688 23.132812 5.855469 C 25.839844 5.371094 28.621094 6.113281 30.722656 7.886719 C 31.027344 8.152344 30.175781 9.046875 29.925781 8.832031 Z M 12.648438 6.984375 C 10.304688 6.5625 7.894531 7.207031 6.074219 8.746094 C 5.824219 8.964844 4.972656 8.066406 5.277344 7.804688 C 7.378906 6.03125 10.160156 5.285156 12.867188 5.769531 C 13.265625 5.847656 12.976562 7.046875 12.648438 6.984375 Z M 12.648438 6.984375 "/>
  </g>
</svg>