<?xml version="1.0" encoding="UTF-8" standalone="yes"?>
<svg xmlns="http://www.w3.org/2000/svg" xmlns:xlink="http://www.w3.org/1999/xlink" width="48px" height="48px" viewBox="0 0 36 36" version="1.1">
  <g id="surface1">
    <path style=" stroke:none;fill-rule:nonzero;fill:rgb(100%,86.666667%,40.392157%);fill-opacity:1;" d="M 34.875 18 C 34.875 27.320312 27.320312 34.875 18 34.875 C 8.679688 34.875 1.125 27.320312 1.125 18 C 1.125 8.679688 8.679688 1.125 18 1.125 C 27.320312 1.125 34.875 8.679688 34.875 18 Z M 34.875 18 "/>
    <path style=" stroke:none;fill-rule:nonzero;fill:rgb(40%,30.588235%,15.294118%);fill-opacity:1;" d="M 26.929688 21.375 L 9.070312 21.375 C 8.660156 21.375 8.4375 21.660156 8.4375 21.9375 C 8.4375 26.027344 11.789062 30.375 18 30.375 C 24.210938 30.375 27.5625 26.027344 27.5625 21.9375 C 27.5625 21.660156 27.34375 21.375 26.929688 21.375 Z M 26.929688 21.375 "/>
    <path style=" stroke:none;fill-rule:nonzero;fill:rgb(100%,44.313725%,49.803922%);fill-opacity:1;" d="M 23.164062 24.75 L 12.839844 24.75 C 12.441406 24.75 12.375 24.929688 12.375 25.226562 L 12.375 27.476562 C 12.375 32.402344 14.894531 34.871094 18 34.875 C 21.105469 34.871094 23.625 32.402344 23.625 27.476562 L 23.625 25.226562 C 23.625 24.929688 23.5625 24.75 23.164062 24.75 Z M 23.164062 24.75 "/>
    <path style=" stroke:none;fill-rule:nonzero;fill:rgb(88.627451%,34.901961%,42.352941%);fill-opacity:1;" d="M 18.84375 24.75 L 18 32.507812 L 17.15625 24.75 Z M 18.84375 24.75 "/>
    <path style=" stroke:none;fill-rule:nonzero;fill:rgb(40%,30.588235%,15.294118%);fill-opacity:1;" d="M 14.34375 13.78125 C 14.34375 15.335938 13.085938 16.59375 11.53125 16.59375 C 9.976562 16.59375 8.71875 15.335938 8.71875 13.78125 C 8.71875 12.226562 9.976562 10.96875 11.53125 10.96875 C 13.085938 10.96875 14.34375 12.226562 14.34375 13.78125 Z M 14.34375 13.78125 "/>
    <path style=" stroke:none;fill-rule:nonzero;fill:rgb(40%,30.588235%,15.294118%);fill-opacity:1;" d="M 27.28125 13.78125 C 27.28125 15.335938 26.023438 16.59375 24.46875 16.59375 C 22.914062 16.59375 21.65625 15.335938 21.65625 13.78125 C 21.65625 12.226562 22.914062 10.96875 24.46875 10.96875 C 26.023438 10.96875 27.28125 12.226562 27.28125 13.78125 Z M 27.28125 13.78125 "/>
  </g>
</svg>