<?xml version="1.0" encoding="UTF-8" standalone="yes"?>
<svg xmlns="http://www.w3.org/2000/svg" xmlns:xlink="http://www.w3.org/1999/xlink" width="48px" height="48px" viewBox="0 0 36 36" version="1.1">
  <g id="surface1">
    <path style=" stroke:none;fill-rule:nonzero;fill:rgb(100%,86.666667%,40.392157%);fill-opacity:1;" d="M 34.875 18 C 34.875 27.320312 27.320312 34.875 18 34.875 C 8.679688 34.875 1.125 27.320312 1.125 18 C 1.125 8.679688 8.679688 1.125 18 1.125 C 27.320312 1.125 34.875 8.679688 34.875 18 Z M 34.875 18 "/>
    <path style=" stroke:none;fill-rule:nonzero;fill:rgb(100%,100%,100%);fill-opacity:1;" d="M 17.578125 13.832031 C 17.578125 16.941406 15.058594 19.457031 11.953125 19.457031 C 8.847656 19.457031 6.328125 16.941406 6.328125 13.832031 C 6.328125 10.730469 8.847656 8.207031 11.953125 8.207031 C 15.058594 8.207031 17.578125 10.730469 17.578125 13.832031 Z M 17.578125 13.832031 "/>
    <path style=" stroke:none;fill-rule:nonzero;fill:rgb(40%,30.588235%,15.294118%);fill-opacity:1;" d="M 14.484375 13.832031 C 14.484375 15.230469 13.351562 16.363281 11.953125 16.363281 C 10.554688 16.363281 9.421875 15.230469 9.421875 13.832031 C 9.421875 12.433594 10.554688 11.300781 11.953125 11.300781 C 13.351562 11.300781 14.484375 12.433594 14.484375 13.832031 Z M 14.484375 13.832031 "/>
    <path style=" stroke:none;fill-rule:nonzero;fill:rgb(40%,30.588235%,15.294118%);fill-opacity:1;" d="M 28.675781 16.386719 C 27.625 14.085938 26.046875 12.9375 24.46875 12.9375 C 22.890625 12.9375 21.3125 14.085938 20.261719 16.386719 C 20.160156 16.617188 20.699219 17.035156 20.96875 16.808594 C 21.988281 15.953125 23.199219 15.613281 24.46875 15.613281 C 25.738281 15.613281 26.949219 15.953125 27.96875 16.808594 C 28.238281 17.035156 28.777344 16.617188 28.675781 16.386719 Z M 28.675781 16.386719 "/>
    <path style=" stroke:none;fill-rule:nonzero;fill:rgb(40%,30.588235%,15.294118%);fill-opacity:1;" d="M 26.929688 21.375 L 9.070312 21.375 C 8.660156 21.375 8.4375 21.660156 8.4375 21.9375 C 8.4375 26.027344 11.789062 30.375 18 30.375 C 24.210938 30.375 27.5625 26.027344 27.5625 21.9375 C 27.5625 21.660156 27.34375 21.375 26.929688 21.375 Z M 26.929688 21.375 "/>
    <path style=" stroke:none;fill-rule:nonzero;fill:rgb(100%,44.313725%,49.803922%);fill-opacity:1;" d="M 23.164062 24.75 L 12.839844 24.75 C 12.441406 24.75 12.375 24.929688 12.375 25.226562 L 12.375 27.476562 C 12.375 32.402344 14.894531 34.871094 18 34.875 C 21.105469 34.871094 23.625 32.402344 23.625 27.476562 L 23.625 25.226562 C 23.625 24.929688 23.5625 24.75 23.164062 24.75 Z M 23.164062 24.75 "/>
    <path style=" stroke:none;fill-rule:nonzero;fill:rgb(88.627451%,34.901961%,42.352941%);fill-opacity:1;" d="M 18.84375 24.75 L 18 32.507812 L 17.15625 24.75 Z M 18.84375 24.75 "/>
  </g>
</svg>