<?xml version="1.0" encoding="UTF-8" standalone="yes"?>
<svg xmlns="http://www.w3.org/2000/svg" xmlns:xlink="http://www.w3.org/1999/xlink" width="48px" height="48px" viewBox="0 0 36 36" version="1.1">
  <g id="surface1">
    <path style=" stroke:none;fill-rule:nonzero;fill:rgb(100%,86.666667%,40.392157%);fill-opacity:1;" d="M 34.875 18 C 34.875 27.320312 27.320312 34.875 18 34.875 C 8.679688 34.875 1.125 27.320312 1.125 18 C 1.125 8.679688 8.679688 1.125 18 1.125 C 27.320312 1.125 34.875 8.679688 34.875 18 Z M 34.875 18 "/>
    <path style=" stroke:none;fill-rule:nonzero;fill:rgb(40%,30.588235%,15.294118%);fill-opacity:1;" d="M 26.929688 21.375 L 9.070312 21.375 C 8.660156 21.375 8.4375 21.660156 8.4375 21.9375 C 8.4375 26.027344 11.789062 30.375 18 30.375 C 24.210938 30.375 27.5625 26.027344 27.5625 21.9375 C 27.5625 21.660156 27.34375 21.375 26.929688 21.375 Z M 26.929688 21.375 "/>
    <path style=" stroke:none;fill-rule:nonzero;fill:rgb(100%,44.313725%,49.803922%);fill-opacity:1;" d="M 23.164062 24.75 L 12.839844 24.75 C 12.441406 24.75 12.375 24.929688 12.375 25.226562 L 12.375 27.476562 C 12.375 32.402344 14.894531 34.871094 18 34.875 C 21.105469 34.871094 23.625 32.402344 23.625 27.476562 L 23.625 25.226562 C 23.625 24.929688 23.5625 24.75 23.164062 24.75 Z M 23.164062 24.75 "/>
    <path style=" stroke:none;fill-rule:nonzero;fill:rgb(88.627451%,34.901961%,42.352941%);fill-opacity:1;" d="M 18.84375 24.75 L 18 32.507812 L 17.15625 24.75 Z M 18.84375 24.75 "/>
    <path style=" stroke:none;fill-rule:nonzero;fill:rgb(40%,30.588235%,15.294118%);fill-opacity:1;" d="M 29.0625 13.148438 C 29.191406 13.214844 29.257812 13.351562 29.238281 13.488281 C 29.21875 13.628906 29.109375 13.738281 28.972656 13.765625 C 27.457031 13.992188 25.851562 14.25 24.328125 15.09375 C 26.589844 15.46875 28.40625 16.628906 29.390625 17.808594 C 29.613281 18.074219 29.335938 18.4375 29.085938 18.347656 C 26.402344 17.371094 23.640625 16.84375 20.171875 17.199219 C 19.898438 17.230469 19.664062 17.070312 19.722656 16.820312 C 20.648438 12.765625 25.859375 11.238281 29.0625 13.148438 Z M 6.9375 13.148438 C 6.808594 13.214844 6.742188 13.351562 6.761719 13.492188 C 6.785156 13.628906 6.890625 13.738281 7.03125 13.765625 C 8.546875 13.992188 10.148438 14.25 11.675781 15.09375 C 9.414062 15.46875 7.597656 16.628906 6.609375 17.808594 C 6.386719 18.074219 6.667969 18.4375 6.914062 18.347656 C 9.601562 17.371094 12.359375 16.84375 15.828125 17.199219 C 16.101562 17.230469 16.335938 17.070312 16.28125 16.820312 C 15.351562 12.765625 10.140625 11.238281 6.9375 13.148438 Z M 6.9375 13.148438 "/>
  </g>
</svg>