<?xml version="1.0" encoding="UTF-8" standalone="yes"?>
<svg xmlns="http://www.w3.org/2000/svg" xmlns:xlink="http://www.w3.org/1999/xlink" width="48px" height="48px" viewBox="0 0 36 36" version="1.1">
  <defs>
    <filter id="alpha" filterUnits="objectBoundingBox" x="0%" y="0%" width="100%" height="100%">
      <feColorMatrix type="matrix" in="SourceGraphic" values="0 0 0 0 1 0 0 0 0 1 0 0 0 0 1 0 0 0 1 0"/>
    </filter>
    <mask id="mask0">
      <g filter="url(#alpha)">
        <rect x="0" y="0" width="36" height="36" style="fill:rgb(0%,0%,0%);fill-opacity:0.8;stroke:none;"/>
      </g>
    </mask>
    <mask id="mask1">
      <g filter="url(#alpha)">
        <rect x="0" y="0" width="36" height="36" style="fill:rgb(0%,0%,0%);fill-opacity:0.8;stroke:none;"/>
      </g>
    </mask>
    <clipPath id="clip1">
      <rect width="36" height="36"/>
    </clipPath>
    <clipPath id="clip2">
      <rect width="36" height="36"/>
    </clipPath>
    <g id="surface6" clip-path="url(#clip1)">
      <path style=" stroke:none;fill-rule:nonzero;fill:rgb(100%,44.313725%,49.803922%);fill-opacity:1;" d="M 33.082031 20.25 C 33.082031 22.734375 31.066406 24.75 28.582031 24.75 C 26.097656 24.75 24.082031 22.734375 24.082031 20.25 C 24.082031 17.765625 26.097656 15.75 28.582031 15.75 C 31.066406 15.75 33.082031 17.765625 33.082031 20.25 Z M 33.082031 20.25 "/>
    </g>
    <g id="surface9" clip-path="url(#clip2)">
      <path style=" stroke:none;fill-rule:nonzero;fill:rgb(100%,44.313725%,49.803922%);fill-opacity:1;" d="M 11.917969 20.25 C 11.917969 22.734375 9.902344 24.75 7.417969 24.75 C 4.933594 24.75 2.917969 22.734375 2.917969 20.25 C 2.917969 17.765625 4.933594 15.75 7.417969 15.75 C 9.902344 15.75 11.917969 17.765625 11.917969 20.25 Z M 11.917969 20.25 "/>
    </g>
  </defs>
  <g id="surface1">
    <path style=" stroke:none;fill-rule:nonzero;fill:rgb(100%,86.666667%,40.392157%);fill-opacity:1;" d="M 34.875 18 C 34.875 27.320312 27.320312 34.875 18 34.875 C 8.679688 34.875 1.125 27.320312 1.125 18 C 1.125 8.679688 8.679688 1.125 18 1.125 C 27.320312 1.125 34.875 8.679688 34.875 18 Z M 34.875 18 "/>
    <path style=" stroke:none;fill-rule:nonzero;fill:rgb(40%,30.588235%,15.294118%);fill-opacity:1;" d="M 25.078125 22.65625 C 20.515625 25.839844 15.457031 25.820312 10.921875 22.65625 C 10.375 22.277344 9.882812 22.933594 10.253906 23.542969 C 11.636719 25.820312 14.425781 27.847656 18 27.847656 C 21.574219 27.847656 24.363281 25.820312 25.746094 23.542969 C 26.117188 22.933594 25.625 22.277344 25.078125 22.65625 Z M 25.078125 22.65625 "/>
    <path style=" stroke:none;fill-rule:nonzero;fill:rgb(40%,30.588235%,15.294118%);fill-opacity:1;" d="M 16.046875 15.105469 C 15 12.230469 13.425781 10.792969 11.847656 10.792969 C 10.273438 10.792969 8.699219 12.230469 7.652344 15.105469 C 7.550781 15.394531 8.085938 15.917969 8.359375 15.632812 C 9.371094 14.5625 10.585938 14.136719 11.847656 14.136719 C 13.113281 14.136719 14.328125 14.5625 15.339844 15.632812 C 15.609375 15.917969 16.148438 15.394531 16.046875 15.105469 Z M 28.347656 15.105469 C 27.300781 12.230469 25.726562 10.792969 24.148438 10.792969 C 22.574219 10.792969 21 12.230469 19.953125 15.105469 C 19.851562 15.394531 20.390625 15.917969 20.660156 15.632812 C 21.671875 14.5625 22.882812 14.136719 24.148438 14.136719 C 25.414062 14.136719 26.628906 14.5625 27.640625 15.632812 C 27.910156 15.917969 28.449219 15.394531 28.347656 15.105469 Z M 28.347656 15.105469 "/>
    <use xlink:href="#surface6" mask="url(#mask0)"/>
    <use xlink:href="#surface9" mask="url(#mask1)"/>
  </g>
</svg>