<?xml version="1.0" encoding="UTF-8" standalone="yes"?>
<svg xmlns="http://www.w3.org/2000/svg" xmlns:xlink="http://www.w3.org/1999/xlink" width="48px" height="48px" viewBox="0 0 36 36" version="1.1">
  <defs>
    <filter id="alpha" filterUnits="objectBoundingBox" x="0%" y="0%" width="100%" height="100%">
      <feColorMatrix type="matrix" in="SourceGraphic" values="0 0 0 0 1 0 0 0 0 1 0 0 0 0 1 0 0 0 1 0"/>
    </filter>
    <mask id="mask0">
      <g filter="url(#alpha)">
        <rect x="0" y="0" width="36" height="36" style="fill:rgb(0%,0%,0%);fill-opacity:0.701961;stroke:none;"/>
      </g>
    </mask>
    <clipPath id="clip1">
      <rect width="36" height="36"/>
    </clipPath>
    <g id="surface6" clip-path="url(#clip1)">
      <path style=" stroke:none;fill-rule:nonzero;fill:rgb(24.313725%,26.27451%,27.843137%);fill-opacity:1;" d="M 11.921875 28.496094 C 11.921875 29.191406 10.796875 29.191406 10.796875 28.496094 L 10.796875 25.039062 C 10.796875 24.34375 11.921875 24.34375 11.921875 25.039062 Z M 14.578125 28.496094 C 14.578125 29.191406 13.453125 29.191406 13.453125 28.496094 L 13.453125 25.039062 C 13.453125 24.34375 14.578125 24.34375 14.578125 25.039062 Z M 17.234375 28.496094 C 17.234375 29.191406 16.109375 29.191406 16.109375 28.496094 L 16.109375 25.039062 C 16.109375 24.34375 17.234375 24.34375 17.234375 25.039062 Z M 19.890625 28.496094 C 19.890625 29.191406 18.765625 29.191406 18.765625 28.496094 L 18.765625 25.039062 C 18.765625 24.34375 19.890625 24.34375 19.890625 25.039062 Z M 22.546875 28.496094 C 22.546875 29.191406 21.421875 29.191406 21.421875 28.496094 L 21.421875 25.039062 C 21.421875 24.34375 22.546875 24.34375 22.546875 25.039062 Z M 25.203125 28.496094 C 25.203125 29.191406 24.078125 29.191406 24.078125 28.496094 L 24.078125 25.039062 C 24.078125 24.34375 25.203125 24.34375 25.203125 25.039062 Z M 25.203125 28.496094 "/>
    </g>
  </defs>
  <g id="surface1">
    <path style=" stroke:none;fill-rule:nonzero;fill:rgb(0%,72.54902%,94.509804%);fill-opacity:1;" d="M 32.398438 7.679688 C 32.03125 7.128906 31.476562 6.746094 30.894531 6.460938 C 28.996094 5.527344 24.347656 5.722656 23.957031 3.28125 C 23.441406 0.078125 20.664062 3.3125 20.148438 3.3125 C 19.550781 3.3125 19.261719 1.125 18.054688 1.125 C 16.84375 1.125 16.554688 3.3125 15.960938 3.3125 C 15.445312 3.3125 12.664062 0.078125 12.152344 3.28125 C 11.761719 5.722656 7.113281 5.527344 5.214844 6.460938 C 4.628906 6.746094 4.078125 7.132812 3.710938 7.679688 C 3.417969 8.113281 4.0625 8.585938 4.386719 8.175781 C 5.28125 7.0625 7.105469 6.84375 8.40625 6.585938 C 9.5 6.371094 10.683594 6.242188 11.714844 5.804688 C 13.175781 5.242188 13.109375 3.03125 13.554688 3.03125 C 13.882812 3.03125 15.070312 4.726562 16.113281 4.726562 C 17 4.726562 17.5625 2.648438 18.054688 2.648438 C 18.546875 2.648438 19.105469 4.726562 19.996094 4.726562 C 21.039062 4.726562 22.226562 3.03125 22.554688 3.03125 C 22.996094 3.03125 22.933594 5.242188 24.394531 5.804688 C 25.425781 6.242188 26.609375 6.371094 27.703125 6.585938 C 29.003906 6.84375 30.828125 7.0625 31.722656 8.175781 C 32.046875 8.585938 32.691406 8.113281 32.398438 7.679688 Z M 32.398438 7.679688 "/>
    <path style=" stroke:none;fill-rule:nonzero;fill:rgb(53.72549%,58.823529%,47.843137%);fill-opacity:1;" d="M 29.8125 32.0625 C 29.8125 33.617188 28.554688 34.875 27 34.875 L 9 34.875 C 7.445312 34.875 6.1875 33.617188 6.1875 32.0625 L 6.1875 20.25 L 29.8125 20.25 Z M 29.8125 32.0625 "/>
    <path style=" stroke:none;fill-rule:nonzero;fill:rgb(71.372549%,76.862745%,65.490196%);fill-opacity:1;" d="M 18 6.75 C 9.300781 6.75 6.1875 11.550781 6.1875 20.25 L 6.1875 32.0625 L 29.8125 32.0625 L 29.8125 20.25 C 29.8125 11.550781 26.699219 6.75 18 6.75 Z M 18 6.75 "/>
    <path style=" stroke:none;fill-rule:nonzero;fill:rgb(53.72549%,58.823529%,47.843137%);fill-opacity:1;" d="M 6.1875 30.925781 C 5.566406 30.925781 5.0625 30.269531 5.0625 29.457031 L 5.0625 25.644531 C 5.0625 24.832031 5.566406 24.175781 6.1875 24.175781 Z M 29.8125 24.175781 C 30.433594 24.175781 30.9375 24.832031 30.9375 25.644531 L 30.9375 29.457031 C 30.9375 30.269531 30.433594 30.925781 29.8125 30.925781 Z M 29.8125 24.175781 "/>
    <path style=" stroke:none;fill-rule:nonzero;fill:rgb(24.313725%,26.27451%,27.843137%);fill-opacity:1;" d="M 3.9375 11.238281 L 2.8125 11.238281 L 2.8125 28.113281 L 5.0625 28.113281 L 5.0625 26.988281 L 3.9375 26.988281 Z M 32.0625 11.238281 L 32.0625 26.988281 L 30.9375 26.988281 L 30.9375 28.113281 L 33.1875 28.113281 L 33.1875 11.238281 Z M 32.0625 11.238281 "/>
    <path style=" stroke:none;fill-rule:nonzero;fill:rgb(0%,72.54902%,94.509804%);fill-opacity:1;" d="M 34.875 11.238281 C 34.875 12.480469 33.867188 13.488281 32.625 13.488281 C 31.382812 13.488281 30.375 12.480469 30.375 11.238281 C 30.375 9.996094 31.382812 8.988281 32.625 8.988281 C 33.867188 8.988281 34.875 9.996094 34.875 11.238281 Z M 34.875 11.238281 "/>
    <path style=" stroke:none;fill-rule:nonzero;fill:rgb(100%,32.156863%,38.823529%);fill-opacity:1;" d="M 5.625 11.238281 C 5.625 12.480469 4.617188 13.488281 3.375 13.488281 C 2.132812 13.488281 1.125 12.480469 1.125 11.238281 C 1.125 9.996094 2.132812 8.988281 3.375 8.988281 C 4.617188 8.988281 5.625 9.996094 5.625 11.238281 Z M 5.625 11.238281 "/>
    <path style=" stroke:none;fill-rule:nonzero;fill:rgb(93.72549%,100%,85.098039%);fill-opacity:1;" d="M 12.09375 22.21875 C 10.460938 22.253906 8.9375 21.40625 8.113281 20 C 7.285156 18.589844 7.285156 16.847656 8.113281 15.441406 C 8.941406 14.03125 10.464844 13.183594 12.09375 13.21875 C 14.539062 13.273438 16.496094 15.273438 16.496094 17.71875 C 16.492188 20.167969 14.539062 22.164062 12.09375 22.21875 Z M 12.09375 22.21875 "/>
    <path style=" stroke:none;fill-rule:nonzero;fill:rgb(32.941176%,35.686275%,38.039216%);fill-opacity:1;" d="M 15.46875 17.71875 C 15.46875 19.582031 13.957031 21.09375 12.09375 21.09375 C 10.230469 21.09375 8.71875 19.582031 8.71875 17.71875 C 8.71875 15.855469 10.230469 14.34375 12.09375 14.34375 C 13.957031 14.34375 15.46875 15.855469 15.46875 17.71875 Z M 15.46875 17.71875 "/>
    <path style=" stroke:none;fill-rule:nonzero;fill:rgb(100%,32.156863%,38.823529%);fill-opacity:1;" d="M 13.378906 17.71875 C 13.378906 18.429688 12.804688 19.003906 12.09375 19.003906 C 11.382812 19.003906 10.808594 18.429688 10.808594 17.71875 C 10.808594 17.007812 11.382812 16.433594 12.09375 16.433594 C 12.804688 16.433594 13.378906 17.007812 13.378906 17.71875 Z M 13.378906 17.71875 "/>
    <path style=" stroke:none;fill-rule:nonzero;fill:rgb(93.72549%,100%,85.098039%);fill-opacity:1;" d="M 23.90625 22.21875 C 22.273438 22.253906 20.75 21.40625 19.925781 20 C 19.097656 18.589844 19.097656 16.847656 19.925781 15.441406 C 20.753906 14.03125 22.277344 13.183594 23.90625 13.21875 C 26.351562 13.273438 28.308594 15.273438 28.308594 17.71875 C 28.304688 20.167969 26.351562 22.164062 23.90625 22.21875 Z M 23.90625 22.21875 "/>
    <path style=" stroke:none;fill-rule:nonzero;fill:rgb(32.941176%,35.686275%,38.039216%);fill-opacity:1;" d="M 23.90625 21.09375 C 22.042969 21.09375 20.53125 19.582031 20.53125 17.71875 C 20.53125 15.855469 22.042969 14.34375 23.90625 14.34375 C 25.769531 14.34375 27.28125 15.855469 27.28125 17.71875 C 27.28125 19.582031 25.769531 21.09375 23.90625 21.09375 Z M 23.90625 21.09375 "/>
    <path style=" stroke:none;fill-rule:nonzero;fill:rgb(100%,32.156863%,38.823529%);fill-opacity:1;" d="M 25.191406 17.71875 C 25.191406 18.429688 24.617188 19.003906 23.90625 19.003906 C 23.195312 19.003906 22.621094 18.429688 22.621094 17.71875 C 22.621094 17.007812 23.195312 16.433594 23.90625 16.433594 C 24.617188 16.433594 25.191406 17.007812 25.191406 17.71875 Z M 25.191406 17.71875 "/>
    <path style=" stroke:none;fill-rule:nonzero;fill:rgb(93.72549%,100%,85.098039%);fill-opacity:1;" d="M 11.121094 30.425781 C 6.980469 30.425781 6.980469 23.113281 11.121094 23.113281 L 24.878906 23.113281 C 29.019531 23.113281 29.019531 30.425781 24.878906 30.425781 Z M 11.121094 30.425781 "/>
    <path style=" stroke:none;fill-rule:nonzero;fill:rgb(53.72549%,58.823529%,47.843137%);fill-opacity:1;" d="M 11.523438 29.582031 C 8.160156 29.582031 8.160156 23.957031 11.523438 23.957031 L 24.476562 23.957031 C 27.839844 23.957031 27.839844 29.582031 24.476562 29.582031 Z M 11.523438 29.582031 "/>
    <path style=" stroke:none;fill-rule:nonzero;fill:rgb(96.078431%,96.078431%,96.078431%);fill-opacity:1;" d="M 19.125 20.800781 C 19.125 21.421875 18.621094 21.925781 18 21.925781 C 17.378906 21.925781 16.875 21.421875 16.875 20.800781 C 16.875 20.179688 17.378906 19.675781 18 19.675781 C 18.621094 19.675781 19.125 20.179688 19.125 20.800781 Z M 19.125 20.800781 "/>
    <path style=" stroke:none;fill-rule:nonzero;fill:rgb(32.941176%,35.686275%,38.039216%);fill-opacity:1;" d="M 17.050781 20.15625 L 17.355469 19.855469 L 18.949219 21.445312 L 18.644531 21.75 Z M 17.050781 20.15625 "/>
    <use xlink:href="#surface6" mask="url(#mask0)"/>
  </g>
</svg>