<?xml version="1.0" encoding="UTF-8" standalone="yes"?>
<svg xmlns="http://www.w3.org/2000/svg" xmlns:xlink="http://www.w3.org/1999/xlink" width="48px" height="48px" viewBox="0 0 36 36" version="1.1">
  <g id="surface1">
    <path style=" stroke:none;fill-rule:nonzero;fill:rgb(53.72549%,40%,29.803922%);fill-opacity:1;" d="M 18.117188 20.75 C 8.519531 20.75 1.125 16.757812 1.125 25.722656 C 1.125 32.882812 10.625 34.875 17.882812 34.875 C 26.308594 34.875 34.875 32.882812 34.875 25.722656 C 34.875 16.757812 28.035156 20.75 18.117188 20.75 Z M 18.117188 20.75 "/>
    <path style=" stroke:none;fill-rule:nonzero;fill:rgb(60.784314%,47.058824%,38.039216%);fill-opacity:1;" d="M 17.847656 11.746094 C 12.472656 11.746094 4.066406 12.371094 4.066406 18.84375 C 4.066406 28.308594 31.933594 28.308594 31.933594 18.84375 C 31.933594 12.371094 23.558594 11.746094 17.847656 11.746094 Z M 17.847656 11.746094 "/>
    <path style=" stroke:none;fill-rule:nonzero;fill:rgb(65.882353%,52.54902%,45.098039%);fill-opacity:1;" d="M 27.570312 9.394531 C 24.949219 3.578125 12.738281 9.566406 14.835938 2.515625 C 15.152344 1.453125 15.136719 0.992188 14.332031 1.160156 C 9.9375 2.070312 6.773438 6.597656 7.886719 10.339844 C 11.472656 22.394531 31.105469 17.242188 27.570312 9.394531 Z M 27.570312 9.394531 "/>
    <path style=" stroke:none;fill-rule:nonzero;fill:rgb(100%,100%,100%);fill-opacity:1;" d="M 16.226562 19.304688 C 16.226562 21.542969 14.414062 23.355469 12.175781 23.355469 C 9.9375 23.359375 8.121094 21.542969 8.121094 19.304688 C 8.121094 17.066406 9.933594 15.253906 12.171875 15.253906 C 14.410156 15.253906 16.226562 17.066406 16.226562 19.304688 Z M 16.226562 19.304688 "/>
    <path style=" stroke:none;fill-rule:nonzero;fill:rgb(13.72549%,12.156863%,12.54902%);fill-opacity:1;" d="M 15.320312 19.304688 C 15.320312 20.425781 14.414062 21.332031 13.292969 21.332031 C 12.175781 21.332031 11.265625 20.425781 11.265625 19.304688 C 11.265625 18.1875 12.175781 17.277344 13.292969 17.277344 C 14.414062 17.277344 15.320312 18.1875 15.320312 19.304688 Z M 15.320312 19.304688 "/>
    <path style=" stroke:none;fill-rule:nonzero;fill:rgb(100%,100%,100%);fill-opacity:1;" d="M 27.878906 19.304688 C 27.878906 21.542969 26.066406 23.355469 23.828125 23.355469 C 21.589844 23.355469 19.773438 21.542969 19.773438 19.304688 C 19.800781 17.085938 21.605469 15.300781 23.828125 15.300781 C 26.046875 15.300781 27.851562 17.085938 27.878906 19.304688 Z M 27.878906 19.304688 "/>
    <path style=" stroke:none;fill-rule:nonzero;fill:rgb(13.72549%,12.156863%,12.54902%);fill-opacity:1;" d="M 24.734375 19.304688 C 24.734375 20.425781 23.828125 21.332031 22.707031 21.332031 C 21.585938 21.332031 20.679688 20.425781 20.679688 19.304688 C 20.679688 18.1875 21.585938 17.28125 22.707031 17.28125 C 23.828125 17.28125 24.734375 18.1875 24.734375 19.304688 Z M 24.734375 19.304688 "/>
    <path style=" stroke:none;fill-rule:nonzero;fill:rgb(13.72549%,12.156863%,12.54902%);fill-opacity:1;" d="M 21.375 28.480469 C 21.375 30.34375 19.863281 31.855469 18 31.855469 C 16.136719 31.855469 14.625 30.34375 14.625 28.480469 C 14.625 26.617188 16.136719 25.105469 18 25.105469 C 19.863281 25.105469 21.375 26.617188 21.375 28.480469 Z M 21.375 28.480469 "/>
  </g>
</svg>