<?xml version="1.0" encoding="UTF-8" standalone="yes"?>
<svg xmlns="http://www.w3.org/2000/svg" xmlns:xlink="http://www.w3.org/1999/xlink" width="48px" height="48px" viewBox="0 0 36 36" version="1.1">
  <g id="surface1">
    <path style=" stroke:none;fill-rule:nonzero;fill:rgb(85.490196%,87.058824%,87.843137%);fill-opacity:1;" d="M 34.234375 1.125 C 35.246094 8.679688 35.082031 14.757812 33.578125 18.636719 L 19.625 8.253906 C 22.394531 5.390625 28.023438 1.945312 34.234375 1.125 Z M 34.234375 1.125 "/>
    <path style=" stroke:none;fill-rule:nonzero;fill:rgb(96.862745%,64.313725%,64.313725%);fill-opacity:1;" d="M 32.476562 18.097656 L 26.707031 10.644531 C 26.707031 10.644531 27.800781 6.546875 33.242188 3.648438 C 34.875 10.203125 32.476562 18.097656 32.476562 18.097656 Z M 32.476562 18.097656 "/>
    <path style=" stroke:none;fill-rule:nonzero;fill:rgb(96.862745%,55.294118%,55.294118%);fill-opacity:1;" d="M 30.28125 16.402344 L 26.707031 11.785156 C 26.707031 11.785156 28.15625 8.960938 31.527344 7.164062 C 29.5625 11.417969 30.28125 16.402344 30.28125 16.402344 Z M 30.28125 16.402344 "/>
    <path style=" stroke:none;fill-rule:nonzero;fill:rgb(85.490196%,87.058824%,87.843137%);fill-opacity:1;" d="M 1.765625 1.125 C 0.753906 8.679688 0.917969 14.757812 2.421875 18.636719 L 16.375 8.253906 C 13.601562 5.390625 7.976562 1.945312 1.765625 1.125 Z M 1.765625 1.125 "/>
    <path style=" stroke:none;fill-rule:nonzero;fill:rgb(96.862745%,64.313725%,64.313725%);fill-opacity:1;" d="M 3.523438 18.097656 L 9.289062 10.644531 C 9.289062 10.644531 8.199219 6.546875 2.757812 3.648438 C 1.125 10.203125 3.523438 18.097656 3.523438 18.097656 Z M 3.523438 18.097656 "/>
    <path style=" stroke:none;fill-rule:nonzero;fill:rgb(96.862745%,55.294118%,55.294118%);fill-opacity:1;" d="M 5.71875 16.402344 L 9.289062 11.785156 C 9.289062 11.785156 7.84375 8.960938 4.472656 7.164062 C 6.4375 11.417969 5.71875 16.402344 5.71875 16.402344 Z M 5.71875 16.402344 "/>
    <path style=" stroke:none;fill-rule:nonzero;fill:rgb(85.490196%,87.058824%,87.843137%);fill-opacity:1;" d="M 32.734375 28.550781 C 33.210938 28.054688 33.53125 27.628906 33.667969 27.332031 C 34.585938 25.847656 34.875 24.328125 34.875 24.328125 L 33.75 24.566406 C 33.75 24.566406 35.054688 23.179688 34.699219 20.183594 L 33.605469 21.367188 C 33.605469 21.367188 34.699219 18.324219 33.75 15.515625 L 32.539062 16.410156 C 32.539062 16.410156 32.90625 15.265625 32.566406 14.484375 L 32.042969 14.894531 C 32.042969 14.894531 32.992188 12.269531 32.128906 11.167969 C 31.648438 12.757812 31.078125 12.734375 31.078125 12.734375 C 31.078125 12.734375 31.777344 11.542969 31.230469 11.042969 C 30.675781 11.941406 30.214844 11.359375 30.238281 11.089844 C 30.269531 10.730469 30.128906 10.226562 31.757812 9.988281 C 30.457031 9.191406 28.914062 9.746094 28.914062 9.746094 C 28.914062 9.746094 28.96875 8.910156 30.109375 8.941406 C 29.054688 8.046875 27.589844 8.578125 27.589844 8.578125 L 27.589844 8.585938 C 25.28125 6.835938 22.164062 5.828125 18 5.828125 C 13.832031 5.828125 10.71875 6.835938 8.40625 8.585938 L 8.410156 8.578125 C 8.410156 8.578125 6.941406 8.046875 5.890625 8.941406 C 7.03125 8.90625 7.085938 9.746094 7.085938 9.746094 C 7.085938 9.746094 5.542969 9.191406 4.242188 9.988281 C 5.871094 10.226562 5.730469 10.730469 5.761719 11.089844 C 5.785156 11.359375 5.324219 11.941406 4.765625 11.042969 C 4.222656 11.542969 4.921875 12.734375 4.921875 12.734375 C 4.921875 12.734375 4.351562 12.757812 3.871094 11.167969 C 3.003906 12.269531 3.957031 14.894531 3.957031 14.894531 L 3.433594 14.484375 C 3.09375 15.265625 3.460938 16.410156 3.460938 16.410156 L 2.25 15.515625 C 1.296875 18.324219 2.394531 21.367188 2.394531 21.367188 L 1.296875 20.183594 C 0.945312 23.179688 2.25 24.566406 2.25 24.566406 L 1.125 24.328125 C 1.125 24.328125 1.414062 25.84375 2.328125 27.332031 C 2.46875 27.632812 2.796875 28.066406 3.285156 28.570312 C 3.296875 28.582031 3.308594 28.597656 3.320312 28.609375 C 5.609375 30.960938 11.316406 34.875 18 34.875 C 24.683594 34.875 30.390625 30.960938 32.679688 28.609375 C 32.699219 28.589844 32.714844 28.570312 32.734375 28.550781 Z M 32.734375 28.550781 "/>
    <path style=" stroke:none;fill-rule:nonzero;fill:rgb(58.039216%,59.607843%,60.784314%);fill-opacity:1;" d="M 21.199219 6.054688 C 20.207031 5.910156 19.144531 5.828125 18 5.828125 C 16.855469 5.828125 15.792969 5.910156 14.800781 6.054688 C 15.214844 8.222656 16.347656 9.757812 18 12.570312 C 19.675781 9.714844 20.792969 8.207031 21.199219 6.054688 Z M 26.332031 7.753906 C 25.257812 7.140625 24.042969 6.660156 22.664062 6.335938 C 22.996094 7.621094 23.707031 8.539062 24.703125 10.234375 C 25.398438 9.046875 25.949219 8.738281 26.332031 7.753906 Z M 13.335938 6.335938 C 11.957031 6.660156 10.742188 7.140625 9.667969 7.753906 C 10.054688 8.746094 10.605469 9.0625 11.292969 10.234375 C 12.304688 8.515625 13.007812 7.613281 13.335938 6.335938 Z M 13.335938 6.335938 "/>
    <path style=" stroke:none;fill-rule:nonzero;fill:rgb(29.803922%,32.54902%,34.901961%);fill-opacity:1;" d="M 20.273438 21.804688 C 19.816406 21.273438 18.417969 21.234375 18 21.234375 C 17.582031 21.234375 16.179688 21.273438 15.726562 21.804688 C 15.402344 22.1875 15.652344 23.125 16.515625 23.933594 C 17.0625 24.449219 17.582031 24.609375 18 24.609375 C 18.417969 24.609375 18.9375 24.449219 19.484375 23.933594 C 20.347656 23.125 20.597656 22.183594 20.273438 21.804688 Z M 20.273438 21.804688 "/>
    <path style=" stroke:none;fill-rule:nonzero;fill:rgb(100%,100%,100%);fill-opacity:1;" d="M 13.667969 17.347656 C 13.667969 17.347656 13.394531 15.339844 11.132812 14.515625 C 8.578125 13.585938 6.835938 15.296875 6.363281 16.59375 C 5.667969 18.511719 6.542969 20.605469 6.800781 21.089844 C 6.972656 21.40625 8.859375 22.914062 13.113281 21.488281 C 13.113281 21.488281 14.171875 19.355469 13.667969 17.347656 Z M 13.667969 17.347656 "/>
    <path style=" stroke:none;fill-rule:nonzero;fill:rgb(69.803922%,71.372549%,72.156863%);fill-opacity:1;" d="M 13.667969 17.347656 C 13.667969 17.347656 10.339844 14.640625 10.140625 14.632812 C 9.324219 14.609375 8.546875 14.398438 7.949219 14.972656 C 7.351562 15.539062 6.859375 16.28125 6.660156 17.058594 C 6.445312 17.851562 6.484375 18.71875 6.671875 19.554688 C 6.761719 19.972656 6.890625 20.390625 7.058594 20.777344 L 7.121094 20.914062 C 7.105469 20.882812 7.128906 20.925781 7.132812 20.929688 C 7.132812 20.929688 7.132812 20.925781 7.128906 20.925781 L 7.160156 20.960938 C 7.21875 21.019531 7.292969 21.078125 7.371094 21.136719 C 7.527344 21.25 7.707031 21.351562 7.898438 21.433594 C 8.667969 21.769531 9.558594 21.878906 10.441406 21.859375 C 11.332031 21.855469 12.222656 21.683594 13.113281 21.488281 C 12.273438 21.867188 11.382812 22.128906 10.472656 22.269531 C 9.554688 22.394531 8.582031 22.378906 7.65625 22.046875 C 7.417969 21.964844 7.191406 21.855469 6.976562 21.722656 C 6.859375 21.652344 6.753906 21.570312 6.652344 21.476562 C 6.621094 21.449219 6.59375 21.417969 6.566406 21.386719 L 6.511719 21.316406 L 6.476562 21.257812 L 6.390625 21.089844 C 6.179688 20.660156 6.015625 20.207031 5.894531 19.742188 C 5.664062 18.816406 5.597656 17.816406 5.84375 16.84375 C 6.121094 15.867188 6.683594 15.042969 7.414062 14.378906 C 8.148438 13.734375 9.171875 13.859375 10.183594 13.980469 C 10.433594 14.007812 13.667969 17.347656 13.667969 17.347656 Z M 13.667969 17.347656 "/>
    <path style=" stroke:none;fill-rule:nonzero;fill:rgb(100%,100%,100%);fill-opacity:1;" d="M 22.328125 17.347656 C 22.328125 17.347656 22.601562 15.339844 24.867188 14.515625 C 27.417969 13.585938 29.160156 15.296875 29.632812 16.59375 C 30.332031 18.511719 29.457031 20.605469 29.195312 21.089844 C 29.023438 21.40625 27.140625 22.914062 22.886719 21.488281 C 22.886719 21.488281 21.828125 19.355469 22.328125 17.347656 Z M 22.328125 17.347656 "/>
    <path style=" stroke:none;fill-rule:nonzero;fill:rgb(69.803922%,71.372549%,72.156863%);fill-opacity:1;" d="M 22.328125 17.347656 C 22.328125 17.347656 25.5625 14.007812 25.816406 13.980469 C 26.828125 13.859375 27.851562 13.730469 28.582031 14.378906 C 29.316406 15.039062 29.878906 15.867188 30.152344 16.84375 C 30.398438 17.816406 30.335938 18.816406 30.101562 19.742188 C 29.980469 20.203125 29.820312 20.652344 29.609375 21.089844 L 29.519531 21.257812 L 29.484375 21.316406 L 29.429688 21.386719 C 29.402344 21.417969 29.375 21.445312 29.34375 21.476562 C 29.238281 21.578125 29.132812 21.652344 29.023438 21.722656 C 28.800781 21.859375 28.574219 21.964844 28.34375 22.046875 C 27.414062 22.378906 26.441406 22.390625 25.523438 22.269531 C 24.613281 22.128906 23.726562 21.863281 22.886719 21.488281 C 23.777344 21.683594 24.667969 21.851562 25.558594 21.855469 C 26.441406 21.878906 27.332031 21.769531 28.101562 21.433594 C 28.289062 21.351562 28.46875 21.25 28.628906 21.136719 C 28.707031 21.078125 28.78125 21.015625 28.835938 20.960938 L 28.867188 20.925781 C 28.867188 20.925781 28.867188 20.925781 28.867188 20.929688 L 28.875 20.914062 L 28.941406 20.777344 C 29.105469 20.390625 29.238281 19.972656 29.328125 19.554688 C 29.515625 18.71875 29.554688 17.851562 29.339844 17.058594 C 29.140625 16.28125 28.648438 15.539062 28.050781 14.96875 C 27.453125 14.394531 26.675781 14.609375 25.859375 14.632812 C 25.660156 14.640625 22.328125 17.347656 22.328125 17.347656 Z M 22.328125 17.347656 "/>
    <path style=" stroke:none;fill-rule:nonzero;fill:rgb(29.803922%,32.54902%,34.901961%);fill-opacity:1;" d="M 27 18.28125 C 27 16.882812 25.992188 15.75 24.75 15.75 C 23.507812 15.75 22.5 16.882812 22.5 18.28125 C 22.5 19.679688 23.507812 20.8125 24.75 20.8125 C 25.992188 20.8125 27 19.679688 27 18.28125 Z M 27 18.28125 "/>
    <path style=" stroke:none;fill-rule:nonzero;fill:rgb(29.803922%,32.54902%,34.901961%);fill-opacity:1;" d="M 13.5 18.28125 C 13.5 16.882812 12.492188 15.75 11.25 15.75 C 10.007812 15.75 9 16.882812 9 18.28125 C 9 19.679688 10.007812 20.8125 11.25 20.8125 C 12.492188 20.8125 13.5 19.679688 13.5 18.28125 Z M 13.5 18.28125 "/>
    <path style=" stroke:none;fill-rule:nonzero;fill:rgb(29.803922%,32.54902%,34.901961%);fill-opacity:1;" d="M 31.441406 13.796875 C 30.386719 13.898438 29.449219 14.054688 28.539062 14.296875 C 27.648438 14.53125 26.777344 14.84375 25.941406 15.234375 C 25.105469 15.621094 24.304688 16.082031 23.550781 16.609375 C 22.78125 17.148438 22.0625 17.769531 21.316406 18.515625 C 21.429688 17.457031 21.949219 16.460938 22.648438 15.640625 C 23.347656 14.816406 24.25 14.152344 25.234375 13.703125 C 26.21875 13.242188 27.289062 13 28.378906 12.984375 C 29.453125 12.980469 30.546875 13.214844 31.441406 13.796875 Z M 4.558594 13.796875 C 5.449219 13.214844 6.542969 12.980469 7.621094 12.984375 C 8.703125 12.992188 9.78125 13.246094 10.765625 13.703125 C 11.746094 14.152344 12.648438 14.816406 13.351562 15.636719 C 14.046875 16.460938 14.570312 17.457031 14.683594 18.515625 C 13.933594 17.769531 13.214844 17.148438 12.449219 16.609375 C 11.695312 16.082031 10.894531 15.621094 10.058594 15.234375 C 9.21875 14.84375 8.347656 14.53125 7.457031 14.296875 C 6.550781 14.054688 5.609375 13.898438 4.558594 13.796875 Z M 4.558594 13.796875 "/>
    <path style=" stroke:none;fill-rule:nonzero;fill:rgb(29.803922%,32.54902%,34.901961%);fill-opacity:1;" d="M 14.515625 30.070312 C 17.777344 30.859375 22.984375 30.09375 25.675781 28.089844 C 26.34375 27.582031 25.027344 25.839844 24.367188 26.347656 C 22.585938 27.671875 18.039062 28.667969 15.03125 27.953125 C 14.226562 27.761719 13.65625 29.851562 14.515625 30.070312 Z M 14.515625 30.070312 "/>
  </g>
</svg>