<?xml version="1.0" encoding="UTF-8" standalone="yes"?>
<svg xmlns="http://www.w3.org/2000/svg" xmlns:xlink="http://www.w3.org/1999/xlink" width="48px" height="48px" viewBox="0 0 36 36" version="1.1">
  <g id="surface1">
    <path style=" stroke:none;fill-rule:nonzero;fill:rgb(85.490196%,87.058824%,87.843137%);fill-opacity:1;" d="M 34.234375 1.125 C 35.246094 8.679688 35.082031 14.757812 33.578125 18.636719 L 19.625 8.253906 C 22.394531 5.390625 28.023438 1.945312 34.234375 1.125 Z M 34.234375 1.125 "/>
    <path style=" stroke:none;fill-rule:nonzero;fill:rgb(96.862745%,64.313725%,64.313725%);fill-opacity:1;" d="M 32.476562 18.097656 L 26.710938 10.644531 C 26.710938 10.644531 27.800781 6.546875 33.242188 3.648438 C 34.875 10.203125 32.476562 18.097656 32.476562 18.097656 Z M 32.476562 18.097656 "/>
    <path style=" stroke:none;fill-rule:nonzero;fill:rgb(96.862745%,55.294118%,55.294118%);fill-opacity:1;" d="M 30.28125 16.402344 L 26.710938 11.785156 C 26.710938 11.785156 28.15625 8.960938 31.527344 7.164062 C 29.5625 11.417969 30.28125 16.402344 30.28125 16.402344 Z M 30.28125 16.402344 "/>
    <path style=" stroke:none;fill-rule:nonzero;fill:rgb(85.490196%,87.058824%,87.843137%);fill-opacity:1;" d="M 1.765625 1.125 C 0.753906 8.679688 0.917969 14.757812 2.421875 18.636719 L 16.375 8.253906 C 13.605469 5.390625 7.976562 1.945312 1.765625 1.125 Z M 1.765625 1.125 "/>
    <path style=" stroke:none;fill-rule:nonzero;fill:rgb(96.862745%,64.313725%,64.313725%);fill-opacity:1;" d="M 3.523438 18.097656 L 9.289062 10.644531 C 9.289062 10.644531 8.199219 6.546875 2.757812 3.648438 C 1.125 10.203125 3.523438 18.097656 3.523438 18.097656 Z M 3.523438 18.097656 "/>
    <path style=" stroke:none;fill-rule:nonzero;fill:rgb(96.862745%,55.294118%,55.294118%);fill-opacity:1;" d="M 5.71875 16.402344 L 9.289062 11.785156 C 9.289062 11.785156 7.84375 8.960938 4.472656 7.164062 C 6.4375 11.417969 5.71875 16.402344 5.71875 16.402344 Z M 5.71875 16.402344 "/>
    <path style=" stroke:none;fill-rule:nonzero;fill:rgb(85.490196%,87.058824%,87.843137%);fill-opacity:1;" d="M 32.734375 28.550781 C 33.210938 28.054688 33.53125 27.628906 33.667969 27.332031 C 34.585938 25.847656 34.875 24.328125 34.875 24.328125 L 33.75 24.566406 C 33.75 24.566406 35.054688 23.179688 34.699219 20.183594 L 33.605469 21.367188 C 33.605469 21.367188 34.699219 18.324219 33.75 15.515625 L 32.539062 16.410156 C 32.539062 16.410156 32.90625 15.265625 32.566406 14.484375 L 32.042969 14.894531 C 32.042969 14.894531 32.992188 12.269531 32.128906 11.167969 C 31.648438 12.757812 31.078125 12.734375 31.078125 12.734375 C 31.078125 12.734375 31.777344 11.542969 31.230469 11.042969 C 30.675781 11.941406 30.214844 11.359375 30.238281 11.089844 C 30.269531 10.730469 30.128906 10.226562 31.757812 9.988281 C 30.457031 9.191406 28.914062 9.746094 28.914062 9.746094 C 28.914062 9.746094 28.96875 8.910156 30.109375 8.941406 C 29.054688 8.046875 27.589844 8.578125 27.589844 8.578125 L 27.589844 8.585938 C 25.28125 6.835938 22.164062 5.828125 18 5.828125 C 13.832031 5.828125 10.71875 6.835938 8.40625 8.585938 L 8.410156 8.578125 C 8.410156 8.578125 6.941406 8.046875 5.890625 8.941406 C 7.03125 8.90625 7.085938 9.746094 7.085938 9.746094 C 7.085938 9.746094 5.542969 9.191406 4.242188 9.988281 C 5.871094 10.226562 5.730469 10.730469 5.761719 11.089844 C 5.785156 11.359375 5.324219 11.941406 4.765625 11.042969 C 4.222656 11.542969 4.921875 12.734375 4.921875 12.734375 C 4.921875 12.734375 4.351562 12.757812 3.871094 11.167969 C 3.003906 12.269531 3.957031 14.894531 3.957031 14.894531 L 3.433594 14.484375 C 3.09375 15.265625 3.460938 16.410156 3.460938 16.410156 L 2.25 15.515625 C 1.296875 18.324219 2.394531 21.367188 2.394531 21.367188 L 1.296875 20.183594 C 0.945312 23.179688 2.25 24.566406 2.25 24.566406 L 1.125 24.328125 C 1.125 24.328125 1.414062 25.84375 2.328125 27.332031 C 2.46875 27.632812 2.796875 28.066406 3.285156 28.570312 C 3.296875 28.582031 3.308594 28.597656 3.320312 28.609375 C 5.609375 30.960938 11.316406 34.875 18 34.875 C 24.683594 34.875 30.390625 30.960938 32.679688 28.609375 Z M 32.734375 28.550781 "/>
    <path style=" stroke:none;fill-rule:nonzero;fill:rgb(58.039216%,59.607843%,60.784314%);fill-opacity:1;" d="M 21.199219 6.054688 C 20.207031 5.910156 19.144531 5.828125 18 5.828125 C 16.855469 5.828125 15.792969 5.910156 14.800781 6.054688 C 15.214844 8.222656 16.347656 9.757812 18 12.570312 C 19.675781 9.714844 20.792969 8.207031 21.199219 6.054688 Z M 26.332031 7.753906 C 25.257812 7.140625 24.042969 6.660156 22.664062 6.335938 C 22.996094 7.621094 23.707031 8.539062 24.703125 10.234375 C 25.398438 9.046875 25.949219 8.738281 26.332031 7.753906 Z M 13.335938 6.335938 C 11.957031 6.660156 10.742188 7.140625 9.667969 7.753906 C 10.054688 8.746094 10.605469 9.0625 11.292969 10.234375 C 12.304688 8.515625 13.007812 7.613281 13.335938 6.335938 Z M 13.335938 6.335938 "/>
    <path style=" stroke:none;fill-rule:nonzero;fill:rgb(29.803922%,32.54902%,34.901961%);fill-opacity:1;" d="M 20.273438 21.804688 C 19.816406 21.273438 18.417969 21.234375 18 21.234375 C 17.582031 21.234375 16.179688 21.273438 15.726562 21.804688 C 15.402344 22.1875 15.652344 23.125 16.515625 23.933594 C 17.0625 24.449219 17.582031 24.609375 18 24.609375 C 18.417969 24.609375 18.9375 24.449219 19.484375 23.933594 C 20.347656 23.125 20.597656 22.183594 20.273438 21.804688 Z M 20.273438 21.804688 "/>
    <path style=" stroke:none;fill-rule:nonzero;fill:rgb(100%,100%,100%);fill-opacity:1;" d="M 13.667969 17.347656 C 13.667969 17.347656 13.394531 14.777344 11.132812 13.953125 C 8.578125 13.023438 6.835938 15.296875 6.363281 16.59375 C 5.667969 18.511719 6.542969 20.605469 6.800781 21.089844 C 6.972656 21.40625 8.859375 22.914062 13.113281 21.488281 C 13.113281 21.488281 14.171875 19.355469 13.667969 17.347656 Z M 13.667969 17.347656 "/>
    <path style=" stroke:none;fill-rule:nonzero;fill:rgb(69.803922%,71.372549%,72.156863%);fill-opacity:1;" d="M 13.667969 17.347656 C 13.441406 16.46875 13.03125 15.636719 12.398438 15.042969 C 12.097656 14.746094 11.742188 14.507812 11.347656 14.34375 C 11.152344 14.261719 10.949219 14.199219 10.746094 14.148438 C 10.546875 14.101562 10.34375 14.078125 10.140625 14.070312 C 9.324219 14.046875 8.546875 14.394531 7.949219 14.972656 C 7.351562 15.539062 6.859375 16.28125 6.660156 17.058594 C 6.445312 17.851562 6.484375 18.71875 6.671875 19.554688 C 6.761719 19.972656 6.890625 20.390625 7.058594 20.777344 L 7.121094 20.914062 C 7.105469 20.882812 7.128906 20.925781 7.132812 20.929688 C 7.132812 20.929688 7.132812 20.925781 7.128906 20.925781 L 7.160156 20.960938 C 7.21875 21.019531 7.292969 21.078125 7.371094 21.136719 C 7.527344 21.25 7.707031 21.351562 7.898438 21.433594 C 8.667969 21.769531 9.558594 21.878906 10.441406 21.855469 C 11.332031 21.855469 12.222656 21.683594 13.113281 21.488281 C 12.273438 21.863281 11.382812 22.128906 10.472656 22.269531 C 9.554688 22.390625 8.582031 22.378906 7.65625 22.046875 C 7.417969 21.960938 7.191406 21.855469 6.976562 21.722656 C 6.859375 21.652344 6.753906 21.570312 6.652344 21.476562 C 6.621094 21.449219 6.59375 21.417969 6.566406 21.386719 L 6.511719 21.316406 L 6.476562 21.257812 L 6.390625 21.089844 C 6.179688 20.65625 6.015625 20.207031 5.894531 19.742188 C 5.664062 18.816406 5.597656 17.816406 5.84375 16.84375 C 6.121094 15.867188 6.683594 15.039062 7.414062 14.378906 C 8.148438 13.734375 9.171875 13.296875 10.183594 13.417969 C 10.433594 13.445312 10.671875 13.488281 10.917969 13.570312 C 11.140625 13.640625 11.375 13.730469 11.589844 13.847656 C 12.015625 14.078125 12.394531 14.390625 12.703125 14.769531 C 13.285156 15.507812 13.621094 16.410156 13.667969 17.347656 Z M 13.667969 17.347656 "/>
    <path style=" stroke:none;fill-rule:nonzero;fill:rgb(100%,100%,100%);fill-opacity:1;" d="M 22.332031 17.347656 C 22.332031 17.347656 22.601562 14.777344 24.867188 13.953125 C 27.417969 13.023438 29.160156 15.296875 29.632812 16.59375 C 30.332031 18.511719 29.457031 20.605469 29.195312 21.089844 C 29.023438 21.40625 27.140625 22.914062 22.886719 21.488281 C 22.886719 21.488281 21.828125 19.355469 22.332031 17.347656 Z M 22.332031 17.347656 "/>
    <path style=" stroke:none;fill-rule:nonzero;fill:rgb(69.803922%,71.372549%,72.156863%);fill-opacity:1;" d="M 22.332031 17.347656 C 22.378906 16.410156 22.714844 15.507812 23.292969 14.765625 C 23.601562 14.390625 23.980469 14.078125 24.410156 13.847656 C 24.625 13.730469 24.847656 13.636719 25.082031 13.566406 C 25.320312 13.492188 25.566406 13.441406 25.816406 13.417969 C 26.828125 13.296875 27.851562 13.730469 28.582031 14.378906 C 29.316406 15.039062 29.878906 15.863281 30.152344 16.84375 C 30.398438 17.816406 30.335938 18.816406 30.105469 19.742188 C 29.984375 20.207031 29.816406 20.65625 29.609375 21.089844 L 29.519531 21.257812 L 29.484375 21.316406 L 29.429688 21.386719 C 29.402344 21.417969 29.375 21.445312 29.347656 21.472656 C 29.238281 21.574219 29.132812 21.652344 29.023438 21.722656 C 28.808594 21.851562 28.582031 21.960938 28.34375 22.046875 C 27.414062 22.378906 26.445312 22.390625 25.523438 22.269531 C 24.613281 22.125 23.726562 21.863281 22.886719 21.488281 C 23.777344 21.683594 24.667969 21.851562 25.558594 21.855469 C 26.441406 21.878906 27.332031 21.769531 28.101562 21.433594 C 28.289062 21.351562 28.46875 21.25 28.628906 21.132812 C 28.707031 21.078125 28.78125 21.015625 28.835938 20.957031 L 28.867188 20.921875 C 28.867188 20.925781 28.867188 20.925781 28.867188 20.925781 C 28.871094 20.921875 28.871094 20.917969 28.875 20.910156 L 28.941406 20.773438 C 29.105469 20.390625 29.238281 19.972656 29.328125 19.554688 C 29.515625 18.71875 29.554688 17.851562 29.339844 17.058594 C 29.140625 16.28125 28.648438 15.535156 28.050781 14.96875 C 27.453125 14.394531 26.675781 14.046875 25.859375 14.070312 C 25.65625 14.074219 25.453125 14.101562 25.253906 14.148438 C 25.042969 14.199219 24.84375 14.261719 24.652344 14.34375 C 24.257812 14.507812 23.902344 14.746094 23.597656 15.042969 C 22.96875 15.636719 22.558594 16.46875 22.332031 17.347656 Z M 22.332031 17.347656 "/>
    <path style=" stroke:none;fill-rule:nonzero;fill:rgb(29.803922%,32.54902%,34.901961%);fill-opacity:1;" d="M 28.125 18.28125 C 28.125 19.835938 26.867188 21.09375 25.3125 21.09375 C 23.757812 21.09375 22.5 19.835938 22.5 18.28125 C 22.5 16.726562 23.757812 15.46875 25.3125 15.46875 C 26.867188 15.46875 28.125 16.726562 28.125 18.28125 Z M 28.125 18.28125 "/>
    <path style=" stroke:none;fill-rule:nonzero;fill:rgb(29.803922%,32.54902%,34.901961%);fill-opacity:1;" d="M 13.5 18.28125 C 13.5 19.835938 12.242188 21.09375 10.6875 21.09375 C 9.132812 21.09375 7.875 19.835938 7.875 18.28125 C 7.875 16.726562 9.132812 15.46875 10.6875 15.46875 C 12.242188 15.46875 13.5 16.726562 13.5 18.28125 Z M 13.5 18.28125 "/>
    <path style=" stroke:none;fill-rule:nonzero;fill:rgb(100%,100%,100%);fill-opacity:1;" d="M 11.910156 20.234375 C 11.910156 19.449219 11.363281 18.8125 10.683594 18.8125 C 10.003906 18.8125 9.453125 19.449219 9.453125 20.234375 C 9.453125 21.019531 10.003906 21.65625 10.683594 21.65625 C 11.363281 21.65625 11.910156 21.019531 11.910156 20.234375 Z M 11.910156 20.234375 "/>
    <path style=" stroke:none;fill-rule:nonzero;fill:rgb(100%,100%,100%);fill-opacity:1;" d="M 9.3125 17.84375 C 9.3125 17.382812 8.992188 17.011719 8.59375 17.011719 C 8.195312 17.011719 7.875 17.382812 7.875 17.84375 C 7.875 18.300781 8.195312 18.675781 8.59375 18.675781 C 8.992188 18.675781 9.3125 18.300781 9.3125 17.84375 Z M 9.3125 17.84375 "/>
    <path style=" stroke:none;fill-rule:nonzero;fill:rgb(100%,100%,100%);fill-opacity:1;" d="M 26.535156 20.234375 C 26.535156 19.449219 25.988281 18.8125 25.308594 18.8125 C 24.628906 18.8125 24.078125 19.449219 24.078125 20.234375 C 24.078125 21.019531 24.628906 21.65625 25.308594 21.65625 C 25.988281 21.65625 26.535156 21.019531 26.535156 20.234375 Z M 26.535156 20.234375 "/>
    <path style=" stroke:none;fill-rule:nonzero;fill:rgb(100%,100%,100%);fill-opacity:1;" d="M 23.9375 17.84375 C 23.9375 17.382812 23.617188 17.011719 23.21875 17.011719 C 22.820312 17.011719 22.5 17.382812 22.5 17.84375 C 22.5 18.300781 22.820312 18.675781 23.21875 18.675781 C 23.617188 18.675781 23.9375 18.300781 23.9375 17.84375 Z M 23.9375 17.84375 "/>
    <path style=" stroke:none;fill-rule:nonzero;fill:rgb(29.803922%,32.54902%,34.901961%);fill-opacity:1;" d="M 22.828125 27.726562 C 19.789062 26.300781 16.195312 26.296875 13.152344 27.71875 C 12.402344 28.082031 13.339844 30.054688 14.089844 29.6875 C 16.097656 28.753906 19.09375 28.390625 21.894531 29.695312 C 22.644531 30.042969 23.625 28.113281 22.828125 27.726562 Z M 22.828125 27.726562 "/>
    <path style=" stroke:none;fill-rule:nonzero;fill:rgb(39.607843%,69.411765%,93.72549%);fill-opacity:1;" d="M 26.425781 20.8125 C 23.746094 24.476562 22.210938 27.84375 22.210938 30.613281 C 22.210938 32.96875 24.097656 34.875 26.429688 34.875 C 28.757812 34.875 30.644531 32.96875 30.644531 30.613281 C 30.644531 27.84375 29.0625 24.417969 26.425781 20.8125 Z M 26.425781 20.8125 "/>
  </g>
</svg>