<?xml version="1.0" encoding="UTF-8" standalone="yes"?>
<svg xmlns="http://www.w3.org/2000/svg" xmlns:xlink="http://www.w3.org/1999/xlink" width="48px" height="48px" viewBox="0 0 36 36" version="1.1">
  <g id="surface1">
    <path style=" stroke:none;fill-rule:nonzero;fill:rgb(58.039216%,59.607843%,60.784314%);fill-opacity:1;" d="M 26.140625 12.398438 C 26.839844 11.199219 27.207031 9.839844 27.207031 8.453125 C 27.207031 3.785156 23.085938 0 18 0 C 12.914062 0 8.792969 3.785156 8.792969 8.453125 C 8.792969 9.878906 9.179688 11.222656 9.859375 12.398438 C 9.210938 12.859375 8.792969 13.578125 8.792969 14.390625 C 8.792969 15.777344 10.023438 16.90625 11.535156 16.90625 C 11.679688 16.90625 11.820312 16.894531 11.957031 16.875 C 11.785156 17.269531 11.582031 17.757812 11.535156 18.003906 C 11.332031 19.035156 12.460938 19.902344 13.605469 19.902344 C 13.605469 19.902344 14.15625 19.949219 14.277344 19.839844 C 14.703125 19.445312 14.277344 17.683594 14.277344 17.683594 C 14.277344 17.386719 14.539062 17.144531 14.863281 17.144531 C 15.183594 17.144531 15.445312 17.386719 15.445312 17.683594 C 15.445312 17.683594 15.019531 19.507812 15.445312 19.902344 C 15.796875 20.222656 17.066406 20.222656 17.414062 19.902344 C 17.84375 19.507812 17.414062 17.683594 17.414062 17.683594 C 17.414062 17.386719 17.675781 17.144531 18 17.144531 C 18.324219 17.144531 18.585938 17.386719 18.585938 17.683594 C 18.585938 17.683594 18.15625 19.507812 18.585938 19.902344 C 18.933594 20.222656 20.203125 20.222656 20.550781 19.902344 C 20.980469 19.507812 20.550781 17.683594 20.550781 17.683594 C 20.550781 17.386719 20.816406 17.144531 21.136719 17.144531 C 21.460938 17.144531 21.722656 17.386719 21.722656 17.683594 C 21.722656 17.683594 21.296875 19.445312 21.722656 19.839844 C 21.84375 19.949219 22.394531 19.902344 22.394531 19.902344 C 23.539062 19.902344 24.664062 19.035156 24.464844 18.003906 C 24.417969 17.757812 24.214844 17.269531 24.042969 16.875 C 24.179688 16.894531 24.320312 16.90625 24.464844 16.90625 C 25.976562 16.90625 27.207031 15.777344 27.207031 14.390625 C 27.207031 13.578125 26.789062 12.859375 26.140625 12.398438 Z M 13.035156 12.875 C 12 12.175781 9.316406 9.257812 11.535156 9.136719 C 12.902344 9.0625 16.195312 10.1875 16.410156 11.429688 C 16.554688 12.273438 14.066406 13.570312 13.035156 12.875 Z M 19.550781 15.511719 C 19.023438 15.996094 17.09375 15.996094 16.566406 15.511719 C 16.070312 15.058594 16.882812 14.710938 17.164062 14.21875 C 17.492188 13.652344 17.65625 13.136719 18.058594 13.136719 C 18.460938 13.136719 18.621094 13.652344 18.949219 14.21875 C 19.230469 14.707031 20.035156 15.070312 19.550781 15.511719 Z M 23.082031 12.875 C 22.050781 13.570312 19.5625 12.273438 19.707031 11.429688 C 19.921875 10.1875 23.214844 9.0625 24.582031 9.136719 C 26.800781 9.257812 24.117188 12.175781 23.082031 12.875 Z M 23.082031 12.875 "/>
    <path style=" stroke:none;fill-rule:nonzero;fill:rgb(58.039216%,59.607843%,60.784314%);fill-opacity:1;" d="M 33.480469 28.996094 C 32.214844 28.324219 31.375 28.820312 31.375 28.820312 C 30.503906 29.328125 29.066406 29.359375 28.171875 28.886719 L 21.277344 25.230469 L 28.171875 21.574219 C 29.066406 21.101562 30.507812 21.132812 31.375 21.640625 C 31.375 21.640625 32.214844 22.136719 33.480469 21.464844 C 34.8125 20.757812 35.273438 19.191406 34.5 17.960938 L 34.246094 17.558594 C 33.824219 17.265625 33.425781 16.628906 33.359375 16.148438 L 33.105469 15.742188 C 32.332031 14.515625 30.625 14.09375 29.289062 14.804688 C 28.027344 15.472656 28.070312 16.390625 28.070312 16.390625 C 28.117188 17.335938 27.425781 18.496094 26.535156 18.96875 L 18 23.492188 L 9.464844 18.96875 C 8.574219 18.496094 7.882812 17.335938 7.929688 16.390625 C 7.929688 16.390625 7.976562 15.472656 6.710938 14.804688 C 5.375 14.097656 3.667969 14.515625 2.894531 15.742188 L 2.640625 16.148438 C 2.574219 16.628906 2.175781 17.265625 1.753906 17.558594 L 1.5 17.964844 C 0.730469 19.191406 1.1875 20.757812 2.523438 21.464844 C 3.785156 22.136719 4.625 21.644531 4.625 21.644531 C 5.496094 21.132812 6.933594 21.101562 7.828125 21.574219 L 14.722656 25.230469 L 7.828125 28.886719 C 6.933594 29.359375 5.496094 29.328125 4.625 28.820312 C 4.625 28.820312 3.785156 28.324219 2.523438 28.996094 C 1.1875 29.703125 0.726562 31.273438 1.5 32.496094 L 1.753906 32.902344 C 2.175781 33.195312 2.574219 33.832031 2.640625 34.3125 L 2.894531 34.71875 C 3.667969 35.945312 5.375 36.367188 6.710938 35.65625 C 7.976562 34.988281 7.929688 34.070312 7.929688 34.070312 C 7.882812 33.125 8.574219 31.964844 9.464844 31.492188 L 18 26.96875 L 26.535156 31.492188 C 27.425781 31.964844 28.117188 33.125 28.070312 34.070312 C 28.070312 34.070312 28.023438 34.984375 29.289062 35.65625 C 30.625 36.363281 32.332031 35.941406 33.105469 34.71875 L 33.359375 34.3125 C 33.425781 33.828125 33.824219 33.195312 34.246094 32.902344 L 34.5 32.496094 C 35.273438 31.269531 34.8125 29.703125 33.480469 28.996094 Z M 33.480469 28.996094 "/>
  </g>
</svg>