<?xml version="1.0" encoding="UTF-8" standalone="yes"?>
<svg xmlns="http://www.w3.org/2000/svg" xmlns:xlink="http://www.w3.org/1999/xlink" width="48px" height="48px" viewBox="0 0 36 36" version="1.1">
  <g id="surface1">
    <path style=" stroke:none;fill-rule:nonzero;fill:rgb(100%,86.666667%,40.392157%);fill-opacity:1;" d="M 17.867188 15.242188 C 17.867188 15.242188 15.417969 15.730469 17.445312 11.519531 C 18.910156 8.472656 18.765625 4.933594 17.445312 3.054688 C 15.332031 0.0507812 11.21875 1.035156 11.644531 2.761719 C 13.109375 8.695312 9.796875 10.460938 8.085938 14.207031 C 6.347656 18 6.539062 23.386719 7.335938 28.183594 C 7.835938 31.179688 9.101562 34.875 13.777344 34.875 L 20.238281 34.875 Z M 17.867188 15.242188 "/>
    <path style=" stroke:none;fill-rule:nonzero;fill:rgb(92.156863%,63.921569%,32.156863%);fill-opacity:1;" d="M 14.484375 34.039062 C 9.808594 34.039062 8.785156 30.347656 8.285156 27.347656 C 7.488281 22.554688 7.359375 18.726562 8.894531 14.851562 C 10.566406 10.632812 12.324219 10.507812 12.324219 2.171875 C 12.324219 1.753906 12.546875 1.476562 12.769531 1.292969 C 11.980469 1.558594 11.542969 2.019531 11.542969 2.695312 C 11.542969 8.933594 9.796875 10.460938 8.085938 14.207031 C 6.347656 18 6.539062 23.386719 7.335938 28.183594 C 7.835938 31.179688 9.101562 34.875 13.777344 34.875 L 20.238281 34.875 L 20.238281 34.039062 Z M 14.484375 34.039062 "/>
    <path style=" stroke:none;fill-rule:nonzero;fill:rgb(100%,86.666667%,40.392157%);fill-opacity:1;" d="M 25.875 20.148438 L 17.867188 20.148438 C 15.074219 20.148438 15.074219 15.242188 17.867188 15.242188 L 25.875 15.242188 C 28.667969 15.242188 28.667969 20.148438 25.875 20.148438 Z M 25.875 20.148438 "/>
    <path style=" stroke:none;fill-rule:nonzero;fill:rgb(92.156863%,63.921569%,32.156863%);fill-opacity:1;" d="M 26.496094 19.332031 L 18.488281 19.332031 C 16.605469 19.332031 15.996094 17.101562 16.65625 15.648438 C 15.164062 16.816406 15.5625 20.148438 17.863281 20.148438 L 25.871094 20.148438 C 26.777344 20.148438 27.386719 19.625 27.703125 18.925781 C 27.386719 19.175781 26.984375 19.332031 26.496094 19.332031 Z M 26.496094 19.332031 "/>
    <path style=" stroke:none;fill-rule:nonzero;fill:rgb(100%,86.666667%,40.392157%);fill-opacity:1;" d="M 26.738281 25.074219 L 17.128906 25.074219 C 13.78125 25.074219 13.78125 20.167969 17.128906 20.167969 L 26.738281 20.167969 C 30.085938 20.167969 30.085938 25.074219 26.738281 25.074219 Z M 26.738281 25.074219 "/>
    <path style=" stroke:none;fill-rule:nonzero;fill:rgb(92.156863%,63.921569%,32.156863%);fill-opacity:1;" d="M 27.480469 24.257812 L 17.875 24.257812 C 15.613281 24.257812 14.886719 22.027344 15.675781 20.574219 C 13.882812 21.746094 14.363281 25.074219 17.125 25.074219 L 26.730469 25.074219 C 27.824219 25.074219 28.550781 24.550781 28.933594 23.851562 C 28.550781 24.101562 28.070312 24.257812 27.480469 24.257812 Z M 27.480469 24.257812 "/>
    <path style=" stroke:none;fill-rule:nonzero;fill:rgb(100%,86.666667%,40.392157%);fill-opacity:1;" d="M 25.835938 29.980469 L 17.714844 29.980469 C 14.882812 29.980469 14.882812 25.074219 17.714844 25.074219 L 25.835938 25.074219 C 28.667969 25.074219 28.667969 29.980469 25.835938 29.980469 Z M 25.835938 29.980469 "/>
    <path style=" stroke:none;fill-rule:nonzero;fill:rgb(92.156863%,63.921569%,32.156863%);fill-opacity:1;" d="M 26.464844 29.164062 L 18.347656 29.164062 C 16.433594 29.164062 15.820312 26.933594 16.484375 25.480469 C 14.972656 26.652344 15.375 29.980469 17.710938 29.980469 L 25.832031 29.980469 C 26.753906 29.980469 27.371094 29.457031 27.691406 28.757812 C 27.371094 29.007812 26.964844 29.164062 26.464844 29.164062 Z M 26.464844 29.164062 "/>
    <path style=" stroke:none;fill-rule:nonzero;fill:rgb(100%,86.666667%,40.392157%);fill-opacity:1;" d="M 24.964844 34.875 L 19.714844 34.875 C 16.6875 34.875 16.6875 29.96875 19.714844 29.96875 L 24.964844 29.96875 C 27.996094 29.96875 27.996094 34.875 24.964844 34.875 Z M 24.964844 34.875 "/>
    <path style=" stroke:none;fill-rule:nonzero;fill:rgb(92.156863%,63.921569%,32.156863%);fill-opacity:1;" d="M 25.640625 34.0625 L 20.390625 34.0625 C 18.347656 34.0625 17.6875 31.828125 18.402344 30.375 C 16.78125 31.546875 17.214844 34.875 19.710938 34.875 L 24.960938 34.875 C 25.945312 34.875 26.605469 34.351562 26.949219 33.652344 C 26.605469 33.902344 26.171875 34.0625 25.640625 34.0625 Z M 25.640625 34.0625 "/>
  </g>
</svg>