<?xml version="1.0" encoding="UTF-8" standalone="yes"?>
<svg xmlns="http://www.w3.org/2000/svg" xmlns:xlink="http://www.w3.org/1999/xlink" width="48px" height="48px" viewBox="0 0 36 36" version="1.1">
  <g id="surface1">
    <path style=" stroke:none;fill-rule:nonzero;fill:rgb(100%,86.666667%,40.392157%);fill-opacity:1;" d="M 5.808594 5.570312 C 4.574219 5.570312 3.617188 6.585938 3.617188 7.832031 L 3.617188 24.371094 L 8 24.371094 L 8 7.832031 C 8 6.585938 7.042969 5.570312 5.808594 5.570312 Z M 17.605469 24.371094 L 22.269531 24.371094 L 22.269531 5.507812 C 22.269531 4.242188 21.226562 3.191406 19.945312 3.191406 L 19.933594 3.191406 C 18.648438 3.191406 17.605469 4.242188 17.605469 5.546875 Z M 17.605469 24.371094 "/>
    <path style=" stroke:none;fill-rule:nonzero;fill:rgb(92.156863%,63.921569%,32.156863%);fill-opacity:1;" d="M 19.945312 3.191406 L 19.933594 3.191406 C 19.792969 3.191406 19.65625 3.207031 19.523438 3.230469 C 20.613281 3.425781 21.441406 4.382812 21.441406 5.507812 L 21.441406 24.371094 L 22.269531 24.371094 L 22.269531 5.507812 C 22.269531 4.242188 21.226562 3.191406 19.945312 3.191406 Z M 19.945312 3.191406 "/>
    <path style=" stroke:none;fill-rule:nonzero;fill:rgb(100%,86.666667%,40.392157%);fill-opacity:1;" d="M 8 24.371094 L 12.800781 24.371094 L 12.800781 5.121094 C 12.800781 3.777344 11.726562 2.6875 10.402344 2.6875 L 10.394531 2.6875 C 9.070312 2.6875 8 3.777344 8 5.121094 Z M 8 24.371094 "/>
    <path style=" stroke:none;fill-rule:nonzero;fill:rgb(92.156863%,63.921569%,32.156863%);fill-opacity:1;" d="M 10.402344 2.6875 L 10.394531 2.6875 C 10.257812 2.6875 10.121094 2.703125 9.984375 2.730469 C 11.113281 2.929688 11.972656 3.921875 11.972656 5.121094 L 11.972656 17.101562 L 12.800781 18.308594 L 12.800781 5.121094 C 12.800781 3.777344 11.726562 2.6875 10.402344 2.6875 Z M 10.402344 2.6875 "/>
    <path style=" stroke:none;fill-rule:nonzero;fill:rgb(100%,86.666667%,40.392157%);fill-opacity:1;" d="M 12.800781 22.808594 L 17.605469 22.808594 L 17.605469 3.558594 C 17.605469 2.214844 16.53125 1.125 15.207031 1.125 L 15.199219 1.125 C 13.875 1.125 12.800781 2.214844 12.800781 3.558594 Z M 12.800781 22.808594 "/>
    <path style=" stroke:none;fill-rule:nonzero;fill:rgb(92.156863%,63.921569%,32.156863%);fill-opacity:1;" d="M 15.207031 1.125 L 15.199219 1.125 C 15.058594 1.125 14.921875 1.140625 14.789062 1.167969 C 15.917969 1.367188 16.777344 2.355469 16.777344 3.558594 L 16.777344 17.101562 L 17.605469 18.308594 L 17.605469 3.558594 C 17.605469 2.214844 16.53125 1.125 15.207031 1.125 Z M 5.808594 5.570312 C 5.664062 5.570312 5.527344 5.589844 5.394531 5.613281 C 6.417969 5.8125 7.167969 6.730469 7.167969 7.832031 L 7.167969 17.664062 L 8 18.871094 L 8 7.832031 C 8 6.585938 7.042969 5.570312 5.808594 5.570312 Z M 5.808594 5.570312 "/>
    <path style=" stroke:none;fill-rule:nonzero;fill:rgb(100%,86.666667%,40.392157%);fill-opacity:1;" d="M 32.433594 16.460938 C 31.558594 14.738281 28.738281 14.824219 25.859375 17.984375 C 23.851562 20.195312 23.421875 20.882812 21.40625 20.882812 L 21.40625 18.566406 C 21.40625 18.566406 3.574219 18.644531 3.574219 20.046875 C 3.574219 20.046875 2.742188 26.292969 4.472656 30.21875 C 7.050781 36.066406 19.230469 36.941406 24.34375 27.4375 C 27.359375 21.832031 33.394531 18.351562 32.433594 16.460938 Z M 32.433594 16.460938 "/>
    <path style=" stroke:none;fill-rule:nonzero;fill:rgb(92.156863%,63.921569%,32.156863%);fill-opacity:1;" d="M 32.433594 16.460938 C 32.277344 16.144531 32.035156 15.875 31.738281 15.683594 C 31.785156 15.753906 31.832031 15.824219 31.871094 15.902344 C 32.832031 17.792969 29.964844 19.78125 27.914062 21.792969 C 26.257812 23.414062 24.722656 25.117188 23.894531 27.097656 C 20.273438 35.722656 9.851562 35.722656 5.460938 31.753906 C 9.449219 36.265625 20.671875 36.675781 24.457031 27.65625 C 25.285156 25.675781 26.75 24.0625 28.476562 22.351562 C 30.515625 20.328125 33.394531 18.351562 32.433594 16.460938 Z M 32.433594 16.460938 "/>
    <path style=" stroke:none;fill-rule:nonzero;fill:rgb(92.156863%,63.921569%,32.156863%);fill-opacity:1;" d="M 22.015625 20.855469 C 18.699219 19.699219 11.84375 21.996094 12.746094 28.542969 C 12.746094 22.410156 18.296875 20.882812 21.351562 20.882812 C 21.714844 20.882812 22.015625 20.855469 22.015625 20.855469 Z M 22.015625 20.855469 "/>
  </g>
</svg>