<?xml version="1.0" encoding="UTF-8" standalone="yes"?>
<svg xmlns="http://www.w3.org/2000/svg" xmlns:xlink="http://www.w3.org/1999/xlink" width="48px" height="48px" viewBox="0 0 36 36" version="1.1">
  <g id="surface1">
    <path style=" stroke:none;fill-rule:nonzero;fill:rgb(25.882353%,67.843137%,88.627451%);fill-opacity:1;" d="M 9.046875 27.265625 C 8.78125 27.210938 8.519531 27.132812 8.265625 27.042969 C 7.492188 26.773438 6.761719 26.390625 6.101562 25.90625 C 5.199219 25.253906 4.449219 24.417969 3.890625 23.453125 C 3.335938 22.488281 3.007812 21.410156 2.929688 20.300781 C 2.890625 19.757812 2.910156 19.210938 2.988281 18.671875 C 3.027344 18.40625 3.082031 18.140625 3.152344 17.882812 C 3.21875 17.625 3.300781 17.367188 3.402344 17.121094 L 3.472656 17.910156 C 3.496094 18.167969 3.527344 18.425781 3.558594 18.679688 C 3.628906 19.183594 3.714844 19.683594 3.832031 20.164062 C 4.070312 21.132812 4.417969 22.042969 4.902344 22.890625 C 5.382812 23.734375 5.996094 24.511719 6.699219 25.230469 C 7.050781 25.589844 7.425781 25.933594 7.820312 26.269531 C 8.015625 26.4375 8.21875 26.601562 8.421875 26.769531 Z M 8.886719 29.308594 C 8.695312 29.394531 8.496094 29.464844 8.296875 29.519531 C 8.09375 29.578125 7.886719 29.621094 7.679688 29.652344 C 7.261719 29.722656 6.835938 29.742188 6.414062 29.722656 C 5.542969 29.679688 4.695312 29.441406 3.929688 29.027344 C 3.160156 28.613281 2.503906 28.023438 2.007812 27.308594 C 1.769531 26.960938 1.570312 26.585938 1.414062 26.191406 C 1.34375 25.996094 1.277344 25.796875 1.226562 25.59375 C 1.179688 25.394531 1.144531 25.1875 1.125 24.980469 C 1.265625 25.136719 1.398438 25.292969 1.53125 25.441406 C 1.664062 25.59375 1.792969 25.742188 1.925781 25.886719 C 2.191406 26.171875 2.460938 26.445312 2.734375 26.699219 C 3.273438 27.195312 3.871094 27.625 4.511719 27.976562 C 5.152344 28.324219 5.835938 28.585938 6.566406 28.796875 C 6.929688 28.898438 7.304688 28.988281 7.691406 29.070312 C 7.886719 29.109375 8.082031 29.148438 8.28125 29.1875 C 8.480469 29.226562 8.679688 29.261719 8.886719 29.308594 Z M 21.574219 1.976562 C 21.84375 2.046875 22.105469 2.136719 22.367188 2.242188 C 23.140625 2.554688 23.867188 2.980469 24.523438 3.5 C 25.398438 4.199219 26.144531 5.082031 26.660156 6.085938 C 27.425781 7.574219 27.65625 9.285156 27.308594 10.925781 C 27.253906 11.191406 27.183594 11.453125 27.097656 11.707031 C 27.015625 11.964844 26.914062 12.214844 26.796875 12.460938 L 26.769531 11.664062 C 26.757812 11.40625 26.742188 11.144531 26.71875 10.886719 C 26.683594 10.382812 26.621094 9.882812 26.527344 9.382812 C 26.339844 8.402344 26.03125 7.46875 25.582031 6.59375 C 25.136719 5.71875 24.550781 4.910156 23.871094 4.148438 C 23.523438 3.765625 23.15625 3.398438 22.777344 3.046875 C 22.585938 2.867188 22.386719 2.6875 22.1875 2.511719 Z M 26.503906 1.71875 C 26.703125 1.773438 26.898438 1.847656 27.085938 1.929688 C 27.273438 2.011719 27.457031 2.109375 27.636719 2.210938 C 27.996094 2.417969 28.328125 2.667969 28.632812 2.945312 C 29.253906 3.511719 29.742188 4.210938 30.050781 4.992188 C 30.359375 5.769531 30.472656 6.609375 30.378906 7.441406 C 30.335938 7.847656 30.238281 8.242188 30.097656 8.625 C 30.027344 8.816406 29.945312 9 29.851562 9.179688 C 29.761719 9.359375 29.65625 9.53125 29.535156 9.691406 C 29.527344 9.492188 29.53125 9.296875 29.527344 9.101562 C 29.523438 8.910156 29.523438 8.71875 29.515625 8.53125 C 29.507812 8.167969 29.480469 7.800781 29.4375 7.4375 C 29.355469 6.742188 29.183594 6.054688 28.929688 5.402344 C 28.675781 4.753906 28.332031 4.136719 27.917969 3.53125 C 27.707031 3.222656 27.480469 2.925781 27.25 2.632812 C 27.128906 2.480469 27.007812 2.332031 26.882812 2.183594 C 26.757812 2.03125 26.628906 1.878906 26.503906 1.71875 Z M 26.503906 1.71875 "/>
    <path style=" stroke:none;fill-rule:nonzero;fill:rgb(100%,86.666667%,40.392157%);fill-opacity:1;" d="M 5.632812 10.101562 C 4.523438 10.628906 4.101562 11.941406 4.636719 13.0625 L 11.726562 27.878906 L 15.65625 26.003906 L 8.566406 11.1875 C 8.03125 10.066406 6.738281 9.570312 5.632812 10.101562 Z M 24.269531 21.886719 L 28.453125 19.890625 L 20.367188 2.992188 C 19.824219 1.859375 18.4375 1.363281 17.289062 1.910156 L 17.277344 1.917969 C 16.125 2.46875 15.640625 3.855469 16.199219 5.023438 Z M 24.269531 21.886719 "/>
    <path style=" stroke:none;fill-rule:nonzero;fill:rgb(92.156863%,63.921569%,32.156863%);fill-opacity:1;" d="M 17.289062 1.910156 L 17.277344 1.917969 C 17.152344 1.976562 17.039062 2.046875 16.929688 2.128906 C 17.988281 1.839844 19.136719 2.339844 19.621094 3.347656 L 27.707031 20.246094 L 28.453125 19.890625 L 20.367188 2.992188 C 19.824219 1.859375 18.4375 1.359375 17.289062 1.910156 Z M 17.289062 1.910156 "/>
    <path style=" stroke:none;fill-rule:nonzero;fill:rgb(100%,86.666667%,40.392157%);fill-opacity:1;" d="M 15.65625 26.003906 L 19.960938 23.945312 L 11.710938 6.703125 C 11.132812 5.496094 9.703125 4.980469 8.515625 5.546875 L 8.507812 5.550781 C 7.320312 6.117188 6.828125 7.554688 7.402344 8.757812 Z M 15.65625 26.003906 "/>
    <path style=" stroke:none;fill-rule:nonzero;fill:rgb(92.156863%,63.921569%,32.156863%);fill-opacity:1;" d="M 8.515625 5.546875 L 8.507812 5.550781 C 8.382812 5.609375 8.269531 5.683594 8.160156 5.765625 C 9.285156 5.457031 10.464844 6.003906 10.964844 7.054688 L 16.101562 17.785156 L 17.363281 18.515625 L 11.710938 6.703125 C 11.132812 5.496094 9.703125 4.980469 8.515625 5.546875 Z M 8.515625 5.546875 "/>
    <path style=" stroke:none;fill-rule:nonzero;fill:rgb(100%,86.666667%,40.392157%);fill-opacity:1;" d="M 19.292969 22.546875 L 23.601562 20.488281 L 15.347656 3.242188 C 14.773438 2.039062 13.34375 1.523438 12.15625 2.089844 L 12.148438 2.09375 C 10.960938 2.660156 10.464844 4.097656 11.039062 5.300781 Z M 19.292969 22.546875 "/>
    <path style=" stroke:none;fill-rule:nonzero;fill:rgb(92.156863%,63.921569%,32.156863%);fill-opacity:1;" d="M 12.15625 2.089844 L 12.148438 2.09375 C 12.019531 2.152344 11.90625 2.226562 11.796875 2.308594 C 12.894531 2 14.089844 2.523438 14.605469 3.597656 L 20.410156 15.730469 L 21.671875 16.457031 L 15.347656 3.242188 C 14.773438 2.039062 13.34375 1.523438 12.15625 2.089844 Z M 5.632812 10.101562 C 5.507812 10.160156 5.386719 10.230469 5.277344 10.3125 C 6.285156 10.054688 7.347656 10.554688 7.820312 11.542969 L 12.035156 20.351562 L 13.296875 21.074219 L 8.566406 11.1875 C 8.03125 10.066406 6.738281 9.570312 5.632812 10.101562 Z M 5.632812 10.101562 "/>
    <path style=" stroke:none;fill-rule:nonzero;fill:rgb(100%,86.666667%,40.392157%);fill-opacity:1;" d="M 34.179688 8.449219 C 32.652344 7.28125 30.160156 8.566406 28.933594 12.632812 C 28.078125 15.472656 27.992188 16.273438 26.183594 17.136719 L 25.1875 15.058594 C 25.1875 15.058594 9.230469 22.765625 9.835938 24.023438 C 9.835938 24.023438 11.765625 29.972656 15 32.75 C 19.816406 36.886719 31.117188 32.453125 31.628906 21.75 C 31.929688 15.4375 35.847656 9.734375 34.179688 8.449219 Z M 34.179688 8.449219 "/>
    <path style=" stroke:none;fill-rule:nonzero;fill:rgb(92.156863%,63.921569%,32.156863%);fill-opacity:1;" d="M 34.179688 8.449219 C 33.898438 8.234375 33.570312 8.097656 33.21875 8.054688 C 33.292969 8.097656 33.367188 8.136719 33.433594 8.191406 C 35.105469 9.476562 33.386719 12.480469 32.410156 15.164062 C 31.621094 17.324219 30.972656 19.507812 31.078125 21.636719 C 31.53125 30.914062 22.179688 35.375 16.542969 33.703125 C 22.054688 36.035156 32.292969 31.59375 31.824219 21.894531 C 31.71875 19.769531 32.339844 17.695312 33.152344 15.425781 C 34.113281 12.734375 35.847656 9.734375 34.179688 8.449219 Z M 34.179688 8.449219 "/>
    <path style=" stroke:none;fill-rule:nonzero;fill:rgb(92.156863%,63.921569%,32.156863%);fill-opacity:1;" d="M 26.71875 16.851562 C 23.246094 17.234375 18.085938 22.226562 21.699219 27.703125 C 19.070312 22.214844 23.394531 18.464844 26.132812 17.160156 C 26.460938 17 26.71875 16.851562 26.71875 16.851562 Z M 26.71875 16.851562 "/>
  </g>
</svg>