<?xml version="1.0" encoding="UTF-8" standalone="yes"?>
<svg xmlns="http://www.w3.org/2000/svg" xmlns:xlink="http://www.w3.org/1999/xlink" width="48px" height="48px" viewBox="0 0 36 36" version="1.1">
  <g id="surface1">
    <path style=" stroke:none;fill-rule:nonzero;fill:rgb(100%,86.666667%,40.392157%);fill-opacity:1;" d="M 27.726562 19.359375 C 27.726562 19.359375 29.382812 27.03125 27.128906 30.761719 C 23.769531 36.3125 11.714844 37.320312 8.457031 26.960938 C 8.109375 25.855469 13.191406 16.953125 13.191406 16.953125 Z M 27.726562 19.359375 "/>
    <path style=" stroke:none;fill-rule:nonzero;fill:rgb(100%,86.666667%,40.392157%);fill-opacity:1;" d="M 19.761719 17.027344 C 20.324219 18.175781 19.773438 19.546875 18.535156 20.085938 L 18.515625 20.09375 C 17.277344 20.632812 15.816406 20.136719 15.253906 18.988281 L 7.539062 4.414062 C 6.976562 3.261719 7.527344 1.890625 8.769531 1.351562 L 8.789062 1.34375 C 10.027344 0.804688 11.484375 1.296875 12.046875 2.449219 Z M 19.761719 17.027344 "/>
    <path style=" stroke:none;fill-rule:nonzero;fill:rgb(92.156863%,63.921569%,32.156863%);fill-opacity:1;" d="M 19.3125 19.175781 L 19.292969 19.183594 C 18.054688 19.722656 16.59375 19.207031 16.035156 18.058594 L 8.320312 3.480469 C 8.023438 2.882812 8.027344 2.179688 8.320312 1.582031 C 7.398438 2.222656 7.042969 3.390625 7.53125 4.394531 L 15.246094 18.972656 C 15.808594 20.125 17.269531 20.636719 18.507812 20.097656 L 18.527344 20.089844 C 19.09375 19.84375 19.515625 19.421875 19.75 18.929688 C 19.613281 19.027344 19.46875 19.109375 19.3125 19.175781 Z M 19.3125 19.175781 "/>
    <path style=" stroke:none;fill-rule:nonzero;fill:rgb(92.156863%,63.921569%,32.156863%);fill-opacity:1;" d="M 16.410156 15.757812 C 16.449219 17.109375 17.320312 17.734375 20.625 16.886719 L 21.054688 18.566406 L 12.042969 18.699219 L 16.761719 11.355469 Z M 16.410156 15.757812 "/>
    <path style=" stroke:none;fill-rule:nonzero;fill:rgb(100%,86.666667%,40.392157%);fill-opacity:1;" d="M 13.667969 22.179688 C 13.316406 23.488281 11.890625 24.273438 10.488281 23.933594 L 10.464844 23.929688 C 9.0625 23.59375 8.207031 22.257812 8.558594 20.953125 L 13.585938 4.554688 C 13.9375 3.246094 15.023438 2.464844 16.425781 2.800781 L 16.449219 2.808594 C 17.851562 3.144531 18.703125 4.476562 18.351562 5.78125 Z M 13.667969 22.179688 "/>
    <path style=" stroke:none;fill-rule:nonzero;fill:rgb(92.156863%,63.921569%,32.156863%);fill-opacity:1;" d="M 11.777344 23.675781 L 11.75 23.667969 C 10.347656 23.332031 9.507812 21.984375 9.859375 20.675781 L 14.546875 4.28125 C 14.738281 3.570312 15.246094 3.015625 15.894531 2.710938 C 14.679688 2.65625 13.558594 3.398438 13.25 4.539062 L 8.5625 20.9375 C 8.210938 22.242188 9.054688 23.589844 10.457031 23.925781 L 10.480469 23.933594 C 11.09375 24.082031 11.738281 24.019531 12.3125 23.75 C 12.132812 23.742188 11.953125 23.71875 11.777344 23.675781 Z M 11.777344 23.675781 "/>
    <path style=" stroke:none;fill-rule:nonzero;fill:rgb(100%,86.666667%,40.392157%);fill-opacity:1;" d="M 28.683594 17.769531 C 28.761719 16.5 27.84375 15.386719 26.628906 15.285156 L 26.589844 15.28125 C 25.378906 15.179688 24.328125 16.125 24.25 17.398438 L 24.027344 20.949219 C 23.949219 22.21875 24.867188 23.332031 26.082031 23.433594 L 26.117188 23.4375 C 27.332031 23.539062 28.378906 22.589844 28.460938 21.320312 Z M 28.683594 17.769531 "/>
    <path style=" stroke:none;fill-rule:nonzero;fill:rgb(92.156863%,63.921569%,32.156863%);fill-opacity:1;" d="M 26.796875 22.636719 L 26.765625 22.632812 C 25.550781 22.53125 24.660156 21.4375 24.742188 20.167969 L 24.960938 16.613281 C 24.984375 16.28125 25.074219 15.960938 25.226562 15.667969 C 24.675781 16.042969 24.296875 16.675781 24.25 17.421875 L 24.027344 20.980469 C 23.945312 22.246094 24.835938 23.328125 26.050781 23.429688 L 26.078125 23.429688 C 26.964844 23.507812 27.761719 23.027344 28.160156 22.269531 C 27.761719 22.542969 27.277344 22.671875 26.796875 22.636719 Z M 26.796875 22.636719 "/>
    <path style=" stroke:none;fill-rule:nonzero;fill:rgb(100%,86.666667%,40.392157%);fill-opacity:1;" d="M 24.648438 15.152344 C 24.765625 13.601562 23.695312 12.273438 22.253906 12.179688 L 22.214844 12.175781 C 20.773438 12.082031 19.507812 13.265625 19.386719 14.8125 L 19.054688 19.148438 C 18.933594 20.699219 20.003906 22.03125 21.445312 22.125 L 21.488281 22.128906 C 22.929688 22.222656 24.191406 21.039062 24.3125 19.488281 Z M 24.648438 15.152344 "/>
    <path style=" stroke:none;fill-rule:nonzero;fill:rgb(92.156863%,63.921569%,32.156863%);fill-opacity:1;" d="M 22.320312 21.136719 L 22.289062 21.132812 C 20.847656 21.042969 19.796875 19.75 19.917969 18.199219 L 20.253906 13.859375 C 20.285156 13.453125 20.394531 13.0625 20.582031 12.703125 C 19.917969 13.171875 19.453125 13.957031 19.382812 14.867188 L 18.851562 19.234375 C 18.730469 20.78125 19.980469 22.03125 21.417969 22.125 L 21.453125 22.125 C 22.503906 22.195312 23.460938 21.589844 23.949219 20.652344 C 23.484375 20.984375 22.914062 21.175781 22.320312 21.136719 Z M 22.320312 21.136719 "/>
    <path style=" stroke:none;fill-rule:nonzero;fill:rgb(92.156863%,63.921569%,32.156863%);fill-opacity:1;" d="M 14.695312 17.527344 C 16.675781 16.390625 17.074219 18.183594 20.441406 18.277344 C 21.914062 18.320312 22.570312 21.257812 20.335938 22.324219 C 17.230469 23.804688 16.988281 21.707031 16.230469 22.523438 C 15.421875 23.394531 14.667969 23.5625 13.988281 24.570312 C 13.492188 25.300781 9.636719 24.171875 9.230469 22.671875 C 8.449219 19.796875 11.554688 19.328125 14.695312 17.527344 Z M 14.695312 17.527344 "/>
    <path style=" stroke:none;fill-rule:nonzero;fill:rgb(100%,86.666667%,40.392157%);fill-opacity:1;" d="M 14.441406 18.027344 C 16.5 16.847656 16.910156 18.710938 20.417969 18.808594 C 21.949219 18.851562 22.632812 21.910156 20.308594 23.015625 C 17.074219 24.554688 16.824219 22.375 16.035156 23.226562 C 15.199219 24.128906 14.410156 24.308594 13.703125 25.351562 C 13.191406 26.113281 14.558594 28.984375 14.558594 28.984375 C 14.558594 28.984375 10.59375 31.675781 9.785156 30.144531 C 8.285156 27.296875 8.710938 25.054688 8.757812 23.382812 C 8.867188 19.527344 11.167969 19.902344 14.441406 18.027344 Z M 14.441406 18.027344 "/>
    <path style=" stroke:none;fill-rule:nonzero;fill:rgb(92.156863%,63.921569%,32.156863%);fill-opacity:1;" d="M 10.460938 19.941406 C 8.261719 20.910156 8.367188 26.398438 10.003906 29.046875 C 14.085938 35.621094 21.984375 35.4375 26.222656 31.917969 C 22.296875 35.957031 13.8125 36.429688 9.382812 29.613281 C 7.605469 26.886719 7.054688 20.632812 10.460938 19.941406 Z M 10.460938 19.941406 "/>
    <path style=" stroke:none;fill-rule:nonzero;fill:rgb(92.156863%,63.921569%,32.156863%);fill-opacity:1;" d="M 14.152344 25.429688 C 13.996094 25.664062 14.015625 26.101562 14.121094 26.59375 C 13.882812 25.84375 13.726562 25.066406 13.960938 24.71875 C 14.667969 23.671875 15.066406 23.457031 15.902344 22.554688 C 16.691406 21.703125 16.945312 23.882812 20.175781 22.34375 C 21.371094 21.773438 21.769531 20.691406 21.664062 19.765625 C 22.121094 20.765625 21.890625 22.328125 20.367188 23.054688 C 17.136719 24.59375 16.882812 22.414062 16.097656 23.265625 C 15.257812 24.167969 14.859375 24.382812 14.152344 25.429688 Z M 14.152344 25.429688 "/>
    <path style=" stroke:none;fill-rule:nonzero;fill:rgb(92.156863%,63.921569%,32.156863%);fill-opacity:1;" d="M 21.808594 30.144531 C 21.808594 26.496094 18.984375 23.507812 15.386719 23.203125 C 15.835938 23.082031 16.296875 23.019531 16.757812 23.019531 C 19.835938 23.019531 22.332031 25.496094 22.332031 28.550781 C 22.332031 29.402344 22.132812 30.242188 21.75 31.003906 C 21.785156 30.71875 21.808594 30.433594 21.808594 30.144531 Z M 21.808594 30.144531 "/>
    <path style=" stroke:none;fill-rule:nonzero;fill:rgb(92.156863%,63.921569%,32.156863%);fill-opacity:1;" d="M 22.910156 23.308594 C 23.488281 23.152344 24.105469 23.199219 24.65625 23.433594 C 24.421875 23.445312 24.191406 23.480469 23.964844 23.539062 C 22.21875 24.003906 21.132812 25.75 21.496094 27.523438 C 21.273438 27.242188 21.109375 26.921875 21.015625 26.582031 C 20.628906 25.15625 21.476562 23.691406 22.910156 23.308594 Z M 22.910156 23.308594 "/>
  </g>
</svg>