<?xml version="1.0" encoding="UTF-8" standalone="yes"?>
<svg xmlns="http://www.w3.org/2000/svg" xmlns:xlink="http://www.w3.org/1999/xlink" width="48px" height="48px" viewBox="0 0 36 36" version="1.1">
  <g id="surface1">
    <path style=" stroke:none;fill-rule:nonzero;fill:rgb(100%,78.823529%,36.078431%);fill-opacity:1;" d="M 12.027344 16.316406 C 9.867188 24.574219 8.914062 31.917969 13.597656 31.917969 C 18.523438 31.917969 18.070312 24.582031 18.070312 16.191406 C 18.070312 7.804688 18.289062 1.125 15.726562 1.125 C 12.972656 1.125 14.136719 8.261719 12.027344 16.316406 Z M 12.027344 16.316406 "/>
    <path style=" stroke:none;fill-rule:nonzero;fill:rgb(92.156863%,63.921569%,32.156863%);fill-opacity:1;" d="M 12.101562 26.609375 C 17.503906 26.609375 17.644531 23.953125 17.644531 15.5625 C 17.644531 9.019531 17.808594 3.53125 16.5625 1.429688 C 18.398438 2.824219 18.167969 8.835938 18.167969 16.175781 C 18.167969 24.566406 20.128906 31.917969 14.722656 31.917969 C 13.539062 31.917969 11.25 26.609375 12.101562 26.609375 Z M 12.101562 26.609375 "/>
    <path style=" stroke:none;fill-rule:nonzero;fill:rgb(100%,78.823529%,36.078431%);fill-opacity:1;" d="M 20.273438 1.125 C 17.707031 1.125 17.929688 7.804688 17.929688 16.191406 C 17.929688 24.582031 17.476562 31.917969 22.402344 31.917969 C 27.085938 31.917969 26.132812 24.574219 23.96875 16.316406 C 21.859375 8.261719 23.027344 1.125 20.273438 1.125 Z M 20.273438 1.125 "/>
    <path style=" stroke:none;fill-rule:nonzero;fill:rgb(92.156863%,63.921569%,32.156863%);fill-opacity:1;" d="M 21.277344 31.917969 C 15.871094 31.917969 17.832031 24.566406 17.832031 16.175781 C 17.832031 8.835938 17.601562 2.824219 19.433594 1.429688 C 18.191406 3.53125 18.355469 9.019531 18.355469 15.5625 C 18.355469 23.953125 18.496094 26.609375 23.898438 26.609375 C 24.75 26.609375 22.457031 31.917969 21.277344 31.917969 Z M 21.277344 31.917969 "/>
    <path style=" stroke:none;fill-rule:nonzero;fill:rgb(100%,78.823529%,36.078431%);fill-opacity:1;" d="M 7.371094 26.847656 L 11.636719 34.289062 L 16.476562 31.78125 L 10.660156 22.492188 C 10.660156 22.492188 9.21875 26.125 7.371094 26.847656 Z M 7.371094 26.847656 "/>
    <path style=" stroke:none;fill-rule:nonzero;fill:rgb(100%,86.666667%,40.392157%);fill-opacity:1;" d="M 11.765625 21.480469 C 11.203125 22.40625 10.976562 26.46875 8.34375 27.574219 L 11.417969 33.851562 C 11.417969 33.851562 14.828125 33.003906 16.195312 32.167969 C 19.960938 29.859375 15.667969 27.082031 17.867188 21.980469 C 19.097656 19.125 16.847656 12.355469 14.15625 12.355469 C 11.460938 12.355469 12.714844 16.230469 12.453125 17.238281 C 12.132812 18.472656 12.261719 19.957031 11.765625 21.480469 Z M 11.765625 21.480469 "/>
    <path style=" stroke:none;fill-rule:nonzero;fill:rgb(92.156863%,63.921569%,32.156863%);fill-opacity:1;" d="M 16.046875 31.710938 C 19.8125 29.402344 15.144531 26.667969 17.34375 21.5625 C 18.328125 19.285156 17.089844 14.519531 15.183594 12.683594 C 17.375 14.066406 19.066406 19.394531 17.921875 21.992188 C 15.683594 27.074219 20.453125 29.734375 16.570312 32.128906 C 16.28125 32.304688 14.160156 33.234375 11.65625 34.328125 L 11.285156 33.582031 C 13.996094 32.820312 15.824219 31.847656 16.046875 31.710938 Z M 16.046875 31.710938 "/>
    <path style=" stroke:none;fill-rule:nonzero;fill:rgb(100%,78.823529%,36.078431%);fill-opacity:1;" d="M 25.339844 22.492188 L 19.519531 31.78125 L 24.363281 34.289062 L 28.625 26.847656 C 26.78125 26.125 25.339844 22.492188 25.339844 22.492188 Z M 25.339844 22.492188 "/>
    <path style=" stroke:none;fill-rule:nonzero;fill:rgb(100%,86.666667%,40.392157%);fill-opacity:1;" d="M 23.546875 17.238281 C 23.285156 16.230469 24.539062 12.355469 21.84375 12.355469 C 19.152344 12.355469 16.902344 19.125 18.128906 21.980469 C 20.332031 27.082031 16.039062 29.855469 19.804688 32.164062 C 21.171875 33.003906 24.582031 33.851562 24.582031 33.851562 L 27.65625 27.574219 C 25.023438 26.464844 24.796875 22.40625 24.234375 21.480469 C 23.738281 19.957031 23.867188 18.472656 23.546875 17.238281 Z M 23.546875 17.238281 "/>
    <path style=" stroke:none;fill-rule:nonzero;fill:rgb(92.156863%,63.921569%,32.156863%);fill-opacity:1;" d="M 24.714844 33.582031 L 24.339844 34.328125 C 21.839844 33.234375 19.71875 32.304688 19.429688 32.128906 C 15.546875 29.734375 20.316406 27.074219 18.078125 21.992188 C 16.933594 19.394531 18.625 14.066406 20.816406 12.683594 C 18.910156 14.519531 17.671875 19.285156 18.65625 21.5625 C 20.855469 26.667969 16.1875 29.402344 19.953125 31.710938 C 20.175781 31.847656 22.003906 32.820312 24.714844 33.582031 Z M 24.714844 33.582031 "/>
    <path style=" stroke:none;fill-rule:nonzero;fill:rgb(27.843137%,72.156863%,57.254902%);fill-opacity:1;" d="M 1.125 31.109375 L 1.125 34.875 L 13.613281 34.875 C 15.003906 32.164062 7.066406 26.097656 7.066406 26.097656 Z M 28.933594 26.097656 C 28.933594 26.097656 20.996094 32.164062 22.386719 34.875 L 34.875 34.875 L 34.875 31.109375 Z M 28.933594 26.097656 "/>
  </g>
</svg>