<?xml version="1.0" encoding="UTF-8" standalone="yes"?>
<svg xmlns="http://www.w3.org/2000/svg" xmlns:xlink="http://www.w3.org/1999/xlink" width="48px" height="48px" viewBox="0 0 36 36" version="1.1">
  <g id="surface1">
    <path style=" stroke:none;fill-rule:nonzero;fill:rgb(86.666667%,90.980392%,89.019608%);fill-opacity:1;" d="M 1.125 17.679688 C 1.125 22.628906 3.226562 29.8125 9.5625 29.8125 C 15.898438 29.8125 18 22.628906 18 17.679688 C 18 2.359375 1.125 2.359375 1.125 17.679688 Z M 18 17.679688 C 18 22.628906 20.101562 29.8125 26.4375 29.8125 C 32.773438 29.8125 34.875 22.628906 34.875 17.679688 C 34.875 2.359375 18 2.359375 18 17.679688 Z M 18 17.679688 "/>
    <path style=" stroke:none;fill-rule:nonzero;fill:rgb(100%,100%,100%);fill-opacity:1;" d="M 1.574219 18.050781 C 1.574219 22.300781 2.914062 28.929688 8.304688 28.929688 C 13.699219 28.929688 15.035156 22.300781 15.035156 18.050781 C 15.039062 3.40625 1.574219 3.40625 1.574219 18.050781 Z M 18.449219 18.050781 C 18.449219 22.300781 19.789062 28.929688 25.179688 28.929688 C 30.574219 28.929688 31.914062 22.300781 31.914062 18.050781 C 31.914062 3.40625 18.449219 3.40625 18.449219 18.050781 Z M 18.449219 18.050781 "/>
    <path style=" stroke:none;fill-rule:nonzero;fill:rgb(28.627451%,23.137255%,18.823529%);fill-opacity:1;" d="M 1.574219 18.136719 C 1.574219 21.632812 4.023438 24.304688 7.042969 24.304688 C 10.066406 24.304688 12.515625 21.632812 12.515625 18.136719 C 12.515625 9.546875 1.574219 9.546875 1.574219 18.136719 Z M 18.449219 18.136719 C 18.449219 21.632812 20.898438 24.304688 23.921875 24.304688 C 26.941406 24.304688 29.390625 21.632812 29.390625 18.136719 C 29.390625 9.546875 18.449219 9.546875 18.449219 18.136719 Z M 18.449219 18.136719 "/>
  </g>
</svg>