<?xml version="1.0" encoding="UTF-8" standalone="yes"?>
<svg xmlns="http://www.w3.org/2000/svg" xmlns:xlink="http://www.w3.org/1999/xlink" width="48px" height="48px" viewBox="0 0 36 36" version="1.1">
  <g id="surface1">
    <path style=" stroke:none;fill-rule:nonzero;fill:rgb(100%,86.666667%,40.392157%);fill-opacity:1;" d="M 15.019531 27.363281 C 15.019531 24.402344 12.539062 22 9.480469 22 C 6.417969 22 3.9375 24.402344 3.9375 27.363281 C 3.9375 30.328125 6.417969 32.730469 9.480469 32.730469 C 12.539062 32.730469 15.019531 30.328125 15.019531 27.363281 Z M 15.019531 27.363281 "/>
    <path style=" stroke:none;fill-rule:nonzero;fill:rgb(100%,86.666667%,40.392157%);fill-opacity:1;" d="M 32.0625 27.363281 C 32.0625 24.402344 29.582031 22 26.519531 22 C 23.460938 22 20.980469 24.402344 20.980469 27.363281 C 20.980469 30.328125 23.460938 32.730469 26.519531 32.730469 C 29.582031 32.730469 32.0625 30.328125 32.0625 27.363281 Z M 32.0625 27.363281 "/>
    <path style=" stroke:none;fill-rule:nonzero;fill:rgb(100%,78.823529%,36.078431%);fill-opacity:1;" d="M 26.519531 27.789062 C 24.378906 27.789062 22.640625 28.96875 22.640625 30.425781 C 22.644531 30.777344 22.746094 31.125 22.933594 31.421875 C 23.902344 32.226562 25.144531 32.730469 26.519531 32.730469 C 27.898438 32.730469 29.140625 32.226562 30.109375 31.421875 C 30.296875 31.121094 30.398438 30.777344 30.402344 30.425781 C 30.398438 28.96875 28.664062 27.789062 26.519531 27.789062 Z M 9.480469 27.789062 C 11.621094 27.789062 13.359375 28.96875 13.359375 30.425781 C 13.355469 30.777344 13.253906 31.125 13.066406 31.421875 C 12.097656 32.226562 10.855469 32.730469 9.476562 32.730469 C 8.101562 32.730469 6.859375 32.226562 5.890625 31.421875 C 5.703125 31.121094 5.601562 30.777344 5.601562 30.425781 C 5.601562 28.96875 7.335938 27.789062 9.480469 27.789062 Z M 9.480469 27.789062 "/>
    <path style=" stroke:none;fill-rule:nonzero;fill:rgb(100%,78.823529%,36.078431%);fill-opacity:1;" d="M 18 29.996094 C 16.28125 29.996094 14.078125 29.484375 11.050781 28.886719 L 11.664062 32.292969 C 13.273438 33.886719 15.515625 34.875 18 34.875 C 20.484375 34.875 22.722656 33.886719 24.335938 32.292969 L 24.949219 28.886719 C 21.921875 29.484375 19.71875 29.996094 18 29.996094 Z M 18 29.996094 "/>
    <path style=" stroke:none;fill-rule:nonzero;fill:rgb(67.843137%,42.352941%,24.705882%);fill-opacity:1;" d="M 9.890625 29.90625 C 11.945312 30.550781 12.558594 33.0625 12.558594 33.0625 C 12.558594 33.0625 11.132812 31.992188 9.5 31.652344 C 5.710938 30.855469 7.355469 29.109375 9.890625 29.90625 Z M 26.109375 29.90625 C 24.054688 30.550781 23.441406 33.0625 23.441406 33.0625 C 23.441406 33.0625 24.867188 31.992188 26.5 31.652344 C 30.292969 30.855469 28.644531 29.109375 26.109375 29.90625 Z M 26.109375 29.90625 "/>
    <path style=" stroke:none;fill-rule:nonzero;fill:rgb(100%,86.666667%,40.392157%);fill-opacity:1;" d="M 24.214844 11.917969 C 24.214844 2.824219 21.433594 1.125 18 1.125 C 14.566406 1.125 11.785156 2.824219 11.785156 11.917969 C 11.785156 14.574219 9.6875 22.257812 9.6875 25.410156 C 9.6875 30.085938 13.40625 30.257812 18 30.257812 C 22.59375 30.257812 26.3125 30.085938 26.3125 25.410156 C 26.3125 22.253906 24.214844 14.574219 24.214844 11.917969 Z M 24.214844 11.917969 "/>
  </g>
</svg>