<?xml version="1.0" encoding="UTF-8" standalone="yes"?>
<svg xmlns="http://www.w3.org/2000/svg" xmlns:xlink="http://www.w3.org/1999/xlink" width="48px" height="48px" viewBox="0 0 36 36" version="1.1">
  <g id="surface1">
    <path style=" stroke:none;fill-rule:nonzero;fill:rgb(100%,86.666667%,40.392157%);fill-opacity:1;" d="M 27.316406 18.46875 L 23.609375 21.097656 C 23.609375 21.097656 21.769531 15.894531 20.332031 12.628906 C 19.742188 11.289062 17.953125 10.8125 17.125 8.941406 C 15.675781 5.675781 17.375 2.855469 19.105469 4.890625 C 21.097656 7.238281 24.003906 8.980469 24.589844 10.320312 C 25.574219 12.558594 27.316406 18.46875 27.316406 18.46875 Z M 27.316406 18.46875 "/>
    <path style=" stroke:none;fill-rule:nonzero;fill:rgb(100%,86.666667%,40.392157%);fill-opacity:1;" d="M 30.28125 20.601562 C 30.542969 22.378906 30.316406 25.175781 28.765625 28.449219 C 28.765625 28.449219 25.550781 24.601562 25.179688 22.84375 C 25.179688 22.84375 24.257812 16.136719 23.347656 11.863281 C 22.976562 10.105469 20.941406 9.089844 20.414062 6.636719 C 19.488281 2.359375 22.230469 -0.609375 23.800781 2.265625 C 25.609375 5.578125 28.664062 8.386719 29.039062 10.144531 C 29.660156 13.074219 29.898438 17.996094 30.28125 20.601562 Z M 30.28125 20.601562 "/>
    <path style=" stroke:none;fill-rule:nonzero;fill:rgb(92.156863%,63.921569%,32.156863%);fill-opacity:1;" d="M 25.519531 17.234375 C 25.519531 17.234375 25.21875 14.699219 24.304688 10.425781 C 23.933594 8.667969 21.902344 7.652344 21.371094 5.199219 C 21.054688 3.726562 21.167969 2.410156 21.519531 1.429688 C 20.558594 2.171875 19.773438 4.191406 20.304688 6.640625 C 20.832031 9.09375 22.882812 10.121094 23.253906 11.878906 C 23.511719 13.125 23.75 14.378906 23.96875 15.632812 L 21.152344 14.582031 Z M 25.519531 17.234375 "/>
    <path style=" stroke:none;fill-rule:nonzero;fill:rgb(100%,86.666667%,40.392157%);fill-opacity:1;" d="M 28.925781 19.9375 C 25.191406 16.539062 21.042969 14.480469 18.355469 13.160156 C 14.359375 11.195312 15.410156 13.898438 8.601562 15.679688 C 7.703125 15.917969 6.632812 16.574219 7.449219 18.28125 C 8.238281 19.921875 14.667969 18.675781 15.667969 17.691406 C 15.667969 17.691406 18.355469 20.980469 21.046875 20.90625 C 21.046875 20.90625 20.582031 23.089844 21.234375 24.144531 C 21.234375 24.144531 17.425781 26.128906 15.792969 27.867188 L 11.265625 24.835938 C 10.933594 20.144531 10.082031 18.757812 7.773438 18.980469 C 5.625 19.1875 5.867188 21.203125 5.914062 22.863281 C 6 25.855469 5.207031 26.339844 5.9375 27.523438 C 8.730469 32.0625 12.238281 34.875 18.765625 34.875 C 21.210938 34.875 22.761719 34.808594 24.261719 34.066406 C 26.78125 32.820312 33.035156 23.675781 28.925781 19.9375 Z M 28.925781 19.9375 "/>
    <path style=" stroke:none;fill-rule:nonzero;fill:rgb(92.156863%,63.921569%,32.156863%);fill-opacity:1;" d="M 29.65625 20.824219 C 31.050781 25.109375 26.0625 32.132812 23.878906 33.210938 C 22.375 33.953125 20.824219 34.019531 18.378906 34.019531 C 11.925781 34.019531 8.398438 31.253906 5.644531 26.816406 C 5.707031 27.0625 5.800781 27.296875 5.941406 27.527344 C 8.734375 32.0625 12.246094 34.875 18.769531 34.875 C 21.214844 34.875 22.769531 34.808594 24.269531 34.066406 C 26.605469 32.910156 32.152344 24.953125 29.65625 20.824219 Z M 29.65625 20.824219 "/>
    <path style=" stroke:none;fill-rule:nonzero;fill:rgb(92.156863%,63.921569%,32.156863%);fill-opacity:1;" d="M 10.472656 24.980469 C 10.472656 24.980469 14.683594 27.683594 15.707031 27.832031 L 11.265625 24.835938 C 11.445312 20.101562 10.058594 18.59375 7.773438 18.980469 C 7.605469 19.007812 7.4375 19.046875 7.273438 19.09375 C 9.558594 18.859375 10.660156 20.363281 10.472656 24.980469 Z M 10.472656 24.980469 "/>
    <path style=" stroke:none;fill-rule:nonzero;fill:rgb(92.156863%,63.921569%,32.156863%);fill-opacity:1;" d="M 15.679688 17.691406 C 15.679688 17.691406 18.371094 20.984375 21.058594 20.90625 L 21.058594 20.296875 C 18.371094 20.371094 15.679688 17.082031 15.679688 17.082031 C 14.679688 18.066406 8.25 19.3125 7.460938 17.667969 C 7.339844 17.421875 7.253906 17.160156 7.203125 16.890625 C 7.128906 17.25 7.1875 17.703125 7.460938 18.28125 C 8.25 19.921875 14.679688 18.675781 15.679688 17.691406 Z M 15.679688 17.691406 "/>
  </g>
</svg>