<?xml version="1.0" encoding="UTF-8" standalone="yes"?>
<svg xmlns="http://www.w3.org/2000/svg" xmlns:xlink="http://www.w3.org/1999/xlink" width="48px" height="48px" viewBox="0 0 36 36" version="1.1">
  <g id="surface1">
    <path style=" stroke:none;fill-rule:nonzero;fill:rgb(100%,86.666667%,40.392157%);fill-opacity:1;" d="M 7.113281 16.140625 C 9.613281 16.375 10.449219 18.378906 10.742188 19.367188 L 10.875 19.835938 C 10.875 19.835938 11.15625 20.15625 11.511719 20.664062 C 11.554688 20.671875 11.59375 20.683594 11.636719 20.691406 C 11.636719 20.691406 11.898438 16.332031 11.699219 14.894531 C 11.480469 13.308594 11.484375 6.324219 11.390625 4.609375 C 11.285156 2.59375 11.648438 1.125 13.925781 1.125 C 16.226562 1.125 16.929688 2.910156 16.789062 4.609375 C 16.597656 6.953125 16.472656 14.878906 16.472656 14.878906 C 16.71875 13.855469 17.160156 12.917969 18.84375 13.09375 C 20.773438 13.292969 21.136719 14.039062 21.222656 15.238281 C 22.171875 13.617188 23.453125 13.738281 24.25 13.9375 C 25.597656 14.277344 25.96875 16.703125 25.984375 16.703125 C 26.511719 14.902344 27.347656 15.214844 28.511719 15.386719 C 29.226562 15.492188 30.058594 16.222656 30.359375 17.460938 C 30.65625 18.703125 31.578125 19.621094 30.195312 29.300781 C 29.832031 31.84375 27.613281 33.097656 24.265625 33.675781 C 22 34.066406 18.914062 34.6875 16.613281 34.859375 C 16.40625 34.875 16.203125 34.878906 15.996094 34.867188 C 14.722656 34.933594 13.4375 34.390625 12.644531 33.3125 L 7.613281 26.453125 C 7.605469 26.445312 7.601562 26.4375 7.59375 26.425781 C 7.234375 26.097656 7.007812 25.636719 6.949219 25.0625 C 6.726562 22.847656 6.132812 20.683594 5.195312 18.664062 C 4.765625 17.734375 5.382812 15.976562 7.113281 16.140625 Z M 7.113281 16.140625 "/>
    <path style=" stroke:none;fill-rule:nonzero;fill:rgb(92.156863%,63.921569%,32.156863%);fill-opacity:1;" d="M 27.734375 15.269531 C 25.589844 14.949219 25.753906 18.25 26.199219 16.863281 C 26.660156 15.40625 27.734375 15.269531 27.734375 15.269531 Z M 23.617188 13.832031 C 20.6875 13.53125 20.992188 16.796875 21.554688 15.453125 C 22.125 14.089844 23.617188 13.832031 23.617188 13.832031 Z M 18.785156 13.085938 C 15.855469 12.785156 16.15625 16.265625 16.71875 14.921875 C 17.289062 13.5625 18.785156 13.085938 18.785156 13.085938 Z M 18.785156 13.085938 "/>
    <path style=" stroke:none;fill-rule:nonzero;fill:rgb(92.156863%,63.921569%,32.156863%);fill-opacity:1;" d="M 11.636719 20.691406 C 11.636719 20.691406 10.816406 13.605469 11.214844 4.582031 C 11.273438 3.269531 11.28125 1.242188 13.617188 1.136719 C 10.992188 1.964844 12.210938 10.914062 11.636719 20.691406 Z M 11.636719 20.691406 "/>
    <path style=" stroke:none;fill-rule:nonzero;fill:rgb(92.156863%,63.921569%,32.156863%);fill-opacity:1;" d="M 5.621094 16.632812 C 5.515625 17.039062 5.539062 17.460938 5.6875 17.78125 C 6.625 19.800781 7.21875 21.960938 7.441406 24.175781 C 7.5 24.75 7.730469 25.214844 8.089844 25.542969 C 8.09375 25.550781 8.097656 25.558594 8.105469 25.570312 L 13.136719 32.425781 C 13.929688 33.503906 15.214844 34.046875 16.492188 33.980469 C 16.691406 33.992188 16.898438 33.992188 17.105469 33.976562 C 19.40625 33.800781 22.492188 33.179688 24.757812 32.789062 C 27.148438 32.378906 28.957031 31.617188 29.933594 30.296875 C 29.183594 32.179688 27.144531 33.179688 24.265625 33.675781 C 22 34.066406 18.914062 34.6875 16.613281 34.863281 C 16.40625 34.875 16.203125 34.878906 16 34.867188 C 14.722656 34.933594 13.4375 34.390625 12.644531 33.3125 L 7.613281 26.453125 C 7.605469 26.445312 7.601562 26.4375 7.597656 26.429688 C 7.238281 26.101562 7.007812 25.636719 6.949219 25.0625 C 6.726562 22.847656 6.132812 20.6875 5.195312 18.667969 C 4.925781 18.085938 5.066406 17.191406 5.621094 16.632812 Z M 5.621094 16.632812 "/>
    <path style=" stroke:none;fill-rule:nonzero;fill:rgb(92.156863%,63.921569%,32.156863%);fill-opacity:1;" d="M 10.945312 23.078125 C 10.945312 23.078125 10.207031 20.652344 9.910156 19.511719 C 9.664062 18.5625 8.777344 16.835938 7.304688 16.164062 C 9.65625 16.480469 10.457031 18.402344 10.738281 19.367188 L 10.875 19.835938 C 10.875 19.835938 11.269531 20.105469 11.636719 20.691406 C 11.636719 20.691406 10.859375 21.792969 10.945312 23.078125 Z M 16.765625 15.515625 C 16.882812 15.839844 17.039062 16.09375 17.210938 16.351562 C 17.386719 16.609375 17.570312 16.875 17.730469 17.175781 C 17.882812 17.480469 18.007812 17.832031 18.007812 18.195312 C 18.019531 18.546875 17.917969 18.898438 17.714844 19.1875 C 17.6875 18.84375 17.65625 18.539062 17.574219 18.253906 C 17.488281 17.96875 17.375 17.691406 17.230469 17.433594 C 17.097656 17.15625 16.929688 16.871094 16.820312 16.542969 C 16.703125 16.226562 16.644531 15.84375 16.765625 15.515625 Z M 21.183594 16.4375 C 21.304688 16.761719 21.460938 17.015625 21.632812 17.273438 C 21.808594 17.527344 21.992188 17.796875 22.152344 18.097656 C 22.304688 18.402344 22.429688 18.753906 22.429688 19.117188 C 22.441406 19.472656 22.335938 19.820312 22.136719 20.109375 C 22.109375 19.765625 22.078125 19.460938 21.996094 19.175781 C 21.910156 18.890625 21.796875 18.613281 21.652344 18.355469 C 21.519531 18.078125 21.351562 17.796875 21.238281 17.46875 C 21.125 17.148438 21.066406 16.765625 21.183594 16.4375 Z M 26.011719 17.785156 C 26.128906 18.109375 26.285156 18.363281 26.457031 18.621094 C 26.632812 18.875 26.816406 19.140625 26.980469 19.445312 C 27.132812 19.75 27.253906 20.101562 27.257812 20.464844 C 27.265625 20.816406 27.164062 21.167969 26.960938 21.457031 C 26.933594 21.113281 26.902344 20.808594 26.820312 20.523438 C 26.734375 20.238281 26.621094 19.960938 26.480469 19.703125 C 26.347656 19.425781 26.179688 19.140625 26.066406 18.816406 C 25.949219 18.492188 25.890625 18.113281 26.011719 17.785156 Z M 26.011719 17.785156 "/>
  </g>
</svg>