<?xml version="1.0" encoding="UTF-8" standalone="yes"?>
<svg xmlns="http://www.w3.org/2000/svg" xmlns:xlink="http://www.w3.org/1999/xlink" width="48px" height="48px" viewBox="0 0 36 36" version="1.1">
  <g id="surface1">
    <path style=" stroke:none;fill-rule:nonzero;fill:rgb(100%,86.666667%,40.392157%);fill-opacity:1;" d="M 29.875 13.511719 L 16.628906 7.382812 L 2.046875 12.210938 C 2.046875 12.210938 1.234375 18.527344 2.054688 24.992188 C 3.332031 35.046875 14.148438 33.292969 14.148438 33.292969 C 21.878906 36.765625 29.570312 33.515625 33.078125 25.164062 C 34.371094 22.074219 34.546875 13.449219 29.875 13.511719 Z M 29.875 13.511719 "/>
    <path style=" stroke:none;fill-rule:nonzero;fill:rgb(100%,86.666667%,40.392157%);fill-opacity:1;" d="M 2.054688 9.226562 C 2.054688 6.996094 3.765625 5.191406 5.875 5.191406 L 5.9375 5.191406 C 8.046875 5.191406 9.753906 6.996094 9.753906 9.226562 L 9.753906 15.460938 C 9.753906 17.6875 8.046875 19.492188 5.9375 19.492188 L 5.875 19.492188 C 3.765625 19.492188 2.054688 17.6875 2.054688 15.460938 Z M 2.054688 9.226562 "/>
    <path style=" stroke:none;fill-rule:nonzero;fill:rgb(92.156863%,63.921569%,32.156863%);fill-opacity:1;" d="M 4.789062 18 L 4.839844 18 C 6.949219 18 8.605469 16.21875 8.605469 13.992188 L 8.605469 7.75 C 8.605469 7.148438 8.449219 6.511719 8.226562 6 C 9.308594 6.734375 9.753906 7.960938 9.753906 9.269531 L 9.753906 15.511719 C 9.753906 17.738281 8.101562 19.496094 5.992188 19.496094 L 5.945312 19.496094 C 4.402344 19.496094 3.078125 18.542969 2.472656 17.15625 C 3.117188 17.671875 3.917969 18 4.789062 18 Z M 4.789062 18 "/>
    <path style=" stroke:none;fill-rule:nonzero;fill:rgb(100%,86.666667%,40.392157%);fill-opacity:1;" d="M 9.664062 5.609375 C 9.664062 3.382812 11.375 1.574219 13.488281 1.574219 L 13.546875 1.574219 C 15.65625 1.574219 17.367188 3.382812 17.367188 5.609375 L 17.367188 11.84375 C 17.367188 14.070312 15.65625 15.878906 13.546875 15.878906 L 13.488281 15.878906 C 11.375 15.878906 9.664062 14.070312 9.664062 11.84375 Z M 9.664062 5.609375 "/>
    <path style=" stroke:none;fill-rule:nonzero;fill:rgb(92.156863%,63.921569%,32.156863%);fill-opacity:1;" d="M 12.382812 14.382812 L 12.429688 14.382812 C 14.539062 14.382812 16.214844 12.628906 16.214844 10.402344 L 16.214844 4.160156 C 16.207031 3.550781 16.078125 2.945312 15.839844 2.382812 C 16.96875 3.289062 17.367188 4.375 17.367188 5.683594 L 17.367188 11.921875 C 17.367188 14.152344 15.691406 15.878906 13.582031 15.878906 L 13.535156 15.878906 C 11.996094 15.878906 10.671875 14.925781 10.0625 13.539062 C 10.707031 14.058594 11.511719 14.382812 12.382812 14.382812 Z M 12.382812 14.382812 "/>
    <path style=" stroke:none;fill-rule:nonzero;fill:rgb(100%,86.666667%,40.392157%);fill-opacity:1;" d="M 17.367188 5.15625 C 17.367188 2.929688 19.078125 1.125 21.1875 1.125 L 21.25 1.125 C 23.355469 1.125 25.070312 2.929688 25.070312 5.15625 L 25.070312 11.390625 C 25.070312 13.621094 23.355469 15.429688 21.25 15.429688 L 21.1875 15.429688 C 19.078125 15.429688 17.367188 13.621094 17.367188 11.390625 Z M 17.367188 5.15625 "/>
    <path style=" stroke:none;fill-rule:nonzero;fill:rgb(92.156863%,63.921569%,32.156863%);fill-opacity:1;" d="M 20.070312 13.929688 L 20.117188 13.929688 C 22.226562 13.929688 23.917969 12.179688 23.917969 9.949219 L 23.917969 3.710938 C 23.917969 3.109375 23.789062 2.464844 23.566406 1.953125 C 24.703125 2.78125 25.070312 3.925781 25.070312 5.230469 L 25.070312 11.472656 C 25.070312 13.699219 23.378906 15.429688 21.269531 15.429688 L 21.222656 15.429688 C 19.683594 15.429688 18.355469 14.476562 17.75 13.089844 C 18.394531 13.609375 19.199219 13.929688 20.070312 13.929688 Z M 20.070312 13.929688 "/>
    <path style=" stroke:none;fill-rule:nonzero;fill:rgb(100%,86.666667%,40.392157%);fill-opacity:1;" d="M 24.890625 7.214844 C 24.890625 4.988281 26.601562 3.183594 28.710938 3.183594 L 28.773438 3.183594 C 30.882812 3.183594 32.59375 4.988281 32.59375 7.214844 L 32.59375 13.453125 C 32.59375 15.675781 30.882812 17.484375 28.773438 17.484375 L 28.710938 17.484375 C 26.601562 17.484375 24.890625 15.675781 24.890625 13.453125 Z M 24.890625 7.214844 "/>
    <path style=" stroke:none;fill-rule:nonzero;fill:rgb(92.156863%,63.921569%,32.156863%);fill-opacity:1;" d="M 27.660156 15.988281 L 27.707031 15.988281 C 29.816406 15.988281 31.441406 14.207031 31.441406 11.980469 L 31.441406 5.742188 C 31.4375 5.140625 31.3125 4.550781 31.078125 4 C 32.25 4.855469 32.59375 5.953125 32.59375 7.261719 L 32.59375 13.503906 C 32.59375 15.730469 30.96875 17.484375 28.859375 17.484375 L 28.808594 17.484375 C 27.273438 17.484375 25.945312 16.53125 25.339844 15.148438 C 25.984375 15.664062 26.785156 15.988281 27.660156 15.988281 Z M 27.660156 15.988281 "/>
    <path style=" stroke:none;fill-rule:nonzero;fill:rgb(92.156863%,63.921569%,32.156863%);fill-opacity:1;" d="M 23.394531 18.167969 C 20.207031 16.585938 13.003906 19.28125 14.414062 26.054688 C 14.414062 19.019531 20.640625 17.832031 23.394531 18.167969 Z M 23.394531 18.167969 "/>
    <path style=" stroke:none;fill-rule:nonzero;fill:rgb(92.156863%,63.921569%,32.156863%);fill-opacity:1;" d="M 24.800781 9.585938 C 21.84375 7.519531 20.890625 10.226562 15.492188 9.847656 C 13.128906 9.683594 11.550781 14.128906 14.925781 16.125 C 19.621094 18.902344 20.386719 15.695312 21.449219 17.082031 C 22.578125 18.546875 23.757812 18.933594 24.660156 20.59375 C 25.316406 21.804688 31.675781 20.664062 32.597656 18.40625 C 34.367188 14.078125 29.492188 12.867188 24.800781 9.585938 Z M 24.800781 9.585938 "/>
    <path style=" stroke:none;fill-rule:nonzero;fill:rgb(100%,86.666667%,40.392157%);fill-opacity:1;" d="M 25.117188 10.402344 C 22.042969 8.253906 21.046875 11.070312 15.433594 10.675781 C 12.976562 10.5 11.332031 15.128906 14.847656 17.203125 C 19.730469 20.09375 20.527344 16.757812 21.632812 18.199219 C 22.808594 19.726562 24.035156 20.125 24.972656 21.855469 C 25.65625 23.109375 22.953125 27.34375 22.953125 27.34375 C 22.953125 27.34375 28.796875 32.125 30.367188 29.882812 C 33.277344 25.710938 33 22.175781 33.226562 19.578125 C 33.75 13.59375 30 13.816406 25.117188 10.402344 Z M 25.117188 10.402344 "/>
    <path style=" stroke:none;fill-rule:nonzero;fill:rgb(92.156863%,63.921569%,32.156863%);fill-opacity:1;" d="M 24.242188 21.902344 C 24.453125 22.289062 24.339844 22.964844 24.082031 23.710938 C 24.597656 22.585938 24.984375 21.402344 24.675781 20.832031 C 23.738281 19.105469 23.140625 18.707031 21.964844 17.175781 C 20.859375 15.738281 20.0625 19.074219 15.179688 16.183594 C 13.371094 15.117188 12.9375 13.375 13.265625 11.957031 C 12.359375 13.4375 12.441406 15.890625 14.742188 17.253906 C 19.625 20.140625 20.425781 16.804688 21.527344 18.246094 C 22.703125 19.773438 23.304688 20.171875 24.242188 21.902344 Z M 24.242188 21.902344 "/>
    <path style=" stroke:none;fill-rule:nonzero;fill:rgb(92.156863%,63.921569%,32.156863%);fill-opacity:1;" d="M 31.296875 13.984375 C 34.371094 15.832031 33.304688 24.3125 30.449219 28.144531 C 25.960938 34.183594 20.042969 34.128906 14.148438 32.929688 C 14.148438 32.929688 6.996094 34.917969 2.855469 28.167969 C 5.445312 35.320312 14.148438 33.871094 14.148438 33.871094 C 20.398438 35.800781 26.464844 35.316406 31.273438 29.125 C 34.339844 25.179688 36.195312 15.585938 31.296875 13.984375 Z M 31.296875 13.984375 "/>
  </g>
</svg>