<?xml version="1.0" encoding="UTF-8" standalone="yes"?>
<svg xmlns="http://www.w3.org/2000/svg" xmlns:xlink="http://www.w3.org/1999/xlink" width="48px" height="48px" viewBox="0 0 36 36" version="1.1">
  <g id="surface1">
    <path style=" stroke:none;fill-rule:nonzero;fill:rgb(25.882353%,54.509804%,75.686275%);fill-opacity:1;" d="M 29.742188 24.121094 C 28.90625 18.253906 23.964844 13.746094 18 13.746094 C 12.035156 13.746094 7.09375 18.253906 6.257812 24.121094 Z M 29.742188 24.121094 "/>
    <path style=" stroke:none;fill-rule:nonzero;fill:rgb(94.901961%,69.803922%,0%);fill-opacity:1;" d="M 34.761719 12.902344 C 34.527344 11.898438 33.921875 11.09375 33.011719 10.574219 L 33.007812 10.574219 C 32.613281 10.347656 32.167969 10.210938 31.714844 10.175781 C 31.328125 10.144531 30.933594 10.183594 30.507812 10.289062 C 29.828125 10.460938 29.175781 10.785156 28.546875 11.101562 C 27.707031 11.515625 26.917969 11.910156 26.1875 11.910156 L 26.1875 14.5 C 27.5 14.5 28.644531 13.929688 29.65625 13.429688 C 30.703125 12.90625 31.371094 12.605469 31.777344 12.835938 C 32.074219 13.003906 32.230469 13.203125 32.300781 13.503906 C 32.378906 13.832031 32.351562 14.289062 32.21875 14.824219 C 32.085938 15.375 31.84375 16.015625 31.5 16.730469 C 30.835938 18.113281 29.9375 19.484375 29.277344 20.488281 C 29.0625 20.8125 28.851562 21.136719 28.648438 21.464844 L 28.648438 21.46875 C 28.582031 21.578125 28.519531 21.679688 28.457031 21.78125 C 28.4375 21.816406 28.414062 21.851562 28.394531 21.886719 L 7.605469 21.886719 C 7.585938 21.851562 7.5625 21.816406 7.542969 21.78125 C 7.480469 21.679688 7.414062 21.578125 7.351562 21.46875 L 7.351562 21.464844 C 7.144531 21.136719 6.9375 20.8125 6.722656 20.488281 C 6.0625 19.484375 5.160156 18.113281 4.5 16.730469 C 4.15625 16.015625 3.914062 15.375 3.78125 14.824219 C 3.648438 14.289062 3.621094 13.832031 3.699219 13.503906 C 3.769531 13.203125 3.925781 13.003906 4.222656 12.835938 C 4.628906 12.605469 5.296875 12.90625 6.34375 13.429688 C 7.355469 13.929688 8.5 14.5 9.8125 14.5 L 9.8125 11.910156 C 9.082031 11.910156 8.289062 11.515625 7.453125 11.101562 C 6.824219 10.785156 6.171875 10.460938 5.492188 10.289062 C 5.066406 10.183594 4.671875 10.144531 4.285156 10.175781 C 3.832031 10.210938 3.386719 10.347656 2.992188 10.574219 L 2.988281 10.574219 C 2.078125 11.09375 1.472656 11.898438 1.238281 12.902344 C 0.929688 14.21875 1.253906 15.84375 2.226562 17.875 C 2.964844 19.410156 3.921875 20.867188 4.621094 21.933594 C 4.890625 22.335938 5.148438 22.742188 5.398438 23.15625 C 5.722656 23.6875 5.949219 24.058594 6.101562 24.511719 L 6.101562 30.847656 C 6.019531 30.847656 5.941406 30.882812 5.886719 30.941406 C 5.828125 31 5.796875 31.078125 5.796875 31.160156 C 5.796875 31.332031 5.933594 31.46875 6.101562 31.46875 L 29.898438 31.46875 C 29.980469 31.46875 30.058594 31.433594 30.113281 31.375 C 30.171875 31.320312 30.203125 31.238281 30.203125 31.160156 C 30.203125 30.988281 30.070312 30.847656 29.898438 30.847656 L 29.898438 24.515625 C 30.050781 24.058594 30.277344 23.6875 30.601562 23.15625 L 30.800781 22.832031 C 30.9375 22.601562 31.140625 22.292969 31.378906 21.933594 C 32.078125 20.867188 33.035156 19.410156 33.773438 17.871094 C 34.746094 15.84375 35.070312 14.214844 34.761719 12.902344 Z M 34.761719 12.902344 "/>
    <path style=" stroke:none;fill-rule:nonzero;fill:rgb(25.882353%,67.843137%,88.627451%);fill-opacity:1;" d="M 18.480469 15.304688 C 18.78125 16.214844 17.367188 17.53125 15.320312 18.246094 C 13.269531 18.957031 11.367188 18.792969 11.0625 17.882812 C 10.757812 16.96875 12.175781 15.652344 14.226562 14.941406 C 16.273438 14.230469 18.179688 14.394531 18.480469 15.304688 Z M 18.480469 15.304688 "/>
    <path style=" stroke:none;fill-rule:nonzero;fill:rgb(100%,86.666667%,49.019608%);fill-opacity:1;" d="M 16.636719 25.097656 L 19.363281 25.097656 L 19.363281 31.152344 L 16.636719 31.152344 Z M 16.636719 25.097656 "/>
    <path style=" stroke:none;fill-rule:nonzero;fill:rgb(100%,80.784314%,19.215686%);fill-opacity:1;" d="M 21.273438 25.097656 L 24 25.097656 L 24 31.152344 L 21.273438 31.152344 Z M 21.273438 25.097656 "/>
    <path style=" stroke:none;fill-rule:nonzero;fill:rgb(100%,100%,100%);fill-opacity:1;" d="M 19.363281 25.097656 L 21.273438 25.097656 L 21.273438 31.152344 L 19.363281 31.152344 Z M 19.363281 25.097656 "/>
    <path style=" stroke:none;fill-rule:nonzero;fill:rgb(100%,80.784314%,19.215686%);fill-opacity:1;" d="M 25.878906 25.097656 L 27.789062 25.097656 L 27.789062 31.152344 L 25.878906 31.152344 Z M 25.878906 25.097656 "/>
    <path style=" stroke:none;fill-rule:nonzero;fill:rgb(94.901961%,69.803922%,0%);fill-opacity:1;" d="M 6.101562 25.101562 L 8.011719 25.101562 L 8.011719 31.15625 L 6.101562 31.15625 Z M 6.101562 25.101562 "/>
    <path style=" stroke:none;fill-rule:nonzero;fill:rgb(100%,80.784314%,19.215686%);fill-opacity:1;" d="M 8.1875 25.097656 L 11.902344 25.097656 L 11.902344 31.152344 L 8.1875 31.152344 Z M 8.1875 25.097656 "/>
    <path style=" stroke:none;fill-rule:nonzero;fill:rgb(94.901961%,69.803922%,0%);fill-opacity:1;" d="M 15.996094 19.648438 C 15.996094 20.496094 14.496094 22.640625 14.496094 22.640625 C 14.496094 22.640625 12.996094 20.492188 12.996094 19.648438 C 12.996094 18.800781 13.667969 18.113281 14.496094 18.113281 C 15.324219 18.113281 15.996094 18.800781 15.996094 19.648438 Z M 23.003906 19.648438 C 23.003906 20.496094 21.503906 22.640625 21.503906 22.640625 C 21.503906 22.640625 20.003906 20.492188 20.003906 19.648438 C 20.003906 18.800781 20.675781 18.113281 21.503906 18.113281 C 22.332031 18.113281 23.003906 18.800781 23.003906 19.648438 Z M 23.003906 19.648438 "/>
    <path style=" stroke:none;fill-rule:nonzero;fill:rgb(40%,79.215686%,94.901961%);fill-opacity:1;" d="M 21.527344 7.082031 L 14.472656 7.082031 L 16.117188 4.46875 L 19.757812 4.46875 Z M 21.527344 7.082031 "/>
    <path style=" stroke:none;fill-rule:nonzero;fill:rgb(100%,80.784314%,19.215686%);fill-opacity:1;" d="M 6.78125 18.4375 C 8.15625 17.148438 10.828125 16.457031 12.648438 16.988281 C 11.269531 18.292969 8.605469 18.953125 6.78125 18.4375 Z M 29.308594 18.4375 C 27.484375 18.953125 24.820312 18.292969 23.441406 16.988281 C 25.261719 16.457031 27.933594 17.148438 29.308594 18.4375 Z M 14.984375 16.9375 C 16.625 16.003906 19.375 15.996094 21.015625 16.9375 C 19.367188 17.882812 16.636719 17.863281 14.984375 16.9375 Z M 14.984375 16.9375 "/>
    <path style=" stroke:none;fill-rule:nonzero;fill:rgb(25.882353%,54.509804%,75.686275%);fill-opacity:1;" d="M 18.542969 4.46875 L 19.175781 7.082031 L 21.527344 7.082031 L 19.757812 4.46875 Z M 18.542969 4.46875 "/>
    <path style=" stroke:none;fill-rule:nonzero;fill:rgb(25.882353%,67.843137%,88.627451%);fill-opacity:1;" d="M 18.542969 4.46875 L 17.332031 4.46875 L 16.820312 7.082031 L 19.171875 7.082031 Z M 18.542969 4.46875 "/>
    <path style=" stroke:none;fill-rule:nonzero;fill:rgb(40%,79.215686%,94.901961%);fill-opacity:1;" d="M 17.332031 4.46875 L 16.820312 7.082031 L 14.472656 7.082031 L 16.117188 4.46875 Z M 17.332031 4.46875 "/>
    <path style=" stroke:none;fill-rule:nonzero;fill:rgb(100%,86.666667%,49.019608%);fill-opacity:1;" d="M 6.464844 23.4375 C 10.296875 23.148438 14.164062 23.117188 18.003906 23.117188 C 21.847656 23.117188 25.710938 23.152344 29.542969 23.4375 C 25.710938 23.734375 21.847656 23.761719 18.003906 23.761719 C 14.164062 23.761719 10.296875 23.738281 6.464844 23.4375 Z M 6.464844 23.4375 "/>
    <path style=" stroke:none;fill-rule:nonzero;fill:rgb(25.882353%,54.509804%,75.686275%);fill-opacity:1;" d="M 6.101562 25.066406 L 29.898438 25.066406 L 29.898438 25.6875 L 6.101562 25.6875 Z M 6.101562 25.066406 "/>
    <path style=" stroke:none;fill-rule:nonzero;fill:rgb(25.882353%,54.509804%,75.686275%);fill-opacity:1;" d="M 6.40625 25.375 C 6.40625 25.203125 6.269531 25.066406 6.101562 25.066406 C 5.933594 25.066406 5.796875 25.203125 5.796875 25.375 C 5.796875 25.546875 5.933594 25.6875 6.101562 25.6875 C 6.269531 25.6875 6.40625 25.546875 6.40625 25.375 Z M 6.40625 25.375 "/>
    <path style=" stroke:none;fill-rule:nonzero;fill:rgb(25.882353%,54.509804%,75.686275%);fill-opacity:1;" d="M 30.203125 25.375 C 30.203125 25.203125 30.066406 25.066406 29.898438 25.066406 C 29.730469 25.066406 29.59375 25.203125 29.59375 25.375 C 29.59375 25.546875 29.730469 25.6875 29.898438 25.6875 C 30.066406 25.6875 30.203125 25.546875 30.203125 25.375 Z M 30.203125 25.375 "/>
    <path style=" stroke:none;fill-rule:nonzero;fill:rgb(100%,80.784314%,19.215686%);fill-opacity:1;" d="M 28.523438 11.484375 C 28.378906 10.882812 28.117188 10.316406 27.757812 9.8125 C 27.375 9.28125 26.878906 8.835938 26.308594 8.515625 L 26.304688 8.515625 C 25.875 8.269531 25.398438 8.121094 24.902344 8.085938 C 24.484375 8.050781 24.054688 8.09375 23.585938 8.210938 C 22.832031 8.402344 22.101562 8.765625 21.390625 9.117188 C 21.195312 9.214844 20.996094 9.316406 20.796875 9.410156 C 21.222656 8.507812 21.527344 7.664062 21.527344 7.082031 L 14.472656 7.082031 C 14.472656 7.664062 14.777344 8.507812 15.203125 9.410156 C 15.003906 9.316406 14.804688 9.21875 14.609375 9.117188 C 13.898438 8.765625 13.167969 8.402344 12.414062 8.210938 C 11.945312 8.09375 11.515625 8.050781 11.097656 8.085938 C 10.601562 8.121094 10.125 8.269531 9.695312 8.515625 L 9.691406 8.515625 C 9.121094 8.835938 8.625 9.28125 8.242188 9.8125 C 7.890625 10.292969 7.632812 10.859375 7.476562 11.484375 C 7.066406 13.101562 7.308594 15.171875 8.191406 17.632812 C 8.871094 19.53125 9.746094 21.132812 10.183594 21.886719 L 13.148438 21.886719 C 13.015625 21.65625 12.878906 21.429688 12.742188 21.203125 L 12.523438 20.84375 C 11.351562 18.910156 9.300781 14.605469 9.925781 12.136719 C 10.082031 11.507812 10.402344 11.078125 10.921875 10.777344 C 11.089844 10.683594 11.324219 10.605469 11.808594 10.726562 C 12.300781 10.847656 12.882812 11.140625 13.5 11.445312 C 14.464844 11.925781 15.539062 12.457031 16.734375 12.605469 L 16.738281 21.886719 L 19.269531 21.886719 L 19.265625 12.605469 C 20.460938 12.457031 21.535156 11.925781 22.5 11.445312 C 23.117188 11.140625 23.699219 10.847656 24.191406 10.726562 C 24.671875 10.605469 24.910156 10.683594 25.074219 10.777344 C 25.597656 11.078125 25.917969 11.507812 26.074219 12.136719 C 26.699219 14.605469 24.648438 18.914062 23.476562 20.84375 L 23.257812 21.203125 C 23.113281 21.4375 22.980469 21.660156 22.851562 21.886719 L 25.816406 21.886719 C 26.253906 21.132812 27.125 19.53125 27.808594 17.632812 C 28.691406 15.171875 28.933594 13.101562 28.523438 11.484375 Z M 28.523438 11.484375 "/>
    <path style=" stroke:none;fill-rule:nonzero;fill:rgb(94.901961%,69.803922%,0%);fill-opacity:1;" d="M 18 9.648438 C 17.089844 9.648438 16.214844 9.300781 15.554688 8.671875 C 15.707031 9.921875 16.746094 10.882812 18.003906 10.882812 C 19.265625 10.882812 20.308594 9.914062 20.453125 8.664062 C 19.792969 9.296875 18.914062 9.648438 18 9.648438 Z M 18 9.648438 "/>
  </g>
</svg>