<?xml version="1.0" encoding="UTF-8" standalone="yes"?>
<svg xmlns="http://www.w3.org/2000/svg" xmlns:xlink="http://www.w3.org/1999/xlink" width="48px" height="48px" viewBox="0 0 36 36" version="1.1">
  <g id="surface1">
    <path style=" stroke:none;fill-rule:nonzero;fill:rgb(49.803922%,77.647059%,80%);fill-opacity:1;" d="M 34.242188 32.941406 C 34.242188 35.519531 1.757812 35.519531 1.757812 32.941406 C 1.757812 17.707031 0.636719 13.046875 18 13.046875 C 35.363281 13.046875 34.242188 17.707031 34.242188 32.941406 Z M 34.242188 32.941406 "/>
    <path style=" stroke:none;fill-rule:nonzero;fill:rgb(41.176471%,35.686275%,35.686275%);fill-opacity:1;" d="M 3.765625 17.292969 C 5.789062 15.101562 10.3125 14.082031 18 14.082031 C 25.683594 14.082031 30.210938 15.101562 32.234375 17.292969 C 32.769531 17.875 33.183594 18.542969 33.507812 19.296875 C 32.148438 14.703125 28.375 12.589844 18 12.589844 C 7.625 12.589844 3.851562 14.703125 2.492188 19.296875 C 2.816406 18.542969 3.226562 17.875 3.765625 17.292969 Z M 3.765625 17.292969 "/>
    <path style=" stroke:none;fill-rule:nonzero;fill:rgb(41.176471%,35.686275%,35.686275%);fill-opacity:1;" d="M 11.242188 15.324219 L 11.242188 21.570312 C 11.242188 21.9375 10.875 22.238281 10.421875 22.238281 L 6.03125 22.238281 C 5.574219 22.238281 5.207031 21.9375 5.207031 21.570312 L 5.207031 16.660156 L 3.445312 17.996094 L 3.445312 23.066406 C 3.445312 23.558594 3.9375 23.957031 4.546875 23.957031 L 11.90625 23.957031 C 12.515625 23.957031 13.007812 23.558594 13.007812 23.066406 L 13.007812 15.324219 Z M 30.789062 16.660156 L 30.789062 21.570312 C 30.789062 21.9375 30.421875 22.238281 29.96875 22.238281 L 25.578125 22.238281 C 25.121094 22.238281 24.753906 21.9375 24.753906 21.570312 L 24.753906 15.324219 L 22.992188 15.324219 L 22.992188 23.066406 C 22.992188 23.558594 23.484375 23.957031 24.09375 23.957031 L 31.453125 23.957031 C 32.058594 23.957031 32.554688 23.558594 32.554688 23.066406 L 32.554688 17.996094 Z M 30.789062 16.660156 "/>
    <path style=" stroke:none;fill-rule:nonzero;fill:rgb(60%,54.117647%,56.862745%);fill-opacity:1;" d="M 33.886719 34.09375 C 33.347656 34.09375 32.910156 33.664062 32.910156 33.140625 C 32.910156 32.445312 32.914062 31.773438 32.917969 31.128906 L 32.917969 30.722656 C 32.945312 24.601562 32.964844 20.558594 30.976562 18.40625 C 29.316406 16.609375 25.074219 15.738281 18 15.738281 C 10.925781 15.738281 6.683594 16.609375 5.023438 18.40625 C 3.035156 20.558594 3.054688 24.605469 3.082031 30.726562 L 3.082031 31.023438 C 3.085938 31.703125 3.089844 32.40625 3.089844 33.140625 C 3.089844 33.667969 2.652344 34.09375 2.113281 34.09375 C 1.574219 34.09375 1.136719 33.664062 1.136719 33.140625 C 1.136719 32.304688 1.136719 31.503906 1.132812 30.734375 C 1.101562 24.164062 1.082031 19.824219 3.574219 17.125 C 5.652344 14.875 10.238281 13.828125 18 13.828125 C 25.761719 13.828125 30.34375 14.875 32.425781 17.125 C 34.917969 19.824219 34.898438 24.164062 34.867188 30.730469 L 34.867188 31.316406 C 34.863281 31.90625 34.859375 32.511719 34.859375 33.140625 C 34.859375 33.667969 34.425781 34.09375 33.886719 34.09375 Z M 33.886719 34.09375 "/>
    <path style=" stroke:none;fill-rule:nonzero;fill:rgb(60%,54.117647%,56.862745%);fill-opacity:1;" d="M 27.773438 14.925781 C 27.316406 14.925781 26.949219 14.625 26.949219 14.257812 C 26.949219 4.851562 21.84375 2.988281 18 2.988281 C 14.15625 2.988281 9.050781 4.851562 9.050781 14.257812 C 9.050781 14.625 8.683594 14.925781 8.226562 14.925781 C 7.769531 14.925781 7.402344 14.625 7.402344 14.257812 C 7.402344 7.1875 10.867188 1.125 18 1.125 C 25.132812 1.125 28.597656 7.1875 28.597656 14.257812 C 28.597656 14.625 28.230469 14.925781 27.773438 14.925781 Z M 27.773438 14.925781 "/>
    <path style=" stroke:none;fill-rule:nonzero;fill:rgb(78.823529%,78.823529%,78.823529%);fill-opacity:1;" d="M 8.105469 19.679688 C 6.359375 19.675781 4.945312 18.261719 4.941406 16.515625 C 4.945312 14.765625 6.359375 13.351562 8.105469 13.351562 C 9.851562 13.351562 11.269531 14.765625 11.269531 16.515625 C 11.269531 18.261719 9.851562 19.675781 8.105469 19.679688 Z M 8.105469 14.40625 C 6.941406 14.40625 6 15.351562 5.996094 16.515625 C 5.996094 17.675781 6.945312 18.625 8.105469 18.625 C 9.269531 18.625 10.214844 17.675781 10.214844 16.515625 C 10.214844 15.351562 9.269531 14.40625 8.105469 14.40625 Z M 27.894531 19.679688 C 26.148438 19.675781 24.730469 18.261719 24.730469 16.515625 C 24.730469 14.765625 26.148438 13.351562 27.894531 13.351562 C 29.640625 13.351562 31.054688 14.765625 31.058594 16.515625 C 31.054688 18.261719 29.640625 19.675781 27.894531 19.679688 Z M 27.894531 14.40625 C 26.730469 14.40625 25.785156 15.351562 25.785156 16.515625 C 25.785156 17.679688 26.730469 18.621094 27.894531 18.625 C 29.058594 18.621094 30 17.679688 30.003906 16.515625 C 30 15.351562 29.058594 14.40625 27.894531 14.40625 Z M 27.894531 14.40625 "/>
    <path style=" stroke:none;fill-rule:nonzero;fill:rgb(41.176471%,35.686275%,35.686275%);fill-opacity:1;" d="M 9.777344 14.777344 C 9.777344 15.058594 9.664062 15.324219 9.46875 15.523438 C 9.269531 15.722656 9 15.832031 8.722656 15.832031 L 7.492188 15.832031 C 7.210938 15.832031 6.941406 15.722656 6.746094 15.523438 C 6.546875 15.324219 6.4375 15.058594 6.4375 14.777344 L 6.4375 12.933594 C 6.4375 12.351562 6.90625 11.878906 7.492188 11.878906 L 8.722656 11.878906 C 9.304688 11.878906 9.777344 12.351562 9.777344 12.933594 Z M 29.5625 14.777344 C 29.5625 15.359375 29.089844 15.832031 28.507812 15.832031 L 27.277344 15.832031 C 26.695312 15.832031 26.222656 15.359375 26.222656 14.777344 L 26.222656 12.933594 C 26.222656 12.351562 26.695312 11.878906 27.277344 11.878906 L 28.507812 11.878906 C 29.089844 11.878906 29.5625 12.351562 29.5625 12.933594 Z M 29.5625 14.777344 "/>
    <path style=" stroke:none;fill-rule:nonzero;fill:rgb(41.176471%,35.686275%,35.686275%);fill-opacity:1;" d="M 9.773438 19.984375 C 9.773438 20.566406 9.300781 21.039062 8.71875 21.039062 L 7.488281 21.039062 C 6.90625 21.039062 6.433594 20.566406 6.433594 19.984375 L 6.433594 18.140625 C 6.433594 17.558594 6.90625 17.085938 7.488281 17.085938 L 8.71875 17.085938 C 9.300781 17.085938 9.773438 17.558594 9.773438 18.140625 Z M 29.5625 19.984375 C 29.5625 20.566406 29.089844 21.039062 28.507812 21.039062 L 27.277344 21.039062 C 26.695312 21.039062 26.222656 20.566406 26.222656 19.984375 L 26.222656 18.140625 C 26.222656 17.558594 26.695312 17.085938 27.277344 17.085938 L 28.507812 17.085938 C 29.089844 17.085938 29.5625 17.558594 29.5625 18.140625 Z M 29.5625 19.984375 "/>
    <path style=" stroke:none;fill-rule:nonzero;fill:rgb(100%,100%,100%);fill-opacity:1;" d="M 8.898438 13.085938 C 8.898438 13.523438 8.542969 13.878906 8.105469 13.878906 C 7.667969 13.878906 7.316406 13.523438 7.316406 13.085938 C 7.316406 12.648438 7.667969 12.296875 8.105469 12.296875 C 8.542969 12.296875 8.898438 12.648438 8.898438 13.085938 Z M 8.898438 13.085938 "/>
    <path style=" stroke:none;fill-rule:nonzero;fill:rgb(100%,100%,100%);fill-opacity:1;" d="M 28.683594 13.085938 C 28.683594 13.523438 28.332031 13.878906 27.894531 13.878906 C 27.457031 13.878906 27.101562 13.523438 27.101562 13.085938 C 27.101562 12.648438 27.457031 12.296875 27.894531 12.296875 C 28.332031 12.296875 28.683594 12.648438 28.683594 13.085938 Z M 28.683594 13.085938 "/>
  </g>
</svg>