<?xml version="1.0" encoding="UTF-8" standalone="yes"?>
<svg xmlns="http://www.w3.org/2000/svg" xmlns:xlink="http://www.w3.org/1999/xlink" width="48px" height="48px" viewBox="0 0 36 36" version="1.1">
  <g id="surface1">
    <path style=" stroke:none;fill-rule:nonzero;fill:rgb(24.313725%,26.27451%,27.843137%);fill-opacity:1;" d="M 34.503906 23.527344 C 32.683594 19.292969 25.917969 22.976562 18 22.976562 C 10.082031 22.976562 3.316406 19.292969 1.496094 23.527344 C -0.539062 27.574219 5.898438 34.84375 18 34.84375 C 30.101562 34.84375 36.539062 27.574219 34.503906 23.527344 Z M 34.503906 23.527344 "/>
    <path style=" stroke:none;fill-rule:nonzero;fill:rgb(24.313725%,26.27451%,27.843137%);fill-opacity:1;" d="M 18 1.09375 C 10.097656 1.128906 4.464844 4.578125 5.21875 6.472656 C 7.378906 13.503906 8.167969 19.851562 7.46875 26.882812 C 14.53125 28.589844 21.457031 28.480469 28.519531 26.777344 C 27.820312 19.746094 28.625 13.503906 30.78125 6.476562 C 31.535156 4.578125 25.902344 1.128906 18 1.09375 Z M 18 1.09375 "/>
    <path style=" stroke:none;fill-rule:nonzero;fill:rgb(92.941176%,29.803922%,36.078431%);fill-opacity:1;" d="M 7.664062 22.796875 C 7.785156 24.210938 7.019531 26.878906 7.019531 26.878906 C 13.558594 33.101562 22.441406 33.101562 28.980469 26.878906 C 28.980469 26.878906 28.363281 24.238281 28.339844 22.796875 C 21.699219 28.773438 14.300781 28.773438 7.664062 22.796875 Z M 7.664062 22.796875 "/>
    <path style=" stroke:none;fill-rule:nonzero;fill:rgb(39.607843%,42.745098%,44.705882%);fill-opacity:1;" d="M 30.921875 5.847656 C 30.921875 8.472656 25.136719 10.597656 18 10.597656 C 10.863281 10.597656 5.082031 8.472656 5.082031 5.847656 C 5.082031 3.21875 10.863281 1.09375 18 1.09375 C 25.136719 1.09375 30.921875 3.21875 30.921875 5.847656 Z M 30.921875 5.847656 "/>
  </g>
</svg>