<?xml version="1.0" encoding="UTF-8" standalone="yes"?>
<svg xmlns="http://www.w3.org/2000/svg" xmlns:xlink="http://www.w3.org/1999/xlink" width="48px" height="48px" viewBox="0 0 36 36" version="1.1">
  <g id="surface1">
    <path style=" stroke:none;fill-rule:nonzero;fill:rgb(92.941176%,29.803922%,36.078431%);fill-opacity:1;" d="M 11.710938 3.578125 L 22.988281 14.910156 L 16.714844 21.179688 L 1.25 5.714844 Z M 11.710938 3.578125 "/>
    <path style=" stroke:none;fill-rule:nonzero;fill:rgb(92.941176%,29.803922%,36.078431%);fill-opacity:1;" d="M 5.96875 3.238281 C 3.03125 3.742188 0.871094 4.777344 1.148438 5.550781 C 1.425781 6.320312 4.03125 6.535156 6.972656 6.027344 C 9.910156 5.523438 12.066406 4.488281 11.792969 3.714844 C 11.515625 2.945312 8.910156 2.730469 5.96875 3.238281 Z M 5.96875 3.238281 "/>
    <path style=" stroke:none;fill-rule:nonzero;fill:rgb(100%,50.196078%,50.196078%);fill-opacity:1;" d="M 6.082031 3.242188 C 3.332031 3.71875 1.3125 4.6875 1.570312 5.410156 C 1.828125 6.128906 4.269531 6.332031 7.023438 5.855469 C 9.773438 5.382812 11.792969 4.414062 11.535156 3.691406 C 11.273438 2.96875 8.835938 2.769531 6.082031 3.242188 Z M 6.082031 3.242188 "/>
    <path style=" stroke:none;fill-rule:nonzero;fill:rgb(90.980392%,90.980392%,90.980392%);fill-opacity:1;" d="M 18.914062 24.300781 L 9.449219 14.835938 L 16.675781 7.613281 L 26.140625 17.078125 Z M 18.914062 24.300781 "/>
    <path style=" stroke:none;fill-rule:nonzero;fill:rgb(33.333333%,35.686275%,38.039216%);fill-opacity:1;" d="M 27.332031 33.039062 L 24.972656 30.683594 L 32.515625 23.136719 L 34.875 25.492188 Z M 27.332031 33.039062 "/>
    <path style=" stroke:none;fill-rule:nonzero;fill:rgb(69.803922%,75.686275%,75.294118%);fill-opacity:1;" d="M 17.972656 23.679688 L 15.78125 21.488281 L 23.324219 13.941406 L 25.515625 16.132812 Z M 17.972656 23.679688 "/>
    <path style=" stroke:none;fill-rule:nonzero;fill:rgb(24.313725%,26.27451%,27.843137%);fill-opacity:1;" d="M 26.152344 32.675781 L 16.4375 22.960938 L 24.800781 14.601562 L 34.511719 24.316406 Z M 26.152344 32.675781 "/>
  </g>
</svg>