<?xml version="1.0" encoding="UTF-8" standalone="yes"?>
<svg xmlns="http://www.w3.org/2000/svg" xmlns:xlink="http://www.w3.org/1999/xlink" width="48px" height="48px" viewBox="0 0 36 36" version="1.1">
  <g id="surface1">
    <path style=" stroke:none;fill-rule:nonzero;fill:rgb(100%,61.568627%,20%);fill-opacity:1;" d="M 32.042969 14.71875 C 32.042969 14.71875 30.332031 16.277344 27.476562 18.136719 C 26.695312 13.589844 24.535156 7.976562 20.253906 1.125 C 20.253906 1.125 18.855469 8.476562 14.191406 15.433594 C 12.15625 12.285156 11.285156 9.8125 11.285156 9.8125 C -3.382812 24.480469 8.777344 34.875 16.410156 34.875 C 26.214844 34.875 34.839844 30.171875 32.042969 14.71875 Z M 32.042969 14.71875 "/>
    <path style=" stroke:none;fill-rule:nonzero;fill:rgb(100%,80.784314%,19.215686%);fill-opacity:1;" d="M 26.28125 27.804688 C 27.132812 25.9375 27.71875 23.546875 27.855469 20.496094 C 27.855469 20.496094 26.660156 21.535156 24.660156 22.773438 C 24.113281 19.742188 22.601562 16.003906 19.601562 11.433594 C 19.601562 11.433594 18.625 16.332031 15.359375 20.972656 C 13.9375 18.871094 13.328125 17.226562 13.328125 17.226562 C 10.890625 21.0625 9.9375 24.105469 9.882812 26.484375 C 8.535156 25.992188 7.707031 25.566406 7.707031 25.566406 C 10.011719 32.441406 14.78125 33.9375 16.914062 33.9375 C 20.730469 33.9375 24.613281 32.808594 28.464844 27.351562 C 28.464844 27.351562 27.621094 27.585938 26.28125 27.804688 Z M 26.28125 27.804688 "/>
    <path style=" stroke:none;fill-rule:nonzero;fill:rgb(100%,87.45098%,52.156863%);fill-opacity:1;" d="M 12.335938 24.667969 C 12.335938 24.667969 13.910156 26.820312 15.105469 26.300781 C 15.105469 26.300781 17.378906 22.757812 20.640625 20.785156 C 20.640625 20.785156 19.96875 26.1875 20.738281 27.144531 C 21.761719 28.414062 24.527344 25.734375 24.527344 25.734375 C 24.527344 28.929688 21.035156 32.953125 17.910156 32.953125 C 14.808594 32.953125 10.410156 29.488281 12.335938 24.667969 Z M 12.335938 24.667969 "/>
    <path style=" stroke:none;fill-rule:nonzero;fill:rgb(100%,61.568627%,20%);fill-opacity:1;" d="M 28 10.191406 C 28.75 9.089844 29.410156 7.933594 29.980469 6.726562 C 31.953125 9.976562 30.789062 11.953125 29.921875 12.597656 C 28.757812 13.464844 26.640625 12.167969 28 10.191406 Z M 6.507812 9.636719 C 5.351562 7.652344 5.222656 5.183594 5.222656 5.183594 C 2.40625 9.429688 3.507812 11.738281 4.445312 12.4375 C 5.703125 13.378906 7.835938 11.929688 6.507812 9.636719 Z M 13.058594 5.226562 C 13.203125 3.894531 12.644531 2.511719 12.644531 2.511719 C 15.316406 4.234375 15.28125 5.734375 14.933594 6.320312 C 14.464844 7.105469 12.890625 6.765625 13.058594 5.226562 Z M 13.058594 5.226562 "/>
  </g>
</svg>