<?xml version="1.0" encoding="UTF-8" standalone="yes"?>
<svg xmlns="http://www.w3.org/2000/svg" xmlns:xlink="http://www.w3.org/1999/xlink" width="48px" height="48px" viewBox="0 0 36 36" version="1.1">
  <defs>
    <filter id="alpha" filterUnits="objectBoundingBox" x="0%" y="0%" width="100%" height="100%">
      <feColorMatrix type="matrix" in="SourceGraphic" values="0 0 0 0 1 0 0 0 0 1 0 0 0 0 1 0 0 0 1 0"/>
    </filter>
    <mask id="mask0">
      <g filter="url(#alpha)">
        <rect x="0" y="0" width="36" height="36" style="fill:rgb(0%,0%,0%);fill-opacity:0.301961;stroke:none;"/>
      </g>
    </mask>
    <mask id="mask1">
      <g filter="url(#alpha)">
        <rect x="0" y="0" width="36" height="36" style="fill:rgb(0%,0%,0%);fill-opacity:0.301961;stroke:none;"/>
      </g>
    </mask>
    <clipPath id="clip1">
      <rect width="36" height="36"/>
    </clipPath>
    <clipPath id="clip2">
      <rect width="36" height="36"/>
    </clipPath>
    <g id="surface6" clip-path="url(#clip1)">
      <path style=" stroke:none;fill-rule:nonzero;fill:rgb(80.392157%,92.54902%,98.823529%);fill-opacity:1;" d="M 18.191406 10.03125 C 17.886719 9.339844 16.589844 9.339844 14.910156 9.910156 C 14.707031 8.035156 14.179688 6.765625 13.464844 6.746094 C 12.75 6.730469 12.035156 7.96875 11.558594 9.828125 C 9.972656 9.179688 8.679688 9.113281 8.269531 9.789062 C 7.863281 10.460938 8.445312 11.699219 9.648438 12.988281 C 8.257812 14.214844 7.496094 15.417969 7.800781 16.113281 C 8.105469 16.800781 9.40625 16.800781 11.085938 16.230469 C 11.285156 18.105469 11.8125 19.375 12.527344 19.394531 C 13.242188 19.410156 13.957031 18.171875 14.433594 16.308594 C 16.023438 16.960938 17.316406 17.027344 17.722656 16.351562 C 18.132812 15.679688 17.546875 14.441406 16.34375 13.152344 C 17.734375 11.925781 18.5 10.71875 18.191406 10.03125 Z M 18.191406 10.03125 "/>
    </g>
    <g id="surface9" clip-path="url(#clip2)">
      <path style=" stroke:none;fill-rule:nonzero;fill:rgb(80.392157%,92.54902%,98.823529%);fill-opacity:1;" d="M 11.488281 11.617188 C 11.226562 11.023438 10.105469 11.023438 8.660156 11.515625 C 8.484375 9.898438 8.03125 8.800781 7.414062 8.789062 C 6.800781 8.773438 6.183594 9.839844 5.773438 11.445312 C 4.40625 10.882812 3.289062 10.828125 2.9375 11.40625 C 2.585938 11.988281 3.089844 13.058594 4.125 14.167969 C 2.929688 15.222656 2.269531 16.261719 2.535156 16.859375 C 2.796875 17.453125 3.917969 17.453125 5.363281 16.960938 C 5.535156 18.578125 5.992188 19.671875 6.605469 19.6875 C 7.222656 19.703125 7.839844 18.636719 8.246094 17.03125 C 9.617188 17.59375 10.734375 17.648438 11.085938 17.066406 C 11.433594 16.488281 10.933594 15.417969 9.894531 14.308594 C 11.09375 13.25 11.753906 12.210938 11.488281 11.617188 Z M 11.488281 11.617188 "/>
    </g>
  </defs>
  <g id="surface1">
    <path style=" stroke:none;fill-rule:nonzero;fill:rgb(62.352941%,49.019608%,80%);fill-opacity:1;" d="M 25.480469 13.191406 C 25.09375 8.738281 23.773438 6.273438 18.183594 6.273438 C 12.589844 6.273438 11.269531 8.738281 10.882812 13.191406 C 10.882812 13.191406 13.640625 12.363281 18.183594 12.363281 C 22.722656 12.363281 25.480469 13.191406 25.480469 13.191406 Z M 25.480469 13.191406 "/>
    <path style=" stroke:none;fill-rule:nonzero;fill:rgb(52.156863%,42.745098%,66.666667%);fill-opacity:1;" d="M 18.183594 6.273438 C 12.589844 6.273438 11.269531 8.738281 10.882812 13.191406 C 10.882812 13.191406 13.640625 12.363281 18.183594 12.363281 C 22.722656 12.363281 16.34375 9.210938 18.183594 6.273438 Z M 18.183594 6.273438 "/>
    <path style=" stroke:none;fill-rule:nonzero;fill:rgb(100%,96.470588%,32.156863%);fill-opacity:1;" d="M 26.023438 13.050781 C 26.023438 13.050781 23.0625 12.160156 18.183594 12.160156 C 13.300781 12.160156 10.339844 13.050781 10.339844 13.050781 C 10.199219 14.695312 10.171875 16.347656 10.257812 17.996094 C 10.257812 17.996094 13.585938 17.15625 18.183594 17.15625 C 22.78125 17.15625 26.105469 17.996094 26.105469 17.996094 C 26.191406 16.347656 26.164062 14.695312 26.023438 13.050781 Z M 26.023438 13.050781 "/>
    <path style=" stroke:none;fill-rule:nonzero;fill:rgb(86.666667%,82.352941%,26.27451%);fill-opacity:1;" d="M 20.1875 12.210938 C 20.1875 12.210938 19.140625 12.121094 18.183594 12.121094 C 13.300781 12.121094 10.339844 13.050781 10.339844 13.050781 C 10.199219 14.695312 10.171875 16.347656 10.257812 17.996094 C 10.257812 17.996094 13.582031 17.15625 18.183594 17.15625 C 22.78125 17.15625 21.792969 14.714844 21.191406 14.617188 C 19.96875 14.414062 20.273438 13.207031 20.1875 12.210938 Z M 20.1875 12.210938 "/>
    <path style=" stroke:none;fill-rule:nonzero;fill:rgb(62.352941%,49.019608%,80%);fill-opacity:1;" d="M 18.296875 14.910156 C 25.691406 13.886719 31.675781 16.386719 35.664062 19.410156 C 38.292969 21.402344 24.953125 15.417969 15.863281 23.945312 C 7.164062 32.105469 -1.632812 31.070312 0.902344 25.03125 C 3.140625 19.703125 8.988281 16.195312 18.296875 14.910156 Z M 18.296875 14.910156 "/>
    <path style=" stroke:none;fill-rule:nonzero;fill:rgb(52.156863%,42.745098%,66.666667%);fill-opacity:1;" d="M 26.140625 15.117188 C 26.140625 15.117188 19.75 14.625 12.796875 21.519531 C 4.320312 29.929688 -1.367188 28.480469 2.074219 22.945312 C 5.515625 17.40625 16.207031 12.960938 26.140625 15.117188 Z M 26.140625 15.117188 "/>
    <path style=" stroke:none;fill-rule:nonzero;fill:rgb(60%,81.176471%,96.470588%);fill-opacity:1;" d="M 11.054688 15.40625 C 13.019531 14.265625 14.214844 12.949219 14 11.960938 C 13.78125 10.96875 12.207031 10.558594 10.039062 10.761719 C 10.214844 8.273438 9.859375 6.464844 8.996094 6.214844 C 8.132812 5.96875 6.988281 7.339844 5.992188 9.59375 C 4.210938 8.246094 2.65625 7.753906 2.007812 8.496094 C 1.363281 9.234375 1.792969 11.023438 2.964844 13.070312 C 1.003906 14.210938 -0.195312 15.527344 0.0234375 16.515625 C 0.242188 17.507812 1.816406 17.917969 3.984375 17.710938 C 3.804688 20.199219 4.164062 22.011719 5.027344 22.257812 C 5.886719 22.507812 7.035156 21.132812 8.027344 18.878906 C 9.8125 20.226562 11.367188 20.71875 12.011719 19.980469 C 12.660156 19.242188 12.230469 17.453125 11.054688 15.40625 Z M 11.054688 15.40625 "/>
    <path style=" stroke:none;fill-rule:nonzero;fill:rgb(45.882353%,71.764706%,91.764706%);fill-opacity:1;" d="M 18.390625 12.660156 C 18.324219 11.734375 16.882812 11.054688 14.789062 10.8125 C 15.3125 8.621094 15.230469 6.933594 14.441406 6.542969 C 13.65625 6.148438 12.371094 7.148438 11.101562 8.96875 C 9.597656 7.410156 8.183594 6.664062 7.464844 7.199219 C 6.746094 7.734375 6.898438 9.414062 7.726562 11.476562 C 5.695312 12.109375 4.367188 13.050781 4.433594 13.976562 C 4.496094 14.90625 5.941406 15.582031 8.035156 15.828125 C 7.511719 18.015625 7.59375 19.703125 8.378906 20.097656 C 9.164062 20.488281 10.453125 19.488281 11.71875 17.667969 C 13.226562 19.226562 14.636719 19.972656 15.355469 19.4375 C 16.078125 18.90625 15.921875 17.222656 15.097656 15.164062 C 17.128906 14.53125 18.453125 13.589844 18.390625 12.660156 Z M 18.390625 12.660156 "/>
    <use xlink:href="#surface6" mask="url(#mask0)"/>
    <use xlink:href="#surface9" mask="url(#mask1)"/>
  </g>
</svg>