<?xml version="1.0" encoding="UTF-8" standalone="yes"?>
<svg xmlns="http://www.w3.org/2000/svg" xmlns:xlink="http://www.w3.org/1999/xlink" width="48px" height="48px" viewBox="0 0 36 36" version="1.1">
  <g id="surface1">
    <path style=" stroke:none;fill-rule:nonzero;fill:rgb(25.882353%,67.843137%,88.627451%);fill-opacity:1;" d="M 35.835938 9.078125 C 35.835938 9.078125 32.394531 2.335938 31.507812 1.816406 C 30.621094 1.296875 25.625 1.402344 23.738281 0.675781 C 23.738281 0.675781 21.433594 3.371094 17.980469 3.371094 C 14.527344 3.371094 12.222656 0.675781 12.222656 0.675781 C 10.335938 1.402344 5.339844 1.296875 4.453125 1.816406 C 3.566406 2.335938 0.125 9.078125 0.125 9.078125 C 2.011719 13.4375 6.5625 14.371094 6.5625 14.371094 L 8.339844 11.570312 L 7.507812 33.355469 C 11.832031 35.84375 14.945312 36 17.980469 36 C 21.015625 36 24.128906 35.84375 28.457031 33.355469 L 27.621094 11.570312 L 29.398438 14.371094 C 29.398438 14.371094 33.949219 13.4375 35.835938 9.078125 Z M 35.835938 9.078125 "/>
    <path style=" stroke:none;fill-rule:nonzero;fill:rgb(13.333333%,39.215686%,54.901961%);fill-opacity:1;" d="M 18.136719 4.03125 C 17.261719 4.03125 16.371094 3.867188 15.488281 3.542969 C 14.753906 3.273438 14.058594 2.917969 13.410156 2.484375 C 12.261719 1.730469 11.570312 0.972656 11.539062 0.9375 L 12.597656 0.101562 L 12.070312 0.519531 L 12.597656 0.101562 C 12.605469 0.105469 13.226562 0.785156 14.242188 1.449219 C 15.140625 2.035156 16.542969 2.734375 18.136719 2.734375 L 18.164062 2.734375 C 19.992188 2.722656 21.734375 1.804688 23.34375 0 L 24.410156 0.832031 C 23.421875 1.941406 22.359375 2.773438 21.253906 3.304688 C 20.261719 3.78125 19.222656 4.027344 18.164062 4.03125 C 18.152344 4.03125 18.144531 4.03125 18.136719 4.03125 Z M 7.320312 13.175781 C 5.363281 13.011719 3.679688 12.054688 2.3125 10.332031 C 1.695312 9.546875 1.191406 8.683594 0.8125 7.761719 L 0 9.261719 C 0.285156 9.804688 0.671875 10.4375 1.171875 11.070312 C 1.945312 12.054688 2.839844 12.84375 3.824219 13.414062 C 4.671875 13.90625 5.601562 14.234375 6.566406 14.390625 Z M 28.679688 13.214844 C 30.636719 13.050781 32.320312 12.09375 33.6875 10.371094 C 34.300781 9.585938 34.808594 8.722656 35.1875 7.800781 L 36 9.300781 C 35.664062 9.9375 35.273438 10.542969 34.828125 11.109375 C 34.054688 12.09375 33.160156 12.882812 32.175781 13.453125 C 31.328125 13.941406 30.398438 14.273438 29.429688 14.429688 Z M 28.679688 13.214844 "/>
  </g>
</svg>