<?xml version="1.0" encoding="UTF-8" standalone="yes"?>
<svg xmlns="http://www.w3.org/2000/svg" xmlns:xlink="http://www.w3.org/1999/xlink" width="48px" height="48px" viewBox="0 0 36 36" version="1.1">
  <g id="surface1">
    <path style=" stroke:none;fill-rule:nonzero;fill:rgb(25.882353%,54.509804%,75.686275%);fill-opacity:1;" d="M 27.0625 7.886719 L 27.0625 0 L 8.9375 0 L 8.9375 7.886719 C 5.292969 26.152344 7.304688 35.640625 7.304688 35.640625 L 16.367188 32.714844 C 13.785156 20.703125 18 12.652344 18 12.652344 L 18.945312 12.652344 C 18.945312 12.652344 22.214844 20.703125 19.632812 32.710938 L 28.695312 35.640625 C 28.695312 35.640625 30.710938 26.152344 27.0625 7.886719 Z M 27.0625 7.886719 "/>
    <path style=" stroke:none;fill-rule:nonzero;fill:rgb(20.392157%,47.843137%,64.705882%);fill-opacity:1;" d="M 23.214844 14.601562 C 23.101562 14.800781 22.054688 14.425781 20.878906 13.765625 C 19.703125 13.101562 18.84375 12.402344 18.957031 12.199219 C 19.074219 12 20.117188 12.375 21.296875 13.039062 C 22.46875 13.699219 23.332031 14.402344 23.214844 14.601562 Z M 25.015625 24.773438 C 24.898438 24.972656 23.855469 24.597656 22.679688 23.9375 C 21.503906 23.273438 20.644531 22.574219 20.757812 22.371094 C 20.875 22.171875 21.917969 22.546875 23.09375 23.210938 C 24.269531 23.875 25.128906 24.574219 25.015625 24.773438 Z M 28.835938 33.265625 C 28.71875 33.464844 27.675781 33.09375 26.5 32.429688 C 25.320312 31.765625 24.460938 31.066406 24.578125 30.867188 C 24.691406 30.667969 25.738281 31.039062 26.914062 31.703125 C 28.089844 32.367188 28.953125 33.066406 28.835938 33.265625 Z M 28.835938 33.265625 "/>
    <path style=" stroke:none;fill-rule:nonzero;fill:rgb(20.392157%,47.843137%,64.705882%);fill-opacity:1;" d="M 28.710938 33.3125 C 28.5 33.40625 27.882812 32.492188 27.328125 31.269531 C 26.777344 30.046875 26.503906 28.976562 26.714844 28.882812 C 26.929688 28.789062 27.546875 29.703125 28.101562 30.929688 C 28.652344 32.152344 28.925781 33.21875 28.710938 33.3125 Z M 28.710938 33.3125 "/>
    <path style=" stroke:none;fill-rule:nonzero;fill:rgb(20.392157%,47.843137%,64.705882%);fill-opacity:1;" d="M 25.082031 22.507812 C 25.082031 22.335938 24.136719 22.199219 22.96875 22.199219 C 21.800781 22.199219 20.855469 22.335938 20.855469 22.507812 C 20.855469 22.675781 21.800781 22.8125 22.96875 22.8125 C 24.136719 22.8125 25.082031 22.675781 25.082031 22.507812 Z M 25.082031 22.507812 "/>
    <path style=" stroke:none;fill-rule:nonzero;fill:rgb(20.392157%,47.843137%,64.705882%);fill-opacity:1;" d="M 24.75 20.914062 C 24.808594 21.074219 23.972656 21.527344 22.875 21.929688 C 21.78125 22.332031 20.847656 22.527344 20.789062 22.367188 C 20.726562 22.207031 21.566406 21.753906 22.660156 21.351562 C 23.753906 20.949219 24.691406 20.753906 24.75 20.914062 Z M 24.625 10.054688 C 24.535156 9.964844 24.96875 9.382812 25.597656 8.761719 C 26.226562 8.136719 26.808594 7.703125 26.902344 7.792969 C 26.992188 7.878906 26.558594 8.460938 25.929688 9.085938 C 25.300781 9.710938 24.714844 10.144531 24.625 10.054688 Z M 24.625 10.054688 "/>
    <path style=" stroke:none;fill-rule:nonzero;fill:rgb(20.392157%,47.843137%,64.705882%);fill-opacity:1;" d="M 25.078125 11.128906 C 24.96875 11.0625 25.324219 10.300781 25.867188 9.429688 C 26.410156 8.558594 26.941406 7.910156 27.050781 7.976562 C 27.15625 8.042969 26.804688 8.804688 26.261719 9.675781 C 25.71875 10.542969 25.1875 11.195312 25.078125 11.128906 Z M 20.554688 15.375 C 20.441406 15.429688 20.019531 14.84375 19.609375 14.058594 C 19.203125 13.273438 18.964844 12.59375 19.078125 12.535156 C 19.195312 12.476562 19.617188 13.0625 20.023438 13.847656 C 20.433594 14.632812 20.671875 15.316406 20.554688 15.375 Z M 20.554688 15.375 "/>
    <path style=" stroke:none;fill-rule:nonzero;fill:rgb(20.392157%,47.843137%,64.705882%);fill-opacity:1;" d="M 26.199219 12.808594 C 26.222656 12.578125 24.617188 12.222656 22.617188 12.015625 C 20.613281 11.808594 18.96875 11.828125 18.945312 12.058594 C 18.921875 12.285156 20.527344 12.640625 22.53125 12.847656 C 24.53125 13.054688 26.175781 13.035156 26.199219 12.808594 Z M 26.199219 12.808594 "/>
    <path style=" stroke:none;fill-rule:nonzero;fill:rgb(20.392157%,47.843137%,64.705882%);fill-opacity:1;" d="M 19.785156 30.3125 L 29.25 33.773438 L 28.878906 36 L 19.289062 33.054688 Z M 19.785156 30.3125 "/>
    <path style=" stroke:none;fill-rule:nonzero;fill:rgb(20.392157%,47.843137%,64.705882%);fill-opacity:1;" d="M 13.59375 14.8125 C 13.707031 15.011719 14.753906 14.636719 15.929688 13.972656 C 17.105469 13.308594 17.96875 12.609375 17.851562 12.410156 C 17.734375 12.210938 16.6875 12.585938 15.515625 13.246094 C 14.335938 13.910156 13.476562 14.609375 13.59375 14.8125 Z M 11.019531 24.5 C 11.105469 24.714844 12.195312 24.476562 13.445312 23.96875 C 14.699219 23.460938 15.640625 22.875 15.554688 22.660156 C 15.464844 22.449219 14.378906 22.6875 13.125 23.195312 C 11.875 23.703125 10.929688 24.289062 11.019531 24.5 Z M 7.164062 33.265625 C 7.28125 33.464844 8.324219 33.09375 9.5 32.429688 C 10.675781 31.765625 11.535156 31.066406 11.421875 30.867188 C 11.304688 30.667969 10.261719 31.039062 9.082031 31.703125 C 7.910156 32.367188 7.046875 33.066406 7.164062 33.265625 Z M 7.164062 33.265625 "/>
    <path style=" stroke:none;fill-rule:nonzero;fill:rgb(20.392157%,47.843137%,64.705882%);fill-opacity:1;" d="M 7.289062 33.3125 C 7.5 33.40625 8.117188 32.492188 8.671875 31.269531 C 9.222656 30.046875 9.496094 28.976562 9.28125 28.882812 C 9.070312 28.789062 8.449219 29.703125 7.898438 30.929688 C 7.347656 32.152344 7.074219 33.21875 7.289062 33.3125 Z M 7.289062 33.3125 "/>
    <path style=" stroke:none;fill-rule:nonzero;fill:rgb(20.392157%,47.843137%,64.705882%);fill-opacity:1;" d="M 11.175781 22.144531 C 11.15625 22.3125 12.074219 22.574219 13.230469 22.726562 C 14.386719 22.878906 15.34375 22.863281 15.367188 22.695312 C 15.386719 22.527344 14.46875 22.265625 13.3125 22.113281 C 12.15625 21.960938 11.199219 21.972656 11.175781 22.144531 Z M 11.175781 22.144531 "/>
    <path style=" stroke:none;fill-rule:nonzero;fill:rgb(20.392157%,47.843137%,64.705882%);fill-opacity:1;" d="M 11.375 10.054688 C 11.464844 9.964844 11.03125 9.382812 10.402344 8.761719 C 9.773438 8.136719 9.191406 7.703125 9.097656 7.792969 C 9.007812 7.878906 9.441406 8.460938 10.070312 9.085938 C 10.699219 9.710938 11.285156 10.144531 11.375 10.054688 Z M 11.375 10.054688 "/>
    <path style=" stroke:none;fill-rule:nonzero;fill:rgb(20.392157%,47.843137%,64.705882%);fill-opacity:1;" d="M 10.980469 10.9375 C 11.089844 10.871094 10.738281 10.109375 10.191406 9.238281 C 9.648438 8.367188 9.117188 7.71875 9.007812 7.785156 C 8.902344 7.851562 9.253906 8.609375 9.796875 9.480469 C 10.339844 10.351562 10.871094 11.003906 10.980469 10.9375 Z M 16.253906 15.375 C 16.367188 15.429688 16.789062 14.84375 17.199219 14.058594 C 17.605469 13.273438 17.84375 12.59375 17.730469 12.535156 C 17.613281 12.476562 17.191406 13.0625 16.785156 13.847656 C 16.375 14.632812 16.136719 15.316406 16.253906 15.375 Z M 16.214844 30.3125 L 6.75 33.773438 L 7.121094 36 L 16.710938 33.054688 Z M 16.214844 30.3125 "/>
    <path style=" stroke:none;fill-rule:nonzero;fill:rgb(100%,80.784314%,19.215686%);fill-opacity:1;" d="M 19.703125 1.472656 C 19.703125 1.085938 19.363281 0.769531 18.945312 0.769531 C 18.53125 0.769531 18.191406 1.085938 18.191406 1.472656 C 18.191406 1.863281 18.53125 2.175781 18.945312 2.175781 C 19.363281 2.175781 19.703125 1.863281 19.703125 1.472656 Z M 19.703125 1.472656 "/>
    <path style=" stroke:none;fill-rule:nonzero;fill:rgb(24.313725%,26.27451%,27.843137%);fill-opacity:1;" d="M 24.277344 6.582031 C 23.253906 5.527344 23.132812 3.964844 23.136719 3.289062 L 27.0625 3.289062 L 27.0625 2.953125 L 23.386719 2.953125 L 23.386719 0 L 22.515625 0 L 22.515625 2.953125 L 17.875 2.953125 L 17.875 0 L 17.636719 0 L 17.636719 2.953125 L 13.515625 2.953125 L 13.515625 0 L 12.644531 0 L 12.644531 2.953125 L 8.9375 2.953125 L 8.9375 3.289062 L 12.933594 3.289062 C 12.933594 3.964844 12.816406 5.527344 11.792969 6.582031 C 11.09375 7.300781 10.210938 7.664062 8.9375 7.664062 L 8.9375 7.886719 C 10.28125 7.886719 11.222656 7.5 11.96875 6.730469 C 13.0625 5.609375 13.179688 3.996094 13.175781 3.289062 L 17.085938 3.289062 L 17.085938 11.6875 C 17.085938 12.21875 17.546875 12.652344 18.113281 12.652344 L 19.144531 12.652344 L 19.144531 3.289062 L 22.894531 3.289062 C 22.890625 3.996094 23.007812 5.609375 24.101562 6.730469 C 24.847656 7.5 25.71875 7.886719 27.0625 7.886719 L 27.0625 7.664062 C 25.789062 7.664062 24.976562 7.300781 24.277344 6.582031 Z M 22.75 0.222656 L 23.148438 0.222656 L 23.148438 2.949219 L 23.03125 2.949219 L 22.910156 2.9375 C 22.910156 2.941406 22.910156 2.945312 22.910156 2.949219 L 22.75 2.949219 Z M 12.882812 0.222656 L 13.277344 0.222656 L 13.277344 2.949219 L 13.160156 2.949219 L 13.160156 2.9375 L 13.039062 2.949219 L 12.882812 2.949219 Z M 18.90625 12.429688 L 18.113281 12.429688 C 17.675781 12.429688 17.320312 12.097656 17.320312 11.6875 L 17.320312 3.289062 L 18.90625 3.289062 Z M 18.90625 12.429688 "/>
  </g>
</svg>