<?xml version="1.0" encoding="UTF-8" standalone="yes"?>
<svg xmlns="http://www.w3.org/2000/svg" xmlns:xlink="http://www.w3.org/1999/xlink" width="48px" height="48px" viewBox="0 0 36 36" version="1.1">
  <g id="surface1">
    <path style=" stroke:none;fill-rule:nonzero;fill:rgb(70.980392%,25.490196%,32.156863%);fill-opacity:1;" d="M 12.324219 1.25 L 22.726562 1.25 L 18.03125 6.5625 Z M 12.324219 1.25 "/>
    <path style=" stroke:none;fill-rule:nonzero;fill:rgb(82.745098%,59.215686%,38.431373%);fill-opacity:1;" d="M 23.175781 1.859375 L 12.402344 1.859375 L 12.402344 0 L 23.398438 0 Z M 23.175781 1.859375 "/>
    <path style=" stroke:none;fill-rule:nonzero;fill:rgb(92.941176%,29.803922%,36.078431%);fill-opacity:1;" d="M 6.199219 2.597656 L 11.902344 0.941406 L 17.953125 5.355469 L 24.003906 0.941406 L 29.707031 2.597656 C 29.707031 2.597656 30.167969 10.1875 35.253906 16.949219 C 35.253906 16.949219 34.023438 21.5 29.628906 25.089844 C 29.628906 25.089844 26.695312 16.476562 26.160156 8.945312 C 26.160156 8.945312 25.851562 12.257812 24.003906 16.121094 C 22.632812 18.984375 28.996094 26.449219 28.550781 34.648438 C 28.550781 34.648438 23.460938 36 17.953125 36 C 12.441406 36 7.355469 34.648438 7.355469 34.648438 C 6.90625 26.445312 13.273438 18.992188 11.902344 16.121094 C 10.050781 12.257812 9.746094 8.945312 9.746094 8.945312 C 9.210938 16.476562 6.277344 25.089844 6.277344 25.089844 C 2.878906 21.082031 0.648438 16.949219 0.648438 16.949219 C 5.738281 10.1875 6.199219 2.597656 6.199219 2.597656 Z M 6.199219 2.597656 "/>
    <path style=" stroke:none;fill-rule:nonzero;fill:rgb(91.764706%,67.45098%,43.137255%);fill-opacity:1;" d="M 16.640625 6.433594 L 18.03125 5.238281 L 12.402344 0 L 11.015625 1.195312 Z M 16.640625 6.433594 "/>
    <path style=" stroke:none;fill-rule:nonzero;fill:rgb(100%,78.039216%,54.117647%);fill-opacity:1;" d="M 12.613281 12.554688 C 12.007812 12.4375 11.347656 12.3125 10.65625 12.179688 C 10.828125 11.875 11.019531 11.5625 11.230469 11.246094 C 12.273438 9.6875 13.871094 7.886719 15.972656 5.90625 C 19.515625 2.566406 23.238281 0.113281 23.398438 0 L 24.605469 1.097656 C 24.570312 1.125 20.824219 3.835938 17.371094 7.09375 C 15.367188 8.984375 13.855469 10.679688 12.886719 12.128906 C 12.789062 12.273438 12.699219 12.414062 12.613281 12.554688 Z M 12.613281 12.554688 "/>
    <path style=" stroke:none;fill-rule:nonzero;fill:rgb(100%,78.039216%,54.117647%);fill-opacity:1;" d="M 24.769531 20.628906 C 22.5625 20.261719 19.753906 20.113281 17.324219 20.113281 C 15.375 20.113281 13.023438 20.199219 11.207031 20.441406 C 11.738281 18.867188 12.410156 17.761719 11.789062 16.46875 C 11.109375 15.042969 10.566406 13.5625 10.160156 12.039062 C 12.636719 12.355469 15.253906 12.527344 17.953125 12.527344 C 20.652344 12.527344 23.265625 12.355469 25.746094 12.039062 C 25.339844 13.5625 24.792969 15.042969 24.117188 16.46875 C 23.46875 17.8125 24.195312 18.953125 24.769531 20.628906 Z M 24.769531 20.628906 "/>
    <path style=" stroke:none;fill-rule:nonzero;fill:rgb(91.764706%,67.45098%,43.137255%);fill-opacity:1;" d="M 24.136719 16.796875 L 10.855469 15.160156 L 10.378906 12.730469 L 25.203125 14.558594 Z M 24.136719 16.796875 "/>
    <path style=" stroke:none;fill-rule:nonzero;fill:rgb(100%,78.039216%,54.117647%);fill-opacity:1;" d="M 11.851562 20.402344 L 14.136719 20.402344 L 14.136719 36 L 11.851562 36 Z M 11.851562 20.402344 "/>
    <path style=" stroke:none;fill-rule:nonzero;fill:rgb(91.764706%,67.45098%,43.137255%);fill-opacity:1;" d="M 24.546875 19.613281 L 10.90625 20.746094 L 11.652344 18.347656 L 23.984375 17.300781 Z M 24.546875 19.613281 "/>
    <path style=" stroke:none;fill-rule:nonzero;fill:rgb(100%,78.039216%,54.117647%);fill-opacity:1;" d="M 6.820312 23.367188 L 6.207031 25.679688 L 0 17.679688 L 1.203125 16.183594 Z M 29.136719 23.550781 L 29.792969 25.832031 L 36 17.832031 L 34.804688 16.332031 Z M 23.074219 13.28125 L 24.070312 13.28125 L 24.070312 28.882812 L 23.074219 28.882812 Z M 21.734375 15.160156 L 22.726562 15.160156 L 22.726562 30.757812 L 21.734375 30.757812 Z M 21.734375 15.160156 "/>
    <path style=" stroke:none;fill-rule:nonzero;fill:rgb(91.764706%,67.45098%,43.137255%);fill-opacity:1;" d="M 22.230469 13.882812 L 23.226562 13.882812 L 23.226562 29.484375 L 22.230469 29.484375 Z M 22.230469 13.882812 "/>
    <path style=" stroke:none;fill-rule:nonzero;fill:rgb(91.764706%,67.45098%,43.137255%);fill-opacity:1;" d="M 24.28125 13.609375 C 24.28125 14.558594 23.074219 15.328125 23.074219 15.328125 C 23.074219 15.328125 21.871094 14.558594 21.871094 13.609375 C 21.871094 12.65625 22.410156 13.199219 23.074219 13.199219 C 23.742188 13.199219 24.28125 12.65625 24.28125 13.609375 Z M 24.28125 13.609375 "/>
    <path style=" stroke:none;fill-rule:nonzero;fill:rgb(82.745098%,59.215686%,38.431373%);fill-opacity:1;" d="M 22.644531 13.703125 C 23.292969 14.398438 22.9375 15.707031 22.9375 15.707031 C 22.9375 15.707031 21.527344 15.886719 20.875 15.191406 C 20.226562 14.496094 20.996094 14.558594 21.480469 14.148438 C 21.96875 13.738281 21.992188 13.007812 22.644531 13.703125 Z M 22.644531 13.703125 "/>
    <path style=" stroke:none;fill-rule:nonzero;fill:rgb(100%,78.039216%,54.117647%);fill-opacity:1;" d="M 24.664062 15.199219 C 24.085938 15.757812 22.910156 15.550781 22.910156 15.550781 C 22.910156 15.550781 22.667969 14.433594 23.246094 13.875 C 23.824219 13.316406 23.8125 13.933594 24.203125 14.296875 C 24.59375 14.664062 25.242188 14.636719 24.664062 15.199219 Z M 24.664062 15.199219 "/>
  </g>
</svg>