<?xml version="1.0" encoding="UTF-8" standalone="yes"?>
<svg xmlns="http://www.w3.org/2000/svg" xmlns:xlink="http://www.w3.org/1999/xlink" width="48px" height="48px" viewBox="0 0 36 36" version="1.1">
  <g id="surface1">
    <path style=" stroke:none;fill-rule:nonzero;fill:rgb(53.72549%,40%,29.803922%);fill-opacity:1;" d="M 34.875 18.546875 C 34.875 15.988281 32.796875 13.914062 30.234375 13.914062 C 27.671875 13.914062 25.59375 15.988281 25.59375 18.546875 C 25.59375 21.101562 27.671875 23.175781 30.234375 23.175781 C 32.796875 23.175781 34.875 21.101562 34.875 18.546875 Z M 34.875 18.546875 "/>
    <path style=" stroke:none;fill-rule:nonzero;fill:rgb(100%,77.254902%,82.745098%);fill-opacity:1;" d="M 33.253906 18.546875 C 33.253906 16.878906 31.902344 15.53125 30.234375 15.53125 C 28.566406 15.53125 27.210938 16.878906 27.210938 18.546875 C 27.210938 20.210938 28.566406 21.558594 30.234375 21.558594 C 31.902344 21.558594 33.253906 20.210938 33.253906 18.546875 Z M 33.253906 18.546875 "/>
    <path style=" stroke:none;fill-rule:nonzero;fill:rgb(53.72549%,40%,29.803922%);fill-opacity:1;" d="M 10.40625 18.546875 C 10.40625 15.988281 8.328125 13.914062 5.765625 13.914062 C 3.203125 13.914062 1.125 15.988281 1.125 18.546875 C 1.125 21.101562 3.203125 23.175781 5.765625 23.175781 C 8.328125 23.175781 10.40625 21.101562 10.40625 18.546875 Z M 10.40625 18.546875 "/>
    <path style=" stroke:none;fill-rule:nonzero;fill:rgb(100%,77.254902%,82.745098%);fill-opacity:1;" d="M 8.789062 18.546875 C 8.789062 16.878906 7.433594 15.53125 5.765625 15.53125 C 4.097656 15.53125 2.742188 16.878906 2.742188 18.546875 C 2.742188 20.210938 4.097656 21.558594 5.765625 21.558594 C 7.433594 21.558594 8.789062 20.210938 8.789062 18.546875 Z M 8.789062 18.546875 "/>
    <path style=" stroke:none;fill-rule:nonzero;fill:rgb(53.72549%,40%,29.803922%);fill-opacity:1;" d="M 24.398438 6.0625 C 24.746094 5.878906 25.097656 5.707031 25.460938 5.554688 C 23.636719 4.914062 22.058594 4.539062 20.691406 4.371094 C 21.410156 3.828125 21.890625 3.621094 21.890625 3.621094 C 10.40625 2.003906 4.9375 8.660156 4.9375 14.566406 L 31.058594 14.566406 C 30.667969 10.453125 28.371094 7.640625 24.398438 6.0625 Z M 24.398438 6.0625 "/>
    <path style=" stroke:none;fill-rule:nonzero;fill:rgb(53.72549%,40%,29.803922%);fill-opacity:1;" d="M 31.121094 15.507812 C 31.121094 10.046875 25.246094 5.621094 18 5.621094 C 10.753906 5.621094 4.878906 10.046875 4.878906 15.507812 C 4.878906 16.785156 5.210938 18.003906 5.796875 19.121094 C 5.210938 20.246094 4.878906 21.460938 4.878906 22.738281 C 4.878906 28.199219 10.753906 32.625 18 32.625 C 25.246094 32.625 31.121094 28.199219 31.121094 22.738281 C 31.121094 21.460938 30.785156 20.246094 30.203125 19.121094 C 30.785156 18.003906 31.121094 16.785156 31.121094 15.507812 Z M 31.121094 15.507812 "/>
    <path style=" stroke:none;fill-rule:nonzero;fill:rgb(87.843137%,67.45098%,49.411765%);fill-opacity:1;" d="M 29.261719 15.867188 C 29.261719 6.339844 18 12.40625 18 12.40625 C 18 12.40625 6.738281 6.339844 6.738281 15.867188 C 6.738281 18.53125 8.378906 20.90625 10.941406 22.457031 C 10.195312 23.390625 9.757812 24.476562 9.757812 25.644531 C 9.757812 29.066406 13.449219 31.835938 18 31.835938 C 22.550781 31.835938 26.242188 29.066406 26.242188 25.644531 C 26.242188 24.476562 25.804688 23.390625 25.058594 22.457031 C 27.621094 20.90625 29.261719 18.53125 29.261719 15.867188 Z M 29.261719 15.867188 "/>
    <path style=" stroke:none;fill-rule:nonzero;fill:rgb(23.137255%,18.823529%,16.470588%);fill-opacity:1;" d="M 19.769531 21.792969 C 19.769531 22.433594 19.519531 22.953125 19.207031 22.953125 C 18.894531 22.953125 18.644531 22.433594 18.644531 21.792969 C 18.644531 21.15625 18.894531 20.636719 19.207031 20.636719 C 19.519531 20.636719 19.769531 21.15625 19.769531 21.792969 Z M 17.355469 21.792969 C 17.355469 22.433594 17.105469 22.953125 16.792969 22.953125 C 16.480469 22.953125 16.230469 22.433594 16.230469 21.792969 C 16.230469 21.15625 16.480469 20.636719 16.792969 20.636719 C 17.105469 20.636719 17.355469 21.15625 17.355469 21.792969 Z M 17.355469 21.792969 "/>
    <path style=" stroke:none;fill-rule:nonzero;fill:rgb(23.137255%,18.823529%,16.470588%);fill-opacity:1;" d="M 24.851562 17.855469 C 24.851562 16.460938 23.972656 15.328125 22.882812 15.328125 C 21.796875 15.328125 20.914062 16.460938 20.914062 17.855469 C 20.914062 19.253906 21.796875 20.386719 22.882812 20.386719 C 23.972656 20.386719 24.851562 19.253906 24.851562 17.855469 Z M 24.851562 17.855469 "/>
    <path style=" stroke:none;fill-rule:nonzero;fill:rgb(23.137255%,18.823529%,16.470588%);fill-opacity:1;" d="M 15.085938 17.855469 C 15.085938 16.460938 14.203125 15.328125 13.117188 15.328125 C 12.03125 15.328125 11.148438 16.460938 11.148438 17.855469 C 11.148438 19.253906 12.03125 20.386719 13.117188 20.386719 C 14.203125 20.386719 15.085938 19.253906 15.085938 17.855469 Z M 15.085938 17.855469 "/>
    <path style=" stroke:none;fill-rule:nonzero;fill:rgb(23.137255%,18.823529%,16.470588%);fill-opacity:1;" d="M 23.539062 25.03125 C 24.339844 25.714844 21.882812 28.933594 18 28.953125 C 14.117188 28.933594 11.660156 25.710938 12.460938 25.03125 C 12.679688 24.84375 15.359375 25.558594 18 25.558594 C 20.636719 25.558594 23.320312 24.84375 23.539062 25.03125 Z M 23.539062 25.03125 "/>
  </g>
</svg>