<?xml version="1.0" encoding="UTF-8" standalone="yes"?>
<svg xmlns="http://www.w3.org/2000/svg" xmlns:xlink="http://www.w3.org/1999/xlink" width="48px" height="48px" viewBox="0 0 36 36" version="1.1">
  <g id="surface1">
    <path style=" stroke:none;fill-rule:nonzero;fill:rgb(44.705882%,51.372549%,53.72549%);fill-opacity:1;" d="M 4.445312 15.859375 L 15.074219 8.550781 C 15.074219 8.550781 9 0.0507812 5.980469 1.238281 C 4.507812 1.820312 3.445312 13.554688 4.445312 15.859375 Z M 4.445312 15.859375 "/>
    <path style=" stroke:none;fill-rule:nonzero;fill:rgb(24.313725%,26.27451%,27.843137%);fill-opacity:1;" d="M 4.910156 16.734375 L 9.121094 14.703125 C 9.121094 14.703125 11.597656 7.835938 6.242188 2.929688 C 5.148438 3.902344 3.867188 15.15625 4.910156 16.734375 Z M 4.910156 16.734375 "/>
    <path style=" stroke:none;fill-rule:nonzero;fill:rgb(44.705882%,51.372549%,53.72549%);fill-opacity:1;" d="M 31.554688 15.859375 L 20.925781 8.550781 C 20.925781 8.550781 27 0.0507812 30.019531 1.238281 C 31.492188 1.820312 32.554688 13.554688 31.554688 15.859375 Z M 31.554688 15.859375 "/>
    <path style=" stroke:none;fill-rule:nonzero;fill:rgb(24.313725%,26.27451%,27.843137%);fill-opacity:1;" d="M 31.089844 16.734375 L 26.878906 14.703125 C 26.878906 14.703125 24.402344 7.835938 29.757812 2.929688 C 30.851562 3.902344 32.132812 15.15625 31.089844 16.734375 Z M 31.089844 16.734375 "/>
    <path style=" stroke:none;fill-rule:nonzero;fill:rgb(44.705882%,51.372549%,53.72549%);fill-opacity:1;" d="M 18 5.46875 C 10.199219 5.46875 1.125 14.359375 1.125 20.78125 C 1.125 25.953125 15.691406 34.875 18 34.875 C 20.308594 34.875 34.875 25.953125 34.875 20.78125 C 34.875 14.359375 25.804688 5.46875 18 5.46875 Z M 18 5.46875 "/>
    <path style=" stroke:none;fill-rule:nonzero;fill:rgb(85.490196%,89.803922%,93.72549%);fill-opacity:1;" d="M 2.253906 20.597656 C 2.492188 25.757812 15.761719 32.808594 18 32.808594 C 20.238281 32.808594 33.507812 25.757812 33.746094 20.597656 C 18.253906 5.09375 29.753906 30.636719 18 30.636719 C 6.25 30.636719 17.742188 5.097656 2.253906 20.597656 Z M 2.253906 20.597656 "/>
    <path style=" stroke:none;fill-rule:nonzero;fill:rgb(24.313725%,26.27451%,27.843137%);fill-opacity:1;" d="M 22.753906 27.503906 C 21.800781 26.890625 18.875 26.84375 18 26.84375 C 17.128906 26.84375 14.195312 26.890625 13.246094 27.503906 C 12.566406 27.941406 13.089844 29.027344 14.898438 29.964844 C 16.035156 30.554688 17.128906 30.742188 18 30.742188 C 18.875 30.742188 19.960938 30.554688 21.101562 29.964844 C 22.910156 29.027344 23.433594 27.941406 22.753906 27.503906 Z M 22.753906 27.503906 "/>
    <path style=" stroke:none;fill-rule:nonzero;fill:rgb(44.705882%,51.372549%,53.72549%);fill-opacity:1;" d="M 6.71875 7.84375 C 7.949219 8.589844 11.355469 12.105469 8.675781 14.160156 C 5.992188 16.214844 4.492188 14.179688 4.871094 13.816406 C 7.03125 11.738281 6.71875 7.84375 6.71875 7.84375 Z M 6.71875 7.84375 "/>
    <path style=" stroke:none;fill-rule:nonzero;fill:rgb(44.705882%,51.372549%,53.72549%);fill-opacity:1;" d="M 5.640625 9.203125 C 6.921875 9.746094 10.574219 12.570312 8.066406 14.757812 C 5.5625 16.949219 3.914062 15.257812 4.261719 14.882812 C 6.25 12.730469 5.640625 9.203125 5.640625 9.203125 Z M 5.640625 9.203125 "/>
    <path style=" stroke:none;fill-rule:nonzero;fill:rgb(44.705882%,51.372549%,53.72549%);fill-opacity:1;" d="M 29.28125 7.84375 C 28.050781 8.589844 24.644531 12.105469 27.324219 14.160156 C 30.007812 16.214844 31.507812 14.179688 31.128906 13.816406 C 28.96875 11.738281 29.28125 7.84375 29.28125 7.84375 Z M 29.28125 7.84375 "/>
    <path style=" stroke:none;fill-rule:nonzero;fill:rgb(44.705882%,51.372549%,53.72549%);fill-opacity:1;" d="M 30.359375 9.203125 C 29.078125 9.746094 25.425781 12.570312 27.933594 14.757812 C 30.4375 16.949219 32.085938 15.257812 31.738281 14.882812 C 29.75 12.730469 30.359375 9.203125 30.359375 9.203125 Z M 30.359375 9.203125 "/>
    <path style=" stroke:none;fill-rule:nonzero;fill:rgb(85.490196%,89.803922%,93.72549%);fill-opacity:1;" d="M 12.480469 10.898438 C 13.648438 12.910156 16.074219 20.742188 11.5 22.148438 C 6.925781 23.558594 6.125 19.34375 6.8125 19.027344 C 10.730469 17.230469 12.480469 10.898438 12.480469 10.898438 Z M 12.480469 10.898438 "/>
    <path style=" stroke:none;fill-rule:nonzero;fill:rgb(85.490196%,89.803922%,93.72549%);fill-opacity:1;" d="M 10.351562 12.304688 C 11.695312 14.027344 14.816406 20.941406 10.394531 22.679688 C 5.96875 24.417969 4.789062 20.644531 5.445312 20.289062 C 9.183594 18.261719 10.351562 12.304688 10.351562 12.304688 Z M 10.351562 12.304688 "/>
    <path style=" stroke:none;fill-rule:nonzero;fill:rgb(25.882353%,67.843137%,88.627451%);fill-opacity:1;" d="M 13.03125 18.601562 C 13.03125 20.457031 11.527344 21.964844 9.667969 21.964844 C 7.8125 21.964844 6.308594 20.457031 6.308594 18.601562 C 6.308594 16.742188 7.8125 16.363281 9.667969 16.363281 Z M 13.03125 18.601562 "/>
    <path style=" stroke:none;fill-rule:nonzero;fill:rgb(24.313725%,26.27451%,27.843137%);fill-opacity:1;" d="M 11.828125 18.601562 C 11.828125 19.792969 10.863281 20.761719 9.667969 20.761719 C 8.476562 20.761719 7.507812 19.792969 7.507812 18.601562 C 7.507812 17.40625 8.476562 17 9.667969 17 C 10.863281 17 11.828125 17.40625 11.828125 18.601562 Z M 11.828125 18.601562 "/>
    <path style=" stroke:none;fill-rule:nonzero;fill:rgb(85.490196%,89.803922%,93.72549%);fill-opacity:1;" d="M 13.578125 18.371094 C 13.445312 18.105469 13.257812 17.886719 13.070312 17.679688 C 12.683594 17.273438 12.25 16.960938 11.816406 16.671875 C 10.945312 16.109375 10.0625 15.664062 9.210938 15.207031 C 8.363281 14.753906 7.546875 14.296875 6.8125 13.734375 C 6.023438 13.140625 5.367188 12.394531 4.878906 11.535156 C 4.835938 12.035156 4.910156 12.542969 5.054688 13.023438 C 4.308594 12.355469 3.675781 11.542969 3.15625 10.5 C 3.101562 11.230469 3.242188 11.96875 3.511719 12.65625 C 2.867188 11.988281 2.316406 11.199219 1.867188 10.25 C 1.800781 11.65625 2.363281 13.082031 3.222656 14.175781 C 4.085938 15.273438 5.195312 16.082031 6.328125 16.714844 C 7.46875 17.347656 8.652344 17.8125 9.800781 18.257812 C 10.375 18.484375 10.949219 18.691406 11.476562 18.96875 C 12.007812 19.242188 12.515625 19.554688 12.8125 20.171875 Z M 13.578125 18.371094 "/>
    <path style=" stroke:none;fill-rule:nonzero;fill:rgb(85.490196%,89.803922%,93.72549%);fill-opacity:1;" d="M 23.519531 10.898438 C 22.351562 12.910156 19.925781 20.742188 24.5 22.148438 C 29.074219 23.558594 29.875 19.34375 29.1875 19.027344 C 25.269531 17.230469 23.519531 10.898438 23.519531 10.898438 Z M 23.519531 10.898438 "/>
    <path style=" stroke:none;fill-rule:nonzero;fill:rgb(85.490196%,89.803922%,93.72549%);fill-opacity:1;" d="M 25.648438 12.304688 C 24.304688 14.027344 21.183594 20.941406 25.605469 22.679688 C 30.03125 24.417969 31.210938 20.644531 30.554688 20.289062 C 26.816406 18.261719 25.648438 12.304688 25.648438 12.304688 Z M 25.648438 12.304688 "/>
    <path style=" stroke:none;fill-rule:nonzero;fill:rgb(25.882353%,67.843137%,88.627451%);fill-opacity:1;" d="M 22.96875 18.601562 C 22.96875 20.457031 24.472656 21.964844 26.332031 21.964844 C 28.1875 21.964844 29.691406 20.457031 29.691406 18.601562 C 29.691406 16.742188 28.1875 16.363281 26.332031 16.363281 Z M 22.96875 18.601562 "/>
    <path style=" stroke:none;fill-rule:nonzero;fill:rgb(24.313725%,26.27451%,27.843137%);fill-opacity:1;" d="M 24.171875 18.601562 C 24.171875 19.792969 25.136719 20.761719 26.332031 20.761719 C 27.523438 20.761719 28.492188 19.796875 28.492188 18.601562 C 28.492188 17.40625 27.523438 17 26.332031 17 C 25.136719 17 24.171875 17.40625 24.171875 18.601562 Z M 24.171875 18.601562 "/>
    <path style=" stroke:none;fill-rule:nonzero;fill:rgb(85.490196%,89.803922%,93.72549%);fill-opacity:1;" d="M 22.421875 18.371094 C 22.554688 18.105469 22.742188 17.886719 22.929688 17.679688 C 23.316406 17.273438 23.75 16.960938 24.183594 16.671875 C 25.054688 16.109375 25.9375 15.664062 26.789062 15.207031 C 27.636719 14.753906 28.453125 14.296875 29.1875 13.734375 C 29.929688 13.171875 30.574219 12.488281 31.121094 11.535156 C 31.164062 12.035156 31.089844 12.542969 30.945312 13.023438 C 31.691406 12.355469 32.324219 11.542969 32.84375 10.5 C 32.898438 11.230469 32.757812 11.96875 32.488281 12.65625 C 33.132812 11.988281 33.683594 11.199219 34.132812 10.25 C 34.199219 11.65625 33.636719 13.082031 32.777344 14.175781 C 31.914062 15.273438 30.804688 16.082031 29.671875 16.714844 C 28.53125 17.347656 27.347656 17.8125 26.199219 18.257812 C 25.625 18.484375 25.050781 18.691406 24.523438 18.96875 C 23.992188 19.242188 23.484375 19.554688 23.1875 20.171875 Z M 22.421875 18.371094 "/>
    <path style=" stroke:none;fill-rule:nonzero;fill:rgb(44.705882%,51.372549%,53.72549%);fill-opacity:1;" d="M 21.707031 32.019531 C 21.707031 32.679688 19.425781 33.3125 18 33.3125 C 16.574219 33.3125 14.292969 32.679688 14.292969 32.019531 C 14.292969 31.359375 18 31.640625 18 31.640625 C 18 31.640625 21.707031 31.359375 21.707031 32.019531 Z M 21.707031 32.019531 "/>
    <path style=" stroke:none;fill-rule:nonzero;fill:rgb(24.313725%,26.27451%,27.843137%);fill-opacity:1;" d="M 18.5625 30.082031 L 18.542969 30.328125 C 18.53125 30.429688 18.523438 30.53125 18.503906 30.625 C 18.46875 30.816406 18.410156 31.007812 18.335938 31.191406 C 18.179688 31.566406 17.890625 31.929688 17.523438 32.140625 C 16.777344 32.570312 16.007812 32.496094 15.34375 32.375 C 14.007812 32.089844 12.851562 31.46875 11.765625 30.773438 C 10.691406 30.070312 9.691406 29.257812 8.785156 28.347656 C 7.882812 27.441406 7.070312 26.445312 6.425781 25.351562 C 7.148438 26.394531 8.023438 27.316406 8.976562 28.140625 C 9.925781 28.964844 10.957031 29.683594 12.054688 30.292969 C 13.144531 30.886719 14.3125 31.386719 15.480469 31.542969 C 16.050781 31.617188 16.644531 31.570312 16.992188 31.3125 C 17.339844 31.066406 17.460938 30.628906 17.4375 30.050781 Z M 18.5625 30.082031 "/>
    <path style=" stroke:none;fill-rule:nonzero;fill:rgb(24.313725%,26.27451%,27.843137%);fill-opacity:1;" d="M 18.5625 30.046875 C 18.542969 30.625 18.660156 31.066406 19.007812 31.3125 C 19.355469 31.570312 19.949219 31.617188 20.519531 31.542969 C 21.6875 31.386719 22.859375 30.882812 23.945312 30.292969 C 25.042969 29.683594 26.074219 28.960938 27.023438 28.140625 C 27.976562 27.316406 28.851562 26.394531 29.574219 25.351562 C 28.929688 26.445312 28.117188 27.441406 27.214844 28.347656 C 26.308594 29.257812 25.3125 30.070312 24.234375 30.773438 C 23.148438 31.46875 21.992188 32.089844 20.65625 32.375 C 19.996094 32.496094 19.222656 32.570312 18.476562 32.140625 C 18.109375 31.929688 17.820312 31.566406 17.664062 31.191406 C 17.589844 31.007812 17.53125 30.816406 17.5 30.621094 C 17.476562 30.53125 17.46875 30.425781 17.457031 30.328125 L 17.4375 30.082031 Z M 18.5625 30.046875 "/>
  </g>
</svg>