<?xml version="1.0" encoding="UTF-8" standalone="yes"?>
<svg xmlns="http://www.w3.org/2000/svg" xmlns:xlink="http://www.w3.org/1999/xlink" width="48px" height="48px" viewBox="0 0 36 36" version="1.1">
  <g id="surface1">
    <path style=" stroke:none;fill-rule:nonzero;fill:rgb(58.039216%,44.313725%,31.764706%);fill-opacity:1;" d="M 34.066406 5.859375 C 34.066406 8.476562 31.882812 10.597656 29.199219 10.597656 C 26.507812 10.597656 24.328125 8.476562 24.328125 5.859375 C 24.328125 3.246094 26.507812 1.125 29.195312 1.125 C 31.882812 1.125 34.066406 3.246094 34.066406 5.859375 Z M 34.066406 5.859375 "/>
    <path style=" stroke:none;fill-rule:nonzero;fill:rgb(87.843137%,67.45098%,49.411765%);fill-opacity:1;" d="M 32.125 5.859375 C 32.125 7.441406 30.8125 8.722656 29.195312 8.722656 C 27.578125 8.722656 26.269531 7.441406 26.269531 5.859375 C 26.269531 4.28125 27.578125 3 29.195312 3 C 30.8125 3 32.125 4.28125 32.125 5.859375 Z M 32.125 5.859375 "/>
    <path style=" stroke:none;fill-rule:nonzero;fill:rgb(58.039216%,44.313725%,31.764706%);fill-opacity:1;" d="M 11.671875 5.859375 C 11.671875 3.246094 9.492188 1.125 6.804688 1.125 C 4.117188 1.125 1.9375 3.246094 1.9375 5.859375 C 1.9375 8.476562 4.117188 10.597656 6.804688 10.597656 C 9.492188 10.597656 11.671875 8.476562 11.671875 5.859375 Z M 11.671875 5.859375 "/>
    <path style=" stroke:none;fill-rule:nonzero;fill:rgb(87.843137%,67.45098%,49.411765%);fill-opacity:1;" d="M 9.730469 5.859375 C 9.730469 4.28125 8.421875 3 6.804688 3 C 5.1875 3 3.875 4.28125 3.875 5.859375 C 3.875 7.441406 5.1875 8.722656 6.804688 8.722656 C 8.421875 8.722656 9.730469 7.441406 9.730469 5.859375 Z M 9.730469 5.859375 "/>
    <path style=" stroke:none;fill-rule:nonzero;fill:rgb(58.039216%,44.313725%,31.764706%);fill-opacity:1;" d="M 34.875 20.871094 C 34.875 31.023438 23.5 34.875 18 34.875 C 12.5 34.875 1.125 31.023438 1.125 20.871094 C 1.125 7.949219 7.308594 4.976562 18 4.976562 C 28.691406 4.976562 34.875 7.949219 34.875 20.871094 Z M 34.875 20.871094 "/>
    <path style=" stroke:none;fill-rule:nonzero;fill:rgb(87.843137%,67.45098%,49.411765%);fill-opacity:1;" d="M 10.617188 25.636719 C 10.617188 20.410156 15.613281 18.425781 18.027344 18.425781 C 20.445312 18.425781 25.441406 20.410156 25.441406 25.636719 C 25.441406 32.292969 22.726562 33.824219 18.027344 33.824219 C 13.332031 33.824219 10.617188 32.292969 10.617188 25.636719 Z M 10.617188 25.636719 "/>
    <path style=" stroke:none;fill-rule:nonzero;fill:rgb(58.039216%,44.313725%,31.764706%);fill-opacity:1;" d="M 18.390625 1.132812 C 18.550781 2.011719 18.078125 2.714844 18.078125 2.714844 C 17.285156 1.652344 15.699219 1.28125 15.699219 1.28125 C 16.308594 2.007812 16.148438 3.121094 16.148438 3.121094 C 15.050781 2.703125 14.132812 2.78125 14.132812 2.78125 C 16.386719 4.480469 15.886719 9.601562 15.886719 9.601562 C 18.558594 6.769531 21.867188 5.410156 21.867188 5.410156 C 21.105469 2.800781 18.390625 1.132812 18.390625 1.132812 Z M 18.390625 1.132812 "/>
    <path style=" stroke:none;fill-rule:nonzero;fill:rgb(24.313725%,26.27451%,27.843137%);fill-opacity:1;" d="M 20.457031 32.085938 C 20.503906 32.085938 20.527344 31.980469 20.527344 31.917969 C 20.527344 31.5 19.40625 31.160156 18.023438 31.160156 C 16.640625 31.160156 15.519531 31.5 15.519531 31.917969 C 15.519531 31.976562 15.539062 32.085938 15.578125 32.085938 Z M 20.457031 32.085938 "/>
    <path style=" stroke:none;fill-rule:nonzero;fill:rgb(24.313725%,26.27451%,27.843137%);fill-opacity:1;" d="M 12.800781 25.792969 C 12.800781 23.636719 15.128906 23.21875 18 23.21875 C 20.871094 23.21875 23.199219 23.636719 23.199219 25.792969 C 23.199219 27.507812 19.0625 29.03125 18 29.03125 C 16.9375 29.03125 12.800781 27.507812 12.800781 25.792969 Z M 12.800781 25.792969 "/>
    <path style=" stroke:none;fill-rule:nonzero;fill:rgb(24.313725%,26.27451%,27.843137%);fill-opacity:1;" d="M 33.261719 17.253906 L 32.316406 17.421875 L 31.367188 17.574219 C 30.734375 17.679688 30.101562 17.765625 29.46875 17.851562 C 28.199219 18.015625 26.925781 18.148438 25.652344 18.253906 C 23.105469 18.460938 20.550781 18.5625 17.996094 18.558594 C 15.441406 18.558594 12.882812 18.453125 10.335938 18.234375 C 7.785156 18.003906 5.242188 17.671875 2.734375 17.089844 L 2.722656 17.089844 C 2.710938 17.085938 2.695312 17.078125 2.6875 17.066406 C 2.679688 17.050781 2.679688 17.035156 2.683594 17.019531 C 2.6875 16.996094 2.714844 16.976562 2.742188 16.976562 C 4.011719 17.058594 5.28125 17.125 6.550781 17.179688 C 7.824219 17.238281 9.09375 17.289062 10.363281 17.324219 C 12.90625 17.398438 15.453125 17.429688 17.996094 17.421875 C 20.539062 17.429688 23.085938 17.398438 25.628906 17.34375 C 28.171875 17.289062 30.710938 17.179688 33.261719 17.140625 C 33.292969 17.140625 33.320312 17.164062 33.320312 17.195312 C 33.320312 17.222656 33.300781 17.246094 33.273438 17.253906 Z M 33.261719 17.253906 "/>
    <path style=" stroke:none;fill-rule:nonzero;fill:rgb(24.313725%,26.27451%,27.843137%);fill-opacity:1;" d="M 11.007812 18.265625 C 11.007812 19.179688 10.089844 19.917969 8.957031 19.917969 C 7.828125 19.917969 6.910156 19.179688 6.910156 18.265625 C 6.910156 17.355469 7.828125 17.609375 8.957031 17.609375 C 10.089844 17.609375 11.007812 17.355469 11.007812 18.265625 Z M 29.089844 18.265625 C 29.089844 19.179688 28.171875 19.917969 27.042969 19.917969 C 25.910156 19.917969 24.992188 19.179688 24.992188 18.265625 C 24.992188 17.355469 25.910156 17.609375 27.042969 17.609375 C 28.171875 17.609375 29.089844 17.355469 29.089844 18.265625 Z M 29.089844 18.265625 "/>
  </g>
</svg>