<?xml version="1.0" encoding="UTF-8" standalone="yes"?>
<svg xmlns="http://www.w3.org/2000/svg" xmlns:xlink="http://www.w3.org/1999/xlink" width="48px" height="48px" viewBox="0 0 36 36" version="1.1">
  <g id="surface1">
    <path style=" stroke:none;fill-rule:nonzero;fill:rgb(24.313725%,26.27451%,27.843137%);fill-opacity:1;" d="M 34.875 7.875 C 34.875 11.601562 31.851562 14.625 28.125 14.625 C 24.398438 14.625 21.375 11.601562 21.375 7.875 C 21.375 4.148438 24.398438 1.125 28.125 1.125 C 31.851562 1.125 34.875 4.148438 34.875 7.875 Z M 34.875 7.875 "/>
    <path style=" stroke:none;fill-rule:nonzero;fill:rgb(33.333333%,36.862745%,38.823529%);fill-opacity:1;" d="M 32.183594 7.875 C 32.183594 5.625 30.367188 3.800781 28.125 3.800781 C 25.882812 3.800781 24.066406 5.625 24.066406 7.875 C 24.066406 10.125 25.882812 11.949219 28.125 11.949219 C 30.367188 11.949219 32.183594 10.125 32.183594 7.875 Z M 32.183594 7.875 "/>
    <path style=" stroke:none;fill-rule:nonzero;fill:rgb(24.313725%,26.27451%,27.843137%);fill-opacity:1;" d="M 14.625 7.875 C 14.625 11.601562 11.601562 14.625 7.875 14.625 C 4.148438 14.625 1.125 11.601562 1.125 7.875 C 1.125 4.148438 4.148438 1.125 7.875 1.125 C 11.601562 1.125 14.625 4.148438 14.625 7.875 Z M 14.625 7.875 "/>
    <path style=" stroke:none;fill-rule:nonzero;fill:rgb(33.333333%,36.862745%,38.823529%);fill-opacity:1;" d="M 11.933594 7.875 C 11.933594 5.625 10.117188 3.796875 7.875 3.796875 C 5.632812 3.796875 3.816406 5.625 3.816406 7.875 C 3.816406 10.125 5.632812 11.949219 7.875 11.949219 C 10.117188 11.949219 11.933594 10.125 11.933594 7.875 Z M 11.933594 7.875 "/>
    <path style=" stroke:none;fill-rule:nonzero;fill:rgb(81.960784%,85.882353%,89.019608%);fill-opacity:1;" d="M 17.929688 4.5 C 10.542969 4.5 2.25 10.070312 2.25 20.484375 C 2.25 24.808594 3.65625 25.527344 5.207031 28.519531 C 9.597656 36.992188 26.261719 36.992188 30.652344 28.519531 C 32.203125 25.527344 33.75 24.808594 33.75 20.488281 C 33.75 10.074219 25.316406 4.5 17.929688 4.5 Z M 17.929688 4.5 "/>
    <path style=" stroke:none;fill-rule:nonzero;fill:rgb(89.411765%,93.333333%,96.862745%);fill-opacity:1;" d="M 10.664062 28.234375 C 10.664062 24.417969 15.589844 22.96875 17.972656 22.96875 C 20.351562 22.96875 25.277344 24.417969 25.277344 28.234375 C 25.277344 33.09375 22.601562 34.210938 17.972656 34.210938 C 13.339844 34.210938 10.664062 33.09375 10.664062 28.234375 Z M 10.664062 28.234375 "/>
    <path style=" stroke:none;fill-rule:nonzero;fill:rgb(24.313725%,26.27451%,27.843137%);fill-opacity:1;" d="M 17.417969 28.1875 L 18.523438 28.1875 L 18.523438 31.007812 L 17.417969 31.007812 Z M 17.417969 28.1875 "/>
    <path style=" stroke:none;fill-rule:nonzero;fill:rgb(24.313725%,26.27451%,27.843137%);fill-opacity:1;" d="M 17.972656 32.066406 C 15.648438 32.066406 13.53125 31.339844 13.53125 30.539062 C 13.53125 30.453125 13.566406 30.375 13.628906 30.316406 C 13.710938 30.238281 13.839844 30.191406 13.976562 30.191406 C 14.140625 30.191406 14.300781 30.25 14.5625 30.347656 C 15.140625 30.558594 16.21875 30.949219 17.972656 30.949219 C 19.722656 30.949219 20.800781 30.558594 21.378906 30.347656 C 21.644531 30.25 21.800781 30.191406 21.964844 30.191406 C 22.1875 30.191406 22.410156 30.3125 22.410156 30.542969 C 22.40625 31.339844 20.292969 32.066406 17.972656 32.066406 Z M 13.507812 27.894531 C 13.507812 26.476562 15.496094 26.199219 17.945312 26.199219 C 20.394531 26.199219 22.378906 26.472656 22.378906 27.894531 C 22.378906 29.023438 18.851562 29.457031 17.945312 29.457031 C 17.039062 29.457031 13.507812 29.023438 13.507812 27.894531 Z M 13.507812 27.894531 "/>
    <path style=" stroke:none;fill-rule:nonzero;fill:rgb(24.313725%,26.27451%,27.843137%);fill-opacity:1;" d="M 21.5 15.707031 C 23.503906 13.699219 27.054688 13.996094 29.425781 16.367188 C 31.796875 18.738281 32.09375 22.285156 30.085938 24.292969 C 26.019531 28.359375 17.433594 19.773438 21.5 15.707031 Z M 21.5 15.707031 "/>
    <path style=" stroke:none;fill-rule:nonzero;fill:rgb(25.882353%,67.843137%,88.627451%);fill-opacity:1;" d="M 27.953125 19.351562 C 27.953125 20.902344 26.695312 22.164062 25.140625 22.164062 C 23.585938 22.164062 22.328125 20.902344 22.328125 19.351562 C 22.328125 17.796875 23.585938 16.539062 25.140625 16.539062 C 26.695312 16.539062 27.953125 17.796875 27.953125 19.351562 Z M 27.953125 19.351562 "/>
    <path style=" stroke:none;fill-rule:nonzero;fill:rgb(24.313725%,26.27451%,27.843137%);fill-opacity:1;" d="M 26.546875 19.351562 C 26.546875 20.128906 25.917969 20.757812 25.140625 20.757812 C 24.363281 20.757812 23.734375 20.128906 23.734375 19.351562 C 23.734375 18.574219 24.363281 17.945312 25.140625 17.945312 C 25.917969 17.945312 26.546875 18.574219 26.546875 19.351562 Z M 26.546875 19.351562 "/>
    <path style=" stroke:none;fill-rule:nonzero;fill:rgb(24.313725%,26.27451%,27.843137%);fill-opacity:1;" d="M 6.574219 16.367188 C 8.945312 13.996094 12.496094 13.699219 14.5 15.707031 C 18.566406 19.773438 9.980469 28.359375 5.914062 24.292969 C 3.90625 22.285156 4.203125 18.738281 6.574219 16.367188 Z M 6.574219 16.367188 "/>
    <path style=" stroke:none;fill-rule:nonzero;fill:rgb(25.882353%,67.843137%,88.627451%);fill-opacity:1;" d="M 13.671875 19.351562 C 13.671875 20.902344 12.414062 22.164062 10.859375 22.164062 C 9.304688 22.164062 8.046875 20.902344 8.046875 19.351562 C 8.046875 17.796875 9.304688 16.539062 10.859375 16.539062 C 12.414062 16.539062 13.671875 17.796875 13.671875 19.351562 Z M 13.671875 19.351562 "/>
    <path style=" stroke:none;fill-rule:nonzero;fill:rgb(24.313725%,26.27451%,27.843137%);fill-opacity:1;" d="M 12.265625 19.351562 C 12.265625 20.128906 11.636719 20.757812 10.859375 20.757812 C 10.082031 20.757812 9.453125 20.128906 9.453125 19.351562 C 9.453125 18.574219 10.082031 17.945312 10.859375 17.945312 C 11.636719 17.945312 12.265625 18.574219 12.265625 19.351562 Z M 12.265625 19.351562 "/>
  </g>
</svg>