<?xml version="1.0" encoding="utf-8"?>
<!DOCTYPE svg PUBLIC "-//W3C//DTD SVG 1.1//EN" "http://www.w3.org/Graphics/SVG/1.1/DTD/svg11.dtd">
<svg xmlns="http://www.w3.org/2000/svg" xmlns:xlink="http://www.w3.org/1999/xlink" version="1.1" baseProfile="full" width="205.023" height="186.13" viewBox="0 0 205.02 186.13" enable-background="new 0 0 205.02 186.13" xml:space="preserve">
	<g>
		<path fill="#706CF5" fill-opacity="1" stroke-width="3" stroke-linejoin="round" d="M 150.447,33.9069C 150.447,33.9069 151.574,28.5929 152.379,21.8297C 153.184,15.0665 156.727,5.08264 166.228,2.98938C 175.728,0.896118 188.289,0.251831 195.213,11.3629C 202.137,22.4738 205.197,36.3224 202.62,45.5011C 200.044,54.6798 191.67,61.1207 181.847,64.8243C 172.025,68.5282 170.736,80.2833 170.736,80.2833L 150.447,33.9069 Z "/>
		<defs>
			<path id="SVG_CLIPPER1_" d="M 150.447,33.9069C 150.447,33.9069 151.574,28.5929 152.379,21.8297C 153.184,15.0665 156.727,5.08264 166.228,2.98938C 175.728,0.896118 188.289,0.251831 195.213,11.3629C 202.137,22.4738 205.197,36.3224 202.62,45.5011C 200.044,54.6798 191.67,61.1207 181.847,64.8243C 172.025,68.5282 170.736,80.2833 170.736,80.2833L 150.447,33.9069 Z "/>
		</defs>
		<clipPath id="SVG_CLIPPER2_">
			<use xlink:href="#SVG_CLIPPER1_" overflow="visible"/>
		</clipPath>
		<g clip-path="url(#SVG_CLIPPER2_)">
			<path fill="#000000" fill-opacity="0.203922" stroke-width="0.2" stroke-linejoin="round" d="M 170.402,14.6915C 181.724,14.6915 190.902,25.6603 190.902,39.1915C 190.902,52.7223 181.724,63.6915 170.402,63.6915C 159.08,63.6915 149.902,52.7223 149.902,39.1915C 149.902,25.6603 159.08,14.6915 170.402,14.6915 Z "/>
		</g>
		<path fill="none" stroke-width="3" stroke-linejoin="round" stroke="#706CF5" stroke-opacity="1" d="M 150.447,33.9069C 150.447,33.9069 151.574,28.5929 152.379,21.8297C 153.184,15.0665 156.727,5.08264 166.228,2.98938C 175.728,0.896118 188.289,0.251831 195.213,11.3629C 202.137,22.4738 205.197,36.3224 202.62,45.5011C 200.044,54.6798 191.67,61.1207 181.847,64.8243C 172.025,68.5282 170.736,80.2833 170.736,80.2833L 150.447,33.9069 Z "/>
	</g>
	<g>
		<path fill="#706CF5" fill-opacity="1" stroke-width="3" stroke-linejoin="round" d="M 31.4514,70.34C 31.4514,70.3402 27.2244,65.026 19.8573,62.4899C 12.4902,59.9537 2.10388,53.5529 1.5,44.0118C 0.896118,34.4708 5.48547,-0.432007 23.1182,1.50012C 40.7508,3.43274 46.4271,7.7804 51.0164,22.5145C 55.6057,37.2487 57.9004,41.4757 57.9004,41.4757L 31.4514,70.34 Z "/>
		<defs>
			<path id="SVG_CLIPPER3_" d="M 31.4514,70.34C 31.4514,70.3402 27.2244,65.026 19.8573,62.4899C 12.4902,59.9537 2.10388,53.5529 1.5,44.0118C 0.896118,34.4708 5.48547,-0.432007 23.1182,1.50012C 40.7508,3.43274 46.4271,7.7804 51.0164,22.5145C 55.6057,37.2487 57.9004,41.4757 57.9004,41.4757L 31.4514,70.34 Z "/>
		</defs>
		<clipPath id="SVG_CLIPPER4_">
			<use xlink:href="#SVG_CLIPPER3_" overflow="visible"/>
		</clipPath>
		<g clip-path="url(#SVG_CLIPPER4_)">
			<path fill="#000000" fill-opacity="0.203922" stroke-width="0.2" stroke-linejoin="round" d="M 29.1519,14.1915C 40.4737,14.1915 49.6519,25.1603 49.6519,38.6915C 49.6519,52.2223 40.4737,63.1915 29.1519,63.1915C 17.83,63.1915 8.65186,52.2223 8.65186,38.6915C 8.65186,25.1603 17.83,14.1915 29.1519,14.1915 Z "/>
		</g>
		<path fill="none" stroke-width="3" stroke-linejoin="round" stroke="#706CF5" stroke-opacity="1" d="M 31.4514,70.34C 31.4514,70.3402 27.2244,65.026 19.8573,62.4899C 12.4902,59.9537 2.10388,53.5529 1.5,44.0118C 0.896118,34.4708 5.48547,-0.432007 23.1182,1.50012C 40.7508,3.43274 46.4271,7.7804 51.0164,22.5145C 55.6057,37.2487 57.9004,41.4757 57.9004,41.4757L 31.4514,70.34 Z "/>
	</g>
	<path fill="#D1DBE3" fill-opacity="1" stroke-width="3" stroke-linejoin="round" stroke="#D1DBE3" stroke-opacity="1" d="M 103.211,19.9635C 166.632,19.9635 192.545,76.8253 192.545,122.297C 192.545,167.768 147.026,184.63 103.211,184.63C 59.3966,184.63 13.8779,167.768 13.8779,122.297C 13.8779,76.8253 43.8741,19.9635 103.211,19.9635 Z "/>
	<path fill="#706CF5" fill-opacity="1" stroke-width="10" stroke-linejoin="round" stroke="#706CF5" stroke-opacity="1" d="M 62.308,71.6139C 64.1344,68.3038 71.5879,66.4352 76.6602,65.952C 81.7327,65.4689 85.3558,72.9569 85.1143,75.8553C 84.8727,78.754 84.4702,81.6122 79.1563,88.1339C 73.8423,94.6554 71.9099,99.1241 71.0645,101.056C 70.2191,102.989 66.2336,112.288 59.712,109.148C 53.1902,106.008 48.4998,89.6896 51.2775,86.0665C 54.0552,82.4432 61.0198,73.9489 62.308,71.6139 Z "/>
	<path fill="#706CF5" fill-opacity="1" stroke-width="10" stroke-linejoin="round" stroke="#706CF5" stroke-opacity="1" d="M 124.325,84.9938C 121.691,79.7262 120.702,77.7474 122.634,72.3126C 124.566,66.8781 142.765,60.3566 146.509,71.226C 150.253,82.0953 154.963,88.6171 157.016,91.274C 159.069,93.931 157.175,110.356 150.895,110.96C 144.614,111.564 139.301,105.283 131.813,95.1385C 124.325,84.9938 124.929,86.2015 124.325,84.9938 Z "/>
	<path fill="#000000" fill-opacity="1" stroke-width="3" stroke-linejoin="round" stroke="#B5A5FE" stroke-opacity="1" d="M 75.0374,77.2233C 77.9327,77.2233 80.2798,79.5704 80.2798,82.4655C 80.2798,85.361 77.9327,87.7079 75.0374,87.7079C 72.1421,87.7079 69.795,85.361 69.795,82.4655C 69.795,79.5704 72.1422,77.2233 75.0374,77.2233 Z "/>
	<path fill="#000000" fill-opacity="1" stroke-width="3" stroke-linejoin="round" stroke="#B5A5FE" stroke-opacity="1" d="M 131.039,77.0577C 133.935,77.0577 136.282,79.4049 136.282,82.3002C 136.282,85.1954 133.935,87.5426 131.039,87.5426C 128.144,87.5426 125.797,85.1954 125.797,82.3002C 125.797,79.4049 128.144,77.0577 131.039,77.0577 Z "/>
	<path fill="#5552BA" fill-opacity="1" stroke-width="3" stroke-linejoin="round" stroke="#5552BA" stroke-opacity="1" d="M 82.1353,105.887C 82.1353,105.887 84.4299,105.042 85.7584,104.317C 87.0869,103.593 99.7679,98.0372 117.521,104.076C 117.521,104.076 121.024,105.163 121.99,105.163C 121.99,105.163 123.56,108.061 123.077,112.167C 123.077,112.167 122.835,115.67 115.347,116.153C 115.347,116.153 111.362,114.462 109.792,116.878C 109.792,116.878 104.793,123.715 102.425,122.795C 102.425,122.795 96.024,118.206 94.0916,116.998C 92.1592,115.791 90.9515,115.791 89.3815,116.032C 87.8115,116.274 80.2029,117.24 82.1353,105.887 Z "/>
	<path fill="#5552BA" fill-opacity="1" stroke-width="0.2" stroke-linejoin="round" d="M 102.828,142.952C 100.835,143.088 98.866,143.473 96.8929,143.787C 95.9407,143.939 94.9932,144.138 94.067,144.407C 93.2062,144.657 92.2402,144.996 91.7269,145.731C 91.2943,146.35 91.2152,147.465 91.7513,147.997C 91.7817,148.027 91.8358,148.016 91.8785,148.014C 91.9225,148.012 91.9648,147.971 92.007,147.983C 92.46,148.117 92.5708,148.781 92.9839,149.01C 94.1207,149.64 95.5591,149.377 96.8553,149.472C 99.002,149.628 101.16,149.496 103.312,149.515C 107.841,149.556 112.439,150.636 116.895,149.828C 117.449,149.728 118.008,149.606 118.524,149.38C 118.703,149.302 118.831,149.121 118.914,148.945C 119.503,147.694 119.139,146.141 118.813,144.797C 118.641,144.09 118.489,143.109 117.805,142.862C 117.114,142.613 116.337,142.84 115.603,142.849C 114.367,142.865 113.132,142.888 111.896,142.901C 108.874,142.933 105.844,142.746 102.828,142.952 Z "/>
	<path fill="#FFFFFF" fill-opacity="1" stroke-width="0.2" stroke-linejoin="round" d="M 73.8438,79.3231C 74.7642,79.3231 75.5104,80.0695 75.5104,80.9899C 75.5104,81.9103 74.7643,82.6564 73.8438,82.6564C 72.9233,82.6564 72.1771,81.9103 72.1771,80.9899C 72.1771,80.0695 72.9233,79.3231 73.8438,79.3231 Z "/>
	<path fill="#FFFFFF" fill-opacity="1" stroke-width="0.2" stroke-linejoin="round" d="M 129.844,78.9896C 130.764,78.9896 131.51,79.736 131.51,80.6564C 131.51,81.5768 130.764,82.3229 129.844,82.3229C 128.923,82.3229 128.177,81.5768 128.177,80.6564C 128.177,79.736 128.923,78.9896 129.844,78.9896 Z "/>
	<g>
		<path fill="#FFFFFF" fill-opacity="1" stroke-width="3" stroke-linejoin="round" d="M 69.0903,69.7926C 76.3262,69.7926 83.4913,75.6586 83.4913,82.8944C 83.4913,90.1302 76.3262,95.996 69.0903,95.996C 61.8544,95.996 54.6893,90.1302 54.6893,82.8944C 54.6893,75.6586 61.8545,69.7926 69.0903,69.7926 Z "/>
		<defs>
			<path id="SVG_CLIPPER5_" d="M 69.0903,69.7926C 76.3262,69.7926 83.4913,75.6586 83.4913,82.8944C 83.4913,90.1302 76.3262,95.996 69.0903,95.996C 61.8544,95.996 54.6893,90.1302 54.6893,82.8944C 54.6893,75.6586 61.8545,69.7926 69.0903,69.7926 Z "/>
		</defs>
		<clipPath id="SVG_CLIPPER6_">
			<use xlink:href="#SVG_CLIPPER5_" overflow="visible"/>
		</clipPath>
		<g clip-path="url(#SVG_CLIPPER6_)">
			<path fill="#006432" fill-opacity="1" stroke-width="3" stroke-linejoin="round" stroke="#006432" stroke-opacity="1" d="M 68.6756,75.6493C 72.7398,75.6493 76.0347,79.723 76.0347,84.7479C 76.0347,89.7728 72.7399,93.8466 68.6756,93.8466C 64.6112,93.8466 61.3165,89.7728 61.3165,84.7479C 61.3165,79.723 64.6113,75.6493 68.6756,75.6493 Z "/>
			<path fill="#000000" fill-opacity="1" stroke-width="0.2" stroke-linejoin="round" d="M 68.6756,78.359C 71.5303,78.359 73.8445,81.2203 73.8445,84.7496C 73.8445,88.2789 71.5303,91.1403 68.6756,91.1403C 65.8209,91.1403 63.5067,88.2789 63.5067,84.7496C 63.5067,81.2203 65.821,78.359 68.6756,78.359 Z "/>
			<path fill="#FFFFFF" fill-opacity="1" stroke-width="0.2" stroke-linejoin="round" d="M 64.5602,79.0377C 65.866,79.0377 66.9246,80.0963 66.9246,81.4022C 66.9246,82.7081 65.866,83.7667 64.5602,83.7667C 63.2544,83.7667 62.1958,82.7081 62.1958,81.4022C 62.1958,80.0963 63.2544,79.0377 64.5602,79.0377 Z "/>
		</g>
		<path fill="none" stroke-width="3" stroke-linejoin="round" stroke="#B5A5FE" stroke-opacity="1" d="M 69.0903,69.7926C 76.3262,69.7926 83.4913,75.6586 83.4913,82.8944C 83.4913,90.1302 76.3262,95.996 69.0903,95.996C 61.8544,95.996 54.6893,90.1302 54.6893,82.8944C 54.6893,75.6586 61.8545,69.7926 69.0903,69.7926 Z "/>
	</g>
	<path fill="#706CF5" fill-opacity="1" stroke-width="10" stroke-linejoin="round" stroke="#706CF5" stroke-opacity="1" d="M 71.4578,65.6759C 71.4578,65.6759 81.2286,79.4469 87.3953,81.1134"/>
	<g>
		<path fill="#FFFFFF" fill-opacity="1" stroke-width="3" stroke-linejoin="round" d="M 139.142,70.4552C 146.378,70.4552 153.543,76.3209 153.543,83.5568C 153.543,90.7926 146.378,96.6583 139.142,96.6583C 131.907,96.6583 124.742,90.7926 124.742,83.5568C 124.742,76.3209 131.907,70.4552 139.142,70.4552 Z "/>
		<defs>
			<path id="SVG_CLIPPER7_" d="M 139.142,70.4552C 146.378,70.4552 153.543,76.3209 153.543,83.5568C 153.543,90.7926 146.378,96.6583 139.142,96.6583C 131.907,96.6583 124.742,90.7926 124.742,83.5568C 124.742,76.3209 131.907,70.4552 139.142,70.4552 Z "/>
		</defs>
		<clipPath id="SVG_CLIPPER8_">
			<use xlink:href="#SVG_CLIPPER7_" overflow="visible"/>
		</clipPath>
		<g clip-path="url(#SVG_CLIPPER8_)">
			<path fill="#006432" fill-opacity="1" stroke-width="3" stroke-linejoin="round" stroke="#006432" stroke-opacity="1" d="M 138.91,77.5988C 142.974,77.5988 146.269,81.6725 146.269,86.6974C 146.269,91.7223 142.974,95.796 138.91,95.796C 134.846,95.796 131.551,91.7223 131.551,86.6974C 131.551,81.6725 134.846,77.5988 138.91,77.5988 Z "/>
			<path fill="#000000" fill-opacity="1" stroke-width="0.2" stroke-linejoin="round" d="M 138.91,80.3085C 141.765,80.3085 144.079,83.1698 144.079,86.6991C 144.079,90.2286 141.765,93.0897 138.91,93.0897C 136.055,93.0897 133.741,90.2286 133.741,86.6991C 133.741,83.1698 136.055,80.3085 138.91,80.3085 Z "/>
			<path fill="#FFFFFF" fill-opacity="1" stroke-width="0.2" stroke-linejoin="round" d="M 134.795,80.9874C 136.1,80.9874 137.159,82.046 137.159,83.3517C 137.159,84.6576 136.1,85.7162 134.795,85.7162C 133.489,85.7162 132.43,84.6576 132.43,83.3517C 132.43,82.046 133.489,80.9874 134.795,80.9874 Z "/>
		</g>
		<path fill="none" stroke-width="3" stroke-linejoin="round" stroke="#B5A5FE" stroke-opacity="1" d="M 139.142,70.4552C 146.378,70.4552 153.543,76.3209 153.543,83.5568C 153.543,90.7926 146.378,96.6583 139.142,96.6583C 131.907,96.6583 124.742,90.7926 124.742,83.5568C 124.742,76.3209 131.907,70.4552 139.142,70.4552 Z "/>
	</g>
	<path fill="#987FFF" fill-opacity="1" stroke-width="11" stroke-linejoin="round" stroke="#706CF5" stroke-opacity="1" d="M 120.958,78.1969C 120.958,78.1969 136.041,73.6144 137.833,65.3219"/>
</svg>
