<?xml version="1.0" encoding="UTF-8" standalone="yes"?>
<svg xmlns="http://www.w3.org/2000/svg" xmlns:xlink="http://www.w3.org/1999/xlink" width="48px" height="48px" viewBox="0 0 36 36" version="1.1">
  <g id="surface1">
    <path style=" stroke:none;fill-rule:nonzero;fill:rgb(24.313725%,26.27451%,27.843137%);fill-opacity:1;" d="M 31.421875 18.066406 L 18.683594 9.660156 C 18.683594 9.660156 25.960938 -0.113281 29.585938 1.253906 C 31.351562 1.921875 32.621094 15.417969 31.421875 18.066406 Z M 31.421875 18.066406 "/>
    <path style=" stroke:none;fill-rule:nonzero;fill:rgb(100%,100%,100%);fill-opacity:1;" d="M 30.867188 19.074219 L 25.820312 16.738281 C 25.820312 16.738281 22.847656 8.84375 29.269531 3.203125 C 30.578125 4.316406 32.113281 17.257812 30.867188 19.074219 Z M 30.867188 19.074219 "/>
    <path style=" stroke:none;fill-rule:nonzero;fill:rgb(24.313725%,26.27451%,27.843137%);fill-opacity:1;" d="M 4.578125 18.066406 L 17.316406 9.660156 C 17.316406 9.660156 10.035156 -0.113281 6.414062 1.253906 C 4.648438 1.921875 3.378906 15.417969 4.578125 18.066406 Z M 4.578125 18.066406 "/>
    <path style=" stroke:none;fill-rule:nonzero;fill:rgb(100%,100%,100%);fill-opacity:1;" d="M 5.132812 19.074219 L 10.179688 16.738281 C 10.179688 16.738281 13.152344 8.84375 6.726562 3.203125 C 5.421875 4.316406 3.882812 17.257812 5.132812 19.074219 Z M 5.132812 19.074219 "/>
    <path style=" stroke:none;fill-rule:nonzero;fill:rgb(100%,52.941176%,21.176471%);fill-opacity:1;" d="M 18 7.335938 C 10.625 7.335938 1.125 18.914062 1.125 25.53125 C 11.558594 25.53125 11.085938 34.875 18 34.875 C 24.914062 34.875 24.441406 25.53125 34.875 25.53125 C 34.875 18.914062 25.375 7.335938 18 7.335938 Z M 18 7.335938 "/>
    <path style=" stroke:none;fill-rule:nonzero;fill:rgb(100%,100%,100%);fill-opacity:1;" d="M 18 31.628906 C 18 34.488281 23.386719 33.980469 23.363281 30.019531 C 27.125 24.746094 34.539062 25.144531 34.539062 25.144531 C 22.285156 18.21875 18 31.628906 18 31.628906 Z M 18 31.628906 "/>
    <path style=" stroke:none;fill-rule:nonzero;fill:rgb(100%,100%,100%);fill-opacity:1;" d="M 18 31.628906 C 18 34.488281 12.613281 33.980469 12.636719 30.019531 C 8.875 24.746094 1.460938 25.144531 1.460938 25.144531 C 13.714844 18.21875 18 31.628906 18 31.628906 Z M 18 31.628906 "/>
    <path style=" stroke:none;fill-rule:nonzero;fill:rgb(100%,52.941176%,21.176471%);fill-opacity:1;" d="M 30.042969 10.382812 C 27.804688 10.777344 27.292969 13.914062 27.292969 13.914062 L 30.683594 16.886719 C 29.355469 13.632812 30.042969 10.382812 30.042969 10.382812 Z M 30.042969 10.382812 "/>
    <path style=" stroke:none;fill-rule:nonzero;fill:rgb(100%,52.941176%,21.176471%);fill-opacity:1;" d="M 28.722656 7.59375 C 26.269531 9.792969 25.851562 12.511719 25.851562 12.511719 L 29.238281 15.480469 C 27.910156 12.230469 28.722656 7.59375 28.722656 7.59375 Z M 28.722656 7.59375 "/>
    <path style=" stroke:none;fill-rule:nonzero;fill:rgb(100%,52.941176%,21.176471%);fill-opacity:1;" d="M 5.953125 10.382812 C 8.195312 10.777344 8.703125 13.914062 8.703125 13.914062 L 5.316406 16.886719 C 6.644531 13.632812 5.953125 10.382812 5.953125 10.382812 Z M 5.953125 10.382812 "/>
    <path style=" stroke:none;fill-rule:nonzero;fill:rgb(100%,52.941176%,21.176471%);fill-opacity:1;" d="M 7.277344 7.59375 C 9.730469 9.792969 10.148438 12.511719 10.148438 12.511719 L 6.757812 15.480469 C 8.089844 12.230469 7.277344 7.59375 7.277344 7.59375 Z M 7.277344 7.59375 "/>
    <path style=" stroke:none;fill-rule:nonzero;fill:rgb(24.313725%,26.27451%,27.843137%);fill-opacity:1;" d="M 29.726562 17.523438 C 26.53125 16.503906 23.574219 15.589844 21.992188 18.015625 C 20.636719 20.089844 22.378906 23.304688 22.378906 23.304688 C 28.636719 23.9375 29.726562 17.523438 29.726562 17.523438 Z M 29.726562 17.523438 "/>
    <path style=" stroke:none;fill-rule:nonzero;fill:rgb(83.529412%,100%,51.372549%);fill-opacity:1;" d="M 26.53125 20.425781 C 26.53125 19.140625 25.472656 18.097656 24.164062 18.097656 C 22.855469 18.097656 21.796875 19.140625 21.796875 20.425781 C 21.796875 21.710938 22.855469 22.753906 24.164062 22.753906 C 25.472656 22.753906 26.53125 21.710938 26.53125 20.425781 Z M 26.53125 20.425781 "/>
    <path style=" stroke:none;fill-rule:nonzero;fill:rgb(24.313725%,26.27451%,27.843137%);fill-opacity:1;" d="M 25.6875 20.425781 C 25.6875 19.601562 25.003906 18.929688 24.164062 18.929688 C 23.324219 18.929688 22.640625 19.601562 22.640625 20.425781 C 22.640625 21.253906 23.324219 21.921875 24.164062 21.921875 C 25.003906 21.921875 25.6875 21.253906 25.6875 20.425781 Z M 25.6875 20.425781 "/>
    <path style=" stroke:none;fill-rule:nonzero;fill:rgb(24.313725%,26.27451%,27.843137%);fill-opacity:1;" d="M 6.273438 17.523438 C 9.46875 16.503906 12.425781 15.589844 14.007812 18.015625 C 15.363281 20.089844 13.621094 23.304688 13.621094 23.304688 C 7.363281 23.9375 6.273438 17.523438 6.273438 17.523438 Z M 6.273438 17.523438 "/>
    <path style=" stroke:none;fill-rule:nonzero;fill:rgb(83.529412%,100%,51.372549%);fill-opacity:1;" d="M 14.203125 20.425781 C 14.203125 19.140625 13.144531 18.097656 11.835938 18.097656 C 10.527344 18.097656 9.46875 19.140625 9.46875 20.425781 C 9.46875 21.710938 10.527344 22.753906 11.835938 22.753906 C 13.144531 22.753906 14.203125 21.710938 14.203125 20.425781 Z M 14.203125 20.425781 "/>
    <path style=" stroke:none;fill-rule:nonzero;fill:rgb(24.313725%,26.27451%,27.843137%);fill-opacity:1;" d="M 13.355469 20.425781 C 13.355469 19.601562 12.675781 18.929688 11.835938 18.929688 C 10.992188 18.929688 10.3125 19.601562 10.3125 20.425781 C 10.3125 21.253906 10.992188 21.921875 11.835938 21.921875 C 12.675781 21.921875 13.355469 21.253906 13.355469 20.425781 Z M 13.355469 20.425781 "/>
    <path style=" stroke:none;fill-rule:nonzero;fill:rgb(24.313725%,26.27451%,27.843137%);fill-opacity:1;" d="M 23.183594 26.964844 C 22.78125 25.664062 22.179688 24.46875 21.503906 23.335938 C 22.101562 24.515625 22.621094 25.753906 22.929688 27.046875 C 23.234375 28.328125 23.332031 29.710938 22.910156 30.898438 C 22.699219 31.484375 22.355469 32 21.910156 32.355469 C 21.46875 32.714844 20.925781 32.917969 20.390625 32.925781 C 19.859375 32.933594 19.339844 32.738281 19 32.371094 C 18.65625 32.003906 18.507812 31.5 18.53125 30.921875 L 18 30.933594 L 17.46875 30.921875 C 17.492188 31.496094 17.34375 32 17 32.367188 C 16.660156 32.734375 16.140625 32.933594 15.609375 32.921875 C 15.074219 32.917969 14.53125 32.714844 14.089844 32.355469 C 13.644531 31.996094 13.300781 31.480469 13.089844 30.894531 C 12.667969 29.710938 12.765625 28.324219 13.070312 27.046875 C 13.378906 25.75 13.898438 24.515625 14.496094 23.332031 C 13.820312 24.464844 13.21875 25.664062 12.816406 26.960938 C 12.421875 28.25 12.203125 29.6875 12.589844 31.085938 C 12.78125 31.773438 13.148438 32.429688 13.671875 32.917969 C 14.195312 33.40625 14.859375 33.726562 15.566406 33.789062 C 16.265625 33.855469 17.03125 33.667969 17.621094 33.125 C 17.765625 32.996094 17.890625 32.847656 18 32.6875 C 18.109375 32.847656 18.234375 32.996094 18.378906 33.125 C 18.96875 33.667969 19.734375 33.855469 20.433594 33.789062 C 21.140625 33.726562 21.804688 33.40625 22.328125 32.917969 C 22.851562 32.429688 23.21875 31.773438 23.410156 31.085938 C 23.800781 29.6875 23.578125 28.25 23.183594 26.964844 Z M 23.183594 26.964844 "/>
    <path style=" stroke:none;fill-rule:nonzero;fill:rgb(24.313725%,26.27451%,27.843137%);fill-opacity:1;" d="M 21.132812 28.289062 C 20.503906 27.65625 18.578125 27.609375 18 27.609375 C 17.425781 27.609375 15.492188 27.65625 14.863281 28.289062 C 14.417969 28.742188 14.765625 29.859375 15.957031 30.824219 C 16.707031 31.429688 17.425781 31.625 18 31.625 C 18.578125 31.625 19.292969 31.429688 20.046875 30.824219 C 21.234375 29.859375 21.582031 28.742188 21.132812 28.289062 Z M 21.132812 28.289062 "/>
  </g>
</svg>