<?xml version="1.0" encoding="UTF-8" standalone="yes"?>
<svg xmlns="http://www.w3.org/2000/svg" xmlns:xlink="http://www.w3.org/1999/xlink" width="48px" height="48px" viewBox="0 0 36 36" version="1.1">
  <g id="surface1">
    <path style=" stroke:none;fill-rule:nonzero;fill:rgb(69.803922%,71.372549%,72.156863%);fill-opacity:1;" d="M 8.527344 5.117188 C 10.871094 3.683594 14.140625 1.75 14.320312 5.796875 C 14.675781 13.710938 15.75 15.933594 15.75 15.933594 L 6.886719 10.011719 C 6.886719 10.011719 3.546875 12.890625 1.839844 13.386719 C -0.28125 14 2.769531 8.007812 5.128906 6.300781 C 5.867188 5.765625 7.742188 5.597656 8.527344 5.117188 Z M 8.527344 5.117188 "/>
    <path style=" stroke:none;fill-rule:nonzero;fill:rgb(100%,77.254902%,82.745098%);fill-opacity:1;" d="M 10.75 6.90625 C 12.171875 8.808594 13.859375 16.164062 13.859375 16.164062 L 11.234375 16.875 C 11.234375 16.875 10.457031 14.269531 6.886719 10.011719 Z M 10.75 6.90625 "/>
    <path style=" stroke:none;fill-rule:nonzero;fill:rgb(69.803922%,71.372549%,72.156863%);fill-opacity:1;" d="M 27.472656 2.867188 C 25.132812 1.433594 21.859375 -0.5 21.679688 3.546875 C 21.324219 11.460938 19.6875 15.371094 19.6875 15.371094 L 29.117188 7.761719 C 29.117188 7.761719 32.453125 10.640625 34.160156 11.136719 C 36.28125 11.75 33.234375 5.757812 30.871094 4.050781 C 30.132812 3.515625 28.257812 3.347656 27.472656 2.867188 Z M 27.472656 2.867188 "/>
    <path style=" stroke:none;fill-rule:nonzero;fill:rgb(100%,77.254902%,82.745098%);fill-opacity:1;" d="M 25.25 4.65625 C 23.828125 6.558594 22.140625 13.914062 22.140625 13.914062 L 24.765625 14.625 C 24.765625 14.625 25.542969 12.019531 29.113281 7.761719 Z M 25.25 4.65625 "/>
    <path style=" stroke:none;fill-rule:nonzero;fill:rgb(76.862745%,77.254902%,77.647059%);fill-opacity:1;" d="M 7.691406 19.601562 C 7.691406 15.398438 10.886719 12.375 18 12.375 C 25.117188 12.375 28.308594 15.398438 28.308594 19.601562 C 28.308594 23.121094 33.664062 28.289062 28.890625 31.734375 C 26.585938 33.394531 22.605469 34.875 18 34.875 C 13.394531 34.875 9.414062 33.394531 7.109375 31.734375 C 2.335938 28.289062 7.691406 23.121094 7.691406 19.601562 Z M 7.691406 19.601562 "/>
    <path style=" stroke:none;fill-rule:nonzero;fill:rgb(100%,100%,100%);fill-opacity:1;" d="M 22.84375 25.441406 C 22.707031 22.066406 20.375 18 18.929688 16.105469 C 18.28125 15.246094 17.71875 15.246094 17.070312 16.105469 C 15.628906 18 13.292969 22.066406 13.15625 25.441406 C 10.507812 25.101562 7.464844 25.234375 6.863281 26.65625 C 5.671875 29.460938 11.269531 34.195312 18 34.195312 C 24.730469 34.195312 30.328125 29.460938 29.136719 26.65625 C 28.535156 25.234375 25.492188 25.101562 22.84375 25.441406 Z M 22.84375 25.441406 "/>
    <path style=" stroke:none;fill-rule:nonzero;fill:rgb(29.803922%,32.54902%,34.901961%);fill-opacity:1;" d="M 23.277344 29.476562 C 22.691406 29.929688 21.929688 30.195312 21.148438 30.226562 C 20.355469 30.261719 19.570312 30.058594 18.898438 29.640625 C 18.546875 29.417969 18.242188 29.128906 18 28.789062 C 17.757812 29.128906 17.453125 29.417969 17.101562 29.640625 C 16.425781 30.0625 15.632812 30.265625 14.835938 30.226562 C 14.089844 30.195312 13.300781 29.929688 12.722656 29.476562 C 12.367188 29.199219 14.222656 32.71875 18 32.71875 C 21.78125 32.71875 23.632812 29.195312 23.277344 29.476562 Z M 23.277344 29.476562 "/>
    <path style=" stroke:none;fill-rule:nonzero;fill:rgb(100%,100%,100%);fill-opacity:1;" d="M 20.976562 21.410156 C 20.976562 21.410156 21.199219 19.121094 23.046875 18.386719 C 25.132812 17.558594 26.558594 19.582031 26.945312 20.738281 C 27.515625 22.445312 26.796875 24.3125 26.585938 24.742188 C 26.445312 25.027344 24.90625 26.367188 21.429688 25.097656 C 21.429688 25.097656 20.566406 23.199219 20.976562 21.410156 Z M 20.976562 21.410156 "/>
    <path style=" stroke:none;fill-rule:nonzero;fill:rgb(69.803922%,71.372549%,72.156863%);fill-opacity:1;" d="M 20.976562 21.410156 C 21.011719 20.585938 21.285156 19.789062 21.765625 19.113281 C 22.011719 18.78125 22.320312 18.503906 22.675781 18.292969 C 22.851562 18.1875 23.039062 18.109375 23.222656 18.042969 C 23.417969 17.976562 23.621094 17.933594 23.824219 17.910156 C 24.652344 17.804688 25.484375 18.191406 26.085938 18.765625 C 26.683594 19.355469 27.144531 20.089844 27.367188 20.960938 C 27.570312 21.828125 27.515625 22.71875 27.328125 23.542969 C 27.226562 23.957031 27.097656 24.351562 26.921875 24.746094 L 26.851562 24.894531 L 26.820312 24.945312 L 26.777344 25.007812 C 26.753906 25.035156 26.730469 25.0625 26.707031 25.085938 C 26.621094 25.175781 26.53125 25.246094 26.441406 25.308594 C 26.261719 25.429688 26.078125 25.523438 25.886719 25.597656 C 25.128906 25.894531 24.335938 25.90625 23.585938 25.796875 C 22.835938 25.667969 22.109375 25.433594 21.429688 25.101562 C 22.15625 25.273438 22.882812 25.425781 23.613281 25.429688 C 24.335938 25.449219 25.0625 25.351562 25.6875 25.050781 C 25.84375 24.980469 25.988281 24.890625 26.121094 24.785156 C 26.183594 24.734375 26.246094 24.679688 26.292969 24.628906 L 26.316406 24.597656 C 26.316406 24.597656 26.316406 24.601562 26.316406 24.601562 C 26.316406 24.597656 26.339844 24.5625 26.324219 24.589844 L 26.375 24.464844 C 26.511719 24.121094 26.621094 23.75 26.691406 23.378906 C 26.847656 22.632812 26.878906 21.859375 26.703125 21.15625 C 26.539062 20.460938 26.136719 19.800781 25.652344 19.296875 C 25.160156 18.785156 24.527344 18.472656 23.859375 18.492188 C 23.691406 18.5 23.527344 18.523438 23.363281 18.5625 C 23.195312 18.605469 23.03125 18.664062 22.871094 18.738281 C 22.546875 18.886719 22.253906 19.097656 22.011719 19.359375 C 21.496094 19.890625 21.160156 20.628906 20.976562 21.410156 Z M 20.976562 21.410156 "/>
    <path style=" stroke:none;fill-rule:nonzero;fill:rgb(29.803922%,32.54902%,34.901961%);fill-opacity:1;" d="M 25.355469 22.242188 C 25.355469 20.996094 24.53125 19.988281 23.515625 19.988281 C 22.5 19.988281 21.675781 20.996094 21.675781 22.242188 C 21.675781 23.488281 22.5 24.496094 23.515625 24.496094 C 24.53125 24.496094 25.355469 23.488281 25.355469 22.242188 Z M 25.355469 22.242188 "/>
    <path style=" stroke:none;fill-rule:nonzero;fill:rgb(100%,100%,100%);fill-opacity:1;" d="M 15.023438 21.410156 C 15.023438 21.410156 14.800781 19.121094 12.953125 18.386719 C 10.867188 17.558594 9.445312 19.582031 9.058594 20.738281 C 8.488281 22.445312 9.203125 24.3125 9.414062 24.742188 C 9.554688 25.027344 11.097656 26.367188 14.570312 25.097656 C 14.570312 25.097656 15.4375 23.199219 15.023438 21.410156 Z M 15.023438 21.410156 "/>
    <path style=" stroke:none;fill-rule:nonzero;fill:rgb(69.803922%,71.372549%,72.156863%);fill-opacity:1;" d="M 15.023438 21.410156 C 14.839844 20.628906 14.503906 19.886719 13.988281 19.359375 C 13.746094 19.097656 13.453125 18.886719 13.128906 18.734375 C 12.972656 18.664062 12.804688 18.605469 12.636719 18.5625 C 12.476562 18.523438 12.308594 18.5 12.140625 18.492188 C 11.476562 18.472656 10.839844 18.78125 10.351562 19.292969 C 9.863281 19.800781 9.460938 20.460938 9.296875 21.15625 C 9.121094 21.859375 9.15625 22.632812 9.308594 23.375 C 9.382812 23.75 9.488281 24.121094 9.625 24.464844 L 9.675781 24.585938 L 9.683594 24.601562 L 9.683594 24.597656 L 9.707031 24.628906 C 9.753906 24.679688 9.816406 24.734375 9.878906 24.785156 C 10.007812 24.886719 10.15625 24.976562 10.3125 25.050781 C 10.9375 25.351562 11.667969 25.449219 12.386719 25.429688 C 13.117188 25.425781 13.84375 25.273438 14.570312 25.101562 C 13.890625 25.433594 13.164062 25.667969 12.414062 25.792969 C 11.664062 25.902344 10.871094 25.894531 10.113281 25.597656 C 9.917969 25.519531 9.730469 25.425781 9.558594 25.308594 C 9.460938 25.242188 9.375 25.167969 9.292969 25.085938 C 9.269531 25.0625 9.246094 25.035156 9.222656 25.007812 L 9.179688 24.945312 L 9.148438 24.894531 L 9.078125 24.746094 C 8.902344 24.351562 8.773438 23.957031 8.675781 23.542969 C 8.484375 22.71875 8.429688 21.828125 8.632812 20.960938 C 8.859375 20.089844 9.320312 19.355469 9.914062 18.765625 C 10.515625 18.191406 11.347656 17.800781 12.175781 17.910156 C 12.382812 17.933594 12.574219 17.972656 12.777344 18.042969 C 12.960938 18.105469 13.148438 18.1875 13.324219 18.292969 C 13.679688 18.503906 13.988281 18.78125 14.238281 19.113281 C 14.714844 19.785156 14.988281 20.585938 15.023438 21.410156 Z M 15.023438 21.410156 "/>
    <path style=" stroke:none;fill-rule:nonzero;fill:rgb(29.803922%,32.54902%,34.901961%);fill-opacity:1;" d="M 14.324219 22.242188 C 14.324219 20.996094 13.503906 19.988281 12.488281 19.988281 C 11.472656 19.988281 10.648438 20.996094 10.648438 22.242188 C 10.648438 23.488281 11.472656 24.496094 12.488281 24.496094 C 13.503906 24.496094 14.324219 23.488281 14.324219 22.242188 Z M 14.324219 22.242188 "/>
    <path style=" stroke:none;fill-rule:nonzero;fill:rgb(100%,100%,100%);fill-opacity:1;" d="M 16.128906 27.886719 L 19.871094 27.886719 L 19.871094 30.996094 L 16.128906 30.996094 Z M 16.128906 27.886719 "/>
    <path style=" stroke:none;fill-rule:nonzero;fill:rgb(69.803922%,71.372549%,72.156863%);fill-opacity:1;" d="M 23.640625 29.164062 C 23 29.476562 22.261719 29.605469 21.542969 29.578125 C 20.824219 29.535156 20.136719 29.351562 19.589844 29 C 19.042969 28.660156 18.636719 28.175781 18.519531 27.644531 L 18.003906 25.277344 L 17.480469 27.644531 C 17.359375 28.175781 16.957031 28.664062 16.40625 29 C 15.871094 29.351562 15.152344 29.535156 14.472656 29.578125 C 13.71875 29.601562 13.011719 29.476562 12.359375 29.164062 C 11.714844 28.859375 11.179688 28.363281 10.910156 27.730469 C 10.945312 28.40625 11.402344 29.0625 12.058594 29.515625 C 12.710938 29.972656 13.597656 30.238281 14.4375 30.265625 C 15.328125 30.308594 16.210938 30.109375 16.992188 29.683594 C 17.378906 29.464844 17.722656 29.175781 18 28.828125 C 18.277344 29.175781 18.621094 29.464844 19.007812 29.683594 C 19.761719 30.097656 20.675781 30.308594 21.546875 30.265625 C 22.421875 30.234375 23.277344 29.96875 23.941406 29.515625 C 24.59375 29.0625 25.054688 28.40625 25.09375 27.730469 C 24.820312 28.363281 24.285156 28.859375 23.640625 29.164062 Z M 23.640625 29.164062 "/>
    <path style=" stroke:none;fill-rule:nonzero;fill:rgb(100%,58.039216%,64.313725%);fill-opacity:1;" d="M 20.5 24.824219 C 19.996094 24.417969 18.460938 24.386719 18 24.386719 C 17.539062 24.386719 16.003906 24.417969 15.5 24.824219 C 15.144531 25.113281 15.421875 25.824219 16.371094 26.441406 C 16.96875 26.832031 17.539062 26.957031 18 26.957031 C 18.460938 26.957031 19.03125 26.832031 19.632812 26.441406 C 20.582031 25.824219 20.855469 25.113281 20.5 24.824219 Z M 20.5 24.824219 "/>
  </g>
</svg>