<?xml version="1.0" encoding="UTF-8" standalone="yes"?>
<svg xmlns="http://www.w3.org/2000/svg" xmlns:xlink="http://www.w3.org/1999/xlink" width="48px" height="48px" viewBox="0 0 36 36" version="1.1">
  <g id="surface1">
    <path style=" stroke:none;fill-rule:nonzero;fill:rgb(100%,61.176471%,43.921569%);fill-opacity:1;" d="M 1.125 1.125 L 3.617188 4.464844 L 4.203125 3.421875 Z M 1.125 1.125 "/>
    <path style=" stroke:none;fill-rule:nonzero;fill:rgb(100%,90.588235%,43.137255%);fill-opacity:1;" d="M 5.109375 6.464844 L 6.253906 4.953125 L 4.203125 3.421875 C 4.007812 3.769531 3.8125 4.117188 3.617188 4.464844 Z M 5.109375 6.464844 "/>
    <path style=" stroke:none;fill-rule:nonzero;fill:rgb(82.745098%,100%,45.882353%);fill-opacity:1;" d="M 6.542969 8.382812 L 8.382812 6.542969 L 6.253906 4.953125 L 5.109375 6.464844 Z M 6.542969 8.382812 "/>
    <path style=" stroke:none;fill-rule:nonzero;fill:rgb(34.901961%,100%,72.941176%);fill-opacity:1;" d="M 7.917969 10.226562 C 8.8125 9.550781 9.707031 8.875 10.601562 8.199219 L 8.382812 6.542969 L 6.542969 8.382812 Z M 7.917969 10.226562 "/>
    <path style=" stroke:none;fill-rule:nonzero;fill:rgb(45.098039%,87.058824%,100%);fill-opacity:1;" d="M 9.242188 12 L 12.917969 9.925781 L 10.601562 8.199219 L 7.917969 10.226562 Z M 9.242188 12 "/>
    <path style=" stroke:none;fill-rule:nonzero;fill:rgb(51.372549%,52.941176%,96.862745%);fill-opacity:1;" d="M 12.917969 9.925781 L 9.242188 12 L 11.433594 14.9375 L 14.164062 12.207031 L 14.933594 11.433594 Z M 12.917969 9.925781 "/>
    <path style=" stroke:none;fill-rule:nonzero;fill:rgb(100%,38.823529%,60.784314%);fill-opacity:1;" d="M 18.191406 9.996094 C 18.191406 9.996094 20.566406 5.980469 30.667969 5.035156 C 20.382812 3.949219 17.414062 7.65625 17.414062 7.65625 C 17.414062 7.65625 17.8125 9.183594 18.191406 9.996094 Z M 18.191406 9.996094 "/>
    <path style=" stroke:none;fill-rule:nonzero;fill:rgb(100%,38.823529%,60.784314%);fill-opacity:1;" d="M 17.515625 10.558594 C 17.515625 10.558594 22.601562 7.011719 31.652344 7.640625 L 23.394531 11.660156 C 23.394531 11.660156 28.144531 12.324219 34.546875 12.714844 L 27.863281 14.929688 C 27.863281 14.929688 30.25 16.410156 34.472656 17.804688 L 29.96875 18.492188 C 29.96875 18.492188 33.527344 18.707031 34.875 21.957031 L 31.769531 21.746094 C 31.769531 21.746094 33.148438 25.058594 34.875 26.984375 L 31.945312 25.324219 C 31.945312 25.324219 33.621094 28.171875 34.875 31.011719 L 31.824219 30.136719 C 33.246094 33.433594 34.523438 34.875 34.523438 34.875 C 26.882812 32.519531 17.515625 10.558594 17.515625 10.558594 Z M 17.515625 10.558594 "/>
    <path style=" stroke:none;fill-rule:nonzero;fill:rgb(98.823529%,66.27451%,78.823529%);fill-opacity:1;" d="M 16.523438 11.457031 C 16.523438 11.457031 23.238281 8.410156 32.65625 10.558594 L 22.402344 12.5625 C 22.402344 12.5625 29.261719 12.90625 33.445312 15.820312 L 26.871094 15.828125 C 26.871094 15.828125 30.992188 16.777344 32.847656 19.804688 L 28.972656 19.394531 C 28.972656 19.394531 33.199219 21.199219 34.875 24.78125 L 30.773438 22.648438 C 30.773438 22.648438 34.03125 24.375 33.589844 30.183594 L 31.210938 25.324219 C 31.210938 25.324219 32.09375 31.320312 33.882812 32.742188 L 31.410156 32.660156 C 32.535156 33.90625 33.097656 34.875 33.097656 34.875 L 27.070312 34.875 Z M 16.523438 11.457031 "/>
    <path style=" stroke:none;fill-rule:nonzero;fill:rgb(69.803922%,75.686275%,75.294118%);fill-opacity:1;" d="M 15.851562 10.683594 C 15.851562 10.683594 15.488281 8.210938 17.3125 4.574219 C 17.3125 4.574219 19.628906 7.441406 20.183594 12.554688 Z M 15.851562 10.683594 "/>
    <path style=" stroke:none;fill-rule:nonzero;fill:rgb(93.72549%,96.470588%,96.862745%);fill-opacity:1;" d="M 5.855469 30.3125 C 6.679688 30.898438 8.679688 28.628906 10.925781 28.207031 C 19.367188 26.621094 17.808594 23.386719 17.808594 23.386719 C 20.09375 26.28125 16.582031 33.011719 14.5625 34.875 L 31.652344 34.875 C 31.527344 12.402344 17.515625 10.558594 17.515625 10.558594 C 17.042969 6.492188 13.570312 4.5 13.570312 4.5 C 12.527344 7.023438 13.003906 11.503906 13.003906 11.503906 C 11.257812 14.582031 2.367188 22.9375 1.335938 24.1875 C 0.296875 25.441406 3.445312 29.148438 3.445312 29.148438 C 4.316406 29.25 5.410156 29.996094 5.855469 30.3125 Z M 5.855469 30.3125 "/>
    <path style=" stroke:none;fill-rule:nonzero;fill:rgb(69.803922%,75.686275%,75.294118%);fill-opacity:1;" d="M 8.511719 29.238281 C 8.960938 28.886719 10.035156 28.242188 11.671875 27.867188 C 12.773438 27.617188 13.867188 27.3125 14.871094 26.851562 C 15.871094 26.398438 16.8125 25.769531 17.335938 24.851562 C 17.855469 23.945312 17.863281 22.773438 17.4375 21.746094 C 18.0625 22.671875 18.265625 23.957031 17.742188 25.046875 C 17.226562 26.144531 16.179688 26.875 15.125 27.363281 C 14.050781 27.851562 12.910156 28.136719 11.761719 28.320312 C 10.367188 28.542969 9.035156 29.003906 8.511719 29.238281 Z M 3.5 25.777344 C 3.210938 25.984375 2.5 26.136719 2.28125 25.859375 C 2.066406 25.578125 2.429688 24.972656 2.722656 24.765625 C 3.011719 24.5625 3.414062 24.621094 3.636719 24.898438 C 3.738281 25.03125 3.78125 25.203125 3.757812 25.367188 C 3.730469 25.535156 3.636719 25.679688 3.5 25.777344 Z M 8.953125 24.25 C 8.886719 25.546875 8.234375 26.816406 7.234375 27.742188 C 6.722656 28.203125 6.128906 28.5625 5.484375 28.804688 C 4.84375 29.042969 4.167969 29.15625 3.484375 29.144531 C 4.765625 28.753906 5.933594 28.210938 6.851562 27.355469 C 7.3125 26.933594 7.722656 26.457031 8.066406 25.9375 C 8.40625 25.410156 8.714844 24.851562 8.953125 24.25 Z M 8.953125 24.25 "/>
    <path style=" stroke:none;fill-rule:nonzero;fill:rgb(24.313725%,26.27451%,27.843137%);fill-opacity:1;" d="M 9.21875 19.773438 C 9.21875 19.773438 9.730469 19.394531 10.195312 19.484375 C 10.195312 19.484375 9.5625 20.113281 10.039062 21.09375 C 10.039062 21.09375 10.554688 19.910156 11.441406 19.835938 C 11.441406 19.835938 10.832031 20.695312 11.609375 21.484375 C 11.609375 21.484375 11.769531 20.285156 12.917969 19.925781 C 12.917969 19.925781 12.757812 20.554688 13.320312 21.304688 C 13.320312 21.304688 13.144531 20.222656 13.933594 19.695312 C 14.71875 19.167969 15.59375 18.878906 16.039062 17.53125 C 16.039062 17.53125 14.125 19.488281 11.484375 18.949219 C 10.800781 18.808594 9.773438 18.621094 9.21875 19.773438 Z M 9.21875 19.773438 "/>
    <path style=" stroke:none;fill-rule:nonzero;fill:rgb(69.803922%,75.686275%,75.294118%);fill-opacity:1;" d="M 14.3125 12.171875 C 13.378906 10.949219 13.980469 7.445312 14.09375 6.953125 C 14.226562 6.375 17.34375 8.542969 16.488281 12.308594 C 16.414062 12.648438 16.25 12.96875 15.925781 12.964844 C 15.59375 12.953125 15.59375 12.007812 15.753906 11.398438 C 15.917969 10.78125 15.53125 11.382812 15.390625 11.804688 C 15.25 12.234375 15.136719 11.894531 15.164062 11.445312 C 15.195312 11 14.835938 11.894531 14.921875 12.382812 C 15.007812 12.863281 14.945312 13 14.3125 12.171875 Z M 2.8125 23.675781 C 2.519531 23.855469 2.570312 23.96875 2.828125 23.871094 C 3.089844 23.773438 4.359375 23.453125 4.464844 24.792969 C 4.464844 24.792969 4.535156 25.390625 4.695312 24.796875 C 4.855469 24.199219 4.476562 22.65625 2.8125 23.675781 Z M 2.8125 23.675781 "/>
    <path style=" stroke:none;fill-rule:nonzero;fill:rgb(100%,38.823529%,60.784314%);fill-opacity:1;" d="M 12.917969 10.140625 C 12.917969 10.140625 14.445312 16.359375 20.519531 19.476562 C 20.519531 19.476562 5.542969 16.171875 12.917969 10.140625 Z M 17.515625 10.558594 C 17.515625 10.558594 21.335938 20.664062 29.207031 23.523438 C 21.433594 16.109375 23.355469 11.917969 17.167969 9.003906 C 17.167969 9.003906 17.140625 9.746094 17.515625 10.558594 Z M 17.515625 10.558594 "/>
    <path style=" stroke:none;fill-rule:nonzero;fill:rgb(69.803922%,75.686275%,75.294118%);fill-opacity:1;" d="M 17.808594 23.386719 C 17.808594 23.386719 21.363281 25.679688 18.785156 34.875 L 14.5625 34.875 C 14.5625 34.875 19.828125 28.566406 17.808594 23.386719 Z M 17.808594 23.386719 "/>
  </g>
</svg>