<?xml version="1.0" encoding="UTF-8" standalone="yes"?>
<svg xmlns="http://www.w3.org/2000/svg" xmlns:xlink="http://www.w3.org/1999/xlink" width="48px" height="48px" viewBox="0 0 36 36" version="1.1">
  <g id="surface1">
    <path style=" stroke:none;fill-rule:nonzero;fill:rgb(25.882353%,67.843137%,88.627451%);fill-opacity:1;" d="M 33.644531 13.648438 C 33.644531 13.648438 34.257812 10.179688 31.65625 11.714844 C 31.65625 11.714844 31.402344 8.15625 29.222656 10.664062 C 29.222656 10.664062 28.054688 8.496094 26.75 10.511719 C 25 13.230469 23.835938 17.46875 24.964844 24.566406 L 27.078125 23.167969 C 28.59375 18.71875 34.03125 18.238281 34.769531 15.824219 C 35.300781 14.09375 33.644531 13.648438 33.644531 13.648438 Z M 33.644531 13.648438 "/>
    <path style=" stroke:none;fill-rule:nonzero;fill:rgb(25.882353%,67.843137%,88.627451%);fill-opacity:1;" d="M 12.429688 9.886719 L 6.839844 11.9375 C 8.074219 5.183594 16.191406 5.632812 16.191406 5.632812 C 16.191406 5.632812 12.398438 7.429688 12.429688 9.886719 Z M 12.429688 9.886719 "/>
    <path style=" stroke:none;fill-rule:nonzero;fill:rgb(25.882353%,67.843137%,88.627451%);fill-opacity:1;" d="M 13.335938 11.144531 L 7.433594 11.9375 C 10.125 5.613281 17.949219 7.804688 17.949219 7.804688 C 17.949219 7.804688 13.847656 8.738281 13.335938 11.144531 Z M 13.335938 11.144531 "/>
    <path style=" stroke:none;fill-rule:nonzero;fill:rgb(100%,85.098039%,23.137255%);fill-opacity:1;" d="M 1.125 16.285156 L 4.171875 15.476562 L 4.175781 17.503906 C 4.175781 17.503906 2.324219 17.226562 1.125 16.285156 Z M 4.171875 15.472656 L 1.125 13.933594 C 3.164062 12.355469 5.441406 12.84375 5.441406 12.84375 Z M 4.171875 15.472656 "/>
    <path style=" stroke:none;fill-rule:nonzero;fill:rgb(87.843137%,53.333333%,15.686275%);fill-opacity:1;" d="M 19.039062 29.796875 L 17.851562 29.796875 L 17.851562 34.226562 C 17.664062 34.257812 16.644531 34.167969 16.226562 34.167969 C 15.1875 34.167969 14.347656 34.875 14.347656 34.875 L 19.039062 34.875 Z M 14.046875 29.796875 L 12.859375 29.796875 L 12.859375 34.226562 C 12.671875 34.257812 11.652344 34.167969 11.234375 34.167969 C 10.195312 34.167969 9.355469 34.875 9.355469 34.875 L 14.046875 34.875 Z M 14.046875 29.796875 "/>
    <path style=" stroke:none;fill-rule:nonzero;fill:rgb(25.882353%,67.843137%,88.627451%);fill-opacity:1;" d="M 30.398438 20.359375 C 32.566406 20.359375 28.09375 30.222656 17.285156 30.222656 C 9.949219 30.222656 3.867188 27.296875 3.867188 18.140625 C 3.867188 12.453125 7.460938 7.84375 14.8125 9.714844 C 22.300781 11.625 18.445312 20.359375 30.398438 20.359375 Z M 30.398438 20.359375 "/>
    <path style=" stroke:none;fill-rule:nonzero;fill:rgb(100%,100%,100%);fill-opacity:1;" d="M 21.160156 29.054688 C 12.398438 29.039062 13.300781 22.300781 5.441406 22.78125 C 8.320312 31.679688 21.160156 29.054688 21.160156 29.054688 Z M 21.160156 29.054688 "/>
    <path style=" stroke:none;fill-rule:nonzero;fill:rgb(16.078431%,48.235294%,61.568627%);fill-opacity:1;" d="M 21.972656 16.425781 C 16.34375 10.917969 10.605469 19.914062 17.550781 23.488281 C 24.367188 26.996094 29.015625 20.773438 29.015625 20.773438 C 29.015625 20.773438 25.589844 19.96875 21.972656 16.425781 Z M 21.972656 16.425781 "/>
    <path style=" stroke:none;fill-rule:nonzero;fill:rgb(24.313725%,26.27451%,27.843137%);fill-opacity:1;" d="M 9.871094 14.019531 C 9.871094 14.796875 9.242188 15.425781 8.464844 15.425781 C 7.691406 15.425781 7.058594 14.796875 7.058594 14.019531 C 7.058594 13.242188 7.691406 12.613281 8.464844 12.613281 C 9.242188 12.613281 9.871094 13.242188 9.871094 14.019531 Z M 9.871094 14.019531 "/>
  </g>
</svg>