<?xml version="1.0" encoding="UTF-8" standalone="yes"?>
<svg xmlns="http://www.w3.org/2000/svg" xmlns:xlink="http://www.w3.org/1999/xlink" width="48px" height="48px" viewBox="0 0 36 36" version="1.1">
  <g id="surface1">
    <path style=" stroke:none;fill-rule:nonzero;fill:rgb(87.843137%,49.411765%,11.764706%);fill-opacity:1;" d="M 24.242188 28.4375 C 21.328125 28.4375 18.867188 26.761719 18.867188 24.78125 C 18.867188 22.800781 21.328125 21.125 24.242188 21.125 C 27.152344 21.125 29.613281 22.800781 29.613281 24.78125 C 29.613281 26.761719 27.152344 28.4375 24.242188 28.4375 Z M 24.242188 28.4375 "/>
    <path style=" stroke:none;fill-rule:nonzero;fill:rgb(24.313725%,26.27451%,27.843137%);fill-opacity:1;" d="M 24.242188 21.683594 C 27.128906 21.683594 29.140625 23.316406 29.140625 24.78125 C 29.140625 26.246094 27.128906 27.878906 24.242188 27.878906 C 21.351562 27.878906 19.339844 26.246094 19.339844 24.78125 C 19.339844 23.316406 21.351562 21.683594 24.242188 21.683594 M 24.242188 20.566406 C 21.011719 20.566406 18.394531 22.453125 18.394531 24.78125 C 18.394531 27.109375 21.011719 28.996094 24.242188 28.996094 C 27.46875 28.996094 30.085938 27.109375 30.085938 24.78125 C 30.085938 22.453125 27.46875 20.566406 24.242188 20.566406 Z M 24.242188 20.566406 "/>
    <path style=" stroke:none;fill-rule:nonzero;fill:rgb(87.843137%,49.411765%,11.764706%);fill-opacity:1;" d="M 15.78125 14.269531 C 13.140625 14.269531 10.996094 12.46875 10.996094 10.253906 C 10.996094 8.039062 13.140625 6.238281 15.78125 6.238281 C 18.417969 6.238281 20.5625 8.039062 20.5625 10.253906 C 20.5625 12.46875 18.417969 14.269531 15.78125 14.269531 Z M 15.78125 14.269531 "/>
    <path style=" stroke:none;fill-rule:nonzero;fill:rgb(24.313725%,26.27451%,27.843137%);fill-opacity:1;" d="M 15.78125 6.851562 C 18.089844 6.851562 20.042969 8.410156 20.042969 10.253906 C 20.042969 12.097656 18.089844 13.65625 15.78125 13.65625 C 13.46875 13.65625 11.515625 12.097656 11.515625 10.253906 C 11.515625 8.410156 13.46875 6.851562 15.78125 6.851562 M 15.78125 5.625 C 12.851562 5.625 10.476562 7.695312 10.476562 10.253906 C 10.476562 12.808594 12.851562 14.882812 15.78125 14.882812 C 18.707031 14.882812 21.082031 12.8125 21.082031 10.253906 C 21.082031 7.695312 18.707031 5.625 15.78125 5.625 Z M 15.78125 5.625 "/>
    <path style=" stroke:none;fill-rule:nonzero;fill:rgb(87.843137%,49.411765%,11.764706%);fill-opacity:1;" d="M 25.617188 17.925781 C 24.515625 17.925781 23.390625 17.34375 22.53125 16.328125 C 21.75 15.402344 21.28125 14.25 21.191406 13.042969 C 21.113281 11.882812 21.414062 10.835938 22.042969 10.09375 C 22.585938 9.441406 23.390625 9.066406 24.238281 9.070312 C 25.335938 9.070312 26.460938 9.652344 27.320312 10.667969 C 28.101562 11.59375 28.570312 12.746094 28.660156 13.957031 C 28.738281 15.117188 28.4375 16.164062 27.808594 16.90625 C 27.265625 17.554688 26.460938 17.929688 25.617188 17.925781 Z M 25.617188 17.925781 "/>
    <path style=" stroke:none;fill-rule:nonzero;fill:rgb(24.313725%,26.27451%,27.843137%);fill-opacity:1;" d="M 24.238281 9.683594 C 25.203125 9.683594 26.191406 10.199219 26.953125 11.101562 C 27.648438 11.917969 28.0625 12.9375 28.144531 14.003906 C 28.210938 14.984375 27.960938 15.859375 27.441406 16.472656 C 26.855469 17.167969 26.125 17.3125 25.617188 17.3125 C 24.648438 17.3125 23.660156 16.796875 22.898438 15.894531 C 22.203125 15.078125 21.789062 14.0625 21.707031 12.992188 C 21.640625 12.015625 21.890625 11.140625 22.410156 10.523438 C 22.996094 9.832031 23.726562 9.683594 24.238281 9.683594 M 24.238281 8.460938 C 23.273438 8.460938 22.359375 8.855469 21.679688 9.660156 C 20.152344 11.460938 20.371094 14.640625 22.164062 16.761719 C 23.15625 17.933594 24.421875 18.535156 25.617188 18.535156 C 26.578125 18.535156 27.492188 18.144531 28.175781 17.335938 C 29.699219 15.535156 29.480469 12.355469 27.6875 10.234375 C 26.695312 9.0625 25.429688 8.460938 24.238281 8.460938 Z M 24.238281 8.460938 "/>
    <path style=" stroke:none;fill-rule:nonzero;fill:rgb(87.843137%,49.411765%,11.764706%);fill-opacity:1;" d="M 16.28125 29.738281 C 15.566406 29.738281 14.792969 29.566406 14.050781 29.25 C 11.914062 28.332031 10.476562 26.359375 10.914062 24.945312 C 11.179688 24.078125 12.144531 23.542969 13.425781 23.542969 C 14.140625 23.542969 14.914062 23.710938 15.65625 24.03125 C 16.753906 24.503906 17.683594 25.246094 18.273438 26.121094 C 18.804688 26.910156 18.988281 27.695312 18.792969 28.335938 C 18.527344 29.199219 17.5625 29.738281 16.28125 29.738281 Z M 16.28125 29.738281 "/>
    <path style=" stroke:none;fill-rule:nonzero;fill:rgb(24.313725%,26.27451%,27.843137%);fill-opacity:1;" d="M 13.425781 24.179688 C 14.078125 24.179688 14.785156 24.335938 15.472656 24.632812 C 16.460938 25.054688 17.328125 25.746094 17.851562 26.519531 C 18.257812 27.117188 18.414062 27.699219 18.285156 28.117188 C 18.105469 28.707031 17.296875 29.101562 16.28125 29.101562 C 15.628906 29.101562 14.921875 28.945312 14.234375 28.648438 C 12.269531 27.804688 11.128906 26.113281 11.417969 25.164062 C 11.601562 24.574219 12.40625 24.179688 13.425781 24.179688 M 13.425781 22.90625 C 11.953125 22.90625 10.765625 23.554688 10.40625 24.726562 C 9.859375 26.5 11.410156 28.792969 13.867188 29.847656 C 14.695312 30.203125 15.527344 30.375 16.28125 30.375 C 17.75 30.375 18.9375 29.726562 19.300781 28.550781 C 19.84375 26.78125 18.296875 24.488281 15.839844 23.433594 C 15.011719 23.074219 14.179688 22.90625 13.425781 22.90625 Z M 13.425781 22.90625 "/>
    <path style=" stroke:none;fill-rule:nonzero;fill:rgb(94.901961%,60.392157%,18.039216%);fill-opacity:1;" d="M 19.675781 10.34375 C 17.835938 9.675781 15.886719 9.335938 13.929688 9.339844 C 13.316406 9.339844 12.730469 9.375 12.171875 9.441406 C 13.1875 12.015625 13.71875 14.832031 13.71875 17.691406 C 13.71875 20.90625 13.054688 24.035156 11.789062 26.847656 C 12.464844 26.933594 13.171875 26.984375 13.929688 26.984375 C 14.878906 26.984375 15.777344 26.96875 16.648438 26.917969 C 16.378906 25.476562 16.246094 24.011719 16.242188 22.546875 C 16.246094 18.09375 17.453125 13.851562 19.675781 10.34375 Z M 8.328125 10.503906 C 2.847656 13.023438 1.277344 18.773438 1.277344 18.773438 C 1.277344 18.773438 1.707031 19.140625 1.871094 19.515625 C 2.027344 19.871094 0.847656 20 1.1875 20.5625 C 2.136719 22.128906 4.941406 24.46875 7.890625 25.78125 C 9.171875 23.359375 9.847656 20.589844 9.847656 17.691406 C 9.847656 15.167969 9.324219 12.710938 8.328125 10.503906 Z M 33.894531 18.855469 C 33.894531 17.011719 36.085938 15.566406 33.894531 12.976562 C 33.894531 12.976562 32.648438 14.425781 31.464844 15.394531 C 31.386719 16.140625 31.347656 16.886719 31.34375 17.636719 C 31.34375 19.675781 31.628906 21.675781 32.191406 23.589844 C 33.25 24.148438 33.894531 24.738281 33.894531 24.738281 C 36.101562 22.132812 33.894531 20.828125 33.894531 18.855469 Z M 27.714844 15.238281 C 26.148438 13.96875 24.539062 12.777344 22.8125 11.796875 C 21.90625 13.984375 21.429688 16.382812 21.429688 18.851562 C 21.429688 21.253906 21.882812 23.597656 22.75 25.738281 C 24.375 25.175781 26.132812 24.359375 28.179688 23.191406 C 27.796875 21.363281 27.605469 19.503906 27.605469 17.636719 C 27.605469 16.859375 27.644531 16.054688 27.714844 15.238281 Z M 27.714844 15.238281 "/>
    <path style=" stroke:none;fill-rule:nonzero;fill:rgb(100%,100%,100%);fill-opacity:1;" d="M 10.367188 17.691406 C 10.367188 20.734375 9.640625 23.578125 8.386719 25.996094 C 9.304688 26.355469 10.261719 26.617188 11.238281 26.773438 C 12.488281 24.074219 13.199219 20.984375 13.199219 17.691406 C 13.199219 14.765625 12.636719 11.996094 11.632812 9.519531 C 10.605469 9.683594 9.667969 9.949219 8.820312 10.292969 C 9.804688 12.503906 10.367188 15.019531 10.367188 17.691406 Z M 10.367188 17.691406 "/>
    <path style=" stroke:none;fill-rule:nonzero;fill:rgb(24.313725%,26.27451%,27.843137%);fill-opacity:1;" d="M 12.171875 9.441406 C 11.988281 9.464844 11.808594 9.492188 11.632812 9.519531 C 12.636719 11.996094 13.199219 14.765625 13.199219 17.691406 C 13.199219 20.984375 12.488281 24.074219 11.238281 26.773438 C 11.417969 26.800781 11.605469 26.824219 11.792969 26.847656 C 13.054688 24.035156 13.71875 20.90625 13.71875 17.691406 C 13.71875 14.832031 13.1875 12.015625 12.171875 9.441406 Z M 10.367188 17.691406 C 10.367188 15.019531 9.804688 12.503906 8.820312 10.292969 C 8.65625 10.363281 8.488281 10.429688 8.328125 10.503906 C 9.324219 12.710938 9.847656 15.167969 9.847656 17.691406 C 9.847656 20.589844 9.171875 23.359375 7.890625 25.78125 C 8.050781 25.855469 8.214844 25.925781 8.386719 25.996094 C 9.640625 23.578125 10.367188 20.734375 10.367188 17.691406 Z M 10.367188 17.691406 "/>
    <path style=" stroke:none;fill-rule:nonzero;fill:rgb(100%,100%,100%);fill-opacity:1;" d="M 16.761719 22.546875 C 16.761719 24.035156 16.90625 25.484375 17.171875 26.878906 C 18.871094 26.75 20.488281 26.46875 22.242188 25.90625 C 21.390625 23.765625 20.910156 21.375 20.910156 18.851562 C 20.910156 16.226562 21.429688 13.746094 22.347656 11.539062 C 21.652344 11.164062 20.9375 10.832031 20.203125 10.542969 C 18.046875 13.871094 16.761719 18.03125 16.761719 22.546875 Z M 16.761719 22.546875 "/>
    <path style=" stroke:none;fill-rule:nonzero;fill:rgb(24.313725%,26.27451%,27.843137%);fill-opacity:1;" d="M 16.761719 22.546875 C 16.761719 18.03125 18.046875 13.871094 20.203125 10.542969 C 20.027344 10.472656 19.851562 10.40625 19.675781 10.34375 C 17.453125 13.851562 16.242188 18.09375 16.242188 22.546875 C 16.242188 24.019531 16.382812 25.484375 16.648438 26.914062 C 16.824219 26.90625 17 26.894531 17.171875 26.878906 C 16.902344 25.453125 16.761719 24 16.761719 22.546875 Z M 22.816406 11.796875 C 22.660156 11.710938 22.503906 11.625 22.34375 11.539062 C 21.429688 13.746094 20.910156 16.226562 20.910156 18.851562 C 20.910156 21.378906 21.390625 23.765625 22.242188 25.90625 C 22.410156 25.855469 22.578125 25.796875 22.75 25.738281 C 21.882812 23.597656 21.429688 21.25 21.429688 18.851562 C 21.429688 16.382812 21.90625 13.984375 22.816406 11.796875 Z M 22.816406 11.796875 "/>
    <path style=" stroke:none;fill-rule:nonzero;fill:rgb(100%,100%,100%);fill-opacity:1;" d="M 28.445312 15.835938 L 28.203125 15.636719 C 28.152344 16.300781 28.125 16.96875 28.125 17.636719 C 28.125 19.457031 28.3125 21.222656 28.660156 22.914062 C 28.78125 22.84375 28.90625 22.769531 29.03125 22.695312 C 29.492188 22.421875 30.535156 22.785156 31.558594 23.273438 C 30.910156 20.835938 30.691406 18.308594 30.90625 15.796875 C 30.105469 16.296875 29.226562 16.480469 28.445312 15.835938 Z M 28.445312 15.835938 "/>
    <path style=" stroke:none;fill-rule:nonzero;fill:rgb(24.313725%,26.27451%,27.843137%);fill-opacity:1;" d="M 28.125 17.636719 C 28.125 16.960938 28.152344 16.292969 28.207031 15.636719 L 27.71875 15.238281 C 27.644531 16.035156 27.609375 16.835938 27.605469 17.636719 C 27.605469 19.507812 27.800781 21.371094 28.179688 23.191406 C 28.339844 23.101562 28.496094 23.007812 28.660156 22.914062 C 28.304688 21.179688 28.125 19.410156 28.125 17.636719 Z M 31.464844 15.394531 C 31.289062 15.539062 31.101562 15.675781 30.90625 15.796875 C 30.691406 18.308594 30.914062 20.835938 31.558594 23.273438 C 31.773438 23.375 31.984375 23.484375 32.191406 23.589844 C 31.625 21.65625 31.34375 19.652344 31.34375 17.636719 C 31.34375 16.898438 31.386719 16.148438 31.464844 15.394531 Z M 31.464844 15.394531 "/>
    <path style=" stroke:none;fill-rule:nonzero;fill:rgb(87.843137%,49.411765%,11.764706%);fill-opacity:1;" d="M 14.46875 15.722656 C 12.816406 17.414062 12.523438 21.167969 15.265625 21.40625 C 18.585938 21.691406 20.207031 24.203125 21.859375 22.511719 C 23.511719 20.824219 22.933594 18.25 20.988281 16.265625 C 19.042969 14.277344 16.125 14.035156 14.46875 15.722656 Z M 14.46875 15.722656 "/>
    <path style=" stroke:none;fill-rule:nonzero;fill:rgb(24.313725%,26.27451%,27.843137%);fill-opacity:1;" d="M 14.511719 15.765625 C 13.683594 16.59375 13.257812 17.828125 13.332031 18.988281 C 13.375 19.566406 13.5625 20.136719 13.925781 20.53125 C 14.289062 20.925781 14.792969 21.105469 15.34375 21.125 C 16.566406 21.199219 17.746094 21.640625 18.820312 22.121094 C 19.355469 22.351562 19.890625 22.597656 20.378906 22.660156 C 20.863281 22.722656 21.234375 22.539062 21.582031 22.148438 C 21.925781 21.769531 22.160156 21.300781 22.257812 20.796875 C 22.351562 20.300781 22.304688 19.777344 22.160156 19.273438 C 21.859375 18.257812 21.226562 17.328125 20.457031 16.535156 C 19.714844 15.78125 18.761719 15.167969 17.675781 14.929688 C 17.136719 14.8125 16.5625 14.800781 16.007812 14.933594 C 15.441406 15.070312 14.925781 15.359375 14.511719 15.765625 Z M 14.429688 15.683594 C 15.253906 14.796875 16.480469 14.3125 17.734375 14.320312 C 18.996094 14.316406 20.261719 14.824219 21.230469 15.707031 C 22.15625 16.558594 22.929688 17.667969 23.234375 18.988281 C 23.382812 19.644531 23.402344 20.351562 23.230469 21.027344 C 23.0625 21.695312 22.714844 22.304688 22.222656 22.789062 C 21.992188 23.027344 21.699219 23.257812 21.34375 23.390625 C 20.992188 23.527344 20.601562 23.542969 20.261719 23.480469 C 19.582031 23.355469 19.050781 23.054688 18.515625 22.800781 C 17.46875 22.269531 16.421875 21.820312 15.289062 21.695312 C 14.988281 21.660156 14.65625 21.582031 14.363281 21.4375 C 14.0625 21.289062 13.804688 21.074219 13.601562 20.808594 C 13.203125 20.269531 13.082031 19.609375 13.097656 18.996094 C 13.113281 18.375 13.257812 17.773438 13.484375 17.214844 C 13.707031 16.652344 14.015625 16.121094 14.429688 15.683594 Z M 14.429688 15.683594 "/>
    <path style=" stroke:none;fill-rule:nonzero;fill:rgb(98.823529%,98.823529%,98.039216%);fill-opacity:1;" d="M 9.40625 18.347656 C 9.40625 16.394531 7.914062 14.808594 6.070312 14.808594 C 4.226562 14.808594 2.734375 16.394531 2.734375 18.347656 C 2.734375 20.300781 4.226562 21.886719 6.070312 21.886719 C 7.914062 21.886719 9.40625 20.300781 9.40625 18.347656 Z M 9.40625 18.347656 "/>
    <path style=" stroke:none;fill-rule:nonzero;fill:rgb(16.078431%,14.509804%,10.980392%);fill-opacity:1;" d="M 8.363281 18.347656 C 8.363281 17.003906 7.335938 15.914062 6.070312 15.914062 C 4.804688 15.914062 3.777344 17.003906 3.777344 18.347656 C 3.777344 19.691406 4.804688 20.78125 6.070312 20.78125 C 7.335938 20.78125 8.363281 19.691406 8.363281 18.347656 Z M 8.363281 18.347656 "/>
  </g>
</svg>