<?xml version="1.0" encoding="UTF-8" standalone="yes"?>
<svg xmlns="http://www.w3.org/2000/svg" xmlns:xlink="http://www.w3.org/1999/xlink" width="48px" height="48px" viewBox="0 0 36 36" version="1.1">
  <defs>
    <filter id="alpha" filterUnits="objectBoundingBox" x="0%" y="0%" width="100%" height="100%">
      <feColorMatrix type="matrix" in="SourceGraphic" values="0 0 0 0 1 0 0 0 0 1 0 0 0 0 1 0 0 0 1 0"/>
    </filter>
    <mask id="mask0">
      <g filter="url(#alpha)">
        <rect x="0" y="0" width="36" height="36" style="fill:rgb(0%,0%,0%);fill-opacity:0.6;stroke:none;"/>
      </g>
    </mask>
    <clipPath id="clip1">
      <rect width="36" height="36"/>
    </clipPath>
    <g id="surface6" clip-path="url(#clip1)">
      <path style=" stroke:none;fill-rule:nonzero;fill:rgb(65.098039%,68.235294%,69.019608%);fill-opacity:1;" d="M 17.4375 1.125 L 18.5625 1.125 L 18.5625 11.976562 L 17.4375 11.976562 Z M 17.4375 1.125 "/>
    </g>
  </defs>
  <g id="surface1">
    <path style=" stroke:none;fill-rule:nonzero;fill:rgb(45.882353%,40.392157%,42.745098%);fill-opacity:1;" d="M 22.261719 18.984375 C 22.261719 18.984375 25.015625 20.292969 31.363281 17.835938 C 32.839844 17.261719 27.546875 23.722656 26.746094 24.835938 C 27.820312 23.796875 36.113281 17.164062 32.859375 16.324219 C 30.8125 15.796875 25.777344 17.601562 25.070312 17.238281 Z M 22.261719 18.984375 "/>
    <path style=" stroke:none;fill-rule:nonzero;fill:rgb(35.686275%,29.803922%,32.156863%);fill-opacity:1;" d="M 21.96875 18.933594 C 21.96875 18.933594 25.539062 19.550781 30.726562 17.796875 C 32.242188 17.28125 27.546875 23.722656 26.746094 24.835938 C 27.820312 23.796875 35.351562 17.464844 32.097656 16.621094 C 30.054688 16.09375 25.480469 17.425781 24.773438 17.0625 Z M 21.96875 18.933594 "/>
    <path style=" stroke:none;fill-rule:nonzero;fill:rgb(45.882353%,40.392157%,42.745098%);fill-opacity:1;" d="M 10.929688 17.238281 C 10.222656 17.601562 5.1875 15.796875 3.140625 16.324219 C -0.113281 17.164062 8.179688 23.796875 9.253906 24.835938 C 8.453125 23.722656 3.160156 17.261719 4.636719 17.835938 C 10.984375 20.292969 13.738281 18.984375 13.738281 18.984375 Z M 10.929688 17.238281 "/>
    <path style=" stroke:none;fill-rule:nonzero;fill:rgb(35.686275%,29.803922%,32.156863%);fill-opacity:1;" d="M 11.226562 17.0625 C 10.519531 17.425781 5.945312 16.09375 3.902344 16.621094 C 0.652344 17.464844 8.179688 23.796875 9.257812 24.835938 C 8.453125 23.722656 3.757812 17.28125 5.273438 17.796875 C 10.460938 19.550781 14.03125 18.933594 14.03125 18.933594 Z M 11.226562 17.0625 "/>
    <path style=" stroke:none;fill-rule:nonzero;fill:rgb(35.686275%,29.803922%,32.156863%);fill-opacity:1;" d="M 27.972656 18.390625 C 27.972656 22.1875 23.507812 24.699219 18 24.699219 C 12.492188 24.699219 8.027344 22.1875 8.027344 18.390625 C 8.027344 11.597656 18 9.269531 18 9.269531 C 18 9.269531 27.972656 11.597656 27.972656 18.390625 Z M 27.972656 18.390625 "/>
    <path style=" stroke:none;fill-rule:nonzero;fill:rgb(88.627451%,29.411765%,29.411765%);fill-opacity:1;" d="M 22.5 12.851562 C 22.5 12.851562 20.484375 12.324219 18 12.324219 C 15.515625 12.324219 13.5 12.851562 13.5 12.851562 C 13.5 12.851562 15.515625 11.140625 18 11.140625 C 20.484375 11.140625 22.5 12.851562 22.5 12.851562 Z M 22.5 12.851562 "/>
    <path style=" stroke:none;fill-rule:nonzero;fill:rgb(88.627451%,29.411765%,29.411765%);fill-opacity:1;" d="M 22.5 14.226562 C 22.5 14.226562 20.484375 13.539062 18 13.539062 C 15.515625 13.539062 13.5 14.226562 13.5 14.226562 C 13.5 14.226562 15.515625 12.257812 18 12.257812 C 20.484375 12.257812 22.5 14.226562 22.5 14.226562 Z M 22.5 14.226562 "/>
    <path style=" stroke:none;fill-rule:nonzero;fill:rgb(45.882353%,40.392157%,42.745098%);fill-opacity:1;" d="M 22.699219 26.113281 C 22.699219 26.113281 25.734375 27.101562 31.988281 23.695312 C 33.441406 22.90625 28.820312 30.316406 28.136719 31.582031 C 29.113281 30.359375 36.820312 22.359375 33.335938 21.925781 C 31.140625 21.65625 26.160156 24.207031 25.375 23.925781 Z M 22.699219 26.113281 "/>
    <path style=" stroke:none;fill-rule:nonzero;fill:rgb(35.686275%,29.803922%,32.156863%);fill-opacity:1;" d="M 22.386719 26.101562 C 22.386719 26.101562 26.171875 26.261719 31.320312 23.738281 C 32.820312 23.003906 28.820312 30.316406 28.136719 31.582031 C 29.113281 30.359375 36.070312 22.773438 32.585938 22.339844 C 30.390625 22.066406 25.828125 24.0625 25.046875 23.78125 Z M 22.386719 26.101562 "/>
    <path style=" stroke:none;fill-rule:nonzero;fill:rgb(45.882353%,40.392157%,42.745098%);fill-opacity:1;" d="M 10.625 23.925781 C 9.839844 24.207031 4.859375 21.652344 2.664062 21.925781 C -0.820312 22.359375 6.886719 30.359375 7.863281 31.582031 C 7.179688 30.316406 2.558594 22.902344 4.011719 23.695312 C 10.265625 27.097656 13.300781 26.113281 13.300781 26.113281 Z M 10.625 23.925781 "/>
    <path style=" stroke:none;fill-rule:nonzero;fill:rgb(35.686275%,29.803922%,32.156863%);fill-opacity:1;" d="M 10.953125 23.78125 C 10.171875 24.0625 5.609375 22.066406 3.414062 22.339844 C -0.0703125 22.773438 6.886719 30.359375 7.863281 31.582031 C 7.179688 30.316406 3.179688 23.003906 4.679688 23.738281 C 9.824219 26.261719 13.613281 26.101562 13.613281 26.101562 Z M 10.953125 23.78125 "/>
    <path style=" stroke:none;fill-rule:nonzero;fill:rgb(45.882353%,40.392157%,42.745098%);fill-opacity:1;" d="M 22.832031 28.03125 C 22.832031 28.03125 25.433594 29.878906 32.417969 28.5 C 34.042969 28.179688 27.414062 33.871094 26.386719 34.875 C 27.683594 34 37.429688 28.671875 34.234375 27.214844 C 32.222656 26.300781 26.140625 27.246094 25.480469 26.742188 Z M 22.832031 28.03125 "/>
    <path style=" stroke:none;fill-rule:nonzero;fill:rgb(35.686275%,29.803922%,32.156863%);fill-opacity:1;" d="M 22.539062 27.925781 C 22.539062 27.925781 26.105469 29.210938 31.769531 28.34375 C 33.421875 28.089844 27.414062 33.871094 26.386719 34.875 C 27.683594 34 36.589844 28.84375 33.394531 27.386719 C 31.382812 26.46875 25.871094 27.011719 25.207031 26.507812 Z M 22.539062 27.925781 "/>
    <path style=" stroke:none;fill-rule:nonzero;fill:rgb(45.882353%,40.392157%,42.745098%);fill-opacity:1;" d="M 10.519531 26.742188 C 9.859375 27.246094 3.777344 26.300781 1.765625 27.214844 C -1.429688 28.671875 8.316406 34 9.613281 34.875 C 8.585938 33.871094 1.957031 28.179688 3.582031 28.5 C 10.566406 29.878906 13.167969 28.03125 13.167969 28.03125 Z M 10.519531 26.742188 "/>
    <path style=" stroke:none;fill-rule:nonzero;fill:rgb(35.686275%,29.803922%,32.156863%);fill-opacity:1;" d="M 10.792969 26.507812 C 10.128906 27.011719 4.617188 26.46875 2.605469 27.386719 C -0.589844 28.84375 8.316406 34 9.613281 34.875 C 8.585938 33.871094 2.578125 28.089844 4.230469 28.34375 C 9.894531 29.210938 13.460938 27.925781 13.460938 27.925781 Z M 10.792969 26.507812 "/>
    <path style=" stroke:none;fill-rule:nonzero;fill:rgb(45.882353%,40.392157%,42.745098%);fill-opacity:1;" d="M 20.71875 29.3125 C 20.71875 29.3125 22.03125 30.800781 26.449219 30.960938 C 27.476562 30.996094 22.664062 33.496094 21.898438 33.957031 C 22.804688 33.613281 29.457031 31.777344 27.730469 30.441406 C 26.644531 29.601562 23.171875 29.390625 22.84375 28.992188 Z M 20.71875 29.3125 "/>
    <path style=" stroke:none;fill-rule:nonzero;fill:rgb(35.686275%,29.803922%,32.156863%);fill-opacity:1;" d="M 20.558594 29.210938 C 20.558594 29.210938 22.53125 30.492188 26.078125 30.773438 C 27.113281 30.855469 22.660156 33.496094 21.898438 33.957031 C 22.804688 33.613281 28.921875 31.757812 27.199219 30.425781 C 26.109375 29.585938 23.042969 29.210938 22.710938 28.808594 Z M 20.558594 29.210938 "/>
    <path style=" stroke:none;fill-rule:nonzero;fill:rgb(45.882353%,40.392157%,42.745098%);fill-opacity:1;" d="M 13.15625 28.859375 C 12.824219 29.257812 9.355469 29.46875 8.269531 30.308594 C 6.542969 31.644531 13.195312 33.480469 14.101562 33.824219 C 13.339844 33.363281 8.523438 30.863281 9.550781 30.828125 C 13.96875 30.667969 15.277344 29.179688 15.277344 29.179688 Z M 13.15625 28.859375 "/>
    <path style=" stroke:none;fill-rule:nonzero;fill:rgb(35.686275%,29.803922%,32.156863%);fill-opacity:1;" d="M 13.289062 28.675781 C 12.957031 29.074219 9.886719 29.453125 8.800781 30.292969 C 7.074219 31.625 13.195312 33.480469 14.101562 33.824219 C 13.339844 33.363281 8.886719 30.71875 9.921875 30.636719 C 13.46875 30.359375 15.441406 29.074219 15.441406 29.074219 Z M 13.289062 28.675781 "/>
    <path style=" stroke:none;fill-rule:nonzero;fill:rgb(35.686275%,29.803922%,32.156863%);fill-opacity:1;" d="M 25.8125 24.691406 C 25.8125 21.222656 22.3125 18.410156 18 18.410156 C 13.6875 18.410156 10.1875 21.222656 10.1875 24.691406 C 10.1875 28.160156 13.6875 30.976562 18 30.976562 C 22.3125 30.976562 25.8125 28.160156 25.8125 24.691406 Z M 25.8125 24.691406 "/>
    <path style=" stroke:none;fill-rule:nonzero;fill:rgb(100%,90.196078%,18.039216%);fill-opacity:1;" d="M 23.175781 24.238281 C 23.175781 22.882812 22.097656 21.789062 20.765625 21.789062 C 19.4375 21.789062 18.359375 22.882812 18.359375 24.238281 C 18.359375 25.589844 19.4375 26.6875 20.765625 26.6875 C 22.097656 26.6875 23.175781 25.589844 23.175781 24.238281 Z M 23.175781 24.238281 "/>
    <path style=" stroke:none;fill-rule:nonzero;fill:rgb(24.705882%,20.392157%,21.960784%);fill-opacity:1;" d="M 22.429688 24.238281 C 22.429688 23.304688 21.6875 22.550781 20.773438 22.550781 C 19.859375 22.550781 19.117188 23.304688 19.117188 24.238281 C 19.117188 25.167969 19.859375 25.921875 20.773438 25.921875 C 21.6875 25.921875 22.429688 25.167969 22.429688 24.238281 Z M 22.429688 24.238281 "/>
    <path style=" stroke:none;fill-rule:nonzero;fill:rgb(100%,90.196078%,18.039216%);fill-opacity:1;" d="M 17.640625 24.238281 C 17.640625 22.882812 16.5625 21.789062 15.234375 21.789062 C 13.902344 21.789062 12.824219 22.882812 12.824219 24.238281 C 12.824219 25.589844 13.902344 26.6875 15.234375 26.6875 C 16.5625 26.6875 17.640625 25.589844 17.640625 24.238281 Z M 17.640625 24.238281 "/>
    <path style=" stroke:none;fill-rule:nonzero;fill:rgb(24.705882%,20.392157%,21.960784%);fill-opacity:1;" d="M 16.894531 24.238281 C 16.894531 25.167969 16.152344 25.921875 15.238281 25.921875 C 14.324219 25.921875 13.582031 25.167969 13.582031 24.238281 C 13.582031 23.304688 14.324219 22.550781 15.238281 22.550781 C 16.152344 22.550781 16.894531 23.304688 16.894531 24.238281 Z M 16.894531 24.238281 "/>
    <path style=" stroke:none;fill-rule:nonzero;fill:rgb(100%,100%,100%);fill-opacity:1;" d="M 19.5625 27.832031 C 19.5625 27.296875 18.863281 27.722656 18 27.722656 C 17.136719 27.722656 16.4375 27.296875 16.4375 27.832031 C 16.4375 28.367188 17.136719 28.804688 18 28.804688 C 18.863281 28.804688 19.5625 28.367188 19.5625 27.832031 Z M 19.5625 27.832031 "/>
    <use xlink:href="#surface6" mask="url(#mask0)"/>
  </g>
</svg>