<?xml version="1.0" encoding="UTF-8" standalone="yes"?>
<svg xmlns="http://www.w3.org/2000/svg" xmlns:xlink="http://www.w3.org/1999/xlink" width="48px" height="48px" viewBox="0 0 36 36" version="1.1">
  <g id="surface1">
    <path style=" stroke:none;fill-rule:nonzero;fill:rgb(98.823529%,59.215686%,69.803922%);fill-opacity:1;" d="M 11.585938 8.320312 C 10.246094 5.808594 1.335938 6.558594 1.335938 6.558594 C 1.335938 6.558594 0.285156 15.59375 2.867188 16.996094 C 4.855469 18.074219 12.667969 10.355469 11.585938 8.320312 Z M 11.585938 8.320312 "/>
    <path style=" stroke:none;fill-rule:nonzero;fill:rgb(100%,84.313725%,89.411765%);fill-opacity:1;" d="M 9.910156 9.699219 C 9.078125 8.140625 3.558594 8.605469 3.558594 8.605469 C 3.558594 8.605469 2.90625 14.210938 4.507812 15.078125 C 5.738281 15.746094 10.582031 10.960938 9.910156 9.699219 Z M 9.910156 9.699219 "/>
    <path style=" stroke:none;fill-rule:nonzero;fill:rgb(98.823529%,59.215686%,69.803922%);fill-opacity:1;" d="M 33 16.929688 C 35.523438 15.597656 34.769531 6.730469 34.769531 6.730469 C 34.769531 6.730469 25.691406 5.683594 24.285156 8.253906 C 23.203125 10.234375 30.957031 18.011719 33 16.929688 Z M 33 16.929688 "/>
    <path style=" stroke:none;fill-rule:nonzero;fill:rgb(100%,84.313725%,89.411765%);fill-opacity:1;" d="M 31.617188 15.265625 C 33.179688 14.4375 32.710938 8.941406 32.710938 8.941406 C 32.710938 8.941406 27.085938 8.292969 26.214844 9.886719 C 25.542969 11.113281 30.347656 15.9375 31.617188 15.265625 Z M 31.617188 15.265625 "/>
    <path style=" stroke:none;fill-rule:nonzero;fill:rgb(98.823529%,59.215686%,69.803922%);fill-opacity:1;" d="M 33.074219 22.144531 C 33.074219 31.929688 26.324219 33.75 18 33.75 C 9.675781 33.75 2.925781 31.929688 2.925781 22.144531 C 2.925781 12.355469 12.1875 5.335938 18 5.335938 C 23.8125 5.335938 33.074219 12.355469 33.074219 22.144531 Z M 33.074219 22.144531 "/>
    <path style=" stroke:none;fill-rule:nonzero;fill:rgb(100%,84.313725%,89.411765%);fill-opacity:1;" d="M 25.898438 27.988281 C 25.898438 32.535156 22.363281 32.007812 18 32.007812 C 13.636719 32.007812 10.101562 32.535156 10.101562 27.988281 C 10.101562 23.441406 13.636719 21.160156 18 21.160156 C 22.363281 21.160156 25.898438 23.441406 25.898438 27.988281 Z M 25.898438 27.988281 "/>
    <path style=" stroke:none;fill-rule:nonzero;fill:rgb(74.901961%,48.235294%,56.470588%);fill-opacity:1;" d="M 16.410156 27.019531 C 16.410156 25.074219 15.542969 23.5 14.476562 23.5 C 13.40625 23.5 12.542969 25.074219 12.542969 27.019531 C 12.542969 28.964844 13.40625 30.542969 14.476562 30.542969 C 15.542969 30.542969 16.410156 28.964844 16.410156 27.019531 Z M 16.410156 27.019531 "/>
    <path style=" stroke:none;fill-rule:nonzero;fill:rgb(74.901961%,48.235294%,56.470588%);fill-opacity:1;" d="M 23.457031 27.019531 C 23.457031 25.074219 22.59375 23.5 21.523438 23.5 C 20.457031 23.5 19.589844 25.074219 19.589844 27.019531 C 19.589844 28.964844 20.457031 30.542969 21.523438 30.542969 C 22.59375 30.542969 23.457031 28.964844 23.457031 27.019531 Z M 23.457031 27.019531 "/>
    <path style=" stroke:none;fill-rule:nonzero;fill:rgb(74.901961%,48.235294%,56.470588%);fill-opacity:1;" d="M 18 12.722656 C 18 12.722656 16.328125 7.074219 12.5625 6.015625 C 12.5625 6.015625 14.25 5.035156 15.492188 5.511719 C 15.492188 5.511719 15.570312 4.480469 14.453125 3.742188 C 14.453125 3.742188 16.882812 3.21875 18.085938 4.945312 C 18.085938 4.945312 18.253906 3.152344 17.816406 2.25 C 17.816406 2.25 21.839844 3.199219 22.878906 6.621094 C 22.878906 6.621094 18.789062 7.839844 18 12.722656 Z M 18 12.722656 "/>
    <path style=" stroke:none;fill-rule:nonzero;fill:rgb(28.627451%,23.137255%,18.823529%);fill-opacity:1;" d="M 10.527344 19.433594 C 10.527344 17.695312 9.75 16.285156 8.789062 16.285156 C 7.832031 16.285156 7.054688 17.695312 7.054688 19.433594 C 7.054688 21.175781 7.832031 22.585938 8.789062 22.585938 C 9.75 22.585938 10.527344 21.175781 10.527344 19.433594 Z M 10.527344 19.433594 "/>
    <path style=" stroke:none;fill-rule:nonzero;fill:rgb(28.627451%,23.137255%,18.823529%);fill-opacity:1;" d="M 28.949219 19.351562 C 28.949219 17.613281 28.167969 16.203125 27.210938 16.203125 C 26.25 16.203125 25.472656 17.613281 25.472656 19.351562 C 25.472656 21.09375 26.25 22.503906 27.210938 22.503906 C 28.167969 22.503906 28.949219 21.09375 28.949219 19.351562 Z M 28.949219 19.351562 "/>
  </g>
</svg>