<?xml version="1.0" encoding="UTF-8" standalone="yes"?>
<svg xmlns="http://www.w3.org/2000/svg" xmlns:xlink="http://www.w3.org/1999/xlink" width="48px" height="48px" viewBox="0 0 36 36" version="1.1">
  <g id="surface1">
    <path style=" stroke:none;fill-rule:nonzero;fill:rgb(89.803922%,74.509804%,47.843137%);fill-opacity:1;" d="M 7.113281 11.0625 C 6.75 7.066406 9.214844 6.574219 10.554688 6.859375 C 11.898438 7.144531 13.003906 10.457031 11.519531 14.1875 C 9.476562 19.320312 5.589844 20.179688 5.589844 20.179688 C 5.589844 20.179688 7.585938 16.304688 7.113281 11.0625 Z M 7.113281 11.0625 "/>
    <path style=" stroke:none;fill-rule:nonzero;fill:rgb(89.803922%,74.509804%,47.843137%);fill-opacity:1;" d="M 8.378906 15.457031 C 8.015625 11.460938 10.480469 10.972656 11.820312 11.257812 C 13.160156 11.542969 14.265625 14.851562 12.785156 18.585938 C 10.742188 23.71875 5.375 25.152344 5.375 25.152344 C 5.375 25.152344 8.851562 20.699219 8.378906 15.457031 Z M 8.378906 15.457031 "/>
    <path style=" stroke:none;fill-rule:nonzero;fill:rgb(89.803922%,74.509804%,47.843137%);fill-opacity:1;" d="M 9.269531 21.058594 C 8.910156 17.0625 11.371094 16.574219 12.714844 16.859375 C 14.054688 17.144531 15.160156 20.453125 13.675781 24.183594 C 11.636719 29.320312 4.871094 31.324219 4.871094 31.324219 C 4.871094 31.324219 9.746094 26.300781 9.269531 21.058594 Z M 9.269531 21.058594 "/>
    <path style=" stroke:none;fill-rule:nonzero;fill:rgb(89.803922%,74.509804%,47.843137%);fill-opacity:1;" d="M 30.269531 11.191406 C 29.503906 7.25 26.765625 6.574219 25.425781 6.859375 C 24.085938 7.144531 22.980469 10.457031 24.464844 14.1875 C 26.503906 19.320312 26.75 22.652344 26.75 22.652344 C 26.75 22.652344 31.488281 17.472656 30.269531 11.191406 Z M 30.269531 11.191406 "/>
    <path style=" stroke:none;fill-rule:nonzero;fill:rgb(75.686275%,52.941176%,36.470588%);fill-opacity:1;" d="M 32.613281 1.128906 C 32.703125 4.019531 32.265625 6.390625 31.320312 7.808594 C 29.886719 8.699219 27.421875 9.15625 24.367188 9.089844 C 24.277344 6.199219 24.710938 3.828125 25.660156 2.410156 C 27.09375 1.519531 29.558594 1.0625 32.613281 1.128906 Z M 32.613281 1.128906 "/>
    <path style=" stroke:none;fill-rule:nonzero;fill:rgb(24.313725%,26.27451%,27.843137%);fill-opacity:1;" d="M 30.792969 2.886719 C 30.847656 4.5 30.601562 5.824219 30.070312 6.617188 C 29.269531 7.117188 27.890625 7.371094 26.183594 7.332031 C 26.132812 5.71875 26.378906 4.394531 26.90625 3.601562 C 27.710938 3.101562 29.085938 2.847656 30.792969 2.886719 Z M 30.792969 2.886719 "/>
    <path style=" stroke:none;fill-rule:nonzero;fill:rgb(75.686275%,52.941176%,36.470588%);fill-opacity:1;" d="M 11.710938 9.085938 C 8.6875 9.171875 6.207031 8.753906 4.722656 7.847656 C 3.789062 6.476562 3.3125 4.121094 3.382812 1.203125 C 6.402344 1.117188 8.882812 1.53125 10.367188 2.4375 C 11.304688 3.808594 11.777344 6.164062 11.710938 9.085938 Z M 11.710938 9.085938 "/>
    <path style=" stroke:none;fill-rule:nonzero;fill:rgb(24.313725%,26.27451%,27.843137%);fill-opacity:1;" d="M 9.890625 7.363281 C 8.191406 7.410156 6.792969 7.179688 5.953125 6.667969 C 5.425781 5.894531 5.160156 4.566406 5.199219 2.921875 C 6.902344 2.871094 8.300781 3.105469 9.136719 3.617188 C 9.660156 4.390625 9.933594 5.71875 9.890625 7.363281 Z M 9.890625 7.363281 "/>
    <path style=" stroke:none;fill-rule:nonzero;fill:rgb(75.686275%,52.941176%,36.470588%);fill-opacity:1;" d="M 27.328125 16.289062 C 27.328125 18.355469 25.007812 25.519531 25.007812 28.523438 C 25.007812 28.523438 22.113281 28.8125 17.988281 28.8125 C 13.945312 28.8125 11.070312 28.675781 11.070312 28.675781 C 11.070312 25.59375 8.648438 18.359375 8.648438 16.289062 C 8.648438 13.539062 8.351562 10.617188 11.230469 6.820312 C 11.90625 5.925781 12.097656 4.769531 17.988281 4.769531 C 23.832031 4.769531 24.257812 5.703125 24.871094 6.464844 C 27.691406 9.960938 27.328125 12.652344 27.328125 16.289062 Z M 27.328125 16.289062 "/>
    <path style=" stroke:none;fill-rule:nonzero;fill:rgb(100%,88.627451%,70.196078%);fill-opacity:1;" d="M 25.183594 30.871094 C 25.183594 33.617188 23.496094 34.875 17.992188 34.875 C 12.484375 34.875 10.796875 33.617188 10.796875 30.871094 C 10.796875 28.121094 10.949219 24.925781 17.992188 24.925781 C 25.03125 24.925781 25.183594 28.121094 25.183594 30.871094 Z M 25.183594 30.871094 "/>
    <path style=" stroke:none;fill-rule:nonzero;fill:rgb(24.313725%,26.27451%,27.843137%);fill-opacity:1;" d="M 27.550781 15.042969 C 27.550781 16.285156 26.730469 17.292969 25.722656 17.292969 C 24.710938 17.292969 23.894531 16.285156 23.894531 15.042969 C 23.894531 13.800781 24.710938 12.792969 25.722656 12.792969 C 26.730469 12.792969 27.550781 13.800781 27.550781 15.042969 Z M 27.550781 15.042969 "/>
    <path style=" stroke:none;fill-rule:nonzero;fill:rgb(24.313725%,26.27451%,27.843137%);fill-opacity:1;" d="M 12.082031 15.042969 C 12.082031 13.800781 11.265625 12.792969 10.253906 12.792969 C 9.246094 12.792969 8.425781 13.800781 8.425781 15.042969 C 8.425781 16.285156 9.246094 17.292969 10.253906 17.292969 C 11.265625 17.292969 12.082031 16.285156 12.082031 15.042969 Z M 12.082031 15.042969 "/>
    <path style=" stroke:none;fill-rule:nonzero;fill:rgb(100%,88.627451%,70.196078%);fill-opacity:1;" d="M 22.808594 24.378906 C 21.601562 23.597656 19.898438 25.007812 19 27.523438 C 18.097656 30.042969 18.347656 32.71875 19.558594 33.496094 C 20.765625 34.28125 22.472656 32.871094 23.367188 30.355469 C 24.265625 27.835938 24.015625 25.160156 22.808594 24.378906 Z M 13.171875 24.378906 C 11.964844 25.160156 11.714844 27.835938 12.617188 30.355469 C 13.515625 32.871094 15.21875 34.28125 16.425781 33.5 C 17.632812 32.71875 17.882812 30.042969 16.984375 27.527344 C 16.089844 25.007812 14.382812 23.597656 13.171875 24.378906 Z M 13.171875 24.378906 "/>
    <path style=" stroke:none;fill-rule:nonzero;fill:rgb(100%,100%,100%);fill-opacity:1;" d="M 15.507812 10.8125 C 15.507812 6.070312 16.621094 5.117188 17.992188 5.117188 C 19.363281 5.117188 20.472656 6.070312 20.472656 10.8125 C 20.472656 15.550781 17.992188 22.28125 17.992188 22.28125 C 17.992188 22.28125 15.507812 15.550781 15.507812 10.8125 Z M 15.507812 10.8125 "/>
    <path style=" stroke:none;fill-rule:nonzero;fill:rgb(24.313725%,26.27451%,27.843137%);fill-opacity:1;" d="M 22.375 25.859375 C 21.492188 25.289062 20.242188 26.320312 19.582031 28.164062 C 18.921875 30.011719 19.105469 31.972656 19.992188 32.542969 C 20.875 33.117188 22.128906 32.082031 22.785156 30.238281 C 23.441406 28.394531 23.257812 26.433594 22.375 25.859375 Z M 13.609375 25.859375 C 12.726562 26.433594 12.542969 28.394531 13.199219 30.238281 C 13.859375 32.082031 15.109375 33.117188 15.992188 32.542969 C 16.875 31.972656 17.058594 30.011719 16.398438 28.167969 C 15.742188 26.320312 14.492188 25.289062 13.609375 25.859375 Z M 13.609375 25.859375 "/>
    <path style=" stroke:none;fill-rule:nonzero;fill:rgb(89.803922%,74.509804%,47.843137%);fill-opacity:1;" d="M 25.722656 5.375 C 21.621094 -0.445312 5.414062 1.445312 5.414062 14.914062 C 5.414062 14.914062 9.285156 9.941406 15.796875 8.496094 C 15.796875 8.496094 13.207031 11.460938 10.148438 13.8125 C 10.148438 13.8125 16.503906 12.203125 20.429688 8.550781 C 20.429688 8.550781 20.886719 11.175781 15.632812 12.917969 C 15.632812 12.917969 30.761719 12.527344 25.722656 5.375 Z M 25.722656 5.375 "/>
  </g>
</svg>