<?xml version="1.0" encoding="UTF-8" standalone="yes"?>
<svg xmlns="http://www.w3.org/2000/svg" xmlns:xlink="http://www.w3.org/1999/xlink" width="48px" height="48px" viewBox="0 0 36 36" version="1.1">
  <g id="surface1">
    <path style=" stroke:none;fill-rule:nonzero;fill:rgb(87.843137%,67.45098%,49.411765%);fill-opacity:1;" d="M 31.691406 14.703125 C 34.042969 13.03125 35.332031 5.472656 34.726562 4.804688 C 34.117188 4.136719 27.136719 5.320312 25.550781 7.972656 C 24.335938 10.011719 29.785156 16.058594 31.691406 14.703125 Z M 31.691406 14.703125 "/>
    <path style=" stroke:none;fill-rule:nonzero;fill:rgb(75.686275%,52.941176%,36.470588%);fill-opacity:1;" d="M 30.757812 13.363281 C 32.214844 12.328125 32.640625 7.226562 32.640625 7.226562 C 32.640625 7.226562 27.9375 7.546875 26.953125 9.191406 C 26.199219 10.457031 29.578125 14.203125 30.757812 13.363281 Z M 30.757812 13.363281 "/>
    <path style=" stroke:none;fill-rule:nonzero;fill:rgb(87.843137%,67.45098%,49.411765%);fill-opacity:1;" d="M 4.308594 14.703125 C 1.957031 13.03125 0.667969 5.472656 1.273438 4.804688 C 1.882812 4.136719 8.863281 5.320312 10.445312 7.972656 C 11.667969 10.011719 6.214844 16.058594 4.308594 14.703125 Z M 4.308594 14.703125 "/>
    <path style=" stroke:none;fill-rule:nonzero;fill:rgb(75.686275%,52.941176%,36.470588%);fill-opacity:1;" d="M 5.242188 13.363281 C 3.785156 12.328125 3.359375 7.226562 3.359375 7.226562 C 3.359375 7.226562 8.0625 7.546875 9.046875 9.191406 C 9.800781 10.457031 6.421875 14.203125 5.242188 13.363281 Z M 5.242188 13.363281 "/>
    <path style=" stroke:none;fill-rule:nonzero;fill:rgb(87.843137%,67.45098%,49.411765%);fill-opacity:1;" d="M 28.445312 19.878906 C 25.425781 23.210938 26.84375 32.527344 18 32.527344 C 5.332031 32.527344 10.574219 23.210938 7.554688 19.878906 C 0.722656 12.335938 12.257812 7.078125 18 7.078125 C 23.742188 7.078125 35.277344 12.335938 28.445312 19.878906 Z M 28.445312 19.878906 "/>
    <path style=" stroke:none;fill-rule:nonzero;fill:rgb(87.843137%,67.45098%,49.411765%);fill-opacity:1;" d="M 18.414062 16.625 C 18.414062 16.625 16.035156 8.0625 12.046875 6.015625 C 12.046875 6.015625 13.667969 4.78125 14.996094 5.644531 C 14.996094 5.644531 14.957031 4.132812 13.722656 2.894531 C 13.722656 2.894531 16.15625 2.4375 17.59375 5.144531 C 17.59375 5.144531 17.554688 2.515625 17.003906 1.125 C 17.003906 1.125 21.242188 3.046875 22.707031 8.238281 C 22.707031 8.238281 18.65625 9.515625 18.414062 16.625 Z M 18.414062 16.625 "/>
    <path style=" stroke:none;fill-rule:nonzero;fill:rgb(24.313725%,26.27451%,27.843137%);fill-opacity:1;" d="M 9.460938 16.316406 C 9.460938 14.960938 8.464844 13.863281 7.238281 13.863281 C 6.007812 13.863281 5.015625 14.960938 5.015625 16.316406 C 5.015625 17.667969 6.007812 18.765625 7.238281 18.765625 C 8.464844 18.765625 9.460938 17.667969 9.460938 16.316406 Z M 9.460938 16.316406 "/>
    <path style=" stroke:none;fill-rule:nonzero;fill:rgb(24.313725%,26.27451%,27.843137%);fill-opacity:1;" d="M 30.984375 16.226562 C 30.984375 14.871094 29.988281 13.773438 28.761719 13.773438 C 27.535156 13.773438 26.539062 14.871094 26.539062 16.226562 C 26.539062 17.578125 27.535156 18.675781 28.761719 18.675781 C 29.988281 18.675781 30.984375 17.578125 30.984375 16.226562 Z M 30.984375 16.226562 "/>
    <path style=" stroke:none;fill-rule:nonzero;fill:rgb(53.72549%,40%,29.803922%);fill-opacity:1;" d="M 18.5625 30.171875 C 18.5625 31.386719 16.800781 32.371094 14.625 32.371094 C 12.449219 32.371094 10.6875 31.386719 10.6875 30.171875 C 10.6875 28.957031 12.449219 27.972656 14.625 27.972656 C 16.800781 27.972656 18.5625 28.957031 18.5625 30.171875 Z M 18.5625 30.171875 "/>
    <path style=" stroke:none;fill-rule:nonzero;fill:rgb(100%,88.627451%,70.196078%);fill-opacity:1;" d="M 22.183594 29.667969 C 22.183594 31.476562 19.238281 34.074219 15.75 34.78125 C 12.046875 35.535156 9.316406 31.476562 9.316406 29.667969 C 9.316406 27.855469 9.457031 29.902344 13.007812 29.902344 C 16.5625 29.902344 22.183594 27.855469 22.183594 29.667969 Z M 22.183594 29.667969 "/>
    <path style=" stroke:none;fill-rule:nonzero;fill:rgb(100%,44.313725%,49.803922%);fill-opacity:1;" d="M 16.523438 26.433594 C 16.523438 26.433594 13.386719 27.964844 13.082031 31.941406 C 12.789062 35.761719 7.554688 35.925781 7.84375 31.988281 C 8.132812 28.050781 11.515625 26.429688 12.363281 26.457031 C 13.210938 26.484375 16.335938 26.449219 16.523438 26.433594 Z M 16.523438 26.433594 "/>
    <path style=" stroke:none;fill-rule:nonzero;fill:rgb(88.627451%,34.901961%,42.352941%);fill-opacity:1;" d="M 13.851562 26.949219 C 13.402344 27.320312 12.929688 27.636719 12.492188 27.984375 C 12.050781 28.328125 11.632812 28.695312 11.277344 29.121094 C 10.914062 29.542969 10.625 30.023438 10.417969 30.542969 C 10.207031 31.0625 10.09375 31.621094 10.050781 32.1875 C 10.046875 31.621094 10.113281 31.046875 10.285156 30.496094 C 10.457031 29.941406 10.714844 29.417969 11.054688 28.949219 C 11.722656 27.992188 12.679688 27.285156 13.480469 26.527344 Z M 13.851562 26.949219 "/>
    <path style=" stroke:none;fill-rule:nonzero;fill:rgb(53.72549%,40%,29.803922%);fill-opacity:1;" d="M 24.164062 26.503906 C 24.164062 31.460938 20.179688 34.136719 17.203125 31.628906 C 16.039062 30.648438 14.777344 30.089844 13.640625 29.527344 C 11.691406 28.5625 9.738281 28.320312 9.738281 25.1875 Z M 24.164062 26.503906 "/>
    <path style=" stroke:none;fill-rule:nonzero;fill:rgb(100%,88.627451%,70.196078%);fill-opacity:1;" d="M 25.078125 27.449219 C 25.078125 32.40625 20.765625 33.894531 17.015625 30.808594 C 13.609375 28.007812 9.636719 29.632812 9.636719 24.679688 C 9.636719 23.132812 12.261719 18.992188 12.261719 18.992188 C 12.261719 13.863281 13.867188 10.464844 18 10.464844 C 22.132812 10.464844 23.734375 13.863281 23.734375 18.992188 C 23.734375 18.992188 25.078125 25.902344 25.078125 27.449219 Z M 25.078125 27.449219 "/>
    <path style=" stroke:none;fill-rule:nonzero;fill:rgb(53.72549%,40%,29.803922%);fill-opacity:1;" d="M 13.867188 19.632812 C 15.855469 20.003906 17.066406 20.199219 18 22.300781 M 22.132812 19.632812 C 20.144531 20.003906 18.9375 20.199219 18 22.300781 "/>
    <path style=" stroke:none;fill-rule:nonzero;fill:rgb(53.72549%,40%,29.803922%);fill-opacity:1;" d="M 15.996094 30.433594 C 16.796875 29.316406 17.28125 27.964844 17.589844 26.574219 C 17.890625 25.171875 18.027344 23.734375 18 22.300781 C 18.171875 23.742188 18.171875 25.203125 18.003906 26.644531 C 17.921875 27.378906 17.777344 28.101562 17.578125 28.8125 C 17.371094 29.523438 17.089844 30.230469 16.710938 30.882812 Z M 15.996094 30.433594 "/>
  </g>
</svg>