<?xml version="1.0" encoding="UTF-8" standalone="yes"?>
<svg xmlns="http://www.w3.org/2000/svg" xmlns:xlink="http://www.w3.org/1999/xlink" width="48px" height="48px" viewBox="0 0 36 36" version="1.1">
  <g id="surface1">
    <path style=" stroke:none;fill-rule:nonzero;fill:rgb(96.470588%,78.039216%,60%);fill-opacity:1;" d="M 12.046875 4.460938 C 10.011719 3.371094 8.695312 1.125 8.695312 1.125 C 8.132812 7.039062 10.273438 8.476562 11.484375 8.503906 C 13.109375 8.539062 14.390625 5.722656 12.046875 4.460938 Z M 23.898438 4.460938 C 25.929688 3.371094 27.25 1.125 27.25 1.125 C 27.8125 7.039062 25.667969 8.476562 24.457031 8.503906 C 22.832031 8.539062 21.550781 5.722656 23.898438 4.460938 Z M 23.898438 4.460938 "/>
    <path style=" stroke:none;fill-rule:nonzero;fill:rgb(43.529412%,43.529412%,42.745098%);fill-opacity:1;" d="M 34.863281 5.230469 C 31.683594 5.125 29.070312 5.632812 27.507812 6.738281 C 26.523438 8.410156 26.023438 11.285156 26.097656 14.847656 C 29.277344 14.953125 32.140625 14.773438 33.453125 13.339844 C 34.742188 11.925781 34.9375 8.792969 34.863281 5.230469 Z M 34.863281 5.230469 "/>
    <path style=" stroke:none;fill-rule:nonzero;fill:rgb(95.686275%,63.137255%,60.392157%);fill-opacity:1;" d="M 34.039062 7.351562 C 31.8125 7.277344 29.984375 7.632812 28.890625 8.410156 C 28.203125 9.578125 27.851562 11.59375 27.902344 14.085938 C 30.128906 14.160156 32.136719 14.035156 33.050781 13.03125 C 33.953125 12.042969 34.09375 9.847656 34.039062 7.351562 Z M 34.039062 7.351562 "/>
    <path style=" stroke:none;fill-rule:nonzero;fill:rgb(43.529412%,43.529412%,42.745098%);fill-opacity:1;" d="M 1.136719 5.230469 C 4.316406 5.125 6.929688 5.632812 8.492188 6.738281 C 9.476562 8.410156 9.976562 11.285156 9.902344 14.847656 C 6.722656 14.953125 3.859375 14.769531 2.550781 13.335938 C 1.261719 11.925781 1.0625 8.792969 1.136719 5.230469 Z M 1.136719 5.230469 "/>
    <path style=" stroke:none;fill-rule:nonzero;fill:rgb(95.686275%,63.137255%,60.392157%);fill-opacity:1;" d="M 1.960938 7.351562 C 4.1875 7.277344 6.015625 7.632812 7.109375 8.410156 C 7.796875 9.578125 8.148438 11.59375 8.097656 14.085938 C 5.871094 14.160156 3.867188 14.035156 2.949219 13.03125 C 2.042969 12.042969 1.90625 9.847656 1.960938 7.351562 Z M 1.960938 7.351562 "/>
    <path style=" stroke:none;fill-rule:nonzero;fill:rgb(85.490196%,89.803922%,93.72549%);fill-opacity:1;" d="M 29.808594 21.542969 C 29.808594 29.492188 18 33.910156 18 33.910156 C 18 33.910156 6.191406 29.492188 6.191406 21.542969 C 6.191406 9.871094 10.78125 3.773438 18 3.773438 C 25.21875 3.773438 29.808594 8.078125 29.808594 21.542969 Z M 29.808594 21.542969 "/>
    <path style=" stroke:none;fill-rule:nonzero;fill:rgb(43.529412%,43.529412%,42.745098%);fill-opacity:1;" d="M 25.519531 6.378906 C 21.550781 10.632812 18.8125 16.117188 22.808594 21.144531 C 25.433594 24.449219 27.511719 24.441406 29.445312 23.90625 C 29.675781 23.15625 29.808594 22.371094 29.808594 21.542969 C 29.808594 13.695312 28.613281 8.976562 25.519531 6.378906 Z M 13.195312 21.144531 C 17.097656 16.226562 14.5625 10.871094 10.742188 6.65625 C 7.390625 9.480469 6.191406 14.53125 6.191406 21.542969 C 6.191406 22.371094 6.328125 23.15625 6.554688 23.90625 C 8.488281 24.441406 10.570312 24.449219 13.195312 21.144531 Z M 13.195312 21.144531 "/>
    <path style=" stroke:none;fill-rule:nonzero;fill:rgb(100%,100%,100%);fill-opacity:1;" d="M 22.175781 17.558594 C 22.175781 17.558594 23.511719 19.800781 26.007812 19.089844 C 28.503906 18.375 28.613281 15.722656 28.613281 15.722656 C 28.613281 15.722656 27.273438 13.480469 24.777344 14.191406 C 22.277344 14.90625 22.175781 17.558594 22.175781 17.558594 Z M 22.175781 17.558594 "/>
    <path style=" stroke:none;fill-rule:nonzero;fill:rgb(24.313725%,26.27451%,27.843137%);fill-opacity:1;" d="M 27.261719 16.640625 C 27.261719 15.4375 26.425781 14.460938 25.394531 14.460938 C 24.359375 14.460938 23.523438 15.4375 23.523438 16.640625 C 23.523438 17.84375 24.359375 18.820312 25.394531 18.820312 C 26.425781 18.820312 27.261719 17.84375 27.261719 16.640625 Z M 27.261719 16.640625 "/>
    <path style=" stroke:none;fill-rule:nonzero;fill:rgb(24.313725%,26.27451%,27.843137%);fill-opacity:1;" d="M 22.175781 17.558594 C 22.175781 17.558594 24.296875 14.238281 27.652344 15.570312 C 29.734375 16.398438 30.507812 15.058594 30.507812 15.058594 C 29.375 15.238281 28.902344 14.777344 27.652344 14.175781 C 25.34375 13.0625 22.175781 13.636719 22.175781 17.558594 Z M 22.175781 17.558594 "/>
    <path style=" stroke:none;fill-rule:nonzero;fill:rgb(100%,100%,100%);fill-opacity:1;" d="M 13.828125 17.558594 C 13.828125 17.558594 12.488281 19.800781 9.992188 19.089844 C 7.496094 18.375 7.390625 15.722656 7.390625 15.722656 C 7.390625 15.722656 8.726562 13.480469 11.222656 14.191406 C 13.722656 14.90625 13.828125 17.558594 13.828125 17.558594 Z M 13.828125 17.558594 "/>
    <path style=" stroke:none;fill-rule:nonzero;fill:rgb(24.313725%,26.27451%,27.843137%);fill-opacity:1;" d="M 12.476562 16.640625 C 12.476562 15.4375 11.640625 14.460938 10.609375 14.460938 C 9.574219 14.460938 8.738281 15.4375 8.738281 16.640625 C 8.738281 17.84375 9.574219 18.820312 10.609375 18.820312 C 11.640625 18.820312 12.476562 17.84375 12.476562 16.640625 Z M 12.476562 16.640625 "/>
    <path style=" stroke:none;fill-rule:nonzero;fill:rgb(24.313725%,26.27451%,27.843137%);fill-opacity:1;" d="M 13.828125 17.558594 C 13.828125 17.558594 11.703125 14.238281 8.347656 15.570312 C 6.265625 16.398438 5.492188 15.058594 5.492188 15.058594 C 6.625 15.238281 7.097656 14.777344 8.347656 14.175781 C 10.660156 13.0625 13.828125 13.636719 13.828125 17.558594 Z M 13.828125 17.558594 "/>
    <path style=" stroke:none;fill-rule:nonzero;fill:rgb(95.686275%,63.137255%,60.392157%);fill-opacity:1;" d="M 8.320312 27.128906 C 8.320312 22.550781 10.589844 24.871094 18 24.871094 C 25.410156 24.871094 27.679688 22.550781 27.679688 27.128906 C 27.679688 33.625 23.125 34.875 18 34.875 C 12.875 34.875 8.320312 33.625 8.320312 27.128906 Z M 8.320312 27.128906 "/>
    <path style=" stroke:none;fill-rule:nonzero;fill:rgb(73.72549%,39.215686%,39.215686%);fill-opacity:1;" d="M 14.835938 28.171875 C 14.175781 26.273438 12.914062 25.214844 12.023438 25.804688 C 11.132812 26.390625 10.945312 28.402344 11.609375 30.300781 C 12.273438 32.195312 13.535156 33.253906 14.425781 32.667969 C 15.316406 32.078125 15.5 30.066406 14.835938 28.171875 Z M 23.976562 25.804688 C 23.085938 25.214844 21.824219 26.273438 21.164062 28.171875 C 20.5 30.066406 20.683594 32.082031 21.574219 32.667969 C 22.46875 33.253906 23.726562 32.195312 24.390625 30.300781 C 25.054688 28.402344 24.867188 26.390625 23.976562 25.804688 Z M 23.976562 25.804688 "/>
  </g>
</svg>