<?xml version="1.0" encoding="UTF-8" standalone="yes"?>
<svg xmlns="http://www.w3.org/2000/svg" xmlns:xlink="http://www.w3.org/1999/xlink" width="48px" height="48px" viewBox="0 0 36 36" version="1.1">
  <g id="surface1">
    <path style=" stroke:none;fill-rule:nonzero;fill:rgb(94.901961%,91.764706%,80%);fill-opacity:1;" d="M 26.210938 23.726562 C 22.558594 28.992188 16.753906 24.390625 20.40625 19.125 C 27.035156 12.761719 26.863281 3.6875 29.375 3.386719 C 32.53125 3.007812 34.871094 12.386719 26.210938 23.726562 Z M 26.210938 23.726562 "/>
    <path style=" stroke:none;fill-rule:nonzero;fill:rgb(61.176471%,39.607843%,14.509804%);fill-opacity:1;" d="M 3.070312 22.914062 L 1.125 24.570312 C 1.605469 25.328125 2.148438 26.042969 2.742188 26.710938 C 3.710938 25.925781 4.796875 24.894531 5.511719 23.914062 C 4.667969 23.660156 3.847656 23.324219 3.070312 22.914062 Z M 3.070312 22.914062 "/>
    <path style=" stroke:none;fill-rule:nonzero;fill:rgb(99.607843%,90.980392%,0.392157%);fill-opacity:1;" d="M 19.246094 11.324219 C 15.203125 10.289062 12.5625 13.136719 12.5625 13.136719 C 16.382812 11.09375 22.039062 15.738281 21.214844 17.21875 C 18.328125 22.390625 12.640625 25.367188 6.761719 24.230469 C 6.339844 24.144531 5.921875 24.039062 5.511719 23.914062 C 4.796875 24.894531 3.710938 25.925781 2.742188 26.710938 C 10.664062 30.660156 20.148438 28.328125 24.164062 20.371094 C 25.800781 17.128906 22.675781 12.199219 19.246094 11.324219 Z M 19.246094 11.324219 "/>
    <path style=" stroke:none;fill-rule:nonzero;fill:rgb(89.803922%,78.823529%,0%);fill-opacity:1;" d="M 34.871094 24.296875 C 34.871094 24.296875 34.097656 21.074219 30.269531 19.554688 C 26.535156 18.074219 24.164062 20.371094 24.164062 20.371094 C 21.132812 25.800781 15.160156 28.929688 8.984375 27.734375 C 7.136719 27.375 5.445312 26.652344 3.941406 25.660156 C 3.554688 26.027344 3.15625 26.375 2.742188 26.710938 C 4.90625 29.132812 7.773438 30.875 11.09375 31.519531 C 16.304688 32.53125 21.375 30.609375 24.820312 26.855469 C 30.113281 20.179688 34.871094 24.296875 34.871094 24.296875 Z M 34.871094 24.296875 "/>
    <path style=" stroke:none;fill-rule:nonzero;fill:rgb(96.078431%,96.078431%,96.078431%);fill-opacity:1;" d="M 19.433594 23.125 C 21.078125 22.09375 21.917969 20.359375 21.304688 19.253906 C 21.109375 18.902344 20.78125 18.667969 20.382812 18.53125 C 20.285156 18.671875 20.183594 18.816406 20.078125 18.953125 C 20.371094 19.066406 20.613281 19.25 20.761719 19.515625 C 21.257812 20.414062 20.578125 21.820312 19.242188 22.660156 C 17.941406 23.476562 16.507812 23.449219 15.972656 22.621094 C 15.765625 22.742188 15.554688 22.859375 15.339844 22.972656 C 15.34375 22.980469 15.34375 22.988281 15.351562 22.996094 C 15.960938 24.101562 17.789062 24.160156 19.433594 23.125 Z M 19.433594 23.125 "/>
    <path style=" stroke:none;fill-rule:nonzero;fill:rgb(25.882353%,67.843137%,88.627451%);fill-opacity:1;" d="M 15.972656 22.621094 C 16.507812 23.449219 17.941406 23.476562 19.242188 22.660156 C 20.578125 21.820312 21.257812 20.414062 20.761719 19.515625 C 20.613281 19.25 20.371094 19.066406 20.078125 18.953125 C 18.964844 20.429688 17.566406 21.675781 15.972656 22.621094 Z M 15.972656 22.621094 "/>
    <path style=" stroke:none;fill-rule:nonzero;fill:rgb(99.607843%,90.980392%,0.392157%);fill-opacity:1;" d="M 34.871094 24.296875 C 34.996094 27.273438 32.804688 31.976562 29.0625 32.601562 C 25.320312 33.226562 33.804688 21.449219 28.152344 19.066406 C 28.152344 19.066406 34.652344 19.058594 34.871094 24.296875 Z M 34.871094 24.296875 "/>
    <path style=" stroke:none;fill-rule:nonzero;fill:rgb(89.803922%,78.823529%,0%);fill-opacity:1;" d="M 20.203125 11.675781 C 11.851562 8.238281 9.023438 18.78125 13.195312 17.53125 C 14.710938 17.078125 15.570312 13.972656 20.203125 11.675781 Z M 20.203125 11.675781 "/>
  </g>
</svg>