<?xml version="1.0" encoding="UTF-8" standalone="yes"?>
<svg xmlns="http://www.w3.org/2000/svg" xmlns:xlink="http://www.w3.org/1999/xlink" width="48px" height="48px" viewBox="0 0 36 36" version="1.1">
  <g id="surface1">
    <path style=" stroke:none;fill-rule:nonzero;fill:rgb(86.666667%,65.882353%,37.254902%);fill-opacity:1;" d="M 20.761719 12.789062 L 22.191406 2.332031 C 20.824219 1.964844 19.476562 1.125 18 1.125 C 16.519531 1.125 15.167969 1.96875 13.800781 2.335938 C 12.386719 2.710938 10.796875 2.667969 9.5625 3.382812 C 8.304688 4.109375 7.554688 5.515625 6.535156 6.535156 C 5.515625 7.554688 4.109375 8.304688 3.382812 9.558594 C 2.667969 10.796875 2.714844 12.386719 2.335938 13.800781 C 1.972656 15.167969 1.125 16.519531 1.125 18 C 1.125 19.480469 1.972656 20.832031 2.335938 22.199219 C 2.714844 23.609375 2.667969 25.199219 3.382812 26.4375 C 4.109375 27.695312 5.515625 28.445312 6.535156 29.464844 C 7.554688 30.484375 8.304688 31.890625 9.5625 32.617188 C 10.796875 33.332031 12.386719 33.285156 13.800781 33.664062 C 15.167969 34.03125 16.519531 34.875 18 34.875 C 19.480469 34.875 20.832031 34.03125 22.199219 33.664062 C 23.613281 33.285156 25.203125 33.332031 26.4375 32.617188 C 27.695312 31.890625 28.445312 30.484375 29.464844 29.464844 C 30.484375 28.445312 31.890625 27.695312 32.617188 26.4375 C 33.332031 25.199219 33.285156 23.609375 33.664062 22.199219 C 34.027344 20.832031 34.875 19.480469 34.875 18 C 34.875 16.519531 33.691406 13.453125 33.691406 13.453125 Z M 20.761719 12.789062 "/>
    <path style=" stroke:none;fill-rule:nonzero;fill:rgb(94.901961%,79.607843%,49.019608%);fill-opacity:1;" d="M 33.421875 12.601562 C 32.882812 12.746094 32.082031 12.738281 31.238281 12.394531 C 30.078125 11.925781 29.316406 11.011719 29.109375 9.855469 C 28.554688 10.011719 27.203125 9.851562 26.28125 9.273438 C 24.941406 8.429688 24.671875 6.085938 24.671875 6.085938 C 23.152344 5.644531 22.007812 3.855469 22.191406 2.332031 C 20.941406 1.996094 19.355469 2.0625 18 2.0625 C 16.644531 2.0625 15.40625 2.835938 14.152344 3.171875 C 12.855469 3.519531 11.398438 3.476562 10.265625 4.132812 C 9.113281 4.800781 8.425781 6.089844 7.492188 7.023438 C 6.558594 7.957031 5.269531 8.644531 4.601562 9.796875 C 3.945312 10.929688 3.988281 12.386719 3.640625 13.683594 C 3.308594 14.933594 2.53125 16.175781 2.53125 17.53125 C 2.53125 18.886719 3.308594 20.125 3.640625 21.378906 C 3.988281 22.675781 3.945312 24.132812 4.601562 25.265625 C 5.269531 26.417969 6.558594 27.105469 7.492188 28.039062 C 8.425781 28.972656 9.113281 30.261719 10.265625 30.929688 C 11.398438 31.585938 12.855469 31.542969 14.152344 31.890625 C 15.40625 32.226562 16.644531 33 18 33 C 19.359375 33 20.597656 32.226562 21.847656 31.890625 C 23.144531 31.542969 24.601562 31.585938 25.734375 30.929688 C 26.886719 30.261719 27.574219 28.972656 28.507812 28.039062 C 29.445312 27.105469 30.734375 26.417969 31.398438 25.265625 C 32.054688 24.132812 32.011719 22.675781 32.359375 21.378906 C 32.695312 20.125 34.023438 19.140625 34.226562 17.800781 C 34.578125 15.480469 33.484375 12.972656 33.421875 12.601562 Z M 33.421875 12.601562 "/>
    <path style=" stroke:none;fill-rule:nonzero;fill:rgb(86.666667%,65.882353%,37.254902%);fill-opacity:1;" d="M 28.183594 6.089844 L 27.410156 6.863281 L 26.636719 6.089844 L 27.410156 5.316406 Z M 31.414062 9.988281 L 31.023438 10.378906 L 30.628906 9.988281 L 31.023438 9.59375 Z M 28.578125 7.4375 L 28.183594 7.828125 L 27.792969 7.4375 L 28.183594 7.042969 Z M 25.0625 4.011719 L 24.671875 4.40625 L 24.277344 4.011719 L 24.671875 3.621094 Z M 32.199219 11.4375 L 31.808594 11.832031 L 31.414062 11.4375 L 31.808594 11.046875 Z M 32.492188 9.988281 L 32.097656 10.378906 L 31.707031 9.988281 L 32.097656 9.59375 Z M 32.492188 9.988281 "/>
    <path style=" stroke:none;fill-rule:nonzero;fill:rgb(42.745098%,28.627451%,20.392157%);fill-opacity:1;" d="M 6.640625 11.597656 C 6.097656 12.535156 6.921875 14.324219 8.023438 14.78125 C 9.667969 15.464844 10.632812 15.566406 11.621094 13.84375 C 11.96875 13.238281 12.417969 11.605469 12.25 11.222656 C 12.003906 10.660156 11.0625 9.550781 10.449219 9.546875 C 8.691406 9.542969 7.042969 10.914062 6.640625 11.597656 Z M 6.640625 11.597656 "/>
    <path style=" stroke:none;fill-rule:nonzero;fill:rgb(63.921569%,49.803922%,41.568627%);fill-opacity:1;" d="M 6.914062 11.597656 C 6.511719 12.289062 7.546875 14.296875 8.859375 14.152344 C 10.691406 13.949219 10.5625 10.078125 9.734375 10.078125 C 8.433594 10.078125 7.210938 11.089844 6.914062 11.597656 Z M 6.914062 11.597656 "/>
    <path style=" stroke:none;fill-rule:nonzero;fill:rgb(42.745098%,28.627451%,20.392157%);fill-opacity:1;" d="M 25.445312 21.992188 C 26.253906 21.777344 26.78125 20.34375 26.429688 19.492188 C 25.902344 18.21875 25.433594 17.632812 23.949219 18.035156 C 23.425781 18.175781 22.289062 18.824219 22.167969 19.125 C 21.996094 19.570312 21.902344 20.691406 22.238281 21.027344 C 23.195312 21.996094 24.851562 22.148438 25.445312 21.992188 Z M 25.445312 21.992188 "/>
    <path style=" stroke:none;fill-rule:nonzero;fill:rgb(63.921569%,49.803922%,41.568627%);fill-opacity:1;" d="M 24.617188 20.648438 C 25.214844 20.488281 26.171875 18.585938 25.164062 18.425781 C 23.398438 18.144531 22.054688 18.960938 22.238281 19.933594 C 22.429688 20.925781 24.175781 20.761719 24.617188 20.648438 Z M 24.617188 20.648438 "/>
    <path style=" stroke:none;fill-rule:nonzero;fill:rgb(42.745098%,28.627451%,20.392157%);fill-opacity:1;" d="M 14.007812 25.042969 C 13.820312 24.339844 12.578125 23.882812 11.839844 24.1875 C 10.734375 24.644531 10.226562 25.054688 10.574219 26.339844 C 10.699219 26.792969 11.261719 27.78125 11.523438 27.882812 C 11.90625 28.035156 12.878906 28.113281 13.171875 27.824219 C 14.011719 26.992188 14.144531 25.558594 14.007812 25.042969 Z M 14.007812 25.042969 "/>
    <path style=" stroke:none;fill-rule:nonzero;fill:rgb(63.921569%,49.803922%,41.568627%);fill-opacity:1;" d="M 13.027344 24.519531 C 12.890625 24 10.542969 24.769531 10.789062 25.621094 C 11.230469 27.117188 11.242188 27.390625 11.714844 27.285156 C 12.566406 27.089844 13.128906 24.902344 13.027344 24.519531 Z M 13.027344 24.519531 "/>
    <path style=" stroke:none;fill-rule:nonzero;fill:rgb(42.745098%,28.627451%,20.392157%);fill-opacity:1;" d="M 28.742188 14.355469 C 28.039062 14.539062 27.582031 15.78125 27.886719 16.519531 C 28.34375 17.628906 29.402344 17.816406 30.582031 17.191406 C 31.578125 16.664062 31.648438 14.859375 31.355469 14.566406 C 30.523438 13.726562 29.257812 14.21875 28.742188 14.355469 Z M 28.742188 14.355469 "/>
    <path style=" stroke:none;fill-rule:nonzero;fill:rgb(63.921569%,49.803922%,41.568627%);fill-opacity:1;" d="M 28.472656 14.953125 C 28.109375 15.347656 27.855469 16.925781 28.707031 16.675781 C 30.203125 16.238281 31.285156 14.683594 30.605469 14.472656 C 29.769531 14.214844 28.855469 14.535156 28.472656 14.953125 Z M 28.472656 14.953125 "/>
    <path style=" stroke:none;fill-rule:nonzero;fill:rgb(42.745098%,28.627451%,20.392157%);fill-opacity:1;" d="M 12.78125 9.046875 L 13.90625 7.917969 L 15.035156 9.046875 L 13.90625 10.171875 Z M 12.78125 9.046875 "/>
    <path style=" stroke:none;fill-rule:nonzero;fill:rgb(86.666667%,65.882353%,37.254902%);fill-opacity:1;" d="M 8.25 18.847656 L 9.378906 17.722656 L 10.503906 18.847656 L 9.378906 19.976562 Z M 19.519531 25.21875 L 20.644531 24.089844 L 21.773438 25.21875 L 20.644531 26.34375 Z M 18 22.085938 L 19.519531 20.566406 L 21.039062 22.085938 L 19.519531 23.605469 Z M 13.90625 5.53125 L 15.425781 4.011719 L 16.945312 5.53125 L 15.425781 7.050781 Z M 13.90625 5.53125 "/>
    <path style=" stroke:none;fill-rule:nonzero;fill:rgb(42.745098%,28.627451%,20.392157%);fill-opacity:1;" d="M 23.148438 26.054688 L 24.277344 24.929688 L 25.402344 26.054688 L 24.277344 27.183594 Z M 27.613281 19.832031 L 28.742188 18.707031 L 29.867188 19.832031 L 28.742188 20.960938 Z M 23.539062 13.847656 L 24.101562 13.285156 L 24.664062 13.847656 L 24.101562 14.410156 Z M 7.6875 21.523438 L 8.25 20.960938 L 8.8125 21.523438 L 8.25 22.085938 Z M 7.6875 21.523438 "/>
  </g>
</svg>