<?xml version="1.0" encoding="UTF-8" standalone="yes"?>
<svg xmlns="http://www.w3.org/2000/svg" xmlns:xlink="http://www.w3.org/1999/xlink" width="48px" height="48px" viewBox="0 0 36 36" version="1.1">
  <defs>
    <filter id="alpha" filterUnits="objectBoundingBox" x="0%" y="0%" width="100%" height="100%">
      <feColorMatrix type="matrix" in="SourceGraphic" values="0 0 0 0 1 0 0 0 0 1 0 0 0 0 1 0 0 0 1 0"/>
    </filter>
    <mask id="mask0">
      <g filter="url(#alpha)">
        <rect x="0" y="0" width="36" height="36" style="fill:rgb(0%,0%,0%);fill-opacity:0.14902;stroke:none;"/>
      </g>
    </mask>
    <mask id="mask1">
      <g filter="url(#alpha)">
        <rect x="0" y="0" width="36" height="36" style="fill:rgb(0%,0%,0%);fill-opacity:0.4;stroke:none;"/>
      </g>
    </mask>
    <clipPath id="clip1">
      <rect width="36" height="36"/>
    </clipPath>
    <clipPath id="clip2">
      <rect width="36" height="36"/>
    </clipPath>
    <g id="surface6" clip-path="url(#clip1)">
      <path style=" stroke:none;fill-rule:nonzero;fill:rgb(0%,0%,0%);fill-opacity:1;" d="M 12.894531 26.402344 L 13.457031 25.78125 L 14.550781 22.03125 L 10.242188 22.519531 L 9.546875 23.148438 L 11.164062 23.550781 C 10.128906 24.828125 9.449219 25.945312 9.449219 25.945312 C 9.449219 25.945312 11.292969 25.988281 12.582031 25.746094 Z M 12.894531 26.402344 "/>
    </g>
    <g id="surface9" clip-path="url(#clip2)">
      <path style=" stroke:none;fill-rule:nonzero;fill:rgb(100%,100%,100%);fill-opacity:1;" d="M 6.488281 33.042969 C 6.164062 31.367188 6.824219 29.738281 8.050781 28.78125 C 8.015625 28.785156 7.984375 28.78125 7.949219 28.789062 C 6.535156 29.0625 5.617188 30.472656 5.902344 31.933594 C 5.996094 32.40625 6.210938 32.847656 6.527344 33.210938 C 6.515625 33.152344 6.5 33.101562 6.488281 33.042969 Z M 2.164062 28.023438 C 1.929688 26.8125 2.40625 25.636719 3.292969 24.941406 C 3.265625 24.945312 3.242188 24.945312 3.21875 24.949219 C 2.199219 25.148438 1.535156 26.164062 1.742188 27.21875 C 1.808594 27.574219 1.972656 27.886719 2.191406 28.140625 C 2.183594 28.101562 2.171875 28.0625 2.164062 28.023438 Z M 2.164062 28.023438 "/>
    </g>
  </defs>
  <g id="surface1">
    <path style=" stroke:none;fill-rule:nonzero;fill:rgb(86.666667%,86.666667%,86.666667%);fill-opacity:1;" d="M 15.953125 20.042969 C 13.417969 17.507812 10.050781 24.003906 7.480469 24.320312 C 6.304688 24.464844 3.980469 23.082031 2.105469 24.953125 C 1.015625 26.046875 0.8125 27.738281 1.609375 29.058594 C 2.410156 30.378906 4.003906 30.984375 5.476562 30.523438 C 5.105469 31.714844 5.421875 33.011719 6.304688 33.894531 C 7.613281 35.203125 9.734375 35.203125 11.046875 33.894531 C 12.917969 32.019531 11.539062 29.695312 11.679688 28.519531 C 11.996094 25.949219 18.492188 22.582031 15.953125 20.042969 Z M 15.953125 20.042969 "/>
    <path style=" stroke:none;fill-rule:nonzero;fill:rgb(65.882353%,41.176471%,24.705882%);fill-opacity:1;" d="M 30.636719 19.933594 C 42.210938 8.355469 27.644531 -6.210938 16.066406 5.363281 C 11.4375 9.992188 12.300781 15.585938 11.390625 19.972656 C 11.066406 21.527344 9.683594 22.691406 9.683594 22.691406 C 9.683594 22.691406 10.644531 23.054688 11.734375 23.253906 C 10.824219 24.375 10.222656 25.355469 10.222656 25.355469 C 10.222656 25.355469 11.578125 25.480469 12.953125 25.179688 C 13.132812 25.839844 13.3125 26.320312 13.3125 26.320312 C 13.3125 26.320312 14.472656 24.933594 16.027344 24.609375 C 20.414062 23.699219 26.007812 24.5625 30.636719 19.933594 Z M 30.636719 19.933594 "/>
    <path style=" stroke:none;fill-rule:nonzero;fill:rgb(76.078431%,55.294118%,41.176471%);fill-opacity:1;" d="M 23.300781 11 L 22.710938 10.410156 L 23.304688 9.820312 L 23.894531 10.410156 Z M 25.140625 7.667969 L 25.730469 7.078125 L 26.320312 7.667969 L 25.730469 8.257812 Z M 21.007812 13.574219 L 20.417969 12.984375 L 21.011719 12.390625 L 21.601562 12.984375 Z M 18.269531 16.316406 L 17.679688 15.726562 L 18.269531 15.132812 L 18.859375 15.726562 Z M 18.269531 16.316406 "/>
    <path style=" stroke:none;fill-rule:nonzero;fill:rgb(76.078431%,55.294118%,41.176471%);fill-opacity:1;" d="M 19.183594 6.066406 L 18.589844 5.476562 L 19.183594 4.886719 L 19.773438 5.476562 Z M 16.757812 8.734375 L 16.171875 8.144531 L 16.757812 7.554688 L 17.351562 8.144531 Z M 14.929688 11.988281 L 14.339844 11.398438 L 14.929688 10.808594 L 15.519531 11.398438 Z M 21.550781 3.351562 L 22.140625 2.761719 L 22.730469 3.351562 L 22.140625 3.941406 Z M 21.550781 3.351562 "/>
    <path style=" stroke:none;fill-rule:nonzero;fill:rgb(76.078431%,55.294118%,41.176471%);fill-opacity:1;" d="M 19.972656 9.769531 L 19.382812 9.179688 L 19.972656 8.585938 L 20.5625 9.179688 Z M 23.296875 7.070312 L 22.460938 6.234375 L 23.296875 5.402344 L 24.132812 6.238281 Z M 14.738281 15.59375 L 14.148438 15.003906 L 14.738281 14.414062 L 15.328125 15.003906 Z M 17.796875 13.367188 L 16.964844 12.53125 L 17.800781 11.699219 L 18.632812 12.535156 Z M 25.503906 3.648438 L 26.09375 3.058594 L 26.683594 3.648438 L 26.09375 4.238281 Z M 25.503906 3.648438 "/>
    <use xlink:href="#surface6" mask="url(#mask0)"/>
    <use xlink:href="#surface9" mask="url(#mask1)"/>
  </g>
</svg>