<?xml version="1.0" encoding="UTF-8" standalone="yes"?>
<svg xmlns="http://www.w3.org/2000/svg" xmlns:xlink="http://www.w3.org/1999/xlink" width="48px" height="48px" viewBox="0 0 36 36" version="1.1">
  <g id="surface1">
    <path style=" stroke:none;fill-rule:nonzero;fill:rgb(90.588235%,65.490196%,30.980392%);fill-opacity:1;" d="M 34.875 25.007812 C 34.875 31.757812 28.761719 34.875 18.105469 34.875 C 7.445312 34.875 1.332031 31.757812 1.332031 25.007812 C 1.332031 15.136719 34.875 15.136719 34.875 25.007812 Z M 34.875 25.007812 "/>
    <path style=" stroke:none;fill-rule:nonzero;fill:rgb(72.941176%,51.764706%,26.27451%);fill-opacity:1;" d="M 34.785156 20.367188 C 34.785156 27.121094 28.707031 30.238281 18.105469 30.238281 C 7.503906 30.238281 1.421875 27.121094 1.421875 20.367188 C 1.421875 10.5 34.785156 10.5 34.785156 20.367188 Z M 34.785156 20.367188 "/>
    <path style=" stroke:none;fill-rule:nonzero;fill:rgb(50.980392%,37.647059%,27.45098%);fill-opacity:1;" d="M 1.332031 20.542969 C 1.332031 17.75 4.648438 13.828125 18.105469 13.828125 C 31.558594 13.828125 34.875 17.75 34.875 20.542969 C 34.875 25.644531 30.160156 29.375 18.105469 29.375 C 6.046875 29.375 1.332031 25.644531 1.332031 20.542969 Z M 1.332031 20.542969 "/>
    <path style=" stroke:none;fill-rule:nonzero;fill:rgb(40.784314%,27.843137%,17.254902%);fill-opacity:1;" d="M 1.703125 17.597656 C 1.703125 14.804688 4.945312 10.882812 18.101562 10.882812 C 31.261719 10.882812 34.503906 14.808594 34.503906 17.597656 C 34.503906 22.703125 29.894531 26.433594 18.101562 26.433594 C 6.3125 26.433594 1.703125 22.703125 1.703125 17.597656 Z M 1.703125 17.597656 "/>
    <path style=" stroke:none;fill-rule:nonzero;fill:rgb(93.72549%,30.196078%,23.529412%);fill-opacity:1;" d="M 1.773438 13.972656 C 2.589844 12.273438 4.644531 12.175781 11.421875 15.066406 C 18.195312 17.960938 19.476562 19.480469 18.664062 21.183594 C 17.171875 24.292969 13.21875 26.582031 7.148438 23.992188 C 1.078125 21.398438 0.285156 17.085938 1.773438 13.972656 Z M 1.773438 13.972656 "/>
    <path style=" stroke:none;fill-rule:nonzero;fill:rgb(82.745098%,23.137255%,13.72549%);fill-opacity:1;" d="M 2.347656 12.03125 C 3.160156 10.332031 5.21875 10.234375 11.996094 13.128906 C 18.769531 16.019531 20.050781 17.539062 19.234375 19.242188 C 17.746094 22.351562 13.792969 24.640625 7.722656 22.050781 C 1.648438 19.457031 0.855469 15.144531 2.347656 12.03125 Z M 2.347656 12.03125 "/>
    <path style=" stroke:none;fill-rule:nonzero;fill:rgb(93.72549%,30.196078%,23.529412%);fill-opacity:1;" d="M 16.453125 19.417969 C 16.007812 17.601562 17.582031 16.34375 24.824219 14.757812 C 32.066406 13.175781 34.0625 13.648438 34.511719 15.46875 C 35.328125 18.792969 33.65625 22.878906 27.164062 24.300781 C 20.675781 25.71875 17.269531 22.746094 16.453125 19.417969 Z M 16.453125 19.417969 "/>
    <path style=" stroke:none;fill-rule:nonzero;fill:rgb(82.745098%,23.137255%,13.72549%);fill-opacity:1;" d="M 15.753906 17.582031 C 15.304688 15.765625 16.878906 14.507812 24.121094 12.921875 C 31.363281 11.339844 33.363281 11.8125 33.808594 13.632812 C 34.625 16.957031 32.953125 21.042969 26.464844 22.464844 C 19.972656 23.882812 16.570312 20.910156 15.753906 17.582031 Z M 15.753906 17.582031 "/>
    <path style=" stroke:none;fill-rule:nonzero;fill:rgb(100%,90.196078%,18.039216%);fill-opacity:1;" d="M 5.445312 17.394531 L 16.734375 28.1875 L 27.707031 17.394531 Z M 5.445312 17.394531 "/>
    <path style=" stroke:none;fill-rule:nonzero;fill:rgb(54.901961%,77.647059%,24.313725%);fill-opacity:1;" d="M 34.160156 14.550781 C 34.160156 14.550781 34.640625 16.460938 34.148438 17.007812 C 33.710938 17.5 32.269531 16.96875 31.675781 17.40625 C 31.140625 17.796875 31.273438 19.3125 30.625 19.652344 C 30.03125 19.964844 28.820312 19.027344 28.140625 19.289062 C 27.511719 19.535156 27.292969 21.042969 26.597656 21.246094 C 25.945312 21.433594 24.933594 20.285156 24.230469 20.429688 C 23.558594 20.5625 23.09375 22.019531 22.386719 22.109375 C 21.703125 22.199219 20.875 20.917969 20.160156 20.960938 C 19.472656 21.007812 18.816406 22.386719 18.105469 22.386719 C 17.394531 22.386719 16.734375 21.007812 16.046875 20.960938 C 15.335938 20.917969 14.503906 22.199219 13.820312 22.109375 C 13.113281 22.019531 12.648438 20.5625 11.976562 20.429688 C 11.273438 20.285156 10.261719 21.433594 9.609375 21.242188 C 8.914062 21.042969 8.695312 19.535156 8.0625 19.289062 C 7.386719 19.023438 6.175781 19.964844 5.582031 19.652344 C 4.933594 19.308594 5.066406 17.796875 4.53125 17.402344 C 3.933594 16.964844 2.492188 17.496094 2.054688 17.007812 C 1.5625 16.457031 2.046875 14.550781 2.046875 14.550781 Z M 34.160156 14.550781 "/>
    <path style=" stroke:none;fill-rule:nonzero;fill:rgb(90.588235%,65.490196%,30.980392%);fill-opacity:1;" d="M 34.875 13.1875 C 34.875 16.832031 27.367188 18.65625 18.105469 18.65625 C 8.84375 18.65625 1.332031 16.832031 1.332031 13.1875 C 1.332031 6.527344 8.839844 1.125 18.105469 1.125 C 27.367188 1.125 34.875 6.527344 34.875 13.1875 Z M 34.875 13.1875 "/>
    <path style=" stroke:none;fill-rule:nonzero;fill:rgb(100%,75.686275%,47.843137%);fill-opacity:1;" d="M 9.148438 8.128906 L 8.296875 8.972656 L 7.445312 8.128906 L 8.296875 7.285156 Z M 13.34375 6.742188 L 12.492188 7.585938 L 11.640625 6.742188 L 12.492188 5.898438 Z M 15.726562 10.59375 L 14.875 11.4375 L 14.023438 10.59375 L 14.875 9.75 Z M 18.671875 7.566406 L 18.105469 8.128906 L 17.535156 7.566406 L 18.105469 7.003906 Z M 29.222656 9.75 L 28.652344 10.3125 L 28.085938 9.75 L 28.652344 9.1875 Z M 32.667969 10.3125 L 32.101562 10.875 L 31.535156 10.3125 L 32.101562 9.75 Z M 26.109375 6.179688 L 25.542969 6.742188 L 24.976562 6.179688 L 25.542969 5.617188 Z M 8.941406 5.476562 L 8.371094 6.039062 L 7.804688 5.476562 L 8.371094 4.914062 Z M 5.910156 8.128906 L 5.34375 8.691406 L 4.777344 8.128906 L 5.34375 7.566406 Z M 9.429688 11.839844 L 8.863281 12.402344 L 8.296875 11.839844 L 8.863281 11.277344 Z M 16.011719 3.226562 L 15.445312 3.789062 L 14.875 3.226562 L 15.445312 2.664062 Z M 21.367188 2.664062 L 20.800781 3.226562 L 20.234375 2.664062 L 20.800781 2.101562 Z M 12.492188 3.789062 L 11.925781 4.351562 L 11.359375 3.789062 L 11.925781 3.226562 Z M 28.617188 5.125 L 28.050781 5.6875 L 27.480469 5.125 L 28.050781 4.5625 Z M 22.503906 12.191406 L 21.652344 13.035156 L 20.800781 12.191406 L 21.652344 11.347656 Z M 21.171875 7.867188 L 20.320312 8.710938 L 19.46875 7.867188 L 20.320312 7.023438 Z M 24.308594 4.632812 L 23.457031 5.476562 L 22.605469 4.632812 L 23.457031 3.789062 Z M 26.761719 8.242188 L 25.910156 9.085938 L 25.058594 8.242188 L 25.910156 7.398438 Z M 30.355469 7.023438 L 29.503906 7.867188 L 28.652344 7.023438 L 29.503906 6.179688 Z M 27.613281 11.964844 L 26.761719 12.808594 L 25.910156 11.964844 L 26.761719 11.121094 Z M 7.046875 10.503906 L 6.195312 11.347656 L 5.34375 10.503906 L 6.195312 9.660156 Z M 7.046875 10.503906 "/>
  </g>
</svg>