<?xml version="1.0" encoding="UTF-8" standalone="yes"?>
<svg xmlns="http://www.w3.org/2000/svg" xmlns:xlink="http://www.w3.org/1999/xlink" width="48px" height="48px" viewBox="0 0 36 36" version="1.1">
  <g id="surface1">
    <path style=" stroke:none;fill-rule:nonzero;fill:rgb(96.470588%,85.490196%,46.666667%);fill-opacity:1;" d="M 35.015625 26.472656 C 34.96875 12.789062 23.351562 1.171875 9.613281 1.128906 L 1.269531 34.875 Z M 35.015625 26.472656 "/>
    <path style=" stroke:none;fill-rule:nonzero;fill:rgb(52.54902%,5.098039%,8.627451%);fill-opacity:1;" d="M 30.65625 27.558594 L 31.808594 27.359375 C 31.261719 16.648438 23.605469 5.460938 8.726562 4.34375 L 8.535156 5.484375 C 19.980469 6.910156 29.226562 16.152344 30.65625 27.558594 Z M 30.65625 27.558594 "/>
    <path style=" stroke:none;fill-rule:nonzero;fill:rgb(78.823529%,55.686275%,32.156863%);fill-opacity:1;" d="M 31.792969 27.359375 L 35.019531 26.554688 C 35.019531 12.808594 23.335938 1.125 9.53125 1.125 L 8.726562 4.34375 C 21.910156 5.589844 30.542969 14.21875 31.792969 27.359375 Z M 31.792969 27.359375 "/>
    <path style=" stroke:none;fill-rule:nonzero;fill:rgb(51.372549%,74.901961%,30.980392%);fill-opacity:1;" d="M 7.574219 23.429688 C 6.644531 23.433594 5.757812 23.066406 5.105469 22.410156 C 4.832031 22.140625 4.832031 21.703125 5.101562 21.433594 C 5.363281 21.167969 5.824219 21.167969 6.082031 21.433594 C 6.875 22.222656 8.265625 22.222656 9.0625 21.433594 C 9.457031 21.039062 9.679688 20.503906 9.675781 19.945312 C 9.675781 19.382812 9.457031 18.855469 9.0625 18.460938 C 8.792969 18.1875 8.792969 17.75 9.0625 17.480469 C 9.320312 17.21875 9.78125 17.21875 10.042969 17.480469 C 10.699219 18.132812 11.066406 19.019531 11.0625 19.945312 C 11.066406 20.871094 10.699219 21.757812 10.042969 22.410156 C 9.390625 23.066406 8.5 23.433594 7.574219 23.429688 Z M 21.695312 12.316406 C 21.714844 12.410156 21.714844 12.503906 21.691406 12.59375 C 21.65625 12.757812 21.554688 12.898438 21.414062 12.984375 C 21.273438 13.074219 21.101562 13.101562 20.941406 13.066406 C 20.492188 12.960938 20.023438 13.039062 19.636719 13.28125 C 19.246094 13.523438 18.972656 13.90625 18.871094 14.351562 C 18.660156 15.253906 19.265625 16.210938 20.160156 16.421875 C 20.484375 16.496094 20.703125 16.847656 20.628906 17.171875 C 20.550781 17.507812 20.214844 17.71875 19.875 17.640625 C 18.761719 17.378906 17.890625 16.5 17.636719 15.382812 C 17.542969 14.949219 17.542969 14.5 17.644531 14.070312 C 17.824219 13.300781 18.300781 12.632812 18.972656 12.21875 C 19.644531 11.796875 20.453125 11.660156 21.226562 11.84375 C 21.457031 11.898438 21.644531 12.085938 21.695312 12.316406 Z M 24.703125 28.621094 C 24.457031 28.667969 24.203125 28.550781 24.078125 28.332031 C 24 28.195312 23.980469 28.035156 24.023438 27.882812 C 24.136719 27.464844 24.078125 27.019531 23.859375 26.648438 C 23.644531 26.269531 23.289062 25.996094 22.871094 25.886719 C 22.023438 25.65625 21.097656 26.195312 20.871094 27.03125 C 20.777344 27.34375 20.457031 27.527344 20.140625 27.449219 C 19.824219 27.367188 19.636719 27.039062 19.71875 26.722656 C 20.011719 25.675781 20.871094 24.886719 21.9375 24.6875 C 22.351562 24.613281 22.777344 24.628906 23.179688 24.738281 C 23.902344 24.933594 24.519531 25.40625 24.890625 26.054688 C 25.265625 26.703125 25.367188 27.472656 25.167969 28.191406 C 25.109375 28.410156 24.925781 28.578125 24.703125 28.621094 Z M 24.703125 28.621094 "/>
    <path style=" stroke:none;fill-rule:nonzero;fill:rgb(69.803922%,9.019608%,14.509804%);fill-opacity:1;" d="M 20.878906 20.363281 C 21.664062 22.664062 20.402344 25.160156 18.070312 25.933594 C 15.730469 26.707031 13.203125 25.46875 12.417969 23.160156 C 11.632812 20.859375 12.890625 18.363281 15.226562 17.589844 C 17.566406 16.816406 20.09375 18.058594 20.878906 20.363281 Z M 27.878906 20.789062 C 28.347656 22.171875 27.59375 23.671875 26.191406 24.140625 C 24.785156 24.601562 23.265625 23.859375 22.792969 22.472656 C 22.324219 21.089844 23.078125 19.589844 24.484375 19.121094 C 25.882812 18.660156 27.40625 19.40625 27.878906 20.789062 Z M 16.324219 10.695312 C 16.960938 12.578125 15.933594 14.621094 14.023438 15.253906 C 12.113281 15.886719 10.042969 14.875 9.398438 12.984375 C 8.761719 11.101562 9.792969 9.058594 11.699219 8.429688 C 13.609375 7.796875 15.675781 8.8125 16.324219 10.695312 Z M 19.324219 30.378906 L 13.875 31.738281 C 13.386719 30.300781 14.378906 28.53125 15.863281 28.15625 C 17.660156 27.699219 18.835938 28.945312 19.324219 30.378906 Z M 11.023438 26.453125 C 11.679688 28.390625 10.621094 30.492188 8.65625 31.144531 C 6.683594 31.796875 4.554688 30.753906 3.894531 28.808594 C 3.238281 26.871094 4.296875 24.769531 6.257812 24.117188 C 8.226562 23.46875 10.355469 24.515625 11.023438 26.453125 Z M 11.023438 26.453125 "/>
    <path style=" stroke:none;fill-rule:nonzero;fill:rgb(87.843137%,65.490196%,38.823529%);fill-opacity:1;" d="M 8.726562 4.34375 C 11.707031 4.394531 14.707031 4.953125 17.527344 6.058594 C 20.367188 7.164062 22.957031 8.839844 25.128906 10.980469 C 27.28125 13.144531 28.964844 15.722656 30.082031 18.5625 C 31.195312 21.378906 31.761719 24.378906 31.808594 27.359375 C 31.292969 24.425781 30.5 21.566406 29.273438 18.910156 C 28.042969 16.261719 26.398438 13.816406 24.335938 11.777344 C 22.289062 9.722656 19.835938 8.085938 17.183594 6.863281 C 14.523438 5.644531 11.664062 4.859375 8.726562 4.34375 Z M 8.726562 4.34375 "/>
    <path style=" stroke:none;fill-rule:nonzero;fill:rgb(100%,67.058824%,25.490196%);fill-opacity:1;" d="M 9.46875 7.566406 L 10.59375 6.441406 L 11.71875 7.566406 L 10.59375 8.691406 Z M 16.734375 10.699219 L 17.859375 9.574219 L 18.984375 10.699219 L 17.859375 11.824219 Z M 7.285156 14.871094 L 8.410156 13.746094 L 9.535156 14.871094 L 8.410156 15.996094 Z M 11.113281 18.046875 L 12.238281 16.921875 L 13.363281 18.046875 L 12.238281 19.171875 Z M 21.09375 18.207031 L 22.21875 17.082031 L 23.34375 18.207031 L 22.21875 19.332031 Z M 27.589844 26.164062 L 28.714844 25.039062 L 29.839844 26.164062 L 28.714844 27.289062 Z M 11.058594 25.105469 L 12.183594 23.980469 L 13.308594 25.105469 L 12.183594 26.230469 Z M 11.816406 29.183594 L 12.941406 28.058594 L 14.066406 29.183594 L 12.941406 30.308594 Z M 2.453125 32.738281 L 3.578125 31.613281 L 4.703125 32.738281 L 3.578125 33.863281 Z M 7.832031 9.75 L 8.675781 8.90625 L 9.519531 9.75 L 8.675781 10.59375 Z M 14.960938 15.6875 L 15.804688 14.84375 L 16.648438 15.6875 L 15.804688 16.53125 Z M 22.535156 15.714844 L 23.378906 14.871094 L 24.222656 15.714844 L 23.378906 16.558594 Z M 7.566406 20.359375 L 8.410156 19.515625 L 9.253906 20.359375 L 8.410156 21.203125 Z M 4.167969 23.671875 L 5.011719 22.828125 L 5.855469 23.671875 L 5.011719 24.515625 Z M 2.855469 30.660156 L 3.699219 29.816406 L 4.542969 30.660156 L 3.699219 31.503906 Z M 10.070312 31.082031 L 10.914062 30.238281 L 11.757812 31.082031 L 10.914062 31.925781 Z M 17.296875 27.1875 L 18.140625 26.34375 L 18.984375 27.1875 L 18.140625 28.03125 Z M 20.867188 28.632812 L 21.710938 27.789062 L 22.554688 28.632812 L 21.710938 29.476562 Z M 25.527344 25.394531 L 26.371094 24.550781 L 27.214844 25.394531 L 26.371094 26.238281 Z M 25.527344 25.394531 "/>
  </g>
</svg>