<?xml version="1.0" encoding="UTF-8" standalone="yes"?>
<svg xmlns="http://www.w3.org/2000/svg" xmlns:xlink="http://www.w3.org/1999/xlink" width="48px" height="48px" viewBox="0 0 36 36" version="1.1">
  <defs>
    <filter id="alpha" filterUnits="objectBoundingBox" x="0%" y="0%" width="100%" height="100%">
      <feColorMatrix type="matrix" in="SourceGraphic" values="0 0 0 0 1 0 0 0 0 1 0 0 0 0 1 0 0 0 1 0"/>
    </filter>
    <mask id="mask0">
      <g filter="url(#alpha)">
        <rect x="0" y="0" width="36" height="36" style="fill:rgb(0%,0%,0%);fill-opacity:0.501961;stroke:none;"/>
      </g>
    </mask>
    <clipPath id="clip1">
      <rect width="36" height="36"/>
    </clipPath>
    <g id="surface6" clip-path="url(#clip1)">
      <path style=" stroke:none;fill-rule:nonzero;fill:rgb(100%,100%,100%);fill-opacity:1;" d="M 2.027344 17.496094 C 1.28125 7.382812 6.550781 3.191406 12.816406 2.75 C 12.8125 2.738281 12.8125 2.726562 12.808594 2.714844 C 6.191406 2.832031 0.417969 6.941406 1.195312 17.496094 C 2.378906 33.539062 5.324219 34.824219 8.453125 34.824219 C 5.558594 34.324219 3.105469 32.125 2.027344 17.496094 Z M 2.027344 17.496094 "/>
    </g>
  </defs>
  <g id="surface1">
    <path style=" stroke:none;fill-rule:nonzero;fill:rgb(82.745098%,59.215686%,43.137255%);fill-opacity:1;" d="M 9.214844 34.832031 C 5.757812 34.832031 2.476562 34.816406 1.195312 17.496094 C -0.546875 -6.121094 30.503906 2.453125 30.503906 16.105469 C 30.503906 23.542969 9.214844 34.832031 9.214844 34.832031 Z M 9.214844 34.832031 "/>
    <path style=" stroke:none;fill-rule:nonzero;fill:rgb(34.901961%,27.45098%,25.098039%);fill-opacity:1;" d="M 10.878906 14.351562 L 2.46875 18.039062 L 1.210938 20.824219 L 2.707031 21.71875 L 1.625 24.109375 L 2.445312 24.601562 L 1.289062 27.160156 L 3.121094 28.257812 L 2.03125 30.667969 L 4.34375 32.054688 L 3.933594 32.960938 L 6.453125 34.472656 L 6.957031 33.363281 L 8.210938 34.789062 L 10.246094 34.265625 L 16.8125 21.621094 Z M 10.878906 14.351562 "/>
    <path style=" stroke:none;fill-rule:nonzero;fill:rgb(53.72549%,40%,29.803922%);fill-opacity:1;" d="M 12.9375 21.9375 L 14.625 19.6875 L 2.082031 18.046875 L 1.171875 20.066406 L 3 21.167969 L 3.554688 19.9375 L 4.496094 20.503906 L 3.777344 22.101562 L 2.496094 21.335938 L 1.585938 23.355469 L 3.414062 24.453125 L 4.171875 22.777344 L 5.390625 23.507812 L 5.308594 23.6875 L 6.433594 24.363281 L 6.125 24.714844 L 4.40625 23.6875 L 3.679688 25.296875 L 2.160156 24.382812 L 1.246094 26.40625 L 3.078125 27.5 L 3.800781 25.890625 L 5.324219 26.804688 L 5.796875 25.753906 L 6.175781 26.179688 L 5.585938 27.484375 L 4.703125 26.953125 L 3.984375 28.539062 L 2.902344 27.894531 L 1.988281 29.914062 L 3.820312 31.011719 L 4.535156 29.421875 L 5.617188 30.070312 L 5.804688 29.660156 L 6.382812 30.320312 L 6.09375 30.960938 L 4.808594 30.1875 L 3.894531 32.210938 L 5.722656 33.304688 L 6.515625 31.550781 L 7.839844 33.441406 L 9.089844 32.023438 L 10.097656 33.171875 L 11.535156 31.539062 L 10.097656 29.902344 L 8.851562 31.324219 L 8.457031 30.875 L 8.714844 30.300781 L 10.011719 28.769531 L 10.707031 29.558594 L 12.144531 27.925781 L 10.707031 26.289062 L 9.339844 27.84375 L 8.644531 27.054688 L 7.535156 28.316406 L 8.28125 26.660156 L 7.632812 26.269531 L 8.011719 25.835938 L 8.328125 26.027344 L 9.28125 27.113281 L 10.71875 25.476562 L 9.28125 23.84375 L 9.175781 23.96875 L 8.648438 23.652344 L 9.3125 22.898438 L 10.269531 23.988281 L 10.140625 24.132812 L 11.441406 25.609375 L 11.144531 25.949219 L 12.582031 27.582031 L 14.019531 25.949219 Z M 12.9375 21.9375 "/>
    <path style=" stroke:none;fill-rule:nonzero;fill:rgb(82.745098%,59.215686%,43.137255%);fill-opacity:1;" d="M 5.414062 21.414062 L 4.140625 20.652344 L 3.503906 22.058594 L 4.78125 22.824219 Z M 7.855469 20.714844 L 8.25 19.835938 L 7.457031 19.359375 L 7.058594 20.238281 Z M 5.949219 23.757812 L 5.550781 24.640625 L 6.347656 25.117188 L 6.746094 24.238281 Z M 6.261719 25.695312 L 5.863281 26.574219 L 6.660156 27.050781 L 7.058594 26.171875 Z M 7.398438 23.339844 L 8.195312 23.816406 L 8.59375 22.9375 L 7.796875 22.460938 Z M 2.554688 25.144531 L 1.761719 24.667969 L 1.359375 25.546875 L 2.160156 26.023438 Z M 2.632812 28.527344 L 2.234375 29.40625 L 3.03125 29.882812 L 3.425781 29.003906 Z M 4.136719 31.699219 L 4.933594 32.175781 L 5.332031 31.296875 L 4.535156 30.820312 Z M 4.113281 26.023438 L 4.511719 25.144531 L 3.714844 24.667969 L 3.316406 25.546875 Z M 4.261719 26.667969 L 3.628906 28.078125 L 4.902344 28.839844 L 5.539062 27.433594 Z M 6.0625 29.800781 L 6.859375 30.277344 L 7.257812 29.394531 L 6.460938 28.917969 Z M 6.8125 31.886719 L 7.605469 32.367188 L 8.003906 31.488281 L 7.207031 31.007812 Z M 6.8125 31.886719 "/>
    <path style=" stroke:none;fill-rule:nonzero;fill:rgb(82.745098%,59.215686%,43.137255%);fill-opacity:1;" d="M 10.246094 19.773438 L 9.617188 19.0625 L 8.992188 19.773438 L 9.617188 20.484375 Z M 10.878906 22 L 9.878906 20.863281 L 8.878906 22 L 9.878906 23.136719 Z M 11.140625 23.015625 L 10.515625 23.726562 L 11.140625 24.4375 L 11.765625 23.726562 Z M 11.472656 25.539062 L 12.097656 26.25 L 12.722656 25.539062 L 12.097656 24.828125 Z M 9.253906 26.496094 L 9.878906 27.203125 L 10.503906 26.496094 L 9.878906 25.78125 Z M 9.429688 30.015625 L 10.054688 30.726562 L 10.679688 30.015625 L 10.054688 29.304688 Z M 8.386719 32.175781 L 9.011719 32.886719 L 9.636719 32.175781 L 9.011719 31.464844 Z M 8.386719 32.175781 "/>
    <path style=" stroke:none;fill-rule:nonzero;fill:rgb(100%,92.54902%,25.098039%);fill-opacity:1;" d="M 25.710938 4.953125 L 20.382812 1.421875 L 19.636719 1.125 L 19.851562 3.320312 L 13.5 2.015625 L 12.828125 2.207031 L 6.1875 6.75 L 3.539062 13.515625 L 1.6875 14.0625 L 1.6875 15.1875 L 5.625 14.0625 L 3.765625 15.859375 L 4.316406 18.347656 L 14.460938 19.035156 Z M 25.710938 4.953125 "/>
    <path style=" stroke:none;fill-rule:nonzero;fill:rgb(51.372549%,74.901961%,30.980392%);fill-opacity:1;" d="M 12.660156 2.582031 C 11.410156 2.332031 10.394531 3.6875 9.210938 4.117188 C 7.945312 4.578125 10.21875 6.265625 10.878906 6.261719 C 10.726562 6.261719 10.609375 6.265625 10.882812 6.261719 C 11.335938 6.253906 11.089844 6.257812 10.890625 6.261719 C 12.804688 6.214844 16.425781 3.324219 12.660156 2.582031 Z M 12.660156 2.582031 "/>
    <path style=" stroke:none;fill-rule:nonzero;fill:rgb(51.372549%,74.901961%,30.980392%);fill-opacity:1;" d="M 6.488281 9.640625 C 6.929688 8.375 6.765625 6.777344 5.015625 7.886719 C 3.535156 8.824219 5.152344 10.324219 3.347656 11.167969 C 1.625 11.96875 2.800781 14.191406 4.308594 13.542969 C 5.601562 12.984375 6.066406 10.898438 6.472656 9.691406 C 6.390625 9.925781 6.257812 10.3125 6.488281 9.640625 Z M 6.488281 9.640625 "/>
    <path style=" stroke:none;fill-rule:nonzero;fill:rgb(51.372549%,74.901961%,30.980392%);fill-opacity:1;" d="M 6.488281 9.640625 L 6.472656 9.691406 C 6.515625 9.5625 6.546875 9.476562 6.488281 9.640625 Z M 6.488281 9.640625 "/>
    <path style=" stroke:none;fill-rule:nonzero;fill:rgb(51.372549%,74.901961%,30.980392%);fill-opacity:1;" d="M 13.875 17.617188 C 14.015625 17.761719 14.171875 17.914062 13.871094 17.613281 C 13.625 17.371094 13.734375 17.480469 13.863281 17.605469 C 11.792969 15.570312 8.761719 20.410156 9.4375 21.304688 C 12.09375 24.792969 15.132812 18.894531 13.875 17.617188 Z M 13.875 17.617188 "/>
    <path style=" stroke:none;fill-rule:nonzero;fill:rgb(92.941176%,29.803922%,36.078431%);fill-opacity:1;" d="M 7.496094 14.351562 L 6.019531 17.804688 L 9.730469 19.144531 L 11.789062 15.382812 Z M 7.496094 14.351562 "/>
    <path style=" stroke:none;fill-rule:nonzero;fill:rgb(92.941176%,29.803922%,36.078431%);fill-opacity:1;" d="M 5.457031 13.644531 L 7.382812 15.1875 L 10.574219 12.921875 L 8.492188 11.257812 Z M 11.75 10.96875 L 14.367188 12.953125 L 17.703125 10.925781 L 15.957031 8.558594 Z M 8.933594 6.441406 L 9.144531 9.160156 L 12.804688 7.46875 L 12.65625 5.558594 L 10.960938 4.617188 Z M 16.546875 1.792969 L 15.605469 4.644531 L 19.6875 5.0625 L 19.472656 2.289062 Z M 20.8125 1.6875 L 21.027344 4.503906 L 24.785156 4.085938 L 25.253906 2.375 Z M 20.8125 1.6875 "/>
    <path style=" stroke:none;fill-rule:nonzero;fill:rgb(51.372549%,74.901961%,30.980392%);fill-opacity:1;" d="M 19.773438 6.585938 C 21.320312 6.976562 19.207031 6.445312 19.773438 6.585938 Z M 19.773438 6.585938 "/>
    <path style=" stroke:none;fill-rule:nonzero;fill:rgb(51.372549%,74.901961%,30.980392%);fill-opacity:1;" d="M 20.25 6.75 C 19.742188 6.339844 18.722656 7.976562 18.183594 8.34375 C 17.507812 8.804688 12.179688 10.113281 16.761719 11.28125 C 18.230469 11.65625 21.359375 7.652344 20.25 6.75 Z M 20.25 6.75 "/>
    <path style=" stroke:none;fill-rule:nonzero;fill:rgb(51.372549%,74.901961%,30.980392%);fill-opacity:1;" d="M 22.679688 5.480469 C 22.210938 5.203125 23.105469 5.734375 22.679688 5.480469 Z M 22.679688 5.480469 "/>
    <path style=" stroke:none;fill-rule:nonzero;fill:rgb(51.372549%,74.901961%,30.980392%);fill-opacity:1;" d="M 24.339844 3.21875 C 23.367188 4.539062 23.53125 1.757812 22.171875 2.988281 C 21.347656 3.734375 21.785156 4.953125 22.679688 5.480469 C 23.496094 5.964844 26.210938 5.679688 26.371094 4.425781 C 26.492188 3.515625 25.027344 2.292969 24.339844 3.21875 Z M 24.339844 3.21875 "/>
    <path style=" stroke:none;fill-rule:nonzero;fill:rgb(51.372549%,74.901961%,30.980392%);fill-opacity:1;" d="M 3.9375 14.625 C 3.140625 14.625 1.527344 16.699219 1.527344 16.703125 C 0.0429688 18.257812 3.085938 18.296875 3.144531 18.558594 C 2.6875 18.898438 2.222656 19.21875 1.746094 19.519531 C 1.734375 20.628906 4.125 19.402344 3.929688 19.519531 C 2.585938 21.800781 8.132812 19.132812 8.46875 18.925781 C 10.410156 17.734375 7.3125 14.625 3.9375 14.625 Z M 3.9375 14.625 "/>
    <path style=" stroke:none;fill-rule:nonzero;fill:rgb(51.372549%,74.901961%,30.980392%);fill-opacity:1;" d="M 10.144531 12.292969 C 9.347656 12.285156 10.59375 12.300781 10.144531 12.292969 Z M 10.144531 12.292969 "/>
    <path style=" stroke:none;fill-rule:nonzero;fill:rgb(51.372549%,74.901961%,30.980392%);fill-opacity:1;" d="M 11.457031 9.179688 C 9.5625 5.625 9.324219 9.175781 9 9.5625 C 8.800781 9.796875 6.1875 9.5625 7.355469 10.992188 C 7.839844 11.585938 9.40625 12.507812 10.144531 12.292969 C 11.8125 11.8125 11.855469 9.925781 11.457031 9.179688 Z M 11.457031 9.179688 "/>
    <path style=" stroke:none;fill-rule:nonzero;fill:rgb(100%,100%,83.137255%);fill-opacity:1;" d="M 11.640625 13.472656 L 5.507812 14.285156 L 3.914062 15.492188 L 4.632812 16.011719 L 10.664062 14.070312 L 12.234375 13.921875 Z M 16.304688 7.148438 L 13.671875 6.917969 L 7.875 8.84375 L 8.773438 9.5625 L 13.546875 8.035156 L 16.351562 7.789062 Z M 13.019531 11.945312 L 12.375 12 L 13.550781 14.867188 L 15.277344 15.1875 L 15.746094 14.179688 L 14.726562 13.785156 Z M 12.09375 15.597656 L 13.355469 19.074219 L 12.410156 19.695312 L 11.40625 16.621094 Z M 21.691406 4.101562 L 20.542969 3.773438 L 19.636719 1.125 L 18.878906 1.191406 L 19.789062 4.265625 L 21.324219 4.871094 Z M 16.65625 2.960938 L 12.828125 2.207031 L 12.445312 2.785156 L 16.46875 3.898438 Z M 16.65625 2.960938 "/>
    <path style=" stroke:none;fill-rule:nonzero;fill:rgb(98.431373%,74.901961%,40.392157%);fill-opacity:1;" d="M 9.214844 34.832031 C 9.214844 34.832031 11.566406 34.832031 12.949219 25.707031 C 14.34375 16.480469 20.53125 4.035156 30.175781 4.035156 C 33.515625 4.035156 35.789062 6.253906 34.519531 18.191406 C 34.292969 20.296875 12.152344 34.832031 9.214844 34.832031 Z M 9.214844 34.832031 "/>
    <path style=" stroke:none;fill-rule:nonzero;fill:rgb(99.215686%,87.45098%,70.196078%);fill-opacity:1;" d="M 30.183594 3.460938 C 18.007812 3.460938 14.21875 17.304688 12.949219 25.707031 C 11.566406 34.832031 7.824219 34.800781 7.824219 34.800781 C 7.824219 34.800781 10.175781 35.097656 10.871094 34.496094 C 11.867188 33.636719 13.042969 31.480469 13.777344 26.632812 C 15.050781 18.234375 19.601562 4.324219 30.503906 4.324219 C 33.574219 4.324219 34.636719 8.78125 34.636719 8.78125 C 34.636719 8.78125 34.089844 3.460938 30.183594 3.460938 Z M 30.183594 3.460938 "/>
    <path style=" stroke:none;fill-rule:nonzero;fill:rgb(82.745098%,59.215686%,43.137255%);fill-opacity:1;" d="M 22.03125 22.96875 L 22.597656 22.367188 L 23.15625 22.972656 L 22.59375 23.574219 Z M 22.769531 15.066406 L 23.332031 14.464844 L 23.894531 15.066406 L 23.332031 15.667969 Z M 31.5625 15.066406 L 32.125 14.464844 L 32.6875 15.066406 L 32.125 15.667969 Z M 30.503906 8.871094 L 31.066406 8.269531 L 31.628906 8.871094 L 31.066406 9.472656 Z M 30.503906 8.871094 "/>
    <path style=" stroke:none;fill-rule:nonzero;fill:rgb(99.215686%,87.45098%,70.196078%);fill-opacity:1;" d="M 27.191406 18.765625 L 26.632812 19.367188 L 27.191406 19.96875 L 27.757812 19.367188 L 27.191406 18.765625 M 28.492188 11.675781 L 27.929688 12.28125 L 28.492188 12.882812 L 29.054688 12.28125 L 28.492188 11.675781 M 24.167969 9.578125 L 23.609375 10.179688 L 24.167969 10.78125 L 24.734375 10.179688 L 24.167969 9.578125 M 18.863281 18.449219 L 18.300781 19.054688 L 18.863281 19.65625 L 19.425781 19.054688 L 18.863281 18.449219 M 17.570312 26.09375 L 17.007812 26.699219 L 17.570312 27.300781 L 18.132812 26.699219 L 17.570312 26.09375 "/>
    <use xlink:href="#surface6" mask="url(#mask0)"/>
  </g>
</svg>