<?xml version="1.0" encoding="UTF-8" standalone="yes"?>
<svg xmlns="http://www.w3.org/2000/svg" xmlns:xlink="http://www.w3.org/1999/xlink" width="48px" height="48px" viewBox="0 0 36 36" version="1.1">
  <g id="surface1">
    <path style=" stroke:none;fill-rule:nonzero;fill:rgb(100%,78.431373%,0%);fill-opacity:1;" d="M 13.753906 23.914062 C 12.640625 24.109375 11.53125 24.304688 10.417969 24.496094 C 9.054688 16.667969 9.054688 8.664062 10.417969 0.835938 L 13.75 1.425781 C 12.453125 8.867188 12.457031 16.476562 13.753906 23.914062 Z M 13.753906 23.914062 "/>
    <path style=" stroke:none;fill-rule:nonzero;fill:rgb(100%,83.137255%,12.156863%);fill-opacity:1;" d="M 16.847656 23.925781 C 17.957031 23.75 19.070312 23.574219 20.179688 23.398438 C 17.945312 16.851562 16.820312 9.777344 17 2.492188 C 15.847656 2.902344 14.707031 3.34375 13.574219 3.808594 C 13.582031 10.800781 14.722656 17.589844 16.847656 23.925781 Z M 16.847656 23.925781 "/>
    <path style=" stroke:none;fill-rule:nonzero;fill:rgb(100%,90.196078%,18.039216%);fill-opacity:1;" d="M 9.214844 22.246094 L 12.535156 21.664062 C 10.382812 15.347656 9.300781 8.519531 9.476562 1.488281 C 8.292969 2.035156 7.125 2.613281 5.976562 3.230469 C 6.054688 9.84375 7.179688 16.257812 9.214844 22.246094 Z M 22.453125 23.640625 L 25.632812 23.085938 C 26.1875 16.5625 27.925781 10.476562 30.554688 5.101562 C 29.316406 5.050781 28.082031 5.015625 26.84375 4.992188 C 24.375 10.664062 22.828125 16.96875 22.453125 23.640625 Z M 22.453125 23.640625 "/>
    <path style=" stroke:none;fill-rule:nonzero;fill:rgb(100%,90.196078%,18.039216%);fill-opacity:1;" d="M 7.453125 22.722656 L 10.285156 22.226562 C 7.511719 18.164062 5.390625 13.289062 4.28125 7.828125 C 3.195312 8.558594 2.144531 9.335938 1.132812 10.160156 C 2.609375 14.910156 4.796875 19.136719 7.453125 22.722656 Z M 25.542969 21.640625 C 26.585938 21.460938 27.628906 21.277344 28.671875 21.09375 C 29.894531 15.515625 32.070312 10.511719 34.867188 6.277344 C 33.894531 5.699219 32.941406 5.097656 32 4.46875 C 28.921875 9.398438 26.636719 15.207031 25.542969 21.640625 Z M 21.609375 23.914062 C 20.5 24.109375 19.390625 24.304688 18.277344 24.496094 C 16.976562 17.027344 16.976562 9.390625 18.277344 1.921875 C 19.390625 2.121094 20.5 2.316406 21.609375 2.515625 C 20.375 9.597656 20.375 16.835938 21.609375 23.914062 Z M 21.609375 23.914062 "/>
    <path style=" stroke:none;fill-rule:nonzero;fill:rgb(100%,78.431373%,0%);fill-opacity:1;" d="M 27.363281 22.226562 C 26.253906 22.421875 25.144531 22.617188 24.03125 22.808594 C 22.867188 16.136719 22.867188 9.308594 24.03125 2.636719 C 25.082031 3.164062 26.140625 3.679688 27.207031 4.171875 C 26.269531 10.15625 26.324219 16.257812 27.363281 22.226562 Z M 27.363281 22.226562 "/>
    <path style=" stroke:none;fill-rule:nonzero;fill:rgb(100%,90.196078%,18.039216%);fill-opacity:1;" d="M 14.503906 23.328125 L 11.179688 22.691406 C 12.289062 16.882812 12.289062 10.914062 11.179688 5.101562 C 12.457031 5.707031 13.707031 6.363281 14.929688 7.078125 C 15.667969 12.480469 15.523438 17.96875 14.503906 23.328125 Z M 14.503906 23.328125 "/>
    <path style=" stroke:none;fill-rule:nonzero;fill:rgb(100%,78.431373%,0%);fill-opacity:1;" d="M 10.207031 22.796875 L 6.976562 22.179688 C 6.292969 15.523438 4.269531 9.425781 1.320312 4.207031 C 2.617188 4.097656 3.910156 4.007812 5.207031 3.925781 C 7.980469 9.535156 9.761719 15.933594 10.207031 22.796875 Z M 22.136719 22.136719 C 21.3125 21.980469 20.488281 21.820312 19.667969 21.664062 C 23.84375 17.65625 27.371094 12.246094 29.535156 5.726562 C 30.542969 6.457031 31.515625 7.226562 32.460938 8.035156 C 29.847656 13.792969 26.234375 18.550781 22.136719 22.136719 Z M 22.136719 22.136719 "/>
    <path style=" stroke:none;fill-rule:nonzero;fill:rgb(100%,83.137255%,12.156863%);fill-opacity:1;" d="M 22.828125 21.433594 C 21.71875 21.628906 20.609375 21.820312 19.503906 22.011719 C 19.25 16.257812 20.027344 10.632812 21.691406 5.390625 C 22.582031 6.207031 23.5 6.996094 24.445312 7.746094 C 23.199219 12.199219 22.652344 16.816406 22.828125 21.433594 Z M 12.269531 20.046875 C 11.179688 20.238281 10.085938 20.429688 8.992188 20.617188 C 6.96875 16.894531 5.558594 12.613281 4.996094 7.960938 C 6.167969 8.335938 7.347656 8.691406 8.527344 9.035156 C 9.128906 13.09375 10.445312 16.816406 12.269531 20.046875 Z M 12.269531 20.046875 "/>
    <path style=" stroke:none;fill-rule:nonzero;fill:rgb(100%,78.431373%,0%);fill-opacity:1;" d="M 16.816406 24.757812 C 15.726562 24.492188 14.648438 24.191406 13.578125 23.855469 C 13.144531 19.683594 13.359375 15.472656 14.222656 11.367188 C 15.019531 12.132812 15.847656 12.867188 16.703125 13.570312 C 16.183594 17.285156 16.222656 21.054688 16.816406 24.757812 Z M 16.816406 24.757812 "/>
    <path style=" stroke:none;fill-rule:nonzero;fill:rgb(100%,83.137255%,12.156863%);fill-opacity:1;" d="M 30.132812 22.519531 C 29.15625 22.691406 28.179688 22.863281 27.203125 23.03125 C 28.171875 18.058594 30.058594 13.605469 32.542969 9.875 C 33.257812 10.632812 34.003906 11.363281 34.78125 12.054688 C 32.753906 15.050781 31.132812 18.578125 30.132812 22.519531 Z M 30.132812 22.519531 "/>
    <path style=" stroke:none;fill-rule:nonzero;fill:rgb(100%,90.196078%,18.039216%);fill-opacity:1;" d="M 22.632812 23.417969 C 21.519531 23.257812 20.40625 23.089844 19.296875 22.917969 C 21.257812 18.871094 22.488281 14.261719 22.738281 9.335938 C 23.929688 10.042969 25.082031 10.8125 26.1875 11.644531 C 25.617188 15.882812 24.382812 19.851562 22.632812 23.417969 Z M 28.519531 21.109375 C 27.742188 21.019531 26.96875 20.925781 26.195312 20.824219 C 27.691406 17.601562 28.601562 13.964844 28.746094 10.09375 C 29.574219 10.652344 30.375 11.25 31.140625 11.890625 C 30.746094 15.195312 29.835938 18.300781 28.519531 21.109375 Z M 28.519531 21.109375 "/>
    <path style=" stroke:none;fill-rule:nonzero;fill:rgb(93.72549%,30.196078%,23.529412%);fill-opacity:1;" d="M 26.207031 15.703125 C 26.207031 18.710938 22.519531 21.152344 17.972656 21.152344 C 13.425781 21.152344 9.738281 18.710938 9.738281 15.703125 L 2.367188 15.703125 L 4.914062 32.632812 C 9.792969 36.007812 26.15625 36.007812 31.03125 32.632812 L 33.578125 15.703125 Z M 26.207031 15.703125 "/>
    <path style=" stroke:none;fill-rule:nonzero;fill:rgb(67.058824%,17.647059%,12.156863%);fill-opacity:1;" d="M 18.613281 31.339844 L 18.269531 31.535156 C 18.238281 31.460938 18.164062 31.410156 18.078125 31.40625 L 17.867188 31.40625 C 17.78125 31.410156 17.707031 31.460938 17.675781 31.535156 L 17.335938 31.339844 L 16.515625 30.871094 L 16.515625 32.746094 L 17.335938 32.277344 L 17.675781 32.082031 C 17.707031 32.160156 17.78125 32.210938 17.867188 32.210938 L 18.078125 32.210938 C 18.164062 32.207031 18.238281 32.15625 18.269531 32.082031 L 18.613281 32.277344 L 19.429688 32.746094 L 19.429688 30.871094 Z M 16.699219 28.6875 C 16.835938 28.902344 17.027344 29.054688 17.25 29.164062 C 17.472656 29.269531 17.722656 29.324219 17.972656 29.324219 C 18.222656 29.324219 18.472656 29.269531 18.699219 29.164062 C 18.917969 29.058594 19.109375 28.902344 19.246094 28.6875 C 19.277344 28.9375 19.148438 29.210938 18.90625 29.402344 C 18.667969 29.601562 18.320312 29.714844 17.976562 29.714844 C 17.628906 29.714844 17.28125 29.601562 17.042969 29.402344 C 16.796875 29.210938 16.667969 28.9375 16.699219 28.6875 Z M 16.699219 28.6875 "/>
    <path style=" stroke:none;fill-rule:nonzero;fill:rgb(67.058824%,17.647059%,12.156863%);fill-opacity:1;" d="M 21.597656 26.179688 L 21.597656 26.109375 C 21.597656 26.058594 21.59375 26.046875 21.5625 26.03125 C 21.472656 25.984375 21.378906 25.949219 21.28125 25.925781 C 20.710938 24.601562 19.410156 23.746094 17.972656 23.746094 C 16.53125 23.746094 15.230469 24.601562 14.664062 25.925781 C 14.621094 25.9375 14.578125 25.949219 14.535156 25.964844 C 14.480469 25.980469 14.429688 26.003906 14.378906 26.03125 C 14.351562 26.046875 14.34375 26.058594 14.34375 26.109375 L 14.34375 26.179688 C 14.34375 26.308594 14.332031 26.257812 14.421875 26.308594 C 14.453125 26.328125 14.480469 26.351562 14.503906 26.378906 C 14.417969 26.691406 14.371094 27.019531 14.375 27.34375 C 14.375 29.332031 15.984375 30.941406 17.972656 30.941406 C 19.957031 30.941406 21.570312 29.332031 21.570312 27.34375 C 21.570312 27.007812 21.523438 26.683594 21.4375 26.375 C 21.464844 26.351562 21.492188 26.328125 21.523438 26.308594 C 21.613281 26.257812 21.597656 26.308594 21.597656 26.179688 Z M 17.972656 24.171875 C 19.140625 24.171875 20.21875 24.816406 20.769531 25.847656 C 20.378906 25.8125 19.984375 25.808594 19.59375 25.839844 C 19.148438 25.878906 18.773438 25.976562 18.472656 26.132812 C 18.1875 26.277344 17.757812 26.277344 17.476562 26.132812 C 17.171875 25.976562 16.796875 25.878906 16.351562 25.839844 C 15.960938 25.808594 15.566406 25.8125 15.175781 25.847656 C 15.726562 24.816406 16.800781 24.171875 17.972656 24.171875 Z M 17.972656 30.519531 C 16.21875 30.519531 14.796875 29.097656 14.796875 27.34375 L 14.796875 27.273438 C 14.910156 27.699219 15.164062 27.972656 15.539062 28.113281 C 15.941406 28.265625 16.390625 28.257812 16.792969 28.101562 C 17.023438 28.011719 17.21875 27.855469 17.355469 27.648438 C 17.625 27.257812 17.542969 27.007812 17.679688 26.671875 C 17.800781 26.378906 18.140625 26.378906 18.261719 26.671875 C 18.398438 27.011719 18.320312 27.257812 18.585938 27.648438 C 18.738281 27.875 18.929688 28.011719 19.152344 28.101562 C 19.554688 28.261719 20 28.265625 20.40625 28.113281 C 20.78125 27.972656 21.03125 27.699219 21.144531 27.273438 L 21.144531 27.34375 C 21.144531 29.097656 19.726562 30.519531 17.972656 30.519531 Z M 17.972656 30.519531 "/>
  </g>
</svg>