<?xml version="1.0" encoding="UTF-8" standalone="yes"?>
<svg xmlns="http://www.w3.org/2000/svg" xmlns:xlink="http://www.w3.org/1999/xlink" width="48px" height="48px" viewBox="0 0 36 36" version="1.1">
  <g id="surface1">
    <path style=" stroke:none;fill-rule:evenodd;fill:rgb(100%,81.960784%,43.921569%);fill-opacity:1;" d="M 1.125 18.742188 C 1.125 26.097656 8.679688 32.0625 18 32.0625 C 27.320312 32.0625 34.875 26.097656 34.875 18.742188 C 34.875 11.386719 27.320312 5.421875 18 5.421875 C 8.679688 5.421875 1.125 11.386719 1.125 18.742188 Z M 11.769531 19.972656 C 11.769531 17.835938 14.558594 16.101562 18 16.101562 C 21.4375 16.101562 24.230469 17.835938 24.230469 19.972656 C 24.230469 22.109375 21.4375 23.84375 18 23.84375 C 14.558594 23.84375 11.769531 22.109375 11.769531 19.972656 Z M 11.769531 19.972656 "/>
    <path style=" stroke:none;fill-rule:evenodd;fill:rgb(100%,25.098039%,52.156863%);fill-opacity:1;" d="M 1.125 15.148438 C 1.125 16.226562 1.257812 17.25 1.515625 18.214844 C 1.855469 19.484375 2.066406 21.71875 2.835938 22.765625 C 3.21875 23.28125 4.050781 22.574219 4.726562 22.574219 C 5.980469 22.574219 6.195312 25.304688 7.691406 25.304688 C 9.929688 25.304688 8.871094 27.183594 11.972656 27.183594 C 13.632812 27.183594 14.351562 25.644531 15.207031 25.644531 C 17.351562 25.644531 17.246094 28.511719 19.285156 28.511719 C 21.425781 28.511719 21.3125 25.125 23.261719 25.125 C 25.160156 25.125 25.554688 26.871094 27.046875 26.871094 C 28.628906 26.871094 28.230469 21.695312 29.984375 21.695312 C 32.007812 21.695312 33.136719 20.894531 33.558594 20.148438 C 34.429688 18.625 34.882812 16.902344 34.875 15.148438 C 34.875 9.195312 27.320312 3.9375 18 3.9375 C 8.679688 3.9375 1.125 9.195312 1.125 15.148438 Z M 11.769531 15.324219 C 11.769531 14.632812 12.515625 14.140625 13.03125 13.578125 C 13.410156 13.164062 13.699219 12.085938 14.285156 11.785156 C 15.359375 11.234375 16.316406 13.175781 17.820312 13.175781 C 18.597656 13.175781 20.214844 11.804688 20.902344 11.964844 C 22.050781 12.238281 21.550781 12.964844 22.257812 13.578125 C 22.996094 14.210938 24.230469 14.480469 24.230469 15.324219 C 24.230469 17.464844 22.859375 19.195312 18 19.195312 C 13.140625 19.195312 11.769531 17.464844 11.769531 15.324219 Z M 11.769531 15.324219 "/>
    <path style=" stroke:none;fill-rule:evenodd;fill:rgb(38.823529%,71.372549%,90.196078%);fill-opacity:1;" d="M 22.789062 21.859375 L 19.546875 23.558594 C 19.027344 23.835938 18.5625 22.964844 19.085938 22.6875 L 22.324219 20.988281 C 22.84375 20.710938 23.308594 21.582031 22.789062 21.859375 Z M 28.878906 11.121094 L 25.421875 9.917969 C 24.863281 9.722656 25.183594 8.789062 25.742188 8.984375 L 29.199219 10.1875 C 29.757812 10.382812 29.4375 11.316406 28.878906 11.121094 Z M 28.878906 11.121094 "/>
    <path style=" stroke:none;fill-rule:evenodd;fill:rgb(59.215686%,16.078431%,80%);fill-opacity:1;" d="M 9.835938 18.625 L 6.363281 19.792969 C 5.804688 19.980469 5.488281 19.046875 6.046875 18.859375 L 9.519531 17.691406 C 10.078125 17.503906 10.394531 18.4375 9.835938 18.625 Z M 16.242188 8.789062 L 12.839844 7.433594 C 12.292969 7.214844 12.652344 6.300781 13.203125 6.519531 L 16.605469 7.875 C 17.152344 8.09375 16.792969 9.007812 16.242188 8.789062 Z M 16.242188 8.789062 "/>
    <path style=" stroke:none;fill-rule:evenodd;fill:rgb(100%,100%,100%);fill-opacity:1;" d="M 7.105469 15.128906 L 3.816406 13.519531 C 3.285156 13.257812 3.714844 12.371094 4.246094 12.632812 L 7.535156 14.242188 C 8.066406 14.503906 7.636719 15.390625 7.105469 15.128906 Z M 32.085938 13.921875 L 28.617188 15.089844 C 28.054688 15.277344 27.738281 14.34375 28.296875 14.15625 L 31.769531 12.988281 C 32.332031 12.800781 32.648438 13.734375 32.085938 13.921875 Z M 32.085938 13.921875 "/>
    <path style=" stroke:none;fill-rule:evenodd;fill:rgb(100%,94.117647%,50.196078%);fill-opacity:1;" d="M 14.300781 22.726562 L 10.640625 22.882812 C 10.050781 22.910156 10.007812 21.925781 10.597656 21.898438 L 14.257812 21.742188 C 14.847656 21.714844 14.890625 22.699219 14.300781 22.726562 Z M 24.0625 6.710938 L 20.542969 7.722656 C 19.972656 7.886719 19.699219 6.941406 20.269531 6.777344 L 23.789062 5.761719 C 24.359375 5.597656 24.628906 6.546875 24.0625 6.710938 Z M 24.0625 6.710938 "/>
    <path style=" stroke:none;fill-rule:evenodd;fill:rgb(51.764706%,87.843137%,37.647059%);fill-opacity:1;" d="M 26.207031 18.464844 L 29.855469 18.628906 C 30.445312 18.65625 30.394531 19.644531 29.804688 19.617188 L 26.152344 19.449219 C 25.566406 19.421875 25.617188 18.4375 26.207031 18.464844 Z M 10.472656 9.738281 L 6.929688 10.667969 C 6.359375 10.816406 6.113281 9.863281 6.683594 9.714844 L 10.226562 8.785156 C 10.796875 8.632812 11.042969 9.589844 10.472656 9.738281 Z M 10.472656 9.738281 "/>
  </g>
</svg>