<?xml version="1.0" encoding="UTF-8" standalone="yes"?>
<svg xmlns="http://www.w3.org/2000/svg" xmlns:xlink="http://www.w3.org/1999/xlink" width="48px" height="48px" viewBox="0 0 36 36" version="1.1">
  <defs>
    <filter id="alpha" filterUnits="objectBoundingBox" x="0%" y="0%" width="100%" height="100%">
      <feColorMatrix type="matrix" in="SourceGraphic" values="0 0 0 0 1 0 0 0 0 1 0 0 0 0 1 0 0 0 1 0"/>
    </filter>
    <mask id="mask0">
      <g filter="url(#alpha)">
        <rect x="0" y="0" width="36" height="36" style="fill:rgb(0%,0%,0%);fill-opacity:0.8;stroke:none;"/>
      </g>
    </mask>
    <mask id="mask1">
      <g filter="url(#alpha)">
        <rect x="0" y="0" width="36" height="36" style="fill:rgb(0%,0%,0%);fill-opacity:0.701961;stroke:none;"/>
      </g>
    </mask>
    <clipPath id="clip1">
      <rect width="36" height="36"/>
    </clipPath>
    <clipPath id="clip2">
      <rect width="36" height="36"/>
    </clipPath>
    <g id="surface6" clip-path="url(#clip1)">
      <path style=" stroke:none;fill-rule:nonzero;fill:rgb(63.137255%,72.156863%,78.039216%);fill-opacity:1;" d="M 33.1875 10.449219 L 2.8125 10.449219 C 2.8125 10.449219 13.554688 22.472656 17.3125 24.054688 C 17.300781 25.246094 17.21875 29.519531 16.835938 31.355469 C 14.765625 33.179688 10.417969 34.382812 10.386719 34.394531 C 10.296875 34.429688 10.238281 34.546875 10.253906 34.667969 C 10.269531 34.785156 10.351562 34.875 10.449219 34.875 L 25.550781 34.875 C 25.648438 34.875 25.730469 34.785156 25.746094 34.667969 C 25.761719 34.546875 25.707031 34.433594 25.613281 34.394531 C 25.585938 34.382812 21.222656 33.140625 19.171875 31.355469 C 18.796875 29.515625 18.71875 25.226562 18.703125 24.046875 C 22.480469 22.433594 33.1875 10.449219 33.1875 10.449219 Z M 18 22.917969 C 15.667969 22.917969 5.703125 11.761719 5.703125 11.761719 L 30.296875 11.761719 C 30.296875 11.761719 20.332031 22.917969 18 22.917969 Z M 18 22.917969 "/>
    </g>
    <g id="surface9" clip-path="url(#clip2)">
      <path style=" stroke:none;fill-rule:nonzero;fill:rgb(95.294118%,100%,82.352941%);fill-opacity:1;" d="M 27.78125 12.746094 C 27.78125 12.746094 19.855469 21.621094 18 21.621094 C 16.144531 21.621094 8.21875 12.746094 8.21875 12.746094 Z M 27.78125 12.746094 "/>
    </g>
  </defs>
  <g id="surface1">
    <path style=" stroke:none;fill-rule:nonzero;fill:rgb(94.901961%,60.392157%,18.039216%);fill-opacity:1;" d="M 25.6875 1.878906 C 25.695312 1.863281 25.699219 1.847656 25.703125 1.832031 C 25.808594 1.519531 25.695312 1.210938 25.449219 1.140625 C 25.203125 1.066406 24.921875 1.261719 24.816406 1.570312 L 17.859375 20.816406 L 18.289062 20.96875 Z M 25.6875 1.878906 "/>
    <path style=" stroke:none;fill-rule:nonzero;fill:rgb(54.901961%,77.647059%,24.313725%);fill-opacity:1;" d="M 25.589844 10.0625 C 25.402344 11.386719 23.777344 12.265625 21.953125 12.023438 C 20.132812 11.78125 18.808594 10.511719 18.996094 9.1875 C 19.179688 7.863281 20.808594 6.984375 22.628906 7.226562 C 24.453125 7.46875 25.777344 8.738281 25.589844 10.0625 Z M 25.589844 10.0625 "/>
    <path style=" stroke:none;fill-rule:nonzero;fill:rgb(80.784314%,6.666667%,29.411765%);fill-opacity:1;" d="M 21.578125 9.53125 C 21.460938 10.363281 20.847656 10.96875 20.207031 10.882812 C 19.570312 10.796875 19.144531 10.054688 19.261719 9.222656 C 19.378906 8.390625 19.992188 7.785156 20.632812 7.871094 C 21.269531 7.957031 21.695312 8.699219 21.578125 9.53125 Z M 21.578125 9.53125 "/>
    <path style=" stroke:none;fill-rule:nonzero;fill:rgb(54.901961%,77.647059%,24.313725%);fill-opacity:1;" d="M 17.09375 14.253906 C 16.367188 15.390625 17.039062 17.074219 18.601562 18.019531 C 20.160156 18.964844 22.011719 18.8125 22.742188 17.679688 C 23.46875 16.546875 22.796875 14.859375 21.234375 13.914062 C 19.675781 12.96875 17.824219 13.121094 17.09375 14.253906 Z M 17.09375 14.253906 "/>
    <path style=" stroke:none;fill-rule:nonzero;fill:rgb(80.784314%,6.666667%,29.411765%);fill-opacity:1;" d="M 20.53125 16.335938 C 20.074219 17.050781 20.144531 17.898438 20.691406 18.226562 C 21.238281 18.558594 22.054688 18.253906 22.511719 17.539062 C 22.96875 16.828125 22.894531 15.980469 22.347656 15.648438 C 21.800781 15.320312 20.988281 15.625 20.53125 16.335938 Z M 20.53125 16.335938 "/>
    <use xlink:href="#surface6" mask="url(#mask0)"/>
    <use xlink:href="#surface9" mask="url(#mask1)"/>
  </g>
</svg>