<?xml version="1.0" encoding="UTF-8" standalone="yes"?>
<svg xmlns="http://www.w3.org/2000/svg" xmlns:xlink="http://www.w3.org/1999/xlink" width="48px" height="48px" viewBox="0 0 36 36" version="1.1">
  <defs>
    <filter id="alpha" filterUnits="objectBoundingBox" x="0%" y="0%" width="100%" height="100%">
      <feColorMatrix type="matrix" in="SourceGraphic" values="0 0 0 0 1 0 0 0 0 1 0 0 0 0 1 0 0 0 1 0"/>
    </filter>
    <mask id="mask0">
      <g filter="url(#alpha)">
        <rect x="0" y="0" width="36" height="36" style="fill:rgb(0%,0%,0%);fill-opacity:0.8;stroke:none;"/>
      </g>
    </mask>
    <mask id="mask1">
      <g filter="url(#alpha)">
        <rect x="0" y="0" width="36" height="36" style="fill:rgb(0%,0%,0%);fill-opacity:0.8;stroke:none;"/>
      </g>
    </mask>
    <clipPath id="clip1">
      <rect width="36" height="36"/>
    </clipPath>
    <clipPath id="clip2">
      <rect width="36" height="36"/>
    </clipPath>
    <g id="surface6" clip-path="url(#clip1)">
      <path style=" stroke:none;fill-rule:nonzero;fill:rgb(100%,100%,100%);fill-opacity:1;" d="M 25.941406 13.558594 C 25.941406 13.558594 28.222656 12.421875 31.460938 12.824219 C 28.335938 11.386719 25.941406 12.492188 25.941406 12.492188 Z M 25.941406 25.578125 C 25.941406 25.578125 28.109375 25.652344 30.289062 24.042969 C 28.835938 26.738281 25.941406 26.65625 25.941406 26.65625 Z M 25.941406 25.578125 "/>
    </g>
    <g id="surface9" clip-path="url(#clip2)">
      <path style=" stroke:none;fill-rule:nonzero;fill:rgb(63.137255%,72.156863%,78.039216%);fill-opacity:1;" d="M 33.570312 12.683594 C 33.109375 9.898438 27.136719 10.933594 25.941406 11.167969 L 25.941406 5.027344 L 6.757812 5.027344 L 6.757812 32.574219 C 6.757812 35.640625 25.941406 35.640625 25.941406 32.574219 L 25.941406 27.71875 C 29.546875 27.601562 32.347656 24.449219 33.128906 21.441406 C 33.683594 19.296875 33.953125 14.984375 33.570312 12.683594 Z M 24.59375 30.445312 C 24.59375 32.933594 8.105469 32.933594 8.105469 30.445312 L 8.105469 6.738281 L 24.59375 6.738281 Z M 30.632812 21.445312 C 30.164062 23.304688 28.34375 24.921875 25.941406 25.011719 L 25.941406 13.875 C 26.914062 13.640625 30.976562 12.769531 31.261719 14.542969 C 31.578125 16.511719 31.128906 19.492188 30.632812 21.445312 Z M 30.632812 21.445312 "/>
    </g>
  </defs>
  <g id="surface1">
    <path style=" stroke:none;fill-rule:nonzero;fill:rgb(100%,100%,100%);fill-opacity:1;" d="M 9.039062 7.046875 L 23.664062 7.046875 L 23.664062 14.953125 L 9.039062 14.953125 Z M 9.039062 7.046875 "/>
    <path style=" stroke:none;fill-rule:nonzero;fill:rgb(99.215686%,71.764706%,24.313725%);fill-opacity:1;" d="M 23.660156 14.953125 L 9.035156 14.953125 L 9.035156 29.675781 C 9.035156 31.882812 23.660156 31.882812 23.660156 29.675781 Z M 23.660156 14.953125 "/>
    <path style=" stroke:none;fill-rule:nonzero;fill:rgb(84.705882%,82.352941%,72.156863%);fill-opacity:1;" d="M 24.59375 4.917969 C 24.59375 6.347656 22.824219 7.507812 20.640625 7.507812 C 18.457031 7.507812 16.6875 6.347656 16.6875 4.917969 C 16.6875 3.480469 18.457031 2.320312 20.640625 2.320312 C 22.824219 2.320312 24.59375 3.480469 24.59375 4.917969 Z M 24.59375 4.917969 "/>
    <path style=" stroke:none;fill-rule:nonzero;fill:rgb(84.705882%,82.352941%,72.156863%);fill-opacity:1;" d="M 27.449219 6.046875 C 27.449219 7.25 26.289062 8.222656 24.859375 8.222656 C 23.425781 8.222656 22.269531 7.25 22.269531 6.046875 C 22.269531 4.839844 23.429688 3.863281 24.859375 3.863281 C 26.289062 3.863281 27.449219 4.839844 27.449219 6.046875 Z M 8.636719 13.144531 C 8.636719 14.320312 7.558594 15.277344 6.230469 15.277344 C 4.894531 15.277344 3.816406 14.320312 3.816406 13.144531 C 3.816406 11.960938 4.894531 11.003906 6.230469 11.003906 C 7.5625 11 8.636719 11.960938 8.636719 13.144531 Z M 8.636719 13.144531 "/>
    <path style=" stroke:none;fill-rule:nonzero;fill:rgb(84.705882%,82.352941%,72.156863%);fill-opacity:1;" d="M 9.84375 16.023438 C 9.84375 17.199219 8.765625 18.15625 7.433594 18.15625 C 6.101562 18.15625 5.019531 17.199219 5.019531 16.023438 C 5.019531 14.839844 6.101562 13.882812 7.433594 13.882812 C 8.765625 13.882812 9.84375 14.839844 9.84375 16.023438 Z M 14.589844 6.242188 C 14.589844 8.566406 12.460938 10.453125 9.835938 10.453125 C 7.210938 10.453125 5.082031 8.566406 5.082031 6.242188 C 5.082031 3.914062 7.214844 2.03125 9.835938 2.03125 C 12.460938 2.027344 14.589844 3.914062 14.589844 6.242188 Z M 14.589844 6.242188 "/>
    <path style=" stroke:none;fill-rule:nonzero;fill:rgb(84.705882%,82.352941%,72.156863%);fill-opacity:1;" d="M 10.203125 9.363281 C 10.203125 11.386719 8.425781 13.027344 6.226562 13.027344 C 4.03125 13.027344 2.25 11.386719 2.25 9.363281 C 2.25 7.335938 4.03125 5.695312 6.226562 5.695312 C 8.425781 5.691406 10.203125 7.335938 10.203125 9.363281 Z M 19.484375 4.214844 C 19.484375 5.917969 17.871094 7.300781 15.878906 7.300781 C 13.890625 7.300781 12.277344 5.917969 12.277344 4.214844 C 12.277344 2.507812 13.890625 1.125 15.878906 1.125 C 17.871094 1.125 19.484375 2.507812 19.484375 4.214844 Z M 19.484375 4.214844 "/>
    <path style=" stroke:none;fill-rule:nonzero;fill:rgb(100%,100%,100%);fill-opacity:1;" d="M 24.40625 5.316406 C 24.40625 6.71875 22.746094 7.859375 20.699219 7.859375 C 18.648438 7.859375 16.992188 6.722656 16.992188 5.316406 C 16.992188 3.910156 18.652344 2.773438 20.699219 2.773438 C 22.746094 2.773438 24.40625 3.910156 24.40625 5.316406 Z M 24.40625 5.316406 "/>
    <path style=" stroke:none;fill-rule:nonzero;fill:rgb(100%,100%,100%);fill-opacity:1;" d="M 26.921875 6.136719 C 26.921875 7.199219 25.789062 8.0625 24.394531 8.0625 C 22.996094 8.0625 21.867188 7.199219 21.867188 6.136719 C 21.867188 5.074219 22.996094 4.210938 24.394531 4.210938 C 25.789062 4.210938 26.921875 5.074219 26.921875 6.136719 Z M 9.300781 13.03125 C 9.300781 14.148438 8.246094 15.054688 6.949219 15.054688 C 5.648438 15.054688 4.597656 14.148438 4.597656 13.03125 C 4.597656 11.910156 5.648438 11.003906 6.949219 11.003906 C 8.246094 11.003906 9.300781 11.910156 9.300781 13.03125 Z M 20.550781 7.050781 C 20.550781 8.167969 19.496094 9.074219 18.195312 9.074219 C 16.898438 9.074219 15.84375 8.167969 15.84375 7.050781 C 15.84375 5.929688 16.898438 5.023438 18.195312 5.023438 C 19.496094 5.023438 20.550781 5.929688 20.550781 7.050781 Z M 14.941406 6.65625 C 14.941406 8.859375 12.867188 10.648438 10.304688 10.648438 C 7.746094 10.648438 5.667969 8.859375 5.667969 6.65625 C 5.667969 4.445312 7.746094 2.664062 10.304688 2.664062 C 12.867188 2.660156 14.941406 4.445312 14.941406 6.65625 Z M 14.941406 6.65625 "/>
    <path style=" stroke:none;fill-rule:nonzero;fill:rgb(100%,100%,100%);fill-opacity:1;" d="M 10.667969 9.480469 C 10.667969 11.324219 8.925781 12.820312 6.785156 12.820312 C 4.640625 12.820312 2.902344 11.324219 2.902344 9.480469 C 2.902344 7.632812 4.640625 6.136719 6.785156 6.136719 C 8.925781 6.136719 10.667969 7.632812 10.667969 9.480469 Z M 10.667969 9.480469 "/>
    <path style=" stroke:none;fill-rule:nonzero;fill:rgb(100%,100%,100%);fill-opacity:1;" d="M 16.15625 12.417969 C 16.15625 14.261719 14.417969 15.757812 12.277344 15.757812 C 10.132812 15.757812 8.394531 14.261719 8.394531 12.417969 C 8.394531 10.570312 10.132812 9.074219 12.277344 9.074219 C 14.417969 9.074219 16.15625 10.570312 16.15625 12.417969 Z M 19.484375 4.734375 C 19.484375 6.347656 17.960938 7.660156 16.085938 7.660156 C 14.207031 7.660156 12.683594 6.347656 12.683594 4.734375 C 12.683594 3.113281 14.207031 1.804688 16.085938 1.804688 C 17.960938 1.804688 19.484375 3.113281 19.484375 4.734375 Z M 19.484375 4.734375 "/>
    <path style=" stroke:none;fill-rule:nonzero;fill:rgb(100%,100%,100%);fill-opacity:1;" d="M 10.304688 16.019531 C 10.304688 17.140625 9.253906 18.046875 7.953125 18.046875 C 6.652344 18.046875 5.601562 17.140625 5.601562 16.019531 C 5.601562 14.902344 6.65625 13.992188 7.953125 13.992188 C 9.253906 13.992188 10.304688 14.902344 10.304688 16.019531 Z M 10.304688 16.019531 "/>
    <path style=" stroke:none;fill-rule:nonzero;fill:rgb(100%,100%,100%);fill-opacity:1;" d="M 12.570312 14.957031 C 12.570312 16.03125 11.554688 16.902344 10.304688 16.902344 C 9.054688 16.902344 8.039062 16.03125 8.039062 14.957031 C 8.039062 13.875 9.054688 13 10.304688 13 C 11.554688 13 12.570312 13.875 12.570312 14.957031 Z M 12.570312 14.957031 "/>
    <path style=" stroke:none;fill-rule:nonzero;fill:rgb(84.705882%,82.352941%,72.156863%);fill-opacity:1;" d="M 14.589844 12.199219 C 14.402344 11.957031 14.15625 11.765625 13.875 11.644531 C 13.75 11.59375 13.574219 11.535156 13.445312 11.523438 C 13.304688 11.503906 13.164062 11.496094 13.019531 11.5 L 12.816406 11.5 L 12.734375 11.285156 C 12.636719 11.011719 12.464844 10.773438 12.242188 10.589844 C 12.128906 10.5 12.007812 10.421875 11.878906 10.355469 C 11.738281 10.289062 11.589844 10.238281 11.4375 10.210938 C 10.839844 10.078125 10.160156 10.230469 9.695312 10.621094 L 9.433594 10.839844 L 9.222656 10.644531 C 9.175781 10.597656 9.121094 10.558594 9.066406 10.519531 C 8.96875 10.46875 8.949219 10.457031 8.867188 10.421875 C 8.71875 10.363281 8.5625 10.332031 8.402344 10.332031 C 8.050781 10.324219 7.707031 10.441406 7.429688 10.664062 C 7.558594 10.339844 7.917969 10.074219 8.347656 9.976562 C 8.574219 9.929688 8.800781 9.929688 9.027344 9.96875 C 9.132812 9.980469 9.285156 10.035156 9.355469 10.0625 C 9.472656 10.109375 9.570312 10.167969 9.667969 10.226562 L 9.191406 10.253906 C 9.726562 9.621094 10.738281 9.316406 11.640625 9.523438 C 11.753906 9.550781 11.855469 9.582031 11.972656 9.625 C 12.09375 9.667969 12.191406 9.710938 12.265625 9.753906 C 12.480469 9.863281 12.652344 9.984375 12.800781 10.136719 C 13.109375 10.433594 13.289062 10.8125 13.335938 11.191406 L 13.046875 10.976562 C 13.246094 11 13.429688 11.039062 13.617188 11.113281 C 13.714844 11.152344 13.804688 11.191406 13.867188 11.234375 C 13.933594 11.269531 14.035156 11.332031 14.089844 11.386719 C 14.367188 11.605469 14.550781 11.902344 14.589844 12.199219 Z M 16.597656 3.433594 C 16.277344 3.382812 15.945312 3.398438 15.632812 3.488281 C 15.5625 3.511719 15.492188 3.539062 15.421875 3.566406 C 15.335938 3.59375 15.28125 3.632812 15.226562 3.664062 C 15.113281 3.738281 15.007812 3.820312 14.910156 3.910156 L 14.773438 4.035156 L 14.535156 3.9375 C 14.234375 3.816406 13.917969 3.746094 13.601562 3.757812 C 13.453125 3.765625 13.300781 3.785156 13.15625 3.816406 C 12.945312 3.867188 12.867188 3.90625 12.71875 3.980469 C 12.191406 4.246094 11.847656 4.765625 11.863281 5.320312 L 11.871094 5.640625 L 11.554688 5.632812 C 11.484375 5.632812 11.40625 5.632812 11.34375 5.644531 C 11.269531 5.65625 11.195312 5.671875 11.121094 5.699219 C 10.980469 5.742188 10.839844 5.8125 10.726562 5.914062 C 10.480469 6.113281 10.339844 6.417969 10.347656 6.738281 C 10.15625 6.441406 10.175781 6.03125 10.394531 5.699219 C 10.507812 5.535156 10.667969 5.390625 10.859375 5.28125 C 10.945312 5.222656 11.09375 5.171875 11.167969 5.148438 C 11.289062 5.109375 11.402344 5.089844 11.519531 5.074219 L 11.210938 5.386719 C 11.023438 4.621094 11.488281 3.769531 12.300781 3.371094 C 12.496094 3.273438 12.707031 3.199219 12.921875 3.152344 C 13.175781 3.101562 13.386719 3.082031 13.621094 3.097656 C 14.066406 3.121094 14.496094 3.257812 14.867188 3.496094 L 14.492188 3.527344 C 14.648438 3.417969 14.824219 3.332031 15.007812 3.273438 C 15.109375 3.238281 15.203125 3.210938 15.285156 3.203125 C 15.363281 3.1875 15.484375 3.171875 15.570312 3.171875 C 15.945312 3.160156 16.320312 3.25 16.597656 3.433594 Z M 16.597656 3.433594 "/>
    <path style=" stroke:none;fill-rule:nonzero;fill:rgb(99.607843%,87.843137%,68.627451%);fill-opacity:1;" d="M 22.097656 19.347656 C 22.097656 17.746094 20.722656 16.445312 19.023438 16.445312 C 17.328125 16.445312 15.953125 17.746094 15.953125 19.347656 C 15.953125 20.953125 17.328125 22.25 19.023438 22.25 C 20.722656 22.25 22.097656 20.953125 22.097656 19.347656 Z M 22.097656 19.347656 "/>
    <path style=" stroke:none;fill-rule:nonzero;fill:rgb(99.607843%,87.843137%,68.627451%);fill-opacity:1;" d="M 16.886719 24.152344 C 16.886719 22.949219 15.855469 21.976562 14.582031 21.976562 C 13.308594 21.976562 12.277344 22.949219 12.277344 24.152344 C 12.277344 25.355469 13.308594 26.328125 14.582031 26.328125 C 15.855469 26.328125 16.886719 25.355469 16.886719 24.152344 Z M 16.886719 24.152344 "/>
    <path style=" stroke:none;fill-rule:nonzero;fill:rgb(99.607843%,87.843137%,68.627451%);fill-opacity:1;" d="M 20.664062 26.152344 C 20.664062 25.351562 19.976562 24.703125 19.128906 24.703125 C 18.277344 24.703125 17.589844 25.351562 17.589844 26.152344 C 17.589844 26.957031 18.277344 27.605469 19.128906 27.605469 C 19.976562 27.605469 20.664062 26.957031 20.664062 26.152344 Z M 20.664062 26.152344 "/>
    <path style=" stroke:none;fill-rule:nonzero;fill:rgb(99.607843%,87.843137%,68.627451%);fill-opacity:1;" d="M 16.785156 29.21875 C 16.785156 28.660156 16.304688 28.203125 15.710938 28.203125 C 15.113281 28.203125 14.632812 28.660156 14.632812 29.21875 C 14.632812 29.78125 15.113281 30.234375 15.710938 30.234375 C 16.304688 30.234375 16.785156 29.78125 16.785156 29.21875 Z M 16.785156 29.21875 "/>
    <use xlink:href="#surface6" mask="url(#mask0)"/>
    <use xlink:href="#surface9" mask="url(#mask1)"/>
  </g>
</svg>