<?xml version="1.0" encoding="UTF-8" standalone="yes"?>
<svg xmlns="http://www.w3.org/2000/svg" xmlns:xlink="http://www.w3.org/1999/xlink" width="48px" height="48px" viewBox="0 0 36 36" version="1.1">
  <g id="surface1">
    <path style=" stroke:none;fill-rule:nonzero;fill:rgb(100%,90.196078%,18.039216%);fill-opacity:1;" d="M 7.261719 4.703125 C 6.890625 4.640625 6.390625 3.71875 5.066406 2.394531 C 3.480469 0.808594 2.375 0.898438 1.636719 1.636719 C 0.898438 2.375 0.808594 3.480469 2.394531 5.066406 C 3.71875 6.390625 4.640625 6.890625 4.703125 7.261719 C 5.03125 9.328125 3.683594 11.242188 4.503906 12.0625 L 12.0625 4.503906 C 11.242188 3.683594 9.328125 5.03125 7.261719 4.703125 Z M 7.261719 4.703125 "/>
    <path style=" stroke:none;fill-rule:nonzero;fill:rgb(70.588235%,84.313725%,93.333333%);fill-opacity:1;" d="M 34.304688 22.257812 C 35.066406 23.019531 35.066406 24.25 34.304688 25.011719 L 25.011719 34.304688 C 24.25 35.066406 23.019531 35.066406 22.257812 34.304688 L 7.203125 19.25 C 6.441406 18.492188 6.441406 17.257812 7.203125 16.496094 L 16.496094 7.203125 C 17.257812 6.445312 18.492188 6.445312 19.25 7.203125 Z M 34.304688 22.257812 "/>
    <path style=" stroke:none;fill-rule:nonzero;fill:rgb(100%,100%,100%);fill-opacity:1;" d="M 31.800781 22.578125 C 32.382812 23.160156 32.382812 24.105469 31.800781 24.6875 L 24.6875 31.800781 C 24.105469 32.382812 23.160156 32.382812 22.578125 31.800781 L 12.277344 21.5 L 30.722656 21.5 Z M 31.800781 22.578125 "/>
    <path style=" stroke:none;fill-rule:nonzero;fill:rgb(12.54902%,56.470588%,73.72549%);fill-opacity:1;" d="M 9.25 18.472656 L 12.816406 14.902344 L 13.78125 15.867188 L 10.210938 19.433594 Z M 11.78125 21.003906 L 15.347656 17.433594 L 16.3125 18.398438 L 12.742188 21.964844 Z M 14.3125 23.535156 L 17.878906 19.964844 L 18.84375 20.929688 L 15.273438 24.496094 Z M 16.84375 26.066406 L 20.410156 22.496094 L 21.375 23.460938 L 17.804688 27.027344 Z M 19.375 28.597656 L 22.945312 25.027344 L 23.90625 25.992188 L 20.339844 29.558594 Z M 21.90625 31.128906 L 25.476562 27.558594 L 26.4375 28.523438 L 22.871094 32.089844 Z M 21.90625 31.128906 "/>
    <path style=" stroke:none;fill-rule:nonzero;fill:rgb(12.54902%,56.470588%,73.72549%);fill-opacity:1;" d="M 3.769531 14.261719 C 2.90625 13.402344 3.53125 12.628906 4.390625 11.765625 L 11.765625 4.390625 C 12.628906 3.53125 13.402344 2.90625 14.261719 3.769531 L 16.160156 5.667969 C 17.023438 6.527344 16.398438 7.300781 15.535156 8.164062 L 8.164062 15.535156 C 7.300781 16.398438 6.527344 17.023438 5.667969 16.160156 Z M 3.769531 14.261719 "/>
    <path style=" stroke:none;fill-rule:nonzero;fill:rgb(3.529412%,34.901961%,44.705882%);fill-opacity:1;" d="M 3.785156 13.191406 L 4.214844 12.757812 L 7.15625 15.699219 L 6.726562 16.128906 Z M 12.894531 4.078125 L 13.324219 3.648438 L 16.265625 6.589844 L 15.835938 7.019531 Z M 11.375 5.597656 L 11.804688 5.164062 L 14.75 8.109375 L 14.320312 8.539062 Z M 9.859375 7.113281 L 10.289062 6.683594 L 13.230469 9.628906 L 12.800781 10.058594 Z M 8.339844 8.632812 L 8.769531 8.203125 L 11.710938 11.144531 L 11.28125 11.574219 Z M 6.824219 10.148438 L 7.253906 9.722656 L 10.191406 12.664062 L 9.761719 13.09375 Z M 5.300781 11.667969 L 5.730469 11.238281 L 8.671875 14.183594 L 8.242188 14.613281 Z M 5.300781 11.667969 "/>
  </g>
</svg>