<?xml version="1.0" encoding="UTF-8" standalone="yes"?>
<svg xmlns="http://www.w3.org/2000/svg" xmlns:xlink="http://www.w3.org/1999/xlink" width="48px" height="48px" viewBox="0 0 36 36" version="1.1">
  <g id="surface1">
    <path style=" stroke:none;fill-rule:nonzero;fill:rgb(100%,61.568627%,15.294118%);fill-opacity:1;" d="M 6.128906 27.410156 C 8.382812 25.152344 8.597656 24.617188 9.984375 26.003906 C 11.371094 27.390625 10.832031 27.605469 8.574219 29.863281 C 6.894531 31.542969 4.765625 31.222656 4.765625 31.222656 C 4.765625 31.222656 4.445312 29.09375 6.128906 27.410156 Z M 6.128906 27.410156 "/>
    <path style=" stroke:none;fill-rule:nonzero;fill:rgb(100%,61.568627%,15.294118%);fill-opacity:1;" d="M 10.414062 29.722656 C 11.289062 27.367188 11.582031 27.054688 10.304688 26.351562 C 9.027344 25.644531 9.03125 26.121094 8.15625 28.476562 C 7.503906 30.230469 8.285156 31.800781 8.285156 31.800781 C 8.285156 31.800781 9.765625 31.480469 10.414062 29.722656 Z M 10.414062 29.722656 "/>
    <path style=" stroke:none;fill-rule:nonzero;fill:rgb(99.215686%,96.078431%,8.627451%);fill-opacity:1;" d="M 9.113281 27.53125 C 9.597656 26.222656 9.597656 25.960938 10.304688 26.351562 C 11.015625 26.742188 10.851562 26.914062 10.363281 28.222656 C 10.003906 29.195312 9.183594 29.375 9.183594 29.375 C 9.183594 29.375 8.75 28.503906 9.113281 27.53125 Z M 9.113281 27.53125 "/>
    <path style=" stroke:none;fill-rule:nonzero;fill:rgb(100%,61.568627%,15.294118%);fill-opacity:1;" d="M 9.636719 25.683594 C 8.933594 24.40625 8.621094 24.699219 6.261719 25.574219 C 4.507812 26.222656 4.1875 27.703125 4.1875 27.703125 C 4.1875 27.703125 5.757812 28.484375 7.511719 27.832031 C 9.867188 26.957031 10.34375 26.960938 9.636719 25.683594 Z M 9.636719 25.683594 "/>
    <path style=" stroke:none;fill-rule:nonzero;fill:rgb(99.215686%,96.078431%,8.627451%);fill-opacity:1;" d="M 8.457031 26.875 C 9.765625 26.390625 10.027344 26.390625 9.636719 25.683594 C 9.246094 24.972656 9.074219 25.136719 7.765625 25.621094 C 6.792969 25.984375 6.613281 26.804688 6.613281 26.804688 C 6.613281 26.804688 7.484375 27.234375 8.457031 26.875 Z M 8.457031 26.875 "/>
    <path style=" stroke:none;fill-rule:nonzero;fill:rgb(99.215686%,96.078431%,8.627451%);fill-opacity:1;" d="M 7.84375 26.785156 C 9.097656 25.53125 9.214844 25.234375 9.984375 26.003906 C 10.753906 26.773438 10.457031 26.890625 9.203125 28.144531 C 8.269531 29.078125 7.085938 28.902344 7.085938 28.902344 C 7.085938 28.902344 6.910156 27.71875 7.84375 26.785156 Z M 7.84375 26.785156 "/>
    <path style=" stroke:none;fill-rule:nonzero;fill:rgb(23.137255%,66.666667%,81.176471%);fill-opacity:1;" d="M 10.417969 21.394531 C 6.902344 15.539062 1.125 17.953125 1.125 17.953125 C 1.125 17.953125 9.398438 9.679688 14.957031 15.234375 Z M 10.417969 21.394531 "/>
    <path style=" stroke:none;fill-rule:nonzero;fill:rgb(25.882353%,54.509804%,75.686275%);fill-opacity:1;" d="M 13.132812 17.058594 L 14.957031 15.238281 C 9.398438 9.679688 1.125 17.953125 1.125 17.953125 C 1.125 17.953125 8.382812 12.742188 13.132812 17.058594 Z M 13.132812 17.058594 "/>
    <path style=" stroke:none;fill-rule:nonzero;fill:rgb(23.137255%,66.666667%,81.176471%);fill-opacity:1;" d="M 14.609375 25.582031 C 20.464844 29.101562 18.046875 34.875 18.046875 34.875 C 18.046875 34.875 26.320312 26.601562 20.765625 21.046875 Z M 14.609375 25.582031 "/>
    <path style=" stroke:none;fill-rule:nonzero;fill:rgb(25.882353%,54.509804%,75.686275%);fill-opacity:1;" d="M 18.941406 22.867188 L 20.765625 21.046875 C 26.320312 26.601562 18.046875 34.875 18.046875 34.875 C 18.046875 34.875 23.257812 27.617188 18.941406 22.867188 Z M 18.941406 22.867188 "/>
    <path style=" stroke:none;fill-rule:nonzero;fill:rgb(77.254902%,81.568627%,84.705882%);fill-opacity:1;" d="M 27.433594 17.367188 C 20.890625 23.910156 13.597656 27.425781 11.078125 24.90625 C 8.558594 22.386719 12.078125 15.097656 18.621094 8.554688 C 26.246094 0.929688 34.765625 1.21875 34.765625 1.21875 C 34.765625 1.21875 35.0625 9.742188 27.433594 17.367188 Z M 27.433594 17.367188 "/>
    <path style=" stroke:none;fill-rule:nonzero;fill:rgb(85.490196%,89.019608%,91.764706%);fill-opacity:1;" d="M 25.78125 15.515625 C 19.238281 22.054688 12.699219 26.324219 11.1875 24.8125 C 9.675781 23.300781 13.945312 16.761719 20.488281 10.222656 C 28.113281 2.59375 34.875 1.125 34.875 1.125 C 34.875 1.125 33.40625 7.886719 25.78125 15.515625 Z M 25.78125 15.515625 "/>
    <path style=" stroke:none;fill-rule:nonzero;fill:rgb(78.823529%,27.843137%,27.843137%);fill-opacity:1;" d="M 13.675781 26.691406 C 13.398438 26.972656 12.964844 26.996094 12.679688 26.714844 L 9.320312 23.351562 C 9.039062 23.070312 9.015625 22.589844 9.296875 22.308594 L 10.316406 21.289062 L 14.695312 25.671875 Z M 13.675781 26.691406 "/>
    <path style=" stroke:none;fill-rule:nonzero;fill:rgb(94.509804%,34.117647%,26.666667%);fill-opacity:1;" d="M 12.71875 25.730469 C 12.4375 26.011719 12.09375 26.125 11.933594 25.96875 L 10.046875 24.078125 C 9.886719 23.921875 9.976562 23.550781 10.257812 23.269531 L 11.273438 22.25 L 13.734375 24.710938 Z M 12.71875 25.730469 "/>
    <path style=" stroke:none;fill-rule:nonzero;fill:rgb(24.313725%,26.27451%,27.843137%);fill-opacity:1;" d="M 11.742188 27.101562 C 11.558594 27.28125 11.207031 27.277344 11.023438 27.09375 L 8.839844 24.910156 C 8.65625 24.726562 8.707031 24.429688 8.890625 24.246094 L 9.550781 23.582031 L 12.40625 26.4375 Z M 11.742188 27.101562 "/>
    <path style=" stroke:none;fill-rule:nonzero;fill:rgb(38.431373%,44.705882%,47.843137%);fill-opacity:1;" d="M 11.308594 26.667969 C 11.125 26.851562 10.828125 26.898438 10.703125 26.773438 L 9.179688 25.25 C 9.050781 25.121094 9.136719 24.863281 9.320312 24.675781 L 9.984375 24.015625 L 11.972656 26.003906 Z M 11.308594 26.667969 "/>
    <path style=" stroke:none;fill-rule:nonzero;fill:rgb(78.823529%,27.843137%,27.843137%);fill-opacity:1;" d="M 34.769531 1.222656 C 34.769531 1.222656 31.707031 1.113281 27.609375 2.671875 L 33.316406 8.378906 C 34.878906 4.28125 34.769531 1.222656 34.769531 1.222656 Z M 34.769531 1.222656 "/>
    <path style=" stroke:none;fill-rule:nonzero;fill:rgb(94.509804%,34.117647%,26.666667%);fill-opacity:1;" d="M 34.769531 1.222656 C 34.769531 1.222656 32.324219 1.726562 28.71875 3.78125 L 32.207031 7.269531 C 34.261719 3.664062 34.769531 1.222656 34.769531 1.222656 Z M 34.769531 1.222656 "/>
    <path style=" stroke:none;fill-rule:nonzero;fill:rgb(92.941176%,95.686275%,97.647059%);fill-opacity:1;" d="M 27.269531 11.535156 C 27.269531 13.085938 26.011719 14.347656 24.457031 14.347656 C 22.902344 14.347656 21.644531 13.085938 21.644531 11.535156 C 21.644531 9.980469 22.902344 8.71875 24.457031 8.71875 C 26.011719 8.71875 27.269531 9.980469 27.269531 11.535156 Z M 27.269531 11.535156 "/>
    <path style=" stroke:none;fill-rule:nonzero;fill:rgb(23.137255%,66.666667%,81.176471%);fill-opacity:1;" d="M 26.332031 11.535156 C 26.332031 12.570312 25.492188 13.410156 24.457031 13.410156 C 23.421875 13.410156 22.582031 12.570312 22.582031 11.535156 C 22.582031 10.5 23.421875 9.660156 24.457031 9.660156 C 25.492188 9.660156 26.332031 10.5 26.332031 11.535156 Z M 26.332031 11.535156 "/>
    <path style=" stroke:none;fill-rule:nonzero;fill:rgb(92.941176%,95.686275%,97.647059%);fill-opacity:1;" d="M 21.640625 17.160156 C 21.640625 18.714844 20.382812 19.972656 18.828125 19.972656 C 17.273438 19.972656 16.015625 18.714844 16.015625 17.160156 C 16.015625 15.605469 17.273438 14.347656 18.828125 14.347656 C 20.382812 14.347656 21.640625 15.605469 21.640625 17.160156 Z M 21.640625 17.160156 "/>
    <path style=" stroke:none;fill-rule:nonzero;fill:rgb(23.137255%,66.666667%,81.176471%);fill-opacity:1;" d="M 20.703125 17.160156 C 20.703125 18.195312 19.863281 19.035156 18.828125 19.035156 C 17.792969 19.035156 16.953125 18.195312 16.953125 17.160156 C 16.953125 16.125 17.792969 15.285156 18.828125 15.285156 C 19.863281 15.285156 20.703125 16.125 20.703125 17.160156 Z M 20.703125 17.160156 "/>
    <path style=" stroke:none;fill-rule:nonzero;fill:rgb(100%,100%,100%);fill-opacity:1;" d="M 27.480469 3.867188 C 27.296875 4.050781 27 4.050781 26.816406 3.867188 C 26.632812 3.683594 26.632812 3.386719 26.816406 3.203125 C 27 3.019531 27.296875 3.019531 27.480469 3.203125 C 27.664062 3.386719 27.664062 3.683594 27.480469 3.867188 Z M 27.480469 3.867188 "/>
    <path style=" stroke:none;fill-rule:nonzero;fill:rgb(100%,100%,100%);fill-opacity:1;" d="M 28.941406 4.863281 C 28.941406 5.121094 28.734375 5.332031 28.472656 5.332031 C 28.214844 5.332031 28.003906 5.121094 28.003906 4.863281 C 28.003906 4.601562 28.214844 4.394531 28.472656 4.394531 C 28.734375 4.394531 28.941406 4.601562 28.941406 4.863281 Z M 28.941406 4.863281 "/>
    <path style=" stroke:none;fill-rule:nonzero;fill:rgb(100%,100%,100%);fill-opacity:1;" d="M 30.269531 6.1875 C 30.269531 6.449219 30.058594 6.65625 29.800781 6.65625 C 29.542969 6.65625 29.332031 6.449219 29.332031 6.1875 C 29.332031 5.929688 29.542969 5.71875 29.800781 5.71875 C 30.058594 5.71875 30.269531 5.929688 30.269531 6.1875 Z M 30.269531 6.1875 "/>
    <path style=" stroke:none;fill-rule:nonzero;fill:rgb(100%,100%,100%);fill-opacity:1;" d="M 31.59375 7.515625 C 31.59375 7.773438 31.386719 7.984375 31.125 7.984375 C 30.867188 7.984375 30.65625 7.773438 30.65625 7.515625 C 30.65625 7.257812 30.867188 7.046875 31.125 7.046875 C 31.386719 7.046875 31.59375 7.257812 31.59375 7.515625 Z M 31.59375 7.515625 "/>
    <path style=" stroke:none;fill-rule:nonzero;fill:rgb(100%,100%,100%);fill-opacity:1;" d="M 32.921875 8.839844 C 32.921875 9.101562 32.710938 9.308594 32.453125 9.308594 C 32.195312 9.308594 31.984375 9.101562 31.984375 8.839844 C 31.984375 8.582031 32.195312 8.371094 32.453125 8.371094 C 32.710938 8.371094 32.921875 8.582031 32.921875 8.839844 Z M 32.921875 8.839844 "/>
  </g>
</svg>