<?xml version="1.0" encoding="UTF-8" standalone="yes"?>
<svg xmlns="http://www.w3.org/2000/svg" xmlns:xlink="http://www.w3.org/1999/xlink" width="48px" height="48px" viewBox="0 0 36 36" version="1.1">
  <g id="surface1">
    <path style=" stroke:none;fill-rule:nonzero;fill:rgb(100%,80.784314%,19.215686%);fill-opacity:1;" d="M 25.851562 11.472656 C 24.699219 11.472656 23.660156 10.902344 23.234375 10.417969 C 22.804688 9.929688 21.769531 9.363281 20.617188 9.363281 L 12.222656 9.363281 C 6.53125 9.363281 2.296875 14.925781 2.296875 24.195312 C 2.296875 25.558594 3.746094 26.242188 4.894531 26.242188 L 16.40625 26.242188 C 17.558594 26.242188 19.113281 25.523438 19.863281 24.640625 C 19.863281 24.640625 22.496094 21.476562 23.417969 20.460938 C 24.71875 19.015625 26.441406 16.21875 28.546875 16.21875 L 31.710938 16.21875 L 31.710938 11.472656 Z M 25.851562 11.472656 "/>
    <path style=" stroke:none;fill-rule:nonzero;fill:rgb(24.313725%,26.27451%,27.843137%);fill-opacity:1;" d="M 18 17.539062 C 18 17.828125 17.761719 18.066406 17.472656 18.066406 L 15.363281 18.066406 C 15.070312 18.066406 14.835938 17.828125 14.835938 17.539062 L 14.835938 10.945312 C 14.835938 10.65625 15.074219 10.417969 15.363281 10.417969 L 17.472656 10.417969 C 17.761719 10.417969 18 10.652344 18 10.945312 Z M 12.726562 10.410156 C 5.171875 10.410156 4.371094 18.066406 4.371094 18.066406 L 12.726562 18.066406 C 13.308594 18.066406 13.78125 17.59375 13.78125 17.011719 L 13.808594 11.464844 C 13.808594 11.464844 13.808594 10.410156 12.726562 10.410156 Z M 12.726562 10.410156 "/>
    <path style=" stroke:none;fill-rule:nonzero;fill:rgb(100%,80.784314%,19.215686%);fill-opacity:1;" d="M 34.054688 8.308594 C 32.988281 8.308594 29.601562 11.472656 29.601562 11.472656 L 29.601562 16.179688 L 31.058594 17.058594 C 31.519531 17.441406 32.050781 17.304688 32.242188 16.753906 C 32.242188 16.753906 34.175781 11.167969 34.824219 9.304688 C 35.011719 8.757812 34.667969 8.308594 34.054688 8.308594 Z M 34.054688 8.308594 "/>
    <path style=" stroke:none;fill-rule:nonzero;fill:rgb(38.431373%,44.705882%,47.843137%);fill-opacity:1;" d="M 20.636719 30.417969 L 17.457031 30.417969 C 17.378906 28.4375 17.023438 26.070312 15.375 24.5625 C 14.832031 24.066406 13.9375 24.789062 14.472656 25.28125 C 15.777344 26.476562 16.105469 28.695312 16.179688 30.417969 L 7.164062 30.417969 C 7.238281 28.695312 7.566406 26.476562 8.867188 25.28125 C 9.40625 24.789062 8.507812 24.066406 7.96875 24.5625 C 6.320312 26.070312 5.964844 28.4375 5.886719 30.417969 L 4.289062 30.417969 C 4.289062 30.417969 2.179688 30.550781 1.652344 28.214844 L 1.125 28.214844 C 1.125 28.214844 1.125 31.773438 4.246094 31.773438 C 4.261719 31.777344 4.273438 31.78125 4.289062 31.78125 L 20.636719 31.78125 C 20.925781 31.78125 21.164062 31.3125 21.164062 31.066406 C 21.164062 30.824219 20.925781 30.417969 20.636719 30.417969 Z M 20.636719 30.417969 "/>
    <path style=" stroke:none;fill-rule:nonzero;fill:rgb(100%,100%,100%);fill-opacity:1;" d="M 20.199219 22.683594 C 20.792969 21.976562 21.386719 21.273438 21.988281 20.570312 L 3.679688 20.570312 C 3.679688 20.570312 3.464844 21.75 3.464844 22.683594 Z M 20.199219 22.683594 "/>
    <path style=" stroke:none;fill-rule:nonzero;fill:rgb(38.431373%,44.705882%,47.843137%);fill-opacity:1;" d="M 32.984375 15.882812 L 30.722656 14.070312 C 30.3125 13.742188 29.703125 13.136719 29.375 12.722656 L 27.566406 10.460938 C 27.234375 10.050781 26.628906 10.050781 26.21875 10.460938 C 25.804688 10.871094 25.804688 11.480469 26.21875 11.808594 L 28.480469 13.621094 C 28.890625 13.949219 29.496094 14.554688 29.828125 14.96875 L 31.636719 17.230469 C 31.96875 17.640625 32.574219 17.640625 32.984375 17.230469 C 33.394531 16.820312 33.394531 16.214844 32.984375 15.882812 Z M 32.984375 15.882812 "/>
    <path style=" stroke:none;fill-rule:nonzero;fill:rgb(69.803922%,75.686275%,75.294118%);fill-opacity:1;" d="M 30.65625 13.871094 C 30.65625 14.453125 30.183594 14.925781 29.601562 14.925781 C 29.019531 14.925781 28.546875 14.453125 28.546875 13.871094 C 28.546875 13.285156 29.019531 12.816406 29.601562 12.816406 C 30.183594 12.816406 30.65625 13.285156 30.65625 13.871094 Z M 30.65625 13.871094 "/>
    <path style=" stroke:none;fill-rule:nonzero;fill:rgb(69.803922%,75.686275%,75.294118%);fill-opacity:1;" d="M 16.121094 8.457031 C 16.046875 8.085938 15.722656 7.78125 15.410156 7.78125 L 13.207031 7.78125 C 12.890625 7.78125 12.570312 8.085938 12.492188 8.457031 L 12.199219 9.363281 L 16.417969 9.363281 Z M 16.121094 8.457031 "/>
    <path style=" stroke:none;fill-rule:nonzero;fill:rgb(38.431373%,44.705882%,47.843137%);fill-opacity:1;" d="M 27.492188 8.226562 C 27.492188 8.855469 27.035156 9.230469 26.476562 9.054688 C 26.476562 9.054688 20.109375 7.078125 14.308594 7.078125 C 7.980469 7.078125 2.132812 9.035156 2.132812 9.035156 C 1.578125 9.21875 1.125 8.855469 1.125 8.226562 C 1.125 7.59375 1.59375 7 2.167969 6.90625 C 2.167969 6.90625 7.980469 5.933594 14.308594 5.933594 C 20.109375 5.933594 26.449219 6.917969 26.449219 6.917969 C 27.023438 7.007812 27.492188 7.59375 27.492188 8.226562 Z M 27.492188 8.226562 "/>
    <path style=" stroke:none;fill-rule:nonzero;fill:rgb(69.803922%,75.686275%,75.294118%);fill-opacity:1;" d="M 13.78125 5.140625 L 14.835938 5.140625 L 14.835938 8.007812 L 13.78125 8.007812 Z M 13.78125 5.140625 "/>
    <path style=" stroke:none;fill-rule:nonzero;fill:rgb(69.803922%,75.686275%,75.294118%);fill-opacity:1;" d="M 15.363281 4.746094 C 15.363281 5.039062 15.125 5.273438 14.835938 5.273438 L 13.78125 5.273438 C 13.488281 5.273438 13.253906 5.039062 13.253906 4.746094 C 13.253906 4.457031 13.488281 4.21875 13.78125 4.21875 L 14.835938 4.21875 C 15.125 4.21875 15.363281 4.457031 15.363281 4.746094 Z M 15.363281 4.746094 "/>
    <path style=" stroke:none;fill-rule:nonzero;fill:rgb(38.431373%,44.705882%,47.843137%);fill-opacity:1;" d="M 15.363281 6.726562 C 15.363281 7.015625 15.125 7.25 14.835938 7.253906 L 13.78125 7.253906 C 13.488281 7.25 13.253906 7.015625 13.253906 6.726562 L 13.253906 6.195312 C 13.253906 5.90625 13.492188 5.667969 13.78125 5.667969 L 14.835938 5.667969 C 15.125 5.671875 15.363281 5.90625 15.363281 6.195312 Z M 15.363281 6.726562 "/>
  </g>
</svg>