<?xml version="1.0" encoding="UTF-8" standalone="yes"?>
<svg xmlns="http://www.w3.org/2000/svg" xmlns:xlink="http://www.w3.org/1999/xlink" width="48px" height="48px" viewBox="0 0 36 36" version="1.1">
  <g id="surface1">
    <path style=" stroke:none;fill-rule:nonzero;fill:rgb(45.882353%,83.921569%,100%);fill-opacity:1;" d="M 6.046875 24.132812 C 5.746094 24.96875 6.003906 25.832031 6.621094 26.058594 C 7.238281 26.285156 7.984375 25.789062 8.285156 24.957031 C 8.640625 23.972656 8.664062 22.625 8.425781 21.0625 C 7.261719 22.085938 6.402344 23.148438 6.046875 24.132812 Z M 7.425781 32.289062 C 7.78125 31.304688 7.804688 29.957031 7.566406 28.398438 C 6.402344 29.421875 5.542969 30.484375 5.1875 31.46875 C 4.886719 32.304688 5.144531 33.167969 5.761719 33.394531 C 6.378906 33.621094 7.125 33.125 7.425781 32.289062 Z M 28.941406 21.0625 C 27.78125 22.085938 26.921875 23.148438 26.566406 24.132812 C 26.265625 24.96875 26.519531 25.832031 27.136719 26.058594 C 27.757812 26.285156 28.503906 25.789062 28.804688 24.957031 C 29.160156 23.972656 29.183594 22.625 28.941406 21.0625 Z M 21.507812 31.46875 C 21.207031 32.304688 21.460938 33.167969 22.082031 33.394531 C 22.699219 33.621094 23.445312 33.125 23.746094 32.289062 C 24.101562 31.304688 24.125 29.957031 23.882812 28.398438 C 22.722656 29.421875 21.863281 30.484375 21.507812 31.46875 Z M 26.359375 31.46875 C 26.058594 32.304688 26.3125 33.167969 26.933594 33.394531 C 27.550781 33.621094 28.296875 33.125 28.597656 32.289062 C 28.953125 31.304688 28.976562 29.957031 28.734375 28.398438 C 27.574219 29.421875 26.714844 30.484375 26.359375 31.46875 Z M 10.449219 31.46875 C 10.144531 32.304688 10.402344 33.167969 11.019531 33.394531 C 11.640625 33.621094 12.382812 33.125 12.6875 32.292969 C 13.039062 31.304688 13.066406 29.957031 12.824219 28.398438 C 11.664062 29.421875 10.800781 30.484375 10.449219 31.46875 Z M 10.449219 31.46875 "/>
    <path style=" stroke:none;fill-rule:nonzero;fill:rgb(100%,80.784314%,19.215686%);fill-opacity:1;" d="M 13.796875 17.964844 L 11.023438 27.03125 L 18.082031 27.03125 L 15.6875 34.875 L 24.976562 23.488281 L 18.296875 23.488281 L 19.933594 17.964844 Z M 13.796875 17.964844 "/>
    <path style=" stroke:none;fill-rule:nonzero;fill:rgb(100%,100%,100%);fill-opacity:1;" d="M 10.234375 18.269531 C 9.773438 18.269531 9.320312 18.195312 8.882812 18.050781 C 7.121094 17.476562 5.925781 15.835938 5.925781 13.984375 C 5.925781 12.746094 6.464844 11.570312 7.402344 10.753906 C 7.644531 10.542969 7.910156 10.363281 8.191406 10.210938 L 8.175781 10.210938 L 8.464844 9.21875 C 9.175781 6.742188 11.480469 5.015625 14.070312 5.015625 C 14.328125 5.015625 14.59375 5.035156 14.902344 5.078125 C 15.140625 5.113281 15.375 5.160156 15.601562 5.222656 L 15.71875 5.015625 C 16.765625 3.144531 18.746094 1.980469 20.894531 1.980469 C 24.160156 1.980469 26.8125 4.621094 26.8125 7.871094 C 26.8125 8.027344 26.804688 8.183594 26.792969 8.335938 L 26.78125 8.453125 C 27.03125 8.546875 27.277344 8.664062 27.515625 8.800781 C 29.09375 9.703125 30.074219 11.390625 30.074219 13.195312 C 30.074219 15.570312 28.449219 17.605469 26.117188 18.136719 C 25.742188 18.222656 25.359375 18.265625 24.972656 18.269531 Z M 10.234375 18.269531 "/>
    <path style=" stroke:none;fill-rule:nonzero;fill:rgb(71.372549%,75.686275%,81.960784%);fill-opacity:1;" d="M 20.894531 2.839844 C 23.6875 2.839844 25.953125 5.089844 25.953125 7.867188 C 25.953125 8.003906 25.941406 8.136719 25.929688 8.269531 C 24.800781 8.351562 23.726562 8.796875 22.867188 9.539062 C 23.753906 9.03125 24.796875 8.859375 25.804688 9.0625 C 26.253906 9.148438 26.6875 9.3125 27.085938 9.542969 C 28.355469 10.269531 29.210938 11.628906 29.210938 13.195312 C 29.210938 15.195312 27.808594 16.871094 25.925781 17.300781 C 25.613281 17.375 25.292969 17.410156 24.972656 17.410156 L 10.234375 17.410156 C 9.855469 17.410156 9.496094 17.347656 9.152344 17.234375 C 7.78125 16.785156 6.789062 15.5 6.789062 13.980469 C 6.789062 12.949219 7.246094 12.027344 7.96875 11.398438 C 8.300781 11.113281 8.683594 10.890625 9.101562 10.746094 C 9.464844 10.617188 9.847656 10.550781 10.234375 10.550781 C 11.347656 10.550781 12.332031 11.078125 12.964844 11.890625 L 12.996094 11.890625 C 12.242188 10.511719 10.855469 9.601562 9.292969 9.453125 C 9.910156 7.328125 11.859375 5.867188 14.070312 5.871094 C 14.3125 5.871094 14.546875 5.894531 14.78125 5.929688 C 15.234375 5.992188 15.675781 6.117188 16.09375 6.300781 C 17.644531 6.988281 18.738281 8.425781 18.988281 10.105469 L 18.988281 10.078125 C 18.988281 8.136719 17.988281 6.429688 16.472656 5.433594 C 17.367188 3.832031 19.058594 2.835938 20.894531 2.839844 M 20.894531 1.125 C 18.570312 1.125 16.410156 2.3125 15.171875 4.253906 L 15.027344 4.230469 C 14.710938 4.183594 14.390625 4.160156 14.070312 4.15625 C 11.101562 4.15625 8.453125 6.140625 7.632812 8.980469 L 7.4375 9.65625 C 7.226562 9.792969 7.023438 9.945312 6.832031 10.109375 C 5.710938 11.082031 5.0625 12.496094 5.0625 13.980469 C 5.0625 16.203125 6.488281 18.164062 8.613281 18.863281 C 9.136719 19.039062 9.683594 19.125 10.234375 19.125 L 24.972656 19.125 C 25.417969 19.125 25.871094 19.074219 26.316406 18.96875 C 29.035156 18.347656 30.9375 15.972656 30.9375 13.195312 C 30.9375 11.082031 29.792969 9.113281 27.945312 8.058594 C 27.859375 8.003906 27.769531 7.957031 27.675781 7.910156 L 27.675781 7.867188 C 27.675781 4.152344 24.632812 1.125 20.894531 1.125 Z M 20.894531 1.125 "/>
  </g>
</svg>