<?xml version="1.0" encoding="UTF-8" standalone="yes"?>
<svg xmlns="http://www.w3.org/2000/svg" xmlns:xlink="http://www.w3.org/1999/xlink" width="48px" height="48px" viewBox="0 0 36 36" version="1.1">
  <g id="surface1">
    <path style=" stroke:none;fill-rule:nonzero;fill:rgb(81.568627%,81.568627%,81.568627%);fill-opacity:1;" d="M 27.511719 25.3125 C 27.511719 30.59375 23.230469 34.875 17.949219 34.875 C 12.667969 34.875 8.386719 30.59375 8.386719 25.3125 C 8.386719 20.03125 12.667969 15.75 17.949219 15.75 C 23.230469 15.75 27.511719 20.03125 27.511719 25.3125 Z M 27.511719 25.3125 "/>
    <path style=" stroke:none;fill-rule:nonzero;fill:rgb(100%,100%,100%);fill-opacity:1;" d="M 17.949219 16.875 C 13.296875 16.875 9.511719 20.660156 9.511719 25.3125 C 9.511719 29.964844 13.296875 33.75 17.949219 33.75 C 22.601562 33.75 26.386719 29.964844 26.386719 25.3125 C 26.386719 20.660156 22.601562 16.875 17.949219 16.875 Z M 17.949219 16.875 "/>
    <path style=" stroke:none;fill-rule:nonzero;fill:rgb(81.568627%,81.568627%,81.568627%);fill-opacity:1;" d="M 25.261719 14.359375 C 25.261719 18.398438 21.988281 21.671875 17.949219 21.671875 C 13.910156 21.671875 10.636719 18.398438 10.636719 14.359375 C 10.636719 10.324219 13.910156 7.046875 17.949219 7.046875 C 21.988281 7.046875 25.261719 10.324219 25.261719 14.359375 Z M 25.261719 14.359375 "/>
    <path style=" stroke:none;fill-rule:nonzero;fill:rgb(100%,100%,100%);fill-opacity:1;" d="M 17.949219 8.171875 C 14.539062 8.171875 11.761719 10.949219 11.761719 14.359375 C 11.761719 17.773438 14.539062 20.546875 17.949219 20.546875 C 21.359375 20.546875 24.136719 17.773438 24.136719 14.359375 C 24.136719 10.949219 21.363281 8.171875 17.949219 8.171875 Z M 17.949219 8.171875 "/>
    <path style=" stroke:none;fill-rule:nonzero;fill:rgb(100%,52.941176%,21.176471%);fill-opacity:1;" d="M 19.355469 14.871094 C 19.355469 15.648438 18.726562 16.277344 17.949219 16.277344 C 17.171875 16.277344 16.542969 15.648438 16.542969 14.871094 C 16.542969 14.09375 17.171875 13.464844 17.949219 13.464844 C 18.726562 13.464844 19.355469 14.09375 19.355469 14.871094 Z M 19.355469 14.871094 "/>
    <path style=" stroke:none;fill-rule:nonzero;fill:rgb(24.313725%,26.27451%,27.843137%);fill-opacity:1;" d="M 16.027344 12.269531 C 16.027344 12.890625 15.523438 13.394531 14.902344 13.394531 C 14.28125 13.394531 13.777344 12.890625 13.777344 12.269531 C 13.777344 11.648438 14.28125 11.144531 14.902344 11.144531 C 15.523438 11.144531 16.027344 11.648438 16.027344 12.269531 Z M 16.027344 12.269531 "/>
    <path style=" stroke:none;fill-rule:nonzero;fill:rgb(24.313725%,26.27451%,27.843137%);fill-opacity:1;" d="M 22.121094 12.269531 C 22.121094 12.890625 21.617188 13.394531 20.996094 13.394531 C 20.375 13.394531 19.871094 12.890625 19.871094 12.269531 C 19.871094 11.648438 20.375 11.144531 20.996094 11.144531 C 21.617188 11.144531 22.121094 11.648438 22.121094 12.269531 Z M 22.121094 12.269531 "/>
    <path style=" stroke:none;fill-rule:nonzero;fill:rgb(58.039216%,59.607843%,60.784314%);fill-opacity:1;" d="M 25.472656 10.566406 C 25.808594 9.847656 23.78125 8.195312 20.941406 6.871094 C 18.105469 5.546875 15.535156 5.058594 15.199219 5.777344 C 14.867188 6.496094 16.894531 8.148438 19.730469 9.472656 C 22.566406 10.792969 25.136719 11.285156 25.472656 10.566406 Z M 25.472656 10.566406 "/>
    <path style=" stroke:none;fill-rule:nonzero;fill:rgb(58.039216%,59.607843%,60.784314%);fill-opacity:1;" d="M 26.519531 4.964844 C 26.773438 4.425781 25.25 3.1875 23.125 2.195312 C 20.996094 1.203125 19.066406 0.835938 18.816406 1.371094 C 18.566406 1.910156 20.085938 3.152344 22.214844 4.144531 C 24.339844 5.136719 26.269531 5.503906 26.519531 4.964844 Z M 26.519531 4.964844 "/>
    <path style=" stroke:none;fill-rule:nonzero;fill:rgb(24.313725%,26.27451%,27.843137%);fill-opacity:1;" d="M 22.214844 4.144531 C 20.21875 3.214844 18.757812 2.066406 18.789062 1.480469 L 17.515625 6.675781 C 17.328125 7.078125 18.46875 8.007812 20.0625 8.753906 C 21.660156 9.496094 23.105469 9.773438 23.292969 9.367188 L 26.453125 5.054688 C 26.03125 5.457031 24.210938 5.074219 22.214844 4.144531 Z M 22.214844 4.144531 "/>
    <path style=" stroke:none;fill-rule:nonzero;fill:rgb(53.72549%,40%,29.803922%);fill-opacity:1;" d="M 34.875 18.769531 L 31.609375 17.820312 L 33.316406 16.011719 C 33.511719 15.808594 33.519531 15.484375 33.316406 15.28125 C 33.121094 15.085938 32.777344 15.074219 32.585938 15.28125 L 30.269531 17.734375 L 30.273438 12.988281 L 29.242188 12.988281 L 29.234375 18.832031 L 26.386719 21.847656 C 26.195312 22.050781 26.183594 22.375 26.386719 22.578125 C 26.582031 22.773438 26.925781 22.78125 27.121094 22.578125 C 28.347656 21.273438 29.582031 19.96875 30.8125 18.664062 L 34.585938 19.761719 Z M 6.765625 18.832031 L 6.757812 12.988281 L 5.726562 12.988281 L 5.730469 17.734375 L 3.414062 15.28125 C 3.222656 15.074219 2.878906 15.085938 2.683594 15.28125 C 2.480469 15.484375 2.488281 15.808594 2.683594 16.011719 L 4.390625 17.820312 L 1.125 18.769531 L 1.414062 19.761719 L 5.1875 18.664062 C 5.410156 18.898438 5.628906 19.132812 5.851562 19.371094 L 8.878906 22.578125 C 9.074219 22.78125 9.417969 22.773438 9.613281 22.578125 C 9.808594 22.375 9.808594 22.050781 9.613281 21.847656 C 8.660156 20.84375 7.714844 19.835938 6.765625 18.832031 Z M 6.765625 18.832031 "/>
    <path style=" stroke:none;fill-rule:nonzero;fill:rgb(24.313725%,26.27451%,27.843137%);fill-opacity:1;" d="M 17.019531 26.050781 L 16.425781 24.234375 L 17.972656 23.113281 L 19.519531 24.234375 L 18.929688 26.050781 Z M 17.019531 26.050781 "/>
    <path style=" stroke:none;fill-rule:nonzero;fill:rgb(24.313725%,26.27451%,27.843137%);fill-opacity:1;" d="M 17.019531 31.558594 L 16.425781 29.742188 L 17.972656 28.621094 L 19.519531 29.742188 L 18.929688 31.558594 Z M 17.019531 31.558594 "/>
    <path style=" stroke:none;fill-rule:nonzero;fill:rgb(24.313725%,26.27451%,27.843137%);fill-opacity:1;" d="M 17.949219 19.097656 C 16.207031 19.09375 14.546875 18.359375 13.367188 17.078125 C 13.15625 16.847656 13.171875 16.492188 13.402344 16.28125 C 13.628906 16.070312 13.984375 16.085938 14.195312 16.316406 C 15.160156 17.367188 16.523438 17.96875 17.949219 17.972656 C 19.375 17.96875 20.738281 17.367188 21.703125 16.316406 C 21.910156 16.085938 22.269531 16.070312 22.496094 16.28125 C 22.726562 16.492188 22.742188 16.847656 22.53125 17.078125 C 21.351562 18.359375 19.691406 19.09375 17.949219 19.097656 Z M 17.949219 19.097656 "/>
  </g>
</svg>