<?xml version="1.0" encoding="UTF-8" standalone="yes"?>
<svg xmlns="http://www.w3.org/2000/svg" xmlns:xlink="http://www.w3.org/1999/xlink" width="48px" height="48px" viewBox="0 0 36 36" version="1.1">
  <g id="surface1">
    <path style=" stroke:none;fill-rule:nonzero;fill:rgb(24.313725%,26.27451%,27.843137%);fill-opacity:1;" d="M 18 1.125 C 17.859375 1.125 17.726562 1.179688 17.625 1.28125 C 17.527344 1.378906 17.472656 1.511719 17.472656 1.652344 L 17.472656 4.289062 L 18.527344 4.289062 L 18.527344 1.652344 C 18.527344 1.511719 18.472656 1.378906 18.371094 1.277344 C 18.273438 1.179688 18.140625 1.125 18 1.125 Z M 18 1.125 "/>
    <path style=" stroke:none;fill-rule:nonzero;fill:rgb(72.156863%,76.078431%,76.862745%);fill-opacity:1;" d="M 17.472656 13.78125 L 18.527344 13.78125 L 18.527344 27.492188 L 17.472656 27.492188 Z M 17.472656 13.78125 "/>
    <path style=" stroke:none;fill-rule:nonzero;fill:rgb(100%,74.509804%,36.078431%);fill-opacity:1;" d="M 18 3.761719 L 18 17.472656 C 19.03125 16.132812 20.628906 15.351562 22.320312 15.355469 C 24.011719 15.351562 25.609375 16.132812 26.640625 17.472656 C 25.816406 9.75 22.34375 3.761719 18 3.761719 Z M 18 3.761719 "/>
    <path style=" stroke:none;fill-rule:nonzero;fill:rgb(92.941176%,46.666667%,65.882353%);fill-opacity:1;" d="M 18 3.761719 L 18 17.472656 C 16.96875 16.132812 15.371094 15.351562 13.679688 15.355469 C 11.988281 15.351562 10.390625 16.132812 9.359375 17.472656 C 10.183594 9.75 13.65625 3.761719 18 3.761719 Z M 18 3.761719 "/>
    <path style=" stroke:none;fill-rule:nonzero;fill:rgb(78.039216%,90.980392%,43.529412%);fill-opacity:1;" d="M 18 3.761719 C 22.34375 3.761719 25.816406 9.75 26.640625 17.472656 C 27.671875 16.132812 29.269531 15.351562 30.960938 15.355469 C 32.433594 15.351562 33.847656 15.945312 34.875 17.003906 C 33.175781 9.429688 26.269531 3.761719 18 3.761719 Z M 18 3.761719 "/>
    <path style=" stroke:none;fill-rule:nonzero;fill:rgb(37.647059%,83.137255%,87.843137%);fill-opacity:1;" d="M 18 3.761719 C 13.65625 3.761719 10.183594 9.75 9.359375 17.472656 C 8.328125 16.132812 6.730469 15.351562 5.042969 15.355469 C 3.566406 15.351562 2.152344 15.945312 1.125 17.003906 C 2.824219 9.429688 9.730469 3.761719 18 3.761719 Z M 18 3.761719 "/>
    <path style=" stroke:none;fill-rule:nonzero;fill:rgb(24.313725%,26.27451%,27.843137%);fill-opacity:1;" d="M 16.945312 27.492188 L 16.945312 30.65625 C 16.945312 31.820312 16 32.765625 14.835938 32.765625 C 13.671875 32.765625 12.726562 31.820312 12.726562 30.65625 C 12.726562 30.074219 12.253906 29.601562 11.671875 29.601562 C 11.089844 29.601562 10.617188 30.074219 10.617188 30.65625 C 10.617188 32.980469 12.507812 34.875 14.835938 34.875 C 17.164062 34.875 19.054688 32.980469 19.054688 30.65625 L 19.054688 27.492188 Z M 16.945312 27.492188 "/>
  </g>
</svg>