<?xml version="1.0" encoding="UTF-8" standalone="yes"?>
<svg xmlns="http://www.w3.org/2000/svg" xmlns:xlink="http://www.w3.org/1999/xlink" width="48px" height="48px" viewBox="0 0 36 36" version="1.1">
  <g id="surface1">
    <path style=" stroke:none;fill-rule:nonzero;fill:rgb(91.372549%,51.764706%,10.196078%);fill-opacity:1;" d="M 34.875 21.140625 C 34.875 30.175781 23.101562 34.875 18 34.875 C 12.898438 34.875 1.125 30.175781 1.125 21.140625 C 1.125 10.523438 8.109375 4.84375 15.785156 6.300781 C 16.722656 6.480469 18.652344 6.699219 19.375 6.503906 C 28.125 4.132812 34.875 10.242188 34.875 21.140625 Z M 34.875 21.140625 "/>
    <path style=" stroke:none;fill-rule:nonzero;fill:rgb(72.941176%,41.960784%,14.117647%);fill-opacity:1;" d="M 10.238281 21.347656 C 10.238281 13.925781 12.914062 10.523438 15.4375 6.820312 C 9.726562 7.917969 4.3125 10.492188 4.3125 20.847656 C 4.3125 28.871094 11.1875 33.539062 15.558594 34.613281 C 12.503906 31.320312 10.238281 26.886719 10.238281 21.347656 Z M 25.636719 21.347656 C 25.636719 13.925781 22.058594 10.769531 19.628906 7.070312 C 25.132812 8.164062 31.351562 10.492188 31.351562 20.84375 C 31.351562 28.871094 24.71875 33.539062 20.5 34.613281 C 23.449219 31.320312 25.636719 26.886719 25.636719 21.347656 Z M 25.636719 21.347656 "/>
    <path style=" stroke:none;fill-rule:nonzero;fill:rgb(72.941176%,41.960784%,14.117647%);fill-opacity:1;" d="M 20.917969 19.675781 C 20.917969 30.996094 18 34.875 18 34.875 C 18 34.875 15.085938 30.996094 15.085938 19.675781 C 15.085938 8.351562 18.101562 5.644531 18.101562 5.644531 C 18.101562 5.644531 20.917969 8.351562 20.917969 19.675781 Z M 20.917969 19.675781 "/>
    <path style=" stroke:none;fill-rule:nonzero;fill:rgb(100%,80.784314%,19.215686%);fill-opacity:1;" d="M 14.460938 16.164062 C 15.0625 19.132812 11.996094 21.578125 11.191406 21.328125 C 8.644531 20.53125 5.21875 15.414062 5.21875 14.425781 C 5.21875 13.589844 11.46875 16.445312 12.105469 16.648438 C 12.976562 16.929688 14.308594 15.414062 14.460938 16.164062 Z M 21.539062 16.164062 C 20.9375 19.132812 24.003906 21.578125 24.808594 21.328125 C 27.359375 20.53125 30.78125 15.414062 30.78125 14.425781 C 30.78125 13.589844 24.53125 16.445312 23.898438 16.648438 C 23.027344 16.929688 21.691406 15.414062 21.539062 16.164062 Z M 21.539062 16.164062 "/>
    <path style=" stroke:none;fill-rule:nonzero;fill:rgb(100%,100%,100%);fill-opacity:1;" d="M 14.460938 16.164062 C 15.0625 19.132812 11.996094 21.578125 11.191406 21.328125 C 8.644531 20.53125 7.046875 16.824219 7.046875 15.839844 C 7.046875 15 11.46875 16.445312 12.105469 16.648438 C 12.976562 16.929688 14.308594 15.414062 14.460938 16.164062 Z M 21.539062 16.164062 C 20.9375 19.132812 24.003906 21.578125 24.808594 21.328125 C 27.359375 20.53125 28.957031 16.824219 28.957031 15.839844 C 28.957031 15 24.53125 16.445312 23.898438 16.648438 C 23.027344 16.929688 21.691406 15.414062 21.539062 16.164062 Z M 21.539062 16.164062 "/>
    <path style=" stroke:none;fill-rule:nonzero;fill:rgb(100%,80.784314%,19.215686%);fill-opacity:1;" d="M 21.214844 21.757812 C 21.214844 23.664062 19.773438 21.953125 18 21.953125 C 16.226562 21.953125 14.789062 23.664062 14.789062 21.757812 C 14.789062 19.855469 17.339844 18.707031 18 18.707031 C 18.660156 18.707031 21.214844 19.855469 21.214844 21.757812 Z M 21.214844 21.757812 "/>
    <path style=" stroke:none;fill-rule:nonzero;fill:rgb(100%,100%,100%);fill-opacity:1;" d="M 20.347656 20.726562 C 20.347656 21.984375 19.296875 20.851562 18 20.851562 C 16.703125 20.851562 15.652344 21.984375 15.652344 20.726562 C 15.652344 19.46875 17.519531 18.707031 18 18.707031 C 18.480469 18.707031 20.347656 19.464844 20.347656 20.726562 Z M 20.347656 20.726562 "/>
    <path style=" stroke:none;fill-rule:nonzero;fill:rgb(100%,80.784314%,19.215686%);fill-opacity:1;" d="M 3.828125 19.976562 L 5.585938 27.15625 L 8.265625 25.972656 L 10.34375 29.632812 L 13.914062 28.3125 L 16.234375 31.019531 L 18.378906 28.449219 L 22.574219 31.4375 L 24.179688 27.617188 L 26.234375 29.632812 L 27.480469 26.4375 L 29.445312 27.546875 L 33.015625 19.976562 L 28.886719 24.703125 L 27.058594 22.804688 L 25.507812 25.707031 L 22.898438 24.304688 L 21.199219 26.742188 L 18.421875 24.65625 L 16.152344 27.761719 L 13.742188 24.519531 L 10.789062 26.226562 L 9.148438 23.082031 L 6.523438 24.472656 Z M 3.828125 19.976562 "/>
    <path style=" stroke:none;fill-rule:nonzero;fill:rgb(100%,100%,100%);fill-opacity:1;" d="M 10.085938 27.25 L 13.554688 26.777344 L 16.152344 29.589844 L 18.582031 27.367188 L 21.996094 29.769531 L 23.578125 26.289062 L 25.933594 26.914062 L 27.058594 22.804688 L 25.507812 25.707031 L 22.898438 24.304688 L 21.199219 26.742188 L 18.421875 24.65625 L 16.152344 27.761719 L 13.742188 24.519531 L 10.789062 26.226562 L 9.148438 23.082031 Z M 10.085938 27.25 "/>
    <path style=" stroke:none;fill-rule:nonzero;fill:rgb(51.372549%,74.901961%,30.980392%);fill-opacity:1;" d="M 13.582031 7.246094 C 13.582031 7.246094 14.46875 7.777344 14.34375 8.472656 C 14.34375 8.472656 17.445312 8.949219 19.742188 8.703125 C 19.742188 8.703125 20.292969 7.042969 19.628906 6.34375 C 19.410156 6.113281 20.039062 3.640625 21.1875 2.980469 C 21.597656 2.746094 18.652344 0.65625 17.804688 1.371094 C 15.394531 3.402344 15.332031 6.371094 15.332031 6.371094 C 14.261719 6.613281 13.582031 7.246094 13.582031 7.246094 Z M 13.582031 7.246094 "/>
    <path style=" stroke:none;fill-rule:nonzero;fill:rgb(41.176471%,58.823529%,20.784314%);fill-opacity:1;" d="M 14.34375 8.472656 C 14.34375 8.472656 15.503906 7.472656 15.335938 6.300781 C 15.335938 6.300781 14.097656 6.695312 13.582031 7.246094 C 13.582031 7.246094 14.328125 7.707031 14.34375 8.472656 Z M 14.34375 8.472656 "/>
    <path style=" stroke:none;fill-rule:nonzero;fill:rgb(45.882353%,65.882353%,26.27451%);fill-opacity:1;" d="M 19.742188 8.703125 C 19.742188 8.703125 17.777344 5.445312 20.003906 2.953125 C 20.304688 2.617188 21.453125 2.789062 21.453125 2.789062 C 20.46875 3.699219 19.582031 5.769531 20.101562 6.246094 C 20.625 6.726562 21.71875 7.339844 22.046875 7.59375 C 22.371094 7.84375 20.507812 7.910156 19.742188 8.703125 Z M 19.742188 8.703125 "/>
    <path style=" stroke:none;fill-rule:nonzero;fill:rgb(67.843137%,91.764706%,45.098039%);fill-opacity:1;" d="M 21.308594 2.976562 C 20.914062 3.214844 19.84375 3.015625 18.914062 2.53125 C 17.988281 2.046875 17.554688 1.460938 17.949219 1.226562 C 18.34375 0.988281 19.414062 1.1875 20.34375 1.671875 C 21.269531 2.15625 21.703125 2.742188 21.308594 2.976562 Z M 21.308594 2.976562 "/>
  </g>
</svg>