<?xml version="1.0" encoding="UTF-8" standalone="yes"?>
<svg xmlns="http://www.w3.org/2000/svg" xmlns:xlink="http://www.w3.org/1999/xlink" width="48px" height="48px" viewBox="0 0 36 36" version="1.1">
  <g id="surface1">
    <path style=" stroke:none;fill-rule:nonzero;fill:rgb(92.941176%,29.803922%,36.078431%);fill-opacity:1;" d="M 29.25 12.683594 C 29.25 19.066406 24.273438 26.390625 18.140625 26.390625 C 12.003906 26.390625 7.027344 19.066406 7.027344 12.683594 C 7.027344 6.300781 12.003906 1.125 18.140625 1.125 C 24.273438 1.125 29.25 6.300781 29.25 12.683594 Z M 29.25 12.683594 "/>
    <path style=" stroke:none;fill-rule:nonzero;fill:rgb(58.039216%,59.607843%,60.784314%);fill-opacity:1;" d="M 17.746094 27.640625 C 17.742188 27.613281 17.738281 27.589844 17.734375 27.566406 C 17.734375 27.582031 17.738281 27.605469 17.746094 27.640625 Z M 17.746094 27.65625 Z M 17.746094 27.65625 "/>
    <path style=" stroke:none;fill-rule:nonzero;fill:rgb(69.803922%,75.686275%,75.294118%);fill-opacity:1;" d="M 18.578125 27.65625 L 17.746094 27.65625 C 17.746094 28.679688 17.542969 29.871094 16.699219 30.570312 C 15.496094 31.5625 13.949219 30.972656 12.550781 30.929688 C 10.851562 30.878906 9.421875 31.601562 8.195312 32.726562 C 7.769531 33.117188 7.292969 33.6875 6.90625 34.117188 C 6.464844 34.609375 7.046875 35.199219 7.503906 34.660156 C 8.371094 33.625 8.949219 32.902344 10.109375 32.246094 C 11.5625 31.421875 12.902344 31.832031 14.476562 31.917969 C 16.28125 32.015625 17.910156 31.15625 18.421875 29.304688 C 18.535156 28.898438 18.578125 28.160156 18.578125 27.65625 Z M 18.578125 27.65625 "/>
    <path style=" stroke:none;fill-rule:nonzero;fill:rgb(58.039216%,59.607843%,60.784314%);fill-opacity:1;" d="M 17.730469 27.566406 C 17.726562 27.523438 17.726562 27.535156 17.730469 27.566406 Z M 17.730469 27.566406 "/>
    <path style=" stroke:none;fill-rule:nonzero;fill:rgb(69.803922%,75.686275%,75.294118%);fill-opacity:1;" d="M 17.324219 27.023438 L 18.953125 27.023438 C 19.136719 27.003906 19.277344 26.851562 19.277344 26.667969 C 19.277344 26.480469 19.136719 26.328125 18.953125 26.308594 L 17.324219 26.308594 C 17.140625 26.328125 17.003906 26.480469 17.003906 26.667969 C 17.003906 26.851562 17.140625 27.003906 17.324219 27.023438 Z M 17.324219 27.023438 "/>
    <path style=" stroke:none;fill-rule:nonzero;fill:rgb(92.941176%,29.803922%,36.078431%);fill-opacity:1;" d="M 16.90625 28.101562 L 19.347656 28.101562 C 19.628906 28.074219 19.839844 27.839844 19.839844 27.5625 C 19.839844 27.28125 19.628906 27.050781 19.347656 27.023438 L 16.90625 27.023438 C 16.628906 27.050781 16.417969 27.28125 16.417969 27.5625 C 16.417969 27.839844 16.628906 28.074219 16.90625 28.101562 Z M 16.90625 28.101562 "/>
  </g>
</svg>