<?xml version="1.0" encoding="UTF-8" standalone="yes"?>
<svg xmlns="http://www.w3.org/2000/svg" xmlns:xlink="http://www.w3.org/1999/xlink" width="48px" height="48px" viewBox="0 0 36 36" version="1.1">
  <g id="surface1">
    <path style=" stroke:none;fill-rule:nonzero;fill:rgb(96.862745%,71.372549%,0%);fill-opacity:1;" d="M 1.125 34.3125 L 5.933594 32.628906 L 2.296875 30.933594 Z M 1.125 34.3125 "/>
    <path style=" stroke:none;fill-rule:nonzero;fill:rgb(100%,86.666667%,49.019608%);fill-opacity:1;" d="M 15.15625 20.472656 L 8.316406 13.597656 L 7.214844 16.773438 Z M 15.15625 20.472656 "/>
    <path style=" stroke:none;fill-rule:nonzero;fill:rgb(96.862745%,71.372549%,0%);fill-opacity:1;" d="M 7.214844 16.773438 L 5.984375 20.316406 L 21.066406 27.339844 L 21.746094 27.101562 L 15.15625 20.472656 Z M 7.214844 16.773438 "/>
    <path style=" stroke:none;fill-rule:nonzero;fill:rgb(100%,86.666667%,49.019608%);fill-opacity:1;" d="M 4.757812 23.855469 L 16.019531 29.105469 L 21.066406 27.339844 L 5.984375 20.316406 Z M 4.757812 23.855469 "/>
    <path style=" stroke:none;fill-rule:nonzero;fill:rgb(96.862745%,71.372549%,0%);fill-opacity:1;" d="M 3.527344 27.394531 L 10.980469 30.867188 L 16.019531 29.105469 L 4.757812 23.855469 Z M 3.527344 27.394531 "/>
    <path style=" stroke:none;fill-rule:nonzero;fill:rgb(100%,86.666667%,49.019608%);fill-opacity:1;" d="M 3.527344 27.394531 L 2.296875 30.933594 L 5.933594 32.628906 L 10.980469 30.867188 Z M 3.527344 27.394531 "/>
    <path style=" stroke:none;fill-rule:nonzero;fill:rgb(28.627451%,21.960784%,8.627451%);fill-opacity:1;" d="M 17.9375 17.550781 C 21.730469 21.285156 23.691406 25.410156 22.3125 26.769531 C 20.933594 28.125 16.738281 26.195312 12.945312 22.460938 C 9.148438 18.730469 7.191406 14.601562 8.570312 13.246094 C 9.949219 11.890625 14.144531 13.816406 17.9375 17.550781 Z M 17.9375 17.550781 "/>
    <path style=" stroke:none;fill-rule:nonzero;fill:rgb(25.882353%,67.843137%,88.627451%);fill-opacity:1;" d="M 13.214844 8.144531 C 12.300781 6.871094 13.292969 6.304688 14.515625 6.53125 C 13.355469 5.101562 14.070312 4.113281 15.898438 4.5 C 16.472656 4.625 15.675781 5.589844 15.164062 5.554688 C 16.703125 6.703125 15.859375 7.921875 14.230469 7.636719 C 15.667969 9.613281 13.195312 9.125 12.113281 9.207031 C 11.828125 10.6875 13.519531 12.375 12.957031 12.375 C 11.695312 12.375 9.691406 7.707031 13.214844 8.144531 Z M 13.214844 8.144531 "/>
    <path style=" stroke:none;fill-rule:nonzero;fill:rgb(100%,52.941176%,21.176471%);fill-opacity:1;" d="M 25.054688 10.875 C 24.226562 11.25 21.847656 7.53125 24.761719 7.5 C 23.085938 5.976562 23.304688 5.246094 25.546875 5.199219 C 22.976562 2.621094 27.042969 1.6875 27.46875 3.070312 C 27.597656 3.480469 26.226562 2.703125 25.777344 3.445312 C 25.261719 4.300781 28.945312 6.460938 25.144531 6.332031 C 26.542969 7.753906 26.625 8.417969 24.398438 8.660156 C 24.6875 9.0625 25.585938 10.636719 25.054688 10.875 Z M 25.054688 10.875 "/>
    <path style=" stroke:none;fill-rule:nonzero;fill:rgb(92.941176%,29.803922%,36.078431%);fill-opacity:1;" d="M 26 19.652344 L 26.855469 18.925781 C 26.855469 18.925781 27.664062 20.09375 28.230469 20.535156 C 28.667969 18.53125 28.550781 17.316406 30.886719 18.703125 C 29.566406 15.21875 31.742188 16.535156 33.796875 17.480469 C 33.679688 16.59375 33.816406 16.6875 34.707031 16.4375 C 35.496094 19.402344 33.371094 18.542969 31.640625 17.570312 C 32.632812 20.242188 31.59375 20.121094 29.429688 19.207031 C 29.390625 20.339844 29.023438 21.625 28.339844 21.734375 C 27.566406 21.859375 26 19.652344 26 19.652344 Z M 26 19.652344 "/>
    <path style=" stroke:none;fill-rule:nonzero;fill:rgb(76.078431%,56.078431%,93.72549%);fill-opacity:1;" d="M 19.695312 11.28125 C 18.65625 12.632812 17.074219 13.386719 15.875 14.570312 C 14.625 15.800781 13.878906 19.1875 13.878906 19.1875 C 13.878906 19.1875 14.324219 15.65625 15.519531 14.296875 C 16.597656 13.066406 18.144531 12.171875 18.980469 10.742188 C 20.472656 8.183594 19.140625 4.761719 17.230469 2.808594 C 17.632812 2.449219 18.164062 2 18.484375 1.6875 C 20.28125 3.992188 21.878906 8.441406 19.695312 11.28125 Z M 19.695312 11.28125 "/>
    <path style=" stroke:none;fill-rule:nonzero;fill:rgb(100%,52.941176%,21.176471%);fill-opacity:1;" d="M 21.421875 14.164062 C 19.9375 15.234375 18.914062 16.785156 17.875 18.265625 C 16.960938 19.570312 14.101562 21.171875 14.101562 21.171875 C 14.101562 21.171875 16.820312 19.339844 17.625 17.964844 C 18.621094 16.273438 19.636719 14.53125 21.210938 13.308594 C 24.363281 10.863281 28.910156 11.136719 32.472656 12.425781 L 31.851562 14.007812 C 31.851562 14.007812 24.425781 12.007812 21.421875 14.164062 Z M 21.421875 14.164062 "/>
    <path style=" stroke:none;fill-rule:nonzero;fill:rgb(25.882353%,67.843137%,88.627451%);fill-opacity:1;" d="M 27.699219 13.902344 C 26.753906 15.15625 26.269531 16.671875 25.542969 18.050781 C 24.867188 19.332031 23.976562 20.574219 22.65625 21.257812 C 21.222656 22 17.972656 21.746094 17.972656 21.746094 C 17.972656 21.746094 21.203125 21.707031 22.53125 20.8125 C 23.890625 19.898438 24.601562 18.351562 25.128906 16.863281 C 26.125 14.074219 27.367188 11.027344 30.300781 9.789062 L 30.890625 11.382812 C 30.890625 11.382812 29.277344 11.8125 27.699219 13.902344 Z M 1.8125 8.023438 L 3.402344 6.433594 L 4.992188 8.023438 L 3.402344 9.617188 Z M 1.8125 8.023438 "/>
    <path style=" stroke:none;fill-rule:nonzero;fill:rgb(100%,52.941176%,21.176471%);fill-opacity:1;" d="M 4.03125 13.046875 L 5.625 11.457031 L 7.214844 13.046875 L 5.621094 14.640625 Z M 4.03125 13.046875 "/>
    <path style=" stroke:none;fill-rule:nonzero;fill:rgb(92.941176%,29.803922%,36.078431%);fill-opacity:1;" d="M 8.09375 5.527344 L 9.6875 3.9375 L 11.277344 5.527344 L 9.6875 7.117188 Z M 8.09375 5.527344 "/>
    <path style=" stroke:none;fill-rule:nonzero;fill:rgb(76.078431%,56.078431%,93.72549%);fill-opacity:1;" d="M 25.414062 24.558594 L 27.007812 22.964844 L 28.597656 24.558594 L 27.007812 26.148438 Z M 25.414062 24.558594 "/>
    <path style=" stroke:none;fill-rule:nonzero;fill:rgb(92.941176%,29.803922%,36.078431%);fill-opacity:1;" d="M 21.867188 30.011719 L 23.460938 28.421875 L 25.050781 30.011719 L 23.460938 31.605469 Z M 21.867188 30.011719 "/>
    <path style=" stroke:none;fill-rule:nonzero;fill:rgb(100%,52.941176%,21.176471%);fill-opacity:1;" d="M 28.847656 31.273438 L 30.4375 29.679688 L 32.03125 31.273438 L 30.4375 32.863281 Z M 28.847656 31.273438 "/>
    <path style=" stroke:none;fill-rule:nonzero;fill:rgb(25.882353%,67.843137%,88.627451%);fill-opacity:1;" d="M 30.4375 24.023438 L 32.03125 22.433594 L 33.621094 24.023438 L 32.03125 25.613281 Z M 27.78125 7.21875 L 29.375 5.625 L 30.964844 7.21875 L 29.375 8.808594 Z M 27.78125 7.21875 "/>
    <path style=" stroke:none;fill-rule:nonzero;fill:rgb(92.941176%,29.803922%,36.078431%);fill-opacity:1;" d="M 10.714844 16.777344 L 12.304688 15.1875 L 13.898438 16.777344 L 12.304688 18.371094 Z M 10.714844 16.777344 "/>
  </g>
</svg>