<?xml version="1.0" encoding="UTF-8" standalone="yes"?>
<svg xmlns="http://www.w3.org/2000/svg" xmlns:xlink="http://www.w3.org/1999/xlink" width="48px" height="48px" viewBox="0 0 36 36" version="1.1">
  <g id="surface1">
    <path style=" stroke:none;fill-rule:nonzero;fill:rgb(72.941176%,79.215686%,82.745098%);fill-opacity:1;" d="M 35.976562 11.996094 L 35.976562 10.914062 C 25.582031 6.523438 15.191406 13.5625 4.796875 12.933594 L 4.796875 8.757812 C 15.1875 8.265625 24.691406 -0.28125 35.976562 3.054688 C 35.894531 2.703125 36.058594 2.351562 35.976562 2 C 24.648438 -1.746094 15.121094 7.542969 4.796875 8.105469 C 1.363281 8.429688 1.632812 8.394531 0 8.578125 L 0 27.125 L 4.796875 27.632812 L 4.796875 27.625 C 14.5 30.960938 27.089844 26.402344 35.976562 33.652344 C 36.050781 33.296875 35.902344 32.945312 35.976562 32.589844 C 27.136719 24.878906 14.53125 30.371094 4.796875 26.929688 L 4.796875 23.699219 C 15.191406 25.546875 25.582031 19.207031 35.976562 24.8125 L 35.976562 23.730469 C 25.582031 17.683594 15.191406 24.925781 4.796875 23.035156 L 4.796875 18.910156 C 15.191406 20.65625 25.582031 11.511719 35.976562 18.40625 L 35.976562 17.320312 C 25.582031 10.523438 15.191406 19.765625 4.796875 18.117188 L 4.796875 13.867188 C 15.191406 14.722656 25.582031 6.976562 35.976562 11.996094 Z M 35.976562 11.996094 "/>
    <path style=" stroke:none;fill-rule:nonzero;fill:rgb(20%,20%,20%);fill-opacity:1;" d="M 22.867188 23.59375 C 25.902344 22.226562 27.925781 18.765625 26.8125 15.617188 C 26.035156 12.695312 22.023438 11.433594 19.410156 12.96875 L 18.851562 11.066406 C 18.824219 10.976562 18.800781 10.890625 18.769531 10.800781 C 18.730469 10.6875 19.292969 10.164062 19.378906 10.0625 C 19.941406 9.410156 20.476562 8.730469 20.976562 8.027344 C 21.84375 6.796875 22.648438 5.304688 22.378906 3.785156 C 22.132812 2.40625 21.007812 1.175781 19.453125 1.125 C 18.117188 1.082031 16.832031 1.84375 16.144531 2.898438 C 15.347656 4.125 15.523438 5.4375 15.945312 6.753906 C 16.203125 7.566406 16.453125 8.382812 16.691406 9.199219 L 16.960938 10.113281 C 16.976562 10.167969 17.042969 10.390625 17.058594 10.386719 C 16.894531 10.691406 16.515625 10.980469 16.273438 11.234375 C 15.339844 12.21875 14.269531 13.132812 13.609375 14.3125 C 12.976562 15.445312 12.6875 16.746094 12.796875 18.019531 C 13.015625 20.570312 14.839844 22.832031 17.375 23.746094 C 18.558594 24.167969 19.824219 24.277344 21.074219 24.101562 C 21.511719 25.496094 21.863281 26.910156 22.300781 28.304688 C 22.675781 29.507812 23.527344 30.960938 23.128906 32.234375 C 22.773438 33.382812 21.488281 34.082031 20.25 33.9375 C 21.6875 33.511719 22.410156 31.90625 21.570312 30.691406 C 20.863281 29.667969 19.269531 29.410156 18.242188 30.148438 C 16.089844 31.695312 18.113281 34.445312 20.234375 34.808594 C 21.605469 35.039062 23.003906 34.492188 23.828125 33.441406 C 24.746094 32.28125 24.640625 31.011719 24.28125 29.679688 C 23.882812 28.207031 23.464844 26.738281 23.03125 25.273438 C 22.941406 24.964844 22.851562 24.652344 22.757812 24.34375 L 22.609375 23.839844 C 22.550781 23.644531 22.6875 23.667969 22.867188 23.59375 C 23.722656 23.207031 22.867188 23.59375 22.867188 23.59375 Z M 25.339844 16.125 C 26.058594 18.574219 24.632812 21.304688 22.152344 22.296875 L 20.3125 16.03125 C 20.164062 15.53125 20.015625 15.027344 19.867188 14.523438 C 19.75 14.125 19.578125 14.011719 20.007812 13.808594 C 22.148438 12.800781 24.714844 13.996094 25.339844 16.125 C 25.339844 16.125 24.875 14.539062 25.339844 16.125 Z M 17.863281 3.191406 C 18.386719 2.722656 19.273438 2.382812 19.972656 2.699219 C 20.664062 3.011719 20.910156 3.820312 20.878906 4.488281 C 20.796875 6.226562 19.375 7.773438 18.257812 9.050781 L 17.503906 6.488281 C 17.171875 5.355469 16.839844 4.101562 17.863281 3.191406 C 18.417969 2.695312 17.117188 3.855469 17.863281 3.191406 Z M 18.085938 13.921875 C 18.1875 14.167969 17.753906 14.59375 17.628906 14.839844 C 17.457031 15.167969 17.332031 15.519531 17.253906 15.882812 C 17.097656 16.628906 17.140625 17.40625 17.382812 18.132812 C 17.460938 18.351562 17.792969 18.390625 17.921875 18.1875 C 18.054688 17.972656 17.847656 17.445312 17.84375 17.195312 C 17.835938 16.46875 18.042969 15.761719 18.441406 15.15625 C 19.179688 17.664062 19.917969 20.171875 20.65625 22.683594 C 18.246094 23 15.800781 21.679688 14.8125 19.601562 C 14.199219 18.316406 14.15625 16.789062 14.738281 15.484375 C 15.332031 14.144531 16.511719 13.132812 17.539062 12.085938 C 17.71875 12.695312 17.855469 13.332031 18.085938 13.921875 C 18.101562 13.957031 18.070312 13.878906 18.085938 13.921875 Z M 18.085938 13.921875 "/>
  </g>
</svg>