<?xml version="1.0" encoding="UTF-8" standalone="yes"?>
<svg xmlns="http://www.w3.org/2000/svg" xmlns:xlink="http://www.w3.org/1999/xlink" width="48px" height="48px" viewBox="0 0 36 36" version="1.1">
  <g id="surface1">
    <path style=" stroke:none;fill-rule:nonzero;fill:rgb(20%,20%,20%);fill-opacity:1;" d="M 29.472656 5.621094 C 29.472656 5.621094 29.394531 4.554688 30.460938 4.089844 C 30.460938 4.089844 30.59375 5.285156 29.472656 5.621094 Z M 29.472656 5.621094 "/>
    <path style=" stroke:none;fill-rule:nonzero;fill:rgb(100%,80.784314%,19.215686%);fill-opacity:1;" d="M 30.304688 4.179688 C 29.445312 3.609375 28.351562 2.875 27.84375 2.519531 C 26.925781 1.871094 24.277344 -0.121094 23.222656 2.273438 C 22.652344 3.570312 21.730469 6.242188 21.265625 7.574219 C 18.441406 15.730469 14.554688 26.429688 13.347656 23.917969 C 11.414062 19.890625 19.242188 15.285156 16.164062 11.570312 L 1.765625 16.621094 C 1.765625 16.621094 5.304688 18.203125 3.726562 20.992188 C -5.460938 37.246094 17.335938 43.097656 22.023438 16.925781 C 23.515625 8.601562 24.613281 3.457031 25.6875 3.457031 C 26.734375 3.457031 28.816406 4.953125 29.550781 5.457031 C 30.273438 4.960938 30.316406 4.398438 30.304688 4.179688 Z M 30.304688 4.179688 "/>
    <path style=" stroke:none;fill-rule:nonzero;fill:rgb(20%,20%,20%);fill-opacity:1;" d="M 22.386719 4.902344 C 21.863281 4.726562 21.238281 5.09375 20.992188 5.722656 C 20.742188 6.351562 20.964844 7 21.488281 7.175781 C 22.011719 7.351562 22.632812 6.984375 22.878906 6.355469 C 23.128906 5.726562 22.90625 5.078125 22.386719 4.902344 Z M 22.386719 4.902344 "/>
    <path style=" stroke:none;fill-rule:nonzero;fill:rgb(94.901961%,69.803922%,0%);fill-opacity:1;" d="M 21.867188 4.40625 C 21.347656 4.230469 20.722656 4.597656 20.476562 5.226562 C 20.230469 5.855469 20.449219 6.507812 20.972656 6.679688 C 21.492188 6.859375 22.117188 6.488281 22.363281 5.863281 C 22.613281 5.234375 22.386719 4.582031 21.867188 4.40625 Z M 21.867188 4.40625 "/>
    <path style=" stroke:none;fill-rule:nonzero;fill:rgb(20%,20%,20%);fill-opacity:1;" d="M 21.597656 7.757812 C 21.074219 7.582031 20.453125 7.949219 20.203125 8.578125 C 19.957031 9.207031 20.179688 9.859375 20.699219 10.035156 C 21.222656 10.210938 21.847656 9.84375 22.09375 9.214844 C 22.339844 8.585938 22.117188 7.933594 21.597656 7.757812 Z M 21.597656 7.757812 "/>
    <path style=" stroke:none;fill-rule:nonzero;fill:rgb(94.901961%,69.803922%,0%);fill-opacity:1;" d="M 21.082031 7.265625 C 20.558594 7.089844 19.9375 7.457031 19.6875 8.085938 C 19.441406 8.710938 19.664062 9.363281 20.183594 9.539062 C 20.707031 9.714844 21.328125 9.347656 21.578125 8.71875 C 21.824219 8.089844 21.601562 7.441406 21.082031 7.265625 Z M 21.082031 7.265625 "/>
    <path style=" stroke:none;fill-rule:nonzero;fill:rgb(20%,20%,20%);fill-opacity:1;" d="M 18.988281 15.566406 C 18.46875 15.390625 17.84375 15.753906 17.597656 16.382812 C 17.347656 17.011719 17.570312 17.664062 18.09375 17.839844 C 18.613281 18.015625 19.238281 17.648438 19.484375 17.019531 C 19.734375 16.390625 19.511719 15.738281 18.988281 15.566406 Z M 18.988281 15.566406 "/>
    <path style=" stroke:none;fill-rule:nonzero;fill:rgb(94.901961%,69.803922%,0%);fill-opacity:1;" d="M 18.472656 15.070312 C 17.953125 14.894531 17.328125 15.261719 17.082031 15.890625 C 16.832031 16.519531 17.054688 17.171875 17.578125 17.34375 C 18.097656 17.519531 18.722656 17.152344 18.96875 16.527344 C 19.214844 15.898438 18.992188 15.246094 18.472656 15.070312 Z M 18.472656 15.070312 "/>
    <path style=" stroke:none;fill-rule:nonzero;fill:rgb(20%,20%,20%);fill-opacity:1;" d="M 17.6875 18.539062 C 17.164062 18.363281 16.539062 18.730469 16.292969 19.359375 C 16.046875 19.988281 16.265625 20.636719 16.789062 20.8125 C 17.3125 20.988281 17.933594 20.621094 18.183594 19.992188 C 18.429688 19.363281 18.207031 18.714844 17.6875 18.539062 Z M 17.6875 18.539062 "/>
    <path style=" stroke:none;fill-rule:nonzero;fill:rgb(94.901961%,69.803922%,0%);fill-opacity:1;" d="M 17.167969 18.042969 C 16.648438 17.867188 16.023438 18.234375 15.777344 18.863281 C 15.53125 19.492188 15.75 20.144531 16.273438 20.316406 C 16.792969 20.492188 17.417969 20.125 17.664062 19.5 C 17.914062 18.871094 17.691406 18.21875 17.167969 18.042969 Z M 17.167969 18.042969 "/>
    <path style=" stroke:none;fill-rule:nonzero;fill:rgb(20%,20%,20%);fill-opacity:1;" d="M 16.382812 21.394531 C 15.859375 21.21875 15.238281 21.585938 14.988281 22.214844 C 14.742188 22.84375 14.964844 23.496094 15.484375 23.671875 C 16.007812 23.847656 16.628906 23.480469 16.878906 22.851562 C 17.125 22.222656 16.902344 21.570312 16.382812 21.394531 Z M 16.382812 21.394531 "/>
    <path style=" stroke:none;fill-rule:nonzero;fill:rgb(94.901961%,69.803922%,0%);fill-opacity:1;" d="M 15.863281 20.898438 C 15.34375 20.726562 14.71875 21.09375 14.472656 21.722656 C 14.226562 22.347656 14.445312 23 14.96875 23.175781 C 15.492188 23.351562 16.113281 22.984375 16.363281 22.355469 C 16.609375 21.726562 16.386719 21.078125 15.863281 20.898438 Z M 30.460938 4.089844 C 30.460938 4.789062 30.050781 5.386719 29.472656 5.621094 C 29.648438 5.917969 30.527344 7.308594 31.898438 7.699219 C 31.898438 7.699219 32.789062 6.769531 34.089844 7.207031 C 34.308594 7.28125 35.128906 7.660156 34.796875 7.273438 C 32.609375 4.730469 30.460938 4.089844 30.460938 4.089844 Z M 16.164062 11.570312 C 16.667969 12.722656 13.71875 14.671875 9.582031 15.929688 C 5.445312 17.183594 1.683594 17.265625 1.179688 16.113281 C 0.675781 14.960938 3.625 13.011719 7.761719 11.753906 C 11.898438 10.5 15.660156 10.417969 16.164062 11.570312 Z M 16.164062 11.570312 "/>
    <path style=" stroke:none;fill-rule:nonzero;fill:rgb(20%,20%,20%);fill-opacity:1;" d="M 15.414062 11.707031 C 15.824219 12.640625 13.097656 14.328125 9.324219 15.472656 C 5.550781 16.617188 2.160156 16.785156 1.75 15.851562 C 1.34375 14.914062 4.070312 13.230469 7.84375 12.085938 C 11.617188 10.941406 15.007812 10.773438 15.414062 11.707031 Z M 15.414062 11.707031 "/>
    <path style="fill:none;stroke-width:2;stroke-linecap:round;stroke-linejoin:miter;stroke:rgb(80.784314%,60%,8.235294%);stroke-opacity:1;stroke-miterlimit:10;" d="M 43.541667 11.340278 C 42.270833 17.909722 39.340278 49.034722 27.458333 56.513889 " transform="matrix(0.5625,0,0,0.5625,0,0)"/>
    <path style="fill:none;stroke-width:2;stroke-linecap:round;stroke-linejoin:miter;stroke:rgb(88.627451%,68.627451%,13.72549%);stroke-opacity:1;stroke-miterlimit:10;" d="M 42.5 9.416667 C 41.229167 15.986111 37.3125 49.034722 25.430556 56.513889 " transform="matrix(0.5625,0,0,0.5625,0,0)"/>
  </g>
</svg>