<?xml version="1.0" encoding="UTF-8" standalone="yes"?>
<svg xmlns="http://www.w3.org/2000/svg" xmlns:xlink="http://www.w3.org/1999/xlink" width="48px" height="48px" viewBox="0 0 36 36" version="1.1">
  <g id="surface1">
    <path style=" stroke:none;fill-rule:nonzero;fill:rgb(94.901961%,69.803922%,0%);fill-opacity:1;" d="M 7.921875 25.628906 L 8.949219 24.625 L 3.261719 19.066406 L 2.234375 20.070312 Z M 10.660156 22.953125 L 11.6875 21.949219 L 6 16.390625 L 4.972656 17.394531 Z M 7.710938 14.71875 L 13.398438 20.273438 L 14.425781 19.273438 L 8.738281 13.714844 Z M 7.710938 14.71875 "/>
    <path style=" stroke:none;fill-rule:nonzero;fill:rgb(94.901961%,69.803922%,0%);fill-opacity:1;" d="M 18.410156 32.867188 L 10.613281 25.25 L 8.5625 27.257812 L 16.355469 34.875 Z M 21.148438 30.191406 L 13.355469 22.574219 L 11.300781 24.578125 L 19.09375 32.199219 Z M 23.886719 27.515625 L 16.09375 19.898438 L 14.039062 21.902344 L 21.832031 29.523438 Z M 23.886719 27.515625 "/>
    <path style=" stroke:none;fill-rule:nonzero;fill:rgb(100%,80.784314%,19.215686%);fill-opacity:1;" d="M 10.613281 25.25 L 5.683594 20.429688 L 3.628906 22.4375 L 8.5625 27.257812 Z M 8.445312 17.773438 L 6.386719 19.78125 L 11.300781 24.578125 L 13.355469 22.574219 Z M 11.160156 15.078125 L 9.105469 17.085938 L 14.039062 21.902344 L 16.09375 19.898438 Z M 11.160156 15.078125 "/>
    <path style=" stroke:none;fill-rule:nonzero;fill:rgb(100%,80.784314%,19.215686%);fill-opacity:1;" d="M 4.371094 19.148438 L 2.316406 21.152344 L 1.125 19.988281 L 3.179688 17.980469 Z M 7.109375 16.46875 L 5.054688 18.476562 L 3.863281 17.3125 L 5.917969 15.304688 Z M 9.851562 13.796875 L 7.792969 15.800781 L 6.601562 14.636719 L 8.65625 12.625 Z M 9.851562 13.796875 "/>
    <path style=" stroke:none;fill-rule:nonzero;fill:rgb(100%,80.784314%,19.215686%);fill-opacity:1;" d="M 22.121094 26.992188 L 15.820312 33.148438 C 13.691406 35.230469 10.226562 35.230469 8.097656 33.148438 C 7.078125 32.160156 6.5 30.796875 6.5 29.375 C 6.5 27.953125 7.078125 26.59375 8.097656 25.601562 L 14.398438 19.445312 C 16.527344 17.363281 19.992188 17.363281 22.121094 19.445312 C 23.140625 20.433594 23.71875 21.796875 23.71875 23.21875 C 23.71875 24.640625 23.140625 26 22.121094 26.992188 Z M 9.871094 27.335938 C 9.320312 27.871094 9.007812 28.605469 9.007812 29.375 C 9.007812 30.144531 9.316406 30.882812 9.871094 31.417969 C 11.019531 32.542969 12.894531 32.542969 14.046875 31.417969 L 20.347656 25.257812 C 20.902344 24.722656 21.210938 23.984375 21.210938 23.21875 C 21.210938 22.449219 20.898438 21.710938 20.347656 21.175781 C 19.195312 20.050781 17.324219 20.050781 16.171875 21.175781 Z M 9.871094 27.335938 "/>
    <path style=" stroke:none;fill-rule:nonzero;fill:rgb(100%,80.784314%,19.215686%);fill-opacity:1;" d="M 14.804688 18.375 L 4.726562 28.222656 C 3.746094 29.183594 3.796875 30.007812 3.796875 30.007812 L 5.296875 31.472656 C 5.296875 31.472656 6.140625 31.523438 7.121094 30.566406 L 17.199219 20.714844 C 22.925781 15.117188 34.453125 18.78125 34.453125 18.78125 L 16.765625 1.699219 C 16.765625 1.699219 20.53125 12.773438 14.804688 18.375 Z M 14.804688 18.375 "/>
    <path style=" stroke:none;fill-rule:nonzero;fill:rgb(94.901961%,69.803922%,0%);fill-opacity:1;" d="M 5.15625 30.40625 C 5.15625 30.40625 6.15625 30.582031 7.140625 29.621094 C 8.601562 28.195312 13 24.140625 17.351562 19.886719 C 23.078125 14.285156 34.414062 17.917969 34.414062 17.917969 C 34.414062 17.917969 25.289062 10.726562 17.125 18.707031 Z M 1.980469 30.910156 L 4.375 33.25 C 5.339844 32.296875 5.285156 31.480469 5.285156 31.480469 L 3.789062 30.015625 C 3.789062 30.015625 2.953125 29.964844 1.980469 30.910156 Z M 1.980469 30.910156 "/>
    <path style=" stroke:none;fill-rule:nonzero;fill:rgb(94.901961%,69.803922%,0%);fill-opacity:1;" d="M 16.960938 1.316406 C 15.882812 2.367188 18.976562 7.097656 23.871094 11.878906 C 28.765625 16.664062 33.605469 19.6875 34.679688 18.636719 C 35.757812 17.585938 32.25 13.257812 27.355469 8.476562 C 22.460938 3.691406 18.035156 0.265625 16.960938 1.316406 Z M 16.960938 1.316406 "/>
    <path style=" stroke:none;fill-rule:nonzero;fill:rgb(20%,20%,20%);fill-opacity:1;" d="M 24.203125 11.558594 C 28.605469 15.863281 32.898438 18.644531 33.792969 17.773438 C 34.6875 16.898438 31.433594 13.101562 27.027344 8.796875 C 22.625 4.492188 18.738281 1.308594 17.847656 2.183594 C 16.949219 3.054688 19.796875 7.253906 24.203125 11.558594 Z M 24.203125 11.558594 "/>
  </g>
</svg>