<?xml version="1.0" encoding="UTF-8" standalone="yes"?>
<svg xmlns="http://www.w3.org/2000/svg" xmlns:xlink="http://www.w3.org/1999/xlink" width="48px" height="48px" viewBox="0 0 36 36" version="1.1">
  <g id="surface1">
    <path style=" stroke:none;fill-rule:nonzero;fill:rgb(38.039216%,39.215686%,40%);fill-opacity:1;" d="M 15.75 32.625 C 15.75 33.867188 16.757812 34.875 18 34.875 C 19.242188 34.875 20.25 33.867188 20.25 32.625 Z M 15.75 32.625 "/>
    <path style=" stroke:none;fill-rule:nonzero;fill:rgb(100%,80.784314%,19.215686%);fill-opacity:1;" d="M 14.027344 27 L 21.972656 27 C 22.445312 24.574219 23.949219 22.214844 25.523438 19.746094 C 27.355469 16.875 29.25 13.902344 29.25 11.015625 C 29.25 5.5625 24.203125 1.125 18 1.125 C 11.796875 1.125 6.75 5.5625 6.75 11.015625 C 6.75 13.902344 8.644531 16.875 10.472656 19.746094 C 12.050781 22.214844 13.558594 24.574219 14.027344 27 Z M 14.027344 27 "/>
    <path style=" stroke:none;fill-rule:nonzero;fill:rgb(78.039216%,56.862745%,15.294118%);fill-opacity:1;" d="M 14.878906 18.898438 C 14.957031 19.234375 15.03125 19.570312 15.117188 19.894531 L 15.550781 21.675781 C 16.066406 23.789062 16.523438 25.605469 16.882812 27 L 17.21875 27 C 16.835938 25.191406 16.441406 23.386719 16.035156 21.585938 L 15.628906 19.796875 C 15.554688 19.496094 15.492188 19.191406 15.421875 18.878906 C 15.890625 18.777344 16.914062 18.425781 18 17.253906 C 19.085938 18.425781 20.109375 18.777344 20.578125 18.878906 C 20.507812 19.191406 20.445312 19.496094 20.371094 19.796875 L 19.96875 21.585938 C 19.558594 23.386719 19.164062 25.191406 18.78125 27 L 19.117188 27 C 19.574219 25.230469 20.019531 23.453125 20.453125 21.675781 C 20.589844 21.101562 20.734375 20.507812 20.886719 19.894531 C 20.96875 19.570312 21.042969 19.230469 21.125 18.898438 C 21.546875 18.867188 21.957031 18.734375 22.273438 18.445312 C 22.597656 18.125 22.769531 17.707031 22.691406 17.257812 C 22.65625 17.046875 22.496094 16.769531 22.1875 16.675781 C 22.035156 16.625 21.871094 16.621094 21.71875 16.664062 C 21.589844 16.710938 21.476562 16.789062 21.382812 16.886719 C 21.082031 17.21875 20.972656 17.550781 20.851562 17.882812 C 20.796875 18.046875 20.746094 18.210938 20.703125 18.375 C 20.703125 18.375 20.222656 18.414062 19.203125 17.726562 C 18.632812 17.34375 18.46875 17.066406 18.304688 16.886719 C 18.480469 16.6875 18.652344 16.472656 18.785156 16.207031 C 18.855469 16.0625 18.914062 15.902344 18.933594 15.722656 C 18.957031 15.53125 18.914062 15.335938 18.820312 15.167969 C 18.710938 14.972656 18.539062 14.824219 18.332031 14.742188 C 18.230469 14.703125 18.117188 14.6875 18 14.6875 C 17.886719 14.6875 17.773438 14.703125 17.671875 14.742188 C 17.464844 14.824219 17.292969 14.972656 17.183594 15.167969 C 17.082031 15.34375 17.046875 15.546875 17.066406 15.722656 C 17.089844 15.902344 17.148438 16.0625 17.21875 16.207031 C 17.351562 16.472656 17.519531 16.6875 17.699219 16.886719 C 17.535156 17.066406 17.367188 17.34375 16.800781 17.726562 C 15.777344 18.414062 15.300781 18.375 15.300781 18.375 C 15.257812 18.210938 15.207031 18.046875 15.152344 17.882812 C 15.027344 17.550781 14.921875 17.21875 14.621094 16.886719 C 14.527344 16.789062 14.410156 16.710938 14.285156 16.664062 C 14.128906 16.621094 13.96875 16.625 13.816406 16.675781 C 13.503906 16.769531 13.34375 17.046875 13.3125 17.257812 C 13.234375 17.707031 13.40625 18.125 13.730469 18.445312 C 14.046875 18.734375 14.453125 18.867188 14.878906 18.898438 Z M 21.367188 18.027344 C 21.476562 17.734375 21.609375 17.410156 21.796875 17.21875 C 21.839844 17.167969 21.882812 17.148438 21.90625 17.136719 C 21.90625 17.136719 21.960938 17.128906 21.996094 17.144531 C 22.058594 17.160156 22.117188 17.226562 22.140625 17.351562 C 22.1875 17.589844 22.074219 17.902344 21.867188 18.09375 C 21.722656 18.234375 21.496094 18.328125 21.261719 18.375 C 21.296875 18.257812 21.328125 18.140625 21.367188 18.027344 Z M 17.660156 15.382812 C 17.753906 15.242188 17.875 15.164062 18 15.164062 C 18.125 15.164062 18.246094 15.242188 18.339844 15.382812 C 18.449219 15.558594 18.410156 15.792969 18.304688 16.027344 C 18.226562 16.191406 18.117188 16.347656 18 16.5 C 17.882812 16.351562 17.78125 16.195312 17.695312 16.027344 C 17.589844 15.792969 17.550781 15.558594 17.660156 15.382812 Z M 13.859375 17.351562 C 13.882812 17.226562 13.941406 17.160156 14.003906 17.144531 C 14.039062 17.128906 14.09375 17.136719 14.09375 17.136719 C 14.117188 17.148438 14.160156 17.167969 14.203125 17.21875 C 14.390625 17.410156 14.523438 17.734375 14.632812 18.027344 C 14.671875 18.140625 14.703125 18.257812 14.738281 18.375 C 14.503906 18.328125 14.277344 18.234375 14.132812 18.09375 C 13.925781 17.902344 13.8125 17.589844 13.859375 17.351562 Z M 13.859375 17.351562 "/>
    <path style=" stroke:none;fill-rule:nonzero;fill:rgb(58.039216%,59.607843%,60.784314%);fill-opacity:1;" d="M 13.980469 28.101562 L 22.042969 28.101562 L 22.042969 29.136719 L 13.980469 29.136719 Z M 14.542969 30.171875 L 21.480469 30.171875 L 21.480469 31.207031 L 14.542969 31.207031 Z M 14.542969 30.171875 "/>
    <path style=" stroke:none;fill-rule:nonzero;fill:rgb(38.039216%,39.215686%,40%);fill-opacity:1;" d="M 14.542969 29.136719 L 21.480469 29.136719 L 21.480469 30.171875 L 14.542969 30.171875 Z M 14.542969 29.136719 "/>
    <path style=" stroke:none;fill-rule:nonzero;fill:rgb(58.039216%,59.607843%,60.784314%);fill-opacity:1;" d="M 22.042969 28.101562 L 14.542969 30.171875 L 14.542969 31.207031 L 22.042969 29.136719 Z M 15.105469 32.242188 L 20.917969 32.242188 L 20.917969 33.277344 L 15.105469 33.277344 Z M 15.105469 32.242188 "/>
    <path style=" stroke:none;fill-rule:nonzero;fill:rgb(38.039216%,39.215686%,40%);fill-opacity:1;" d="M 15.105469 31.207031 L 20.917969 31.207031 L 20.917969 32.242188 L 15.105469 32.242188 Z M 15.105469 31.207031 "/>
    <path style=" stroke:none;fill-rule:nonzero;fill:rgb(58.039216%,59.607843%,60.784314%);fill-opacity:1;" d="M 21.480469 30.171875 L 15.105469 32.242188 L 15.105469 33.277344 L 21.480469 31.207031 Z M 21.480469 30.171875 "/>
  </g>
</svg>