<?xml version="1.0" encoding="UTF-8" standalone="yes"?>
<svg xmlns="http://www.w3.org/2000/svg" xmlns:xlink="http://www.w3.org/1999/xlink" width="48px" height="48px" viewBox="0 0 36 36" version="1.1">
  <defs>
    <filter id="alpha" filterUnits="objectBoundingBox" x="0%" y="0%" width="100%" height="100%">
      <feColorMatrix type="matrix" in="SourceGraphic" values="0 0 0 0 1 0 0 0 0 1 0 0 0 0 1 0 0 0 1 0"/>
    </filter>
    <mask id="mask0">
      <g filter="url(#alpha)">
        <rect x="0" y="0" width="36" height="36" style="fill:rgb(0%,0%,0%);fill-opacity:0.501961;stroke:none;"/>
      </g>
    </mask>
    <clipPath id="clip1">
      <rect width="36" height="36"/>
    </clipPath>
    <g id="surface6" clip-path="url(#clip1)">
      <path style=" stroke:none;fill-rule:nonzero;fill:rgb(53.72549%,40%,29.803922%);fill-opacity:1;" d="M 30.375 26.375 C 30.375 24.058594 29.734375 21.25 28.628906 18.550781 C 28.835938 20.304688 28.390625 23.414062 23.0625 24.542969 C 15.46875 26.15625 19.390625 28.339844 16.445312 28.585938 C 13.902344 28.792969 7.175781 27.773438 5.824219 23.96875 C 5.695312 24.808594 5.625 25.617188 5.625 26.375 C 5.625 33.207031 11.164062 33.1875 18 33.1875 C 24.835938 33.1875 30.375 33.207031 30.375 26.375 Z M 30.375 26.375 "/>
    </g>
  </defs>
  <g id="surface1">
    <path style=" stroke:none;fill-rule:nonzero;fill:rgb(85.882353%,70.588235%,44.313725%);fill-opacity:1;" d="M 30.375 26.375 C 30.375 33.207031 24.835938 33.1875 18 33.1875 C 11.164062 33.1875 5.625 33.207031 5.625 26.375 C 5.625 19.539062 11.164062 8.4375 18 8.4375 C 24.835938 8.4375 30.375 19.539062 30.375 26.375 Z M 30.375 26.375 "/>
    <path style=" stroke:none;fill-rule:nonzero;fill:rgb(53.72549%,40%,29.803922%);fill-opacity:1;" d="M 21.328125 23.128906 C 21.082031 22 20.125 21.683594 19.136719 21.632812 C 19.132812 21.101562 19.132812 20.574219 19.136719 20.042969 C 19.441406 20.175781 19.734375 20.328125 19.996094 20.492188 C 20.464844 20.78125 20.886719 20.03125 20.421875 19.742188 C 20.019531 19.492188 19.589844 19.285156 19.140625 19.132812 C 19.148438 18.519531 19.152344 17.90625 19.152344 17.296875 C 19.152344 16.734375 18.304688 16.734375 18.304688 17.296875 C 18.304688 17.832031 18.300781 18.371094 18.296875 18.90625 C 17.847656 18.832031 17.386719 18.824219 16.933594 18.886719 C 16.859375 18.480469 16.773438 18.082031 16.667969 17.683594 C 16.527344 17.144531 15.710938 17.375 15.851562 17.914062 C 15.957031 18.304688 16.039062 18.691406 16.109375 19.085938 C 16.074219 19.097656 16.035156 19.105469 16 19.121094 C 14.855469 19.566406 14.15625 20.707031 14.992188 21.769531 C 15.382812 22.261719 15.894531 22.460938 16.453125 22.53125 C 16.484375 23.261719 16.503906 23.996094 16.527344 24.730469 C 16.152344 24.488281 15.808594 24.183594 15.5 23.859375 C 15.117188 23.460938 14.523438 24.074219 14.902344 24.472656 C 15.421875 25.015625 15.96875 25.425781 16.558594 25.691406 C 16.582031 26.316406 16.625 26.941406 16.683594 27.566406 C 16.738281 28.117188 17.585938 28.121094 17.53125 27.566406 C 17.480469 27.027344 17.441406 26.488281 17.414062 25.945312 C 17.75 26.003906 18.09375 26.015625 18.433594 25.980469 C 18.472656 26.558594 18.519531 27.132812 18.585938 27.710938 C 18.652344 28.261719 19.496094 28.265625 19.433594 27.710938 C 19.363281 27.082031 19.308594 26.453125 19.269531 25.824219 C 20.464844 25.460938 21.625 24.503906 21.328125 23.128906 Z M 18.292969 19.769531 C 18.289062 20.390625 18.289062 21.015625 18.289062 21.636719 C 18.019531 21.652344 17.761719 21.675781 17.535156 21.699219 C 17.441406 21.703125 17.347656 21.707031 17.253906 21.710938 C 17.214844 21.039062 17.152344 20.371094 17.0625 19.707031 C 17.472656 19.652344 17.890625 19.671875 18.292969 19.769531 Z M 16.246094 21.558594 C 16 21.476562 15.777344 21.339844 15.59375 21.152344 C 15.066406 20.667969 15.792969 20.191406 16.246094 19.964844 C 16.320312 20.507812 16.367188 21.054688 16.40625 21.601562 C 16.351562 21.589844 16.300781 21.578125 16.246094 21.558594 Z M 18.136719 25.164062 C 17.882812 25.195312 17.628906 25.175781 17.378906 25.113281 C 17.351562 24.261719 17.328125 23.40625 17.296875 22.550781 C 17.628906 22.539062 17.96875 22.503906 18.292969 22.480469 C 18.304688 23.363281 18.328125 24.246094 18.375 25.128906 C 18.296875 25.144531 18.21875 25.160156 18.136719 25.164062 Z M 19.964844 24.519531 C 19.734375 24.691406 19.484375 24.828125 19.214844 24.921875 C 19.171875 24.101562 19.148438 23.28125 19.140625 22.457031 C 19.242188 22.460938 19.34375 22.472656 19.4375 22.484375 C 20.53125 22.648438 20.816406 23.847656 19.964844 24.519531 Z M 19.964844 24.519531 "/>
    <path style=" stroke:none;fill-rule:nonzero;fill:rgb(41.176471%,58.823529%,20.784314%);fill-opacity:1;" d="M 19.113281 30.949219 L 17.835938 30.949219 L 17.835938 33.1875 L 23.0625 36 L 34.875 32.34375 L 34.875 30.386719 L 30.5625 27.84375 Z M 19.113281 30.949219 "/>
    <path style=" stroke:none;fill-rule:nonzero;fill:rgb(51.372549%,74.901961%,30.980392%);fill-opacity:1;" d="M 18 29.671875 C 18 29.671875 19.371094 31.851562 23.175781 33.75 C 23.175781 33.75 29.117188 33.464844 34.875 29.671875 C 34.875 29.671875 31.53125 28.058594 30.605469 25.875 C 30.605469 25.875 28.328125 29.007812 18 29.671875 Z M 18 29.671875 "/>
    <path style=" stroke:none;fill-rule:nonzero;fill:rgb(41.176471%,58.823529%,20.784314%);fill-opacity:1;" d="M 15.460938 30.910156 L 16.703125 30.808594 L 16.875 32.925781 L 11.996094 36 L 0.207031 33.460938 L 0.0546875 31.609375 L 4.0625 28.863281 Z M 15.460938 30.910156 "/>
    <path style=" stroke:none;fill-rule:nonzero;fill:rgb(51.372549%,74.901961%,30.980392%);fill-opacity:1;" d="M 16.445312 29.609375 C 16.445312 29.609375 15.277344 31.78125 11.710938 33.878906 C 11.710938 33.878906 5.898438 34.074219 0 30.929688 C 0 30.929688 3.132812 29.140625 3.871094 27 C 3.871094 27 6.328125 29.789062 16.445312 29.609375 Z M 16.445312 29.609375 "/>
    <path style="fill:none;stroke-width:1;stroke-linecap:butt;stroke-linejoin:miter;stroke:rgb(41.176471%,58.823529%,20.784314%);stroke-opacity:1;stroke-miterlimit:10;" d="M 24.243056 53.6875 C 24.243056 53.6875 23.930556 54.5 25.361111 54.541667 L 21.645833 57.666667 C 21.645833 57.666667 19.493056 57.423611 18.993056 58.951389 C 18.993056 58.951389 10 58 4.201389 55.368056 C 4.201389 55.368056 5.381944 54.430556 3.944444 53.854167 C 3.944444 53.854167 5.638889 52.631944 6.048611 51.569444 C 6.048611 51.569444 7.604167 51.784722 8.173611 50.527778 C 8.173611 50.527778 14.25 54.118056 24.243056 53.6875 Z M 24.243056 53.6875 " transform="matrix(0.5625,0,0,0.5625,0,0)"/>
    <path style=" stroke:none;fill-rule:nonzero;fill:rgb(41.176471%,58.823529%,20.784314%);fill-opacity:1;" d="M 6.046875 30.257812 C 6.046875 29.859375 5.5625 29.535156 4.96875 29.535156 C 4.371094 29.535156 3.890625 29.859375 3.890625 30.257812 C 3.890625 30.660156 4.371094 30.984375 4.96875 30.984375 C 5.5625 30.984375 6.046875 30.660156 6.046875 30.257812 Z M 6.046875 30.257812 "/>
    <path style=" stroke:none;fill-rule:nonzero;fill:rgb(97.647059%,95.294118%,85.098039%);fill-opacity:1;" d="M 10.683594 29.339844 C 10.683594 29.339844 9.371094 31.035156 6.597656 33.308594 L 6.726562 34.867188 L 4.738281 34.4375 L 4.605469 32.804688 C 4.605469 32.804688 7.453125 30.152344 8.109375 28.882812 C 8.109375 28.882812 9.09375 29.179688 10.683594 29.339844 Z M 23.675781 28.980469 C 23.675781 28.980469 24.199219 30.316406 27.988281 32.828125 L 27.988281 34.476562 L 30.171875 33.800781 L 30.171875 32.085938 C 30.171875 32.085938 27.527344 30.242188 25.949219 28.363281 Z M 23.675781 28.980469 "/>
    <path style=" stroke:none;fill-rule:nonzero;fill:rgb(41.176471%,58.823529%,20.784314%);fill-opacity:1;" d="M 20.480469 27.171875 L 19.226562 27.105469 L 19.125 29.429688 L 24.125 32.625 L 35.878906 29.445312 L 35.96875 27.414062 L 31.855469 24.542969 Z M 20.480469 27.171875 "/>
    <path style=" stroke:none;fill-rule:nonzero;fill:rgb(51.372549%,74.901961%,30.980392%);fill-opacity:1;" d="M 19.445312 25.785156 C 19.445312 25.785156 20.691406 28.121094 24.339844 30.292969 C 24.339844 30.292969 30.183594 30.308594 36 26.667969 C 36 26.667969 32.796875 24.816406 31.984375 22.5 C 31.984375 22.5 29.609375 25.632812 19.445312 25.785156 Z M 19.445312 25.785156 "/>
    <path style="fill:none;stroke-width:1;stroke-linecap:butt;stroke-linejoin:miter;stroke:rgb(41.176471%,58.823529%,20.784314%);stroke-opacity:1;stroke-miterlimit:10;" d="M 39.083333 46.930556 C 39.083333 46.930556 39.590278 47.694444 38 48 L 42.194444 51.347222 C 42.194444 51.347222 44.555556 50.701389 45.416667 52.166667 C 45.416667 52.166667 55.416667 50.416667 60 48 C 60 48 58.5 47.263889 60 46.416667 C 60 46.416667 58.166667 44.923611 57.5 43.916667 C 57.5 43.916667 55.805556 44.423611 54.916667 43.25 C 54.916667 43.25 51.333333 46.354167 39.083333 46.930556 Z M 39.083333 46.930556 " transform="matrix(0.5625,0,0,0.5625,0,0)"/>
    <path style=" stroke:none;fill-rule:nonzero;fill:rgb(41.176471%,58.823529%,20.784314%);fill-opacity:1;" d="M 26.320312 27.78125 C 26.078125 28.082031 25.382812 28.195312 24.765625 28.03125 C 24.148438 27.863281 23.84375 27.484375 24.085938 27.179688 C 24.328125 26.878906 25.023438 26.765625 25.640625 26.929688 C 26.257812 27.097656 26.566406 27.476562 26.320312 27.78125 Z M 26.320312 27.78125 "/>
    <path style=" stroke:none;fill-rule:nonzero;fill:rgb(97.647059%,95.294118%,85.098039%);fill-opacity:1;" d="M 25.222656 25.292969 C 25.222656 25.292969 26.59375 27.101562 29.457031 29.496094 L 29.378906 31.203125 L 31.359375 30.667969 L 31.4375 28.875 C 31.4375 28.875 28.492188 26.074219 27.789062 24.707031 C 27.789062 24.703125 26.8125 25.0625 25.222656 25.292969 Z M 25.222656 25.292969 "/>
    <path style=" stroke:none;fill-rule:nonzero;fill:rgb(85.882353%,70.588235%,44.313725%);fill-opacity:1;" d="M 25.875 1.125 C 25.875 4.535156 21.457031 10.125 18 10.125 C 14.542969 10.125 10.125 5.097656 10.125 1.6875 C 10.125 -1.722656 10.605469 1.6875 14.0625 1.6875 C 14.558594 1.6875 16.953125 0 18 0 C 18.75 0 20.796875 1.6875 21.9375 1.6875 C 24.9375 1.6875 25.875 -1.449219 25.875 1.125 Z M 25.875 1.125 "/>
    <path style=" stroke:none;fill-rule:nonzero;fill:rgb(53.72549%,40%,29.803922%);fill-opacity:1;" d="M 16.972656 7.457031 C 16.632812 7.660156 15.03125 7.488281 14.496094 7.921875 C 13.84375 8.453125 14.792969 9.632812 14.121094 10.324219 C 12.785156 11.699219 11.703125 13.203125 12.023438 14.0625 C 12.5625 15.511719 13.640625 11.378906 14.625 12.933594 C 15.609375 14.484375 15.398438 11.886719 16.875 13.222656 C 18.351562 14.554688 17.082031 10.828125 18.527344 12.445312 C 19.96875 14.0625 20.011719 15.957031 21.023438 15.960938 C 22.21875 15.964844 19.757812 11.542969 21.375 12.59375 C 22.992188 13.640625 24.675781 13.285156 23.113281 11.636719 C 22.628906 11.125 21.910156 10.238281 21.136719 9.433594 C 20.84375 9.128906 21.101562 7.714844 20.800781 7.457031 C 20.488281 7.191406 19.613281 8.09375 19.3125 7.933594 C 18.660156 7.589844 18.875 8.21875 17.847656 8.402344 C 17.105469 8.535156 17.675781 7.03125 16.972656 7.457031 Z M 16.972656 7.457031 "/>
    <path style=" stroke:none;fill-rule:nonzero;fill:rgb(90.980392%,90.980392%,90.980392%);fill-opacity:1;" d="M 10.523438 10.804688 C 12.699219 8.726562 16.722656 9.886719 19.046875 10.890625 C 21.332031 11.878906 22.738281 8.671875 21.304688 7.074219 C 20.46875 6.140625 19.136719 7.261719 18.578125 7.90625 C 18.007812 8.566406 17.5625 9.324219 16.972656 9.972656 C 16.066406 10.972656 13.855469 10.148438 14.5625 8.710938 C 15.277344 7.257812 18.382812 8.933594 19.417969 9.230469 C 21.398438 9.796875 23.492188 10.011719 25.460938 9.308594 C 26.140625 9.066406 25.847656 7.976562 25.164062 8.222656 C 22.988281 9.003906 20.800781 8.496094 18.667969 7.828125 C 17.613281 7.5 15.882812 6.570312 14.761719 7.097656 C 11.546875 8.605469 14.558594 12.957031 17.21875 11.246094 C 17.820312 10.855469 18.253906 10.210938 18.671875 9.644531 C 18.929688 9.296875 20.355469 7.152344 20.683594 8.21875 C 20.847656 8.765625 20.695312 9.769531 20.085938 9.984375 C 19.679688 10.128906 18.882812 9.609375 18.488281 9.449219 C 17.769531 9.164062 17.019531 8.964844 16.261719 8.800781 C 14.199219 8.355469 11.367188 8.445312 9.726562 10.007812 C 9.203125 10.511719 9.996094 11.304688 10.523438 10.804688 Z M 10.523438 10.804688 "/>
    <path style=" stroke:none;fill-rule:nonzero;fill:rgb(53.72549%,40%,29.803922%);fill-opacity:1;" d="M 25.222656 0.300781 C 24.636719 0.71875 23.605469 1.6875 21.9375 1.6875 C 20.796875 1.6875 18.75 0 18 0 C 16.953125 0 14.558594 1.6875 14.0625 1.6875 C 12.207031 1.6875 11.210938 0.703125 10.683594 0.320312 C 10.683594 0.324219 11.304688 2.847656 13.21875 4.125 C 14.625 5.0625 14.4375 3.984375 15.1875 3 C 15.9375 2.015625 16.445312 1.5 17.703125 4.03125 C 18.386719 5.414062 19.648438 0.214844 20.671875 1.875 C 22.550781 4.921875 23.210938 3.273438 25.222656 0.300781 Z M 25.222656 0.300781 "/>
    <path style=" stroke:none;fill-rule:nonzero;fill:rgb(85.882353%,70.588235%,44.313725%);fill-opacity:1;" d="M 29.457031 29.496094 L 29.378906 31.203125 L 31.359375 30.667969 L 31.4375 28.875 C 31.4375 28.875 30.273438 29.289062 29.457031 29.496094 Z M 27.988281 32.828125 L 27.988281 34.476562 L 30.171875 33.800781 L 30.171875 32.085938 C 30.171875 32.085938 29.5625 32.417969 27.988281 32.828125 Z M 6.597656 33.308594 L 6.726562 34.867188 L 4.738281 34.4375 L 4.605469 32.804688 C 4.605469 32.804688 5.382812 33.078125 6.597656 33.308594 Z M 6.597656 33.308594 "/>
    <use xlink:href="#surface6" mask="url(#mask0)"/>
  </g>
</svg>