<?xml version="1.0" encoding="UTF-8" standalone="yes"?>
<svg xmlns="http://www.w3.org/2000/svg" xmlns:xlink="http://www.w3.org/1999/xlink" width="48px" height="48px" viewBox="0 0 36 36" version="1.1">
  <g id="surface1">
    <path style=" stroke:none;fill-rule:nonzero;fill:rgb(41.176471%,58.823529%,20.784314%);fill-opacity:1;" d="M 34.296875 11.785156 C 30.816406 8.605469 27.332031 5.425781 23.851562 2.246094 C 18.75 10.015625 10.085938 16.933594 1.835938 21.914062 C 1.613281 22.960938 1.375 23.992188 1.125 25.003906 C 4.726562 28.296875 8.328125 31.585938 11.933594 34.875 C 20.441406 30.21875 29.417969 23.585938 34.875 16.054688 C 34.699219 14.628906 34.507812 13.203125 34.296875 11.785156 Z M 34.296875 11.785156 "/>
    <path style=" stroke:none;fill-rule:nonzero;fill:rgb(51.372549%,74.901961%,30.980392%);fill-opacity:1;" d="M 12.605469 30.6875 C 9.054688 27.445312 5.503906 24.203125 1.953125 20.960938 C 10.773438 15.976562 18.214844 9.179688 23.675781 1.125 C 27.226562 4.367188 30.777344 7.609375 34.328125 10.851562 C 28.871094 18.90625 21.425781 25.703125 12.605469 30.6875 Z M 12.605469 30.6875 "/>
    <path style=" stroke:none;fill-rule:nonzero;fill:rgb(41.176471%,58.823529%,20.784314%);fill-opacity:1;" d="M 11.707031 28.5625 C 9.339844 26.402344 6.972656 24.242188 4.605469 22.078125 C 4.75 21.992188 4.894531 21.90625 5.042969 21.820312 C 5.519531 21.539062 5.582031 21.007812 5.191406 20.652344 L 4.839844 20.324219 C 11.992188 15.925781 18.160156 10.296875 22.980469 3.761719 C 23.097656 3.867188 23.214844 3.976562 23.335938 4.085938 C 23.726562 4.441406 24.308594 4.382812 24.617188 3.945312 L 24.898438 3.546875 C 27.265625 5.710938 29.632812 7.871094 32 10.03125 L 31.71875 10.429688 C 31.40625 10.867188 31.464844 11.507812 31.855469 11.867188 L 32.210938 12.191406 C 27.390625 18.726562 21.226562 24.355469 14.070312 28.757812 C 13.949219 28.648438 13.832031 28.539062 13.714844 28.429688 C 13.324219 28.074219 12.621094 28.023438 12.140625 28.304688 C 11.996094 28.394531 11.851562 28.476562 11.707031 28.5625 Z M 6.136719 22.167969 L 11.910156 27.4375 C 12.644531 27.191406 13.507812 27.25 14.160156 27.605469 C 20.710938 23.453125 26.402344 18.253906 30.953125 12.273438 C 30.5625 11.675781 30.496094 10.886719 30.769531 10.214844 L 24.996094 4.945312 C 24.46875 5.382812 23.746094 5.453125 23.144531 5.140625 C 18.589844 11.121094 12.898438 16.316406 6.347656 20.476562 C 6.691406 21.027344 6.613281 21.683594 6.136719 22.167969 Z M 6.136719 22.167969 "/>
    <path style=" stroke:none;fill-rule:nonzero;fill:rgb(41.176471%,58.823529%,20.784314%);fill-opacity:1;" d="M 11.277344 20.96875 C 11.890625 20.738281 12.589844 20.808594 13.023438 21.203125 C 12.714844 21.425781 12.40625 21.644531 12.097656 21.863281 C 11.964844 21.742188 11.730469 21.742188 11.5625 21.855469 C 11.398438 21.96875 11.359375 22.160156 11.488281 22.273438 C 11.613281 22.390625 11.859375 22.394531 12.027344 22.277344 C 12.710938 21.804688 13.664062 21.796875 14.1875 22.277344 C 14.605469 22.660156 14.621094 23.230469 14.253906 23.6875 C 14.359375 23.78125 14.460938 23.878906 14.566406 23.972656 C 14.289062 24.167969 14.011719 24.355469 13.730469 24.546875 C 13.621094 24.449219 13.515625 24.347656 13.40625 24.25 C 12.808594 24.441406 12.125 24.347656 11.722656 23.984375 C 12.039062 23.777344 12.355469 23.5625 12.667969 23.351562 C 12.792969 23.46875 13.039062 23.46875 13.207031 23.355469 C 13.371094 23.242188 13.398438 23.050781 13.273438 22.933594 C 13.144531 22.820312 12.910156 22.820312 12.742188 22.933594 C 12.355469 23.203125 11.855469 23.3125 11.402344 23.261719 C 11.066406 23.226562 10.761719 23.105469 10.535156 22.898438 C 10.132812 22.527344 10.128906 21.996094 10.460938 21.558594 C 10.367188 21.476562 10.273438 21.390625 10.179688 21.304688 C 10.460938 21.113281 10.738281 20.921875 11.015625 20.726562 C 11.101562 20.808594 11.191406 20.886719 11.277344 20.96875 Z M 24.273438 8.925781 C 24.765625 8.585938 25.375 8.578125 25.808594 8.976562 C 25.582031 9.265625 25.347656 9.554688 25.113281 9.839844 C 24.984375 9.71875 24.78125 9.75 24.65625 9.902344 C 24.53125 10.050781 24.527344 10.273438 24.652344 10.386719 C 24.78125 10.503906 24.992188 10.476562 25.117188 10.324219 C 25.636719 9.699219 26.453125 9.570312 26.976562 10.046875 C 27.394531 10.429688 27.496094 11.082031 27.25 11.644531 L 27.5625 11.929688 C 27.355469 12.183594 27.144531 12.4375 26.929688 12.691406 L 26.605469 12.394531 C 26.121094 12.691406 25.519531 12.671875 25.117188 12.304688 C 25.359375 12.027344 25.597656 11.746094 25.832031 11.464844 C 25.960938 11.582031 26.171875 11.550781 26.296875 11.402344 C 26.421875 11.25 26.417969 11.03125 26.289062 10.914062 C 26.164062 10.796875 25.960938 10.828125 25.835938 10.976562 C 25.539062 11.335938 25.125 11.523438 24.730469 11.523438 C 24.433594 11.53125 24.144531 11.421875 23.929688 11.222656 C 23.523438 10.851562 23.441406 10.246094 23.660156 9.703125 C 23.566406 9.621094 23.472656 9.535156 23.378906 9.449219 C 23.59375 9.199219 23.804688 8.945312 24.011719 8.6875 C 24.097656 8.765625 24.1875 8.847656 24.273438 8.925781 Z M 22.597656 19.976562 C 20.785156 21.632812 17.769531 21.558594 16.007812 19.949219 C 14.242188 18.335938 14.394531 15.796875 16.203125 14.140625 C 18.019531 12.488281 20.800781 12.347656 22.566406 13.960938 C 24.328125 15.570312 24.410156 18.320312 22.597656 19.976562 Z M 22.597656 19.976562 "/>
    <path style=" stroke:none;fill-rule:nonzero;fill:rgb(100%,86.666667%,49.019608%);fill-opacity:1;" d="M 12.285156 13.761719 L 22.9375 23.488281 C 24.144531 22.464844 25.3125 21.398438 26.441406 20.289062 L 15.792969 10.5625 C 14.664062 11.671875 13.492188 12.738281 12.285156 13.761719 Z M 12.285156 13.761719 "/>
    <path style=" stroke:none;fill-rule:nonzero;fill:rgb(85.882353%,70.588235%,44.313725%);fill-opacity:1;" d="M 22.976562 27.765625 C 24.171875 26.859375 25.339844 25.914062 26.480469 24.941406 L 26.480469 20.253906 C 25.355469 21.359375 24.183594 22.429688 22.976562 23.457031 Z M 22.976562 27.765625 "/>
    <path style=" stroke:none;fill-rule:nonzero;fill:rgb(55.294118%,60%,59.607843%);fill-opacity:1;" d="M 6.789062 13.917969 C 7.398438 13.6875 7.921875 13.347656 8.417969 12.96875 C 8.914062 12.582031 9.386719 12.164062 9.875 11.746094 C 10.371094 11.335938 10.882812 10.921875 11.472656 10.605469 C 12.050781 10.292969 12.746094 10.082031 13.394531 10.203125 C 12.75 10.324219 12.207031 10.621094 11.703125 10.980469 C 11.199219 11.34375 10.726562 11.757812 10.238281 12.175781 C 9.742188 12.582031 9.238281 13 8.664062 13.332031 C 8.097656 13.664062 7.449219 13.921875 6.789062 13.917969 Z M 6.789062 13.917969 "/>
    <path style=" stroke:none;fill-rule:nonzero;fill:rgb(90.980392%,90.980392%,90.980392%);fill-opacity:1;" d="M 22.390625 18.617188 C 22.390625 18.617188 25.160156 19.390625 31.578125 17.710938 C 37.992188 16.03125 34.957031 34.476562 23.25 34.476562 C 21.980469 34.476562 21.921875 32.839844 25.492188 29.917969 C 25.492188 29.917969 20.429688 31.113281 22.625 27.355469 C 22.625 27.355469 19.039062 27.992188 20.679688 25.109375 C 20.679688 25.109375 21.425781 22.984375 20.757812 20.542969 C 20.757812 20.542969 21.160156 19.273438 22.390625 18.617188 Z M 22.390625 18.617188 "/>
    <path style=" stroke:none;fill-rule:nonzero;fill:rgb(81.960784%,81.960784%,81.960784%);fill-opacity:1;" d="M 34.589844 19.496094 C 34.722656 24.464844 30.777344 32.65625 22.972656 32.65625 C 22.941406 32.65625 22.914062 32.648438 22.882812 32.648438 C 22.140625 33.835938 22.460938 34.476562 23.253906 34.476562 C 32.121094 34.476562 36.007812 23.902344 34.589844 19.496094 Z M 34.589844 19.496094 "/>
    <path style=" stroke:none;fill-rule:nonzero;fill:rgb(81.960784%,81.960784%,81.960784%);fill-opacity:1;" d="M 30.542969 22.207031 C 28.855469 28.265625 22.109375 28.8125 22.082031 28.8125 C 21.773438 30.078125 22.359375 30.6875 23.066406 30.6875 C 25.597656 30.6875 30.179688 26.597656 30.542969 22.207031 Z M 25.796875 22.207031 C 21.800781 27.851562 20.398438 25.773438 20.371094 25.769531 C 19.34375 27.992188 21.980469 28.046875 22.464844 27.53125 C 23.804688 26.09375 25.890625 23.175781 25.796875 22.207031 Z M 25.796875 22.207031 "/>
    <path style=" stroke:none;fill-rule:nonzero;fill:rgb(55.294118%,60%,59.607843%);fill-opacity:1;" d="M 22.753906 32.855469 C 23.449219 31.957031 24.292969 31.222656 25.132812 30.480469 C 25.980469 29.742188 26.84375 29.015625 27.65625 28.21875 C 28.464844 27.417969 29.238281 26.546875 29.796875 25.523438 C 30.363281 24.519531 30.660156 23.335938 30.542969 22.207031 C 30.4375 23.335938 30.015625 24.382812 29.417969 25.300781 C 28.816406 26.222656 28.0625 27.039062 27.265625 27.816406 C 26.472656 28.605469 25.628906 29.351562 24.832031 30.160156 C 24.035156 30.960938 23.265625 31.835938 22.753906 32.855469 Z M 22.082031 28.8125 C 22.3125 28.199219 22.652344 27.679688 23.03125 27.183594 C 23.417969 26.6875 23.835938 26.214844 24.253906 25.726562 C 24.664062 25.230469 25.078125 24.71875 25.394531 24.128906 C 25.707031 23.550781 25.917969 22.855469 25.796875 22.207031 C 25.675781 22.851562 25.378906 23.394531 25.019531 23.898438 C 24.65625 24.402344 24.238281 24.875 23.824219 25.363281 C 23.417969 25.859375 23 26.363281 22.667969 26.9375 C 22.335938 27.503906 22.082031 28.152344 22.082031 28.8125 Z M 22.082031 28.8125 "/>
    <path style=" stroke:none;fill-rule:nonzero;fill:rgb(90.980392%,90.980392%,90.980392%);fill-opacity:1;" d="M 16.984375 13.609375 C 16.984375 13.609375 16.210938 10.839844 17.890625 4.421875 C 19.574219 -1.992188 1.125 1.042969 1.125 12.75 C 1.125 14.019531 2.761719 14.078125 5.683594 10.507812 C 5.683594 10.507812 4.492188 15.570312 8.246094 13.375 C 8.246094 13.375 7.609375 16.960938 10.492188 15.320312 C 10.492188 15.320312 12.617188 14.574219 15.058594 15.242188 C 15.058594 15.242188 16.328125 14.839844 16.984375 13.609375 Z M 16.984375 13.609375 "/>
    <path style=" stroke:none;fill-rule:nonzero;fill:rgb(81.960784%,81.960784%,81.960784%);fill-opacity:1;" d="M 16.105469 1.410156 C 11.136719 1.277344 2.949219 5.222656 2.949219 13.027344 C 2.949219 13.058594 2.953125 13.089844 2.957031 13.121094 C 1.761719 13.859375 1.125 13.539062 1.125 12.746094 C 1.125 3.878906 11.699219 -0.0078125 16.105469 1.410156 Z M 16.105469 1.410156 "/>
    <path style=" stroke:none;fill-rule:nonzero;fill:rgb(81.960784%,81.960784%,81.960784%);fill-opacity:1;" d="M 13.394531 5.457031 C 7.339844 7.144531 6.789062 13.890625 6.789062 13.917969 C 5.523438 14.226562 4.914062 13.640625 4.914062 12.933594 C 4.914062 10.402344 9.003906 5.820312 13.394531 5.457031 Z M 13.394531 10.203125 C 7.75 14.199219 9.828125 15.601562 9.832031 15.632812 C 7.609375 16.660156 7.554688 14.019531 8.070312 13.535156 C 9.507812 12.195312 12.425781 10.109375 13.394531 10.203125 Z M 13.394531 10.203125 "/>
    <path style=" stroke:none;fill-rule:nonzero;fill:rgb(55.294118%,60%,59.607843%);fill-opacity:1;" d="M 2.746094 13.246094 C 3.644531 12.550781 4.378906 11.707031 5.121094 10.867188 C 5.859375 10.019531 6.589844 9.15625 7.382812 8.339844 C 8.183594 7.535156 9.054688 6.761719 10.078125 6.203125 C 11.085938 5.636719 12.265625 5.339844 13.398438 5.457031 C 12.265625 5.5625 11.21875 5.984375 10.300781 6.582031 C 9.378906 7.183594 8.5625 7.9375 7.785156 8.734375 C 7 9.527344 6.25 10.371094 5.441406 11.167969 C 4.640625 11.964844 3.765625 12.734375 2.746094 13.246094 Z M 6.789062 13.917969 C 7.402344 13.6875 7.921875 13.347656 8.417969 12.96875 C 8.914062 12.582031 9.386719 12.164062 9.875 11.746094 C 10.371094 11.335938 10.882812 10.921875 11.472656 10.605469 C 12.050781 10.292969 12.746094 10.082031 13.394531 10.203125 C 12.75 10.324219 12.207031 10.621094 11.703125 10.980469 C 11.199219 11.34375 10.726562 11.757812 10.238281 12.175781 C 9.742188 12.582031 9.238281 13 8.664062 13.332031 C 8.097656 13.664062 7.449219 13.921875 6.789062 13.917969 Z M 6.789062 13.917969 "/>
  </g>
</svg>