<?xml version="1.0" encoding="UTF-8" standalone="yes"?>
<svg xmlns="http://www.w3.org/2000/svg" xmlns:xlink="http://www.w3.org/1999/xlink" width="48px" height="48px" viewBox="0 0 36 36" version="1.1">
  <g id="surface1">
    <path style=" stroke:none;fill-rule:nonzero;fill:rgb(100%,80.784314%,19.215686%);fill-opacity:1;" d="M 3.320312 34.875 C 1.457031 34.875 0.613281 33.535156 1.445312 31.898438 L 16.484375 2.351562 C 17.316406 0.714844 18.683594 0.714844 19.515625 2.351562 L 34.554688 31.898438 C 35.386719 33.535156 34.542969 34.875 32.679688 34.875 Z M 3.320312 34.875 "/>
    <path style=" stroke:none;fill-rule:nonzero;fill:rgb(13.72549%,12.156863%,12.54902%);fill-opacity:1;" d="M 15.636719 13.265625 L 17.183594 23.652344 C 17.339844 24.6875 18.660156 24.6875 18.816406 23.652344 L 20.359375 13.265625 C 20.644531 9.21875 15.351562 9.21875 15.636719 13.265625 Z M 15.636719 13.265625 "/>
    <path style=" stroke:none;fill-rule:nonzero;fill:rgb(13.72549%,12.156863%,12.54902%);fill-opacity:1;" d="M 20.375 27.902344 C 20.375 26.59375 19.3125 25.535156 18 25.535156 C 16.6875 25.535156 15.625 26.59375 15.625 27.902344 C 15.625 29.210938 16.6875 30.269531 18 30.269531 C 19.3125 30.269531 20.375 29.210938 20.375 27.902344 Z M 20.375 27.902344 "/>
  </g>
</svg>