<?xml version="1.0" encoding="UTF-8" standalone="yes"?>
<svg xmlns="http://www.w3.org/2000/svg" xmlns:xlink="http://www.w3.org/1999/xlink" width="48px" height="48px" viewBox="0 0 36 36" version="1.1">
  <g id="surface1">
    <path style=" stroke:none;fill-rule:nonzero;fill:rgb(76.078431%,56.078431%,93.72549%);fill-opacity:1;" d="M 22.835938 32.765625 C 14.84375 32.765625 8.363281 26.15625 8.363281 18 C 8.363281 9.847656 14.84375 3.234375 22.835938 3.234375 C 24.078125 3.234375 25.285156 3.394531 26.4375 3.695312 C 23.820312 2.015625 20.777344 1.121094 17.664062 1.125 C 8.53125 1.125 1.125 8.679688 1.125 18 C 1.125 27.320312 8.53125 34.875 17.664062 34.875 C 20.777344 34.875 23.820312 33.984375 26.4375 32.304688 C 25.285156 32.605469 24.078125 32.765625 22.835938 32.765625 Z M 22.835938 32.765625 "/>
    <path style=" stroke:none;fill-rule:nonzero;fill:rgb(76.078431%,56.078431%,93.72549%);fill-opacity:1;" d="M 28.019531 21.359375 L 32.257812 24.328125 L 30.65625 19.5 L 34.875 16.507812 L 29.648438 16.492188 L 28.019531 11.671875 L 26.390625 16.492188 L 21.164062 16.507812 L 25.382812 19.5 L 23.78125 24.328125 Z M 28.019531 21.359375 "/>
  </g>
</svg>