<?xml version="1.0" encoding="UTF-8" standalone="yes"?>
<svg xmlns="http://www.w3.org/2000/svg" xmlns:xlink="http://www.w3.org/1999/xlink" width="48px" height="48px" viewBox="0 0 48 48" version="1.1">
  <g id="surface1">
    <path style=" stroke:none;fill-rule:nonzero;fill:rgb(100%,35.294118%,47.45098%);fill-opacity:1;" d="M 8.191406 2.460938 C 8.191406 2.460938 3.589844 13.882812 1.507812 31.027344 C 1.320312 32.558594 4.851562 31.1875 6.066406 30.722656 C 8.820312 13.835938 12.75 2.265625 12.75 2.265625 C 11.601562 2.070312 8.191406 2.460938 8.191406 2.460938 Z M 27.960938 3.710938 C 29.582031 6.339844 28.871094 10.503906 27.890625 14.636719 C 26.269531 21.316406 22.453125 28.21875 16.269531 28.21875 C 10.425781 28.21875 9.820312 21.875 11.375 15.382812 C 12.316406 11.445312 13.871094 7.433594 16.238281 4.765625 C 18.0625 2.734375 20.5625 1.5 23.058594 1.5 C 25.492188 1.5 27.148438 1.984375 27.960938 3.710938 Z M 16.066406 15.421875 C 14.75 20.867188 15.359375 23.601562 17.523438 23.601562 C 19.785156 23.601562 21.910156 20.152344 23.296875 14.484375 C 24.582031 9.082031 23.972656 6.601562 21.8125 6.601562 C 19.75 6.601562 17.488281 9.605469 16.066406 15.421875 Z M 45.535156 3.714844 C 47.160156 6.339844 46.449219 10.503906 45.46875 14.636719 C 43.847656 21.3125 40.03125 28.21875 33.847656 28.21875 C 28.003906 28.21875 27.398438 21.875 28.949219 15.382812 C 29.898438 11.445312 31.449219 7.429688 33.816406 4.765625 C 35.640625 2.738281 38.140625 1.5 40.640625 1.5 C 43.074219 1.5 44.726562 1.984375 45.535156 3.714844 Z M 33.648438 15.421875 C 32.328125 20.867188 32.9375 23.605469 35.097656 23.605469 C 37.363281 23.605469 39.492188 20.148438 40.875 14.488281 C 42.160156 9.078125 41.550781 6.601562 39.390625 6.601562 C 37.328125 6.601562 35.066406 9.605469 33.648438 15.421875 Z M 35.671875 36.433594 C 31.648438 36.433594 10.664062 38.085938 2.402344 38.765625 C 1.839844 36.625 2.574219 34.722656 3.527344 33.796875 C 7.679688 33.015625 35.28125 30.882812 37.359375 32.101562 C 37.011719 33.609375 36.40625 35.511719 35.671875 36.433594 Z M 32.144531 44.835938 C 28.035156 44.835938 14.949219 45.746094 6.507812 46.5 C 5.933594 44.117188 6.6875 42.007812 7.660156 40.984375 C 11.898438 40.117188 31.746094 38.667969 33.867188 40.019531 C 33.515625 41.695312 32.894531 43.808594 32.144531 44.835938 Z M 32.144531 44.835938 "/>
  </g>
</svg>
