<?xml version="1.0" encoding="utf-8"?>
<!DOCTYPE svg PUBLIC "-//W3C//DTD SVG 1.1//EN" "http://www.w3.org/Graphics/SVG/1.1/DTD/svg11.dtd">
<svg xmlns="http://www.w3.org/2000/svg" xmlns:xlink="http://www.w3.org/1999/xlink" version="1.1" baseProfile="full" width="137.046" height="124.709" viewBox="0 0 137.05 124.71" enable-background="new 0 0 137.05 124.71" xml:space="preserve">
	<path fill="#FFFFFF" fill-opacity="1" stroke-width="12" stroke-linejoin="round" d="M 91.1654,68.1566C 91.1654,80.6617 81.028,90.7993 68.5227,90.7993C 56.0175,90.7993 45.88,80.6617 45.88,68.1566C 45.88,55.6515 56.0176,45.514 68.5227,45.514C 81.0279,45.514 91.1654,55.6515 91.1654,68.1566 Z M 54.2903,68.1572C 54.2903,76.0176 60.6624,82.39 68.5228,82.39C 76.3832,82.39 82.7553,76.0176 82.7553,68.1572C 82.7553,60.2969 76.3832,53.9247 68.5228,53.9247C 60.6624,53.9247 54.2903,60.2969 54.2903,68.1572 Z M 120.534,11.6049C 129.653,11.6049 137.046,18.9971 137.046,28.1163L 137.046,108.197C 137.046,117.317 129.653,124.709 120.534,124.709L 16.5116,124.709C 7.39249,124.709 0,117.317 0,108.197L 0,28.1163C 0,18.9971 7.39249,11.6049 16.5116,11.6049L 19.7047,11.6049C 19.6525,11.184 19.6255,10.755 19.6255,10.3199C 19.6255,4.62048 24.2459,0 29.9455,0L 43.4294,0C 49.1289,0 53.7494,4.62048 53.7494,10.3199C 53.7494,10.755 53.7224,11.184 53.6702,11.6049L 120.534,11.6049 Z M 34.3986,68.1572C 34.3986,87.0034 49.6765,102.281 68.5229,102.281C 87.3693,102.281 102.647,87.0034 102.647,68.1572C 102.647,49.311 87.3693,34.0328 68.5229,34.0328C 49.6765,34.0328 34.3986,49.311 34.3986,68.1572 Z M 103.839,30.0875C 103.839,33.381 106.509,36.0508 109.802,36.0508L 118.24,36.0508C 121.533,36.0508 124.203,33.381 124.203,30.0875C 124.203,26.7939 121.533,24.1239 118.24,24.1239L 109.802,24.1239C 106.509,24.1239 103.839,26.7939 103.839,30.0875 Z "/>
</svg>
