<?xml version="1.0" encoding="UTF-8" standalone="yes"?>
<svg xmlns="http://www.w3.org/2000/svg" xmlns:xlink="http://www.w3.org/1999/xlink" width="48px" height="48px" viewBox="0 0 36 36" version="1.1">
  <defs>
    <filter id="alpha" filterUnits="objectBoundingBox" x="0%" y="0%" width="100%" height="100%">
      <feColorMatrix type="matrix" in="SourceGraphic" values="0 0 0 0 1 0 0 0 0 1 0 0 0 0 1 0 0 0 1 0"/>
    </filter>
    <mask id="mask0">
      <g filter="url(#alpha)">
        <rect x="0" y="0" width="36" height="36" style="fill:rgb(0%,0%,0%);fill-opacity:0.8;stroke:none;"/>
      </g>
    </mask>
    <clipPath id="clip1">
      <rect width="36" height="36"/>
    </clipPath>
    <g id="surface6" clip-path="url(#clip1)">
      <path style=" stroke:none;fill-rule:nonzero;fill:rgb(100%,44.313725%,49.803922%);fill-opacity:1;" d="M 30.917969 11.765625 C 28.5625 11.175781 26.289062 11.984375 25.832031 13.574219 C 25.378906 15.160156 26.917969 16.925781 29.269531 17.515625 C 31.621094 18.105469 33.894531 17.296875 34.351562 15.707031 C 34.804688 14.121094 33.269531 12.355469 30.917969 11.765625 Z M 12.320312 16.71875 C 10.949219 15.0625 7.648438 15.019531 4.941406 16.625 C 2.238281 18.230469 1.152344 20.871094 2.519531 22.523438 C 3.886719 24.179688 7.191406 24.21875 9.898438 22.617188 C 12.605469 21.011719 13.6875 18.371094 12.320312 16.71875 Z M 12.320312 16.71875 "/>
    </g>
  </defs>
  <g id="surface1">
    <path style=" stroke:none;fill-rule:nonzero;fill:rgb(100%,86.666667%,40.392157%);fill-opacity:1;" d="M 34.875 18 C 34.875 27.320312 27.320312 34.875 18 34.875 C 8.679688 34.875 1.125 27.320312 1.125 18 C 1.125 8.679688 8.679688 1.125 18 1.125 C 27.320312 1.125 34.875 8.679688 34.875 18 Z M 34.875 18 "/>
    <path style=" stroke:none;fill-rule:nonzero;fill:rgb(40%,30.588235%,15.294118%);fill-opacity:1;" d="M 25.644531 25.554688 C 26.359375 24.496094 24.339844 24.09375 24.058594 22.484375 C 23.773438 20.875 25.535156 19.804688 24.496094 19.054688 C 23.257812 18.152344 21.113281 19.375 19.4375 18.15625 C 19.648438 19.347656 20.878906 20.472656 22.746094 20.144531 C 22.746094 20.144531 21.566406 20.882812 21.914062 22.863281 C 22.265625 24.84375 23.625 25.128906 23.625 25.128906 C 21.757812 25.460938 20.984375 26.9375 21.195312 28.128906 C 22.355469 26.410156 24.785156 26.828125 25.644531 25.554688 Z M 25.644531 25.554688 "/>
    <path style=" stroke:none;fill-rule:nonzero;fill:rgb(40%,30.588235%,15.294118%);fill-opacity:1;" d="M 19.773438 9.945312 C 22.886719 13.9375 27.585938 13.109375 29.140625 8.292969 C 29.21875 8.050781 28.898438 8.003906 28.480469 7.816406 C 26.464844 10.070312 22.648438 10.566406 20.230469 9.273438 C 19.90625 9.589844 19.621094 9.742188 19.773438 9.945312 Z M 6.070312 12.359375 C 9.183594 16.355469 13.882812 15.523438 15.4375 10.707031 C 15.515625 10.464844 15.195312 10.421875 14.777344 10.234375 C 12.761719 12.484375 8.945312 12.984375 6.53125 11.6875 C 6.203125 12.003906 5.917969 12.160156 6.070312 12.359375 Z M 6.070312 12.359375 "/>
    <use xlink:href="#surface6" mask="url(#mask0)"/>
  </g>
</svg>