<?xml version="1.0" encoding="UTF-8" standalone="yes"?>
<svg xmlns="http://www.w3.org/2000/svg" xmlns:xlink="http://www.w3.org/1999/xlink" width="48px" height="48px" viewBox="0 0 36 36" version="1.1">
  <g id="surface1">
    <path style=" stroke:none;fill-rule:nonzero;fill:rgb(100%,86.666667%,40.392157%);fill-opacity:1;" d="M 34.875 18 C 34.875 27.320312 27.320312 34.875 18 34.875 C 8.679688 34.875 1.125 27.320312 1.125 18 C 1.125 8.679688 8.679688 1.125 18 1.125 C 27.320312 1.125 34.875 8.679688 34.875 18 Z M 34.875 18 "/>
    <path style=" stroke:none;fill-rule:nonzero;fill:rgb(95.686275%,40.392157%,40.392157%);fill-opacity:1;" d="M 28.605469 32.625 L 28.609375 32.625 L 28.605469 32.621094 L 28.601562 32.625 Z M 28.605469 32.625 "/>
    <path style=" stroke:none;fill-rule:nonzero;fill:rgb(40%,30.588235%,15.294118%);fill-opacity:1;" d="M 15.1875 15.1875 C 15.1875 13.324219 13.929688 11.8125 12.375 11.8125 C 10.820312 11.8125 9.5625 13.324219 9.5625 15.1875 C 9.5625 17.050781 10.820312 18.5625 12.375 18.5625 C 13.929688 18.5625 15.1875 17.050781 15.1875 15.1875 Z M 15.1875 15.1875 "/>
    <path style=" stroke:none;fill-rule:nonzero;fill:rgb(95.686275%,40.392157%,40.392157%);fill-opacity:1;" d="M 34.519531 23.945312 C 34.007812 22.929688 32.980469 22.261719 31.714844 22.351562 C 30.402344 22.441406 29.398438 23.144531 28.570312 24.300781 C 27.738281 23.152344 26.726562 22.453125 25.414062 22.375 C 24.144531 22.296875 23.125 22.972656 22.621094 23.996094 C 22.117188 25.027344 22.09375 26.378906 23.132812 27.914062 C 24.160156 29.425781 28.46875 32.523438 28.605469 32.621094 C 28.742188 32.519531 33.027344 29.382812 34.039062 27.871094 C 35.070312 26.328125 35.035156 24.972656 34.519531 23.945312 Z M 34.519531 23.945312 "/>
    <path style=" stroke:none;fill-rule:nonzero;fill:rgb(40%,30.588235%,15.294118%);fill-opacity:1;" d="M 29.167969 17.179688 C 28.117188 14.878906 26.539062 13.730469 24.960938 13.730469 C 23.382812 13.730469 21.804688 14.878906 20.753906 17.179688 C 20.652344 17.410156 21.191406 17.828125 21.460938 17.601562 C 22.480469 16.746094 23.691406 16.40625 24.960938 16.40625 C 26.230469 16.40625 27.441406 16.746094 28.460938 17.601562 C 28.730469 17.828125 29.269531 17.410156 29.167969 17.179688 Z M 22.242188 28.332031 C 23.132812 27.410156 21.214844 26.664062 21.214844 25.03125 C 21.214844 23.398438 23.132812 22.652344 22.242188 21.730469 C 21.175781 20.625 18.855469 21.460938 17.417969 19.96875 C 17.417969 21.179688 18.429688 22.5 20.328125 22.5 C 20.328125 22.5 19.039062 23.019531 19.039062 25.03125 C 19.039062 27.042969 20.328125 27.5625 20.328125 27.5625 C 18.429688 27.5625 17.417969 28.882812 17.417969 30.09375 C 18.855469 28.601562 21.175781 29.4375 22.242188 28.332031 Z M 22.242188 28.332031 "/>
  </g>
</svg>