<?xml version="1.0" encoding="UTF-8" standalone="yes"?>
<svg xmlns="http://www.w3.org/2000/svg" xmlns:xlink="http://www.w3.org/1999/xlink" width="48px" height="48px" viewBox="0 0 36 36" version="1.1">
  <g id="surface1">
    <path style=" stroke:none;fill-rule:evenodd;fill:rgb(100%,86.666667%,40.392157%);fill-opacity:1;" d="M 18 1.125 C 27.320312 1.125 34.875 8.679688 34.875 18 C 34.875 27.320312 27.320312 34.875 18 34.875 C 8.679688 34.875 1.125 27.320312 1.125 18 C 1.125 8.679688 8.679688 1.125 18 1.125 "/>
    <path style=" stroke:none;fill-rule:evenodd;fill:rgb(28.627451%,28.627451%,28.627451%);fill-opacity:1;" d="M 20.164062 11.515625 C 18.929688 12.132812 17.074219 12.132812 15.835938 11.515625 C 14.515625 10.839844 12.898438 10.402344 10.96875 10.234375 C 9.078125 10.070312 5.078125 10.074219 3.078125 10.777344 C 2.84375 10.863281 2.621094 10.960938 2.402344 11.074219 C 2.277344 11.136719 2.253906 11.183594 2.253906 11.414062 L 2.253906 11.710938 C 2.253906 12.269531 2.183594 12.054688 2.585938 12.285156 C 3.359375 12.738281 3.800781 13.921875 4.039062 15.546875 C 4.375 17.917969 5.539062 19.402344 7.425781 20.113281 C 9.1875 20.769531 11.128906 20.75 12.875 20.054688 C 13.828125 19.671875 14.664062 19.074219 15.328125 18.097656 C 16.488281 16.390625 16.140625 15.320312 16.742188 13.851562 C 17.265625 12.570312 18.734375 12.570312 19.257812 13.851562 C 19.859375 15.320312 19.511719 16.390625 20.671875 18.097656 C 21.335938 19.074219 22.171875 19.671875 23.121094 20.054688 C 24.871094 20.75 26.8125 20.769531 28.574219 20.113281 C 30.460938 19.402344 31.625 17.917969 31.960938 15.546875 C 32.199219 13.921875 32.636719 12.738281 33.414062 12.285156 C 33.8125 12.054688 33.746094 12.269531 33.746094 11.710938 L 33.746094 11.414062 C 33.746094 11.183594 33.71875 11.136719 33.597656 11.074219 C 33.378906 10.960938 33.152344 10.863281 32.921875 10.777344 C 30.921875 10.074219 26.921875 10.070312 25.035156 10.234375 C 23.101562 10.402344 21.484375 10.839844 20.164062 11.515625 "/>
    <path style=" stroke:none;fill-rule:nonzero;fill:rgb(40%,30.588235%,15.294118%);fill-opacity:1;" d="M 25.078125 23.78125 C 20.515625 26.964844 15.457031 26.945312 10.921875 23.78125 C 10.375 23.402344 9.882812 24.058594 10.253906 24.667969 C 11.636719 26.945312 14.425781 28.972656 18 28.972656 C 21.574219 28.972656 24.363281 26.945312 25.746094 24.667969 C 26.117188 24.058594 25.625 23.402344 25.078125 23.78125 Z M 25.078125 23.78125 "/>
  </g>
</svg>