<?xml version="1.0" encoding="UTF-8" standalone="yes"?>
<svg xmlns="http://www.w3.org/2000/svg" xmlns:xlink="http://www.w3.org/1999/xlink" width="48px" height="48px" viewBox="0 0 36 36" version="1.1">
  <g id="surface1">
    <path style=" stroke:none;fill-rule:nonzero;fill:rgb(100%,86.666667%,40.392157%);fill-opacity:1;" d="M 34.875 18 C 34.875 27.320312 27.320312 34.875 18 34.875 C 8.679688 34.875 1.125 27.320312 1.125 18 C 1.125 8.679688 8.679688 1.125 18 1.125 C 27.320312 1.125 34.875 8.679688 34.875 18 Z M 34.875 18 "/>
    <path style=" stroke:none;fill-rule:nonzero;fill:rgb(56.862745%,45.882353%,14.117647%);fill-opacity:1;" d="M 29.925781 11.660156 C 28.105469 10.121094 25.695312 9.476562 23.351562 9.898438 C 23.023438 9.960938 22.738281 8.761719 23.132812 8.683594 C 25.839844 8.199219 28.621094 8.945312 30.722656 10.71875 C 31.027344 10.980469 30.175781 11.875 29.925781 11.660156 Z M 12.648438 9.8125 C 10.304688 9.390625 7.894531 10.035156 6.070312 11.574219 C 5.824219 11.792969 4.972656 10.894531 5.277344 10.632812 C 7.378906 8.859375 10.160156 8.113281 12.867188 8.597656 C 13.261719 8.675781 12.976562 9.875 12.648438 9.8125 Z M 12.648438 9.8125 "/>
    <path style=" stroke:none;fill-rule:nonzero;fill:rgb(40%,30.588235%,15.294118%);fill-opacity:1;" d="M 25.078125 22.65625 C 20.515625 25.839844 15.457031 25.820312 10.921875 22.65625 C 10.375 22.277344 9.882812 22.9375 10.253906 23.542969 C 11.636719 25.820312 14.425781 27.847656 18 27.847656 C 21.574219 27.847656 24.363281 25.820312 25.746094 23.542969 C 26.117188 22.9375 25.625 22.277344 25.078125 22.65625 Z M 25.078125 22.65625 "/>
    <path style=" stroke:none;fill-rule:nonzero;fill:rgb(40%,30.588235%,15.294118%);fill-opacity:1;" d="M 20.199219 15.304688 C 22.570312 19.777344 27.34375 19.777344 29.714844 15.304688 C 29.832031 15.078125 29.523438 14.980469 29.144531 14.722656 C 26.769531 16.589844 22.925781 16.417969 20.769531 14.722656 C 20.394531 14.980469 20.085938 15.078125 20.199219 15.304688 Z M 6.285156 15.304688 C 8.65625 19.777344 13.429688 19.777344 15.800781 15.304688 C 15.914062 15.078125 15.609375 14.980469 15.230469 14.722656 C 12.855469 16.589844 9.007812 16.417969 6.855469 14.722656 C 6.476562 14.980469 6.171875 15.078125 6.285156 15.304688 Z M 6.285156 15.304688 "/>
  </g>
</svg>