<?xml version="1.0" encoding="UTF-8" standalone="yes"?>
<svg xmlns="http://www.w3.org/2000/svg" xmlns:xlink="http://www.w3.org/1999/xlink" width="48px" height="48px" viewBox="0 0 36 36" version="1.1">
  <g id="surface1">
    <path style=" stroke:none;fill-rule:nonzero;fill:rgb(100%,86.666667%,40.392157%);fill-opacity:1;" d="M 34.875 18 C 34.875 27.320312 27.320312 34.875 18 34.875 C 8.679688 34.875 1.125 27.320312 1.125 18 C 1.125 8.679688 8.679688 1.125 18 1.125 C 27.320312 1.125 34.875 8.679688 34.875 18 Z M 34.875 18 "/>
    <path style=" stroke:none;fill-rule:nonzero;fill:rgb(40%,30.588235%,15.294118%);fill-opacity:1;" d="M 14.34375 14.957031 C 14.34375 16.511719 13.085938 17.769531 11.53125 17.769531 C 9.976562 17.769531 8.71875 16.511719 8.71875 14.957031 C 8.71875 13.40625 9.976562 12.144531 11.53125 12.144531 C 13.085938 12.144531 14.34375 13.40625 14.34375 14.957031 Z M 14.34375 14.957031 "/>
    <path style=" stroke:none;fill-rule:nonzero;fill:rgb(40%,30.588235%,15.294118%);fill-opacity:1;" d="M 27.28125 14.957031 C 27.28125 16.511719 26.023438 17.769531 24.46875 17.769531 C 22.914062 17.769531 21.65625 16.511719 21.65625 14.957031 C 21.65625 13.40625 22.914062 12.144531 24.46875 12.144531 C 26.023438 12.144531 27.28125 13.40625 27.28125 14.957031 Z M 27.28125 14.957031 "/>
    <path style=" stroke:none;fill-rule:nonzero;fill:rgb(40%,30.588235%,15.294118%);fill-opacity:1;" d="M 25.078125 22.65625 C 20.515625 25.839844 15.457031 25.820312 10.921875 22.65625 C 10.375 22.277344 9.882812 22.933594 10.253906 23.542969 C 11.636719 25.820312 14.425781 27.847656 18 27.847656 C 21.574219 27.847656 24.363281 25.820312 25.746094 23.542969 C 26.117188 22.933594 25.625 22.277344 25.078125 22.65625 Z M 25.078125 22.65625 "/>
  </g>
</svg>