<?xml version="1.0" encoding="UTF-8" standalone="yes"?>
<svg xmlns="http://www.w3.org/2000/svg" xmlns:xlink="http://www.w3.org/1999/xlink" width="48px" height="48px" viewBox="0 0 36 36" version="1.1">
  <g id="surface1">
    <path style=" stroke:none;fill-rule:nonzero;fill:rgb(100%,86.666667%,40.392157%);fill-opacity:1;" d="M 34.875 18 C 34.875 27.320312 27.320312 34.875 18 34.875 C 8.679688 34.875 1.125 27.320312 1.125 18 C 1.125 8.679688 8.679688 1.125 18 1.125 C 27.320312 1.125 34.875 8.679688 34.875 18 Z M 34.875 18 "/>
    <path style=" stroke:none;fill-rule:nonzero;fill:rgb(40%,30.588235%,15.294118%);fill-opacity:1;" d="M 14.34375 14.957031 C 14.34375 16.511719 13.085938 17.769531 11.53125 17.769531 C 9.976562 17.769531 8.71875 16.511719 8.71875 14.957031 C 8.71875 13.402344 9.976562 12.144531 11.53125 12.144531 C 13.085938 12.144531 14.34375 13.402344 14.34375 14.957031 Z M 14.34375 14.957031 "/>
    <path style=" stroke:none;fill-rule:nonzero;fill:rgb(40%,30.588235%,15.294118%);fill-opacity:1;" d="M 27.28125 14.957031 C 27.28125 16.511719 26.023438 17.769531 24.46875 17.769531 C 22.914062 17.769531 21.65625 16.511719 21.65625 14.957031 C 21.65625 13.402344 22.914062 12.144531 24.46875 12.144531 C 26.023438 12.144531 27.28125 13.402344 27.28125 14.957031 Z M 27.28125 14.957031 "/>
    <path style=" stroke:none;fill-rule:nonzero;fill:rgb(40%,30.588235%,15.294118%);fill-opacity:1;" d="M 12.945312 26.789062 C 16.203125 24.089844 19.816406 24.105469 23.054688 26.789062 C 23.445312 27.109375 23.796875 26.550781 23.535156 26.035156 C 22.546875 24.105469 20.550781 22.382812 18 22.382812 C 15.449219 22.382812 13.453125 24.105469 12.46875 26.035156 C 12.203125 26.550781 12.554688 27.109375 12.945312 26.789062 Z M 12.945312 26.789062 "/>
  </g>
</svg>