<?xml version="1.0" encoding="UTF-8" standalone="yes"?>
<svg xmlns="http://www.w3.org/2000/svg" xmlns:xlink="http://www.w3.org/1999/xlink" width="48px" height="48px" viewBox="0 0 36 36" version="1.1">
  <g id="surface1">
    <path style=" stroke:none;fill-rule:nonzero;fill:rgb(100%,86.666667%,40.392157%);fill-opacity:1;" d="M 34.875 18 C 34.875 27.320312 27.324219 34.875 18 34.875 C 8.679688 34.875 1.125 27.320312 1.125 18 C 1.125 8.679688 8.679688 1.125 18 1.125 C 27.324219 1.125 34.875 8.679688 34.875 18 Z M 34.875 18 "/>
    <path style=" stroke:none;fill-rule:nonzero;fill:rgb(40%,30.588235%,15.294118%);fill-opacity:1;" d="M 30.308594 17.351562 C 28.425781 15.164062 22.429688 15.933594 20.652344 18.921875 C 20.523438 19.144531 20.867188 19.460938 21.28125 19.714844 C 22.484375 18.871094 23.890625 18.398438 25.324219 18.296875 C 25.328125 19.878906 26.578125 21.160156 28.121094 21.160156 C 30.351562 21.160156 31.417969 18.632812 30.308594 17.351562 Z M 14.933594 17.351562 C 13.050781 15.164062 7.054688 15.933594 5.277344 18.921875 C 5.148438 19.144531 5.488281 19.460938 5.90625 19.714844 C 7.109375 18.871094 8.515625 18.398438 9.949219 18.296875 C 9.957031 19.878906 11.203125 21.160156 12.746094 21.160156 C 14.976562 21.160156 16.039062 18.632812 14.933594 17.351562 Z M 14.515625 29.125 C 17.777344 29.914062 22.984375 29.148438 25.679688 27.144531 C 26.34375 26.640625 25.027344 24.894531 24.367188 25.402344 C 22.585938 26.726562 18.039062 27.722656 15.03125 27.007812 C 14.226562 26.820312 13.65625 28.90625 14.515625 29.125 Z M 14.515625 29.125 "/>
    <path style=" stroke:none;fill-rule:nonzero;fill:rgb(56.862745%,45.882353%,14.117647%);fill-opacity:1;" d="M 29.925781 13.867188 C 28.105469 12.328125 25.695312 11.683594 23.351562 12.101562 C 23.023438 12.167969 22.738281 10.964844 23.132812 10.890625 C 25.839844 10.40625 28.621094 11.148438 30.722656 12.925781 C 31.027344 13.1875 30.175781 14.082031 29.925781 13.867188 Z M 12.648438 12.019531 C 10.304688 11.597656 7.894531 12.242188 6.074219 13.78125 C 5.824219 14 4.972656 13.101562 5.277344 12.839844 C 7.378906 11.066406 10.160156 10.320312 12.867188 10.804688 C 13.265625 10.882812 12.976562 12.082031 12.648438 12.019531 Z M 12.648438 12.019531 "/>
  </g>
</svg>