<?xml version="1.0" encoding="UTF-8" standalone="yes"?>
<svg xmlns="http://www.w3.org/2000/svg" xmlns:xlink="http://www.w3.org/1999/xlink" width="48px" height="48px" viewBox="0 0 36 36" version="1.1">
  <g id="surface1">
    <path style=" stroke:none;fill-rule:nonzero;fill:rgb(100%,86.666667%,40.392157%);fill-opacity:1;" d="M 34.875 18 C 34.875 27.320312 27.320312 34.875 18 34.875 C 8.679688 34.875 1.125 27.320312 1.125 18 C 1.125 8.679688 8.679688 1.125 18 1.125 C 27.320312 1.125 34.875 8.679688 34.875 18 Z M 34.875 18 "/>
    <path style=" stroke:none;fill-rule:nonzero;fill:rgb(40%,30.588235%,15.294118%);fill-opacity:1;" d="M 14.367188 15.949219 C 15.132812 17.589844 14.140625 19.667969 12.152344 20.597656 C 10.164062 21.523438 7.933594 20.945312 7.167969 19.304688 C 6.683594 18.261719 13.882812 14.90625 14.367188 15.949219 Z M 21.632812 15.949219 C 20.867188 17.589844 21.859375 19.667969 23.847656 20.597656 C 25.835938 21.523438 28.066406 20.945312 28.832031 19.304688 C 29.316406 18.261719 22.117188 14.90625 21.632812 15.949219 Z M 21.632812 15.949219 "/>
    <path style=" stroke:none;fill-rule:nonzero;fill:rgb(56.862745%,45.882353%,14.117647%);fill-opacity:1;" d="M 12.792969 11.144531 C 11.265625 12.972656 7.597656 14.6875 5.214844 14.679688 C 4.882812 14.671875 4.808594 15.90625 5.210938 15.910156 C 7.957031 15.917969 11.976562 14.046875 13.738281 11.933594 C 13.992188 11.621094 13 10.886719 12.792969 11.144531 Z M 23.207031 11.144531 C 24.734375 12.972656 28.402344 14.6875 30.785156 14.679688 C 31.117188 14.671875 31.191406 15.90625 30.789062 15.910156 C 28.042969 15.917969 24.023438 14.046875 22.261719 11.933594 C 22.007812 11.621094 23 10.886719 23.207031 11.144531 Z M 23.207031 11.144531 "/>
    <path style=" stroke:none;fill-rule:nonzero;fill:rgb(40%,30.588235%,15.294118%);fill-opacity:1;" d="M 22.828125 26.117188 C 19.789062 24.6875 16.195312 24.6875 13.152344 26.109375 C 12.402344 26.472656 13.339844 28.445312 14.089844 28.078125 C 16.097656 27.140625 19.09375 26.78125 21.894531 28.082031 C 22.644531 28.429688 23.625 26.5 22.828125 26.117188 Z M 22.828125 26.117188 "/>
  </g>
</svg>