<?xml version="1.0" encoding="UTF-8" standalone="yes"?>
<svg xmlns="http://www.w3.org/2000/svg" xmlns:xlink="http://www.w3.org/1999/xlink" width="48px" height="48px" viewBox="0 0 36 36" version="1.1">
  <g id="surface1">
    <path style=" stroke:none;fill-rule:nonzero;fill:rgb(100%,86.666667%,40.392157%);fill-opacity:1;" d="M 34.875 18 C 34.875 27.320312 27.320312 34.875 18 34.875 C 8.679688 34.875 1.125 27.320312 1.125 18 C 1.125 8.679688 8.679688 1.125 18 1.125 C 27.320312 1.125 34.875 8.679688 34.875 18 Z M 34.875 18 "/>
    <path style=" stroke:none;fill-rule:nonzero;fill:rgb(40%,30.588235%,15.294118%);fill-opacity:1;" d="M 27.953125 19.371094 C 27.726562 19.078125 27.320312 19.128906 26.878906 19.128906 L 9.121094 19.128906 C 8.679688 19.128906 8.273438 19.078125 8.046875 19.371094 C 5.847656 22.175781 8.433594 30.375 18 30.375 C 27.566406 30.375 30.152344 22.175781 27.953125 19.371094 Z M 27.953125 19.371094 "/>
    <path style=" stroke:none;fill-rule:nonzero;fill:rgb(29.803922%,20.784314%,14.901961%);fill-opacity:1;" d="M 19.035156 23.480469 C 18.710938 23.472656 18.210938 23.773438 18.394531 24.578125 C 18.484375 24.984375 19.0625 25.476562 19.0625 26.132812 C 19.0625 27.46875 16.9375 27.46875 16.9375 26.132812 C 16.9375 25.476562 17.515625 24.984375 17.605469 24.578125 C 17.789062 23.773438 17.289062 23.472656 16.964844 23.480469 C 16.078125 23.5 14.628906 24.457031 14.628906 26.070312 C 14.628906 27.882812 16.140625 29.351562 18 29.351562 C 19.859375 29.351562 21.371094 27.882812 21.371094 26.070312 C 21.371094 24.457031 19.917969 23.5 19.035156 23.480469 Z M 19.035156 23.480469 "/>
    <path style=" stroke:none;fill-rule:nonzero;fill:rgb(100%,44.313725%,49.803922%);fill-opacity:1;" d="M 13.660156 28.5 C 14.914062 29.035156 16.363281 29.351562 18 29.351562 C 19.640625 29.351562 21.085938 29.035156 22.339844 28.5 C 21.128906 27.917969 19.6875 27.5625 18 27.5625 C 16.3125 27.5625 14.871094 27.917969 13.660156 28.5 Z M 13.660156 28.5 "/>
    <path style=" stroke:none;fill-rule:nonzero;fill:rgb(100%,100%,100%);fill-opacity:1;" d="M 26.410156 20.25 L 9.589844 20.25 C 8.433594 20.25 8.433594 22.5 9.558594 22.5 L 26.441406 22.5 C 27.566406 22.5 27.566406 20.25 26.410156 20.25 Z M 26.410156 20.25 "/>
    <path style=" stroke:none;fill-rule:nonzero;fill:rgb(39.607843%,69.411765%,93.72549%);fill-opacity:1;" d="M 33.433594 20.742188 C 37.546875 25.0625 31.960938 30.933594 27.847656 26.613281 C 24.847656 23.457031 24.710938 17.441406 24.710938 17.441406 C 24.710938 17.441406 30.433594 17.585938 33.433594 20.742188 Z M 8.148438 26.613281 C 4.039062 30.933594 -1.546875 25.0625 2.566406 20.742188 C 5.566406 17.585938 11.289062 17.441406 11.289062 17.441406 C 11.289062 17.441406 11.152344 23.457031 8.148438 26.613281 Z M 8.148438 26.613281 "/>
    <path style=" stroke:none;fill-rule:nonzero;fill:rgb(40%,30.588235%,15.294118%);fill-opacity:1;" d="M 16.046875 16.125 C 15 13.25 13.425781 11.8125 11.847656 11.8125 C 10.273438 11.8125 8.699219 13.25 7.652344 16.125 C 7.550781 16.414062 8.089844 16.9375 8.359375 16.652344 C 9.371094 15.585938 10.585938 15.160156 11.847656 15.160156 C 13.113281 15.160156 14.328125 15.585938 15.339844 16.652344 C 15.609375 16.9375 16.148438 16.414062 16.046875 16.125 Z M 28.347656 16.125 C 27.300781 13.25 25.726562 11.8125 24.152344 11.8125 C 22.574219 11.8125 21 13.25 19.953125 16.125 C 19.851562 16.414062 20.390625 16.9375 20.660156 16.652344 C 21.671875 15.585938 22.886719 15.160156 24.152344 15.160156 C 25.417969 15.160156 26.628906 15.585938 27.640625 16.652344 C 27.910156 16.9375 28.449219 16.414062 28.347656 16.125 Z M 28.347656 16.125 "/>
  </g>
</svg>