<?xml version="1.0" encoding="UTF-8" standalone="yes"?>
<svg xmlns="http://www.w3.org/2000/svg" xmlns:xlink="http://www.w3.org/1999/xlink" width="48px" height="48px" viewBox="0 0 36 36" version="1.1">
  <g id="surface1">
    <path style=" stroke:none;fill-rule:nonzero;fill:rgb(100%,86.666667%,40.392157%);fill-opacity:1;" d="M 34.875 18 C 34.875 27.320312 27.320312 34.875 18 34.875 C 8.679688 34.875 1.125 27.320312 1.125 18 C 1.125 8.679688 8.679688 1.125 18 1.125 C 27.320312 1.125 34.875 8.679688 34.875 18 Z M 34.875 18 "/>
    <path style=" stroke:none;fill-rule:nonzero;fill:rgb(56.862745%,45.882353%,14.117647%);fill-opacity:1;" d="M 21.613281 6.324219 C 23.433594 7.859375 25.84375 8.503906 28.191406 8.085938 C 28.515625 8.019531 28.804688 9.222656 28.40625 9.296875 C 25.699219 9.785156 22.917969 9.039062 20.816406 7.265625 C 20.515625 7 21.363281 6.105469 21.613281 6.324219 Z M 7.8125 8 C 10.15625 8.421875 12.566406 7.773438 14.390625 6.238281 C 14.636719 6.019531 15.488281 6.914062 15.183594 7.179688 C 13.082031 8.953125 10.300781 9.699219 7.59375 9.210938 C 7.199219 9.136719 7.484375 7.933594 7.8125 8 Z M 7.8125 8 "/>
    <path style=" stroke:none;fill-rule:nonzero;fill:rgb(40%,30.588235%,15.294118%);fill-opacity:1;" d="M 18 18 C 13.027344 17.964844 9.03125 21.058594 9 24.910156 C 8.980469 27.042969 9.75 30.234375 12.132812 30.253906 C 13.863281 30.265625 15.78125 28.109375 18 28.125 C 20.195312 28.140625 22.003906 30.363281 23.722656 30.375 C 25.832031 30.390625 26.984375 27.195312 27 25.039062 C 27.03125 21.191406 22.96875 18.039062 18 18 Z M 18 18 "/>
    <path style=" stroke:none;fill-rule:nonzero;fill:rgb(29.803922%,20.784314%,14.901961%);fill-opacity:1;" d="M 21.9375 24.296875 C 21.9375 22.5625 20.242188 21.542969 19.210938 21.515625 C 18.828125 21.507812 18.246094 21.832031 18.460938 22.699219 C 18.566406 23.136719 19.242188 23.664062 19.242188 24.367188 C 19.242188 25.800781 16.761719 25.800781 16.761719 24.367188 C 16.761719 23.664062 17.433594 23.136719 17.542969 22.699219 C 17.753906 21.832031 17.171875 21.507812 16.789062 21.515625 C 15.757812 21.542969 14.0625 22.5625 14.0625 24.296875 C 14.0625 25.378906 14.605469 26.210938 15.457031 26.859375 L 20.542969 26.859375 C 21.394531 26.210938 21.9375 25.378906 21.9375 24.296875 Z M 21.9375 24.296875 "/>
    <path style=" stroke:none;fill-rule:nonzero;fill:rgb(100%,44.313725%,49.803922%);fill-opacity:1;" d="M 18 25.875 C 14.625 25.875 13.5 28.6875 13.5 28.6875 C 13.5 28.6875 15.75 27 18 27 C 20.25 27 22.5 28.6875 22.5 28.6875 C 22.5 28.6875 21.375 25.875 18 25.875 Z M 18 25.875 "/>
    <path style=" stroke:none;fill-rule:nonzero;fill:rgb(100%,100%,100%);fill-opacity:1;" d="M 23.484375 20.832031 C 22.097656 19.773438 20.304688 19.125 18 19.125 C 15.695312 19.125 13.902344 19.773438 12.515625 20.832031 C 12.292969 21.003906 12.316406 21.375 12.710938 21.375 L 23.289062 21.375 C 23.683594 21.375 23.707031 21.003906 23.484375 20.832031 Z M 23.484375 20.832031 "/>
    <path style=" stroke:none;fill-rule:nonzero;fill:rgb(40%,30.588235%,15.294118%);fill-opacity:1;" d="M 29.0625 11.867188 C 29.191406 11.929688 29.257812 12.066406 29.238281 12.207031 C 29.21875 12.347656 29.109375 12.457031 28.96875 12.480469 C 27.457031 12.707031 25.851562 12.964844 24.328125 13.808594 C 26.589844 14.183594 28.40625 15.34375 29.390625 16.527344 C 29.613281 16.792969 29.332031 17.152344 29.085938 17.0625 C 26.402344 16.089844 23.640625 15.5625 20.171875 15.917969 C 19.898438 15.945312 19.664062 15.789062 19.71875 15.535156 C 20.648438 11.484375 25.859375 9.953125 29.0625 11.867188 Z M 6.9375 11.867188 C 6.808594 11.929688 6.742188 12.066406 6.761719 12.207031 C 6.78125 12.347656 6.890625 12.457031 7.03125 12.480469 C 8.542969 12.707031 10.148438 12.964844 11.671875 13.808594 C 9.410156 14.183594 7.59375 15.34375 6.609375 16.527344 C 6.386719 16.792969 6.667969 17.152344 6.914062 17.0625 C 9.597656 16.089844 12.359375 15.5625 15.828125 15.917969 C 16.101562 15.945312 16.335938 15.789062 16.28125 15.535156 C 15.351562 11.484375 10.140625 9.953125 6.9375 11.867188 Z M 6.9375 11.867188 "/>
  </g>
</svg>