<?xml version="1.0" encoding="UTF-8" standalone="yes"?>
<svg xmlns="http://www.w3.org/2000/svg" xmlns:xlink="http://www.w3.org/1999/xlink" width="48px" height="48px" viewBox="0 0 36 36" version="1.1">
  <g id="surface1">
    <path style=" stroke:none;fill-rule:nonzero;fill:rgb(100%,86.666667%,40.392157%);fill-opacity:1;" d="M 34.875 18 C 34.875 27.320312 27.320312 34.875 18 34.875 C 8.679688 34.875 1.125 27.320312 1.125 18 C 1.125 8.679688 8.679688 1.125 18 1.125 C 27.320312 1.125 34.875 8.679688 34.875 18 Z M 34.875 18 "/>
    <path style=" stroke:none;fill-rule:nonzero;fill:rgb(40%,30.588235%,15.294118%);fill-opacity:1;" d="M 14.0625 15.1875 C 14.0625 16.742188 12.804688 18 11.25 18 C 9.695312 18 8.4375 16.742188 8.4375 15.1875 C 8.4375 13.632812 9.695312 12.375 11.25 12.375 C 12.804688 12.375 14.0625 13.632812 14.0625 15.1875 Z M 14.0625 15.1875 "/>
    <path style=" stroke:none;fill-rule:nonzero;fill:rgb(40%,30.588235%,15.294118%);fill-opacity:1;" d="M 27.5625 15.1875 C 27.5625 16.742188 26.304688 18 24.75 18 C 23.195312 18 21.9375 16.742188 21.9375 15.1875 C 21.9375 13.632812 23.195312 12.375 24.75 12.375 C 26.304688 12.375 27.5625 13.632812 27.5625 15.1875 Z M 27.5625 15.1875 "/>
    <path style=" stroke:none;fill-rule:nonzero;fill:rgb(56.862745%,45.882353%,14.117647%);fill-opacity:1;" d="M 28.238281 9.589844 C 26.417969 8.050781 24.007812 7.40625 21.660156 7.828125 C 21.335938 7.890625 21.050781 6.691406 21.445312 6.613281 C 24.152344 6.128906 26.933594 6.875 29.035156 8.648438 C 29.339844 8.910156 28.488281 9.804688 28.238281 9.589844 Z M 14.335938 7.742188 C 11.992188 7.320312 9.582031 7.96875 7.757812 9.503906 C 7.511719 9.722656 6.660156 8.828125 6.964844 8.5625 C 9.066406 6.789062 11.847656 6.042969 14.554688 6.53125 C 14.949219 6.605469 14.664062 7.804688 14.335938 7.742188 Z M 14.335938 7.742188 "/>
    <path style=" stroke:none;fill-rule:nonzero;fill:rgb(40%,30.588235%,15.294118%);fill-opacity:1;" d="M 20.8125 27 C 20.8125 28.554688 19.554688 29.8125 18 29.8125 C 16.445312 29.8125 15.1875 28.554688 15.1875 27 C 15.1875 25.445312 16.445312 24.1875 18 24.1875 C 19.554688 24.1875 20.8125 25.445312 20.8125 27 Z M 20.8125 27 "/>
  </g>
</svg>