<?xml version="1.0" encoding="UTF-8" standalone="yes"?>
<svg xmlns="http://www.w3.org/2000/svg" xmlns:xlink="http://www.w3.org/1999/xlink" width="48px" height="48px" viewBox="0 0 36 36" version="1.1">
  <g id="surface1">
    <path style=" stroke:none;fill-rule:nonzero;fill:rgb(100%,86.666667%,40.392157%);fill-opacity:1;" d="M 34.875 18 C 34.875 27.320312 27.320312 34.875 18 34.875 C 8.679688 34.875 1.125 27.320312 1.125 18 C 1.125 8.679688 8.679688 1.125 18 1.125 C 27.320312 1.125 34.875 8.679688 34.875 18 Z M 34.875 18 "/>
    <path style=" stroke:none;fill-rule:nonzero;fill:rgb(100%,100%,100%);fill-opacity:1;" d="M 16.59375 13.941406 C 16.59375 17.046875 14.074219 19.566406 10.96875 19.566406 C 7.863281 19.566406 5.34375 17.046875 5.34375 13.941406 C 5.34375 10.835938 7.863281 8.316406 10.96875 8.316406 C 14.074219 8.316406 16.59375 10.835938 16.59375 13.941406 Z M 16.59375 13.941406 "/>
    <path style=" stroke:none;fill-rule:nonzero;fill:rgb(40%,30.588235%,15.294118%);fill-opacity:1;" d="M 12.9375 13.941406 C 12.9375 15.027344 12.054688 15.910156 10.96875 15.910156 C 9.882812 15.910156 9 15.027344 9 13.941406 C 9 12.855469 9.882812 11.972656 10.96875 11.972656 C 12.054688 11.972656 12.9375 12.855469 12.9375 13.941406 Z M 12.9375 13.941406 "/>
    <path style=" stroke:none;fill-rule:nonzero;fill:rgb(100%,100%,100%);fill-opacity:1;" d="M 30.65625 13.941406 C 30.65625 17.046875 28.136719 19.566406 25.03125 19.566406 C 21.925781 19.566406 19.40625 17.046875 19.40625 13.941406 C 19.40625 10.835938 21.925781 8.316406 25.03125 8.316406 C 28.136719 8.316406 30.65625 10.835938 30.65625 13.941406 Z M 30.65625 13.941406 "/>
    <path style=" stroke:none;fill-rule:nonzero;fill:rgb(40%,30.588235%,15.294118%);fill-opacity:1;" d="M 27 13.941406 C 27 15.027344 26.117188 15.910156 25.03125 15.910156 C 23.945312 15.910156 23.0625 15.027344 23.0625 13.941406 C 23.0625 12.855469 23.945312 11.972656 25.03125 11.972656 C 26.117188 11.972656 27 12.855469 27 13.941406 Z M 27 13.941406 "/>
    <path style=" stroke:none;fill-rule:nonzero;fill:rgb(40%,30.588235%,15.294118%);fill-opacity:1;" d="M 26.816406 24.75 C 25.851562 22.730469 23.507812 21.375 18 21.375 C 12.492188 21.375 10.148438 22.730469 9.183594 24.75 C 8.667969 25.828125 9.40625 27.5625 9.40625 27.5625 C 10.324219 29.746094 10.195312 30.375 18 30.375 C 25.796875 30.375 25.675781 29.746094 26.59375 27.5625 C 26.59375 27.5625 27.332031 25.828125 26.816406 24.75 Z M 26.816406 24.75 "/>
    <path style=" stroke:none;fill-rule:nonzero;fill:rgb(100%,100%,100%);fill-opacity:1;" d="M 24.390625 24.167969 C 24.4375 24.007812 24.390625 23.835938 24.269531 23.71875 C 24.269531 23.71875 22.839844 22.5 18 22.5 C 13.160156 22.5 11.730469 23.71875 11.730469 23.71875 C 11.609375 23.835938 11.5625 24.007812 11.609375 24.167969 L 11.71875 24.484375 C 11.769531 24.628906 11.9375 24.75 12.089844 24.75 L 23.910156 24.75 C 24.074219 24.742188 24.21875 24.636719 24.28125 24.484375 Z M 24.390625 24.167969 "/>
    <path style=" stroke:none;fill-rule:nonzero;fill:rgb(56.862745%,45.882353%,14.117647%);fill-opacity:1;" d="M 28.238281 7.570312 C 26.417969 6.03125 24.007812 5.386719 21.660156 5.804688 C 21.335938 5.871094 21.050781 4.667969 21.445312 4.59375 C 24.152344 4.109375 26.933594 4.851562 29.035156 6.625 C 29.339844 6.890625 28.488281 7.785156 28.238281 7.570312 Z M 14.335938 5.722656 C 11.992188 5.300781 9.582031 5.945312 7.757812 7.484375 C 7.511719 7.703125 6.660156 6.804688 6.964844 6.542969 C 9.066406 4.769531 11.847656 4.023438 14.554688 4.507812 C 14.949219 4.585938 14.664062 5.785156 14.335938 5.722656 Z M 14.335938 5.722656 "/>
  </g>
</svg>