<?xml version="1.0" encoding="UTF-8" standalone="yes"?>
<svg xmlns="http://www.w3.org/2000/svg" xmlns:xlink="http://www.w3.org/1999/xlink" width="48px" height="48px" viewBox="0 0 36 36" version="1.1">
  <g id="surface1">
    <path style=" stroke:none;fill-rule:nonzero;fill:rgb(100%,86.666667%,40.392157%);fill-opacity:1;" d="M 17.992188 1.125 C 8.703125 1.125 1.125 8.679688 1.125 18 C 1.125 20.738281 9.988281 30.859375 14.074219 33.496094 C 15.195312 34.203125 16.707031 34.875 17.992188 34.875 C 19.3125 34.875 20.828125 34.203125 21.945312 33.496094 C 26.03125 30.859375 34.863281 20.738281 34.863281 18 C 34.863281 8.679688 27.316406 1.125 17.992188 1.125 Z M 17.992188 1.125 "/>
    <path style=" stroke:none;fill-rule:nonzero;fill:rgb(100%,100%,100%);fill-opacity:1;" d="M 17.175781 13.890625 C 17.175781 16.996094 14.648438 19.515625 11.535156 19.515625 C 8.417969 19.515625 5.925781 16.996094 5.925781 13.890625 C 5.925781 10.785156 8.417969 8.265625 11.535156 8.265625 C 14.648438 8.265625 17.175781 10.785156 17.175781 13.890625 Z M 17.175781 13.890625 "/>
    <path style=" stroke:none;fill-rule:nonzero;fill:rgb(40%,30.588235%,15.294118%);fill-opacity:1;" d="M 13.503906 13.890625 C 13.503906 14.976562 12.636719 15.859375 11.535156 15.859375 C 10.484375 15.859375 9.566406 14.976562 9.566406 13.890625 C 9.566406 12.800781 10.484375 11.921875 11.535156 11.921875 C 12.058594 11.917969 12.5625 12.125 12.929688 12.496094 C 13.300781 12.863281 13.507812 13.367188 13.503906 13.890625 Z M 13.503906 13.890625 "/>
    <path style=" stroke:none;fill-rule:nonzero;fill:rgb(100%,100%,100%);fill-opacity:1;" d="M 30.09375 13.890625 C 30.09375 16.996094 27.566406 19.515625 24.484375 19.515625 C 21.371094 19.515625 18.84375 16.996094 18.84375 13.890625 C 18.84375 10.785156 21.371094 8.265625 24.484375 8.265625 C 27.566406 8.265625 30.09375 10.785156 30.09375 13.890625 Z M 30.09375 13.890625 "/>
    <path style=" stroke:none;fill-rule:nonzero;fill:rgb(40%,30.588235%,15.294118%);fill-opacity:1;" d="M 26.4375 13.890625 C 26.4375 14.976562 25.554688 15.859375 24.492188 15.859375 C 23.378906 15.859375 22.5 14.976562 22.5 13.890625 C 22.5 12.800781 23.378906 11.921875 24.492188 11.921875 C 25.554688 11.921875 26.4375 12.800781 26.4375 13.890625 Z M 22.703125 25.910156 C 22.703125 29.644531 20.597656 32.671875 17.992188 32.671875 C 15.425781 32.671875 13.316406 29.644531 13.316406 25.910156 C 13.316406 22.175781 15.425781 19.148438 17.992188 19.148438 C 20.597656 19.148438 22.703125 22.175781 22.703125 25.910156 Z M 22.703125 25.910156 "/>
    <path style=" stroke:none;fill-rule:nonzero;fill:rgb(29.803922%,20.784314%,14.901961%);fill-opacity:1;" d="M 19.113281 23.265625 C 18.75 23.253906 18.222656 23.605469 18.421875 24.53125 C 18.519531 25 19.144531 25.566406 19.144531 26.320312 C 19.144531 27.855469 16.871094 27.855469 16.871094 26.320312 C 16.871094 25.566406 17.5 25 17.597656 24.53125 C 17.796875 23.605469 17.234375 23.253906 16.90625 23.265625 C 15.953125 23.289062 14.402344 24.386719 14.402344 26.242188 C 14.402344 28.332031 16.015625 30.023438 17.992188 30.023438 C 20.003906 30.023438 21.617188 28.332031 21.617188 26.242188 C 21.617188 24.386719 20.070312 23.289062 19.113281 23.265625 Z M 19.113281 23.265625 "/>
    <path style=" stroke:none;fill-rule:nonzero;fill:rgb(100%,44.313725%,49.803922%);fill-opacity:1;" d="M 17.992188 29.167969 C 15.820312 29.167969 15.226562 29.808594 15.226562 29.808594 C 15.785156 31.011719 16.808594 31.820312 17.992188 31.820312 C 19.210938 31.820312 20.234375 31.011719 20.792969 29.808594 C 20.792969 29.808594 20.167969 29.167969 17.992188 29.167969 Z M 17.992188 29.167969 "/>
    <path style=" stroke:none;fill-rule:nonzero;fill:rgb(56.862745%,45.882353%,14.117647%);fill-opacity:1;" d="M 12.753906 4.332031 C 11.40625 6.289062 9.261719 7.535156 6.859375 7.738281 C 6.527344 7.757812 6.5625 8.992188 6.988281 8.964844 C 9.722656 8.734375 12.195312 7.292969 13.777344 5.035156 C 14.007812 4.703125 12.953125 4.058594 12.753906 4.332031 Z M 29.128906 7.652344 C 26.757812 7.449219 24.617188 6.203125 23.230469 4.246094 C 23.066406 3.96875 22.011719 4.617188 22.242188 4.949219 C 23.792969 7.207031 26.296875 8.648438 29.03125 8.878906 C 29.425781 8.90625 29.460938 7.671875 29.128906 7.652344 Z M 29.128906 7.652344 "/>
    <path style=" stroke:none;fill-rule:nonzero;fill:rgb(84.705882%,66.27451%,25.490196%);fill-opacity:1;" d="M 27.1875 25.707031 C 29.460938 24.082031 29.855469 20.660156 32.785156 19.574219 C 36.410156 18.222656 34.300781 20.246094 33.90625 23.394531 C 33.347656 27.753906 30.019531 30.25 29.523438 33.828125 C 29.492188 34.085938 29.523438 34.875 29.523438 34.875 L 21.816406 34.875 C 21.816406 34.875 21.914062 33.347656 21.816406 32.84375 C 21.585938 31.25 22.769531 28.875 27.1875 25.707031 Z M 8.835938 25.707031 C 6.5625 24.082031 6.167969 20.660156 3.234375 19.574219 C -0.390625 18.222656 1.71875 20.246094 2.113281 23.394531 C 2.671875 27.753906 6 30.25 6.496094 33.828125 C 6.527344 34.085938 6.496094 34.875 6.496094 34.875 L 14.171875 34.875 C 14.171875 34.875 14.105469 33.347656 14.171875 32.84375 C 14.433594 31.25 13.25 28.875 8.835938 25.707031 Z M 8.835938 25.707031 "/>
  </g>
</svg>