<?xml version="1.0" encoding="UTF-8" standalone="yes"?>
<svg xmlns="http://www.w3.org/2000/svg" xmlns:xlink="http://www.w3.org/1999/xlink" width="48px" height="48px" viewBox="0 0 36 36" version="1.1">
  <g id="surface1">
    <path style=" stroke:none;fill-rule:nonzero;fill:rgb(100%,86.666667%,40.392157%);fill-opacity:1;" d="M 34.875 18 C 34.875 27.320312 27.320312 34.875 18 34.875 C 8.679688 34.875 1.125 27.320312 1.125 18 C 1.125 8.679688 8.679688 1.125 18 1.125 C 27.320312 1.125 34.875 8.679688 34.875 18 Z M 34.875 18 "/>
    <path style=" stroke:none;fill-rule:nonzero;fill:rgb(40%,30.588235%,15.294118%);fill-opacity:1;" d="M 14.359375 15.105469 C 13.3125 12.230469 11.738281 10.792969 10.160156 10.792969 C 8.585938 10.792969 7.011719 12.230469 5.964844 15.105469 C 5.863281 15.394531 6.402344 15.917969 6.671875 15.632812 C 7.683594 14.5625 8.898438 14.136719 10.164062 14.136719 C 11.429688 14.136719 12.640625 14.5625 13.652344 15.632812 C 13.921875 15.917969 14.460938 15.394531 14.359375 15.105469 Z M 26.660156 15.105469 C 25.613281 12.230469 24.039062 10.792969 22.464844 10.792969 C 20.886719 10.792969 19.3125 12.230469 18.265625 15.105469 C 18.164062 15.394531 18.703125 15.917969 18.972656 15.632812 C 19.984375 14.5625 21.199219 14.136719 22.464844 14.136719 C 23.730469 14.136719 24.941406 14.5625 25.953125 15.632812 C 26.222656 15.917969 26.761719 15.394531 26.660156 15.105469 Z M 26.660156 15.105469 "/>
    <path style=" stroke:none;fill-rule:nonzero;fill:rgb(40%,30.588235%,15.294118%);fill-opacity:1;" d="M 25.875 21.402344 C 25.875 20.949219 25.609375 20.386719 24.851562 20.242188 C 22.902344 19.867188 20.023438 19.484375 16.3125 19.484375 C 12.601562 19.484375 9.722656 19.867188 7.773438 20.242188 C 7.015625 20.386719 6.75 20.949219 6.75 21.402344 C 6.75 25.492188 9.90625 29.609375 16.3125 29.609375 C 22.71875 29.609375 25.875 25.492188 25.875 21.402344 Z M 25.875 21.402344 "/>
    <path style=" stroke:none;fill-rule:nonzero;fill:rgb(100%,100%,100%);fill-opacity:1;" d="M 23.453125 21.535156 C 22.214844 21.328125 19.605469 20.964844 16.3125 20.964844 C 13.019531 20.964844 10.410156 21.328125 9.171875 21.535156 C 8.445312 21.65625 8.402344 21.953125 8.453125 22.371094 C 8.484375 22.617188 8.527344 22.917969 8.601562 23.242188 C 8.679688 23.601562 8.75 23.769531 9.3125 23.703125 C 10.394531 23.574219 22.234375 23.574219 23.3125 23.703125 C 23.878906 23.769531 23.945312 23.601562 24.023438 23.242188 C 24.097656 22.917969 24.144531 22.617188 24.175781 22.371094 C 24.222656 21.953125 24.179688 21.65625 23.453125 21.535156 Z M 23.453125 21.535156 "/>
    <path style=" stroke:none;fill-rule:nonzero;fill:rgb(39.607843%,69.411765%,93.72549%);fill-opacity:1;" d="M 33.75 16.980469 C 33.75 21.015625 28.265625 21.015625 28.265625 16.980469 C 28.265625 14.035156 31.007812 11.15625 31.007812 11.15625 C 31.007812 11.15625 33.75 14.035156 33.75 16.980469 Z M 33.75 16.980469 "/>
  </g>
</svg>