<?xml version="1.0" encoding="UTF-8" standalone="yes"?>
<svg xmlns="http://www.w3.org/2000/svg" xmlns:xlink="http://www.w3.org/1999/xlink" width="48px" height="48px" viewBox="0 0 36 36" version="1.1">
  <g id="surface1">
    <path style=" stroke:none;fill-rule:nonzero;fill:rgb(25.882353%,67.843137%,88.627451%);fill-opacity:1;" d="M 29.835938 33.800781 C 29.835938 34.390625 26.394531 34.875 22.144531 34.875 C 17.898438 34.875 14.453125 34.390625 14.453125 33.800781 C 14.453125 33.207031 17.898438 32.726562 22.144531 32.726562 C 26.394531 32.726562 29.835938 33.207031 29.835938 33.800781 Z M 29.835938 33.800781 "/>
    <path style=" stroke:none;fill-rule:nonzero;fill:rgb(100%,86.666667%,40.392157%);fill-opacity:1;" d="M 34.875 18 C 34.875 27.320312 28.820312 34.875 18 34.875 C 8.679688 34.875 1.125 27.320312 1.125 18 C 1.125 8.679688 8.679688 1.125 18 1.125 C 27.320312 1.125 34.875 8.679688 34.875 18 Z M 34.875 18 "/>
    <path style=" stroke:none;fill-rule:nonzero;fill:rgb(25.882353%,67.843137%,88.627451%);fill-opacity:1;" d="M 24.882812 34.613281 L 21.960938 34.613281 C 22.679688 33.015625 22.679688 31.183594 21.960938 29.585938 L 24.882812 29.585938 C 25.605469 31.183594 25.605469 33.015625 24.882812 34.613281 Z M 24.882812 34.613281 "/>
    <path style=" stroke:none;fill-rule:nonzero;fill:rgb(40%,30.588235%,15.294118%);fill-opacity:1;" d="M 25.015625 29.285156 C 24.898438 30.234375 24.015625 31.558594 22.695312 31.394531 C 21.621094 31.257812 20.578125 30.179688 19.207031 30.003906 C 17.820312 29.828125 16.53125 30.601562 15.449219 30.464844 C 13.957031 30.277344 13.640625 28.808594 13.757812 27.867188 C 13.972656 26.167969 16.667969 25.105469 19.773438 25.496094 C 22.882812 25.890625 25.230469 27.585938 25.015625 29.285156 Z M 25.015625 29.285156 "/>
    <path style=" stroke:none;fill-rule:nonzero;fill:rgb(100%,100%,100%);fill-opacity:1;" d="M 17.15625 16.3125 C 17.15625 19.417969 14.636719 21.9375 11.53125 21.9375 C 8.425781 21.9375 5.90625 19.417969 5.90625 16.3125 C 5.90625 13.207031 8.425781 10.6875 11.53125 10.6875 C 14.636719 10.6875 17.15625 13.207031 17.15625 16.3125 Z M 17.15625 16.3125 "/>
    <path style=" stroke:none;fill-rule:nonzero;fill:rgb(40%,30.588235%,15.294118%);fill-opacity:1;" d="M 13.5 16.3125 C 13.5 17.398438 12.617188 18.28125 11.53125 18.28125 C 10.445312 18.28125 9.5625 17.398438 9.5625 16.3125 C 9.5625 15.226562 10.445312 14.34375 11.53125 14.34375 C 12.617188 14.34375 13.5 15.226562 13.5 16.3125 Z M 13.5 16.3125 "/>
    <path style=" stroke:none;fill-rule:nonzero;fill:rgb(100%,100%,100%);fill-opacity:1;" d="M 30.09375 16.3125 C 30.09375 19.417969 27.574219 21.9375 24.46875 21.9375 C 21.363281 21.9375 18.84375 19.417969 18.84375 16.3125 C 18.84375 13.207031 21.363281 10.6875 24.46875 10.6875 C 27.574219 10.6875 30.09375 13.207031 30.09375 16.3125 Z M 30.09375 16.3125 "/>
    <path style=" stroke:none;fill-rule:nonzero;fill:rgb(40%,30.588235%,15.294118%);fill-opacity:1;" d="M 26.4375 16.3125 C 26.4375 17.398438 25.554688 18.28125 24.46875 18.28125 C 23.382812 18.28125 22.5 17.398438 22.5 16.3125 C 22.5 15.226562 23.382812 14.34375 24.46875 14.34375 C 25.554688 14.34375 26.4375 15.226562 26.4375 16.3125 Z M 26.4375 16.3125 "/>
    <path style=" stroke:none;fill-rule:nonzero;fill:rgb(56.862745%,45.882353%,14.117647%);fill-opacity:1;" d="M 29.925781 10.65625 C 28.105469 9.121094 25.695312 8.472656 23.351562 8.894531 C 23.023438 8.957031 22.738281 7.757812 23.132812 7.679688 C 25.839844 7.195312 28.621094 7.941406 30.722656 9.714844 C 31.027344 9.980469 30.175781 10.875 29.925781 10.65625 Z M 12.648438 6.558594 C 10.304688 6.140625 7.894531 6.785156 6.074219 8.320312 C 5.824219 8.539062 4.972656 7.644531 5.277344 7.378906 C 7.378906 5.605469 10.160156 4.863281 12.867188 5.347656 C 13.265625 5.421875 12.976562 6.625 12.648438 6.558594 Z M 12.648438 6.558594 "/>
  </g>
</svg>