<?xml version="1.0" encoding="UTF-8" standalone="yes"?>
<svg xmlns="http://www.w3.org/2000/svg" xmlns:xlink="http://www.w3.org/1999/xlink" width="48px" height="48px" viewBox="0 0 36 36" version="1.1">
  <defs>
    <filter id="alpha" filterUnits="objectBoundingBox" x="0%" y="0%" width="100%" height="100%">
      <feColorMatrix type="matrix" in="SourceGraphic" values="0 0 0 0 1 0 0 0 0 1 0 0 0 0 1 0 0 0 1 0"/>
    </filter>
    <mask id="mask0">
      <g filter="url(#alpha)">
        <rect x="0" y="0" width="36" height="36" style="fill:rgb(0%,0%,0%);fill-opacity:0.501961;stroke:none;"/>
      </g>
    </mask>
    <mask id="mask1">
      <g filter="url(#alpha)">
        <rect x="0" y="0" width="36" height="36" style="fill:rgb(0%,0%,0%);fill-opacity:0.8;stroke:none;"/>
      </g>
    </mask>
    <mask id="mask2">
      <g filter="url(#alpha)">
        <rect x="0" y="0" width="36" height="36" style="fill:rgb(0%,0%,0%);fill-opacity:0.8;stroke:none;"/>
      </g>
    </mask>
    <clipPath id="clip2">
      <rect width="36" height="36"/>
    </clipPath>
    <clipPath id="clip3">
      <rect width="36" height="36"/>
    </clipPath>
    <clipPath id="clip1">
      <rect width="36" height="36"/>
    </clipPath>
    <g id="surface7" clip-path="url(#clip2)">
      <path style=" stroke:none;fill-rule:nonzero;fill:rgb(100%,44.313725%,49.803922%);fill-opacity:1;" d="M 29.074219 17.039062 C 31.820312 17.039062 34.050781 19.265625 34.050781 22.011719 C 34.050781 24.761719 31.820312 26.988281 29.074219 26.988281 C 26.328125 26.988281 24.097656 24.761719 24.097656 22.011719 C 24.097656 19.265625 26.328125 17.039062 29.074219 17.039062 Z M 29.074219 17.039062 "/>
    </g>
    <g id="surface10" clip-path="url(#clip3)">
      <path style=" stroke:none;fill-rule:nonzero;fill:rgb(100%,44.313725%,49.803922%);fill-opacity:1;" d="M 11.898438 22.011719 C 11.898438 24.761719 9.671875 26.988281 6.925781 26.988281 C 4.179688 26.988281 1.953125 24.761719 1.953125 22.011719 C 1.953125 19.265625 4.179688 17.039062 6.925781 17.039062 C 9.671875 17.039062 11.898438 19.265625 11.898438 22.011719 Z M 11.898438 22.011719 "/>
    </g>
    <g id="surface12" clip-path="url(#clip1)">
      <use xlink:href="#surface7" mask="url(#mask1)"/>
      <use xlink:href="#surface10" mask="url(#mask2)"/>
    </g>
  </defs>
  <g id="surface1">
    <path style=" stroke:none;fill-rule:nonzero;fill:rgb(78.039216%,90.588235%,33.333333%);fill-opacity:1;" d="M 34.875 18 C 34.875 27.320312 27.320312 34.875 18 34.875 C 8.679688 34.875 1.125 27.320312 1.125 18 C 1.125 8.679688 8.679688 1.125 18 1.125 C 27.320312 1.125 34.875 8.679688 34.875 18 Z M 34.875 18 "/>
    <path style=" stroke:none;fill-rule:nonzero;fill:rgb(25.882353%,36.862745%,12.941176%);fill-opacity:1;" d="M 14.0625 15.167969 C 14.0625 16.566406 12.929688 17.699219 11.53125 17.699219 C 10.132812 17.699219 9 16.566406 9 15.167969 C 9 13.769531 10.132812 12.636719 11.53125 12.636719 C 12.929688 12.636719 14.0625 13.769531 14.0625 15.167969 Z M 14.0625 15.167969 "/>
    <path style=" stroke:none;fill-rule:nonzero;fill:rgb(25.882353%,36.862745%,12.941176%);fill-opacity:1;" d="M 27 15.167969 C 27 16.566406 25.867188 17.699219 24.46875 17.699219 C 23.074219 17.699219 21.9375 16.566406 21.9375 15.167969 C 21.9375 13.769531 23.074219 12.636719 24.46875 12.636719 C 25.867188 12.636719 27 13.769531 27 15.167969 Z M 27 15.167969 "/>
    <path style=" stroke:none;fill-rule:nonzero;fill:rgb(25.882353%,36.862745%,12.941176%);fill-opacity:1;" d="M 21.015625 24.316406 L 14.984375 24.316406 C 14.566406 24.316406 14.566406 22.890625 14.984375 22.890625 L 21.019531 22.890625 C 21.433594 22.890625 21.433594 24.316406 21.015625 24.316406 Z M 21.015625 24.316406 "/>
    <path style=" stroke:none;fill-rule:nonzero;fill:rgb(25.882353%,36.862745%,12.941176%);fill-opacity:1;" d="M 13.308594 19.667969 C 13.882812 20.769531 14.226562 22.128906 14.226562 23.605469 C 14.226562 25.082031 13.882812 26.4375 13.308594 27.542969 C 14.492188 27.019531 15.351562 25.453125 15.351562 23.605469 C 15.351562 21.753906 14.492188 20.1875 13.308594 19.667969 Z M 22.691406 27.542969 C 22.117188 26.4375 21.777344 25.082031 21.777344 23.605469 C 21.777344 22.128906 22.117188 20.769531 22.691406 19.667969 C 21.507812 20.1875 20.648438 21.753906 20.648438 23.605469 C 20.648438 25.453125 21.507812 27.019531 22.691406 27.542969 Z M 22.691406 27.542969 "/>
    <path style=" stroke:none;fill-rule:nonzero;fill:rgb(45.882353%,65.882353%,26.27451%);fill-opacity:1;" d="M 14.386719 8.945312 C 12.566406 10.484375 10.15625 11.128906 7.808594 10.710938 C 7.484375 10.644531 7.199219 11.847656 7.59375 11.921875 C 10.300781 12.40625 13.082031 11.664062 15.183594 9.890625 C 15.488281 9.625 14.636719 8.730469 14.386719 8.945312 Z M 28.1875 10.625 C 25.84375 11.042969 23.433594 10.398438 21.613281 8.863281 C 21.363281 8.644531 20.511719 9.539062 20.816406 9.804688 C 22.917969 11.578125 25.699219 12.324219 28.40625 11.835938 C 28.800781 11.761719 28.515625 10.558594 28.1875 10.625 Z M 28.1875 10.625 "/>
    <use xlink:href="#surface12" mask="url(#mask0)"/>
  </g>
</svg>