<?xml version="1.0" encoding="UTF-8" standalone="yes"?>
<svg xmlns="http://www.w3.org/2000/svg" xmlns:xlink="http://www.w3.org/1999/xlink" width="48px" height="48px" viewBox="0 0 36 36" version="1.1">
  <g id="surface1">
    <path style=" stroke:none;fill-rule:nonzero;fill:rgb(100%,86.666667%,40.392157%);fill-opacity:1;" d="M 34.875 18 C 34.875 27.320312 27.320312 34.875 18 34.875 C 8.679688 34.875 1.125 27.320312 1.125 18 C 1.125 8.679688 8.679688 1.125 18 1.125 C 27.320312 1.125 34.875 8.679688 34.875 18 Z M 34.875 18 "/>
    <path style=" stroke:none;fill-rule:nonzero;fill:rgb(40%,30.588235%,15.294118%);fill-opacity:1;" d="M 27.28125 17.046875 C 27.28125 18.601562 26.019531 19.859375 24.46875 19.859375 C 22.914062 19.859375 21.65625 18.601562 21.65625 17.046875 C 21.65625 15.496094 22.914062 14.234375 24.46875 14.234375 C 26.019531 14.234375 27.28125 15.496094 27.28125 17.046875 Z M 27.28125 17.046875 "/>
    <path style=" stroke:none;fill-rule:nonzero;fill:rgb(40%,30.588235%,15.294118%);fill-opacity:1;" d="M 14.34375 17.046875 C 14.34375 18.601562 13.082031 19.859375 11.53125 19.859375 C 9.976562 19.859375 8.71875 18.601562 8.71875 17.046875 C 8.71875 15.496094 9.976562 14.234375 11.53125 14.234375 C 13.082031 14.234375 14.34375 15.496094 14.34375 17.046875 Z M 14.34375 17.046875 "/>
    <path style=" stroke:none;fill-rule:nonzero;fill:rgb(56.862745%,45.882353%,14.117647%);fill-opacity:1;" d="M 14.386719 8.558594 C 12.566406 10.09375 10.15625 10.742188 7.808594 10.320312 C 7.484375 10.257812 7.199219 11.457031 7.59375 11.53125 C 10.300781 12.019531 13.082031 11.273438 15.183594 9.5 C 15.488281 9.234375 14.636719 8.339844 14.386719 8.558594 Z M 28.1875 10.234375 C 25.84375 10.65625 23.433594 10.007812 21.613281 8.472656 C 21.363281 8.253906 20.511719 9.148438 20.816406 9.414062 C 22.917969 11.1875 25.699219 11.933594 28.40625 11.445312 C 28.800781 11.371094 28.515625 10.171875 28.1875 10.234375 Z M 28.1875 10.234375 "/>
    <path style=" stroke:none;fill-rule:nonzero;fill:rgb(89.803922%,89.803922%,89.803922%);fill-opacity:1;" d="M 2.5 21.785156 L 16.128906 29.746094 L 18.71875 26.078125 L 6.644531 15.910156 C 3.0625 13.382812 -1.082031 19.257812 2.5 21.785156 Z M 2.5 21.785156 "/>
    <path style=" stroke:none;fill-rule:nonzero;fill:rgb(100%,100%,100%);fill-opacity:1;" d="M 3.253906 20.558594 L 16.644531 29.015625 L 18.199219 26.8125 L 5.742188 17.035156 C 3.664062 15.570312 1.179688 19.09375 3.253906 20.558594 Z M 3.253906 20.558594 "/>
    <path style=" stroke:none;fill-rule:nonzero;fill:rgb(92.941176%,29.803922%,36.078431%);fill-opacity:1;" d="M 4.207031 20.351562 L 16.671875 28.484375 L 17.707031 27.015625 L 5.863281 18 Z M 4.207031 20.351562 "/>
    <path style=" stroke:none;fill-rule:nonzero;fill:rgb(64.705882%,12.54902%,23.529412%);fill-opacity:1;" d="M 5.863281 18 C 5.644531 17.847656 5.097656 18.25 4.640625 18.898438 C 4.183594 19.546875 3.988281 20.195312 4.207031 20.351562 C 4.421875 20.503906 4.96875 20.101562 5.429688 19.453125 C 5.886719 18.804688 6.082031 18.152344 5.863281 18 Z M 5.863281 18 "/>
    <path style=" stroke:none;fill-rule:nonzero;fill:rgb(31.764706%,34.117647%,35.686275%);fill-opacity:1;" d="M 10.164062 23.34375 L 9.042969 24.933594 L 8.539062 24.617188 L 9.664062 23.027344 Z M 11.550781 24.304688 L 10.472656 25.828125 L 9.972656 25.511719 L 11.046875 23.984375 Z M 12.925781 25.273438 L 11.894531 26.738281 L 11.390625 26.417969 L 12.425781 24.953125 Z M 14.3125 26.234375 L 13.378906 27.558594 L 12.878906 27.234375 L 13.8125 25.914062 Z M 15.695312 27.195312 L 14.832031 28.417969 L 14.335938 28.09375 L 15.199219 26.871094 Z M 15.695312 27.195312 "/>
    <path style=" stroke:none;fill-rule:nonzero;fill:rgb(40%,30.588235%,15.294118%);fill-opacity:1;" d="M 23.324219 24.710938 C 19.96875 24.871094 16.796875 26.550781 14.773438 29.230469 C 14.277344 29.902344 16.027344 31.207031 16.519531 30.53125 C 17.855469 28.765625 20.335938 27.046875 23.421875 26.886719 C 24.246094 26.84375 24.210938 24.679688 23.324219 24.710938 Z M 23.324219 24.710938 "/>
  </g>
</svg>