<?xml version="1.0" encoding="UTF-8" standalone="yes"?>
<svg xmlns="http://www.w3.org/2000/svg" xmlns:xlink="http://www.w3.org/1999/xlink" width="48px" height="48px" viewBox="0 0 36 36" version="1.1">
  <g id="surface1">
    <path style=" stroke:none;fill-rule:nonzero;fill:rgb(100%,86.666667%,40.392157%);fill-opacity:1;" d="M 34.769531 18.054688 C 34.769531 27.34375 27.238281 34.875 17.945312 34.875 C 8.65625 34.875 1.125 27.34375 1.125 18.054688 C 1.125 8.761719 8.65625 1.230469 17.945312 1.230469 C 27.238281 1.230469 34.769531 8.761719 34.769531 18.054688 Z M 34.769531 18.054688 "/>
    <path style=" stroke:none;fill-rule:nonzero;fill:rgb(40%,30.588235%,15.294118%);fill-opacity:1;" d="M 27.367188 16.875 C 27.367188 18.429688 26.109375 19.6875 24.554688 19.6875 C 23.003906 19.6875 21.742188 18.429688 21.742188 16.875 C 21.742188 15.320312 23.003906 14.0625 24.554688 14.0625 C 26.109375 14.0625 27.367188 15.320312 27.367188 16.875 Z M 27.367188 16.875 "/>
    <path style=" stroke:none;fill-rule:nonzero;fill:rgb(40%,30.588235%,15.294118%);fill-opacity:1;" d="M 14.148438 16.875 C 14.148438 18.429688 12.890625 19.6875 11.335938 19.6875 C 9.785156 19.6875 8.523438 18.429688 8.523438 16.875 C 8.523438 15.320312 9.785156 14.0625 11.335938 14.0625 C 12.890625 14.0625 14.148438 15.320312 14.148438 16.875 Z M 14.148438 16.875 "/>
    <path style=" stroke:none;fill-rule:nonzero;fill:rgb(80%,81.176471%,83.137255%);fill-opacity:1;" d="M 18 1.125 C 14.730469 1.121094 11.53125 2.070312 8.796875 3.859375 C 18.707031 8.988281 27.425781 16.84375 32.246094 27.042969 C 33.964844 24.339844 34.878906 21.203125 34.875 18 C 34.875 8.679688 27.320312 1.125 18 1.125 Z M 18 1.125 "/>
    <path style=" stroke:none;fill-rule:nonzero;fill:rgb(100%,100%,100%);fill-opacity:1;" d="M 18.515625 2.007812 C 15.421875 2.007812 12.542969 2.925781 10.132812 4.496094 C 19.519531 8.820312 27.890625 15.359375 32.28125 24.652344 C 34.015625 21.363281 33.890625 17.382812 33.890625 17.382812 C 33.890625 8.890625 27.007812 2.007812 18.515625 2.007812 Z M 18.515625 2.007812 "/>
    <path style=" stroke:none;fill-rule:nonzero;fill:rgb(80%,81.176471%,83.137255%);fill-opacity:1;" d="M 8.902344 3.796875 C 17.078125 3.757812 25.144531 5.644531 32.460938 9.296875 C 34.183594 12.152344 35.015625 15.453125 34.855469 18.785156 C 25.191406 12.816406 13.84375 10.167969 2.535156 11.242188 C 3.878906 8.1875 6.09375 5.597656 8.902344 3.796875 Z M 8.902344 3.796875 "/>
    <path style=" stroke:none;fill-rule:nonzero;fill:rgb(100%,100%,100%);fill-opacity:1;" d="M 9.542969 4.574219 C 17.1875 4.542969 25.085938 6.8125 31.917969 9.988281 C 33.800781 13.667969 33.875 16.660156 33.875 16.660156 C 24.652344 11.757812 14 9.296875 4.140625 10.222656 C 4.140625 10.222656 6.523438 5.851562 9.542969 4.574219 Z M 9.542969 4.574219 "/>
    <path style=" stroke:none;fill-rule:nonzero;fill:rgb(40%,30.588235%,15.294118%);fill-opacity:1;" d="M 22.652344 24.089844 C 19.410156 23.21875 15.875 23.847656 13.128906 25.785156 C 12.453125 26.273438 13.722656 28.050781 14.398438 27.558594 C 16.210938 26.28125 19.09375 25.402344 22.082031 26.191406 C 22.882812 26.402344 23.507812 24.328125 22.652344 24.089844 Z M 22.652344 24.089844 "/>
  </g>
</svg>