<?xml version="1.0" encoding="UTF-8" standalone="yes"?>
<svg xmlns="http://www.w3.org/2000/svg" xmlns:xlink="http://www.w3.org/1999/xlink" width="48px" height="48px" viewBox="0 0 36 36" version="1.1">
  <g id="surface1">
    <path style=" stroke:none;fill-rule:nonzero;fill:rgb(100%,86.666667%,40.392157%);fill-opacity:1;" d="M 34.875 17.996094 C 34.875 27.320312 27.320312 34.875 18 34.875 C 8.679688 34.875 1.125 27.320312 1.125 17.996094 C 1.125 8.679688 8.679688 1.125 18 1.125 C 27.320312 1.125 34.875 8.679688 34.875 17.996094 Z M 34.875 17.996094 "/>
    <path style=" stroke:none;fill-rule:nonzero;fill:rgb(100%,44.313725%,49.803922%);fill-opacity:1;" d="M 23.628906 26.933594 C 20.800781 24.105469 22.066406 25.371094 25.046875 22.386719 C 28.03125 19.40625 26.765625 18.136719 29.59375 20.964844 C 32.417969 23.792969 32.503906 26.550781 30.855469 28.195312 C 29.207031 29.84375 26.453125 29.757812 23.628906 26.933594 Z M 23.628906 26.933594 "/>
    <path style=" stroke:none;fill-rule:nonzero;fill:rgb(88.627451%,34.901961%,42.352941%);fill-opacity:1;" d="M 25.644531 21.789062 L 29.496094 26.835938 L 24.453125 22.984375 Z M 25.644531 21.789062 "/>
    <path style=" stroke:none;fill-rule:nonzero;fill:rgb(40%,30.588235%,15.294118%);fill-opacity:1;" d="M 16.046875 13.980469 C 15 11.105469 13.425781 9.667969 11.847656 9.667969 C 10.273438 9.667969 8.699219 11.105469 7.652344 13.980469 C 7.546875 14.269531 8.089844 14.792969 8.359375 14.507812 C 9.371094 13.4375 10.582031 13.011719 11.847656 13.011719 C 13.113281 13.011719 14.328125 13.4375 15.339844 14.507812 C 15.609375 14.792969 16.148438 14.269531 16.046875 13.980469 Z M 28.347656 13.980469 C 27.300781 11.105469 25.726562 9.667969 24.152344 9.667969 C 22.574219 9.667969 21 11.105469 19.953125 13.980469 C 19.851562 14.269531 20.390625 14.792969 20.660156 14.507812 C 21.671875 13.4375 22.886719 13.011719 24.152344 13.011719 C 25.417969 13.011719 26.628906 13.4375 27.640625 14.507812 C 27.910156 14.792969 28.449219 14.269531 28.347656 13.980469 Z M 28.347656 13.980469 "/>
    <path style=" stroke:none;fill-rule:nonzero;fill:rgb(40%,30.588235%,15.294118%);fill-opacity:1;" d="M 27.0625 18.574219 C 24.628906 22.007812 21.746094 22.875 18 22.875 C 14.253906 22.875 11.371094 22.007812 8.9375 18.574219 C 8.597656 18.09375 7.707031 18.398438 7.902344 19.089844 C 9.183594 23.59375 13.527344 26.214844 18 26.214844 C 22.472656 26.214844 26.816406 23.59375 28.097656 19.089844 C 28.292969 18.394531 27.402344 18.09375 27.0625 18.574219 Z M 27.0625 18.574219 "/>
  </g>
</svg>