<?xml version="1.0" encoding="UTF-8" standalone="yes"?>
<svg xmlns="http://www.w3.org/2000/svg" xmlns:xlink="http://www.w3.org/1999/xlink" width="48px" height="48px" viewBox="0 0 36 36" version="1.1">
  <g id="surface1">
    <path style=" stroke:none;fill-rule:nonzero;fill:rgb(78.039216%,90.588235%,33.333333%);fill-opacity:1;" d="M 33.46875 17.214844 C 33.46875 30.410156 18 34.875 18 34.875 C 18 34.875 2.53125 30.410156 2.53125 17.214844 C 2.53125 7.382812 8.714844 1.125 18 1.125 C 27.285156 1.125 33.46875 7.382812 33.46875 17.214844 Z M 33.46875 17.214844 "/>
    <path style=" stroke:none;fill-rule:nonzero;fill:rgb(27.058824%,27.843137%,28.627451%);fill-opacity:1;" d="M 13.148438 14.828125 C 15.378906 16.980469 16.03125 19.839844 14.609375 21.210938 C 13.191406 22.585938 10.230469 21.953125 8.003906 19.800781 C 5.773438 17.644531 5.117188 14.789062 6.539062 13.414062 C 7.960938 12.039062 10.921875 12.671875 13.148438 14.828125 Z M 13.148438 14.828125 "/>
    <path style=" stroke:none;fill-rule:nonzero;fill:rgb(27.058824%,27.843137%,28.627451%);fill-opacity:1;" d="M 14.867188 17.199219 C 13.414062 15.929688 11.945312 14.867188 10.351562 13.988281 C 9.550781 13.546875 8.726562 13.152344 7.886719 12.804688 C 7.03125 12.453125 6.152344 12.148438 5.238281 11.8125 C 6.207031 11.683594 7.191406 11.753906 8.144531 11.964844 C 10.082031 12.390625 11.847656 13.371094 13.234375 14.785156 C 13.914062 15.484375 14.515625 16.285156 14.867188 17.199219 Z M 14.867188 17.199219 "/>
    <path style=" stroke:none;fill-rule:nonzero;fill:rgb(100%,100%,100%);fill-opacity:1;" d="M 11.460938 14.089844 C 12.605469 14.789062 13.226562 15.824219 12.847656 16.398438 C 12.472656 16.972656 11.238281 16.871094 10.09375 16.167969 C 8.953125 15.46875 8.332031 14.433594 8.710938 13.859375 C 9.085938 13.285156 10.320312 13.386719 11.460938 14.089844 Z M 11.460938 14.089844 "/>
    <path style=" stroke:none;fill-rule:nonzero;fill:rgb(27.058824%,27.843137%,28.627451%);fill-opacity:1;" d="M 22.851562 14.828125 C 20.621094 16.980469 19.964844 19.839844 21.386719 21.210938 C 22.808594 22.585938 25.769531 21.953125 27.996094 19.800781 C 30.226562 17.644531 30.878906 14.785156 29.460938 13.414062 C 28.039062 12.039062 25.078125 12.671875 22.851562 14.828125 Z M 22.851562 14.828125 "/>
    <path style=" stroke:none;fill-rule:nonzero;fill:rgb(27.058824%,27.843137%,28.627451%);fill-opacity:1;" d="M 21.132812 17.199219 C 21.484375 16.285156 22.085938 15.484375 22.765625 14.785156 C 23.453125 14.082031 24.242188 13.480469 25.105469 13.003906 C 25.964844 12.527344 26.890625 12.175781 27.855469 11.964844 C 28.808594 11.753906 29.792969 11.683594 30.761719 11.8125 C 29.84375 12.148438 28.964844 12.453125 28.113281 12.804688 C 27.269531 13.152344 26.449219 13.546875 25.648438 13.988281 C 24.054688 14.867188 22.585938 15.929688 21.132812 17.199219 Z M 21.132812 17.199219 "/>
    <path style=" stroke:none;fill-rule:nonzero;fill:rgb(100%,100%,100%);fill-opacity:1;" d="M 24.535156 14.089844 C 23.394531 14.789062 22.773438 15.824219 23.148438 16.398438 C 23.527344 16.972656 24.761719 16.871094 25.902344 16.167969 C 27.046875 15.46875 27.664062 14.433594 27.289062 13.859375 C 26.910156 13.285156 25.679688 13.386719 24.535156 14.089844 Z M 24.535156 14.089844 "/>
    <path style="fill-rule:nonzero;fill:rgb(27.058824%,27.843137%,28.627451%);fill-opacity:1;stroke-width:1;stroke-linecap:butt;stroke-linejoin:miter;stroke:rgb(27.058824%,27.843137%,28.627451%);stroke-opacity:1;stroke-miterlimit:10;" d="M 32 48.618056 C 24.375 48.618056 21.305556 44.944444 21.305556 46.194444 C 21.305556 48.138889 26.090278 50.625 32 50.625 C 37.909722 50.625 42.694444 48.138889 42.694444 46.194444 C 42.694444 44.944444 39.618056 48.618056 32 48.618056 Z M 32 48.618056 " transform="matrix(0.5625,0,0,0.5625,0,0)"/>
  </g>
</svg>