<?xml version="1.0" encoding="UTF-8" standalone="yes"?>
<svg xmlns="http://www.w3.org/2000/svg" xmlns:xlink="http://www.w3.org/1999/xlink" width="48px" height="48px" viewBox="0 0 36 36" version="1.1">
  <g id="surface1">
    <path style=" stroke:none;fill-rule:nonzero;fill:rgb(100%,73.72549%,0%);fill-opacity:1;" d="M 18.023438 9.742188 C 9.136719 9.742188 2.8125 10.015625 2.8125 15.339844 C 2.8125 15.8125 3.246094 23.242188 3.246094 23.242188 L 32.753906 23.242188 L 33.1875 15.339844 C 33.1875 11.175781 27.777344 9.742188 18.023438 9.742188 Z M 18.023438 9.742188 "/>
    <path style=" stroke:none;fill-rule:nonzero;fill:rgb(100%,86.666667%,40.392157%);fill-opacity:1;" d="M 31.5 20.8125 C 29.261719 19.855469 30.441406 16.355469 30.441406 16.355469 C 29.414062 16.914062 27.328125 17.039062 24.75 16.867188 C 25.121094 17.121094 25.503906 17.359375 25.890625 17.589844 C 23.285156 18.570312 20.21875 18.066406 20.21875 18.066406 C 21.09375 18.722656 21.679688 19.105469 21.679688 19.105469 C 13.257812 19.40625 8.4375 16.074219 6.042969 13.605469 C 4.019531 17.589844 6.023438 19.410156 4.5 20.8125 C 4.5 20.8125 2.25 20.8125 2.25 23.625 C 2.25 26.460938 4.5 26.4375 4.5 26.4375 C 4.5 30.9375 14.625 34.875 18 34.875 C 21.375 34.875 31.5 30.9375 31.5 26.4375 C 31.5 26.4375 33.75 26.4375 33.75 23.625 C 33.75 20.8125 31.5 20.8125 31.5 20.8125 Z M 31.5 20.8125 "/>
    <path style=" stroke:none;fill-rule:nonzero;fill:rgb(96.078431%,96.078431%,96.078431%);fill-opacity:1;" d="M 11.25 20.128906 C 8.4375 20.128906 7.3125 21.144531 7.3125 22.15625 C 7.3125 23.171875 7.3125 24.628906 11.027344 24.628906 C 14.625 24.628906 15.1875 24.1875 15.1875 22.664062 C 15.1875 21.648438 14.0625 20.128906 11.25 20.128906 Z M 11.25 20.128906 "/>
    <path style=" stroke:none;fill-rule:nonzero;fill:rgb(40%,30.588235%,15.294118%);fill-opacity:1;" d="M 14.0625 21.851562 C 14.0625 23.25 12.929688 24.382812 11.53125 24.382812 C 10.132812 24.382812 9 23.25 9 21.851562 C 9 20.453125 10.132812 19.320312 11.53125 19.320312 C 12.929688 19.320312 14.0625 20.453125 14.0625 21.851562 Z M 14.0625 21.851562 "/>
    <path style=" stroke:none;fill-rule:nonzero;fill:rgb(13.72549%,12.156863%,12.54902%);fill-opacity:1;" d="M 12.375 21.851562 C 12.359375 22.304688 11.984375 22.664062 11.53125 22.664062 C 11.078125 22.664062 10.703125 22.304688 10.6875 21.851562 C 10.703125 21.398438 11.078125 21.039062 11.53125 21.039062 C 11.984375 21.039062 12.359375 21.398438 12.375 21.851562 Z M 12.375 21.851562 "/>
    <path style=" stroke:none;fill-rule:nonzero;fill:rgb(40%,30.588235%,15.294118%);fill-opacity:1;" d="M 7.3125 22.132812 C 7.3125 18.195312 15.1875 18.195312 15.1875 22.695312 C 14.0625 19.320312 8.4375 19.320312 7.3125 22.132812 Z M 7.3125 22.132812 "/>
    <path style=" stroke:none;fill-rule:nonzero;fill:rgb(96.078431%,96.078431%,96.078431%);fill-opacity:1;" d="M 24.75 20.128906 C 27.5625 20.128906 28.6875 21.144531 28.6875 22.15625 C 28.6875 23.171875 28.6875 24.628906 24.96875 24.628906 C 21.375 24.628906 20.8125 24.1875 20.8125 22.664062 C 20.8125 21.648438 21.9375 20.128906 24.75 20.128906 Z M 24.75 20.128906 "/>
    <path style=" stroke:none;fill-rule:nonzero;fill:rgb(40%,30.588235%,15.294118%);fill-opacity:1;" d="M 27 21.851562 C 27 23.25 25.867188 24.382812 24.46875 24.382812 C 23.070312 24.382812 21.9375 23.25 21.9375 21.851562 C 21.9375 20.453125 23.070312 19.320312 24.46875 19.320312 C 25.867188 19.320312 27 20.453125 27 21.851562 Z M 27 21.851562 "/>
    <path style=" stroke:none;fill-rule:nonzero;fill:rgb(13.72549%,12.156863%,12.54902%);fill-opacity:1;" d="M 23.625 21.851562 C 23.640625 22.304688 24.015625 22.664062 24.46875 22.664062 C 24.921875 22.664062 25.296875 22.304688 25.3125 21.851562 C 25.296875 21.398438 24.921875 21.039062 24.46875 21.039062 C 24.015625 21.039062 23.640625 21.398438 23.625 21.851562 Z M 23.625 21.851562 "/>
    <path style=" stroke:none;fill-rule:nonzero;fill:rgb(40%,30.588235%,15.294118%);fill-opacity:1;" d="M 28.6875 22.132812 C 28.6875 18.195312 20.8125 18.195312 20.8125 22.695312 C 21.9375 19.320312 27.5625 19.320312 28.6875 22.132812 Z M 28.6875 22.132812 "/>
    <path style=" stroke:none;fill-rule:nonzero;fill:rgb(57.647059%,44.705882%,21.568627%);fill-opacity:1;" d="M 23.0625 28.605469 C 23.0625 30.535156 20.53125 31.5 18 31.5 C 15.46875 31.5 12.9375 30.535156 12.9375 28.605469 C 12.9375 28.605469 12.9375 28.125 13.441406 28.125 L 22.554688 28.125 C 23.0625 28.125 23.0625 28.605469 23.0625 28.605469 Z M 23.0625 28.605469 "/>
    <path style=" stroke:none;fill-rule:nonzero;fill:rgb(27.058824%,27.843137%,28.627451%);fill-opacity:1;" d="M 33.1875 13.078125 C 33.1875 14.882812 26.472656 17.015625 18 17.015625 C 9.527344 17.015625 2.8125 14.882812 2.8125 13.078125 Z M 33.1875 13.078125 "/>
    <path style=" stroke:none;fill-rule:nonzero;fill:rgb(25.882353%,54.509804%,75.686275%);fill-opacity:1;" d="M 26.253906 6.035156 C 23.953125 5.015625 20.488281 1.125 18 1.125 C 15.511719 1.125 12.015625 5.015625 9.714844 6.035156 C 7.871094 6.851562 4.371094 7.136719 2.960938 8.648438 C 1.453125 10.261719 2.808594 13.164062 2.808594 13.164062 C 2.808594 13.164062 2.960938 14.625 18 14.625 C 33.039062 14.625 33.191406 13.164062 33.191406 13.164062 C 33.191406 13.164062 34.542969 10.261719 33.039062 8.648438 C 31.621094 7.132812 28.105469 6.855469 26.253906 6.035156 Z M 26.253906 6.035156 "/>
    <path style=" stroke:none;fill-rule:nonzero;fill:rgb(98.431373%,74.901961%,40.392157%);fill-opacity:1;" d="M 16.511719 5.96875 C 17.394531 5.5625 18 3.9375 18 3.9375 C 18 3.9375 18.605469 5.5625 19.488281 5.96875 C 20.234375 6.3125 21.9375 4.746094 21.9375 4.746094 C 21.9375 4.746094 21.789062 8.710938 21.484375 9.535156 C 20.683594 11.679688 18 12.9375 18 12.9375 C 18 12.9375 15.3125 11.675781 14.515625 9.535156 C 14.210938 8.710938 14.0625 4.746094 14.0625 4.746094 C 14.0625 4.746094 15.777344 6.308594 16.511719 5.96875 Z M 16.511719 5.96875 "/>
  </g>
</svg>