<?xml version="1.0" encoding="UTF-8" standalone="yes"?>
<svg xmlns="http://www.w3.org/2000/svg" xmlns:xlink="http://www.w3.org/1999/xlink" width="48px" height="48px" viewBox="0 0 36 36" version="1.1">
  <g id="surface1">
    <path style=" stroke:none;fill-rule:nonzero;fill:rgb(25.882353%,67.843137%,88.627451%);fill-opacity:1;" d="M 34.875 15.3125 C 34.875 13.617188 34.003906 12.140625 32.703125 11.3125 C 32.886719 10.785156 32.980469 10.230469 32.984375 9.675781 C 32.984375 7.003906 30.90625 4.839844 28.332031 4.796875 C 27.601562 3.367188 26.144531 2.390625 24.46875 2.390625 C 23.660156 2.390625 22.867188 2.625 22.183594 3.0625 C 21.273438 1.890625 19.738281 1.125 18 1.125 C 16.261719 1.125 14.726562 1.890625 13.816406 3.0625 C 13.132812 2.625 12.339844 2.390625 11.53125 2.390625 C 9.855469 2.390625 8.398438 3.367188 7.667969 4.796875 C 5.09375 4.839844 3.015625 7.003906 3.015625 9.671875 C 3.019531 10.230469 3.113281 10.785156 3.296875 11.3125 C 1.996094 12.140625 1.125 13.617188 1.125 15.3125 C 1.125 16.460938 1.527344 17.515625 2.191406 18.332031 C 1.90625 18.898438 1.757812 19.527344 1.757812 20.164062 C 1.757812 21.699219 2.597656 23.03125 3.828125 23.703125 C 3.808594 23.855469 3.796875 24.007812 3.796875 24.164062 C 3.796875 26.375 5.53125 28.167969 7.667969 28.167969 L 28.328125 28.167969 C 30.46875 28.167969 32.199219 26.375 32.199219 24.164062 C 32.199219 24.007812 32.191406 23.855469 32.171875 23.703125 C 33.402344 23.03125 34.242188 21.699219 34.242188 20.164062 C 34.242188 19.5 34.082031 18.878906 33.808594 18.332031 C 34.5 17.476562 34.878906 16.410156 34.875 15.3125 Z M 34.875 15.3125 "/>
    <path style=" stroke:none;fill-rule:nonzero;fill:rgb(99.607843%,81.568627%,67.45098%);fill-opacity:1;" d="M 29.113281 19.675781 C 29.035156 20.1875 28.929688 20.671875 28.785156 20.945312 C 28.523438 21.433594 27.992188 21.710938 27.992188 21.710938 C 27.992188 21.710938 28.136719 21.183594 28.082031 19.796875 C 27.324219 8.601562 26.007812 13.613281 18 13.613281 C 9.996094 13.613281 8.675781 8.601562 7.917969 19.785156 C 7.863281 21.179688 8.007812 21.710938 8.007812 21.710938 C 8.007812 21.710938 7.476562 21.433594 7.214844 20.945312 C 7.070312 20.671875 6.964844 20.1875 6.886719 19.675781 C 6.03125 19.453125 4.929688 19.640625 4.929688 22.097656 C 4.929688 23.632812 5.492188 24.886719 7.386719 25.023438 C 8.191406 31.226562 10.597656 32.238281 15.429688 34.441406 C 16.699219 35.019531 19.300781 35.019531 20.570312 34.441406 C 25.402344 32.238281 27.808594 31.230469 28.613281 25.023438 C 30.511719 24.886719 31.070312 23.632812 31.070312 22.097656 C 31.070312 19.636719 29.96875 19.453125 29.113281 19.675781 Z M 29.113281 19.675781 "/>
    <path style=" stroke:none;fill-rule:nonzero;fill:rgb(96.078431%,96.078431%,96.078431%);fill-opacity:1;" d="M 27.613281 19.964844 C 26.878906 9.152344 25.640625 14.390625 18 14.390625 C 10.359375 14.390625 9.125 9.15625 8.386719 19.953125 C 8.339844 21.285156 8.589844 23.707031 8.773438 24.945312 C 9.207031 27.863281 10.945312 31.824219 15.546875 33.921875 C 16.761719 34.476562 19.242188 34.476562 20.449219 33.921875 C 25.054688 31.824219 26.792969 27.863281 27.226562 24.945312 C 27.410156 23.707031 27.660156 21.289062 27.613281 19.964844 Z M 27.613281 19.964844 "/>
    <path style=" stroke:none;fill-rule:nonzero;fill:rgb(34.117647%,25.490196%,21.568627%);fill-opacity:1;" d="M 23.160156 27.714844 C 21.015625 29.929688 21.3125 32.65625 18 32.679688 C 14.6875 32.65625 14.984375 29.929688 12.839844 27.714844 C 10.746094 25.546875 15.699219 28 18 28 C 20.300781 28 25.253906 25.546875 23.160156 27.714844 Z M 23.160156 27.714844 "/>
    <path style=" stroke:none;fill-rule:nonzero;fill:rgb(100%,100%,100%);fill-opacity:1;" d="M 21.902344 27.117188 L 18 28.035156 L 14.097656 27.117188 C 14.097656 27.117188 13.976562 28.042969 14.367188 28.417969 C 14.953125 28.980469 17.054688 29.28125 18 29.28125 C 18.949219 29.28125 21.050781 28.980469 21.632812 28.417969 C 22.019531 28.042969 21.902344 27.117188 21.902344 27.117188 Z M 21.902344 27.117188 "/>
    <path style=" stroke:none;fill-rule:nonzero;fill:rgb(100%,44.313725%,49.803922%);fill-opacity:1;" d="M 18 31.011719 C 16.441406 31.011719 15.902344 32.117188 15.902344 32.117188 L 18 32.457031 L 20.097656 32.117188 C 20.097656 32.117188 19.558594 31.011719 18 31.011719 Z M 18 31.011719 "/>
    <path style=" stroke:none;fill-rule:nonzero;fill:rgb(81.176471%,26.27451%,31.372549%);fill-opacity:1;" d="M 18 27.585938 C 16.722656 27.585938 9.140625 24.773438 12.421875 27.902344 C 14.214844 29.613281 14.242188 33.515625 18 33.515625 C 21.757812 33.515625 21.785156 29.613281 23.578125 27.902344 C 26.859375 24.773438 19.277344 27.585938 18 27.585938 Z M 22.453125 28.160156 C 20.601562 30.011719 20.859375 32.289062 18 32.304688 C 15.140625 32.289062 15.398438 30.011719 13.546875 28.160156 C 11.734375 26.351562 16.011719 28.398438 18 28.398438 C 19.988281 28.398438 24.265625 26.351562 22.453125 28.160156 Z M 22.453125 28.160156 "/>
    <path style=" stroke:none;fill-rule:nonzero;fill:rgb(100%,32.156863%,38.823529%);fill-opacity:1;" d="M 21.722656 24.386719 C 21.722656 26.441406 20.054688 28.109375 18 28.109375 C 15.945312 28.109375 14.277344 26.441406 14.277344 24.386719 C 14.277344 22.328125 15.945312 20.664062 18 20.664062 C 20.054688 20.664062 21.722656 22.328125 21.722656 24.386719 Z M 21.722656 24.386719 "/>
    <path style=" stroke:none;fill-rule:nonzero;fill:rgb(96.078431%,96.078431%,96.078431%);fill-opacity:1;" d="M 15.1875 20.132812 C 15.1875 21.789062 10.6875 21.789062 10.6875 20.132812 C 10.6875 14.589844 15.1875 14.589844 15.1875 20.132812 Z M 15.1875 20.132812 "/>
    <path style=" stroke:none;fill-rule:nonzero;fill:rgb(24.313725%,26.27451%,27.843137%);fill-opacity:1;" d="M 15.578125 20.382812 C 15.578125 22.453125 9.953125 22.453125 9.953125 20.382812 C 9.953125 13.453125 15.578125 13.453125 15.578125 20.382812 Z M 15.578125 20.382812 "/>
    <path style=" stroke:none;fill-rule:nonzero;fill:rgb(96.078431%,96.078431%,96.078431%);fill-opacity:1;" d="M 15.386719 20.414062 C 15.386719 22.070312 10.886719 22.070312 10.886719 20.414062 C 10.886719 14.871094 15.386719 14.871094 15.386719 20.414062 Z M 15.386719 20.414062 "/>
    <path style=" stroke:none;fill-rule:nonzero;fill:rgb(3.921569%,51.764706%,64.705882%);fill-opacity:1;" d="M 14.722656 19.402344 C 14.722656 18.316406 14.09375 17.433594 13.316406 17.433594 C 12.542969 17.433594 11.910156 18.316406 11.910156 19.402344 C 11.910156 20.492188 12.542969 21.375 13.316406 21.375 C 14.09375 21.375 14.722656 20.492188 14.722656 19.402344 Z M 14.722656 19.402344 "/>
    <path style=" stroke:none;fill-rule:nonzero;fill:rgb(13.72549%,12.156863%,12.54902%);fill-opacity:1;" d="M 13.738281 19.402344 C 13.738281 19.636719 13.550781 19.824219 13.316406 19.824219 C 13.085938 19.824219 12.894531 19.636719 12.894531 19.402344 C 12.894531 19.171875 13.085938 18.980469 13.316406 18.980469 C 13.550781 18.980469 13.738281 19.171875 13.738281 19.402344 Z M 13.738281 19.402344 "/>
    <path style=" stroke:none;fill-rule:nonzero;fill:rgb(24.313725%,26.27451%,27.843137%);fill-opacity:1;" d="M 20.417969 20.382812 C 20.417969 22.453125 26.042969 22.453125 26.042969 20.382812 C 26.042969 13.453125 20.417969 13.453125 20.417969 20.382812 Z M 20.417969 20.382812 "/>
    <path style=" stroke:none;fill-rule:nonzero;fill:rgb(96.078431%,96.078431%,96.078431%);fill-opacity:1;" d="M 20.613281 20.414062 C 20.613281 22.070312 25.113281 22.070312 25.113281 20.414062 C 25.113281 14.871094 20.613281 14.871094 20.613281 20.414062 Z M 20.613281 20.414062 "/>
    <path style=" stroke:none;fill-rule:nonzero;fill:rgb(3.921569%,51.764706%,64.705882%);fill-opacity:1;" d="M 24.070312 19.402344 C 24.070312 18.316406 23.441406 17.433594 22.664062 17.433594 C 21.886719 17.433594 21.257812 18.316406 21.257812 19.402344 C 21.257812 20.492188 21.886719 21.375 22.664062 21.375 C 23.441406 21.375 24.070312 20.492188 24.070312 19.402344 Z M 24.070312 19.402344 "/>
    <path style=" stroke:none;fill-rule:nonzero;fill:rgb(13.72549%,12.156863%,12.54902%);fill-opacity:1;" d="M 23.085938 19.402344 C 23.085938 19.636719 22.898438 19.824219 22.664062 19.824219 C 22.429688 19.824219 22.242188 19.636719 22.242188 19.402344 C 22.242188 19.171875 22.429688 18.980469 22.664062 18.980469 C 22.898438 18.980469 23.085938 19.171875 23.085938 19.402344 Z M 23.085938 19.402344 "/>
  </g>
</svg>