<?xml version="1.0" encoding="UTF-8" standalone="yes"?>
<svg xmlns="http://www.w3.org/2000/svg" xmlns:xlink="http://www.w3.org/1999/xlink" width="48px" height="48px" viewBox="0 0 36 36" version="1.1">
  <g id="surface1">
    <path style=" stroke:none;fill-rule:nonzero;fill:rgb(85.490196%,87.058824%,87.843137%);fill-opacity:1;" d="M 34.234375 1.125 C 35.246094 8.679688 35.082031 14.757812 33.578125 18.636719 L 19.625 8.253906 C 22.394531 5.390625 28.023438 1.945312 34.234375 1.125 Z M 34.234375 1.125 "/>
    <path style=" stroke:none;fill-rule:nonzero;fill:rgb(96.862745%,64.313725%,64.313725%);fill-opacity:1;" d="M 32.476562 18.097656 L 26.710938 10.644531 C 26.710938 10.644531 27.800781 6.546875 33.242188 3.648438 C 34.875 10.203125 32.476562 18.097656 32.476562 18.097656 Z M 32.476562 18.097656 "/>
    <path style=" stroke:none;fill-rule:nonzero;fill:rgb(96.862745%,55.294118%,55.294118%);fill-opacity:1;" d="M 30.28125 16.402344 L 26.710938 11.785156 C 26.710938 11.785156 28.15625 8.960938 31.527344 7.164062 C 29.5625 11.417969 30.28125 16.402344 30.28125 16.402344 Z M 30.28125 16.402344 "/>
    <path style=" stroke:none;fill-rule:nonzero;fill:rgb(85.490196%,87.058824%,87.843137%);fill-opacity:1;" d="M 1.765625 1.125 C 0.753906 8.679688 0.917969 14.757812 2.421875 18.636719 L 16.375 8.253906 C 13.605469 5.390625 7.976562 1.945312 1.765625 1.125 Z M 1.765625 1.125 "/>
    <path style=" stroke:none;fill-rule:nonzero;fill:rgb(96.862745%,64.313725%,64.313725%);fill-opacity:1;" d="M 3.523438 18.097656 L 9.289062 10.644531 C 9.289062 10.644531 8.199219 6.546875 2.757812 3.648438 C 1.125 10.203125 3.523438 18.097656 3.523438 18.097656 Z M 3.523438 18.097656 "/>
    <path style=" stroke:none;fill-rule:nonzero;fill:rgb(96.862745%,55.294118%,55.294118%);fill-opacity:1;" d="M 5.71875 16.402344 L 9.289062 11.785156 C 9.289062 11.785156 7.84375 8.960938 4.472656 7.164062 C 6.4375 11.417969 5.71875 16.402344 5.71875 16.402344 Z M 5.71875 16.402344 "/>
    <path style=" stroke:none;fill-rule:nonzero;fill:rgb(85.490196%,87.058824%,87.843137%);fill-opacity:1;" d="M 32.734375 28.550781 C 33.210938 28.054688 33.53125 27.628906 33.667969 27.332031 C 34.585938 25.847656 34.875 24.328125 34.875 24.328125 L 33.75 24.566406 C 33.75 24.566406 35.054688 23.179688 34.699219 20.183594 L 33.605469 21.367188 C 33.605469 21.367188 34.699219 18.324219 33.75 15.515625 L 32.539062 16.410156 C 32.539062 16.410156 32.90625 15.265625 32.566406 14.484375 L 32.042969 14.894531 C 32.042969 14.894531 32.992188 12.269531 32.128906 11.167969 C 31.648438 12.757812 31.078125 12.734375 31.078125 12.734375 C 31.078125 12.734375 31.777344 11.542969 31.230469 11.042969 C 30.675781 11.941406 30.214844 11.359375 30.238281 11.089844 C 30.269531 10.730469 30.128906 10.226562 31.757812 9.988281 C 30.457031 9.191406 28.914062 9.746094 28.914062 9.746094 C 28.914062 9.746094 28.96875 8.910156 30.109375 8.941406 C 29.054688 8.046875 27.589844 8.578125 27.589844 8.578125 L 27.589844 8.585938 C 25.28125 6.835938 22.164062 5.828125 18 5.828125 C 13.832031 5.828125 10.71875 6.835938 8.40625 8.585938 L 8.410156 8.578125 C 8.410156 8.578125 6.941406 8.046875 5.890625 8.941406 C 7.03125 8.90625 7.085938 9.746094 7.085938 9.746094 C 7.085938 9.746094 5.542969 9.191406 4.242188 9.988281 C 5.871094 10.226562 5.730469 10.730469 5.761719 11.089844 C 5.785156 11.359375 5.324219 11.941406 4.765625 11.042969 C 4.222656 11.542969 4.921875 12.734375 4.921875 12.734375 C 4.921875 12.734375 4.351562 12.757812 3.871094 11.167969 C 3.003906 12.269531 3.957031 14.894531 3.957031 14.894531 L 3.433594 14.484375 C 3.09375 15.265625 3.460938 16.410156 3.460938 16.410156 L 2.25 15.515625 C 1.296875 18.324219 2.394531 21.367188 2.394531 21.367188 L 1.296875 20.183594 C 0.945312 23.179688 2.25 24.566406 2.25 24.566406 L 1.125 24.328125 C 1.125 24.328125 1.414062 25.84375 2.328125 27.332031 C 2.46875 27.632812 2.796875 28.066406 3.285156 28.570312 C 3.296875 28.582031 3.308594 28.597656 3.320312 28.609375 C 5.609375 30.960938 11.316406 34.875 18 34.875 C 24.683594 34.875 30.390625 30.960938 32.679688 28.609375 Z M 32.734375 28.550781 "/>
    <path style=" stroke:none;fill-rule:nonzero;fill:rgb(58.039216%,59.607843%,60.784314%);fill-opacity:1;" d="M 21.199219 6.054688 C 20.207031 5.910156 19.144531 5.828125 18 5.828125 C 16.855469 5.828125 15.792969 5.910156 14.800781 6.054688 C 15.214844 8.222656 16.347656 9.757812 18 12.570312 C 19.675781 9.714844 20.792969 8.207031 21.199219 6.054688 Z M 26.332031 7.753906 C 25.257812 7.140625 24.042969 6.660156 22.664062 6.335938 C 22.996094 7.621094 23.707031 8.539062 24.703125 10.234375 C 25.398438 9.046875 25.949219 8.738281 26.332031 7.753906 Z M 13.335938 6.335938 C 11.957031 6.660156 10.742188 7.140625 9.667969 7.753906 C 10.054688 8.746094 10.605469 9.0625 11.292969 10.234375 C 12.304688 8.515625 13.007812 7.613281 13.335938 6.335938 Z M 13.335938 6.335938 "/>
    <path style=" stroke:none;fill-rule:nonzero;fill:rgb(29.803922%,32.54902%,34.901961%);fill-opacity:1;" d="M 20.273438 20.261719 C 19.816406 19.730469 18.417969 19.6875 18 19.6875 C 17.582031 19.6875 16.179688 19.730469 15.726562 20.261719 C 15.402344 20.640625 15.652344 21.578125 16.515625 22.390625 C 17.0625 22.902344 17.582031 23.0625 18 23.0625 C 18.417969 23.0625 18.9375 22.902344 19.484375 22.390625 C 20.347656 21.578125 20.597656 20.640625 20.273438 20.261719 Z M 20.273438 20.261719 "/>
    <path style=" stroke:none;fill-rule:nonzero;fill:rgb(29.803922%,32.54902%,34.901961%);fill-opacity:1;" d="M 15.175781 18.515625 C 14.128906 15.640625 12.554688 14.203125 10.976562 14.203125 C 9.402344 14.203125 7.828125 15.640625 6.78125 18.515625 C 6.675781 18.804688 7.21875 19.328125 7.488281 19.042969 C 8.5 17.976562 9.714844 17.546875 10.976562 17.546875 C 12.242188 17.546875 13.457031 17.976562 14.46875 19.042969 C 14.738281 19.328125 15.277344 18.804688 15.175781 18.515625 Z M 29.21875 18.515625 C 28.171875 15.640625 26.597656 14.203125 25.023438 14.203125 C 23.445312 14.203125 21.871094 15.640625 20.824219 18.515625 C 20.722656 18.804688 21.261719 19.328125 21.53125 19.042969 C 22.546875 17.976562 23.757812 17.546875 25.023438 17.546875 C 26.289062 17.546875 27.5 17.976562 28.515625 19.042969 C 28.78125 19.328125 29.320312 18.804688 29.21875 18.515625 Z M 29.21875 18.515625 "/>
    <path style=" stroke:none;fill-rule:nonzero;fill:rgb(29.803922%,32.54902%,34.901961%);fill-opacity:1;" d="M 27.5625 25.542969 C 27.5625 25.089844 27.296875 24.527344 26.539062 24.382812 C 24.589844 24.007812 21.710938 23.625 18 23.625 C 14.289062 23.625 11.410156 24.007812 9.460938 24.382812 C 8.703125 24.527344 8.4375 25.089844 8.4375 25.542969 C 8.4375 30.9375 9.957031 32.625 16.179688 32.625 L 19.820312 32.625 C 26.042969 32.625 27.5625 30.9375 27.5625 25.542969 Z M 27.5625 25.542969 "/>
    <path style=" stroke:none;fill-rule:nonzero;fill:rgb(100%,100%,100%);fill-opacity:1;" d="M 25.359375 25.96875 C 25.445312 25.683594 25.335938 25.417969 25.121094 25.375 C 25.121094 25.375 21.910156 24.75 18 24.75 C 14.089844 24.75 10.878906 25.375 10.878906 25.375 C 10.664062 25.417969 10.554688 25.683594 10.640625 25.96875 L 11.125 27.605469 C 11.207031 27.890625 11.457031 28.125 11.671875 28.125 L 24.328125 28.125 C 24.546875 28.125 24.792969 27.890625 24.875 27.605469 Z M 18 31.5 C 20.769531 31.5 24.722656 31.5 24.617188 30.34375 C 24.589844 30.101562 24.546875 29.863281 24.492188 29.628906 C 24.425781 29.332031 24.371094 29.25 23.894531 29.25 L 12.109375 29.25 C 11.628906 29.25 11.578125 29.332031 11.507812 29.628906 C 11.449219 29.894531 11.402344 30.140625 11.382812 30.34375 C 11.277344 31.5 15.230469 31.5 18 31.5 Z M 18 31.5 "/>
  </g>
</svg>