<?xml version="1.0" encoding="UTF-8" standalone="yes"?>
<svg xmlns="http://www.w3.org/2000/svg" xmlns:xlink="http://www.w3.org/1999/xlink" width="48px" height="48px" viewBox="0 0 36 36" version="1.1">
  <g id="surface1">
    <path style=" stroke:none;fill-rule:nonzero;fill:rgb(85.490196%,87.058824%,87.843137%);fill-opacity:1;" d="M 34.234375 1.125 C 35.246094 8.679688 35.082031 14.757812 33.578125 18.636719 L 19.625 8.253906 C 22.394531 5.390625 28.023438 1.945312 34.234375 1.125 Z M 34.234375 1.125 "/>
    <path style=" stroke:none;fill-rule:nonzero;fill:rgb(96.862745%,64.313725%,64.313725%);fill-opacity:1;" d="M 32.476562 18.097656 L 26.707031 10.644531 C 26.707031 10.644531 27.800781 6.546875 33.242188 3.648438 C 34.875 10.203125 32.476562 18.097656 32.476562 18.097656 Z M 32.476562 18.097656 "/>
    <path style=" stroke:none;fill-rule:nonzero;fill:rgb(96.862745%,55.294118%,55.294118%);fill-opacity:1;" d="M 30.28125 16.402344 L 26.707031 11.785156 C 26.707031 11.785156 28.15625 8.960938 31.527344 7.164062 C 29.5625 11.417969 30.28125 16.402344 30.28125 16.402344 Z M 30.28125 16.402344 "/>
    <path style=" stroke:none;fill-rule:nonzero;fill:rgb(85.490196%,87.058824%,87.843137%);fill-opacity:1;" d="M 1.765625 1.125 C 0.753906 8.679688 0.917969 14.757812 2.421875 18.636719 L 16.375 8.253906 C 13.601562 5.390625 7.976562 1.945312 1.765625 1.125 Z M 1.765625 1.125 "/>
    <path style=" stroke:none;fill-rule:nonzero;fill:rgb(96.862745%,64.313725%,64.313725%);fill-opacity:1;" d="M 3.523438 18.097656 L 9.289062 10.644531 C 9.289062 10.644531 8.199219 6.546875 2.757812 3.648438 C 1.125 10.203125 3.523438 18.097656 3.523438 18.097656 Z M 3.523438 18.097656 "/>
    <path style=" stroke:none;fill-rule:nonzero;fill:rgb(96.862745%,55.294118%,55.294118%);fill-opacity:1;" d="M 5.71875 16.402344 L 9.289062 11.785156 C 9.289062 11.785156 7.84375 8.960938 4.472656 7.164062 C 6.4375 11.417969 5.71875 16.402344 5.71875 16.402344 Z M 5.71875 16.402344 "/>
    <path style=" stroke:none;fill-rule:nonzero;fill:rgb(85.490196%,87.058824%,87.843137%);fill-opacity:1;" d="M 32.734375 28.550781 C 33.210938 28.054688 33.53125 27.628906 33.667969 27.332031 C 34.585938 25.847656 34.875 24.328125 34.875 24.328125 L 33.75 24.566406 C 33.75 24.566406 35.054688 23.179688 34.699219 20.183594 L 33.605469 21.367188 C 33.605469 21.367188 34.699219 18.324219 33.75 15.515625 L 32.539062 16.410156 C 32.539062 16.410156 32.90625 15.265625 32.566406 14.484375 L 32.042969 14.894531 C 32.042969 14.894531 32.992188 12.269531 32.128906 11.167969 C 31.648438 12.757812 31.078125 12.734375 31.078125 12.734375 C 31.078125 12.734375 31.777344 11.542969 31.230469 11.042969 C 30.675781 11.941406 30.214844 11.359375 30.238281 11.089844 C 30.269531 10.730469 30.128906 10.226562 31.757812 9.988281 C 30.457031 9.191406 28.914062 9.746094 28.914062 9.746094 C 28.914062 9.746094 28.96875 8.910156 30.109375 8.941406 C 29.054688 8.046875 27.589844 8.578125 27.589844 8.578125 L 27.589844 8.585938 C 25.28125 6.835938 22.164062 5.828125 18 5.828125 C 13.832031 5.828125 10.71875 6.835938 8.40625 8.585938 L 8.410156 8.578125 C 8.410156 8.578125 6.941406 8.046875 5.890625 8.941406 C 7.03125 8.90625 7.085938 9.746094 7.085938 9.746094 C 7.085938 9.746094 5.542969 9.191406 4.242188 9.988281 C 5.871094 10.226562 5.730469 10.730469 5.761719 11.089844 C 5.785156 11.359375 5.324219 11.941406 4.765625 11.042969 C 4.222656 11.542969 4.921875 12.734375 4.921875 12.734375 C 4.921875 12.734375 4.351562 12.757812 3.871094 11.167969 C 3.003906 12.269531 3.957031 14.894531 3.957031 14.894531 L 3.433594 14.484375 C 3.09375 15.265625 3.460938 16.410156 3.460938 16.410156 L 2.25 15.515625 C 1.296875 18.324219 2.394531 21.367188 2.394531 21.367188 L 1.296875 20.183594 C 0.945312 23.179688 2.25 24.566406 2.25 24.566406 L 1.125 24.328125 C 1.125 24.328125 1.414062 25.84375 2.328125 27.332031 C 2.46875 27.632812 2.796875 28.066406 3.285156 28.570312 L 3.320312 28.609375 C 5.609375 30.960938 11.316406 34.875 18 34.875 C 24.683594 34.875 30.390625 30.960938 32.679688 28.609375 C 32.699219 28.589844 32.714844 28.570312 32.734375 28.550781 Z M 32.734375 28.550781 "/>
    <path style=" stroke:none;fill-rule:nonzero;fill:rgb(58.039216%,59.607843%,60.784314%);fill-opacity:1;" d="M 21.199219 6.054688 C 20.207031 5.910156 19.144531 5.828125 18 5.828125 C 16.855469 5.828125 15.792969 5.910156 14.800781 6.054688 C 15.214844 8.222656 16.347656 9.757812 18 12.570312 C 19.675781 9.714844 20.792969 8.207031 21.199219 6.054688 Z M 26.332031 7.753906 C 25.257812 7.140625 24.042969 6.660156 22.664062 6.335938 C 22.996094 7.621094 23.707031 8.539062 24.703125 10.234375 C 25.398438 9.046875 25.949219 8.738281 26.332031 7.753906 Z M 13.335938 6.335938 C 11.957031 6.660156 10.742188 7.140625 9.667969 7.753906 C 10.054688 8.746094 10.605469 9.0625 11.292969 10.234375 C 12.304688 8.515625 13.007812 7.613281 13.335938 6.335938 Z M 13.335938 6.335938 "/>
    <path style=" stroke:none;fill-rule:nonzero;fill:rgb(39.607843%,69.411765%,93.72549%);fill-opacity:1;" d="M 33.4375 21.304688 C 37.546875 25.625 31.960938 31.496094 27.851562 27.175781 C 24.847656 24.019531 24.710938 18.003906 24.710938 18.003906 C 24.710938 18.003906 30.433594 18.148438 33.4375 21.304688 Z M 8.148438 27.175781 C 4.039062 31.496094 -1.546875 25.625 2.566406 21.304688 C 5.566406 18.148438 11.289062 18.003906 11.289062 18.003906 C 11.289062 18.003906 11.152344 24.019531 8.148438 27.175781 Z M 8.148438 27.175781 "/>
    <path style=" stroke:none;fill-rule:nonzero;fill:rgb(29.803922%,32.54902%,34.901961%);fill-opacity:1;" d="M 29.0625 13.996094 C 29.191406 14.058594 29.257812 14.195312 29.238281 14.335938 C 29.214844 14.476562 29.109375 14.585938 28.96875 14.609375 C 27.453125 14.835938 25.851562 15.09375 24.324219 15.9375 C 26.585938 16.3125 28.402344 17.472656 29.390625 18.65625 C 29.613281 18.921875 29.335938 19.28125 29.085938 19.191406 C 26.398438 18.21875 23.640625 17.691406 20.171875 18.046875 C 19.898438 18.074219 19.664062 17.917969 19.71875 17.664062 C 20.648438 13.613281 25.859375 12.082031 29.0625 13.996094 Z M 6.9375 13.996094 C 6.808594 14.058594 6.742188 14.195312 6.761719 14.335938 C 6.78125 14.476562 6.890625 14.585938 7.027344 14.609375 C 8.542969 14.835938 10.148438 15.09375 11.671875 15.9375 C 9.410156 16.3125 7.59375 17.472656 6.609375 18.65625 C 6.386719 18.921875 6.664062 19.28125 6.914062 19.191406 C 9.597656 18.21875 12.359375 17.691406 15.828125 18.046875 C 16.101562 18.074219 16.335938 17.917969 16.277344 17.664062 C 15.351562 13.613281 10.140625 12.082031 6.9375 13.996094 Z M 6.9375 13.996094 "/>
    <path style=" stroke:none;fill-rule:nonzero;fill:rgb(29.803922%,32.54902%,34.901961%);fill-opacity:1;" d="M 20.273438 21.386719 C 19.816406 20.851562 18.417969 20.8125 18 20.8125 C 17.582031 20.8125 16.179688 20.851562 15.726562 21.386719 C 15.402344 21.765625 15.652344 22.703125 16.515625 23.515625 C 17.0625 24.027344 17.582031 24.1875 18 24.1875 C 18.417969 24.1875 18.9375 24.027344 19.484375 23.515625 C 20.347656 22.703125 20.597656 21.765625 20.273438 21.386719 Z M 25.3125 26.242188 C 25.3125 25.890625 25.109375 25.449219 24.527344 25.335938 C 23.039062 25.046875 20.835938 24.75 18 24.75 C 15.164062 24.75 12.960938 25.046875 11.472656 25.335938 C 10.890625 25.449219 10.6875 25.890625 10.6875 26.242188 C 10.6875 29.421875 13.101562 32.625 18 32.625 C 22.898438 32.625 25.3125 29.421875 25.3125 26.242188 Z M 25.3125 26.242188 "/>
    <path style=" stroke:none;fill-rule:nonzero;fill:rgb(100%,44.313725%,49.803922%);fill-opacity:1;" d="M 14.34375 30.695312 C 15.398438 31.203125 16.617188 31.5 18 31.5 C 19.378906 31.5 20.597656 31.203125 21.65625 30.695312 C 20.636719 30.148438 19.421875 29.8125 18 29.8125 C 16.578125 29.8125 15.363281 30.148438 14.34375 30.695312 Z M 14.34375 30.695312 "/>
  </g>
</svg>