<?xml version="1.0" encoding="UTF-8" standalone="yes"?>
<svg xmlns="http://www.w3.org/2000/svg" xmlns:xlink="http://www.w3.org/1999/xlink" width="48px" height="48px" viewBox="0 0 36 36" version="1.1">
  <g id="surface1">
    <path style=" stroke:none;fill-rule:nonzero;fill:rgb(85.490196%,87.058824%,87.843137%);fill-opacity:1;" d="M 34.234375 1.125 C 35.246094 8.679688 35.082031 14.757812 33.578125 18.636719 L 19.625 8.253906 C 22.394531 5.390625 28.023438 1.945312 34.234375 1.125 Z M 34.234375 1.125 "/>
    <path style=" stroke:none;fill-rule:nonzero;fill:rgb(96.862745%,64.313725%,64.313725%);fill-opacity:1;" d="M 32.476562 18.097656 L 26.710938 10.644531 C 26.710938 10.644531 27.800781 6.546875 33.242188 3.648438 C 34.875 10.203125 32.476562 18.097656 32.476562 18.097656 Z M 32.476562 18.097656 "/>
    <path style=" stroke:none;fill-rule:nonzero;fill:rgb(96.862745%,55.294118%,55.294118%);fill-opacity:1;" d="M 30.28125 16.402344 L 26.710938 11.785156 C 26.710938 11.785156 28.15625 8.960938 31.527344 7.164062 C 29.5625 11.417969 30.28125 16.402344 30.28125 16.402344 Z M 30.28125 16.402344 "/>
    <path style=" stroke:none;fill-rule:nonzero;fill:rgb(85.490196%,87.058824%,87.843137%);fill-opacity:1;" d="M 1.765625 1.125 C 0.753906 8.679688 0.917969 14.757812 2.421875 18.636719 L 16.375 8.253906 C 13.605469 5.390625 7.976562 1.945312 1.765625 1.125 Z M 1.765625 1.125 "/>
    <path style=" stroke:none;fill-rule:nonzero;fill:rgb(96.862745%,64.313725%,64.313725%);fill-opacity:1;" d="M 3.523438 18.097656 L 9.289062 10.644531 C 9.289062 10.644531 8.199219 6.546875 2.757812 3.648438 C 1.125 10.203125 3.523438 18.097656 3.523438 18.097656 Z M 3.523438 18.097656 "/>
    <path style=" stroke:none;fill-rule:nonzero;fill:rgb(96.862745%,55.294118%,55.294118%);fill-opacity:1;" d="M 5.71875 16.402344 L 9.289062 11.785156 C 9.289062 11.785156 7.84375 8.960938 4.472656 7.164062 C 6.4375 11.417969 5.71875 16.402344 5.71875 16.402344 Z M 5.71875 16.402344 "/>
    <path style=" stroke:none;fill-rule:nonzero;fill:rgb(85.490196%,87.058824%,87.843137%);fill-opacity:1;" d="M 33.1875 15.515625 L 32.539062 16.40625 C 32.539062 16.40625 32.90625 15.265625 32.566406 14.484375 L 32.042969 14.894531 C 32.042969 14.894531 32.992188 12.269531 32.128906 11.167969 C 31.648438 12.757812 31.078125 12.734375 31.078125 12.734375 C 31.078125 12.734375 31.777344 11.542969 31.230469 11.042969 C 30.675781 11.941406 30.214844 11.359375 30.238281 11.089844 C 30.269531 10.730469 30.128906 10.226562 31.757812 9.988281 C 30.457031 9.191406 28.914062 9.746094 28.914062 9.746094 C 28.914062 9.746094 28.96875 8.90625 30.109375 8.941406 C 29.054688 8.042969 27.589844 8.578125 27.589844 8.578125 L 27.589844 8.585938 C 25.28125 6.835938 22.164062 5.828125 18 5.828125 C 13.832031 5.828125 10.71875 6.835938 8.40625 8.585938 L 8.410156 8.578125 C 8.410156 8.578125 6.941406 8.046875 5.890625 8.941406 C 7.03125 8.90625 7.085938 9.746094 7.085938 9.746094 C 7.085938 9.746094 5.542969 9.191406 4.242188 9.988281 C 5.871094 10.226562 5.730469 10.730469 5.761719 11.089844 C 5.785156 11.359375 5.324219 11.941406 4.765625 11.042969 C 4.222656 11.542969 4.921875 12.734375 4.921875 12.734375 C 4.921875 12.734375 4.351562 12.757812 3.871094 11.167969 C 3.003906 12.269531 3.957031 14.894531 3.957031 14.894531 L 3.433594 14.484375 C 3.09375 15.265625 3.460938 16.40625 3.460938 16.40625 L 2.8125 15.515625 C 0.339844 22.820312 9.84375 34.875 18 34.875 C 26.15625 34.875 35.660156 22.820312 33.1875 15.515625 Z M 33.1875 15.515625 "/>
    <path style=" stroke:none;fill-rule:nonzero;fill:rgb(58.039216%,59.607843%,60.784314%);fill-opacity:1;" d="M 21.199219 6.054688 C 20.207031 5.910156 19.144531 5.828125 18 5.828125 C 16.855469 5.828125 15.792969 5.910156 14.800781 6.054688 C 15.214844 8.222656 16.347656 9.757812 18 12.570312 C 19.675781 9.714844 20.792969 8.207031 21.199219 6.054688 Z M 26.332031 7.753906 C 25.257812 7.140625 24.042969 6.660156 22.664062 6.335938 C 22.996094 7.621094 23.707031 8.539062 24.703125 10.234375 C 25.398438 9.046875 25.949219 8.738281 26.332031 7.753906 Z M 13.335938 6.335938 C 11.957031 6.660156 10.742188 7.140625 9.667969 7.753906 C 10.054688 8.746094 10.605469 9.0625 11.292969 10.234375 C 12.304688 8.515625 13.007812 7.613281 13.335938 6.335938 Z M 13.335938 6.335938 "/>
    <path style=" stroke:none;fill-rule:nonzero;fill:rgb(69.803922%,71.372549%,72.156863%);fill-opacity:1;" d="M 28.316406 21.027344 C 35.359375 17.460938 30.371094 27.058594 32.535156 31.773438 C 33.167969 33.15625 30.300781 34.875 28.9375 34.875 C 23.566406 34.875 22.207031 24.121094 28.316406 21.027344 Z M 7.683594 21.027344 C 0.640625 17.460938 5.632812 27.058594 3.464844 31.773438 C 2.832031 33.15625 5.699219 34.875 7.066406 34.875 C 12.433594 34.875 13.792969 24.121094 7.683594 21.027344 Z M 7.683594 21.027344 "/>
    <path style=" stroke:none;fill-rule:nonzero;fill:rgb(29.803922%,32.54902%,34.901961%);fill-opacity:1;" d="M 20.273438 17.214844 C 19.816406 16.683594 18.417969 16.644531 18 16.644531 C 17.582031 16.644531 16.183594 16.683594 15.726562 17.214844 C 15.402344 17.59375 15.652344 18.535156 16.515625 19.34375 C 17.0625 19.855469 17.582031 20.019531 18 20.019531 C 18.417969 20.019531 18.9375 19.855469 19.484375 19.34375 C 20.347656 18.535156 20.597656 17.59375 20.273438 17.214844 Z M 20.273438 17.214844 "/>
    <path style=" stroke:none;fill-rule:nonzero;fill:rgb(100%,100%,100%);fill-opacity:1;" d="M 22.15625 15.359375 C 22.15625 15.359375 22.402344 12.449219 24.441406 11.515625 C 26.742188 10.464844 28.3125 13.035156 28.738281 14.507812 C 29.367188 16.675781 28.578125 19.046875 28.34375 19.59375 C 28.191406 19.957031 26.488281 21.660156 22.660156 20.046875 C 22.65625 20.046875 21.703125 17.632812 22.15625 15.359375 Z M 22.15625 15.359375 "/>
    <path style=" stroke:none;fill-rule:nonzero;fill:rgb(69.803922%,71.372549%,72.156863%);fill-opacity:1;" d="M 22.15625 15.359375 C 22.195312 14.328125 22.496094 13.292969 23.027344 12.4375 C 23.289062 12.027344 23.628906 11.675781 24.03125 11.398438 C 24.21875 11.269531 24.421875 11.164062 24.636719 11.082031 C 24.847656 10.996094 25.070312 10.9375 25.296875 10.910156 C 26.210938 10.773438 27.132812 11.265625 27.792969 12 C 28.492188 12.792969 28.976562 13.753906 29.207031 14.789062 C 29.429688 15.890625 29.371094 17.019531 29.160156 18.070312 C 29.050781 18.59375 28.90625 19.101562 28.714844 19.597656 L 28.636719 19.789062 L 28.605469 19.851562 L 28.554688 19.929688 C 28.53125 19.964844 28.503906 20 28.476562 20.03125 C 28.390625 20.136719 28.292969 20.230469 28.183594 20.3125 C 27.996094 20.460938 27.792969 20.582031 27.574219 20.679688 C 26.738281 21.058594 25.863281 21.070312 25.035156 20.933594 C 24.199219 20.765625 23.398438 20.46875 22.65625 20.046875 C 23.460938 20.269531 24.261719 20.460938 25.0625 20.464844 C 25.859375 20.492188 26.660156 20.367188 27.355469 19.988281 C 27.523438 19.890625 27.6875 19.777344 27.832031 19.648438 C 27.902344 19.582031 27.96875 19.515625 28.019531 19.449219 L 28.046875 19.410156 C 28.046875 19.410156 28.042969 19.414062 28.046875 19.414062 C 28.046875 19.40625 28.050781 19.402344 28.054688 19.394531 L 28.109375 19.242188 C 28.261719 18.804688 28.378906 18.332031 28.460938 17.859375 C 28.628906 16.914062 28.664062 15.929688 28.472656 15.035156 C 28.292969 14.152344 27.847656 13.3125 27.3125 12.667969 C 26.773438 12.019531 26.070312 11.625 25.335938 11.652344 C 25.15625 11.660156 24.960938 11.6875 24.792969 11.738281 C 24.601562 11.792969 24.421875 11.867188 24.246094 11.960938 C 23.898438 12.140625 23.578125 12.414062 23.300781 12.753906 C 22.730469 13.425781 22.363281 14.367188 22.15625 15.359375 Z M 22.15625 15.359375 "/>
    <path style=" stroke:none;fill-rule:nonzero;fill:rgb(29.803922%,32.54902%,34.901961%);fill-opacity:1;" d="M 26.023438 16.417969 C 26.023438 14.863281 25.523438 13.605469 24.898438 13.605469 C 24.277344 13.605469 23.773438 14.863281 23.773438 16.417969 C 23.773438 17.96875 24.277344 19.230469 24.898438 19.230469 C 25.523438 19.230469 26.023438 17.96875 26.023438 16.417969 Z M 26.023438 16.417969 "/>
    <path style=" stroke:none;fill-rule:nonzero;fill:rgb(100%,100%,100%);fill-opacity:1;" d="M 13.84375 15.359375 C 13.84375 15.359375 13.597656 12.449219 11.558594 11.515625 C 9.257812 10.464844 7.6875 13.035156 7.261719 14.507812 C 6.632812 16.675781 7.421875 19.046875 7.65625 19.59375 C 7.808594 19.957031 9.511719 21.660156 13.339844 20.046875 C 13.34375 20.046875 14.296875 17.632812 13.84375 15.359375 Z M 13.84375 15.359375 "/>
    <path style=" stroke:none;fill-rule:nonzero;fill:rgb(69.803922%,71.372549%,72.156863%);fill-opacity:1;" d="M 13.84375 15.359375 C 13.636719 14.367188 13.269531 13.425781 12.699219 12.753906 C 12.421875 12.414062 12.101562 12.140625 11.753906 11.960938 C 11.578125 11.867188 11.394531 11.792969 11.207031 11.738281 C 11.03125 11.6875 10.847656 11.65625 10.664062 11.652344 C 9.925781 11.625 9.226562 12.019531 8.6875 12.667969 C 8.152344 13.3125 7.707031 14.152344 7.527344 15.035156 C 7.332031 15.929688 7.371094 16.914062 7.539062 17.859375 C 7.621094 18.332031 7.738281 18.804688 7.886719 19.242188 L 7.945312 19.394531 C 7.929688 19.363281 7.953125 19.410156 7.953125 19.414062 C 7.957031 19.414062 7.953125 19.410156 7.953125 19.410156 L 7.980469 19.449219 C 8.03125 19.515625 8.097656 19.582031 8.167969 19.648438 C 8.3125 19.777344 8.472656 19.890625 8.644531 19.988281 C 9.335938 20.367188 10.140625 20.492188 10.933594 20.464844 C 11.738281 20.460938 12.539062 20.269531 13.34375 20.046875 C 12.601562 20.46875 11.800781 20.765625 10.964844 20.933594 C 10.136719 21.070312 9.261719 21.058594 8.425781 20.679688 C 8.207031 20.582031 8.003906 20.460938 7.8125 20.3125 C 7.707031 20.230469 7.609375 20.136719 7.523438 20.03125 C 7.496094 20 7.46875 19.964844 7.445312 19.929688 L 7.394531 19.851562 L 7.363281 19.789062 L 7.285156 19.597656 C 7.09375 19.101562 6.945312 18.589844 6.839844 18.070312 C 6.628906 17.023438 6.570312 15.890625 6.792969 14.789062 C 7.019531 13.753906 7.507812 12.792969 8.207031 12 C 8.867188 11.265625 9.789062 10.773438 10.703125 10.910156 C 10.929688 10.9375 11.152344 10.996094 11.363281 11.082031 C 11.5625 11.160156 11.773438 11.261719 11.96875 11.398438 C 12.367188 11.675781 12.710938 12.027344 12.972656 12.4375 C 13.503906 13.292969 13.804688 14.328125 13.84375 15.359375 Z M 13.84375 15.359375 "/>
    <path style=" stroke:none;fill-rule:nonzero;fill:rgb(29.803922%,32.54902%,34.901961%);fill-opacity:1;" d="M 12.226562 16.417969 C 12.226562 14.863281 11.722656 13.605469 11.101562 13.605469 C 10.480469 13.605469 9.976562 14.863281 9.976562 16.417969 C 9.976562 17.96875 10.480469 19.230469 11.101562 19.230469 C 11.722656 19.230469 12.226562 17.96875 12.226562 16.417969 Z M 12.226562 16.417969 "/>
    <path style=" stroke:none;fill-rule:nonzero;fill:rgb(29.803922%,32.54902%,34.901961%);fill-opacity:1;" d="M 22.5 27.5625 C 22.5 30.980469 20.480469 33.75 17.984375 33.75 C 15.523438 33.75 13.5 30.980469 13.5 27.5625 C 13.5 24.144531 15.523438 21.375 17.984375 21.375 C 20.480469 21.375 22.5 24.144531 22.5 27.5625 Z M 22.5 27.5625 "/>
    <path style=" stroke:none;fill-rule:nonzero;fill:rgb(21.176471%,23.137255%,25.098039%);fill-opacity:1;" d="M 19.058594 25.140625 C 18.710938 25.132812 18.207031 25.453125 18.394531 26.300781 C 18.488281 26.730469 19.089844 27.246094 19.089844 27.9375 C 19.089844 29.339844 16.910156 29.339844 16.910156 27.9375 C 16.910156 27.246094 17.511719 26.730469 17.605469 26.300781 C 17.792969 25.453125 17.257812 25.132812 16.941406 25.140625 C 16.027344 25.167969 14.542969 26.171875 14.542969 27.867188 C 14.542969 29.777344 16.089844 31.328125 17.984375 31.328125 C 19.910156 31.328125 21.457031 29.777344 21.457031 27.867188 C 21.457031 26.171875 19.972656 25.167969 19.058594 25.140625 Z M 19.058594 25.140625 "/>
    <path style=" stroke:none;fill-rule:nonzero;fill:rgb(100%,44.313725%,49.803922%);fill-opacity:1;" d="M 17.984375 30.546875 C 15.902344 30.546875 15.332031 31.128906 15.332031 31.128906 C 15.871094 32.230469 16.847656 32.972656 17.984375 32.972656 C 19.152344 32.972656 20.132812 32.230469 20.667969 31.128906 C 20.667969 31.128906 20.070312 30.546875 17.984375 30.546875 Z M 17.984375 30.546875 "/>
  </g>
</svg>