<?xml version="1.0" encoding="UTF-8" standalone="yes"?>
<svg xmlns="http://www.w3.org/2000/svg" xmlns:xlink="http://www.w3.org/1999/xlink" width="48px" height="48px" viewBox="0 0 36 36" version="1.1">
  <g id="surface1">
    <path style=" stroke:none;fill-rule:nonzero;fill:rgb(85.490196%,87.058824%,87.843137%);fill-opacity:1;" d="M 34.234375 1.125 C 35.246094 8.679688 35.082031 14.757812 33.578125 18.636719 L 19.625 8.253906 C 22.394531 5.390625 28.023438 1.945312 34.234375 1.125 Z M 34.234375 1.125 "/>
    <path style=" stroke:none;fill-rule:nonzero;fill:rgb(96.862745%,64.313725%,64.313725%);fill-opacity:1;" d="M 32.476562 18.097656 L 26.710938 10.644531 C 26.710938 10.644531 27.800781 6.546875 33.242188 3.648438 C 34.875 10.203125 32.476562 18.097656 32.476562 18.097656 Z M 32.476562 18.097656 "/>
    <path style=" stroke:none;fill-rule:nonzero;fill:rgb(96.862745%,55.294118%,55.294118%);fill-opacity:1;" d="M 30.28125 16.402344 L 26.710938 11.785156 C 26.710938 11.785156 28.15625 8.960938 31.527344 7.164062 C 29.5625 11.417969 30.28125 16.402344 30.28125 16.402344 Z M 30.28125 16.402344 "/>
    <path style=" stroke:none;fill-rule:nonzero;fill:rgb(85.490196%,87.058824%,87.843137%);fill-opacity:1;" d="M 1.765625 1.125 C 0.753906 8.679688 0.917969 14.757812 2.421875 18.636719 L 16.375 8.253906 C 13.605469 5.390625 7.976562 1.945312 1.765625 1.125 Z M 1.765625 1.125 "/>
    <path style=" stroke:none;fill-rule:nonzero;fill:rgb(96.862745%,64.313725%,64.313725%);fill-opacity:1;" d="M 3.523438 18.097656 L 9.289062 10.644531 C 9.289062 10.644531 8.199219 6.546875 2.757812 3.648438 C 1.125 10.203125 3.523438 18.097656 3.523438 18.097656 Z M 3.523438 18.097656 "/>
    <path style=" stroke:none;fill-rule:nonzero;fill:rgb(96.862745%,55.294118%,55.294118%);fill-opacity:1;" d="M 5.71875 16.402344 L 9.289062 11.785156 C 9.289062 11.785156 7.84375 8.960938 4.472656 7.164062 C 6.4375 11.417969 5.71875 16.402344 5.71875 16.402344 Z M 5.71875 16.402344 "/>
    <path style=" stroke:none;fill-rule:nonzero;fill:rgb(85.490196%,87.058824%,87.843137%);fill-opacity:1;" d="M 32.734375 28.550781 C 33.210938 28.054688 33.53125 27.628906 33.667969 27.332031 C 34.585938 25.847656 34.875 24.328125 34.875 24.328125 L 33.75 24.566406 C 33.75 24.566406 35.054688 23.179688 34.699219 20.183594 L 33.605469 21.367188 C 33.605469 21.367188 34.699219 18.324219 33.75 15.515625 L 32.539062 16.410156 C 32.539062 16.410156 32.90625 15.265625 32.566406 14.484375 L 32.042969 14.894531 C 32.042969 14.894531 32.992188 12.269531 32.128906 11.167969 C 31.648438 12.757812 31.078125 12.734375 31.078125 12.734375 C 31.078125 12.734375 31.777344 11.542969 31.230469 11.042969 C 30.675781 11.941406 30.214844 11.359375 30.238281 11.089844 C 30.269531 10.730469 30.128906 10.226562 31.757812 9.988281 C 30.457031 9.191406 28.914062 9.746094 28.914062 9.746094 C 28.914062 9.746094 28.96875 8.910156 30.109375 8.941406 C 29.054688 8.046875 27.589844 8.578125 27.589844 8.578125 L 27.589844 8.585938 C 25.28125 6.835938 22.164062 5.828125 18 5.828125 C 13.832031 5.828125 10.71875 6.835938 8.40625 8.585938 L 8.410156 8.578125 C 8.410156 8.578125 6.941406 8.046875 5.890625 8.941406 C 7.03125 8.90625 7.085938 9.746094 7.085938 9.746094 C 7.085938 9.746094 5.542969 9.191406 4.242188 9.988281 C 5.871094 10.226562 5.730469 10.730469 5.761719 11.089844 C 5.785156 11.359375 5.324219 11.941406 4.765625 11.042969 C 4.222656 11.542969 4.921875 12.734375 4.921875 12.734375 C 4.921875 12.734375 4.351562 12.757812 3.871094 11.167969 C 3.003906 12.269531 3.957031 14.894531 3.957031 14.894531 L 3.433594 14.484375 C 3.09375 15.265625 3.460938 16.410156 3.460938 16.410156 L 2.25 15.515625 C 1.296875 18.324219 2.394531 21.367188 2.394531 21.367188 L 1.296875 20.183594 C 0.945312 23.179688 2.25 24.566406 2.25 24.566406 L 1.125 24.328125 C 1.125 24.328125 1.414062 25.84375 2.328125 27.332031 C 2.46875 27.632812 2.796875 28.066406 3.285156 28.570312 C 3.296875 28.582031 3.308594 28.597656 3.320312 28.609375 C 5.609375 30.960938 11.316406 34.875 18 34.875 C 24.683594 34.875 30.390625 30.960938 32.679688 28.609375 Z M 32.734375 28.550781 "/>
    <path style=" stroke:none;fill-rule:nonzero;fill:rgb(58.039216%,59.607843%,60.784314%);fill-opacity:1;" d="M 21.199219 6.054688 C 20.207031 5.910156 19.144531 5.828125 18 5.828125 C 16.855469 5.828125 15.792969 5.910156 14.800781 6.054688 C 15.214844 8.222656 16.347656 9.757812 18 12.570312 C 19.675781 9.714844 20.792969 8.207031 21.199219 6.054688 Z M 26.332031 7.753906 C 25.257812 7.140625 24.042969 6.660156 22.664062 6.335938 C 22.996094 7.621094 23.707031 8.539062 24.703125 10.234375 C 25.398438 9.046875 25.949219 8.738281 26.332031 7.753906 Z M 13.335938 6.335938 C 11.957031 6.660156 10.742188 7.140625 9.667969 7.753906 C 10.054688 8.746094 10.605469 9.0625 11.292969 10.234375 C 12.304688 8.515625 13.007812 7.613281 13.335938 6.335938 Z M 13.335938 6.335938 "/>
    <path style=" stroke:none;fill-rule:nonzero;fill:rgb(95.686275%,40.392157%,40.392157%);fill-opacity:1;" d="M 34.234375 14.613281 C 34.003906 13.417969 33.210938 12.410156 31.984375 12.113281 C 30.644531 11.785156 29.421875 12.253906 28.234375 13.328125 C 27.566406 11.695312 26.550781 10.480469 24.945312 9.859375 C 23.300781 9.21875 21.703125 9.652344 20.695312 10.789062 C 19.648438 11.972656 19.230469 13.792969 20.351562 16.175781 C 21.402344 18.40625 26.109375 22.933594 26.246094 23.0625 C 26.429688 22.960938 31.667969 20.039062 32.953125 18.601562 C 34.207031 17.199219 34.46875 15.800781 34.234375 14.613281 Z M 15.304688 10.789062 C 14.296875 9.652344 12.699219 9.21875 11.054688 9.859375 C 9.449219 10.480469 8.433594 11.695312 7.765625 13.328125 C 6.578125 12.253906 5.351562 11.785156 4.015625 12.113281 C 2.789062 12.410156 1.996094 13.417969 1.761719 14.613281 C 1.53125 15.800781 1.792969 17.199219 3.046875 18.605469 C 4.332031 20.039062 9.574219 22.960938 9.753906 23.0625 C 9.890625 22.933594 14.597656 18.40625 15.648438 16.175781 C 16.765625 13.792969 16.351562 11.96875 15.304688 10.789062 Z M 15.304688 10.789062 "/>
    <path style=" stroke:none;fill-rule:nonzero;fill:rgb(29.803922%,32.54902%,34.901961%);fill-opacity:1;" d="M 20.273438 21.386719 C 19.816406 20.851562 18.417969 20.8125 18 20.8125 C 17.582031 20.8125 16.179688 20.851562 15.726562 21.386719 C 15.402344 21.765625 15.652344 22.703125 16.515625 23.515625 C 17.0625 24.027344 17.582031 24.1875 18 24.1875 C 18.417969 24.1875 18.9375 24.027344 19.484375 23.515625 C 20.347656 22.703125 20.597656 21.765625 20.273438 21.386719 Z M 25.3125 26.242188 C 25.3125 25.890625 25.109375 25.449219 24.527344 25.335938 C 23.039062 25.046875 20.835938 24.75 18 24.75 C 15.164062 24.75 12.960938 25.046875 11.472656 25.335938 C 10.890625 25.449219 10.6875 25.890625 10.6875 26.242188 C 10.6875 29.421875 13.101562 32.625 18 32.625 C 22.898438 32.625 25.3125 29.421875 25.3125 26.242188 Z M 25.3125 26.242188 "/>
    <path style=" stroke:none;fill-rule:nonzero;fill:rgb(100%,44.313725%,49.803922%);fill-opacity:1;" d="M 14.34375 30.695312 C 15.398438 31.203125 16.617188 31.5 18 31.5 C 19.378906 31.5 20.597656 31.203125 21.65625 30.695312 C 20.636719 30.148438 19.421875 29.8125 18 29.8125 C 16.578125 29.8125 15.363281 30.148438 14.34375 30.695312 Z M 14.34375 30.695312 "/>
  </g>
</svg>