<?xml version="1.0" encoding="UTF-8" standalone="yes"?>
<svg xmlns="http://www.w3.org/2000/svg" xmlns:xlink="http://www.w3.org/1999/xlink" width="48px" height="48px" viewBox="0 0 36 36" version="1.1">
  <g id="surface1">
    <path style=" stroke:none;fill-rule:nonzero;fill:rgb(100%,86.666667%,40.392157%);fill-opacity:1;" d="M 33.457031 8.71875 C 33.429688 7.238281 32.214844 5.226562 29.78125 4.8125 C 27.800781 4.480469 25.800781 5.152344 25.320312 6.832031 C 25.070312 4.640625 23.140625 3.882812 20.777344 3.941406 C 18.46875 3.996094 16.570312 5.046875 16.335938 7.167969 C 15.757812 5.90625 14.269531 5.511719 12.503906 5.554688 L 12.429688 5.558594 C 10.707031 5.597656 9.230469 6.210938 8.664062 7.503906 C 8.152344 7.222656 7.40625 7.191406 6.308594 7.570312 C 4.957031 8.039062 2.570312 10.054688 1.578125 14.238281 C 0.808594 17.464844 1.859375 21.960938 1.859375 21.960938 C 1.75 23.960938 3.300781 25.667969 5.289062 25.773438 C 6.828125 25.855469 8.164062 25.042969 8.804688 23.8125 L 8.824219 24.460938 C 8.878906 26.699219 10.742188 28.472656 12.988281 28.417969 L 13.0625 28.417969 C 14.789062 28.375 16.304688 27.242188 16.832031 25.59375 C 17.214844 27.800781 19.160156 29.398438 21.398438 29.339844 C 23.886719 29.28125 25.851562 27.230469 25.816406 24.753906 C 26.160156 26.8125 27.957031 28.304688 30.042969 28.265625 L 30.113281 28.265625 C 32.4375 28.222656 34.917969 25.949219 34.875 23.632812 C 34.875 23.632812 33.597656 16.988281 33.457031 8.71875 Z M 33.457031 8.71875 "/>
    <path style=" stroke:none;fill-rule:nonzero;fill:rgb(92.156863%,63.921569%,32.156863%);fill-opacity:1;" d="M 34.78125 24.480469 C 34.027344 25.390625 32.902344 26.035156 31.625 26.058594 L 31.554688 26.058594 C 31.328125 26.0625 31.097656 26.050781 30.871094 26.023438 C 30.757812 26.007812 30.644531 25.992188 30.53125 25.980469 C 29.066406 25.75 27.445312 25.011719 26.515625 23.953125 C 26.714844 22.660156 26.742188 21.367188 26.726562 20.097656 C 26.703125 18.714844 26.617188 17.351562 26.554688 15.992188 C 26.492188 14.628906 26.453125 13.28125 26.507812 11.882812 C 26.214844 12.519531 26.019531 13.203125 25.871094 13.886719 C 25.726562 14.574219 25.625 15.269531 25.566406 15.96875 C 25.441406 17.363281 25.441406 18.75 25.464844 20.117188 C 25.488281 21.488281 25.546875 22.84375 25.488281 24.175781 C 25.460938 24.839844 25.441406 25.84375 25.21875 26.308594 C 24.765625 27.261719 23.417969 27.464844 22.28125 27.492188 C 20.316406 27.539062 18.21875 26.351562 17.378906 24.628906 L 17.386719 24.574219 C 17.464844 23.976562 17.542969 23.375 17.609375 22.773438 C 17.734375 21.566406 17.8125 20.347656 17.8125 19.125 C 17.8125 17.90625 17.742188 16.679688 17.570312 15.464844 C 17.484375 14.855469 17.375 14.25 17.234375 13.652344 C 17.089844 13.054688 16.921875 12.460938 16.695312 11.882812 C 16.652344 12.5 16.636719 13.109375 16.617188 13.714844 C 16.601562 14.324219 16.59375 14.925781 16.582031 15.527344 C 16.5625 16.726562 16.554688 17.925781 16.554688 19.125 C 16.554688 20.328125 16.566406 21.53125 16.617188 22.742188 C 16.644531 23.25 16.675781 24.714844 16.730469 25.367188 C 15.988281 26.109375 14.992188 26.542969 13.941406 26.566406 L 13.871094 26.570312 C 12 26.613281 10.09375 25.128906 9.472656 23.335938 C 9.476562 23.28125 9.476562 23.226562 9.484375 23.171875 C 9.554688 22.132812 9.632812 21.082031 9.683594 20.027344 C 9.726562 18.96875 9.746094 17.902344 9.675781 16.824219 C 9.640625 16.277344 9.570312 15.738281 9.46875 15.203125 C 9.414062 14.929688 9.339844 14.664062 9.246094 14.398438 C 9.199219 14.269531 9.140625 14.140625 9.074219 14.015625 C 9.007812 13.890625 8.925781 13.777344 8.824219 13.679688 C 8.863281 13.808594 8.878906 13.9375 8.890625 14.070312 C 8.902344 14.199219 8.902344 14.332031 8.898438 14.460938 C 8.890625 14.71875 8.875 14.980469 8.851562 15.238281 C 8.800781 15.761719 8.742188 16.28125 8.683594 16.804688 C 8.566406 17.851562 8.46875 18.90625 8.421875 19.972656 C 8.378906 21.035156 8.375 22.109375 8.496094 23.195312 C 8.5 23.222656 8.507812 23.25 8.507812 23.28125 C 7.855469 23.722656 7.046875 23.925781 6.171875 23.925781 C 0.480469 23.925781 1.691406 15.613281 2.457031 12.386719 C 2.585938 11.855469 2.730469 11.371094 2.886719 10.929688 C 2.375 11.738281 1.914062 12.8125 1.578125 14.238281 C 0.808594 17.464844 0.464844 25.773438 5.289062 25.773438 C 6.707031 25.773438 7.945312 25.167969 8.636719 24.101562 C 8.679688 24.339844 8.800781 28.417969 12.988281 28.417969 L 13.0625 28.414062 C 14.363281 28.382812 15.496094 27.738281 16.21875 26.769531 C 16.132812 27.152344 16.074219 27.535156 16.042969 27.925781 C 15.757812 30.984375 18.179688 32.488281 19.671875 31.957031 C 23.710938 30.515625 27.082031 30.316406 29.746094 30.421875 C 31.546875 30.492188 32.738281 29.226562 32.976562 27.160156 C 33.890625 26.464844 34.585938 25.457031 34.78125 24.480469 Z M 34.78125 24.480469 "/>
  </g>
</svg>