<?xml version="1.0" encoding="UTF-8" standalone="yes"?>
<svg xmlns="http://www.w3.org/2000/svg" xmlns:xlink="http://www.w3.org/1999/xlink" width="48px" height="48px" viewBox="0 0 36 36" version="1.1">
  <g id="surface1">
    <path style=" stroke:none;fill-rule:nonzero;fill:rgb(29.019608%,66.27451%,100%);fill-opacity:1;" d="M 15.203125 1.125 L 18.015625 6.75 L 20.828125 1.125 Z M 25.230469 1.6875 L 24.851562 7.964844 L 30.101562 4.5 Z M 5.929688 4.5 L 11.179688 7.964844 L 10.800781 1.6875 Z M 5.929688 4.5 "/>
    <path style=" stroke:none;fill-rule:nonzero;fill:rgb(92.156863%,63.921569%,32.156863%);fill-opacity:1;" d="M 11.457031 34.875 L 4.839844 34.875 L 4.839844 27.628906 L 12.613281 29.410156 C 10.738281 31.363281 11.457031 34.875 11.457031 34.875 Z M 11.457031 34.875 "/>
    <path style=" stroke:none;fill-rule:nonzero;fill:rgb(100%,86.666667%,40.392157%);fill-opacity:1;" d="M 10.828125 34.875 L 3.429688 34.875 C 3.429688 34.875 3.535156 31.273438 2.292969 28.203125 L 11.550781 29.535156 C 10.523438 32.289062 10.828125 34.875 10.828125 34.875 Z M 10.828125 34.875 "/>
    <path style=" stroke:none;fill-rule:nonzero;fill:rgb(100%,86.666667%,40.392157%);fill-opacity:1;" d="M 10.144531 24.992188 L 12.957031 24.992188 L 12.957031 12.46875 C 12.957031 11.632812 12.328125 10.933594 11.554688 10.933594 L 11.546875 10.933594 C 10.769531 10.933594 10.144531 11.632812 10.144531 12.496094 Z M 6.820312 24.992188 L 10.144531 24.992188 L 10.144531 11.417969 C 10.144531 10.394531 9.402344 9.5625 8.484375 9.5625 C 7.566406 9.5625 6.820312 10.394531 6.820312 11.417969 Z M 3.921875 24.992188 L 6.820312 24.992188 L 6.820312 12.214844 C 6.820312 11.324219 6.171875 10.601562 5.371094 10.601562 L 5.367188 10.601562 C 4.566406 10.601562 3.921875 11.324219 3.921875 12.214844 Z M 2.597656 12.515625 C 1.855469 12.515625 1.277344 13.1875 1.277344 14.015625 L 1.277344 24.992188 L 3.921875 24.992188 L 3.921875 14.015625 C 3.921875 13.1875 3.34375 12.515625 2.597656 12.515625 Z M 2.597656 12.515625 "/>
    <path style=" stroke:none;fill-rule:nonzero;fill:rgb(92.156863%,63.921569%,32.156863%);fill-opacity:1;" d="M 11.554688 10.933594 L 11.546875 10.933594 C 11.460938 10.933594 11.378906 10.945312 11.300781 10.960938 C 11.957031 11.089844 12.457031 11.722656 12.457031 12.46875 L 12.457031 24.992188 L 12.957031 24.992188 L 12.957031 12.46875 C 12.957031 11.632812 12.328125 10.933594 11.554688 10.933594 Z M 8.484375 9.5625 C 8.398438 9.5625 8.3125 9.574219 8.230469 9.589844 C 9.03125 9.726562 9.644531 10.488281 9.644531 11.417969 L 9.644531 20.492188 L 10.144531 21.054688 L 10.144531 11.417969 C 10.144531 10.394531 9.398438 9.5625 8.484375 9.5625 Z M 5.371094 10.601562 L 5.367188 10.601562 C 5.28125 10.601562 5.199219 10.613281 5.121094 10.628906 C 5.800781 10.761719 6.320312 11.417969 6.320312 12.214844 L 6.320312 20.492188 L 6.820312 21.054688 L 6.820312 12.214844 C 6.820312 11.324219 6.171875 10.601562 5.371094 10.601562 Z M 2.597656 12.515625 C 2.511719 12.515625 2.429688 12.523438 2.347656 12.542969 C 2.96875 12.671875 3.421875 13.28125 3.421875 14.015625 L 3.421875 20.492188 L 3.921875 21.054688 L 3.921875 14.015625 C 3.921875 13.1875 3.34375 12.515625 2.597656 12.515625 Z M 2.597656 12.515625 "/>
    <path style=" stroke:none;fill-rule:nonzero;fill:rgb(100%,86.666667%,40.392157%);fill-opacity:1;" d="M 17.671875 19.261719 C 16.828125 18.285156 15.128906 18.757812 13.949219 21.210938 C 13.125 22.925781 12.902344 22.582031 12.457031 22.675781 L 12.457031 21.136719 C 12.457031 21.136719 1.25 20.433594 1.25 22.121094 C 1.25 22.121094 0.726562 26.265625 1.816406 28.871094 C 3.433594 32.753906 11.75 33.777344 14.371094 27.167969 C 14.894531 25.859375 15.585938 24.480469 16.164062 23.070312 C 16.867188 21.371094 18.597656 20.335938 17.671875 19.261719 Z M 17.671875 19.261719 "/>
    <path style=" stroke:none;fill-rule:nonzero;fill:rgb(92.156863%,63.921569%,32.156863%);fill-opacity:1;" d="M 17.109375 18.867188 C 18.917969 20.214844 15.59375 22.792969 14.019531 26.800781 C 11.769531 32.535156 5.195312 32.515625 2.4375 29.882812 C 4.945312 32.878906 12 33.433594 14.371094 27.167969 C 15.914062 23.101562 19.71875 20.035156 17.109375 18.867188 Z M 17.109375 18.867188 "/>
    <path style=" stroke:none;fill-rule:nonzero;fill:rgb(92.156863%,63.921569%,32.156863%);fill-opacity:1;" d="M 12.957031 22.605469 C 10.746094 21.832031 6.175781 23.347656 6.777344 27.710938 C 6.777344 23.625 10.421875 22.675781 12.457031 22.675781 C 12.699219 22.675781 12.957031 22.605469 12.957031 22.605469 Z M 12.957031 22.605469 "/>
    <path style=" stroke:none;fill-rule:nonzero;fill:rgb(92.156863%,63.921569%,32.156863%);fill-opacity:1;" d="M 24.546875 34.875 L 31.160156 34.875 L 31.160156 27.628906 L 23.386719 29.410156 C 25.261719 31.363281 24.546875 34.875 24.546875 34.875 Z M 24.546875 34.875 "/>
    <path style=" stroke:none;fill-rule:nonzero;fill:rgb(100%,86.666667%,40.392157%);fill-opacity:1;" d="M 25.171875 34.875 L 32.570312 34.875 C 32.570312 34.875 32.464844 31.273438 33.707031 28.203125 L 24.449219 29.535156 C 25.476562 32.289062 25.171875 34.875 25.171875 34.875 Z M 25.171875 34.875 "/>
    <path style=" stroke:none;fill-rule:nonzero;fill:rgb(100%,86.666667%,40.392157%);fill-opacity:1;" d="M 25.859375 24.992188 L 23.042969 24.992188 L 23.042969 12.46875 C 23.042969 11.632812 23.671875 10.933594 24.445312 10.933594 L 24.453125 10.933594 C 25.230469 10.933594 25.859375 11.632812 25.859375 12.496094 Z M 29.179688 24.992188 L 25.859375 24.992188 L 25.859375 11.417969 C 25.859375 10.394531 26.601562 9.5625 27.519531 9.5625 C 28.4375 9.5625 29.179688 10.394531 29.179688 11.417969 Z M 32.078125 24.992188 L 29.179688 24.992188 L 29.179688 12.214844 C 29.179688 11.324219 29.828125 10.601562 30.628906 10.601562 L 30.632812 10.601562 C 31.433594 10.601562 32.078125 11.324219 32.078125 12.214844 Z M 33.402344 12.515625 C 34.144531 12.515625 34.722656 13.1875 34.722656 14.015625 L 34.722656 24.992188 L 32.078125 24.992188 L 32.078125 14.015625 C 32.078125 13.1875 32.65625 12.515625 33.402344 12.515625 Z M 33.402344 12.515625 "/>
    <path style=" stroke:none;fill-rule:nonzero;fill:rgb(92.156863%,63.921569%,32.156863%);fill-opacity:1;" d="M 24.445312 10.933594 L 24.453125 10.933594 C 24.539062 10.933594 24.621094 10.945312 24.699219 10.960938 C 24.042969 11.089844 23.542969 11.722656 23.542969 12.46875 L 23.542969 24.992188 L 23.042969 24.992188 L 23.042969 12.46875 C 23.042969 11.632812 23.671875 10.933594 24.445312 10.933594 Z M 27.519531 9.5625 C 27.605469 9.5625 27.6875 9.574219 27.769531 9.589844 C 26.972656 9.726562 26.355469 10.488281 26.355469 11.417969 L 26.355469 20.492188 L 25.855469 21.054688 L 25.855469 11.417969 C 25.859375 10.394531 26.601562 9.5625 27.519531 9.5625 Z M 30.628906 10.601562 L 30.632812 10.601562 C 30.71875 10.601562 30.800781 10.613281 30.878906 10.628906 C 30.199219 10.761719 29.679688 11.417969 29.679688 12.214844 L 29.679688 20.492188 L 29.179688 21.054688 L 29.179688 12.214844 C 29.179688 11.324219 29.828125 10.601562 30.628906 10.601562 Z M 33.402344 12.515625 C 33.488281 12.515625 33.570312 12.523438 33.652344 12.542969 C 33.03125 12.671875 32.582031 13.28125 32.582031 14.015625 L 32.582031 20.492188 L 32.078125 21.054688 L 32.078125 14.015625 C 32.078125 13.1875 32.65625 12.515625 33.402344 12.515625 Z M 33.402344 12.515625 "/>
    <path style=" stroke:none;fill-rule:nonzero;fill:rgb(100%,86.666667%,40.392157%);fill-opacity:1;" d="M 18.328125 19.261719 C 19.171875 18.285156 20.871094 18.757812 22.050781 21.210938 C 22.875 22.925781 23.097656 22.582031 23.542969 22.675781 L 23.542969 21.136719 C 23.542969 21.136719 34.75 20.433594 34.75 22.121094 C 34.75 22.121094 35.273438 26.265625 34.183594 28.871094 C 32.566406 32.753906 24.25 33.777344 21.628906 27.167969 C 21.105469 25.859375 20.417969 24.480469 19.835938 23.070312 C 19.132812 21.371094 17.402344 20.335938 18.328125 19.261719 Z M 18.328125 19.261719 "/>
    <path style=" stroke:none;fill-rule:nonzero;fill:rgb(92.156863%,63.921569%,32.156863%);fill-opacity:1;" d="M 18.890625 18.867188 C 17.082031 20.214844 20.40625 22.792969 21.980469 26.800781 C 24.230469 32.535156 30.804688 32.515625 33.5625 29.882812 C 31.058594 32.878906 24.003906 33.433594 21.628906 27.167969 C 20.085938 23.101562 16.28125 20.035156 18.890625 18.867188 Z M 18.890625 18.867188 "/>
    <path style=" stroke:none;fill-rule:nonzero;fill:rgb(92.156863%,63.921569%,32.156863%);fill-opacity:1;" d="M 23.042969 22.605469 C 25.253906 21.832031 29.824219 23.347656 29.222656 27.710938 C 29.222656 23.625 25.582031 22.675781 23.542969 22.675781 C 23.300781 22.675781 23.042969 22.605469 23.042969 22.605469 Z M 23.042969 22.605469 "/>
  </g>
</svg>