<?xml version="1.0" encoding="UTF-8" standalone="yes"?>
<svg xmlns="http://www.w3.org/2000/svg" xmlns:xlink="http://www.w3.org/1999/xlink" width="48px" height="48px" viewBox="0 0 36 36" version="1.1">
  <g id="surface1">
    <path style=" stroke:none;fill-rule:nonzero;fill:rgb(85.098039%,60.784314%,34.117647%);fill-opacity:1;" d="M 26.695312 15.382812 C 26.695312 15.382812 24.160156 13.273438 22.8125 11.296875 C 22.3125 10.566406 20.6875 10.65625 20.125 12.070312 L 11.339844 15.457031 L 5.546875 12.332031 C 4.628906 11.785156 3.464844 12.179688 2.9375 13.207031 L 2.929688 13.226562 C 2.40625 14.257812 2.726562 15.535156 3.640625 16.078125 L 4.535156 16.613281 C 3.753906 16.472656 2.929688 16.878906 2.511719 17.699219 L 2.503906 17.714844 C 1.976562 18.746094 2.296875 20.023438 3.210938 20.570312 L 5.214844 21.761719 C 4.296875 21.21875 3.132812 21.609375 2.609375 22.640625 L 2.597656 22.660156 C 2.074219 23.691406 2.394531 24.964844 3.3125 25.511719 C 3.3125 25.511719 13.496094 31.800781 17.003906 33.695312 C 19.78125 35.191406 25.230469 35.917969 28.667969 31.773438 C 29.925781 30.253906 26.695312 15.382812 26.695312 15.382812 Z M 26.695312 15.382812 "/>
    <path style=" stroke:none;fill-rule:nonzero;fill:rgb(100%,86.666667%,40.392157%);fill-opacity:1;" d="M 30.933594 15.347656 C 29.121094 14.109375 27.902344 12.476562 26.992188 10.003906 C 26.675781 9.144531 25.425781 9.011719 24.703125 10.394531 C 23.660156 12.394531 24.660156 14.039062 25.214844 14.757812 L 25.476562 15.097656 C 25.476562 15.097656 25.628906 15.714844 25.933594 16.472656 C 24.4375 16.125 22.71875 16.972656 21.519531 18.554688 C 20.28125 20.191406 17.359375 23.015625 16.117188 24.652344 C 14.625 26.628906 15.019531 29.453125 16.695312 30.664062 C 16.695312 30.664062 25.519531 37.113281 31.390625 29.210938 C 35.988281 23.027344 32.765625 16.59375 30.933594 15.347656 Z M 30.933594 15.347656 "/>
    <path style=" stroke:none;fill-rule:nonzero;fill:rgb(100%,86.666667%,40.392157%);fill-opacity:1;" d="M 27.957031 17.726562 C 28.855469 18.375 29.0625 19.710938 28.417969 20.710938 L 28.40625 20.726562 C 27.765625 21.726562 26.515625 22.007812 25.617188 21.359375 L 11.605469 11.242188 C 10.707031 10.59375 10.5 9.257812 11.144531 8.257812 L 11.152344 8.242188 C 11.796875 7.242188 13.042969 6.957031 13.945312 7.605469 Z M 27.957031 17.726562 "/>
    <path style=" stroke:none;fill-rule:nonzero;fill:rgb(92.156863%,63.921569%,32.156863%);fill-opacity:1;" d="M 20.699219 16.609375 L 11.753906 10.148438 C 11.265625 9.796875 10.917969 9.265625 11.0625 8.398438 C 10.414062 9.511719 10.8125 10.667969 11.59375 11.234375 L 20.542969 17.691406 C 21.441406 18.34375 21.597656 17.257812 20.699219 16.609375 Z M 20.699219 16.609375 "/>
    <path style=" stroke:none;fill-rule:nonzero;fill:rgb(100%,86.666667%,40.392157%);fill-opacity:1;" d="M 23.375 19.667969 C 24.273438 20.316406 24.480469 21.652344 23.839844 22.652344 L 23.828125 22.667969 C 23.183594 23.667969 21.9375 23.949219 21.039062 23.300781 L 7.027344 13.183594 C 6.128906 12.535156 5.921875 11.199219 6.5625 10.199219 L 6.574219 10.183594 C 7.21875 9.1875 8.464844 8.902344 9.363281 9.550781 Z M 23.375 19.667969 "/>
    <path style=" stroke:none;fill-rule:nonzero;fill:rgb(92.156863%,63.921569%,32.156863%);fill-opacity:1;" d="M 17.988281 19.902344 L 7.171875 12.09375 C 6.621094 11.695312 6.351562 11.015625 6.476562 10.351562 C 5.839844 11.476562 6.179688 12.703125 6.960938 13.269531 L 17.832031 20.984375 C 18.726562 21.636719 18.886719 20.550781 17.988281 19.902344 Z M 17.988281 19.902344 "/>
    <path style=" stroke:none;fill-rule:nonzero;fill:rgb(100%,86.666667%,40.392157%);fill-opacity:1;" d="M 22.5 24.207031 C 23.398438 24.855469 23.605469 26.195312 22.964844 27.195312 L 22.953125 27.210938 C 22.308594 28.207031 21.058594 28.492188 20.160156 27.84375 L 6.152344 17.726562 C 5.25 17.078125 5.042969 15.742188 5.6875 14.742188 L 5.699219 14.722656 C 6.339844 13.726562 7.589844 13.441406 8.488281 14.089844 Z M 22.5 24.207031 "/>
    <path style=" stroke:none;fill-rule:nonzero;fill:rgb(92.156863%,63.921569%,32.156863%);fill-opacity:1;" d="M 15.839844 23.523438 L 6.296875 16.632812 C 5.808594 16.28125 5.445312 15.515625 5.6875 14.738281 C 4.9375 15.792969 5.246094 17.222656 6.027344 17.789062 L 15.679688 24.605469 C 16.578125 25.257812 16.734375 24.171875 15.839844 23.523438 Z M 15.839844 23.523438 "/>
    <path style=" stroke:none;fill-rule:nonzero;fill:rgb(100%,86.666667%,40.392157%);fill-opacity:1;" d="M 22.125 29.261719 C 23.023438 29.910156 16.59375 30.589844 15.695312 29.941406 L 5.777344 22.78125 C 4.875 22.128906 4.667969 20.796875 5.3125 19.796875 L 5.324219 19.777344 C 5.964844 18.78125 7.214844 18.496094 8.113281 19.144531 Z M 22.125 29.261719 "/>
    <path style=" stroke:none;fill-rule:nonzero;fill:rgb(92.156863%,63.921569%,32.156863%);fill-opacity:1;" d="M 33.703125 23.382812 C 33.703125 23.382812 32.722656 28.335938 28.816406 31.300781 C 25.328125 33.953125 19.925781 31.648438 17.359375 29.941406 C 14.636719 28.132812 13.25 27.207031 6.753906 22.269531 C 5.527344 21.339844 5.179688 20.671875 5.375 19.703125 C 4.421875 20.738281 4.902344 22.28125 5.6875 22.847656 L 6.363281 23.324219 C 6.363281 23.324219 14.167969 29.039062 16.816406 30.878906 C 19.210938 32.539062 25.46875 35.222656 29.441406 32.066406 C 33.867188 28.550781 33.703125 23.382812 33.703125 23.382812 Z M 26.992188 16.953125 C 25.851562 15.769531 25.808594 14.058594 25.808594 14.058594 L 25.542969 13.722656 C 25.105469 13.148438 24.382812 12 24.625 10.550781 C 23.558594 12.5 24.601562 14.074219 25.136719 14.773438 L 25.410156 15.128906 C 25.410156 15.128906 25.363281 15.628906 25.617188 16.035156 Z M 26.992188 16.953125 "/>
    <path style=" stroke:none;fill-rule:nonzero;fill:rgb(25.882353%,67.843137%,88.627451%);fill-opacity:1;" d="M 21.261719 1.125 L 22.960938 7.988281 L 26.246094 1.621094 Z M 29.59375 3.148438 L 27.058594 8.855469 L 32.96875 7.324219 Z M 17.003906 1.992188 L 18.589844 8.128906 L 13.40625 4.863281 Z M 17.003906 1.992188 "/>
  </g>
</svg>