<?xml version="1.0" encoding="UTF-8" standalone="yes"?>
<svg xmlns="http://www.w3.org/2000/svg" xmlns:xlink="http://www.w3.org/1999/xlink" width="48px" height="48px" viewBox="0 0 36 36" version="1.1">
  <g id="surface1">
    <path style=" stroke:none;fill-rule:nonzero;fill:rgb(100%,86.666667%,40.392157%);fill-opacity:1;" d="M 10.15625 26.628906 C 10.390625 27.917969 11.664062 28.773438 12.996094 28.539062 L 13.015625 28.535156 C 14.351562 28.304688 15.242188 27.070312 15.007812 25.78125 L 11.640625 7.382812 C 11.40625 6.097656 10.132812 5.242188 8.796875 5.472656 L 8.777344 5.476562 C 7.441406 5.710938 6.550781 6.941406 6.789062 8.230469 Z M 10.15625 26.628906 "/>
    <path style=" stroke:none;fill-rule:nonzero;fill:rgb(92.156863%,63.921569%,32.156863%);fill-opacity:1;" d="M 11.8125 28.203125 L 11.835938 28.199219 C 13.167969 27.964844 14.050781 26.714844 13.8125 25.429688 L 10.445312 7.027344 C 10.320312 6.328125 9.882812 5.757812 9.300781 5.417969 C 10.4375 5.449219 11.433594 6.242188 11.636719 7.367188 L 15.003906 25.765625 C 15.238281 27.054688 14.359375 28.300781 13.023438 28.535156 L 13.003906 28.539062 C 12.417969 28.640625 11.820312 28.535156 11.308594 28.238281 C 11.472656 28.242188 11.644531 28.230469 11.8125 28.203125 Z M 11.8125 28.203125 "/>
    <path style=" stroke:none;fill-rule:nonzero;fill:rgb(100%,86.666667%,40.392157%);fill-opacity:1;" d="M 26.519531 19.324219 C 26.519531 19.324219 13.5 20.441406 12.210938 16.671875 L 8.800781 19.230469 C 8.800781 19.230469 7.757812 25.441406 9.429688 29.554688 C 11.226562 33.980469 17.132812 33.785156 17.132812 33.785156 C 23.21875 34.996094 25.699219 34.078125 28.207031 28.199219 C 29.078125 26.152344 26.519531 19.324219 26.519531 19.324219 Z M 26.519531 19.324219 "/>
    <path style=" stroke:none;fill-rule:nonzero;fill:rgb(100%,86.666667%,40.392157%);fill-opacity:1;" d="M 22.246094 22.042969 C 22.179688 23.347656 23.222656 24.460938 24.578125 24.527344 L 24.597656 24.527344 C 25.953125 24.589844 27.101562 23.585938 27.167969 22.28125 L 28.097656 3.609375 C 28.164062 2.304688 27.117188 1.195312 25.761719 1.128906 L 25.742188 1.128906 C 24.386719 1.0625 23.238281 2.070312 23.175781 3.375 Z M 22.246094 22.042969 "/>
    <path style=" stroke:none;fill-rule:nonzero;fill:rgb(92.156863%,63.921569%,32.156863%);fill-opacity:1;" d="M 23.5 23.9375 L 23.527344 23.941406 C 24.878906 24.003906 26.019531 22.980469 26.085938 21.671875 L 27.015625 3.003906 C 27.046875 2.316406 26.773438 1.652344 26.265625 1.1875 C 27.367188 1.464844 28.15625 2.457031 28.097656 3.59375 L 27.167969 22.265625 C 27.105469 23.570312 25.960938 24.59375 24.605469 24.527344 L 24.585938 24.527344 C 23.996094 24.503906 23.433594 24.265625 23 23.863281 C 23.160156 23.90625 23.328125 23.929688 23.5 23.9375 Z M 23.5 23.9375 "/>
    <path style=" stroke:none;fill-rule:nonzero;fill:rgb(100%,86.666667%,40.392157%);fill-opacity:1;" d="M 12.789062 14.976562 C 12.789062 13.640625 13.882812 12.558594 15.234375 12.558594 L 15.273438 12.558594 C 16.625 12.558594 17.71875 13.640625 17.71875 14.976562 L 17.71875 18.71875 C 17.71875 20.054688 16.625 21.140625 15.273438 21.140625 L 15.234375 21.140625 C 13.882812 21.140625 12.789062 20.054688 12.789062 18.71875 Z M 12.789062 14.976562 "/>
    <path style=" stroke:none;fill-rule:nonzero;fill:rgb(100%,86.666667%,40.392157%);fill-opacity:1;" d="M 17.71875 14.707031 C 17.71875 13.371094 18.8125 12.285156 20.164062 12.285156 L 20.203125 12.285156 C 21.550781 12.285156 22.648438 13.371094 22.648438 14.707031 L 22.648438 18.449219 C 22.648438 19.785156 21.550781 20.871094 20.203125 20.871094 L 20.164062 20.871094 C 18.8125 20.871094 17.71875 19.785156 17.71875 18.449219 Z M 17.71875 14.707031 "/>
    <path style=" stroke:none;fill-rule:nonzero;fill:rgb(92.156863%,63.921569%,32.156863%);fill-opacity:1;" d="M 14.527344 20.242188 L 14.558594 20.242188 C 15.910156 20.242188 16.980469 19.191406 16.980469 17.851562 L 16.980469 14.109375 C 16.980469 13.75 16.902344 13.40625 16.757812 13.097656 C 17.363281 13.554688 17.71875 14.265625 17.71875 15.023438 L 17.71875 18.765625 C 17.71875 20.101562 16.648438 21.140625 15.296875 21.140625 L 15.265625 21.140625 C 14.316406 21.144531 13.449219 20.597656 13.046875 19.738281 C 13.472656 20.0625 13.992188 20.238281 14.527344 20.242188 Z M 19.449219 19.972656 L 19.476562 19.972656 C 20.828125 19.972656 21.910156 18.921875 21.910156 17.582031 L 21.910156 13.839844 C 21.910156 13.476562 21.828125 13.136719 21.6875 12.828125 C 22.289062 13.285156 22.644531 13.996094 22.644531 14.753906 L 22.644531 18.496094 C 22.644531 19.832031 21.566406 20.871094 20.214844 20.871094 L 20.183594 20.871094 C 19.234375 20.875 18.367188 20.328125 17.964844 19.46875 C 18.390625 19.792969 18.910156 19.96875 19.449219 19.972656 Z M 24.480469 23.484375 C 21.160156 22.296875 15.300781 24.476562 16.113281 30.226562 C 16.113281 24.84375 21.144531 23.507812 23.90625 23.507812 C 24.238281 23.507812 24.480469 23.484375 24.480469 23.484375 Z M 24.480469 23.484375 "/>
    <path style=" stroke:none;fill-rule:nonzero;fill:rgb(92.156863%,63.921569%,32.156863%);fill-opacity:1;" d="M 23.660156 17.886719 C 21.828125 16.519531 21.234375 18.3125 17.894531 18.0625 C 16.429688 17.949219 15.453125 20.894531 17.542969 22.214844 C 20.453125 24.054688 20.925781 21.933594 21.585938 22.847656 C 22.285156 23.820312 23.015625 24.074219 23.574219 25.175781 C 23.980469 25.972656 27.347656 25.21875 27.917969 23.726562 C 29.015625 20.859375 26.566406 20.058594 23.660156 17.886719 Z M 23.660156 17.886719 "/>
    <path style=" stroke:none;fill-rule:nonzero;fill:rgb(100%,86.666667%,40.392157%);fill-opacity:1;" d="M 23.855469 18.425781 C 21.953125 17.003906 21.335938 18.871094 17.859375 18.609375 C 16.335938 18.492188 15.316406 21.554688 17.496094 22.929688 C 20.519531 24.84375 21.015625 22.636719 21.695312 23.589844 C 22.425781 24.597656 23.183594 24.863281 23.765625 26.007812 C 24.191406 26.839844 22.515625 29.644531 22.515625 29.644531 C 22.515625 29.644531 25.566406 32.804688 26.535156 31.320312 C 28.339844 28.5625 28.628906 26.96875 28.769531 25.246094 C 29.09375 21.285156 26.882812 20.6875 23.855469 18.425781 Z M 23.855469 18.425781 "/>
    <path style=" stroke:none;fill-rule:nonzero;fill:rgb(92.156863%,63.921569%,32.156863%);fill-opacity:1;" d="M 23.3125 26.039062 C 23.441406 26.296875 23.375 26.742188 23.214844 27.234375 C 23.53125 26.492188 23.773438 25.710938 23.582031 25.332031 C 23 24.1875 22.632812 23.921875 21.902344 22.910156 C 21.21875 21.957031 20.726562 24.167969 17.699219 22.253906 C 16.578125 21.546875 16.308594 20.394531 16.515625 19.457031 C 15.953125 20.4375 16.003906 22.058594 17.429688 22.960938 C 20.453125 24.871094 20.949219 22.664062 21.632812 23.617188 C 22.359375 24.632812 22.730469 24.894531 23.3125 26.039062 Z M 23.3125 26.039062 "/>
    <path style=" stroke:none;fill-rule:nonzero;fill:rgb(92.156863%,63.921569%,32.156863%);fill-opacity:1;" d="M 26.1875 19.648438 C 30.054688 22.632812 28.382812 28.460938 26.53125 30.9375 C 23.621094 34.832031 20.933594 34.226562 17.109375 33.457031 C 17.109375 33.457031 12.160156 34.015625 9.476562 29.660156 C 11.15625 34.277344 17.109375 34.0625 17.109375 34.0625 C 21.164062 35.308594 23.949219 35.5625 27.066406 31.566406 C 29.050781 29.019531 31.144531 22.027344 26.1875 19.648438 Z M 26.1875 19.648438 "/>
  </g>
</svg>