<?xml version="1.0" encoding="UTF-8" standalone="yes"?>
<svg xmlns="http://www.w3.org/2000/svg" xmlns:xlink="http://www.w3.org/1999/xlink" width="48px" height="48px" viewBox="0 0 36 36" version="1.1">
  <g id="surface1">
    <path style=" stroke:none;fill-rule:nonzero;fill:rgb(100%,86.666667%,40.392157%);fill-opacity:1;" d="M 20.996094 17.941406 C 20.703125 19.199219 21.519531 20.460938 22.820312 20.75 L 22.839844 20.757812 C 24.140625 21.046875 25.433594 20.265625 25.730469 19.003906 L 29.175781 4.273438 C 29.46875 3.011719 28.652344 1.753906 27.351562 1.460938 L 27.332031 1.457031 C 26.03125 1.164062 24.738281 1.949219 24.441406 3.210938 Z M 20.996094 17.941406 "/>
    <path style=" stroke:none;fill-rule:nonzero;fill:rgb(92.156863%,63.921569%,32.156863%);fill-opacity:1;" d="M 21.878906 19.996094 L 21.90625 20.003906 C 23.203125 20.296875 24.492188 19.492188 24.789062 18.230469 L 28.230469 3.5 C 28.390625 2.847656 28.246094 2.164062 27.84375 1.628906 C 29 2.15625 29.4375 3.15625 29.179688 4.257812 L 25.734375 18.988281 C 25.441406 20.25 24.148438 21.050781 22.847656 20.757812 L 22.828125 20.753906 C 22.261719 20.628906 21.757812 20.304688 21.410156 19.839844 C 21.554688 19.90625 21.714844 19.960938 21.878906 19.996094 Z M 21.878906 19.996094 "/>
    <path style=" stroke:none;fill-rule:nonzero;fill:rgb(100%,86.666667%,40.392157%);fill-opacity:1;" d="M 25.441406 19.410156 C 25.441406 19.410156 20.5625 14.582031 11.878906 17.007812 C 11.878906 17.007812 6.746094 17.90625 7.023438 20.492188 C 7.023438 20.492188 6.859375 26.921875 9.070312 30.71875 C 12.363281 36.375 25.183594 37.324219 28.375 26.769531 C 29.007812 24.671875 28.515625 19.046875 25.441406 19.410156 Z M 25.441406 19.410156 "/>
    <path style=" stroke:none;fill-rule:nonzero;fill:rgb(100%,86.666667%,40.392157%);fill-opacity:1;" d="M 16.707031 18.761719 C 16.949219 20.035156 18.210938 20.871094 19.519531 20.628906 L 19.542969 20.625 C 20.855469 20.382812 21.722656 19.160156 21.484375 17.890625 L 18.65625 3.03125 C 18.417969 1.761719 17.15625 0.925781 15.84375 1.164062 L 15.824219 1.171875 C 14.511719 1.410156 13.644531 2.632812 13.886719 3.90625 Z M 16.707031 18.761719 "/>
    <path style=" stroke:none;fill-rule:nonzero;fill:rgb(92.156863%,63.921569%,32.156863%);fill-opacity:1;" d="M 18.351562 20.304688 L 18.378906 20.300781 C 19.6875 20.058594 20.542969 18.820312 20.304688 17.550781 L 17.480469 2.691406 C 17.347656 2 16.875 1.457031 16.296875 1.125 C 17.542969 1.125 18.445312 1.90625 18.65625 3.015625 L 21.476562 17.875 C 21.71875 19.144531 20.863281 20.386719 19.546875 20.625 L 19.53125 20.628906 C 18.957031 20.734375 18.363281 20.632812 17.855469 20.34375 C 18.019531 20.347656 18.1875 20.335938 18.351562 20.304688 Z M 18.351562 20.304688 "/>
    <path style=" stroke:none;fill-rule:nonzero;fill:rgb(100%,86.666667%,40.392157%);fill-opacity:1;" d="M 6.765625 18.054688 C 6.621094 16.742188 7.574219 15.5625 8.898438 15.425781 L 8.9375 15.417969 C 10.261719 15.28125 11.445312 16.234375 11.589844 17.546875 L 11.988281 21.226562 C 12.058594 21.859375 11.871094 22.492188 11.46875 22.984375 C 11.070312 23.480469 10.488281 23.792969 9.855469 23.855469 L 9.816406 23.863281 C 8.492188 24 7.304688 23.046875 7.164062 21.734375 Z M 6.765625 18.054688 "/>
    <path style=" stroke:none;fill-rule:nonzero;fill:rgb(100%,86.666667%,40.392157%);fill-opacity:1;" d="M 11.300781 15.417969 C 11.160156 14.105469 12.113281 12.929688 13.4375 12.789062 L 13.476562 12.785156 C 14.796875 12.644531 15.984375 13.597656 16.128906 14.914062 L 16.527344 18.589844 C 16.671875 19.90625 15.714844 21.085938 14.394531 21.222656 L 14.355469 21.226562 C 13.03125 21.367188 11.84375 20.414062 11.699219 19.097656 Z M 11.300781 15.417969 "/>
    <path style=" stroke:none;fill-rule:nonzero;fill:rgb(92.156863%,63.921569%,32.156863%);fill-opacity:1;" d="M 9.042969 23.050781 L 9.074219 23.046875 C 10.394531 22.910156 11.320312 21.75 11.175781 20.433594 L 10.773438 16.753906 C 10.734375 16.398438 10.535156 15.996094 10.363281 15.710938 C 11.191406 16.121094 11.507812 16.804688 11.59375 17.574219 L 11.996094 21.257812 C 12.136719 22.570312 11.214844 23.714844 9.890625 23.851562 L 9.863281 23.855469 C 8.929688 23.957031 8.023438 23.511719 7.535156 22.707031 C 7.984375 22.984375 8.515625 23.105469 9.042969 23.050781 Z M 13.566406 20.417969 L 13.597656 20.414062 C 14.921875 20.273438 15.859375 19.128906 15.714844 17.816406 L 15.3125 14.132812 C 15.277344 13.78125 15.070312 13.359375 14.898438 13.070312 C 15.707031 13.492188 16.050781 14.183594 16.132812 14.957031 L 16.535156 18.636719 C 16.675781 19.953125 15.738281 21.082031 14.417969 21.21875 L 14.386719 21.222656 C 13.453125 21.324219 12.546875 20.875 12.0625 20.074219 C 12.511719 20.347656 13.042969 20.46875 13.566406 20.417969 Z M 13.566406 20.417969 "/>
    <path style=" stroke:none;fill-rule:nonzero;fill:rgb(92.156863%,63.921569%,32.156863%);fill-opacity:1;" d="M 23.285156 22.960938 C 20.585938 21.648438 14.476562 23.890625 15.671875 29.527344 C 15.671875 23.671875 20.953125 22.683594 23.285156 22.960938 Z M 23.285156 22.960938 "/>
    <path style=" stroke:none;fill-rule:nonzero;fill:rgb(92.156863%,63.921569%,32.156863%);fill-opacity:1;" d="M 22.257812 17.160156 C 20.316406 16.003906 19.929688 17.828125 16.628906 17.925781 C 15.183594 17.96875 14.542969 20.960938 16.730469 22.046875 C 19.777344 23.554688 20.015625 21.417969 20.753906 22.25 C 21.542969 23.136719 22.289062 23.308594 22.953125 24.335938 C 23.4375 25.078125 27.214844 23.929688 27.613281 22.402344 C 28.382812 19.472656 25.339844 18.996094 22.257812 17.160156 Z M 22.257812 17.160156 "/>
    <path style=" stroke:none;fill-rule:nonzero;fill:rgb(100%,86.666667%,40.392157%);fill-opacity:1;" d="M 22.507812 17.671875 C 20.492188 16.46875 20.089844 18.367188 16.652344 18.46875 C 15.148438 18.511719 14.480469 21.625 16.757812 22.753906 C 19.925781 24.324219 20.175781 22.101562 20.945312 22.96875 C 21.769531 23.886719 22.542969 24.066406 23.230469 25.132812 C 23.734375 25.910156 22.394531 28.835938 22.394531 28.835938 C 22.394531 28.835938 26.28125 31.574219 27.070312 30.011719 C 28.542969 27.117188 28.125 24.832031 28.082031 23.128906 C 27.972656 19.199219 25.714844 19.582031 22.507812 17.671875 Z M 22.507812 17.671875 "/>
    <path style=" stroke:none;fill-rule:nonzero;fill:rgb(92.156863%,63.921569%,32.156863%);fill-opacity:1;" d="M 26.410156 19.621094 C 28.566406 20.609375 28.460938 26.199219 26.855469 28.894531 C 22.859375 35.589844 14.105469 35.480469 9.957031 31.894531 C 13.804688 36.011719 23.125 36.417969 27.464844 29.472656 C 29.207031 26.695312 29.75 20.324219 26.410156 19.621094 Z M 26.410156 19.621094 "/>
    <path style=" stroke:none;fill-rule:nonzero;fill:rgb(92.156863%,63.921569%,32.156863%);fill-opacity:1;" d="M 22.789062 25.210938 C 22.945312 25.449219 22.925781 25.894531 22.824219 26.398438 C 23.054688 25.632812 23.210938 24.839844 22.980469 24.488281 C 22.289062 23.421875 21.894531 23.199219 21.078125 22.28125 C 20.304688 21.414062 20.054688 23.636719 16.886719 22.066406 C 15.71875 21.488281 15.328125 20.382812 15.429688 19.4375 C 14.984375 20.460938 15.207031 22.050781 16.699219 22.792969 C 19.867188 24.359375 20.113281 22.136719 20.886719 23.003906 C 21.707031 23.925781 22.101562 24.144531 22.789062 25.210938 Z M 22.789062 25.210938 "/>
  </g>
</svg>