<?xml version="1.0" encoding="UTF-8" standalone="yes"?>
<svg xmlns="http://www.w3.org/2000/svg" xmlns:xlink="http://www.w3.org/1999/xlink" width="48px" height="48px" viewBox="0 0 36 36" version="1.1">
  <g id="surface1">
    <path style=" stroke:none;fill-rule:nonzero;fill:rgb(100%,86.666667%,40.392157%);fill-opacity:1;" d="M 1.621094 15.074219 C 1.042969 15.527344 0.964844 16.351562 1.421875 16.9375 L 7.5 24.703125 L 9.5625 23.09375 L 3.484375 15.332031 C 3.023438 14.746094 2.203125 14.621094 1.621094 15.074219 Z M 14.082031 19.570312 L 16.273438 17.859375 L 9.34375 9.007812 C 8.867188 8.410156 8 8.304688 7.394531 8.773438 L 7.390625 8.777344 C 6.785156 9.246094 6.683594 10.125 7.160156 10.734375 Z M 14.082031 19.570312 "/>
    <path style=" stroke:none;fill-rule:nonzero;fill:rgb(92.156863%,63.921569%,32.156863%);fill-opacity:1;" d="M 7.394531 8.773438 L 7.390625 8.777344 C 7.324219 8.828125 7.265625 8.886719 7.214844 8.945312 C 7.796875 8.636719 8.539062 8.78125 8.949219 9.3125 L 15.882812 18.164062 L 16.273438 17.859375 L 9.34375 9.007812 C 8.867188 8.410156 8 8.304688 7.394531 8.773438 Z M 7.394531 8.773438 "/>
    <path style=" stroke:none;fill-rule:nonzero;fill:rgb(100%,86.666667%,40.392157%);fill-opacity:1;" d="M 9.5625 23.09375 L 11.820312 21.332031 L 4.746094 12.296875 C 4.25 11.667969 3.347656 11.546875 2.722656 12.035156 L 2.71875 12.039062 C 2.097656 12.523438 1.992188 13.429688 2.484375 14.058594 Z M 9.5625 23.09375 "/>
    <path style=" stroke:none;fill-rule:nonzero;fill:rgb(92.156863%,63.921569%,32.156863%);fill-opacity:1;" d="M 2.722656 12.035156 L 2.71875 12.039062 C 2.65625 12.089844 2.59375 12.144531 2.542969 12.207031 C 3.160156 11.882812 3.925781 12.050781 4.355469 12.601562 L 8.757812 18.226562 L 9.59375 18.488281 L 4.746094 12.296875 C 4.25 11.667969 3.347656 11.550781 2.722656 12.035156 Z M 2.722656 12.035156 "/>
    <path style=" stroke:none;fill-rule:nonzero;fill:rgb(100%,86.666667%,40.392157%);fill-opacity:1;" d="M 11.246094 20.601562 L 13.507812 18.839844 L 6.429688 9.800781 C 5.9375 9.171875 5.03125 9.054688 4.410156 9.539062 L 4.40625 9.542969 C 3.78125 10.027344 3.675781 10.933594 4.171875 11.566406 Z M 11.246094 20.601562 "/>
    <path style=" stroke:none;fill-rule:nonzero;fill:rgb(92.156863%,63.921569%,32.156863%);fill-opacity:1;" d="M 4.410156 9.539062 L 4.40625 9.542969 C 4.339844 9.59375 4.28125 9.652344 4.226562 9.710938 C 4.847656 9.386719 5.613281 9.554688 6.042969 10.105469 L 11.019531 16.464844 L 11.851562 16.726562 L 6.429688 9.800781 C 5.9375 9.171875 5.03125 9.054688 4.410156 9.539062 Z M 1.621094 15.074219 C 1.554688 15.125 1.496094 15.183594 1.441406 15.246094 C 1.996094 14.964844 2.6875 15.117188 3.09375 15.636719 L 6.707031 20.253906 L 7.539062 20.515625 L 3.484375 15.332031 C 3.023438 14.746094 2.203125 14.621094 1.621094 15.074219 Z M 1.621094 15.074219 "/>
    <path style=" stroke:none;fill-rule:nonzero;fill:rgb(100%,86.666667%,40.392157%);fill-opacity:1;" d="M 18.148438 10.421875 C 17.101562 9.933594 15.808594 11.007812 15.617188 13.546875 C 15.484375 15.320312 15.535156 15.800781 14.585938 16.539062 L 13.734375 15.453125 C 13.734375 15.453125 5.375 22.027344 5.890625 22.6875 C 5.890625 22.6875 7.796875 25.925781 10.050781 27.132812 C 13.414062 28.933594 19.464844 24.875 18.378906 18.539062 C 17.738281 14.804688 19.296875 10.957031 18.148438 10.421875 Z M 18.148438 10.421875 "/>
    <path style=" stroke:none;fill-rule:nonzero;fill:rgb(92.156863%,63.921569%,32.156863%);fill-opacity:1;" d="M 18.148438 10.421875 C 17.957031 10.328125 17.746094 10.292969 17.535156 10.3125 C 17.582031 10.328125 17.632812 10.34375 17.679688 10.363281 C 18.824219 10.902344 18.207031 12.882812 17.980469 14.582031 C 17.800781 15.949219 17.703125 17.3125 18.039062 18.542969 C 19.507812 23.921875 14.605469 27.742188 11.082031 27.492188 C 14.613281 28.144531 20.042969 24.222656 18.511719 18.601562 C 18.171875 17.367188 18.269531 16.074219 18.453125 14.636719 C 18.667969 12.9375 19.296875 10.957031 18.148438 10.421875 Z M 18.148438 10.421875 "/>
    <path style=" stroke:none;fill-rule:nonzero;fill:rgb(92.156863%,63.921569%,32.156863%);fill-opacity:1;" d="M 14.863281 16.304688 C 12.878906 16.976562 10.496094 20.570312 13.328125 23.3125 C 11.074219 20.433594 13.121094 17.679688 14.558594 16.5625 C 14.730469 16.425781 14.863281 16.304688 14.863281 16.304688 Z M 14.863281 16.304688 "/>
    <path style=" stroke:none;fill-rule:nonzero;fill:rgb(100%,86.666667%,40.392157%);fill-opacity:1;" d="M 34.378906 15.03125 C 34.957031 15.484375 35.035156 16.308594 34.578125 16.894531 L 28.5 24.660156 L 26.4375 23.054688 L 32.515625 15.289062 C 32.976562 14.703125 33.796875 14.578125 34.378906 15.03125 Z M 21.917969 19.53125 L 19.726562 17.820312 L 26.65625 8.964844 C 27.132812 8.367188 28 8.261719 28.605469 8.730469 L 28.609375 8.734375 C 29.214844 9.207031 29.316406 10.082031 28.839844 10.691406 Z M 21.917969 19.53125 "/>
    <path style=" stroke:none;fill-rule:nonzero;fill:rgb(92.156863%,63.921569%,32.156863%);fill-opacity:1;" d="M 28.605469 8.730469 L 28.609375 8.734375 C 28.675781 8.785156 28.734375 8.84375 28.785156 8.902344 C 28.203125 8.597656 27.460938 8.742188 27.050781 9.269531 L 20.117188 18.125 L 19.726562 17.820312 L 26.65625 8.964844 C 27.132812 8.367188 28 8.261719 28.605469 8.730469 Z M 28.605469 8.730469 "/>
    <path style=" stroke:none;fill-rule:nonzero;fill:rgb(100%,86.666667%,40.392157%);fill-opacity:1;" d="M 26.4375 23.050781 L 24.179688 21.292969 L 31.253906 12.253906 C 31.75 11.625 32.652344 11.507812 33.277344 11.992188 L 33.28125 11.996094 C 33.902344 12.480469 34.007812 13.386719 33.511719 14.015625 Z M 26.4375 23.050781 "/>
    <path style=" stroke:none;fill-rule:nonzero;fill:rgb(92.156863%,63.921569%,32.156863%);fill-opacity:1;" d="M 33.277344 11.992188 L 33.28125 11.996094 C 33.347656 12.046875 33.402344 12.105469 33.457031 12.164062 C 32.835938 11.839844 32.074219 12.007812 31.644531 12.558594 L 27.238281 18.183594 L 26.40625 18.445312 L 31.253906 12.253906 C 31.75 11.625 32.652344 11.507812 33.277344 11.992188 Z M 33.277344 11.992188 "/>
    <path style=" stroke:none;fill-rule:nonzero;fill:rgb(100%,86.666667%,40.392157%);fill-opacity:1;" d="M 24.753906 20.558594 L 22.492188 18.796875 L 29.566406 9.761719 C 30.0625 9.128906 30.96875 9.011719 31.589844 9.496094 L 31.59375 9.5 C 32.21875 9.984375 32.324219 10.890625 31.828125 11.523438 Z M 24.753906 20.558594 "/>
    <path style=" stroke:none;fill-rule:nonzero;fill:rgb(92.156863%,63.921569%,32.156863%);fill-opacity:1;" d="M 31.589844 9.496094 L 31.59375 9.5 C 31.660156 9.550781 31.71875 9.609375 31.773438 9.671875 C 31.152344 9.34375 30.386719 9.511719 29.957031 10.066406 L 24.980469 16.421875 L 24.144531 16.683594 L 29.566406 9.761719 C 30.0625 9.128906 30.96875 9.011719 31.589844 9.496094 Z M 34.378906 15.03125 C 34.445312 15.085938 34.503906 15.140625 34.558594 15.203125 C 34.003906 14.921875 33.3125 15.078125 32.90625 15.59375 L 29.292969 20.210938 L 28.460938 20.472656 L 32.515625 15.289062 C 32.976562 14.703125 33.796875 14.578125 34.378906 15.03125 Z M 34.378906 15.03125 "/>
    <path style=" stroke:none;fill-rule:nonzero;fill:rgb(100%,86.666667%,40.392157%);fill-opacity:1;" d="M 17.851562 10.378906 C 18.898438 9.890625 20.191406 10.964844 20.382812 13.503906 C 20.515625 15.28125 20.464844 15.757812 21.414062 16.5 L 22.265625 15.410156 C 22.265625 15.410156 30.625 21.988281 30.109375 22.644531 C 30.109375 22.644531 28.203125 25.882812 25.949219 27.089844 C 22.585938 28.890625 16.535156 24.835938 17.621094 18.496094 C 18.261719 14.761719 16.703125 10.914062 17.851562 10.378906 Z M 17.851562 10.378906 "/>
    <path style=" stroke:none;fill-rule:nonzero;fill:rgb(92.156863%,63.921569%,32.156863%);fill-opacity:1;" d="M 17.851562 10.378906 C 18.042969 10.289062 18.253906 10.25 18.464844 10.269531 C 18.417969 10.285156 18.367188 10.300781 18.320312 10.324219 C 17.175781 10.859375 17.792969 12.839844 18.019531 14.539062 C 18.199219 15.90625 18.296875 17.269531 17.960938 18.503906 C 16.492188 23.878906 21.394531 27.699219 24.917969 27.449219 C 21.386719 28.101562 15.957031 24.179688 17.488281 18.558594 C 17.828125 17.324219 17.730469 16.03125 17.546875 14.597656 C 17.332031 12.894531 16.703125 10.914062 17.851562 10.378906 Z M 17.851562 10.378906 "/>
    <path style=" stroke:none;fill-rule:nonzero;fill:rgb(92.156863%,63.921569%,32.156863%);fill-opacity:1;" d="M 21.136719 16.261719 C 23.121094 16.9375 25.503906 20.527344 22.671875 23.269531 C 24.925781 20.394531 22.875 17.640625 21.441406 16.519531 C 21.269531 16.382812 21.136719 16.261719 21.136719 16.261719 Z M 21.136719 16.261719 "/>
  </g>
</svg>