<?xml version="1.0" encoding="UTF-8" standalone="yes"?>
<svg xmlns="http://www.w3.org/2000/svg" xmlns:xlink="http://www.w3.org/1999/xlink" width="48px" height="48px" viewBox="0 0 36 36" version="1.1">
  <g id="surface1">
    <path style=" stroke:none;fill-rule:nonzero;fill:rgb(100%,86.666667%,40.392157%);fill-opacity:1;" d="M 17.867188 20.757812 C 17.867188 20.757812 15.417969 20.269531 17.445312 24.480469 C 18.910156 27.527344 18.765625 31.066406 17.445312 32.945312 C 15.332031 35.949219 11.21875 34.964844 11.644531 33.238281 C 13.109375 27.304688 9.796875 25.539062 8.085938 21.792969 C 6.347656 18 6.539062 12.613281 7.339844 7.820312 C 7.835938 4.820312 9.101562 1.125 13.777344 1.125 L 20.238281 1.125 Z M 17.867188 20.757812 "/>
    <path style=" stroke:none;fill-rule:nonzero;fill:rgb(92.156863%,63.921569%,32.156863%);fill-opacity:1;" d="M 14.484375 1.960938 C 9.808594 1.960938 8.785156 5.65625 8.289062 8.652344 C 7.488281 13.445312 7.363281 17.273438 8.894531 21.148438 C 10.566406 25.367188 12.324219 25.492188 12.324219 33.828125 C 12.324219 34.246094 12.546875 34.519531 12.769531 34.707031 C 11.980469 34.441406 11.542969 33.980469 11.542969 33.304688 C 11.542969 27.066406 9.796875 25.539062 8.085938 21.792969 C 6.347656 18 6.539062 12.613281 7.339844 7.820312 C 7.835938 4.820312 9.101562 1.125 13.777344 1.125 L 20.238281 1.125 L 20.238281 1.960938 Z M 14.484375 1.960938 "/>
    <path style=" stroke:none;fill-rule:nonzero;fill:rgb(100%,86.666667%,40.392157%);fill-opacity:1;" d="M 25.875 15.851562 L 17.867188 15.851562 C 15.074219 15.851562 15.074219 20.761719 17.867188 20.761719 L 25.875 20.761719 C 28.667969 20.757812 28.667969 15.851562 25.875 15.851562 Z M 25.875 15.851562 "/>
    <path style=" stroke:none;fill-rule:nonzero;fill:rgb(92.156863%,63.921569%,32.156863%);fill-opacity:1;" d="M 26.496094 16.667969 L 18.488281 16.667969 C 16.605469 16.667969 15.996094 18.898438 16.65625 20.351562 C 15.164062 19.183594 15.5625 15.851562 17.863281 15.851562 L 25.871094 15.851562 C 26.777344 15.851562 27.386719 16.375 27.703125 17.074219 C 27.386719 16.824219 26.984375 16.667969 26.496094 16.667969 Z M 26.496094 16.667969 "/>
    <path style=" stroke:none;fill-rule:nonzero;fill:rgb(100%,86.666667%,40.392157%);fill-opacity:1;" d="M 26.738281 10.925781 L 17.128906 10.925781 C 13.78125 10.925781 13.78125 15.832031 17.128906 15.832031 L 26.738281 15.832031 C 30.085938 15.832031 30.085938 10.925781 26.738281 10.925781 Z M 26.738281 10.925781 "/>
    <path style=" stroke:none;fill-rule:nonzero;fill:rgb(92.156863%,63.921569%,32.156863%);fill-opacity:1;" d="M 27.480469 11.742188 L 17.875 11.742188 C 15.613281 11.742188 14.886719 13.972656 15.675781 15.425781 C 13.882812 14.253906 14.363281 10.925781 17.125 10.925781 L 26.730469 10.925781 C 27.824219 10.925781 28.550781 11.449219 28.933594 12.148438 C 28.550781 11.898438 28.070312 11.742188 27.480469 11.742188 Z M 27.480469 11.742188 "/>
    <path style=" stroke:none;fill-rule:nonzero;fill:rgb(100%,86.666667%,40.392157%);fill-opacity:1;" d="M 25.835938 6.023438 L 17.714844 6.023438 C 14.882812 6.023438 14.882812 10.925781 17.714844 10.925781 L 25.835938 10.925781 C 28.667969 10.925781 28.667969 6.023438 25.835938 6.023438 Z M 25.835938 6.023438 "/>
    <path style=" stroke:none;fill-rule:nonzero;fill:rgb(92.156863%,63.921569%,32.156863%);fill-opacity:1;" d="M 26.464844 6.835938 L 18.347656 6.835938 C 16.433594 6.835938 15.820312 9.066406 16.484375 10.519531 C 14.972656 9.351562 15.375 6.023438 17.710938 6.023438 L 25.832031 6.023438 C 26.753906 6.023438 27.371094 6.542969 27.691406 7.246094 C 27.371094 6.992188 26.964844 6.835938 26.464844 6.835938 Z M 26.464844 6.835938 "/>
    <path style=" stroke:none;fill-rule:nonzero;fill:rgb(100%,86.666667%,40.392157%);fill-opacity:1;" d="M 24.964844 1.125 L 19.714844 1.125 C 16.6875 1.125 16.6875 6.03125 19.714844 6.03125 L 24.964844 6.03125 C 27.996094 6.03125 27.996094 1.125 24.964844 1.125 Z M 24.964844 1.125 "/>
    <path style=" stroke:none;fill-rule:nonzero;fill:rgb(92.156863%,63.921569%,32.156863%);fill-opacity:1;" d="M 25.640625 1.941406 L 20.390625 1.941406 C 18.347656 1.941406 17.6875 4.171875 18.402344 5.625 C 16.78125 4.453125 17.214844 1.125 19.710938 1.125 L 24.960938 1.125 C 25.945312 1.125 26.605469 1.648438 26.949219 2.347656 C 26.605469 2.097656 26.171875 1.941406 25.640625 1.941406 Z M 25.640625 1.941406 "/>
  </g>
</svg>