<?xml version="1.0" encoding="UTF-8" standalone="yes"?>
<svg xmlns="http://www.w3.org/2000/svg" xmlns:xlink="http://www.w3.org/1999/xlink" width="48px" height="48px" viewBox="0 0 36 36" version="1.1">
  <g id="surface1">
    <path style=" stroke:none;fill-rule:nonzero;fill:rgb(100%,86.666667%,40.392157%);fill-opacity:1;" d="M 1.199219 23.746094 C 0.679688 19.925781 3.046875 13.765625 4.152344 5.484375 C 4.351562 4.003906 12.042969 2.445312 15.621094 2.445312 C 16.550781 2.445312 17.320312 6.648438 17.089844 8.109375 C 16.921875 9.171875 15.421875 8.890625 15.421875 8.890625 C 14.917969 10.300781 13.421875 9.753906 13.421875 9.753906 C 12.984375 10.957031 11.621094 10.394531 11.621094 10.394531 C 11.058594 11.515625 9.808594 10.96875 9.808594 10.96875 C 8.683594 15.84375 10.769531 15.410156 12.292969 22.800781 C 12.292969 22.800781 12.722656 22.722656 13.917969 20.3125 C 18.757812 10.554688 35.746094 13.675781 34.738281 24.113281 C 34.511719 26.445312 36.960938 30.242188 27.828125 33.097656 C 20.578125 35.359375 11.664062 31.019531 11.664062 31.019531 C 8.628906 31.953125 2.734375 31.894531 2.558594 29.644531 C 2.355469 27.039062 1.464844 25.710938 1.199219 23.746094 Z M 1.199219 23.746094 "/>
    <path style=" stroke:none;fill-rule:nonzero;fill:rgb(92.156863%,63.921569%,32.156863%);fill-opacity:1;" d="M 34.738281 24.113281 C 34.976562 21.640625 34.226562 19.636719 32.902344 18.125 C 33.703125 19.464844 34.109375 21.097656 33.925781 23.007812 C 33.699219 25.34375 36.148438 29.140625 27.015625 31.992188 C 19.765625 34.253906 10.851562 29.914062 10.851562 29.914062 C 8.480469 30.644531 4.324219 30.769531 2.570312 29.714844 C 2.800781 31.898438 8.660156 31.945312 11.664062 31.019531 C 11.664062 31.019531 20.578125 35.359375 27.824219 33.097656 C 36.960938 30.242188 34.511719 26.445312 34.738281 24.113281 Z M 9.148438 10.902344 C 7.726562 16.648438 10.023438 16.398438 11.554688 23.6875 L 12.363281 22.847656 C 11.242188 15.558594 9.300781 16.4375 9.777344 11.03125 C 9.425781 11.019531 9.148438 10.902344 9.148438 10.902344 Z M 9.148438 10.902344 "/>
    <path style=" stroke:none;fill-rule:nonzero;fill:rgb(92.156863%,63.921569%,32.156863%);fill-opacity:1;" d="M 16.4375 27.277344 C 21.113281 29.023438 28.144531 27.238281 32.152344 25.390625 C 30.359375 29.582031 21.078125 31.816406 16.4375 27.277344 Z M 14.117188 4.03125 C 13.785156 3.402344 13.105469 3.464844 12.652344 3.65625 C 12.710938 3 14.371094 2.496094 14.117188 4.03125 Z M 14.117188 4.03125 "/>
    <path style=" stroke:none;fill-rule:nonzero;fill:rgb(92.156863%,63.921569%,32.156863%);fill-opacity:1;" d="M 17.535156 6.464844 C 17.390625 5.226562 16.964844 4.003906 16.210938 3 C 16.613281 4.050781 16.816406 5.167969 16.820312 6.292969 C 16.820312 6.796875 16.9375 8.59375 16.042969 8.359375 C 15.492188 8.214844 15.480469 7.746094 15.324219 7.257812 C 15.078125 6.5 14.652344 5.625 14.707031 4.820312 C 14.496094 5.609375 14.746094 6.558594 14.839844 7.359375 C 14.890625 7.824219 15.238281 9.085938 14.621094 9.257812 C 14.28125 9.351562 13.890625 9.132812 13.609375 8.96875 C 13.5 8.90625 13.421875 8.445312 13.382812 8.320312 C 13.140625 7.53125 12.707031 6.628906 12.761719 5.800781 C 12.550781 6.546875 12.753906 7.445312 12.820312 8.207031 C 12.863281 8.679688 13.121094 9.707031 12.546875 9.945312 C 11.894531 10.261719 11.796875 9.492188 11.675781 9.09375 C 11.453125 8.347656 11.089844 7.53125 11.097656 6.75 C 10.871094 7.703125 11.136719 8.816406 11.183594 9.792969 C 11.203125 10.277344 10.113281 10.714844 9.703125 10.410156 C 9.066406 9.933594 8.957031 8.816406 8.882812 8.09375 C 9.078125 8.339844 9.351562 8.648438 9.699219 8.621094 C 9.402344 8.304688 9.277344 7.765625 9.078125 7.386719 C 8.894531 7.074219 8.527344 6.328125 8.09375 6.316406 C 8.160156 6.449219 8.523438 7.371094 8.46875 7.46875 C 8.292969 7.773438 8.121094 8.082031 7.925781 8.375 C 7.757812 8.621094 7.273438 9.402344 6.882812 9.164062 C 6.457031 8.910156 6.320312 8.203125 6.195312 7.773438 C 6.226562 8.320312 6.210938 9.191406 6.753906 9.519531 C 7.273438 9.832031 7.859375 9.339844 8.203125 8.988281 C 8.320312 10.136719 8.800781 11.632812 10.238281 11.535156 C 10.539062 11.515625 10.835938 11.417969 11.113281 11.292969 C 11.339844 11.1875 11.59375 10.921875 11.832031 10.992188 C 12.433594 11.175781 13.078125 11.058594 13.507812 10.585938 C 13.710938 10.363281 13.65625 10.226562 13.957031 10.300781 C 14.277344 10.371094 14.605469 10.386719 14.925781 10.292969 C 15.183594 10.21875 15.417969 10.070312 15.59375 9.863281 C 15.695312 9.75 15.769531 9.621094 15.832031 9.484375 C 15.929688 9.261719 16.039062 9.378906 16.261719 9.371094 C 17.722656 9.316406 17.671875 7.507812 17.535156 6.464844 C 17.390625 5.210938 17.574219 6.78125 17.535156 6.464844 Z M 17.535156 6.464844 "/>
    <path style=" stroke:none;fill-rule:nonzero;fill:rgb(92.156863%,63.921569%,32.156863%);fill-opacity:1;" d="M 16.167969 3.261719 C 15.835938 2.632812 15.160156 2.695312 14.707031 2.886719 C 14.765625 2.230469 16.425781 1.722656 16.167969 3.261719 Z M 12.476562 4.882812 C 12.144531 4.253906 11.464844 4.316406 11.011719 4.507812 C 11.070312 3.851562 12.730469 3.34375 12.476562 4.882812 Z M 10.578125 5.769531 C 10.246094 5.140625 9.570312 5.203125 9.117188 5.394531 C 9.175781 4.738281 10.835938 4.230469 10.578125 5.769531 Z M 10.578125 5.769531 "/>
  </g>
</svg>