<?xml version="1.0" encoding="UTF-8" standalone="yes"?>
<svg xmlns="http://www.w3.org/2000/svg" xmlns:xlink="http://www.w3.org/1999/xlink" width="48px" height="48px" viewBox="0 0 36 36" version="1.1">
  <g id="surface1">
    <path style=" stroke:none;fill-rule:nonzero;fill:rgb(92.941176%,29.803922%,36.078431%);fill-opacity:1;" d="M 18 12.667969 C 14.449219 12.667969 1.125 18.394531 1.125 18.394531 C 4.292969 22.269531 3.175781 27.84375 18 27.84375 C 31.324219 27.84375 31.039062 23.085938 34.875 18.394531 C 34.875 18.394531 21.550781 12.667969 18 12.667969 Z M 18 12.667969 "/>
    <path style=" stroke:none;fill-rule:nonzero;fill:rgb(37.647059%,27.058824%,16.862745%);fill-opacity:1;" d="M 18 11.601562 L 3.292969 17.535156 C 7.117188 22.210938 11.449219 20.414062 18 20.414062 C 24.53125 20.414062 28.808594 22.183594 32.707031 17.535156 Z M 18 11.601562 "/>
    <path style=" stroke:none;fill-rule:nonzero;fill:rgb(100%,100%,100%);fill-opacity:1;" d="M 32.886719 17.414062 C 32.886719 16.449219 26.59375 11.832031 18 11.832031 C 9.40625 11.832031 3.113281 16.449219 3.113281 17.414062 Z M 32.886719 17.414062 "/>
    <path style=" stroke:none;fill-rule:nonzero;fill:rgb(92.941176%,29.803922%,36.078431%);fill-opacity:1;" d="M 24.964844 8.363281 C 23.542969 7.933594 21.460938 8.140625 18.714844 9.265625 C 18.480469 9.351562 18.238281 9.445312 18 9.546875 C 17.765625 9.449219 17.527344 9.355469 17.285156 9.265625 C 14.539062 8.140625 12.460938 7.933594 11.035156 8.363281 C 6.863281 9.605469 1.125 18.394531 1.125 18.394531 C 4.652344 18.816406 9.285156 13.59375 18 13.59375 C 26.714844 13.59375 31.347656 18.816406 34.875 18.394531 C 34.875 18.394531 29.136719 9.605469 24.964844 8.363281 Z M 24.964844 8.363281 "/>
  </g>
</svg>