<?xml version="1.0" encoding="UTF-8" standalone="yes"?>
<svg xmlns="http://www.w3.org/2000/svg" xmlns:xlink="http://www.w3.org/1999/xlink" width="48px" height="48px" viewBox="0 0 36 36" version="1.1">
  <g id="surface1">
    <path style=" stroke:none;fill-rule:nonzero;fill:rgb(28.627451%,23.137255%,18.823529%);fill-opacity:1;" d="M 34.875 5.246094 C 34.875 11.371094 27.320312 16.59375 18 16.59375 C 8.679688 16.59375 1.125 11.371094 1.125 5.246094 C 1.125 5.246094 9.160156 7.039062 18 7.039062 C 26.839844 7.039062 34.875 5.246094 34.875 5.246094 Z M 34.875 5.246094 "/>
    <path style=" stroke:none;fill-rule:nonzero;fill:rgb(100%,44.313725%,49.803922%);fill-opacity:1;" d="M 4.5 16.34375 C 4.5 6.746094 4.503906 9.691406 18 9.691406 C 31.503906 9.691406 31.5 6.746094 31.5 16.34375 C 31.5 25.9375 25.457031 30.753906 18 30.753906 C 10.542969 30.753906 4.5 25.9375 4.5 16.34375 Z M 4.5 16.34375 "/>
    <path style=" stroke:none;fill-rule:nonzero;fill:rgb(88.627451%,34.901961%,42.352941%);fill-opacity:1;" d="M 18.84375 9.691406 L 18 26.144531 L 17.15625 9.691406 Z M 18.84375 9.691406 "/>
  </g>
</svg>