<?xml version="1.0" encoding="UTF-8" standalone="yes"?>
<svg xmlns="http://www.w3.org/2000/svg" xmlns:xlink="http://www.w3.org/1999/xlink" width="48px" height="48px" viewBox="0 0 36 36" version="1.1">
  <g id="surface1">
    <path style=" stroke:none;fill-rule:nonzero;fill:rgb(100%,86.666667%,40.392157%);fill-opacity:1;" d="M 28.886719 19.859375 C 26.386719 19.625 25.550781 17.621094 25.261719 16.632812 L 25.125 16.164062 C 25.125 16.164062 24.84375 15.839844 24.488281 15.335938 C 24.449219 15.328125 24.40625 15.316406 24.363281 15.308594 C 24.363281 15.308594 24.101562 19.667969 24.300781 21.105469 C 24.519531 22.691406 24.519531 29.675781 24.609375 31.390625 C 24.714844 33.40625 24.351562 34.875 22.074219 34.875 C 19.773438 34.875 19.070312 33.089844 19.210938 31.390625 C 19.40625 29.046875 19.527344 21.121094 19.527344 21.121094 C 19.28125 22.140625 18.839844 23.082031 17.15625 22.90625 C 15.226562 22.707031 14.863281 21.957031 14.777344 20.761719 C 13.832031 22.382812 12.546875 22.261719 11.75 22.0625 C 10.40625 21.722656 10.03125 19.296875 10.015625 19.296875 C 9.488281 21.097656 8.65625 20.785156 7.488281 20.609375 C 6.773438 20.503906 5.941406 19.777344 5.640625 18.535156 C 5.34375 17.292969 4.421875 16.378906 5.804688 6.695312 C 6.167969 4.152344 8.386719 2.902344 11.738281 2.324219 C 14 1.933594 17.089844 1.3125 19.390625 1.136719 C 19.59375 1.125 19.796875 1.121094 20.003906 1.132812 C 21.277344 1.066406 22.5625 1.609375 23.355469 2.6875 L 28.390625 9.546875 C 28.394531 9.554688 28.398438 9.5625 28.40625 9.570312 C 28.765625 9.898438 28.992188 10.363281 29.054688 10.9375 C 29.277344 13.152344 29.867188 15.3125 30.804688 17.332031 C 31.234375 18.265625 30.617188 20.023438 28.886719 19.859375 Z M 28.886719 19.859375 "/>
    <path style=" stroke:none;fill-rule:nonzero;fill:rgb(92.156863%,63.921569%,32.156863%);fill-opacity:1;" d="M 8.265625 20.726562 C 10.410156 21.046875 10.246094 17.75 9.800781 19.136719 C 9.339844 20.59375 8.265625 20.726562 8.265625 20.726562 Z M 12.382812 22.167969 C 15.3125 22.46875 15.007812 19.203125 14.445312 20.542969 C 13.875 21.90625 12.382812 22.167969 12.382812 22.167969 Z M 17.214844 22.914062 C 20.148438 23.210938 19.84375 19.734375 19.28125 21.074219 C 18.710938 22.4375 17.214844 22.914062 17.214844 22.914062 Z M 17.214844 22.914062 "/>
    <path style=" stroke:none;fill-rule:nonzero;fill:rgb(92.156863%,63.921569%,32.156863%);fill-opacity:1;" d="M 24.363281 15.308594 C 24.363281 15.308594 25.183594 22.390625 24.785156 31.417969 C 24.726562 32.730469 24.722656 34.757812 22.382812 34.863281 C 25.007812 34.035156 23.789062 25.085938 24.363281 15.308594 Z M 24.363281 15.308594 "/>
    <path style=" stroke:none;fill-rule:nonzero;fill:rgb(92.156863%,63.921569%,32.156863%);fill-opacity:1;" d="M 30.378906 19.367188 C 30.484375 18.960938 30.460938 18.539062 30.3125 18.21875 C 29.375 16.199219 28.78125 14.039062 28.558594 11.824219 C 28.5 11.246094 28.269531 10.785156 27.914062 10.457031 C 27.90625 10.449219 27.902344 10.4375 27.894531 10.429688 L 22.863281 3.574219 C 22.070312 2.492188 20.785156 1.949219 19.507812 2.019531 C 19.304688 2.003906 19.101562 2.007812 18.894531 2.023438 C 16.59375 2.199219 13.507812 2.816406 11.242188 3.207031 C 8.851562 3.621094 7.042969 4.382812 6.066406 5.703125 C 6.816406 3.820312 8.855469 2.820312 11.734375 2.324219 C 14 1.933594 17.085938 1.3125 19.386719 1.136719 C 19.59375 1.121094 19.796875 1.121094 20 1.132812 C 21.277344 1.066406 22.5625 1.609375 23.355469 2.6875 L 28.386719 9.546875 C 28.394531 9.554688 28.398438 9.5625 28.402344 9.570312 C 28.761719 9.898438 28.992188 10.363281 29.050781 10.9375 C 29.273438 13.152344 29.867188 15.3125 30.804688 17.332031 C 31.074219 17.914062 30.933594 18.808594 30.378906 19.367188 Z M 30.378906 19.367188 "/>
    <path style=" stroke:none;fill-rule:nonzero;fill:rgb(92.156863%,63.921569%,32.156863%);fill-opacity:1;" d="M 25.054688 12.921875 C 25.054688 12.921875 25.792969 15.34375 26.089844 16.484375 C 26.335938 17.4375 27.222656 19.164062 28.695312 19.835938 C 26.34375 19.519531 25.542969 17.59375 25.261719 16.632812 L 25.125 16.164062 C 25.125 16.164062 24.730469 15.894531 24.363281 15.308594 C 24.363281 15.308594 25.140625 14.207031 25.054688 12.921875 Z M 19.234375 20.484375 C 19.117188 20.15625 18.960938 19.90625 18.789062 19.644531 C 18.613281 19.390625 18.429688 19.125 18.269531 18.820312 C 18.117188 18.515625 17.992188 18.167969 17.992188 17.804688 C 17.980469 17.449219 18.082031 17.101562 18.285156 16.808594 C 18.3125 17.15625 18.34375 17.460938 18.425781 17.746094 C 18.507812 18.027344 18.625 18.292969 18.769531 18.566406 C 18.902344 18.84375 19.070312 19.125 19.179688 19.453125 C 19.296875 19.773438 19.355469 20.152344 19.234375 20.484375 Z M 14.816406 19.5625 C 14.695312 19.238281 14.539062 18.984375 14.367188 18.726562 C 14.191406 18.46875 14.007812 18.203125 13.847656 17.902344 C 13.695312 17.59375 13.570312 17.246094 13.570312 16.882812 C 13.558594 16.527344 13.664062 16.179688 13.863281 15.886719 C 13.890625 16.234375 13.921875 16.539062 14.003906 16.824219 C 14.085938 17.105469 14.203125 17.371094 14.347656 17.644531 C 14.480469 17.921875 14.648438 18.203125 14.761719 18.53125 C 14.875 18.851562 14.933594 19.234375 14.816406 19.5625 Z M 9.988281 18.214844 C 9.871094 17.890625 9.714844 17.636719 9.542969 17.378906 C 9.367188 17.125 9.183594 16.859375 9.019531 16.554688 C 8.867188 16.25 8.746094 15.898438 8.742188 15.535156 C 8.734375 15.179688 8.835938 14.832031 9.039062 14.542969 C 9.066406 14.886719 9.097656 15.191406 9.179688 15.476562 C 9.261719 15.761719 9.375 16.027344 9.519531 16.296875 C 9.652344 16.574219 9.820312 16.855469 9.933594 17.183594 C 10.050781 17.503906 10.109375 17.886719 9.988281 18.214844 Z M 9.988281 18.214844 "/>
  </g>
</svg>