<?xml version="1.0" encoding="UTF-8" standalone="yes"?>
<svg xmlns="http://www.w3.org/2000/svg" xmlns:xlink="http://www.w3.org/1999/xlink" width="48px" height="48px" viewBox="0 0 36 36" version="1.1">
  <g id="surface1">
    <path style=" stroke:none;fill-rule:nonzero;fill:rgb(100%,86.666667%,40.392157%);fill-opacity:1;" d="M 16.140625 7.113281 C 16.375 9.613281 18.378906 10.449219 19.367188 10.742188 L 19.835938 10.875 C 19.835938 10.875 20.160156 11.15625 20.664062 11.511719 C 20.671875 11.554688 20.683594 11.59375 20.691406 11.636719 C 20.691406 11.636719 16.332031 11.898438 14.894531 11.699219 C 13.308594 11.480469 6.324219 11.480469 4.609375 11.390625 C 2.59375 11.285156 1.125 11.648438 1.125 13.925781 C 1.125 16.226562 2.910156 16.929688 4.609375 16.789062 C 6.953125 16.59375 14.878906 16.472656 14.878906 16.472656 C 13.855469 16.71875 12.917969 17.160156 13.09375 18.84375 C 13.292969 20.773438 14.039062 21.136719 15.238281 21.226562 C 13.617188 22.171875 13.738281 23.453125 13.9375 24.25 C 14.277344 25.597656 16.703125 25.96875 16.703125 25.984375 C 14.902344 26.511719 15.214844 27.347656 15.390625 28.511719 C 15.496094 29.226562 16.222656 30.058594 17.460938 30.359375 C 18.703125 30.65625 19.621094 31.582031 29.304688 30.195312 C 31.847656 29.832031 33.097656 27.613281 33.675781 24.265625 C 34.066406 22 34.6875 18.914062 34.863281 16.613281 C 34.878906 16.40625 34.875 16.199219 34.867188 16 C 34.933594 14.722656 34.390625 13.4375 33.3125 12.644531 L 26.453125 7.613281 C 26.445312 7.605469 26.4375 7.601562 26.429688 7.59375 C 26.101562 7.238281 25.636719 7.007812 25.0625 6.949219 C 22.847656 6.726562 20.6875 6.132812 18.667969 5.195312 C 17.734375 4.765625 15.976562 5.382812 16.140625 7.113281 Z M 16.140625 7.113281 "/>
    <path style=" stroke:none;fill-rule:nonzero;fill:rgb(92.156863%,63.921569%,32.156863%);fill-opacity:1;" d="M 15.273438 27.734375 C 14.953125 25.589844 18.25 25.753906 16.863281 26.199219 C 15.40625 26.660156 15.273438 27.734375 15.273438 27.734375 Z M 13.832031 23.617188 C 13.53125 20.6875 16.796875 20.992188 15.453125 21.554688 C 14.09375 22.125 13.832031 23.617188 13.832031 23.617188 Z M 13.085938 18.785156 C 12.789062 15.851562 16.265625 16.15625 14.925781 16.71875 C 13.5625 17.289062 13.085938 18.785156 13.085938 18.785156 Z M 13.085938 18.785156 "/>
    <path style=" stroke:none;fill-rule:nonzero;fill:rgb(92.156863%,63.921569%,32.156863%);fill-opacity:1;" d="M 20.691406 11.636719 C 20.691406 11.636719 13.605469 10.816406 4.582031 11.214844 C 3.269531 11.273438 1.242188 11.28125 1.132812 13.617188 C 1.964844 10.992188 10.914062 12.210938 20.691406 11.636719 Z M 20.691406 11.636719 "/>
    <path style=" stroke:none;fill-rule:nonzero;fill:rgb(92.156863%,63.921569%,32.156863%);fill-opacity:1;" d="M 16.632812 5.621094 C 17.039062 5.515625 17.460938 5.539062 17.78125 5.6875 C 19.800781 6.625 21.960938 7.214844 24.175781 7.4375 C 24.75 7.5 25.214844 7.730469 25.542969 8.085938 C 25.550781 8.09375 25.5625 8.097656 25.570312 8.105469 L 32.425781 13.136719 C 33.503906 13.929688 34.050781 15.214844 33.980469 16.488281 C 33.992188 16.691406 33.992188 16.894531 33.976562 17.105469 C 33.800781 19.40625 33.179688 22.492188 32.792969 24.757812 C 32.378906 27.148438 31.617188 28.957031 30.296875 29.933594 C 32.179688 29.183594 33.179688 27.144531 33.675781 24.265625 C 34.066406 22 34.6875 18.914062 34.863281 16.613281 C 34.878906 16.402344 34.878906 16.199219 34.867188 15.996094 C 34.933594 14.722656 34.390625 13.4375 33.3125 12.644531 L 26.453125 7.613281 C 26.445312 7.605469 26.4375 7.601562 26.429688 7.59375 C 26.101562 7.234375 25.636719 7.007812 25.0625 6.945312 C 22.847656 6.722656 20.6875 6.132812 18.667969 5.195312 C 18.085938 4.925781 17.191406 5.066406 16.632812 5.621094 Z M 16.632812 5.621094 "/>
    <path style=" stroke:none;fill-rule:nonzero;fill:rgb(92.156863%,63.921569%,32.156863%);fill-opacity:1;" d="M 23.078125 10.945312 C 23.078125 10.945312 20.65625 10.207031 19.515625 9.910156 C 18.5625 9.664062 16.835938 8.777344 16.164062 7.304688 C 16.480469 9.65625 18.402344 10.457031 19.367188 10.738281 L 19.835938 10.875 C 19.835938 10.875 20.105469 11.269531 20.691406 11.636719 C 20.691406 11.636719 21.792969 10.859375 23.078125 10.945312 Z M 15.515625 16.765625 C 15.84375 16.644531 16.226562 16.703125 16.546875 16.816406 C 16.875 16.929688 17.15625 17.097656 17.433594 17.230469 C 17.695312 17.371094 17.96875 17.488281 18.253906 17.574219 C 18.539062 17.65625 18.84375 17.6875 19.191406 17.714844 C 18.910156 17.910156 18.554688 18.019531 18.195312 18.007812 C 17.832031 18.007812 17.480469 17.882812 17.175781 17.730469 C 16.875 17.570312 16.605469 17.386719 16.351562 17.210938 C 16.09375 17.039062 15.839844 16.882812 15.515625 16.765625 Z M 16.4375 21.183594 C 16.765625 21.066406 17.148438 21.125 17.46875 21.238281 C 17.796875 21.351562 18.078125 21.519531 18.355469 21.652344 C 18.625 21.796875 18.890625 21.914062 19.175781 21.996094 C 19.460938 22.074219 19.765625 22.105469 20.113281 22.136719 C 19.832031 22.332031 19.476562 22.4375 19.117188 22.429688 C 18.753906 22.425781 18.402344 22.304688 18.097656 22.152344 C 17.796875 21.992188 17.527344 21.808594 17.273438 21.632812 C 17.015625 21.460938 16.761719 21.304688 16.4375 21.183594 Z M 17.785156 26.011719 C 18.113281 25.890625 18.492188 25.949219 18.816406 26.066406 C 19.140625 26.175781 19.425781 26.34375 19.699219 26.480469 C 19.972656 26.625 20.238281 26.738281 20.523438 26.820312 C 20.808594 26.902344 21.113281 26.933594 21.457031 26.960938 C 21.175781 27.160156 20.824219 27.265625 20.464844 27.253906 C 20.101562 27.253906 19.75 27.128906 19.445312 26.980469 C 19.140625 26.816406 18.875 26.632812 18.621094 26.457031 C 18.363281 26.285156 18.109375 26.128906 17.785156 26.011719 Z M 17.785156 26.011719 "/>
  </g>
</svg>