<?xml version="1.0" encoding="UTF-8" standalone="yes"?>
<svg xmlns="http://www.w3.org/2000/svg" xmlns:xlink="http://www.w3.org/1999/xlink" width="48px" height="48px" viewBox="0 0 36 36" version="1.1">
  <g id="surface1">
    <path style=" stroke:none;fill-rule:nonzero;fill:rgb(100%,86.666667%,40.392157%);fill-opacity:1;" d="M 19.859375 7.113281 C 19.625 9.613281 17.621094 10.449219 16.632812 10.738281 L 16.164062 10.875 C 16.164062 10.875 15.84375 11.15625 15.335938 11.511719 C 15.328125 11.550781 15.316406 11.59375 15.308594 11.636719 C 15.308594 11.636719 19.667969 11.898438 21.105469 11.699219 C 22.691406 11.480469 29.679688 11.480469 31.390625 11.390625 C 33.40625 11.285156 34.875 11.648438 34.875 13.925781 C 34.875 16.226562 33.089844 16.929688 31.390625 16.789062 C 29.046875 16.59375 21.121094 16.472656 21.121094 16.472656 C 22.144531 16.71875 23.082031 17.160156 22.90625 18.84375 C 22.707031 20.773438 21.960938 21.136719 20.761719 21.226562 C 22.382812 22.171875 22.261719 23.453125 22.0625 24.25 C 21.722656 25.59375 19.296875 25.96875 19.296875 25.984375 C 21.097656 26.511719 20.785156 27.34375 20.613281 28.511719 C 20.503906 29.226562 19.777344 30.058594 18.539062 30.359375 C 17.296875 30.65625 16.378906 31.582031 6.695312 30.195312 C 4.15625 29.832031 2.902344 27.613281 2.324219 24.261719 C 1.933594 22 1.3125 18.914062 1.136719 16.609375 C 1.125 16.40625 1.121094 16.203125 1.132812 15.996094 C 1.066406 14.722656 1.609375 13.4375 2.6875 12.644531 L 9.546875 7.609375 C 9.554688 7.605469 9.5625 7.601562 9.570312 7.59375 C 9.898438 7.234375 10.363281 7.007812 10.9375 6.945312 C 13.152344 6.722656 15.316406 6.132812 17.332031 5.195312 C 18.265625 4.761719 20.023438 5.382812 19.859375 7.113281 Z M 19.859375 7.113281 "/>
    <path style=" stroke:none;fill-rule:nonzero;fill:rgb(92.156863%,63.921569%,32.156863%);fill-opacity:1;" d="M 20.730469 27.734375 C 21.050781 25.589844 17.75 25.753906 19.136719 26.195312 C 20.59375 26.660156 20.730469 27.734375 20.730469 27.734375 Z M 22.167969 23.617188 C 22.46875 20.6875 19.203125 20.992188 20.542969 21.554688 C 21.90625 22.125 22.167969 23.617188 22.167969 23.617188 Z M 22.914062 18.785156 C 23.214844 15.851562 19.734375 16.15625 21.074219 16.71875 C 22.4375 17.289062 22.914062 18.785156 22.914062 18.785156 Z M 22.914062 18.785156 "/>
    <path style=" stroke:none;fill-rule:nonzero;fill:rgb(92.156863%,63.921569%,32.156863%);fill-opacity:1;" d="M 15.308594 11.636719 C 15.308594 11.636719 22.394531 10.816406 31.417969 11.214844 C 32.730469 11.273438 34.757812 11.277344 34.867188 13.617188 C 34.035156 10.992188 25.085938 12.210938 15.308594 11.636719 Z M 15.308594 11.636719 "/>
    <path style=" stroke:none;fill-rule:nonzero;fill:rgb(92.156863%,63.921569%,32.156863%);fill-opacity:1;" d="M 19.367188 5.621094 C 18.960938 5.515625 18.539062 5.539062 18.21875 5.6875 C 16.199219 6.625 14.039062 7.214844 11.824219 7.4375 C 11.246094 7.5 10.785156 7.726562 10.457031 8.085938 C 10.449219 8.09375 10.441406 8.097656 10.429688 8.101562 L 3.574219 13.136719 C 2.496094 13.929688 1.949219 15.214844 2.019531 16.488281 C 2.007812 16.691406 2.007812 16.894531 2.023438 17.105469 C 2.199219 19.40625 2.820312 22.492188 3.207031 24.757812 C 3.621094 27.148438 4.382812 28.957031 5.703125 29.933594 C 3.820312 29.183594 2.820312 27.144531 2.324219 24.265625 C 1.933594 22 1.3125 18.914062 1.136719 16.613281 C 1.125 16.40625 1.121094 16.203125 1.132812 15.996094 C 1.066406 14.722656 1.609375 13.4375 2.6875 12.644531 L 9.546875 7.613281 C 9.554688 7.605469 9.5625 7.601562 9.570312 7.59375 C 9.898438 7.234375 10.363281 7.007812 10.9375 6.949219 C 13.152344 6.726562 15.3125 6.132812 17.332031 5.195312 C 17.914062 4.925781 18.808594 5.0625 19.367188 5.621094 Z M 19.367188 5.621094 "/>
    <path style=" stroke:none;fill-rule:nonzero;fill:rgb(92.156863%,63.921569%,32.156863%);fill-opacity:1;" d="M 12.921875 10.945312 C 12.921875 10.945312 15.34375 10.207031 16.488281 9.910156 C 17.4375 9.664062 19.164062 8.777344 19.835938 7.304688 C 19.519531 9.65625 17.59375 10.457031 16.632812 10.738281 L 16.164062 10.875 C 16.164062 10.875 15.894531 11.269531 15.308594 11.636719 C 15.308594 11.636719 14.207031 10.859375 12.921875 10.945312 Z M 20.484375 16.761719 C 20.160156 16.882812 19.90625 17.039062 19.648438 17.210938 C 19.390625 17.386719 19.125 17.570312 18.824219 17.730469 C 18.515625 17.882812 18.167969 18.007812 17.804688 18.007812 C 17.449219 18.019531 17.101562 17.917969 16.808594 17.714844 C 17.152344 17.6875 17.460938 17.65625 17.746094 17.574219 C 18.03125 17.488281 18.304688 17.375 18.566406 17.230469 C 18.84375 17.097656 19.125 16.929688 19.453125 16.820312 C 19.773438 16.703125 20.15625 16.644531 20.484375 16.761719 Z M 19.5625 21.183594 C 19.238281 21.304688 18.984375 21.457031 18.726562 21.632812 C 18.46875 21.808594 18.203125 21.992188 17.902344 22.152344 C 17.59375 22.304688 17.246094 22.425781 16.882812 22.429688 C 16.527344 22.441406 16.179688 22.335938 15.886719 22.136719 C 16.230469 22.105469 16.539062 22.078125 16.824219 21.996094 C 17.105469 21.914062 17.371094 21.796875 17.644531 21.652344 C 17.921875 21.519531 18.203125 21.351562 18.53125 21.238281 C 18.851562 21.125 19.234375 21.066406 19.5625 21.183594 Z M 18.214844 26.011719 C 17.890625 26.128906 17.636719 26.285156 17.378906 26.457031 C 17.125 26.632812 16.859375 26.816406 16.554688 26.980469 C 16.25 27.132812 15.898438 27.253906 15.535156 27.253906 C 15.183594 27.265625 14.832031 27.164062 14.542969 26.960938 C 14.886719 26.933594 15.191406 26.902344 15.476562 26.820312 C 15.761719 26.734375 16.039062 26.621094 16.296875 26.480469 C 16.574219 26.34375 16.855469 26.179688 17.183594 26.066406 C 17.503906 25.949219 17.886719 25.890625 18.214844 26.011719 Z M 18.214844 26.011719 "/>
  </g>
</svg>