<?xml version="1.0" encoding="UTF-8" standalone="yes"?>
<svg xmlns="http://www.w3.org/2000/svg" xmlns:xlink="http://www.w3.org/1999/xlink" width="48px" height="48px" viewBox="0 0 36 36" version="1.1">
  <g id="surface1">
    <path style=" stroke:none;fill-rule:nonzero;fill:rgb(100%,86.666667%,40.392157%);fill-opacity:1;" d="M 25.21875 19.410156 C 25.21875 19.410156 7.285156 18.027344 7.566406 20.609375 C 7.566406 20.609375 6.636719 26.921875 8.847656 30.71875 C 12.140625 36.375 24.960938 37.324219 28.152344 26.769531 C 28.789062 24.671875 28.292969 19.046875 25.21875 19.410156 Z M 25.21875 19.410156 "/>
    <path style=" stroke:none;fill-rule:nonzero;fill:rgb(100%,86.666667%,40.392157%);fill-opacity:1;" d="M 21.753906 21.996094 C 21.753906 23.292969 22.820312 24.34375 24.136719 24.34375 L 24.15625 24.34375 C 25.472656 24.34375 26.539062 23.292969 26.539062 21.996094 L 26.539062 3.472656 C 26.539062 2.175781 25.472656 1.125 24.15625 1.125 L 24.136719 1.125 C 22.820312 1.125 21.753906 2.175781 21.753906 3.472656 Z M 21.753906 21.996094 "/>
    <path style=" stroke:none;fill-rule:nonzero;fill:rgb(92.156863%,63.921569%,32.156863%);fill-opacity:1;" d="M 23.0625 23.8125 L 23.085938 23.8125 C 24.394531 23.8125 25.457031 22.757812 25.460938 21.449219 L 25.460938 2.921875 C 25.460938 2.242188 25.164062 1.597656 24.648438 1.15625 C 25.726562 1.378906 26.539062 2.324219 26.539062 3.453125 L 26.539062 21.980469 C 26.539062 23.277344 25.480469 24.34375 24.164062 24.34375 L 24.140625 24.34375 C 23.566406 24.34375 23.011719 24.140625 22.574219 23.761719 C 22.730469 23.796875 22.894531 23.8125 23.0625 23.8125 Z M 23.0625 23.8125 "/>
    <path style=" stroke:none;fill-rule:nonzero;fill:rgb(100%,86.666667%,40.392157%);fill-opacity:1;" d="M 7.566406 16.902344 C 7.566406 15.578125 8.628906 14.503906 9.9375 14.503906 L 9.976562 14.503906 C 11.289062 14.503906 12.347656 15.578125 12.347656 16.902344 L 12.347656 20.609375 C 12.347656 21.9375 11.289062 23.011719 9.976562 23.011719 L 9.9375 23.011719 C 8.628906 23.011719 7.566406 21.9375 7.566406 20.609375 Z M 7.566406 16.902344 "/>
    <path style=" stroke:none;fill-rule:nonzero;fill:rgb(100%,86.666667%,40.392157%);fill-opacity:1;" d="M 12.292969 14.75 C 12.292969 13.425781 13.355469 12.351562 14.667969 12.351562 L 14.707031 12.351562 C 16.015625 12.351562 17.082031 13.425781 17.082031 14.75 L 17.082031 18.460938 C 17.082031 19.785156 16.015625 20.859375 14.707031 20.859375 L 14.667969 20.859375 C 13.355469 20.859375 12.292969 19.785156 12.292969 18.460938 Z M 17.082031 14.484375 C 17.082031 13.160156 18.140625 12.085938 19.453125 12.085938 L 19.492188 12.085938 C 20.800781 12.085938 21.867188 13.160156 21.867188 14.484375 L 21.867188 18.191406 C 21.867188 19.515625 20.800781 20.59375 19.492188 20.59375 L 19.453125 20.59375 C 18.140625 20.59375 17.082031 19.515625 17.082031 18.191406 Z M 17.082031 14.484375 "/>
    <path style=" stroke:none;fill-rule:nonzero;fill:rgb(92.156863%,63.921569%,32.156863%);fill-opacity:1;" d="M 9.265625 22.121094 L 9.296875 22.121094 C 10.605469 22.121094 11.632812 21.0625 11.632812 19.738281 L 11.632812 16.027344 C 11.632812 15.667969 11.554688 15.328125 11.417969 15.023438 C 12.007812 15.480469 12.351562 16.183594 12.347656 16.929688 L 12.347656 20.640625 C 12.347656 21.964844 11.324219 23.011719 10.011719 23.011719 L 9.980469 23.011719 C 9.050781 23.011719 8.207031 22.46875 7.824219 21.621094 C 8.226562 21.929688 8.722656 22.121094 9.265625 22.121094 Z M 13.984375 19.96875 L 14.011719 19.96875 C 15.324219 19.96875 16.363281 18.925781 16.363281 17.601562 L 16.363281 13.890625 C 16.363281 13.535156 16.289062 13.195312 16.148438 12.890625 C 16.738281 13.347656 17.082031 14.050781 17.082031 14.796875 L 17.082031 18.507812 C 17.085938 19.132812 16.839844 19.734375 16.398438 20.179688 C 15.957031 20.621094 15.355469 20.867188 14.730469 20.859375 L 14.699219 20.859375 C 13.769531 20.859375 12.925781 20.316406 12.542969 19.46875 C 12.953125 19.792969 13.460938 19.96875 13.984375 19.96875 Z M 18.757812 19.699219 L 18.789062 19.699219 C 19.414062 19.703125 20.019531 19.457031 20.464844 19.011719 C 20.90625 18.566406 21.15625 17.960938 21.148438 17.335938 L 21.148438 13.621094 C 21.148438 13.277344 21.074219 12.9375 20.933594 12.621094 C 21.523438 13.078125 21.867188 13.78125 21.867188 14.527344 L 21.867188 18.238281 C 21.867188 19.5625 20.816406 20.59375 19.503906 20.59375 L 19.476562 20.59375 C 18.546875 20.59375 17.699219 20.046875 17.316406 19.203125 C 17.71875 19.511719 18.21875 19.699219 18.757812 19.699219 Z M 23.066406 22.960938 C 20.363281 21.648438 14.257812 23.890625 15.449219 29.527344 C 15.449219 23.671875 20.730469 22.683594 23.066406 22.960938 Z M 23.066406 22.960938 "/>
    <path style=" stroke:none;fill-rule:nonzero;fill:rgb(92.156863%,63.921569%,32.156863%);fill-opacity:1;" d="M 22.039062 17.164062 C 20.097656 16.007812 19.707031 17.828125 16.410156 17.925781 C 14.964844 17.96875 14.320312 20.960938 16.507812 22.046875 C 19.554688 23.554688 19.792969 21.417969 20.535156 22.25 C 21.324219 23.136719 22.066406 23.308594 22.734375 24.332031 C 23.21875 25.078125 26.996094 23.929688 27.394531 22.402344 C 28.160156 19.472656 25.117188 18.996094 22.039062 17.164062 Z M 22.039062 17.164062 "/>
    <path style=" stroke:none;fill-rule:nonzero;fill:rgb(100%,86.666667%,40.392157%);fill-opacity:1;" d="M 22.285156 17.671875 C 20.269531 16.46875 19.867188 18.367188 16.433594 18.46875 C 14.925781 18.511719 14.257812 21.625 16.539062 22.753906 C 19.707031 24.320312 19.953125 22.101562 20.722656 22.96875 C 21.546875 23.886719 22.320312 24.066406 23.011719 25.132812 C 23.511719 25.910156 22.175781 28.835938 22.175781 28.835938 C 22.175781 28.835938 26.058594 31.574219 26.851562 30.011719 C 28.324219 27.117188 27.90625 24.832031 27.859375 23.125 C 27.753906 19.199219 25.492188 19.582031 22.285156 17.671875 Z M 22.285156 17.671875 "/>
    <path style=" stroke:none;fill-rule:nonzero;fill:rgb(92.156863%,63.921569%,32.156863%);fill-opacity:1;" d="M 26.1875 19.617188 C 28.34375 20.609375 28.242188 26.199219 26.632812 28.894531 C 22.636719 35.589844 13.886719 35.480469 9.734375 31.894531 C 13.582031 36.011719 22.902344 36.417969 27.246094 29.472656 C 28.984375 26.695312 29.527344 20.324219 26.1875 19.617188 Z M 26.1875 19.617188 "/>
    <path style=" stroke:none;fill-rule:nonzero;fill:rgb(92.156863%,63.921569%,32.156863%);fill-opacity:1;" d="M 22.570312 25.210938 C 22.722656 25.449219 22.703125 25.894531 22.601562 26.398438 C 22.832031 25.632812 22.988281 24.839844 22.757812 24.488281 C 22.066406 23.421875 21.675781 23.199219 20.855469 22.28125 C 20.082031 21.414062 19.835938 23.636719 16.664062 22.066406 C 15.496094 21.488281 15.105469 20.382812 15.207031 19.441406 C 14.761719 20.460938 14.984375 22.050781 16.476562 22.789062 C 19.644531 24.359375 19.894531 22.136719 20.664062 23.003906 C 21.488281 23.925781 21.878906 24.144531 22.570312 25.210938 Z M 22.570312 25.210938 "/>
  </g>
</svg>