<?xml version="1.0" encoding="UTF-8" standalone="yes"?>
<svg xmlns="http://www.w3.org/2000/svg" xmlns:xlink="http://www.w3.org/1999/xlink" width="48px" height="48px" viewBox="0 0 36 36" version="1.1">
  <g id="surface1">
    <path style=" stroke:none;fill-rule:evenodd;fill:rgb(78.823529%,27.843137%,27.843137%);fill-opacity:1;" d="M 6.292969 22.898438 C 8.34375 21.816406 9.300781 21.46875 5.910156 20.507812 C 6.550781 20.4375 10.136719 21.6875 11.273438 20.324219 C 12.207031 19.667969 7.59375 18.800781 7.355469 18.140625 C 8.226562 18.683594 12.164062 20.4375 12.917969 18.867188 C 12.78125 18.289062 12.222656 17.226562 10.289062 16.671875 C 10.839844 16.917969 12.027344 16.796875 12.472656 16.335938 C 12.332031 15.816406 10.113281 14.480469 9.90625 12.746094 C 10.617188 13.78125 11.550781 15.492188 12.667969 15.8125 C 12.667969 15.8125 13.023438 14.972656 14.234375 14.636719 C 13.117188 14.636719 11.960938 13.984375 11.8125 13.414062 C 12.617188 14.707031 15.410156 14.046875 16.574219 15.128906 C 16.574219 15.128906 16.363281 14.390625 17.144531 13.410156 C 17.226562 13.179688 16.714844 12.773438 16.957031 12.691406 C 17.066406 12.828125 17.09375 13.175781 17.425781 13.117188 C 18.175781 12.816406 18.84375 11.851562 18.351562 11.003906 C 18.695312 11.195312 18.722656 11.96875 18.785156 12.414062 C 19.238281 12.425781 20.042969 12.332031 20.867188 13.148438 C 21.027344 13.023438 20.972656 12.757812 21.132812 12.628906 C 21.292969 13.164062 21.289062 14.355469 22.070312 14.34375 C 22.6875 14.332031 23.476562 12.980469 23.609375 12.453125 C 23.582031 13.746094 24.304688 13.59375 24.523438 13.628906 C 25.109375 13.570312 25.722656 11.722656 26.003906 11.722656 C 25.90625 11.953125 25.878906 12.671875 25.933594 13.0625 C 26.554688 13.195312 28.152344 12.449219 28.457031 12.101562 C 28.417969 12.359375 28.28125 12.507812 28.335938 12.859375 C 28.875 12.980469 32.089844 11.457031 32.863281 9.902344 C 32 9.492188 31.328125 9.050781 30.667969 8.851562 C 30.285156 9.191406 30.253906 10.621094 29.78125 10.496094 C 30.03125 10.179688 30.589844 8.972656 30.09375 8.578125 C 27.960938 7.113281 29.035156 9.675781 28.824219 9.9375 C 28.835938 9.464844 27.863281 6.863281 26.960938 7.097656 C 26.785156 7.316406 26.425781 5.777344 25.828125 9.125 C 25.878906 8.582031 26.582031 6.375 23.292969 5.464844 C 23.125 6.300781 24.261719 8.835938 23.992188 9.421875 C 23.875 8.328125 23.039062 5.75 22.449219 5.117188 C 21.191406 4.628906 19.019531 3.707031 18.042969 4.074219 C 16.9375 4.382812 19.746094 6.863281 18.964844 7.921875 C 19.140625 6.441406 17.386719 4.902344 16.207031 4.871094 C 13.765625 6.128906 15.734375 8.4375 15.378906 9.523438 C 15.164062 8.191406 14.460938 7.867188 14.597656 6.320312 C 13.960938 6.742188 13.90625 7.535156 13.261719 8.15625 C 12.9375 8.242188 12.75 8.078125 12.421875 8.164062 C 11.835938 8.765625 12.914062 10.078125 12.6875 10.609375 C 12.3125 9.753906 12.296875 8.535156 11.335938 8.386719 C 10.5625 7.863281 8.890625 8.300781 7.667969 9.109375 C 6.257812 9.496094 4.890625 13.304688 4.957031 13.855469 C 5.046875 14.558594 6.253906 14.632812 6.335938 15.304688 C 5.835938 15.042969 5.675781 14.453125 4.84375 14.515625 C 4.535156 15.117188 4.378906 15.605469 4.3125 16.460938 C 5.175781 17.039062 6.214844 17.546875 6.492188 18.347656 C 5.730469 18.054688 5.277344 16.902344 4.253906 17.222656 C 2.953125 20.894531 4.515625 20.195312 4.722656 20.703125 C 4.277344 20.84375 3.847656 20.425781 3.648438 20.683594 C 2.644531 22.566406 3.789062 22.53125 3.925781 22.859375 L 3.171875 22.847656 C 2.777344 23.195312 2.695312 24.386719 2.808594 24.902344 C 3.628906 24.515625 5.464844 24.105469 4.996094 23.09375 C 5.519531 23.125 6.023438 23.136719 6.292969 22.898438 Z M 6.292969 22.898438 "/>
    <path style=" stroke:none;fill-rule:evenodd;fill:rgb(92.941176%,29.803922%,36.078431%);fill-opacity:1;" d="M 28.492188 13.347656 C 27.53125 13.570312 24.609375 13.800781 23.859375 14.636719 C 24.703125 15.980469 28.035156 16.203125 28.886719 17.535156 C 27.621094 16.761719 24.972656 15.605469 23.253906 15.195312 C 21.234375 14.71875 21.816406 15.875 21.164062 17.496094 C 21.46875 18.125 22.398438 19.808594 22.476562 20.351562 C 21.964844 19.796875 21.535156 17.207031 20.691406 18.601562 C 19.367188 20.796875 21.425781 21.242188 22.316406 23.285156 C 21.738281 22.523438 20.632812 21.003906 19.914062 20.070312 L 19.429688 20.917969 C 18.574219 20.699219 18.21875 20.769531 18.21875 20.769531 C 18.722656 21.984375 20.3125 24.554688 20.773438 25.320312 C 19.230469 23.804688 18.605469 22.347656 17.773438 20.703125 C 17.101562 20.730469 16.472656 20.402344 15.824219 20.320312 C 15.757812 21.734375 16.386719 22.628906 16.394531 23.617188 C 15.875 22.117188 15.566406 18.835938 12.554688 19.894531 C 11.710938 21.613281 12.976562 25 13 26.488281 C 12.460938 24.882812 12.5 22.558594 11.765625 21.140625 C 10.796875 21.082031 9.277344 21.019531 9.570312 21.652344 C 7.652344 22.148438 2.660156 25.121094 3.507812 25.941406 C 5.039062 27.421875 8.375 29.292969 10.46875 29.722656 C 10.566406 29.164062 10.820312 28.1875 11.035156 27.867188 C 11.261719 28.75 11.558594 29.878906 12.46875 30.097656 C 12.714844 29.804688 12.371094 29.078125 12.421875 28.652344 C 13.214844 29.605469 15.347656 30.707031 16.84375 30.015625 C 16.996094 29.46875 16.402344 28.652344 16.734375 28.292969 C 16.929688 29.800781 20.421875 29.949219 20.707031 28.574219 C 20.832031 27.984375 20.183594 27.589844 20.199219 27.15625 C 20.683594 27.695312 20.914062 28.433594 21.789062 28.378906 C 23.65625 28.261719 22.382812 25.699219 22.074219 24.691406 C 22.539062 25.589844 23.070312 26.921875 23.742188 27.621094 C 24.230469 27.496094 24.496094 26.753906 24.199219 26.140625 C 25.835938 27.277344 26.003906 26.390625 25.371094 24.140625 C 25.355469 24.089844 25.335938 24.039062 25.316406 23.988281 C 25.335938 24.03125 25.355469 24.082031 25.371094 24.140625 C 25.515625 24.570312 26.148438 25.632812 26.550781 25.8125 C 28.027344 25.175781 25.941406 22.734375 25.675781 22.257812 C 26.304688 22.746094 27.050781 24.410156 27.964844 24.625 C 28.125 24.5 28.140625 23.625 28.269531 23.464844 C 27.925781 21.246094 25.710938 19.847656 24.890625 18.445312 C 26.242188 19.6875 27.613281 22.277344 29.339844 23.15625 C 29.90625 22.449219 28.839844 20.4375 28.519531 19.917969 C 29.007812 20.117188 29.84375 21.453125 30.511719 21.480469 C 31.144531 21.164062 30.246094 19.535156 29.828125 18.964844 C 30.085938 19.070312 30.894531 19.894531 31.363281 19.792969 C 31.53125 19.03125 30.515625 18.078125 30.289062 17.453125 C 30.582031 17.527344 31.492188 18.417969 31.871094 18.40625 C 32.289062 16.75 32.921875 14.839844 32.824219 11.007812 C 32.105469 11.019531 29.222656 13.179688 28.492188 13.347656 Z M 28.492188 13.347656 "/>
  </g>
</svg>