<?xml version="1.0" encoding="UTF-8" standalone="yes"?>
<svg xmlns="http://www.w3.org/2000/svg" xmlns:xlink="http://www.w3.org/1999/xlink" width="48px" height="48px" viewBox="0 0 36 36" version="1.1">
  <g id="surface1">
    <path style=" stroke:none;fill-rule:nonzero;fill:rgb(64.705882%,59.607843%,44.705882%);fill-opacity:1;" d="M 31.167969 12.863281 C 31.167969 14.738281 29.628906 16.261719 27.730469 16.261719 L 8.269531 16.261719 C 6.371094 16.261719 4.832031 14.738281 4.832031 12.863281 L 4.832031 12.367188 C 4.832031 10.488281 6.371094 8.964844 8.269531 8.964844 L 27.730469 8.964844 C 29.628906 8.964844 31.167969 10.488281 31.167969 12.367188 Z M 31.167969 12.863281 "/>
    <path style=" stroke:none;fill-rule:nonzero;fill:rgb(85.882353%,80.392157%,66.666667%);fill-opacity:1;" d="M 29.921875 12.851562 C 29.921875 14.644531 28.53125 16.101562 26.8125 16.101562 L 9.1875 16.101562 C 7.46875 16.101562 6.078125 14.644531 6.078125 12.851562 L 6.078125 12.375 C 6.078125 10.582031 7.46875 9.125 9.1875 9.125 L 26.8125 9.125 C 28.53125 9.125 29.921875 10.582031 29.921875 12.375 Z M 29.921875 12.851562 "/>
    <path style=" stroke:none;fill-rule:nonzero;fill:rgb(10.196078%,52.54902%,69.411765%);fill-opacity:1;" d="M 7.164062 11.285156 C 3.875 14.0625 -0.015625 23.40625 1.4375 27.433594 C 2.003906 28.996094 5.574219 30.363281 7.164062 30.882812 C 12.308594 32.554688 23.609375 32.328125 28.824219 30.882812 C 30.4375 30.433594 33.984375 28.996094 34.546875 27.433594 C 36.003906 23.40625 32.351562 13.757812 28.824219 11.285156 C 27.335938 10.242188 8.351562 10.28125 7.164062 11.285156 Z M 7.164062 11.285156 "/>
    <path style=" stroke:none;fill-rule:nonzero;fill:rgb(7.843137%,30.588235%,45.098039%);fill-opacity:1;" d="M 7.320312 11.195312 C 6.933594 12.035156 6.695312 12.929688 6.460938 13.820312 C 6.21875 14.707031 6.011719 15.605469 5.839844 16.507812 C 5.496094 18.3125 5.242188 20.132812 5.199219 21.957031 C 5.152344 23.777344 5.304688 25.617188 5.898438 27.328125 C 6.46875 29.035156 7.675781 30.539062 9.34375 31.371094 C 8.46875 31.058594 7.667969 30.535156 7.003906 29.863281 C 6.347656 29.179688 5.851562 28.355469 5.492188 27.480469 C 4.773438 25.722656 4.601562 23.804688 4.640625 21.941406 C 4.695312 20.070312 4.972656 18.21875 5.417969 16.414062 C 5.886719 14.621094 6.394531 12.808594 7.320312 11.195312 Z M 7.320312 11.195312 "/>
    <path style=" stroke:none;fill-rule:nonzero;fill:rgb(16.862745%,64.705882%,83.921569%);fill-opacity:1;" d="M 28.683594 11.195312 C 28.171875 10.652344 22.90625 10.417969 18 10.484375 C 13.09375 10.417969 7.828125 10.652344 7.320312 11.195312 C 7.320312 11.195312 0.820312 27.699219 9.339844 31.371094 C 13.117188 33 22.882812 33 26.660156 31.371094 C 35.183594 27.699219 28.683594 11.195312 28.683594 11.195312 Z M 28.683594 11.195312 "/>
    <path style=" stroke:none;fill-rule:nonzero;fill:rgb(7.843137%,30.588235%,45.098039%);fill-opacity:1;" d="M 28.683594 11.195312 C 29.609375 12.808594 30.117188 14.621094 30.585938 16.414062 C 31.03125 18.21875 31.308594 20.070312 31.363281 21.941406 C 31.402344 23.804688 31.230469 25.722656 30.507812 27.480469 C 30.148438 28.355469 29.652344 29.179688 28.996094 29.863281 C 28.332031 30.53125 27.53125 31.058594 26.660156 31.371094 C 28.328125 30.539062 29.53125 29.035156 30.105469 27.328125 C 30.695312 25.617188 30.851562 23.777344 30.800781 21.957031 C 30.761719 20.132812 30.503906 18.3125 30.164062 16.507812 C 29.988281 15.605469 29.78125 14.707031 29.542969 13.820312 C 29.304688 12.933594 29.066406 12.035156 28.683594 11.195312 Z M 28.683594 11.195312 "/>
    <path style=" stroke:none;fill-rule:nonzero;fill:rgb(10.196078%,52.54902%,69.411765%);fill-opacity:1;" d="M 22.074219 17.722656 C 22.074219 15.421875 20.25 13.554688 18 13.554688 C 15.753906 13.554688 13.929688 15.421875 13.929688 17.722656 C 13.929688 20.027344 15.753906 21.894531 18 21.894531 C 20.25 21.894531 22.074219 20.027344 22.074219 17.722656 Z M 22.074219 17.722656 "/>
    <path style=" stroke:none;fill-rule:nonzero;fill:rgb(64.705882%,59.607843%,44.705882%);fill-opacity:1;" d="M 21.8125 17.328125 C 21.8125 15.246094 20.105469 13.558594 18 13.558594 C 15.894531 13.558594 14.191406 15.246094 14.191406 17.328125 C 14.191406 19.414062 15.894531 21.101562 18 21.101562 C 20.105469 21.101562 21.8125 19.414062 21.8125 17.328125 Z M 21.8125 17.328125 "/>
    <path style=" stroke:none;fill-rule:nonzero;fill:rgb(85.882353%,80.392157%,66.666667%);fill-opacity:1;" d="M 21.265625 17.328125 C 21.265625 15.542969 19.804688 14.09375 18 14.09375 C 16.195312 14.09375 14.734375 15.542969 14.734375 17.328125 C 14.734375 19.113281 16.195312 20.5625 18 20.5625 C 19.804688 20.5625 21.265625 19.113281 21.265625 17.328125 Z M 21.265625 17.328125 "/>
    <path style=" stroke:none;fill-rule:nonzero;fill:rgb(29.803922%,24.705882%,18.039216%);fill-opacity:1;" d="M 20.179688 17.328125 C 20.179688 16.140625 19.203125 15.175781 18 15.175781 C 16.796875 15.175781 15.824219 16.140625 15.824219 17.328125 C 15.824219 18.519531 16.796875 19.484375 18 19.484375 C 19.203125 19.484375 20.179688 18.519531 20.179688 17.328125 Z M 20.179688 17.328125 "/>
    <path style=" stroke:none;fill-rule:nonzero;fill:rgb(64.705882%,59.607843%,44.705882%);fill-opacity:1;" d="M 20.175781 17.328125 C 20.175781 17.121094 19.203125 16.953125 18 16.953125 C 16.796875 16.953125 15.824219 17.121094 15.824219 17.328125 C 15.824219 17.535156 16.796875 17.703125 18 17.703125 C 19.203125 17.703125 20.175781 17.535156 20.175781 17.328125 Z M 20.175781 17.328125 "/>
    <path style=" stroke:none;fill-rule:nonzero;fill:rgb(85.882353%,80.392157%,66.666667%);fill-opacity:1;" d="M 18.378906 17.328125 C 18.378906 16.140625 18.210938 15.175781 18 15.175781 C 17.792969 15.175781 17.625 16.140625 17.625 17.328125 C 17.625 18.519531 17.792969 19.484375 18 19.484375 C 18.210938 19.484375 18.378906 18.519531 18.378906 17.328125 Z M 18.378906 17.328125 "/>
    <path style=" stroke:none;fill-rule:nonzero;fill:rgb(64.705882%,59.607843%,44.705882%);fill-opacity:1;" d="M 16.710938 5 C 16.34375 4.636719 15.757812 4.636719 15.390625 5 L 13.148438 7.214844 L 10.21875 7.214844 C 9.707031 7.214844 9.015625 7.363281 9.015625 8.152344 C 9.015625 8.660156 9.433594 9.074219 9.949219 9.074219 L 13.519531 9.074219 C 13.769531 9.078125 14.007812 8.980469 14.1875 8.804688 L 16.710938 6.304688 C 16.886719 6.132812 16.984375 5.898438 16.984375 5.652344 C 16.984375 5.40625 16.886719 5.171875 16.710938 5 Z M 16.710938 5 "/>
    <path style=" stroke:none;fill-rule:nonzero;fill:rgb(85.882353%,80.392157%,66.666667%);fill-opacity:1;" d="M 16.101562 5.40625 C 15.796875 5.105469 15.304688 5.042969 15 5.34375 L 13.148438 7.214844 L 10.21875 7.214844 C 9.789062 7.214844 9.507812 7.597656 9.507812 8.027344 C 9.507812 8.628906 10.019531 8.8125 10.449219 8.8125 L 13.4375 8.8125 C 13.636719 8.8125 13.839844 8.738281 13.992188 8.585938 L 16.101562 6.496094 C 16.25 6.351562 16.332031 6.15625 16.332031 5.953125 C 16.332031 5.746094 16.25 5.550781 16.101562 5.40625 Z M 16.101562 5.40625 "/>
    <path style=" stroke:none;fill-rule:nonzero;fill:rgb(64.705882%,59.607843%,44.705882%);fill-opacity:1;" d="M 18.0625 5.269531 C 18.0625 4.207031 17.191406 3.34375 16.117188 3.34375 C 15.039062 3.34375 14.167969 4.207031 14.167969 5.269531 C 14.167969 6.335938 15.039062 7.199219 16.117188 7.199219 C 17.191406 7.199219 18.0625 6.335938 18.0625 5.269531 Z M 18.0625 5.269531 "/>
    <path style=" stroke:none;fill-rule:nonzero;fill:rgb(85.882353%,80.392157%,66.666667%);fill-opacity:1;" d="M 17.636719 5.109375 C 17.636719 4.210938 16.902344 3.484375 15.992188 3.484375 C 15.085938 3.484375 14.351562 4.210938 14.351562 5.109375 C 14.351562 6.007812 15.085938 6.734375 15.992188 6.734375 C 16.902344 6.734375 17.636719 6.007812 17.636719 5.109375 Z M 17.636719 5.109375 "/>
    <path style=" stroke:none;fill-rule:nonzero;fill:rgb(64.705882%,59.607843%,44.705882%);fill-opacity:1;" d="M 19.289062 5 C 19.65625 4.636719 20.242188 4.636719 20.609375 5 L 22.851562 7.214844 L 25.777344 7.214844 C 26.292969 7.214844 26.984375 7.363281 26.984375 8.152344 C 26.984375 8.660156 26.566406 9.074219 26.050781 9.074219 L 22.476562 9.074219 C 22.226562 9.074219 21.988281 8.980469 21.8125 8.804688 L 19.289062 6.304688 C 19.113281 6.132812 19.015625 5.898438 19.015625 5.652344 C 19.015625 5.40625 19.113281 5.171875 19.289062 5 Z M 19.289062 5 "/>
    <path style=" stroke:none;fill-rule:nonzero;fill:rgb(85.882353%,80.392157%,66.666667%);fill-opacity:1;" d="M 19.898438 5.40625 C 20.203125 5.105469 20.695312 5.042969 21 5.34375 L 22.851562 7.214844 L 25.777344 7.214844 C 26.210938 7.214844 26.492188 7.597656 26.492188 8.027344 C 26.492188 8.628906 25.980469 8.8125 25.550781 8.8125 L 22.5625 8.8125 C 22.355469 8.8125 22.15625 8.730469 22.007812 8.585938 L 19.898438 6.496094 C 19.75 6.351562 19.667969 6.15625 19.667969 5.953125 C 19.667969 5.746094 19.75 5.550781 19.898438 5.40625 Z M 19.898438 5.40625 "/>
    <path style=" stroke:none;fill-rule:nonzero;fill:rgb(64.705882%,59.607843%,44.705882%);fill-opacity:1;" d="M 21.832031 5.269531 C 21.832031 4.207031 20.960938 3.34375 19.882812 3.34375 C 18.808594 3.34375 17.9375 4.207031 17.9375 5.269531 C 17.9375 6.335938 18.808594 7.199219 19.882812 7.199219 C 20.960938 7.199219 21.832031 6.335938 21.832031 5.269531 Z M 21.832031 5.269531 "/>
    <path style=" stroke:none;fill-rule:nonzero;fill:rgb(85.882353%,80.392157%,66.666667%);fill-opacity:1;" d="M 21.648438 5.109375 C 21.648438 4.210938 20.914062 3.484375 20.003906 3.484375 C 19.097656 3.484375 18.363281 4.210938 18.363281 5.109375 C 18.363281 6.007812 19.097656 6.734375 20.003906 6.734375 C 20.914062 6.734375 21.648438 6.007812 21.648438 5.109375 Z M 21.648438 5.109375 "/>
  </g>
</svg>