<?xml version="1.0" encoding="UTF-8" standalone="yes"?>
<svg xmlns="http://www.w3.org/2000/svg" xmlns:xlink="http://www.w3.org/1999/xlink" width="48px" height="48px" viewBox="0 0 36 36" version="1.1">
  <g id="surface1">
    <path style=" stroke:none;fill-rule:nonzero;fill:rgb(93.72549%,30.588235%,8.627451%);fill-opacity:1;" d="M 25.144531 19.921875 L 36 13.902344 L 23.820312 14.429688 L 27.4375 6.957031 L 20.839844 11.652344 L 21.652344 1.34375 L 16.855469 9.839844 L 9.628906 0 L 12.734375 12.257812 L 1.894531 8.660156 L 10.53125 16.550781 L 0 18.601562 L 10.097656 20.898438 L 4.433594 31.003906 L 13.703125 25.40625 L 14.085938 36 L 17.878906 26.324219 L 22.988281 33.980469 L 22.703125 24.785156 L 31.496094 28.144531 Z M 25.144531 19.921875 "/>
    <path style=" stroke:none;fill-rule:nonzero;fill:rgb(100%,80.784314%,19.215686%);fill-opacity:1;" d="M 21.992188 19.003906 L 28.347656 16.054688 L 21.296875 15.847656 L 23.1875 11.65625 L 19.457031 13.796875 L 19.59375 8.097656 L 17.085938 12.847656 L 13.308594 7.992188 L 14.960938 14.113281 L 8.667969 12.519531 L 13.808594 16.957031 L 7.421875 18.457031 L 13.269531 19.800781 L 9.148438 26.121094 L 15.464844 21.84375 L 15.636719 27.40625 L 17.90625 22.324219 L 20.472656 26.121094 L 20.429688 21.519531 L 25.046875 23.542969 Z M 21.992188 19.003906 "/>
    <path style=" stroke:none;fill-rule:nonzero;fill:rgb(100%,100%,100%);fill-opacity:1;" d="M 19.625 18.253906 L 22.316406 17.003906 L 19.332031 16.917969 L 20.128906 15.140625 L 18.550781 16.046875 L 18.609375 13.632812 L 17.546875 15.644531 L 15.949219 13.589844 L 16.648438 16.179688 L 13.984375 15.507812 L 16.160156 17.386719 L 13.457031 18.019531 L 15.929688 18.589844 L 14.1875 21.265625 L 16.859375 19.453125 L 16.933594 21.808594 L 17.894531 19.660156 L 18.980469 21.265625 L 18.960938 19.316406 L 20.917969 20.175781 Z M 19.625 18.253906 "/>
  </g>
</svg>