<?xml version="1.0" encoding="UTF-8" standalone="yes"?>
<svg xmlns="http://www.w3.org/2000/svg" xmlns:xlink="http://www.w3.org/1999/xlink" width="48px" height="48px" viewBox="0 0 36 36" version="1.1">
  <g id="surface1">
    <path style=" stroke:none;fill-rule:nonzero;fill:rgb(66.666667%,20%,41.176471%);fill-opacity:1;" d="M 12.539062 0 L 13.257812 0 L 13.257812 5.75 L 12.539062 5.75 Z M 22.742188 0 L 23.460938 0 L 23.460938 5.75 L 22.742188 5.75 Z M 22.742188 0 "/>
    <path style=" stroke:none;fill-rule:nonzero;fill:rgb(90.980392%,30.196078%,53.333333%);fill-opacity:1;" d="M 21.941406 14.496094 C 21.941406 12.433594 24.753906 8.804688 23.855469 5.03125 C 23.855469 5.03125 20.144531 5.03125 18 6.890625 C 15.855469 5.03125 12.144531 5.03125 12.144531 5.03125 C 11.246094 8.804688 14.058594 12.433594 14.058594 14.496094 C 14.058594 18.523438 4.382812 24.585938 7.296875 35.902344 C 7.296875 35.902344 9.640625 34.464844 10.863281 34.464844 C 11.914062 34.464844 13.375 36 14.433594 36 C 15.710938 36 16.902344 34.464844 18 34.464844 C 19.097656 34.464844 20.289062 36 21.570312 36 C 22.625 36 24.085938 34.464844 25.136719 34.464844 C 26.359375 34.464844 28.703125 35.902344 28.703125 35.902344 C 31.613281 24.589844 21.941406 18.523438 21.941406 14.496094 Z M 21.941406 14.496094 "/>
    <path style=" stroke:none;fill-rule:nonzero;fill:rgb(91.764706%,69.803922%,73.333333%);fill-opacity:1;" d="M 13.691406 13.339844 L 22.308594 13.339844 L 22.308594 15.589844 L 13.691406 15.589844 Z M 13.691406 13.339844 "/>
    <path style=" stroke:none;fill-rule:nonzero;fill:rgb(100%,78.039216%,80.784314%);fill-opacity:1;" d="M 23.457031 23.5625 L 20.558594 24.617188 C 20.558594 24.617188 20.605469 16.707031 18.617188 14.007812 C 18.496094 13.835938 19.671875 13.507812 19.847656 13.648438 C 22.75 15.972656 23.457031 23.5625 23.457031 23.5625 Z M 13.246094 20.425781 L 15.488281 20.953125 C 15.488281 20.953125 15.90625 15.757812 17.644531 13.867188 C 17.75 13.75 16.835938 13.601562 16.6875 13.703125 C 14.246094 15.398438 13.246094 20.425781 13.246094 20.425781 Z M 13.246094 20.425781 "/>
    <path style=" stroke:none;fill-rule:nonzero;fill:rgb(91.764706%,69.803922%,73.333333%);fill-opacity:1;" d="M 19.566406 14.339844 C 19.902344 14.847656 21.007812 16.484375 21.148438 17.871094 M 15.15625 16.851562 C 15.421875 16.300781 16.246094 14.507812 17.363281 13.667969 "/>
    <path style=" stroke:none;fill-rule:nonzero;fill:rgb(91.764706%,69.803922%,73.333333%);fill-opacity:1;" d="M 19.492188 16.183594 C 18.960938 16.574219 17.289062 16.574219 16.757812 16.183594 C 16.0625 15.667969 16.125 13.492188 16.757812 12.914062 C 17.242188 12.472656 19.007812 12.472656 19.492188 12.914062 C 20.125 13.492188 20.1875 15.667969 19.492188 16.183594 Z M 19.492188 16.183594 "/>
    <path style=" stroke:none;fill-rule:nonzero;fill:rgb(100%,78.039216%,80.784314%);fill-opacity:1;" d="M 19.261719 16.136719 C 18.820312 16.515625 17.433594 16.515625 16.992188 16.136719 C 16.414062 15.636719 16.464844 13.523438 16.992188 12.960938 C 17.390625 12.53125 18.859375 12.53125 19.261719 12.960938 C 19.785156 13.523438 19.839844 15.636719 19.261719 16.136719 Z M 19.261719 16.136719 "/>
    <path style=" stroke:none;fill-rule:nonzero;fill:rgb(100%,78.039216%,80.784314%);fill-opacity:1;" d="M 26.101562 31.492188 C 24.910156 31.492188 23.25 33.160156 22.050781 33.160156 C 20.597656 33.160156 19.246094 31.492188 18 31.492188 C 16.753906 31.492188 15.398438 33.160156 13.949219 33.160156 C 12.75 33.160156 11.089844 31.492188 9.898438 31.492188 C 9.03125 31.492188 7.679688 32.09375 6.777344 32.550781 C 6.8125 33.207031 6.886719 33.859375 7 34.507812 C 7.617188 34.167969 9.472656 33.1875 10.53125 33.1875 C 11.628906 33.1875 13.160156 34.722656 14.265625 34.722656 C 15.601562 34.722656 16.851562 33.1875 18 33.1875 C 19.148438 33.1875 20.394531 34.722656 21.734375 34.722656 C 22.839844 34.722656 24.371094 33.1875 25.46875 33.1875 C 26.527344 33.1875 28.386719 34.167969 29 34.507812 C 29.113281 33.835938 29.1875 33.183594 29.222656 32.550781 C 28.320312 32.09375 26.964844 31.492188 26.101562 31.492188 Z M 26.101562 31.492188 "/>
    <path style=" stroke:none;fill-rule:nonzero;fill:rgb(100%,78.039216%,80.784314%);fill-opacity:1;" d="M 14.1875 32.109375 C 15.550781 32.109375 16.824219 30.574219 18 30.574219 C 19.171875 30.574219 20.445312 32.109375 21.8125 32.109375 C 22.941406 32.109375 24.503906 30.574219 25.628906 30.574219 C 26.71875 30.574219 28.636719 31.480469 29.246094 31.78125 C 29.246094 31.488281 29.242188 31.199219 29.226562 30.910156 C 28.40625 30.527344 26.800781 29.871094 25.832031 29.871094 C 24.675781 29.871094 23.074219 31.40625 21.914062 31.40625 C 20.511719 31.40625 19.203125 29.871094 18 29.871094 C 16.792969 29.871094 15.488281 31.40625 14.082031 31.40625 C 12.925781 31.40625 11.324219 29.871094 10.167969 29.871094 C 9.199219 29.871094 7.59375 30.527344 6.773438 30.910156 C 6.757812 31.199219 6.75 31.492188 6.753906 31.78125 C 7.363281 31.480469 9.28125 30.574219 10.371094 30.574219 C 11.496094 30.574219 13.058594 32.109375 14.1875 32.109375 Z M 14.1875 32.109375 "/>
  </g>
</svg>