<?xml version="1.0" encoding="utf-8"?>
<!DOCTYPE svg PUBLIC "-//W3C//DTD SVG 1.1//EN" "http://www.w3.org/Graphics/SVG/1.1/DTD/svg11.dtd">
<svg xmlns="http://www.w3.org/2000/svg" xmlns:xlink="http://www.w3.org/1999/xlink" version="1.1" baseProfile="full" width="205.023" height="186.13" viewBox="0 0 205.02 186.13" enable-background="new 0 0 205.02 186.13" xml:space="preserve">
	<g>
		<path fill="#706CF5" fill-opacity="1" stroke-width="3" stroke-linejoin="round" d="M 150.447,33.9066C 150.447,33.9066 151.574,28.5927 152.379,21.8295C 153.184,15.0663 156.727,5.0824 166.228,2.98914C 175.728,0.895874 188.289,0.251587 195.213,11.3627C 202.137,22.4735 205.197,36.3221 202.62,45.5009C 200.044,54.6796 191.67,61.1205 181.847,64.8241C 172.025,68.528 170.736,80.2831 170.736,80.2831L 150.447,33.9066 Z "/>
		<defs>
			<path id="SVG_CLIPPER1_" d="M 150.447,33.9066C 150.447,33.9066 151.574,28.5927 152.379,21.8295C 153.184,15.0663 156.727,5.0824 166.228,2.98914C 175.728,0.895874 188.289,0.251587 195.213,11.3627C 202.137,22.4735 205.197,36.3221 202.62,45.5009C 200.044,54.6796 191.67,61.1205 181.847,64.8241C 172.025,68.528 170.736,80.2831 170.736,80.2831L 150.447,33.9066 Z "/>
		</defs>
		<clipPath id="SVG_CLIPPER2_">
			<use xlink:href="#SVG_CLIPPER1_" overflow="visible"/>
		</clipPath>
		<g clip-path="url(#SVG_CLIPPER2_)">
			<path fill="#000000" fill-opacity="0.203922" stroke-width="0.2" stroke-linejoin="round" d="M 170.402,14.6913C 181.724,14.6913 190.902,25.66 190.902,39.1913C 190.902,52.722 181.724,63.6913 170.402,63.6913C 159.08,63.6913 149.902,52.722 149.902,39.1913C 149.902,25.66 159.08,14.6913 170.402,14.6913 Z "/>
		</g>
		<path fill="none" stroke-width="3" stroke-linejoin="round" stroke="#5552BA" stroke-opacity="1" d="M 150.447,33.9066C 150.447,33.9066 151.574,28.5927 152.379,21.8295C 153.184,15.0663 156.727,5.0824 166.228,2.98914C 175.728,0.895874 188.289,0.251587 195.213,11.3627C 202.137,22.4735 205.197,36.3221 202.62,45.5009C 200.044,54.6796 191.67,61.1205 181.847,64.8241C 172.025,68.528 170.736,80.2831 170.736,80.2831L 150.447,33.9066 Z "/>
	</g>
	<g>
		<path fill="#706CF5" fill-opacity="1" stroke-width="3" stroke-linejoin="round" d="M 31.4514,70.3397C 31.4514,70.34 27.2244,65.0258 19.8573,62.4896C 12.4902,59.9535 2.10388,53.5526 1.5,44.0116C 0.896118,34.4706 5.48547,-0.432251 23.1182,1.49988C 40.7508,3.4325 46.4271,7.78015 51.0164,22.5143C 55.6057,37.2484 57.9004,41.4755 57.9004,41.4755L 31.4514,70.3397 Z "/>
		<defs>
			<path id="SVG_CLIPPER3_" d="M 31.4514,70.3397C 31.4514,70.34 27.2244,65.0258 19.8573,62.4896C 12.4902,59.9535 2.10388,53.5526 1.5,44.0116C 0.896118,34.4706 5.48547,-0.432251 23.1182,1.49988C 40.7508,3.4325 46.4271,7.78015 51.0164,22.5143C 55.6057,37.2484 57.9004,41.4755 57.9004,41.4755L 31.4514,70.3397 Z "/>
		</defs>
		<clipPath id="SVG_CLIPPER4_">
			<use xlink:href="#SVG_CLIPPER3_" overflow="visible"/>
		</clipPath>
		<g clip-path="url(#SVG_CLIPPER4_)">
			<path fill="#000000" fill-opacity="0.203922" stroke-width="0.2" stroke-linejoin="round" d="M 29.1519,14.1913C 40.4737,14.1913 49.6519,25.16 49.6519,38.6913C 49.6519,52.222 40.4737,63.1913 29.1519,63.1913C 17.83,63.1913 8.65186,52.222 8.65186,38.6913C 8.65186,25.16 17.83,14.1913 29.1519,14.1913 Z "/>
		</g>
		<path fill="none" stroke-width="3" stroke-linejoin="round" stroke="#5552BA" stroke-opacity="1" d="M 31.4514,70.3397C 31.4514,70.34 27.2244,65.0258 19.8573,62.4896C 12.4902,59.9535 2.10388,53.5526 1.5,44.0116C 0.896118,34.4706 5.48547,-0.432251 23.1182,1.49988C 40.7508,3.4325 46.4271,7.78015 51.0164,22.5143C 55.6057,37.2484 57.9004,41.4755 57.9004,41.4755L 31.4514,70.3397 Z "/>
	</g>
	<path fill="#FFFFFF" fill-opacity="1" stroke-width="3" stroke-linejoin="round" stroke="#5552BA" stroke-opacity="1" d="M 103.211,19.9633C 166.632,19.9633 192.545,76.8251 192.545,122.297C 192.545,167.768 147.026,184.63 103.211,184.63C 59.3966,184.63 13.8779,167.768 13.8779,122.297C 13.8779,76.8251 43.8741,19.9633 103.211,19.9633 Z "/>
	<path fill="#706CF5" fill-opacity="1" stroke-width="10" stroke-linejoin="round" stroke="#706CF5" stroke-opacity="1" d="M 65.3077,75.6136C 67.1341,72.3033 71.5879,66.4349 76.6602,65.9518C 81.7327,65.4686 85.3558,72.9567 85.1143,75.8551C 84.8727,78.7538 84.4702,81.6119 79.1563,88.1337C 73.8423,94.6552 71.9099,99.1239 71.0645,101.056C 70.2191,102.989 66.2336,112.288 59.712,109.148C 53.1902,106.008 51.4995,93.6891 54.2772,90.0658C 57.055,86.4427 64.0194,77.9486 65.3077,75.6136 Z "/>
	<path fill="#706CF5" fill-opacity="1" stroke-width="10" stroke-linejoin="round" stroke="#706CF5" stroke-opacity="1" d="M 124.325,84.9935C 121.691,79.726 120.702,77.7472 122.634,72.3124C 124.566,66.8778 136.764,60.3561 140.508,71.2255C 144.252,82.0951 148.962,88.6166 151.015,91.2738C 153.068,93.9305 157.175,110.356 150.895,110.959C 144.614,111.563 139.301,105.283 131.813,95.1383C 124.325,84.9935 124.929,86.2013 124.325,84.9935 Z "/>
	<path fill="#000000" fill-opacity="1" stroke-width="3" stroke-linejoin="round" stroke="#B5A5FE" stroke-opacity="1" d="M 75.0374,77.223C 77.9327,77.223 80.2798,79.5702 80.2798,82.4652C 80.2798,85.3607 77.9327,87.7076 75.0374,87.7076C 72.1421,87.7076 69.795,85.3607 69.795,82.4652C 69.795,79.5702 72.1422,77.223 75.0374,77.223 Z "/>
	<path fill="#000000" fill-opacity="1" stroke-width="3" stroke-linejoin="round" stroke="#B5A5FE" stroke-opacity="1" d="M 131.039,77.0575C 133.935,77.0575 136.282,79.4047 136.282,82.2999C 136.282,85.1952 133.935,87.5424 131.039,87.5424C 128.144,87.5424 125.797,85.1952 125.797,82.2999C 125.797,79.4047 128.144,77.0575 131.039,77.0575 Z "/>
	<path fill="#5552BA" fill-opacity="1" stroke-width="3" stroke-linejoin="round" stroke="#7975E4" stroke-opacity="1" d="M 82.1353,105.887C 82.1353,105.887 84.4299,105.042 85.7584,104.317C 87.0869,103.592 99.7679,98.037 117.521,104.076C 117.521,104.076 121.024,105.162 121.99,105.162C 121.99,105.162 123.56,108.061 123.077,112.167C 123.077,112.167 122.835,115.67 115.347,116.153C 115.347,116.153 111.362,114.462 109.792,116.877C 109.792,116.877 104.793,123.715 102.425,122.795C 102.425,122.795 96.024,118.206 94.0916,116.998C 92.1592,115.79 90.9515,115.79 89.3815,116.032C 87.8115,116.273 80.2029,117.24 82.1353,105.887 Z "/>
	<path fill="#5552BA" fill-opacity="1" stroke-width="0.2" stroke-linejoin="round" d="M 102.828,142.951C 100.835,143.087 98.866,143.473 96.8929,143.787C 95.9407,143.939 94.9932,144.138 94.067,144.407C 93.2062,144.657 92.2402,144.996 91.7269,145.731C 91.2943,146.35 91.2152,147.465 91.7513,147.997C 91.7817,148.027 91.8358,148.016 91.8785,148.014C 91.9225,148.011 91.9648,147.971 92.007,147.983C 92.46,148.117 92.5708,148.781 92.9839,149.01C 94.1207,149.64 95.5591,149.377 96.8553,149.472C 99.002,149.628 101.16,149.496 103.312,149.515C 107.841,149.556 112.439,150.636 116.895,149.828C 117.449,149.728 118.008,149.606 118.524,149.38C 118.703,149.302 118.831,149.121 118.914,148.945C 119.503,147.693 119.139,146.141 118.813,144.797C 118.641,144.09 118.489,143.109 117.805,142.862C 117.114,142.613 116.337,142.84 115.603,142.849C 114.367,142.865 113.132,142.888 111.896,142.901C 108.874,142.933 105.844,142.745 102.828,142.951 Z "/>
	<path fill="#FFFFFF" fill-opacity="1" stroke-width="0.2" stroke-linejoin="round" d="M 73.8438,79.3229C 74.7642,79.3229 75.5104,80.0692 75.5104,80.9896C 75.5104,81.91 74.7643,82.6561 73.8438,82.6561C 72.9233,82.6561 72.1771,81.91 72.1771,80.9896C 72.1771,80.0692 72.9233,79.3229 73.8438,79.3229 Z "/>
	<path fill="#FFFFFF" fill-opacity="1" stroke-width="0.2" stroke-linejoin="round" d="M 129.844,78.9894C 130.764,78.9894 131.51,79.7357 131.51,80.6561C 131.51,81.5765 130.764,82.3226 129.844,82.3226C 128.923,82.3226 128.177,81.5765 128.177,80.6561C 128.177,79.7357 128.923,78.9894 129.844,78.9894 Z "/>
	<path fill="#FFFFFF" fill-opacity="0.203922" stroke-width="0.2" stroke-linejoin="round" d="M 115.689,98.8075C 115.689,98.8075 89.439,100.557 82.189,119.557C 82.189,119.557 76.439,108.057 78.439,103.807C 78.439,103.807 96.439,93.5575 115.689,98.8075 Z "/>
	<g>
		<path fill="#FFFFFF" fill-opacity="1" stroke-width="3" stroke-linejoin="round" d="M 73.8983,70.2731C 79.4673,70.2731 84.9822,74.7877 84.9822,80.3568C 84.9822,85.9261 79.4674,90.4408 73.8983,90.4408C 68.329,90.4408 62.8143,85.9261 62.8143,80.3568C 62.8143,74.7877 68.3291,70.2731 73.8983,70.2731 Z "/>
		<defs>
			<path id="SVG_CLIPPER5_" d="M 73.8983,70.2731C 79.4673,70.2731 84.9822,74.7877 84.9822,80.3568C 84.9822,85.9261 79.4674,90.4408 73.8983,90.4408C 68.329,90.4408 62.8143,85.9261 62.8143,80.3568C 62.8143,74.7877 68.3291,70.2731 73.8983,70.2731 Z "/>
		</defs>
		<clipPath id="SVG_CLIPPER6_">
			<use xlink:href="#SVG_CLIPPER5_" overflow="visible"/>
		</clipPath>
		<g clip-path="url(#SVG_CLIPPER6_)">
			<path fill="#006432" fill-opacity="1" stroke-width="3" stroke-linejoin="round" stroke="#006432" stroke-opacity="1" d="M 73.579,74.7806C 76.7072,74.7806 79.243,77.9159 79.243,81.7833C 79.243,85.651 76.7072,88.7863 73.579,88.7863C 70.4508,88.7863 67.9149,85.651 67.9149,81.7833C 67.9149,77.9159 70.4509,74.7806 73.579,74.7806 Z "/>
			<path fill="#000000" fill-opacity="1" stroke-width="0.2" stroke-linejoin="round" d="M 73.5791,76.8661C 75.7762,76.8661 77.5574,79.0682 77.5574,81.7845C 77.5574,84.5011 75.7762,86.7032 73.5791,86.7032C 71.3819,86.7032 69.6008,84.5011 69.6008,81.7845C 69.6008,79.0682 71.382,76.8661 73.5791,76.8661 Z "/>
			<path fill="#FFFFFF" fill-opacity="1" stroke-width="0.2" stroke-linejoin="round" d="M 70.4115,77.3885C 71.4166,77.3885 72.2313,78.2035 72.2313,79.2084C 72.2313,80.2135 71.4166,81.0282 70.4115,81.0282C 69.4065,81.0282 68.5918,80.2135 68.5918,79.2084C 68.5918,78.2035 69.4066,77.3885 70.4115,77.3885 Z "/>
		</g>
		<path fill="none" stroke-width="3" stroke-linejoin="round" stroke="#B5A5FE" stroke-opacity="1" d="M 73.8983,70.2731C 79.4673,70.2731 84.9822,74.7877 84.9822,80.3568C 84.9822,85.9261 79.4674,90.4408 73.8983,90.4408C 68.329,90.4408 62.8143,85.9261 62.8143,80.3568C 62.8143,74.7877 68.3291,70.2731 73.8983,70.2731 Z "/>
	</g>
	<path fill="#706CF5" fill-opacity="1" stroke-width="10" stroke-linejoin="round" stroke="#706CF5" stroke-opacity="1" d="M 71.4578,65.6757C 71.4578,65.6757 81.2286,79.4467 87.3953,81.1132"/>
	<g>
		<path fill="#FFFFFF" fill-opacity="1" stroke-width="3" stroke-linejoin="round" d="M 134.453,68.955C 140.022,68.955 145.537,73.4696 145.537,79.0387C 145.537,84.6078 140.022,89.1224 134.453,89.1224C 128.884,89.1224 123.369,84.6078 123.369,79.0387C 123.369,73.4696 128.884,68.955 134.453,68.955 Z "/>
		<defs>
			<path id="SVG_CLIPPER7_" d="M 134.453,68.955C 140.022,68.955 145.537,73.4696 145.537,79.0387C 145.537,84.6078 140.022,89.1224 134.453,89.1224C 128.884,89.1224 123.369,84.6078 123.369,79.0387C 123.369,73.4696 128.884,68.955 134.453,68.955 Z "/>
		</defs>
		<clipPath id="SVG_CLIPPER8_">
			<use xlink:href="#SVG_CLIPPER7_" overflow="visible"/>
		</clipPath>
		<g clip-path="url(#SVG_CLIPPER8_)">
			<path fill="#006432" fill-opacity="1" stroke-width="3" stroke-linejoin="round" stroke="#006432" stroke-opacity="1" d="M 134.274,74.453C 137.402,74.453 139.938,77.5885 139.938,81.4559C 139.938,85.3236 137.402,88.4589 134.274,88.4589C 131.146,88.4589 128.61,85.3236 128.61,81.4559C 128.61,77.5885 131.146,74.453 134.274,74.453 Z "/>
			<path fill="#000000" fill-opacity="1" stroke-width="0.2" stroke-linejoin="round" d="M 134.274,76.5385C 136.471,76.5385 138.253,78.7406 138.253,81.4572C 138.253,84.1737 136.472,86.3759 134.274,86.3759C 132.077,86.3759 130.296,84.1737 130.296,81.4572C 130.296,78.7406 132.077,76.5385 134.274,76.5385 Z "/>
			<path fill="#FFFFFF" fill-opacity="1" stroke-width="0.2" stroke-linejoin="round" d="M 131.107,77.0612C 132.112,77.0612 132.927,77.8759 132.927,78.881C 132.927,79.8861 132.112,80.7008 131.107,80.7008C 130.102,80.7008 129.287,79.8861 129.287,78.881C 129.287,77.8759 130.102,77.0612 131.107,77.0612 Z "/>
		</g>
		<path fill="none" stroke-width="3" stroke-linejoin="round" stroke="#B5A5FE" stroke-opacity="1" d="M 134.453,68.955C 140.022,68.955 145.537,73.4696 145.537,79.0387C 145.537,84.6078 140.022,89.1224 134.453,89.1224C 128.884,89.1224 123.369,84.6078 123.369,79.0387C 123.369,73.4696 128.884,68.955 134.453,68.955 Z "/>
	</g>
	<path fill="#987FFF" fill-opacity="1" stroke-width="11" stroke-linejoin="round" stroke="#706CF5" stroke-opacity="1" d="M 120.958,78.1967C 120.958,78.1967 136.041,73.6141 137.833,65.3217"/>
</svg>
