<?xml version="1.0" encoding="UTF-8" standalone="yes"?>
<svg xmlns="http://www.w3.org/2000/svg" xmlns:xlink="http://www.w3.org/1999/xlink" width="46.666666666666664px" height="42.666666666666664px" viewBox="0 0 35 32" version="1.1">
  <defs>
    <clipPath id="clip1">
      <path d="M 25 2 L 33 2 L 33 11 L 25 11 Z M 25 2 "/>
    </clipPath>
    <clipPath id="clip2">
      <path d="M 25.6875 5.832031 C 25.6875 5.832031 25.878906 4.917969 26.015625 3.753906 C 26.152344 2.59375 26.757812 0.875 28.378906 0.515625 C 30.003906 0.152344 32.148438 0.0429688 33.328125 1.953125 C 34.511719 3.867188 35.035156 6.25 34.59375 7.828125 C 34.152344 9.40625 32.722656 10.515625 31.046875 11.152344 C 29.371094 11.789062 29.148438 13.8125 29.148438 13.8125 Z M 25.6875 5.832031 "/>
    </clipPath>
    <clipPath id="clip3">
      <path d="M 1 2 L 9 2 L 9 11 L 1 11 Z M 1 2 "/>
    </clipPath>
    <clipPath id="clip4">
      <path d="M 5.371094 12.101562 C 5.371094 12.101562 4.648438 11.1875 3.390625 10.75 C 2.132812 10.316406 0.359375 9.214844 0.257812 7.570312 C 0.152344 5.929688 0.9375 -0.0742188 3.949219 0.257812 C 6.957031 0.589844 7.925781 1.339844 8.710938 3.875 C 9.492188 6.410156 9.886719 7.136719 9.886719 7.136719 Z M 5.371094 12.101562 "/>
    </clipPath>
    <clipPath id="clip5">
      <path d="M 10 13 L 13 13 L 13 17 L 10 17 Z M 10 13 "/>
    </clipPath>
    <clipPath id="clip6">
      <path d="M 11.796875 12.007812 C 13.03125 12.007812 14.253906 13.015625 14.253906 14.261719 C 14.253906 15.507812 13.03125 16.515625 11.796875 16.515625 C 10.5625 16.515625 9.335938 15.507812 9.335938 14.261719 C 9.335938 13.015625 10.5625 12.007812 11.796875 12.007812 Z M 11.796875 12.007812 "/>
    </clipPath>
    <clipPath id="clip7">
      <path d="M 10 12 L 14 12 L 14 17 L 10 17 Z M 10 12 "/>
    </clipPath>
    <clipPath id="clip8">
      <path d="M 11.796875 12.007812 C 13.03125 12.007812 14.253906 13.015625 14.253906 14.261719 C 14.253906 15.507812 13.03125 16.515625 11.796875 16.515625 C 10.5625 16.515625 9.335938 15.507812 9.335938 14.261719 C 9.335938 13.015625 10.5625 12.007812 11.796875 12.007812 Z M 11.796875 12.007812 "/>
    </clipPath>
    <clipPath id="clip9">
      <path d="M 10 13 L 13 13 L 13 16 L 10 16 Z M 10 13 "/>
    </clipPath>
    <clipPath id="clip10">
      <path d="M 11.796875 12.007812 C 13.03125 12.007812 14.253906 13.015625 14.253906 14.261719 C 14.253906 15.507812 13.03125 16.515625 11.796875 16.515625 C 10.5625 16.515625 9.335938 15.507812 9.335938 14.261719 C 9.335938 13.015625 10.5625 12.007812 11.796875 12.007812 Z M 11.796875 12.007812 "/>
    </clipPath>
    <clipPath id="clip11">
      <path d="M 10 13 L 12 13 L 12 15 L 10 15 Z M 10 13 "/>
    </clipPath>
    <clipPath id="clip12">
      <path d="M 11.796875 12.007812 C 13.03125 12.007812 14.253906 13.015625 14.253906 14.261719 C 14.253906 15.507812 13.03125 16.515625 11.796875 16.515625 C 10.5625 16.515625 9.335938 15.507812 9.335938 14.261719 C 9.335938 13.015625 10.5625 12.007812 11.796875 12.007812 Z M 11.796875 12.007812 "/>
    </clipPath>
    <clipPath id="clip13">
      <path d="M 22 13 L 25 13 L 25 17 L 22 17 Z M 22 13 "/>
    </clipPath>
    <clipPath id="clip14">
      <path d="M 23.757812 12.121094 C 24.992188 12.121094 26.214844 13.128906 26.214844 14.375 C 26.214844 15.621094 24.992188 16.628906 23.757812 16.628906 C 22.519531 16.628906 21.296875 15.621094 21.296875 14.375 C 21.296875 13.128906 22.519531 12.121094 23.757812 12.121094 Z M 23.757812 12.121094 "/>
    </clipPath>
    <clipPath id="clip15">
      <path d="M 22 13 L 26 13 L 26 17 L 22 17 Z M 22 13 "/>
    </clipPath>
    <clipPath id="clip16">
      <path d="M 23.757812 12.121094 C 24.992188 12.121094 26.214844 13.128906 26.214844 14.375 C 26.214844 15.621094 24.992188 16.628906 23.757812 16.628906 C 22.519531 16.628906 21.296875 15.621094 21.296875 14.375 C 21.296875 13.128906 22.519531 12.121094 23.757812 12.121094 Z M 23.757812 12.121094 "/>
    </clipPath>
    <clipPath id="clip17">
      <path d="M 22 13 L 25 13 L 25 17 L 22 17 Z M 22 13 "/>
    </clipPath>
    <clipPath id="clip18">
      <path d="M 23.757812 12.121094 C 24.992188 12.121094 26.214844 13.128906 26.214844 14.375 C 26.214844 15.621094 24.992188 16.628906 23.757812 16.628906 C 22.519531 16.628906 21.296875 15.621094 21.296875 14.375 C 21.296875 13.128906 22.519531 12.121094 23.757812 12.121094 Z M 23.757812 12.121094 "/>
    </clipPath>
    <clipPath id="clip19">
      <path d="M 22 13 L 24 13 L 24 15 L 22 15 Z M 22 13 "/>
    </clipPath>
    <clipPath id="clip20">
      <path d="M 23.757812 12.121094 C 24.992188 12.121094 26.214844 13.128906 26.214844 14.375 C 26.214844 15.621094 24.992188 16.628906 23.757812 16.628906 C 22.519531 16.628906 21.296875 15.621094 21.296875 14.375 C 21.296875 13.128906 22.519531 12.121094 23.757812 12.121094 Z M 23.757812 12.121094 "/>
    </clipPath>
  </defs>
  <g id="surface1">
    <path style=" stroke:none;fill-rule:nonzero;fill:rgb(43.921569%,42.352941%,96.078431%);fill-opacity:1;" d="M 25.6875 5.832031 C 25.6875 5.832031 25.878906 4.917969 26.015625 3.753906 C 26.152344 2.59375 26.757812 0.875 28.378906 0.515625 C 30.003906 0.152344 32.148438 0.0429688 33.328125 1.953125 C 34.511719 3.867188 35.035156 6.25 34.59375 7.828125 C 34.152344 9.40625 32.722656 10.515625 31.046875 11.152344 C 29.371094 11.789062 29.148438 13.8125 29.148438 13.8125 Z M 25.6875 5.832031 "/>
    <path style="fill:none;stroke-width:3;stroke-linecap:butt;stroke-linejoin:round;stroke:rgb(43.921569%,42.352941%,96.078431%);stroke-opacity:1;stroke-miterlimit:4;" d="M 150.453857 33.898682 C 150.453857 33.898682 151.574951 28.585693 152.375732 21.81958 C 153.176513 15.076172 156.72283 5.085937 166.217808 2.99707 C 175.735665 0.885498 188.296491 0.249756 195.206089 11.352539 C 202.138567 22.478027 205.204415 36.328125 202.619036 45.500977 C 200.033656 54.673828 191.659772 61.12207 181.844482 64.822998 C 172.029192 68.523926 170.725063 80.285156 170.725063 80.285156 Z M 150.453857 33.898682 " transform="matrix(0.170732,0,0,0.172043,0.000256098,0)"/>
    <path style=" stroke:none;fill-rule:nonzero;fill:rgb(43.921569%,42.352941%,96.078431%);fill-opacity:1;" d="M 5.371094 12.101562 C 5.371094 12.101562 4.648438 11.1875 3.390625 10.75 C 2.132812 10.316406 0.359375 9.214844 0.257812 7.570312 C 0.152344 5.929688 0.9375 -0.0742188 3.949219 0.257812 C 6.957031 0.589844 7.925781 1.339844 8.710938 3.875 C 9.492188 6.410156 9.886719 7.136719 9.886719 7.136719 Z M 5.371094 12.101562 "/>
    <path style="fill:none;stroke-width:3;stroke-linecap:butt;stroke-linejoin:round;stroke:rgb(43.921569%,42.352941%,96.078431%);stroke-opacity:1;stroke-miterlimit:4;" d="M 31.457763 70.340332 C 31.457763 70.340332 27.225063 65.027344 19.857875 62.484375 C 12.490688 59.964111 2.103411 53.561279 1.508545 44.002441 C 0.890799 34.466309 5.489571 -0.431396 23.129638 1.498535 C 40.746826 3.428467 46.420933 7.787842 51.019705 22.523437 C 55.595598 37.259033 57.906424 41.482178 57.906424 41.482178 Z M 31.457763 70.340332 " transform="matrix(0.170732,0,0,0.172043,0.000256098,0)"/>
    <path style="fill-rule:nonzero;fill:rgb(81.960784%,85.882353%,89.019608%);fill-opacity:1;stroke-width:3;stroke-linecap:butt;stroke-linejoin:round;stroke:rgb(81.960784%,85.882353%,89.019608%);stroke-opacity:1;stroke-miterlimit:4;" d="M 103.207763 19.957764 C 166.629638 19.957764 192.552071 76.833984 192.552071 122.289551 C 192.552071 167.767822 147.021938 184.637695 103.207763 184.637695 C 59.393589 184.637695 13.886335 167.767822 13.886335 122.289551 C 13.886335 76.833984 43.881313 19.957764 103.207763 19.957764 Z M 103.207763 19.957764 " transform="matrix(0.170732,0,0,0.172043,0.000256098,0)"/>
    <path style="fill-rule:nonzero;fill:rgb(43.921569%,42.352941%,96.078431%);fill-opacity:1;stroke-width:10;stroke-linecap:butt;stroke-linejoin:round;stroke:rgb(43.921569%,42.352941%,96.078431%);stroke-opacity:1;stroke-miterlimit:4;" d="M 62.299281 71.611816 C 64.129638 68.296875 71.588344 66.435059 76.667585 65.958252 C 81.723946 65.45874 85.361781 72.951416 85.110107 75.857666 C 84.881313 78.763916 84.469482 81.602051 79.161446 88.141113 C 73.853411 94.657471 71.908656 99.130371 71.062116 101.060303 C 70.215576 102.990234 66.234549 112.299316 59.713902 109.143311 C 53.193254 106.01001 48.502964 89.685059 51.271379 86.074951 C 54.062674 82.442139 61.018031 73.950439 62.299281 71.611816 Z M 62.299281 71.611816 " transform="matrix(0.170732,0,0,0.172043,0.000256098,0)"/>
    <path style="fill-rule:nonzero;fill:rgb(43.921569%,42.352941%,96.078431%);fill-opacity:1;stroke-width:10;stroke-linecap:butt;stroke-linejoin:round;stroke:rgb(43.921569%,42.352941%,96.078431%);stroke-opacity:1;stroke-miterlimit:4;" d="M 124.325509 84.985107 C 121.694371 79.717529 120.710554 77.742187 122.632429 72.315674 C 124.577183 66.88916 142.766357 60.350098 146.518589 71.22583 C 150.247942 82.101562 154.961112 88.61792 157.020263 91.274414 C 159.079415 93.930908 157.18042 110.34668 150.888567 110.959717 C 144.619594 111.572754 139.311558 105.283447 131.807094 95.134277 C 124.325509 84.985107 124.920375 86.211182 124.325509 84.985107 Z M 124.325509 84.985107 " transform="matrix(0.170732,0,0,0.172043,0.000256098,0)"/>
    <path style="fill-rule:nonzero;fill:rgb(0%,0%,0%);fill-opacity:1;stroke-width:3;stroke-linecap:butt;stroke-linejoin:round;stroke:rgb(70.980392%,64.705882%,99.607843%);stroke-opacity:1;stroke-miterlimit:4;" d="M 75.043143 77.219971 C 77.925955 77.219971 80.28254 79.581299 80.28254 82.464844 C 80.28254 85.371094 77.925955 87.709717 75.043143 87.709717 C 72.137451 87.709717 69.803746 85.371094 69.803746 82.464844 C 69.803746 79.581299 72.137451 77.219971 75.043143 77.219971 Z M 75.043143 77.219971 " transform="matrix(0.170732,0,0,0.172043,0.000256098,0)"/>
    <path style="fill-rule:nonzero;fill:rgb(0%,0%,0%);fill-opacity:1;stroke-width:3;stroke-linecap:butt;stroke-linejoin:round;stroke:rgb(70.980392%,64.705882%,99.607843%);stroke-opacity:1;stroke-miterlimit:4;" d="M 131.029192 77.061035 C 133.934884 77.061035 136.291469 79.399658 136.291469 82.305908 C 136.291469 85.189453 133.934884 87.550781 131.029192 87.550781 C 128.146379 87.550781 125.789795 85.189453 125.789795 82.305908 C 125.789795 79.399658 128.146379 77.061035 131.029192 77.061035 Z M 131.029192 77.061035 " transform="matrix(0.170732,0,0,0.172043,0.000256098,0)"/>
    <path style="fill-rule:nonzero;fill:rgb(33.333333%,32.156863%,72.941176%);fill-opacity:1;stroke-width:3;stroke-linecap:butt;stroke-linejoin:round;stroke:rgb(33.333333%,32.156863%,72.941176%);stroke-opacity:1;stroke-miterlimit:4;" d="M 82.135777 105.896484 C 82.135777 105.896484 84.423723 105.033691 85.750732 104.307129 C 87.077741 103.603271 99.775844 98.040527 117.530308 104.080078 C 117.530308 104.080078 121.030866 105.169922 121.991804 105.169922 C 121.991804 105.169922 123.570487 108.053467 123.067138 112.163086 C 123.067138 112.163086 122.838344 115.659668 115.356759 116.15918 C 115.356759 116.15918 111.352853 114.456299 109.797049 116.885742 C 109.797049 116.885742 104.786446 123.719971 102.429862 122.789062 C 102.429862 122.789062 96.023612 118.202637 94.101737 116.999268 C 92.156982 115.795898 90.944371 115.795898 89.388567 116.022949 C 87.809884 116.272705 80.213902 117.249023 82.135777 105.896484 Z M 82.135777 105.896484 " transform="matrix(0.170732,0,0,0.172043,0.000256098,0)"/>
    <path style=" stroke:none;fill-rule:nonzero;fill:rgb(33.333333%,32.156863%,72.941176%);fill-opacity:1;" d="M 17.554688 24.59375 C 17.214844 24.617188 16.878906 24.683594 16.542969 24.738281 C 16.378906 24.765625 16.21875 24.796875 16.058594 24.84375 C 15.914062 24.886719 15.75 24.945312 15.660156 25.070312 C 15.585938 25.179688 15.574219 25.371094 15.664062 25.460938 C 15.671875 25.46875 15.679688 25.464844 15.6875 25.464844 C 15.695312 25.464844 15.703125 25.457031 15.707031 25.460938 C 15.785156 25.484375 15.804688 25.597656 15.875 25.636719 C 16.070312 25.746094 16.316406 25.699219 16.535156 25.714844 C 16.902344 25.742188 17.269531 25.71875 17.640625 25.722656 C 18.414062 25.730469 19.195312 25.914062 19.957031 25.777344 C 20.050781 25.757812 20.148438 25.738281 20.234375 25.699219 C 20.265625 25.6875 20.289062 25.65625 20.300781 25.625 C 20.402344 25.410156 20.339844 25.140625 20.285156 24.910156 C 20.257812 24.789062 20.230469 24.621094 20.113281 24.578125 C 19.996094 24.535156 19.863281 24.574219 19.738281 24.578125 C 19.527344 24.578125 19.316406 24.582031 19.105469 24.585938 C 18.589844 24.589844 18.070312 24.558594 17.554688 24.59375 Z M 17.554688 24.59375 "/>
    <path style=" stroke:none;fill-rule:nonzero;fill:rgb(100%,100%,100%);fill-opacity:1;" d="M 12.609375 13.648438 C 12.765625 13.648438 12.890625 13.777344 12.890625 13.933594 C 12.890625 14.09375 12.765625 14.21875 12.609375 14.21875 C 12.449219 14.21875 12.324219 14.09375 12.324219 13.933594 C 12.324219 13.777344 12.449219 13.648438 12.609375 13.648438 Z M 12.609375 13.648438 "/>
    <path style=" stroke:none;fill-rule:nonzero;fill:rgb(100%,100%,100%);fill-opacity:1;" d="M 22.167969 13.589844 C 22.324219 13.589844 22.453125 13.71875 22.453125 13.875 C 22.453125 14.035156 22.324219 14.164062 22.167969 14.164062 C 22.011719 14.164062 21.882812 14.035156 21.882812 13.875 C 21.882812 13.71875 22.011719 13.589844 22.167969 13.589844 Z M 22.167969 13.589844 "/>
    <path style=" stroke:none;fill-rule:nonzero;fill:rgb(100%,100%,100%);fill-opacity:1;" d="M 11.796875 12.007812 C 13.03125 12.007812 14.253906 13.015625 14.253906 14.261719 C 14.253906 15.507812 13.03125 16.515625 11.796875 16.515625 C 10.5625 16.515625 9.335938 15.507812 9.335938 14.261719 C 9.335938 13.015625 10.5625 12.007812 11.796875 12.007812 Z M 11.796875 12.007812 "/>
    <path style="fill:none;stroke-width:3;stroke-linecap:butt;stroke-linejoin:round;stroke:rgb(70.980392%,64.705882%,99.607843%);stroke-opacity:1;stroke-miterlimit:4;" d="M 69.094482 69.79541 C 76.324393 69.79541 83.485665 75.65332 83.485665 82.89624 C 83.485665 90.13916 76.324393 95.99707 69.094482 95.99707 C 61.864571 95.99707 54.68042 90.13916 54.68042 82.89624 C 54.68042 75.65332 61.864571 69.79541 69.094482 69.79541 Z M 69.094482 69.79541 " transform="matrix(0.170732,0,0,0.172043,0.000256098,0)"/>
    <path style="fill-rule:nonzero;fill:rgb(43.921569%,42.352941%,96.078431%);fill-opacity:1;stroke-width:10;stroke-linecap:butt;stroke-linejoin:round;stroke:rgb(43.921569%,42.352941%,96.078431%);stroke-opacity:1;stroke-miterlimit:4;" d="M 71.451067 65.685791 C 71.451067 65.685791 81.220598 79.445068 87.398054 81.102539 " transform="matrix(0.170732,0,0,0.172043,0.000256098,0)"/>
    <path style=" stroke:none;fill-rule:nonzero;fill:rgb(100%,100%,100%);fill-opacity:1;" d="M 23.757812 12.121094 C 24.992188 12.121094 26.214844 13.128906 26.214844 14.375 C 26.214844 15.621094 24.992188 16.628906 23.757812 16.628906 C 22.519531 16.628906 21.296875 15.621094 21.296875 14.375 C 21.296875 13.128906 22.519531 12.121094 23.757812 12.121094 Z M 23.757812 12.121094 "/>
    <path style="fill:none;stroke-width:3;stroke-linecap:butt;stroke-linejoin:round;stroke:rgb(70.980392%,64.705882%,99.607843%);stroke-opacity:1;stroke-miterlimit:4;" d="M 139.151402 70.453857 C 146.381313 70.453857 153.542585 76.311768 153.542585 83.554687 C 153.542585 90.797607 146.381313 96.655518 139.151402 96.655518 C 131.898612 96.655518 124.737339 90.797607 124.737339 83.554687 C 124.737339 76.311768 131.898612 70.453857 139.151402 70.453857 Z M 139.151402 70.453857 " transform="matrix(0.170732,0,0,0.172043,0.000256098,0)"/>
    <path style="fill-rule:nonzero;fill:rgb(59.607843%,49.803922%,100%);fill-opacity:1;stroke-width:11;stroke-linecap:butt;stroke-linejoin:round;stroke:rgb(43.921569%,42.352941%,96.078431%);stroke-opacity:1;stroke-miterlimit:4;" d="M 120.962228 78.196289 C 120.962228 78.196289 136.039795 73.609863 137.824393 65.32251 " transform="matrix(0.170732,0,0,0.172043,0.000256098,0)"/>
    <g clip-path="url(#clip1)" clip-rule="nonzero">
      <g clip-path="url(#clip2)" clip-rule="nonzero">
        <path style=" stroke:none;fill-rule:nonzero;fill:rgb(0%,0%,0%);fill-opacity:0.203922;" d="M 29.09375 2.527344 C 31.027344 2.527344 32.59375 4.414062 32.59375 6.742188 C 32.59375 9.070312 31.027344 10.957031 29.09375 10.957031 C 27.160156 10.957031 25.59375 9.070312 25.59375 6.742188 C 25.59375 4.414062 27.160156 2.527344 29.09375 2.527344 Z M 29.09375 2.527344 "/>
      </g>
    </g>
    <g clip-path="url(#clip3)" clip-rule="nonzero">
      <g clip-path="url(#clip4)" clip-rule="nonzero">
        <path style=" stroke:none;fill-rule:nonzero;fill:rgb(0%,0%,0%);fill-opacity:0.203922;" d="M 4.976562 2.441406 C 6.910156 2.441406 8.476562 4.328125 8.476562 6.65625 C 8.476562 8.984375 6.910156 10.871094 4.976562 10.871094 C 3.042969 10.871094 1.476562 8.984375 1.476562 6.65625 C 1.476562 4.328125 3.042969 2.441406 4.976562 2.441406 Z M 4.976562 2.441406 "/>
      </g>
    </g>
    <g clip-path="url(#clip5)" clip-rule="nonzero">
      <g clip-path="url(#clip6)" clip-rule="nonzero">
        <path style=" stroke:none;fill-rule:nonzero;fill:rgb(0%,39.215686%,19.607843%);fill-opacity:1;" d="M 11.726562 13.015625 C 12.417969 13.015625 12.980469 13.714844 12.980469 14.582031 C 12.980469 15.445312 12.417969 16.144531 11.726562 16.144531 C 11.03125 16.144531 10.46875 15.445312 10.46875 14.582031 C 10.46875 13.714844 11.03125 13.015625 11.726562 13.015625 Z M 11.726562 13.015625 "/>
      </g>
    </g>
    <g clip-path="url(#clip7)" clip-rule="nonzero">
      <g clip-path="url(#clip8)" clip-rule="nonzero">
        <path style="fill:none;stroke-width:3;stroke-linecap:butt;stroke-linejoin:round;stroke:rgb(0%,39.215686%,19.607843%);stroke-opacity:1;stroke-miterlimit:4;" d="M 68.682652 75.65332 C 72.732317 75.65332 76.02696 79.717529 76.02696 84.758057 C 76.02696 89.775879 72.732317 93.840088 68.682652 93.840088 C 64.610107 93.840088 61.315464 89.775879 61.315464 84.758057 C 61.315464 79.717529 64.610107 75.65332 68.682652 75.65332 Z M 68.682652 75.65332 " transform="matrix(0.170732,0,0,0.172043,0.000256098,0)"/>
      </g>
    </g>
    <g clip-path="url(#clip9)" clip-rule="nonzero">
      <g clip-path="url(#clip10)" clip-rule="nonzero">
        <path style=" stroke:none;fill-rule:nonzero;fill:rgb(0%,0%,0%);fill-opacity:1;" d="M 11.726562 13.480469 C 12.210938 13.480469 12.609375 13.972656 12.609375 14.582031 C 12.609375 15.1875 12.210938 15.679688 11.726562 15.679688 C 11.238281 15.679688 10.84375 15.1875 10.84375 14.582031 C 10.84375 13.972656 11.238281 13.480469 11.726562 13.480469 Z M 11.726562 13.480469 "/>
      </g>
    </g>
    <g clip-path="url(#clip11)" clip-rule="nonzero">
      <g clip-path="url(#clip12)" clip-rule="nonzero">
        <path style=" stroke:none;fill-rule:nonzero;fill:rgb(100%,100%,100%);fill-opacity:1;" d="M 11.023438 13.597656 C 11.246094 13.597656 11.425781 13.78125 11.425781 14.003906 C 11.425781 14.230469 11.246094 14.410156 11.023438 14.410156 C 10.800781 14.410156 10.617188 14.230469 10.617188 14.003906 C 10.617188 13.78125 10.800781 13.597656 11.023438 13.597656 Z M 11.023438 13.597656 "/>
      </g>
    </g>
    <g clip-path="url(#clip13)" clip-rule="nonzero">
      <g clip-path="url(#clip14)" clip-rule="nonzero">
        <path style=" stroke:none;fill-rule:nonzero;fill:rgb(0%,39.215686%,19.607843%);fill-opacity:1;" d="M 23.714844 13.351562 C 24.410156 13.351562 24.972656 14.050781 24.972656 14.914062 C 24.972656 15.78125 24.410156 16.480469 23.714844 16.480469 C 23.023438 16.480469 22.460938 15.78125 22.460938 14.914062 C 22.460938 14.050781 23.023438 13.351562 23.714844 13.351562 Z M 23.714844 13.351562 "/>
      </g>
    </g>
    <g clip-path="url(#clip15)" clip-rule="nonzero">
      <g clip-path="url(#clip16)" clip-rule="nonzero">
        <path style="fill:none;stroke-width:3;stroke-linecap:butt;stroke-linejoin:round;stroke:rgb(0%,39.215686%,19.607843%);stroke-opacity:1;stroke-miterlimit:4;" d="M 138.899728 77.605957 C 142.972272 77.605957 146.266915 81.670166 146.266915 86.687988 C 146.266915 91.728516 142.972272 95.792725 138.899728 95.792725 C 134.850063 95.792725 131.55542 91.728516 131.55542 86.687988 C 131.55542 81.670166 134.850063 77.605957 138.899728 77.605957 Z M 138.899728 77.605957 " transform="matrix(0.170732,0,0,0.172043,0.000256098,0)"/>
      </g>
    </g>
    <g clip-path="url(#clip17)" clip-rule="nonzero">
      <g clip-path="url(#clip18)" clip-rule="nonzero">
        <path style=" stroke:none;fill-rule:nonzero;fill:rgb(0%,0%,0%);fill-opacity:1;" d="M 23.714844 13.816406 C 24.203125 13.816406 24.597656 14.308594 24.597656 14.914062 C 24.597656 15.523438 24.203125 16.015625 23.714844 16.015625 C 23.230469 16.015625 22.835938 15.523438 22.835938 14.914062 C 22.835938 14.308594 23.230469 13.816406 23.714844 13.816406 Z M 23.714844 13.816406 "/>
      </g>
    </g>
    <g clip-path="url(#clip19)" clip-rule="nonzero">
      <g clip-path="url(#clip20)" clip-rule="nonzero">
        <path style=" stroke:none;fill-rule:nonzero;fill:rgb(100%,100%,100%);fill-opacity:1;" d="M 23.015625 13.933594 C 23.238281 13.933594 23.417969 14.117188 23.417969 14.339844 C 23.417969 14.566406 23.238281 14.746094 23.015625 14.746094 C 22.792969 14.746094 22.609375 14.566406 22.609375 14.339844 C 22.609375 14.117188 22.792969 13.933594 23.015625 13.933594 Z M 23.015625 13.933594 "/>
      </g>
    </g>
  </g>
</svg>