<?xml version="1.0" encoding="UTF-8" standalone="yes"?>
<svg xmlns="http://www.w3.org/2000/svg" xmlns:xlink="http://www.w3.org/1999/xlink" width="48px" height="48px" viewBox="0 0 36 36" version="1.1">
  <defs>
    <filter id="alpha" filterUnits="objectBoundingBox" x="0%" y="0%" width="100%" height="100%">
      <feColorMatrix type="matrix" in="SourceGraphic" values="0 0 0 0 1 0 0 0 0 1 0 0 0 0 1 0 0 0 1 0"/>
    </filter>
    <mask id="mask0">
      <g filter="url(#alpha)">
        <rect x="0" y="0" width="36" height="36" style="fill:rgb(0%,0%,0%);fill-opacity:0.501961;stroke:none;"/>
      </g>
    </mask>
    <mask id="mask1">
      <g filter="url(#alpha)">
        <rect x="0" y="0" width="36" height="36" style="fill:rgb(0%,0%,0%);fill-opacity:0.501961;stroke:none;"/>
      </g>
    </mask>
    <clipPath id="clip1">
      <rect width="36" height="36"/>
    </clipPath>
    <clipPath id="clip2">
      <rect width="36" height="36"/>
    </clipPath>
    <g id="surface6" clip-path="url(#clip1)">
      <path style=" stroke:none;fill-rule:nonzero;fill:rgb(58.039216%,59.607843%,60.784314%);fill-opacity:1;" d="M 26.914062 10.417969 C 24.28125 9.414062 21.496094 11.3125 18 11.3125 C 14.503906 11.3125 11.71875 9.414062 9.085938 10.417969 C 6.15625 11.535156 9.085938 10.417969 12.132812 11.339844 C 15.179688 12.265625 16.457031 12.375 18 12.375 C 19.542969 12.375 20.820312 12.265625 23.867188 11.339844 C 26.914062 10.417969 29.84375 11.535156 26.914062 10.417969 Z M 26.914062 10.417969 "/>
    </g>
    <g id="surface9" clip-path="url(#clip2)">
      <path style=" stroke:none;fill-rule:nonzero;fill:rgb(58.039216%,59.607843%,60.784314%);fill-opacity:1;" d="M 23.941406 8.9375 C 22.1875 8.183594 20.332031 9.609375 18 9.609375 C 15.667969 9.609375 13.8125 8.183594 12.058594 8.9375 C 10.105469 9.777344 12.058594 8.9375 14.089844 9.628906 C 16.121094 10.324219 16.96875 10.40625 18 10.40625 C 19.03125 10.40625 19.878906 10.324219 21.910156 9.628906 C 23.941406 8.9375 25.898438 9.777344 23.941406 8.9375 Z M 23.941406 8.9375 "/>
    </g>
  </defs>
  <g id="surface1">
    <path style=" stroke:none;fill-rule:nonzero;fill:rgb(24.313725%,26.27451%,27.843137%);fill-opacity:1;" d="M 29.125 9.066406 C 27.84375 3.488281 22.28125 1.125 18 1.125 C 13.71875 1.125 8.15625 3.488281 6.875 9.066406 C 5.589844 14.644531 -1.679688 17.308594 2.308594 22.773438 C 5.199219 26.738281 13.78125 34.875 18 34.875 C 22.21875 34.875 30.800781 26.738281 33.691406 22.773438 C 37.675781 17.308594 30.410156 14.644531 29.125 9.066406 Z M 29.125 9.066406 "/>
    <path style=" stroke:none;fill-rule:nonzero;fill:rgb(58.039216%,59.607843%,60.784314%);fill-opacity:1;" d="M 28.96875 14.0625 C 25.015625 11.425781 20.742188 14.625 18 14.625 C 15.257812 14.625 10.984375 11.425781 7.03125 14.0625 C 3.074219 16.699219 7.632812 22.40625 12.09375 20.8125 C 18 18.699219 13.320312 23.230469 12.621094 25.03125 C 11.925781 26.828125 11.25 32.0625 18 32.0625 C 24.75 32.0625 24.074219 26.828125 23.378906 25.03125 C 22.683594 23.230469 18.019531 19.125 23.90625 20.8125 C 28.558594 22.144531 32.921875 16.699219 28.96875 14.0625 Z M 28.96875 14.0625 "/>
    <path style=" stroke:none;fill-rule:nonzero;fill:rgb(58.039216%,59.607843%,60.784314%);fill-opacity:1;" d="M 16.320312 19.242188 C 14.949219 18.609375 15.460938 20.707031 12.847656 21.621094 C 10.210938 22.542969 11.222656 24.75 13.117188 24.75 C 14.753906 24.75 16.023438 24.785156 17.011719 23.414062 C 18.003906 22.042969 17.695312 19.875 16.320312 19.242188 Z M 23.152344 21.621094 C 20.539062 20.707031 21.054688 18.609375 19.679688 19.242188 C 18.304688 19.875 17.996094 22.042969 18.988281 23.414062 C 19.980469 24.785156 21.246094 24.75 22.882812 24.75 C 24.777344 24.75 25.789062 22.542969 23.152344 21.621094 Z M 23.152344 21.621094 "/>
    <path style=" stroke:none;fill-rule:nonzero;fill:rgb(24.313725%,26.27451%,27.843137%);fill-opacity:1;" d="M 16.035156 21.066406 C 16.101562 21.941406 16.421875 23.867188 14.570312 23.929688 C 12.9375 23.988281 12.488281 22.316406 14.4375 22.246094 C 15.738281 22.203125 16.035156 21.066406 16.035156 21.066406 Z M 19.964844 21.066406 C 19.898438 21.941406 19.578125 23.867188 21.429688 23.929688 C 23.0625 23.988281 23.511719 22.316406 21.5625 22.246094 C 20.261719 22.203125 19.964844 21.066406 19.964844 21.066406 Z M 19.964844 21.066406 "/>
    <path style=" stroke:none;fill-rule:nonzero;fill:rgb(24.313725%,26.27451%,27.843137%);fill-opacity:1;" d="M 22.847656 27.5625 C 22.847656 27.40625 20.675781 27.28125 18 27.28125 C 15.324219 27.28125 13.152344 27.40625 13.152344 27.5625 C 13.152344 27.71875 15.324219 27.84375 18 27.84375 C 20.675781 27.84375 22.847656 27.71875 22.847656 27.5625 Z M 22.847656 27.5625 "/>
    <path style=" stroke:none;fill-rule:nonzero;fill:rgb(78.039216%,90.588235%,33.333333%);fill-opacity:1;" d="M 12.9375 19.246094 C 14.800781 19.246094 16.3125 17.785156 16.3125 15.984375 L 9.5625 15.984375 C 9.5625 17.785156 11.074219 19.246094 12.9375 19.246094 Z M 12.9375 19.246094 "/>
    <path style=" stroke:none;fill-rule:nonzero;fill:rgb(53.72549%,40%,29.803922%);fill-opacity:1;" d="M 12.9375 17.816406 C 13.867188 17.816406 14.625 17.089844 14.625 16.1875 L 11.25 16.1875 C 11.25 17.089844 12.007812 17.816406 12.9375 17.816406 Z M 12.9375 17.816406 "/>
    <path style=" stroke:none;fill-rule:nonzero;fill:rgb(78.039216%,90.588235%,33.333333%);fill-opacity:1;" d="M 26.4375 15.984375 C 26.4375 17.785156 24.925781 19.246094 23.0625 19.246094 C 21.199219 19.246094 19.6875 17.785156 19.6875 15.984375 Z M 26.4375 15.984375 "/>
    <path style=" stroke:none;fill-rule:nonzero;fill:rgb(53.72549%,40%,29.803922%);fill-opacity:1;" d="M 24.75 16.1875 C 24.75 17.089844 23.992188 17.816406 23.0625 17.816406 C 22.132812 17.816406 21.375 17.089844 21.375 16.1875 Z M 24.75 16.1875 "/>
    <path style=" stroke:none;fill-rule:nonzero;fill:rgb(24.313725%,26.27451%,27.843137%);fill-opacity:1;" d="M 28.96875 16.097656 C 28.96875 16.332031 24.058594 16.523438 18 16.523438 C 11.941406 16.523438 7.03125 16.332031 7.03125 16.097656 C 7.03125 15.867188 11.941406 15.679688 18 15.679688 C 24.058594 15.679688 28.96875 15.867188 28.96875 16.097656 Z M 1.125 19.6875 C 1.125 19.6875 1.125 23.195312 3.515625 26.285156 L 4.007812 25.175781 C 4.007812 25.175781 4.078125 26.882812 5.519531 28.820312 L 5.976562 27.117188 C 5.976562 27.117188 6.046875 29.699219 8.296875 32.144531 C 8.296875 32.144531 8.488281 30.445312 8.71875 29.835938 C 8.71875 29.835938 9.984375 32.511719 12.9375 34.3125 C 12.9375 34.3125 12.15625 32.875 13.875 31.746094 C 13.875 31.746094 5.683594 19.6875 1.125 19.6875 Z M 34.875 19.6875 C 34.875 19.6875 34.875 23.195312 32.484375 26.285156 L 31.992188 25.175781 C 31.992188 25.175781 31.921875 26.882812 30.480469 28.820312 L 30.023438 27.117188 C 30.023438 27.117188 29.953125 29.699219 27.703125 32.144531 C 27.703125 32.144531 27.511719 30.445312 27.28125 29.835938 C 27.28125 29.835938 26.015625 32.511719 23.0625 34.3125 C 23.0625 34.3125 23.84375 32.875 22.121094 31.746094 C 22.125 31.746094 30.316406 19.6875 34.875 19.6875 Z M 34.875 19.6875 "/>
    <use xlink:href="#surface6" mask="url(#mask0)"/>
    <use xlink:href="#surface9" mask="url(#mask1)"/>
  </g>
</svg>