<?xml version="1.0" encoding="UTF-8" standalone="yes"?>
<svg xmlns="http://www.w3.org/2000/svg" xmlns:xlink="http://www.w3.org/1999/xlink" width="48px" height="48px" viewBox="0 0 36 36" version="1.1">
  <g id="surface1">
    <path style=" stroke:none;fill-rule:nonzero;fill:rgb(96.078431%,81.960784%,67.45098%);fill-opacity:1;" d="M 8.875 29.285156 C 5.078125 26.816406 3.566406 17.238281 4.800781 12.878906 C 5.722656 9.632812 9.207031 4.847656 12.335938 3.601562 C 14.96875 2.550781 21.03125 2.550781 23.664062 3.601562 C 26.792969 4.847656 30.277344 9.632812 31.199219 12.878906 C 32.4375 17.238281 31.488281 26.820312 27.6875 29.285156 C 19.683594 34.488281 16.878906 34.488281 8.875 29.285156 Z M 8.875 29.285156 "/>
    <path style=" stroke:none;fill-rule:nonzero;fill:rgb(25.882353%,19.607843%,13.72549%);fill-opacity:1;" d="M 2.851562 13.867188 C 4.886719 18.3125 5.382812 18.488281 7.304688 13.203125 C 8.328125 10.378906 7.609375 8.695312 8.800781 6.875 C 9.460938 5.855469 10.996094 4.195312 10.996094 4.195312 C 10.996094 4.195312 -0.984375 5.46875 2.851562 13.867188 Z M 2.851562 13.867188 "/>
    <path style=" stroke:none;fill-rule:nonzero;fill:rgb(58.039216%,44.313725%,31.764706%);fill-opacity:1;" d="M 7.976562 4.03125 C 4.949219 5.980469 -1.53125 5.207031 2.304688 13.605469 C 4.339844 18.054688 4.835938 18.226562 6.757812 12.941406 C 7.78125 10.121094 7.0625 8.4375 8.253906 6.613281 C 8.914062 5.597656 10.996094 4.195312 10.996094 4.195312 C 10.996094 4.195312 10.050781 2.691406 7.976562 4.03125 Z M 7.976562 4.03125 "/>
    <path style=" stroke:none;fill-rule:nonzero;fill:rgb(25.882353%,19.607843%,13.72549%);fill-opacity:1;" d="M 33.148438 13.863281 C 31.113281 18.308594 30.617188 18.484375 28.695312 13.199219 C 27.675781 10.378906 28.390625 8.695312 27.199219 6.871094 C 26.539062 5.855469 25.003906 4.195312 25.003906 4.195312 C 25.003906 4.195312 36.984375 5.464844 33.148438 13.863281 Z M 33.148438 13.863281 "/>
    <path style=" stroke:none;fill-rule:nonzero;fill:rgb(58.039216%,44.313725%,31.764706%);fill-opacity:1;" d="M 28.023438 4.027344 C 31.050781 5.976562 37.53125 5.203125 33.695312 13.601562 C 31.660156 18.050781 31.164062 18.226562 29.242188 12.9375 C 28.21875 10.117188 28.9375 8.433594 27.746094 6.609375 C 27.085938 5.59375 25.003906 4.195312 25.003906 4.195312 C 25.003906 4.195312 25.949219 2.691406 28.023438 4.027344 Z M 28.023438 4.027344 "/>
    <path style=" stroke:none;fill-rule:nonzero;fill:rgb(100%,100%,100%);fill-opacity:1;" d="M 13.359375 17.285156 C 13.359375 15.417969 11.847656 13.90625 9.984375 13.90625 C 8.121094 13.90625 6.609375 15.417969 6.609375 17.285156 C 6.609375 19.15625 8.121094 20.667969 9.984375 20.667969 C 11.847656 20.667969 13.359375 19.15625 13.359375 17.285156 Z M 13.359375 17.285156 "/>
    <path style=" stroke:none;fill-rule:nonzero;fill:rgb(24.313725%,26.27451%,27.843137%);fill-opacity:1;" d="M 11.671875 17.285156 C 11.671875 15.886719 10.539062 14.75 9.140625 14.75 C 7.742188 14.75 6.609375 15.886719 6.609375 17.285156 C 6.609375 18.6875 7.742188 19.824219 9.140625 19.824219 C 10.539062 19.824219 11.671875 18.6875 11.671875 17.285156 Z M 11.671875 17.285156 "/>
    <path style=" stroke:none;fill-rule:nonzero;fill:rgb(100%,100%,100%);fill-opacity:1;" d="M 29.390625 17.285156 C 29.390625 15.417969 27.878906 13.90625 26.015625 13.90625 C 24.152344 13.90625 22.640625 15.417969 22.640625 17.285156 C 22.640625 19.15625 24.152344 20.667969 26.015625 20.667969 C 27.878906 20.667969 29.390625 19.15625 29.390625 17.285156 Z M 29.390625 17.285156 "/>
    <path style=" stroke:none;fill-rule:nonzero;fill:rgb(24.313725%,26.27451%,27.843137%);fill-opacity:1;" d="M 29.390625 17.285156 C 29.390625 15.886719 28.257812 14.75 26.859375 14.75 C 25.460938 14.75 24.328125 15.886719 24.328125 17.285156 C 24.328125 18.6875 25.460938 19.824219 26.859375 19.824219 C 28.257812 19.824219 29.390625 18.6875 29.390625 17.285156 Z M 29.390625 17.285156 "/>
    <path style=" stroke:none;fill-rule:nonzero;fill:rgb(49.019608%,39.215686%,29.411765%);fill-opacity:1;" d="M 12.199219 27.453125 L 14.816406 30.191406 C 16.386719 31.832031 19.609375 31.832031 21.179688 30.191406 L 23.796875 27.453125 L 21.109375 24.636719 L 14.890625 24.636719 Z M 12.199219 27.453125 "/>
    <path style=" stroke:none;fill-rule:nonzero;fill:rgb(94.509804%,35.294118%,38.039216%);fill-opacity:1;" d="M 18 22.277344 C 18 22.277344 15.265625 26.1875 15.59375 28.085938 C 16.050781 30.773438 19.949219 30.773438 20.410156 28.085938 C 20.734375 26.1875 18 22.277344 18 22.277344 Z M 18 22.277344 "/>
    <path style=" stroke:none;fill-rule:nonzero;fill:rgb(72.941176%,27.058824%,29.411765%);fill-opacity:1;" d="M 18 29.09375 L 18.609375 25.308594 L 17.390625 25.308594 Z M 18 29.09375 "/>
    <path style=" stroke:none;fill-rule:nonzero;fill:rgb(25.882353%,19.607843%,13.72549%);fill-opacity:1;" d="M 15.179688 23.351562 L 20.820312 23.351562 L 20.820312 25.917969 L 15.179688 25.917969 Z M 15.179688 23.351562 "/>
    <path style=" stroke:none;fill-rule:nonzero;fill:rgb(58.039216%,44.313725%,31.764706%);fill-opacity:1;" d="M 26.90625 23.964844 L 22.890625 19.757812 C 20.472656 17.238281 15.523438 17.238281 13.113281 19.757812 L 9.09375 23.964844 C 7.953125 25.15625 7.953125 27.09375 9.09375 28.285156 C 10.230469 29.476562 12.082031 29.476562 13.222656 28.285156 L 17.242188 24.082031 C 17.628906 23.675781 18.367188 23.675781 18.757812 24.082031 L 22.777344 28.285156 C 23.917969 29.476562 25.765625 29.476562 26.90625 28.285156 C 28.046875 27.089844 28.046875 25.15625 26.90625 23.964844 Z M 26.90625 23.964844 "/>
    <path style=" stroke:none;fill-rule:nonzero;fill:rgb(24.313725%,26.27451%,27.843137%);fill-opacity:1;" d="M 14.683594 20.054688 C 14.683594 18.574219 16.167969 18.289062 18 18.289062 C 19.832031 18.289062 21.316406 18.574219 21.316406 20.054688 C 21.316406 21.230469 18.675781 22.277344 18 22.277344 C 17.320312 22.277344 14.683594 21.230469 14.683594 20.054688 Z M 14.683594 20.054688 "/>
    <path style=" stroke:none;fill-rule:nonzero;fill:rgb(24.313725%,26.27451%,27.843137%);fill-opacity:1;" d="M 13.113281 21.941406 L 13.675781 21.378906 L 14.238281 21.9375 L 13.675781 22.503906 Z M 11.773438 23.492188 L 12.335938 22.925781 L 12.898438 23.488281 L 12.335938 24.054688 Z M 13.535156 24.054688 L 14.097656 23.492188 L 14.660156 24.054688 L 14.097656 24.617188 Z M 13.535156 24.054688 "/>
    <path style=" stroke:none;fill-rule:nonzero;fill:rgb(24.313725%,26.27451%,27.843137%);fill-opacity:1;" d="M 22.320312 22.5 L 21.757812 21.9375 L 22.324219 21.375 L 22.886719 21.941406 Z M 23.660156 24.050781 L 23.097656 23.488281 L 23.664062 22.925781 L 24.226562 23.492188 Z M 21.898438 24.617188 L 21.335938 24.050781 L 21.902344 23.488281 L 22.464844 24.054688 Z M 21.898438 24.617188 "/>
  </g>
</svg>