<?xml version="1.0" encoding="UTF-8" standalone="yes"?>
<svg xmlns="http://www.w3.org/2000/svg" xmlns:xlink="http://www.w3.org/1999/xlink" width="48px" height="48px" viewBox="0 0 36 36" version="1.1">
  <g id="surface1">
    <path style=" stroke:none;fill-rule:nonzero;fill:rgb(98.823529%,59.215686%,69.803922%);fill-opacity:1;" d="M 34.875 20.976562 C 34.875 30.6875 27.320312 29.566406 18 29.566406 C 8.679688 29.566406 1.125 30.6875 1.125 20.976562 C 1.125 11.265625 8.679688 6.394531 18 6.394531 C 27.320312 6.394531 34.875 11.265625 34.875 20.976562 Z M 34.875 20.976562 "/>
    <path style=" stroke:none;fill-rule:nonzero;fill:rgb(64.705882%,38.431373%,47.843137%);fill-opacity:1;" d="M 14.59375 18.910156 C 14.59375 23.066406 12.746094 26.433594 10.464844 26.433594 C 8.179688 26.433594 6.332031 23.066406 6.332031 18.910156 C 6.332031 14.757812 8.179688 11.390625 10.464844 11.390625 C 12.746094 11.390625 14.59375 14.757812 14.59375 18.910156 Z M 14.59375 18.910156 "/>
    <path style=" stroke:none;fill-rule:nonzero;fill:rgb(74.901961%,48.235294%,56.470588%);fill-opacity:1;" d="M 14.605469 18.910156 C 14.605469 14.9375 13.074219 11.71875 11.179688 11.71875 C 9.289062 11.71875 7.757812 14.9375 7.757812 18.910156 C 7.757812 22.882812 9.289062 26.105469 11.179688 26.105469 C 13.074219 26.105469 14.605469 22.882812 14.605469 18.910156 Z M 14.605469 18.910156 "/>
    <path style=" stroke:none;fill-rule:nonzero;fill:rgb(64.705882%,38.431373%,47.843137%);fill-opacity:1;" d="M 29.65625 18.910156 C 29.65625 23.066406 27.808594 26.433594 25.527344 26.433594 C 23.242188 26.433594 21.394531 23.066406 21.394531 18.910156 C 21.394531 14.757812 23.242188 11.390625 25.527344 11.390625 C 27.808594 11.390625 29.65625 14.757812 29.65625 18.910156 Z M 29.65625 18.910156 "/>
    <path style=" stroke:none;fill-rule:nonzero;fill:rgb(74.901961%,48.235294%,56.470588%);fill-opacity:1;" d="M 29.667969 18.910156 C 29.667969 14.9375 28.132812 11.71875 26.242188 11.71875 C 24.351562 11.71875 22.820312 14.9375 22.820312 18.910156 C 22.820312 22.882812 24.351562 26.105469 26.242188 26.105469 C 28.132812 26.105469 29.667969 22.882812 29.667969 18.910156 Z M 29.667969 18.910156 "/>
  </g>
</svg>