<?xml version="1.0" encoding="UTF-8" standalone="yes"?>
<svg xmlns="http://www.w3.org/2000/svg" xmlns:xlink="http://www.w3.org/1999/xlink" width="48px" height="48px" viewBox="0 0 36 36" version="1.1">
  <g id="surface1">
    <path style=" stroke:none;fill-rule:nonzero;fill:rgb(56.078431%,41.960784%,31.764706%);fill-opacity:1;" d="M 32.628906 11.910156 C 34.804688 10.476562 34.875 8.320312 34.875 8.320312 C 32.679688 8.222656 32.746094 5.980469 30.71875 3.921875 C 28.046875 1.210938 24.574219 2.929688 24.574219 2.929688 C 24.738281 2.058594 24.328125 1.589844 24.636719 1.125 C 20.007812 1.125 18 3.074219 18 3.074219 C 18 3.074219 15.992188 1.125 11.363281 1.125 C 11.671875 1.589844 11.257812 2.058594 11.425781 2.929688 C 11.425781 2.929688 7.953125 1.210938 5.28125 3.921875 C 3.253906 5.980469 3.320312 8.222656 1.125 8.320312 C 1.125 8.320312 1.195312 10.476562 3.371094 11.910156 C 3.371094 11.910156 1.089844 14.085938 1.472656 18.707031 C 1.472656 18.707031 2.390625 17.585938 4.542969 17.164062 C 2.007812 19.289062 3.488281 22.4375 1.609375 24.609375 C 1.609375 24.609375 4.191406 25.175781 5.238281 24.417969 C 4.828125 27.75 6.855469 29.050781 6.855469 30.679688 C 9.15625 29.925781 9.476562 27.65625 9.476562 27.65625 C 9.476562 31.859375 10.929688 31.707031 10.929688 33.941406 C 10.929688 33.941406 13.480469 33.539062 14.527344 31.4375 C 14.945312 33.421875 16.917969 33.632812 18 34.875 C 19.082031 33.632812 21.054688 33.421875 21.472656 31.4375 C 22.519531 33.539062 25.070312 33.941406 25.070312 33.941406 C 25.070312 31.707031 26.523438 31.859375 26.523438 27.65625 C 26.523438 27.65625 26.84375 29.925781 29.144531 30.679688 C 29.144531 29.050781 31.171875 27.75 30.761719 24.417969 C 31.808594 25.175781 34.390625 24.609375 34.390625 24.609375 C 32.511719 22.4375 33.992188 19.289062 31.457031 17.164062 C 33.609375 17.585938 34.527344 18.707031 34.527344 18.707031 C 34.910156 14.085938 32.628906 11.910156 32.628906 11.910156 Z M 32.628906 11.910156 "/>
    <path style=" stroke:none;fill-rule:nonzero;fill:rgb(89.803922%,73.72549%,36.862745%);fill-opacity:1;" d="M 31.308594 4 C 29.84375 2.808594 25.652344 4.085938 24.011719 6.132812 C 25.976562 6.804688 28.261719 8.523438 30.019531 12.542969 C 33.71875 10.734375 32.832031 5.234375 31.308594 4 Z M 31.308594 4 "/>
    <path style=" stroke:none;fill-rule:nonzero;fill:rgb(24.313725%,26.27451%,27.843137%);fill-opacity:1;" d="M 29.25 10.980469 C 31.390625 10.09375 30.921875 7.039062 30.089844 6.363281 C 29.335938 5.753906 27.238281 6.363281 26.300781 7.386719 C 27.316406 8.175781 28.332031 9.328125 29.25 10.980469 Z M 29.25 10.980469 "/>
    <path style=" stroke:none;fill-rule:nonzero;fill:rgb(89.803922%,73.72549%,36.862745%);fill-opacity:1;" d="M 11.988281 6.132812 C 10.34375 4.085938 6.15625 2.808594 4.691406 4 C 3.167969 5.234375 2.28125 10.734375 5.980469 12.542969 C 7.738281 8.523438 10.019531 6.804688 11.988281 6.132812 Z M 11.988281 6.132812 "/>
    <path style=" stroke:none;fill-rule:nonzero;fill:rgb(24.313725%,26.27451%,27.843137%);fill-opacity:1;" d="M 6.75 10.980469 C 7.667969 9.328125 8.683594 8.175781 9.699219 7.386719 C 8.761719 6.363281 6.664062 5.753906 5.910156 6.363281 C 5.078125 7.039062 4.609375 10.09375 6.75 10.980469 Z M 6.75 10.980469 "/>
    <path style=" stroke:none;fill-rule:nonzero;fill:rgb(89.803922%,73.72549%,36.862745%);fill-opacity:1;" d="M 27.523438 16.117188 C 27.789062 14.871094 26.652344 12.035156 25.582031 11.4375 C 25.386719 11.328125 24.710938 11.4375 24.710938 11.4375 C 24.511719 11.167969 23.425781 8.039062 20.59375 7.523438 C 18.914062 7.214844 18.007812 8.652344 18.007812 8.652344 C 18.007812 8.652344 17.085938 7.214844 15.402344 7.523438 C 12.574219 8.039062 11.488281 11.167969 11.289062 11.4375 C 11.289062 11.4375 10.609375 11.328125 10.417969 11.4375 C 9.347656 12.035156 8.210938 14.871094 8.476562 16.117188 C 8.800781 17.636719 11.433594 19.164062 11.433594 21.722656 L 24.585938 21.722656 C 24.585938 19.164062 27.199219 17.636719 27.523438 16.117188 Z M 27.523438 16.117188 "/>
    <path style=" stroke:none;fill-rule:nonzero;fill:rgb(100%,100%,100%);fill-opacity:1;" d="M 18.007812 9.242188 L 17.28125 10.699219 L 18.007812 15.234375 L 18.71875 10.699219 Z M 18.007812 9.242188 "/>
    <path style=" stroke:none;fill-rule:nonzero;fill:rgb(24.313725%,26.27451%,27.843137%);fill-opacity:1;" d="M 24.132812 14.636719 C 24.132812 15.574219 23.527344 16.328125 22.785156 16.328125 C 22.035156 16.328125 21.429688 15.574219 21.429688 14.636719 C 21.429688 13.703125 22.035156 12.953125 22.785156 12.953125 C 23.527344 12.953125 24.132812 13.703125 24.132812 14.636719 Z M 11.867188 14.636719 C 11.867188 15.574219 12.472656 16.328125 13.214844 16.328125 C 13.964844 16.328125 14.566406 15.574219 14.566406 14.636719 C 14.566406 13.703125 13.964844 12.953125 13.214844 12.953125 C 12.472656 12.953125 11.867188 13.703125 11.867188 14.636719 Z M 11.867188 14.636719 "/>
    <path style=" stroke:none;fill-rule:nonzero;fill:rgb(100%,100%,100%);fill-opacity:1;" d="M 11.535156 23.496094 C 11.535156 27.097656 15.851562 29.871094 15.851562 29.871094 C 15.800781 29.144531 16 28.550781 16 28.550781 C 16.175781 29.628906 16.660156 30.398438 16.660156 30.398438 C 16.640625 29.476562 17.109375 29.078125 17.109375 29.078125 C 17.550781 30.332031 18.007812 30.820312 18.007812 30.820312 C 18.007812 30.820312 18.46875 30.332031 18.90625 29.078125 C 18.90625 29.078125 19.378906 29.476562 19.355469 30.398438 C 19.355469 30.398438 19.839844 29.628906 20.015625 28.550781 C 20.015625 28.550781 20.214844 29.144531 20.164062 29.871094 C 20.164062 29.871094 24.480469 27.097656 24.480469 23.496094 Z M 11.535156 23.496094 "/>
    <path style=" stroke:none;fill-rule:nonzero;fill:rgb(100%,85.490196%,52.941176%);fill-opacity:1;" d="M 24.34375 20.558594 C 24.148438 20.207031 21.316406 17.933594 21.316406 17.933594 L 14.699219 17.933594 C 14.699219 17.933594 11.867188 20.207031 11.667969 20.558594 C 11.367188 21.101562 11.34375 22.898438 11.535156 23.496094 C 11.535156 23.496094 14.3125 27.644531 18.007812 24.039062 C 21.703125 27.644531 24.480469 23.496094 24.480469 23.496094 C 24.671875 22.898438 24.648438 21.101562 24.34375 20.558594 Z M 24.34375 20.558594 "/>
    <path style=" stroke:none;fill-rule:nonzero;fill:rgb(24.313725%,26.27451%,27.843137%);fill-opacity:1;" d="M 11.535156 23.496094 L 11.5625 23.523438 C 11.527344 23.472656 11.515625 23.460938 11.535156 23.496094 Z M 24.441406 23.523438 L 24.46875 23.496094 C 24.484375 23.460938 24.476562 23.472656 24.441406 23.523438 Z M 18.5625 24.023438 L 18.5625 20.71875 L 20.710938 19.8125 C 21.039062 19.660156 21.308594 19.25 21.308594 18.902344 L 21.308594 17.933594 L 14.695312 17.933594 L 14.695312 18.902344 C 14.695312 19.25 14.964844 19.660156 15.292969 19.8125 L 17.4375 20.71875 L 17.4375 24.027344 C 14.632812 26.640625 11.84375 23.824219 11.5625 23.523438 C 11.894531 24.019531 14.625 28.558594 18 25.007812 C 21.378906 28.558594 24.109375 24.019531 24.441406 23.523438 C 24.160156 23.824219 21.367188 26.640625 18.5625 24.023438 Z M 18.5625 24.023438 "/>
    <path style=" stroke:none;fill-rule:nonzero;fill:rgb(100%,85.490196%,52.941176%);fill-opacity:1;" d="M 21.304688 17.933594 C 20.390625 16.320312 20.273438 16.160156 19.484375 15.816406 C 18.820312 15.527344 17.183594 15.527344 16.519531 15.816406 C 15.730469 16.160156 15.613281 16.320312 14.699219 17.933594 Z M 21.304688 17.933594 "/>
    <path style=" stroke:none;fill-rule:nonzero;fill:rgb(68.627451%,46.666667%,31.764706%);fill-opacity:1;" d="M 18.007812 17.03125 C 15.867188 17.03125 14.699219 17.933594 14.699219 17.933594 C 14.699219 17.933594 14.796875 17.863281 15.980469 18.738281 C 16.714844 19.28125 17.316406 20.738281 18.007812 20.742188 C 18.703125 20.746094 19.285156 19.28125 20.023438 18.738281 C 21.207031 17.863281 21.304688 17.933594 21.304688 17.933594 C 21.304688 17.933594 20.144531 17.03125 18.007812 17.03125 Z M 18.007812 17.03125 "/>
  </g>
</svg>