<?xml version="1.0" encoding="UTF-8" standalone="yes"?>
<svg xmlns="http://www.w3.org/2000/svg" xmlns:xlink="http://www.w3.org/1999/xlink" width="48px" height="48px" viewBox="0 0 36 36" version="1.1">
  <g id="surface1">
    <path style=" stroke:none;fill-rule:nonzero;fill:rgb(70.980392%,70.980392%,70.980392%);fill-opacity:1;" d="M 34.875 11.050781 C 34.875 6.8125 31.445312 3.375 27.21875 3.375 C 22.988281 3.375 19.5625 6.8125 19.5625 11.050781 C 19.5625 15.289062 22.988281 18.722656 27.21875 18.722656 C 31.445312 18.722656 34.875 15.289062 34.875 11.050781 Z M 34.875 11.050781 "/>
    <path style=" stroke:none;fill-rule:nonzero;fill:rgb(100%,77.254902%,82.745098%);fill-opacity:1;" d="M 32.835938 11.964844 C 32.835938 8.824219 30.296875 6.277344 27.164062 6.277344 C 24.03125 6.277344 21.488281 8.824219 21.488281 11.964844 C 21.488281 15.105469 24.03125 17.652344 27.164062 17.652344 C 30.296875 17.652344 32.835938 15.105469 32.835938 11.964844 Z M 32.835938 11.964844 "/>
    <path style=" stroke:none;fill-rule:nonzero;fill:rgb(70.980392%,70.980392%,70.980392%);fill-opacity:1;" d="M 16.4375 11.050781 C 16.4375 6.8125 13.011719 3.375 8.78125 3.375 C 4.554688 3.375 1.125 6.8125 1.125 11.050781 C 1.125 15.289062 4.554688 18.722656 8.78125 18.722656 C 13.011719 18.722656 16.4375 15.289062 16.4375 11.050781 Z M 16.4375 11.050781 "/>
    <path style=" stroke:none;fill-rule:nonzero;fill:rgb(100%,77.254902%,82.745098%);fill-opacity:1;" d="M 14.511719 11.964844 C 14.511719 8.824219 11.96875 6.277344 8.835938 6.277344 C 5.703125 6.277344 3.164062 8.824219 3.164062 11.964844 C 3.164062 15.105469 5.703125 17.652344 8.835938 17.652344 C 11.96875 17.652344 14.511719 15.105469 14.511719 11.964844 Z M 14.511719 11.964844 "/>
    <path style=" stroke:none;fill-rule:nonzero;fill:rgb(76.862745%,77.254902%,77.647059%);fill-opacity:1;" d="M 27.277344 18.785156 C 26.027344 15.957031 23.0625 9.757812 18 9.757812 C 12.941406 9.757812 9.972656 15.957031 8.722656 18.785156 C 8.089844 20.21875 7.535156 21.625 7.332031 23.703125 C 6.980469 27.335938 11.257812 30.460938 13.574219 30.460938 C 14.683594 30.457031 15.859375 32.625 18 32.625 C 20.140625 32.625 21.316406 30.457031 22.425781 30.457031 C 24.742188 30.457031 29.019531 27.335938 28.667969 23.703125 C 28.464844 21.621094 27.910156 20.222656 27.277344 18.785156 Z M 27.277344 18.785156 "/>
    <path style=" stroke:none;fill-rule:nonzero;fill:rgb(100%,77.254902%,82.745098%);fill-opacity:1;" d="M 27.484375 26.886719 C 27.484375 25.976562 26.425781 25.238281 25.121094 25.238281 C 23.820312 25.238281 22.761719 25.976562 22.761719 26.886719 C 22.761719 27.796875 23.820312 28.535156 25.121094 28.535156 C 26.425781 28.535156 27.484375 27.796875 27.484375 26.886719 Z M 27.484375 26.886719 "/>
    <path style=" stroke:none;fill-rule:nonzero;fill:rgb(100%,77.254902%,82.745098%);fill-opacity:1;" d="M 13.238281 26.886719 C 13.238281 25.976562 12.179688 25.238281 10.878906 25.238281 C 9.574219 25.238281 8.519531 25.976562 8.519531 26.886719 C 8.519531 27.796875 9.574219 28.535156 10.878906 28.535156 C 12.179688 28.535156 13.238281 27.796875 13.238281 26.886719 Z M 13.238281 26.886719 "/>
    <path style=" stroke:none;fill-rule:nonzero;fill:rgb(24.313725%,26.27451%,27.843137%);fill-opacity:1;" d="M 20.117188 26.882812 C 19.691406 26.429688 18.390625 26.394531 18 26.394531 C 17.609375 26.394531 16.308594 26.429688 15.882812 26.882812 C 15.582031 27.203125 15.816406 28 16.621094 28.6875 C 17.128906 29.121094 17.609375 29.257812 18 29.257812 C 18.390625 29.257812 18.875 29.121094 19.382812 28.6875 C 20.183594 28 20.417969 27.203125 20.117188 26.882812 Z M 20.117188 26.882812 "/>
    <path style=" stroke:none;fill-rule:nonzero;fill:rgb(100%,100%,100%);fill-opacity:1;" d="M 16.359375 21.667969 C 16.359375 19.832031 14.847656 18.34375 12.976562 18.34375 C 11.109375 18.34375 9.59375 19.832031 9.59375 21.667969 C 9.59375 23.507812 11.109375 24.996094 12.976562 24.996094 C 14.847656 24.996094 16.359375 23.507812 16.359375 21.667969 Z M 16.359375 21.667969 "/>
    <path style=" stroke:none;fill-rule:nonzero;fill:rgb(24.313725%,26.27451%,27.843137%);fill-opacity:1;" d="M 15.320312 21.667969 C 15.320312 20.394531 14.269531 19.363281 12.976562 19.363281 C 11.683594 19.363281 10.636719 20.394531 10.636719 21.667969 C 10.636719 22.941406 11.683594 23.972656 12.976562 23.972656 C 14.269531 23.972656 15.320312 22.941406 15.320312 21.667969 Z M 15.320312 21.667969 "/>
    <path style=" stroke:none;fill-rule:nonzero;fill:rgb(100%,100%,100%);fill-opacity:1;" d="M 26.40625 21.667969 C 26.40625 19.832031 24.890625 18.34375 23.023438 18.34375 C 21.152344 18.34375 19.636719 19.832031 19.636719 21.667969 C 19.636719 23.507812 21.152344 24.996094 23.023438 24.996094 C 24.890625 24.996094 26.40625 23.507812 26.40625 21.667969 Z M 26.40625 21.667969 "/>
    <path style=" stroke:none;fill-rule:nonzero;fill:rgb(24.313725%,26.27451%,27.843137%);fill-opacity:1;" d="M 25.363281 21.667969 C 25.363281 20.394531 24.316406 19.363281 23.023438 19.363281 C 21.726562 19.363281 20.679688 20.394531 20.679688 21.667969 C 20.679688 22.941406 21.726562 23.972656 23.023438 23.972656 C 24.316406 23.972656 25.363281 22.941406 25.363281 21.667969 Z M 25.363281 21.667969 "/>
    <path style=" stroke:none;fill-rule:nonzero;fill:rgb(24.313725%,26.27451%,27.843137%);fill-opacity:1;" d="M 17.269531 30.96875 C 17.328125 30.757812 17.492188 30.601562 17.644531 30.472656 C 17.800781 30.34375 17.980469 30.242188 18.164062 30.160156 C 18.351562 30.078125 18.550781 30.023438 18.757812 30 C 18.953125 29.980469 19.210938 29.984375 19.367188 30.148438 C 19.164062 30.148438 19.007812 30.253906 18.835938 30.320312 L 18.332031 30.546875 C 18.160156 30.617188 17.988281 30.691406 17.808594 30.757812 C 17.636719 30.832031 17.449219 30.871094 17.269531 30.96875 Z M 17.269531 30.96875 "/>
  </g>
</svg>