<?xml version="1.0" encoding="UTF-8" standalone="yes"?>
<svg xmlns="http://www.w3.org/2000/svg" xmlns:xlink="http://www.w3.org/1999/xlink" width="48px" height="48px" viewBox="0 0 36 36" version="1.1">
  <g id="surface1">
    <path style=" stroke:none;fill-rule:nonzero;fill:rgb(94.901961%,60.392157%,18.039216%);fill-opacity:1;" d="M 12.425781 5.222656 C 12.425781 8.355469 10.460938 10.953125 8.042969 10.894531 C 0.9375 10.722656 3.863281 1.125 3.863281 1.125 C 6.285156 1.125 12.425781 2.089844 12.425781 5.222656 Z M 12.425781 5.222656 "/>
    <path style=" stroke:none;fill-rule:nonzero;fill:rgb(73.72549%,37.647059%,5.098039%);fill-opacity:1;" d="M 9.738281 5.84375 C 9.738281 7.515625 8.691406 8.902344 7.398438 8.867188 C 3.609375 8.777344 5.171875 3.65625 5.171875 3.65625 C 6.464844 3.65625 9.738281 4.171875 9.738281 5.84375 Z M 9.738281 5.84375 "/>
    <path style=" stroke:none;fill-rule:nonzero;fill:rgb(94.901961%,60.392157%,18.039216%);fill-opacity:1;" d="M 23.574219 5.222656 C 23.574219 8.355469 25.539062 10.953125 27.957031 10.894531 C 35.0625 10.722656 32.136719 1.125 32.136719 1.125 C 29.714844 1.125 23.574219 2.089844 23.574219 5.222656 Z M 23.574219 5.222656 "/>
    <path style=" stroke:none;fill-rule:nonzero;fill:rgb(73.72549%,37.647059%,5.098039%);fill-opacity:1;" d="M 26.257812 5.84375 C 26.257812 7.515625 27.304688 8.902344 28.597656 8.867188 C 32.386719 8.777344 30.828125 3.65625 30.828125 3.65625 C 29.535156 3.65625 26.257812 4.171875 26.257812 5.84375 Z M 26.257812 5.84375 "/>
    <path style=" stroke:none;fill-rule:nonzero;fill:rgb(94.901961%,60.392157%,18.039216%);fill-opacity:1;" d="M 32.613281 23.484375 C 32.613281 28.582031 3.386719 28.582031 3.386719 23.484375 C 3.386719 2.132812 11.738281 2.71875 18 2.71875 C 24.261719 2.71875 32.613281 2.132812 32.613281 23.484375 Z M 32.613281 23.484375 "/>
    <path style=" stroke:none;fill-rule:nonzero;fill:rgb(24.313725%,26.27451%,27.843137%);fill-opacity:1;" d="M 23.890625 7.066406 C 22.601562 2.175781 13.378906 2.082031 12.109375 7.097656 C 14.664062 4.894531 21.339844 4.894531 23.890625 7.066406 Z M 23.890625 7.066406 "/>
    <path style=" stroke:none;fill-rule:nonzero;fill:rgb(24.313725%,26.27451%,27.843137%);fill-opacity:1;" d="M 22.035156 9.003906 C 21.164062 5.707031 14.824219 5.636719 13.964844 9.027344 C 16.066406 7.214844 19.933594 7.21875 22.035156 9.003906 Z M 22.035156 9.003906 "/>
    <path style=" stroke:none;fill-rule:nonzero;fill:rgb(100%,90.980392%,73.333333%);fill-opacity:1;" d="M 34.875 20.597656 C 34.75 15.402344 31.632812 12.8125 31.632812 12.8125 C 31.632812 12.8125 33.519531 31.863281 22.308594 22.644531 L 13.691406 22.644531 C 2.476562 31.863281 4.367188 12.8125 4.367188 12.8125 C 4.367188 12.8125 1.25 15.402344 1.125 20.597656 L 2.671875 19.679688 C 2.671875 19.679688 1.070312 23.109375 2.792969 27.308594 L 4.414062 25.40625 C 4.414062 25.40625 4.84375 29.382812 9.199219 31.417969 L 9.398438 29.679688 C 9.398438 29.679688 12.6875 32.265625 18 32.265625 C 23.3125 32.265625 26.601562 29.679688 26.601562 29.679688 L 26.796875 31.417969 C 31.15625 29.382812 31.585938 25.40625 31.585938 25.40625 L 33.207031 27.308594 C 34.929688 23.109375 33.328125 19.679688 33.328125 19.679688 Z M 34.875 20.597656 "/>
    <path style=" stroke:none;fill-rule:nonzero;fill:rgb(24.313725%,26.27451%,27.843137%);fill-opacity:1;" d="M 13.691406 22.644531 C 13.691406 22.644531 4.183594 29.816406 4.367188 12.8125 C 4.367188 12.8125 2.078125 33.023438 13.691406 22.644531 Z M 22.308594 22.644531 C 22.308594 22.644531 31.816406 29.816406 31.632812 12.8125 C 31.632812 12.8125 33.917969 33.023438 22.308594 22.644531 Z M 22.308594 22.644531 "/>
    <path style=" stroke:none;fill-rule:nonzero;fill:rgb(96.078431%,96.078431%,96.078431%);fill-opacity:1;" d="M 21.15625 16.542969 C 22.839844 21.132812 22.300781 22.644531 22.300781 22.644531 L 18.101562 23.890625 L 13.683594 22.644531 C 13.683594 22.644531 13.140625 21.132812 14.828125 16.542969 C 7.414062 28.878906 14.386719 30.519531 14.386719 30.519531 C 14.386719 30.519531 14.070312 32.53125 16.1875 34.246094 L 16.199219 32.921875 C 16.199219 32.921875 16.667969 34.144531 17.992188 34.875 C 19.3125 34.144531 19.785156 32.921875 19.785156 32.921875 L 19.796875 34.246094 C 20.953125 33.554688 21.34375 32.164062 21.34375 32.164062 L 21.871094 33.167969 C 23.53125 30.757812 22.953125 29.066406 22.453125 28.269531 C 22.476562 28.296875 22.492188 28.316406 22.492188 28.316406 C 22.492188 28.316406 28.570312 28.878906 21.15625 16.542969 Z M 21.15625 16.542969 "/>
    <path style=" stroke:none;fill-rule:nonzero;fill:rgb(24.313725%,26.27451%,27.843137%);fill-opacity:1;" d="M 18.015625 28.207031 C 17.851562 27.726562 17.457031 25.148438 17.5 23.574219 L 18.484375 23.574219 C 18.445312 25.007812 18.816406 27.5 18.941406 27.863281 Z M 18.015625 28.207031 "/>
    <path style=" stroke:none;fill-rule:nonzero;fill:rgb(24.313725%,26.27451%,27.843137%);fill-opacity:1;" d="M 14.390625 30.519531 C 18.238281 26.6875 20.996094 25.507812 22.492188 28.316406 C 20.195312 26.542969 17.5625 29.804688 14.390625 30.519531 Z M 14.390625 30.519531 "/>
    <path style=" stroke:none;fill-rule:nonzero;fill:rgb(58.039216%,44.313725%,31.764706%);fill-opacity:1;" d="M 22.183594 22.386719 C 20.527344 21.644531 15.363281 21.6875 13.804688 22.386719 C 13.203125 22.652344 14.910156 24.367188 17.988281 24.367188 C 21.078125 24.367188 22.777344 22.652344 22.183594 22.386719 Z M 22.183594 22.386719 "/>
    <path style=" stroke:none;fill-rule:nonzero;fill:rgb(100%,90.980392%,73.333333%);fill-opacity:1;" d="M 15.371094 15.539062 C 14.109375 23.375 5.078125 21.433594 5.078125 14.546875 C 5.078125 10.894531 5.078125 10.894531 10.738281 9.640625 C 16.460938 8.371094 15.847656 12.570312 15.371094 15.539062 Z M 15.371094 15.539062 "/>
    <path style=" stroke:none;fill-rule:nonzero;fill:rgb(24.313725%,26.27451%,27.843137%);fill-opacity:1;" d="M 14.445312 15.933594 C 13.90625 21.476562 5.667969 20.597656 6.199219 15.054688 C 6.402344 12.894531 6.433594 12.710938 10.542969 13.148438 C 14.65625 13.585938 14.648438 13.773438 14.445312 15.933594 Z M 14.445312 15.933594 "/>
    <path style=" stroke:none;fill-rule:nonzero;fill:rgb(100%,100%,100%);fill-opacity:1;" d="M 13.234375 15.585938 C 12.832031 18.960938 7.03125 18.464844 7.433594 15.089844 C 7.578125 13.867188 7.601562 13.765625 10.492188 14.011719 C 13.382812 14.261719 13.378906 14.367188 13.234375 15.585938 Z M 13.234375 15.585938 "/>
    <path style=" stroke:none;fill-rule:nonzero;fill:rgb(24.313725%,26.27451%,27.843137%);fill-opacity:1;" d="M 12.769531 14.929688 C 12.769531 15.710938 12.164062 16.34375 11.421875 16.34375 C 10.675781 16.34375 10.074219 15.710938 10.074219 14.929688 C 10.074219 14.148438 10.675781 13.679688 11.417969 13.679688 C 12.164062 13.679688 12.769531 14.148438 12.769531 14.929688 Z M 12.769531 14.929688 "/>
    <path style=" stroke:none;fill-rule:nonzero;fill:rgb(100%,90.980392%,73.333333%);fill-opacity:1;" d="M 20.613281 15.539062 C 21.875 23.375 30.90625 21.433594 30.90625 14.546875 C 30.90625 10.894531 30.90625 10.894531 25.246094 9.636719 C 19.523438 8.371094 20.136719 12.570312 20.613281 15.539062 Z M 20.613281 15.539062 "/>
    <path style=" stroke:none;fill-rule:nonzero;fill:rgb(24.313725%,26.27451%,27.843137%);fill-opacity:1;" d="M 21.539062 15.933594 C 22.078125 21.476562 30.316406 20.597656 29.785156 15.054688 C 29.582031 12.894531 29.550781 12.710938 25.441406 13.148438 C 21.328125 13.585938 21.332031 13.773438 21.539062 15.933594 Z M 21.539062 15.933594 "/>
    <path style=" stroke:none;fill-rule:nonzero;fill:rgb(100%,100%,100%);fill-opacity:1;" d="M 22.75 15.585938 C 23.152344 18.960938 28.953125 18.464844 28.550781 15.089844 C 28.40625 13.867188 28.382812 13.765625 25.492188 14.011719 C 22.601562 14.261719 22.605469 14.367188 22.75 15.585938 Z M 22.75 15.585938 "/>
    <path style=" stroke:none;fill-rule:nonzero;fill:rgb(24.313725%,26.27451%,27.843137%);fill-opacity:1;" d="M 25.417969 14.929688 C 25.417969 15.710938 26.019531 16.34375 26.765625 16.34375 C 27.507812 16.34375 28.113281 15.710938 28.113281 14.929688 C 28.113281 14.148438 27.511719 13.679688 26.765625 13.679688 C 26.019531 13.679688 25.417969 14.148438 25.417969 14.929688 Z M 25.417969 14.929688 "/>
  </g>
</svg>