<?xml version="1.0" encoding="UTF-8" standalone="yes"?>
<svg xmlns="http://www.w3.org/2000/svg" xmlns:xlink="http://www.w3.org/1999/xlink" width="48px" height="48px" viewBox="0 0 36 36" version="1.1">
  <g id="surface1">
    <path style=" stroke:none;fill-rule:nonzero;fill:rgb(51.372549%,74.901961%,30.980392%);fill-opacity:1;" d="M 32.5 12.351562 C 29.742188 10.492188 26.304688 11.5625 23.460938 13.21875 C 25.871094 10.851562 27.933594 7.785156 26.878906 4.628906 C 24.925781 -1.207031 18.585938 1.410156 18 4.324219 C 17.191406 1.21875 11.007812 -1.097656 9.121094 4.632812 C 8.042969 7.910156 10.21875 10.988281 12.691406 13.339844 C 9.8125 11.621094 6.300781 10.464844 3.5 12.351562 C -1.410156 15.660156 2.328125 21.039062 5.449219 21.015625 C 2.855469 22.335938 1.996094 29.144531 7.972656 29.519531 C 12.597656 29.8125 15.484375 23.976562 16.933594 20.34375 L 18.859375 19.851562 C 20.242188 23.421875 23.1875 29.828125 28.027344 29.519531 C 34.003906 29.144531 33.140625 22.335938 30.550781 21.015625 C 33.671875 21.039062 37.410156 15.660156 32.5 12.351562 Z M 32.5 12.351562 "/>
    <path style=" stroke:none;fill-rule:nonzero;fill:rgb(41.176471%,58.823529%,20.784314%);fill-opacity:1;" d="M 17.484375 34.875 L 13.542969 34.875 C 13.542969 34.875 17.09375 26.09375 17.09375 16.828125 C 17.09375 16.363281 18.90625 16.363281 18.90625 16.828125 C 18.90625 26.488281 17.484375 34.875 17.484375 34.875 Z M 17.484375 34.875 "/>
    <path style=" stroke:none;fill-rule:nonzero;fill:rgb(51.372549%,74.901961%,30.980392%);fill-opacity:1;" d="M 28.027344 29.519531 C 34.003906 29.144531 33.140625 22.335938 30.550781 21.015625 L 17.992188 17.589844 C 18.507812 18.488281 21.597656 29.929688 28.027344 29.519531 Z M 28.027344 29.519531 "/>
    <path style=" stroke:none;fill-rule:nonzero;fill:rgb(48.235294%,69.803922%,27.45098%);fill-opacity:1;" d="M 32.5 12.351562 C 27.03125 8.667969 18.90625 16.476562 17.992188 17.589844 L 30.550781 21.015625 C 33.671875 21.039062 37.410156 15.660156 32.5 12.351562 Z M 32.5 12.351562 "/>
    <path style=" stroke:none;fill-rule:nonzero;fill:rgb(48.235294%,69.803922%,27.45098%);fill-opacity:1;" d="M 9.121094 4.632812 C 7.019531 11.015625 17.257812 16.652344 17.992188 17.589844 L 18 4.324219 C 17.191406 1.21875 11.007812 -1.097656 9.121094 4.632812 Z M 9.121094 4.632812 "/>
    <path style=" stroke:none;fill-rule:nonzero;fill:rgb(51.372549%,74.901961%,30.980392%);fill-opacity:1;" d="M 26.878906 4.628906 C 24.925781 -1.207031 18.585938 1.410156 18 4.324219 L 17.992188 17.589844 C 18.726562 16.84375 28.980469 10.90625 26.878906 4.628906 Z M 26.878906 4.628906 "/>
    <path style=" stroke:none;fill-rule:nonzero;fill:rgb(48.235294%,69.803922%,27.45098%);fill-opacity:1;" d="M 5.449219 21.015625 C 2.855469 22.335938 1.996094 29.144531 7.972656 29.519531 C 14.402344 29.929688 17.476562 18.488281 17.992188 17.589844 C 17.984375 17.585938 18 17.59375 17.992188 17.589844 Z M 5.449219 21.015625 "/>
    <path style=" stroke:none;fill-rule:nonzero;fill:rgb(51.372549%,74.901961%,30.980392%);fill-opacity:1;" d="M 3.5 12.351562 C -1.410156 15.660156 2.328125 21.039062 5.449219 21.015625 L 17.992188 17.589844 C 17.046875 16.476562 8.929688 8.695312 3.5 12.351562 Z M 3.5 12.351562 "/>
  </g>
</svg>