<?xml version="1.0" encoding="UTF-8" standalone="yes"?>
<svg xmlns="http://www.w3.org/2000/svg" xmlns:xlink="http://www.w3.org/1999/xlink" width="48px" height="48px" viewBox="0 0 36 36" version="1.1">
  <g id="surface1">
    <path style=" stroke:none;fill-rule:nonzero;fill:rgb(51.372549%,74.901961%,30.980392%);fill-opacity:1;" d="M 8.539062 17.652344 C 8.539062 18.585938 7.777344 19.347656 6.835938 19.347656 L 5.640625 19.347656 C 4.699219 19.347656 3.9375 18.585938 3.9375 17.652344 L 3.9375 10.15625 C 3.9375 6.851562 8.539062 6.851562 8.539062 10.15625 Z M 8.539062 17.652344 "/>
    <path style=" stroke:none;fill-rule:nonzero;fill:rgb(51.372549%,74.901961%,30.980392%);fill-opacity:1;" d="M 13.171875 14.777344 C 14.113281 14.777344 14.878906 15.535156 14.878906 16.46875 L 14.878906 17.652344 C 14.875 18.589844 14.109375 19.347656 13.171875 19.34375 L 5.640625 19.34375 C 4.703125 19.347656 3.941406 18.589844 3.9375 17.652344 L 3.9375 16.46875 C 3.9375 15.535156 4.699219 14.777344 5.640625 14.777344 Z M 13.171875 14.777344 "/>
    <path style=" stroke:none;fill-rule:nonzero;fill:rgb(41.176471%,58.823529%,20.784314%);fill-opacity:1;" d="M 15.136719 16.03125 L 15.136719 15.371094 L 8.9375 15.371094 C 8.796875 15.371094 7.953125 15.339844 7.953125 14.378906 L 7.953125 10.421875 C 7.953125 8.03125 6.238281 7.679688 6.238281 7.679688 C 6.238281 7.679688 7.296875 8.105469 7.296875 10.421875 L 7.296875 14.777344 C 7.296875 16.03125 8.308594 16.03125 8.539062 16.03125 Z M 15.136719 16.03125 "/>
    <path style=" stroke:none;fill-rule:nonzero;fill:rgb(41.176471%,58.823529%,20.784314%);fill-opacity:1;" d="M 7.550781 16.730469 C 7.410156 16.730469 6.566406 16.617188 6.566406 15.144531 L 6.566406 10.421875 C 6.566406 8.546875 6.238281 7.679688 6.238281 7.679688 C 6.238281 7.679688 5.910156 8.546875 5.910156 10.421875 L 5.910156 15.546875 C 5.910156 17.394531 6.921875 17.394531 7.152344 17.394531 L 15.183594 17.394531 L 15.183594 16.730469 Z M 7.550781 16.730469 "/>
    <path style=" stroke:none;fill-rule:nonzero;fill:rgb(41.176471%,58.823529%,20.784314%);fill-opacity:1;" d="M 5.179688 16.519531 L 5.179688 10.421875 C 5.179688 8.105469 6.238281 7.679688 6.238281 7.679688 C 6.238281 7.679688 4.523438 8.03125 4.523438 10.421875 L 4.523438 16.902344 C 4.523438 18.753906 6.125 18.753906 6.355469 18.753906 L 15.183594 18.753906 L 15.183594 18.089844 L 6.738281 18.089844 C 6.605469 18.089844 5.179688 17.925781 5.179688 16.519531 Z M 5.179688 16.519531 "/>
    <path style=" stroke:none;fill-rule:nonzero;fill:rgb(51.372549%,74.901961%,30.980392%);fill-opacity:1;" d="M 26.117188 26.539062 C 26.117188 27.75 27.105469 28.726562 28.320312 28.726562 L 29.859375 28.726562 C 31.078125 28.726562 32.0625 27.75 32.0625 26.539062 L 32.0625 16.855469 C 32.0625 12.589844 26.117188 12.589844 26.117188 16.855469 Z M 26.117188 26.539062 "/>
    <path style=" stroke:none;fill-rule:nonzero;fill:rgb(51.372549%,74.901961%,30.980392%);fill-opacity:1;" d="M 20.132812 22.828125 C 18.917969 22.828125 17.929688 23.804688 17.929688 25.011719 L 17.929688 26.539062 C 17.929688 27.75 18.914062 28.726562 20.132812 28.726562 L 29.859375 28.726562 C 31.078125 28.726562 32.0625 27.75 32.0625 26.539062 L 32.0625 25.011719 C 32.0625 23.804688 31.078125 22.828125 29.859375 22.828125 Z M 20.132812 22.828125 "/>
    <path style=" stroke:none;fill-rule:nonzero;fill:rgb(41.176471%,58.823529%,20.784314%);fill-opacity:1;" d="M 17.59375 24.445312 L 17.59375 23.59375 L 25.605469 23.59375 C 25.785156 23.59375 26.875 23.550781 26.875 22.308594 L 26.875 17.199219 C 26.875 14.109375 29.089844 13.65625 29.089844 13.65625 C 29.089844 13.65625 27.722656 14.207031 27.722656 17.199219 L 27.722656 22.828125 C 27.722656 24.445312 26.417969 24.445312 26.117188 24.445312 Z M 17.59375 24.445312 "/>
    <path style=" stroke:none;fill-rule:nonzero;fill:rgb(41.176471%,58.823529%,20.784314%);fill-opacity:1;" d="M 27.394531 25.347656 C 27.574219 25.347656 28.664062 25.203125 28.664062 23.300781 L 28.664062 17.199219 C 28.664062 14.773438 29.089844 13.65625 29.089844 13.65625 C 29.089844 13.65625 29.511719 14.777344 29.511719 17.199219 L 29.511719 23.816406 C 29.511719 26.203125 28.207031 26.203125 27.90625 26.203125 L 17.535156 26.203125 L 17.535156 25.347656 Z M 27.394531 25.347656 "/>
    <path style=" stroke:none;fill-rule:nonzero;fill:rgb(41.176471%,58.823529%,20.784314%);fill-opacity:1;" d="M 30.457031 25.074219 L 30.457031 17.199219 C 30.457031 14.207031 29.089844 13.65625 29.089844 13.65625 C 29.089844 13.65625 31.300781 14.109375 31.300781 17.199219 L 31.300781 25.574219 C 31.300781 27.960938 29.234375 27.960938 28.9375 27.960938 L 17.535156 27.960938 L 17.535156 27.105469 L 28.441406 27.105469 C 28.617188 27.105469 30.457031 26.890625 30.457031 25.074219 Z M 30.457031 25.074219 "/>
    <path style=" stroke:none;fill-rule:nonzero;fill:rgb(51.372549%,74.901961%,30.980392%);fill-opacity:1;" d="M 22.222656 36 L 12.820312 36 L 12.820312 5.625 C 12.820312 -1.125 22.222656 -1.125 22.222656 5.625 Z M 22.222656 36 "/>
    <path style=" stroke:none;fill-rule:nonzero;fill:rgb(41.176471%,58.823529%,20.784314%);fill-opacity:1;" d="M 21.023438 36 L 21.023438 6.171875 C 21.023438 1.28125 17.523438 0.5625 17.523438 0.5625 C 17.523438 0.5625 19.683594 1.4375 19.683594 6.171875 L 19.683594 36 Z M 21.023438 36 "/>
    <path style=" stroke:none;fill-rule:nonzero;fill:rgb(41.176471%,58.823529%,20.784314%);fill-opacity:1;" d="M 18.191406 36 L 18.191406 6.171875 C 18.191406 2.335938 17.523438 0.5625 17.523438 0.5625 C 17.523438 0.5625 16.851562 2.335938 16.851562 6.171875 L 16.851562 36 Z M 18.191406 36 "/>
    <path style=" stroke:none;fill-rule:nonzero;fill:rgb(41.176471%,58.823529%,20.784314%);fill-opacity:1;" d="M 15.359375 36 L 15.359375 6.171875 C 15.359375 1.433594 17.523438 0.5625 17.523438 0.5625 C 17.523438 0.5625 14.019531 1.28125 14.019531 6.171875 L 14.019531 36 Z M 15.359375 36 "/>
  </g>
</svg>