<?xml version="1.0" encoding="UTF-8" standalone="yes"?>
<svg xmlns="http://www.w3.org/2000/svg" xmlns:xlink="http://www.w3.org/1999/xlink" width="48px" height="48px" viewBox="0 0 36 36" version="1.1">
  <g id="surface1">
    <path style=" stroke:none;fill-rule:nonzero;fill:rgb(82.745098%,59.215686%,43.137255%);fill-opacity:1;" d="M 20.5 34.875 L 15.5 34.875 L 16.578125 23.183594 L 19.421875 23.183594 Z M 20.5 34.875 "/>
    <path style=" stroke:none;fill-rule:nonzero;fill:rgb(41.176471%,58.823529%,20.784314%);fill-opacity:1;" d="M 34.875 27.402344 C 24.148438 27.402344 18 9.542969 18 9.542969 C 18 9.542969 11.851562 27.402344 1.125 27.402344 C 1.125 27.402344 6.328125 31.03125 11.664062 26.472656 C 11.664062 26.472656 10.324219 29.636719 8.511719 33.265625 C 8.511719 33.265625 12.628906 33.75 15.441406 26.976562 C 15.984375 28.921875 16.796875 31.148438 18 33.273438 C 19.203125 31.148438 20.015625 28.921875 20.558594 26.976562 C 23.371094 33.75 27.488281 33.265625 27.488281 33.265625 C 25.675781 29.636719 24.335938 26.472656 24.335938 26.472656 C 29.671875 31.03125 34.875 27.402344 34.875 27.402344 Z M 34.875 27.402344 "/>
    <path style=" stroke:none;fill-rule:nonzero;fill:rgb(45.882353%,65.882353%,26.27451%);fill-opacity:1;" d="M 29.25 18.789062 C 22.101562 18.789062 18 6.882812 18 6.882812 C 18 6.882812 13.898438 18.789062 6.75 18.789062 C 6.75 18.789062 10.21875 21.207031 13.777344 18.167969 C 13.777344 18.167969 12.882812 20.277344 11.675781 22.695312 C 11.675781 22.695312 14.417969 23.019531 16.292969 18.503906 C 16.65625 19.800781 17.199219 21.285156 18 22.699219 C 18.800781 21.285156 19.34375 19.800781 19.707031 18.503906 C 21.578125 23.019531 24.324219 22.695312 24.324219 22.695312 C 23.117188 20.277344 22.222656 18.167969 22.222656 18.167969 C 25.78125 21.207031 29.25 18.789062 29.25 18.789062 Z M 29.25 18.789062 "/>
    <path style=" stroke:none;fill-rule:nonzero;fill:rgb(51.372549%,74.901961%,30.980392%);fill-opacity:1;" d="M 25.5 13.074219 C 20.734375 13.074219 18 5.132812 18 5.132812 C 18 5.132812 15.265625 13.074219 10.5 13.074219 C 10.5 13.074219 12.8125 14.6875 15.183594 12.660156 C 15.183594 12.660156 14.589844 14.066406 13.78125 15.679688 C 13.78125 15.679688 15.613281 15.894531 16.863281 12.882812 C 17.105469 13.746094 17.464844 14.738281 18 15.683594 C 18.535156 14.738281 18.894531 13.746094 19.136719 12.882812 C 20.386719 15.894531 22.21875 15.679688 22.21875 15.679688 C 21.722656 14.683594 21.253906 13.679688 20.816406 12.660156 C 23.1875 14.6875 25.5 13.074219 25.5 13.074219 Z M 25.5 13.074219 "/>
    <path style=" stroke:none;fill-rule:nonzero;fill:rgb(100%,80.784314%,19.215686%);fill-opacity:1;" d="M 18 1.125 L 19.105469 3.363281 L 21.574219 3.722656 L 19.789062 5.464844 L 20.210938 7.925781 L 18 6.765625 L 15.789062 7.925781 L 16.210938 5.464844 L 14.425781 3.722656 L 16.894531 3.363281 Z M 18 1.125 "/>
    <path style=" stroke:none;fill-rule:nonzero;fill:rgb(92.941176%,29.803922%,36.078431%);fill-opacity:1;" d="M 19.847656 12.015625 C 19.847656 13.035156 19.019531 13.859375 18 13.859375 C 16.980469 13.859375 16.152344 13.035156 16.152344 12.015625 C 16.152344 10.992188 16.980469 10.167969 18 10.167969 C 19.019531 10.167969 19.847656 10.992188 19.847656 12.015625 Z M 19.847656 12.015625 "/>
    <path style=" stroke:none;fill-rule:nonzero;fill:rgb(94.901961%,69.803922%,0%);fill-opacity:1;" d="M 19.847656 22.820312 C 19.847656 23.839844 19.019531 24.667969 18 24.667969 C 16.980469 24.667969 16.152344 23.839844 16.152344 22.820312 C 16.152344 21.800781 16.980469 20.972656 18 20.972656 C 19.019531 20.972656 19.847656 21.800781 19.847656 22.820312 Z M 19.847656 22.820312 "/>
    <path style=" stroke:none;fill-rule:nonzero;fill:rgb(58.039216%,31.372549%,87.843137%);fill-opacity:1;" d="M 23.613281 17.371094 C 23.613281 18.390625 22.785156 19.21875 21.765625 19.21875 C 20.746094 19.21875 19.917969 18.390625 19.917969 17.371094 C 19.917969 16.351562 20.746094 15.523438 21.765625 15.523438 C 22.785156 15.523438 23.613281 16.351562 23.613281 17.371094 Z M 23.613281 17.371094 "/>
    <path style=" stroke:none;fill-rule:nonzero;fill:rgb(41.568627%,80.784314%,84.705882%);fill-opacity:1;" d="M 16.410156 17.371094 C 16.410156 18.390625 15.582031 19.21875 14.5625 19.21875 C 13.542969 19.21875 12.714844 18.390625 12.714844 17.371094 C 12.714844 16.351562 13.542969 15.523438 14.5625 15.523438 C 15.582031 15.523438 16.410156 16.351562 16.410156 17.371094 Z M 16.410156 17.371094 "/>
    <path style=" stroke:none;fill-rule:nonzero;fill:rgb(51.372549%,74.901961%,30.980392%);fill-opacity:1;" d="M 13.210938 26.464844 C 13.210938 27.484375 12.382812 28.3125 11.363281 28.3125 C 10.34375 28.3125 9.515625 27.484375 9.515625 26.464844 C 9.515625 25.445312 10.34375 24.617188 11.363281 24.617188 C 12.382812 24.617188 13.210938 25.445312 13.210938 26.464844 Z M 13.210938 26.464844 "/>
    <path style=" stroke:none;fill-rule:nonzero;fill:rgb(100%,44.313725%,49.803922%);fill-opacity:1;" d="M 25.011719 26.558594 C 25.011719 27.578125 24.183594 28.402344 23.164062 28.402344 C 22.144531 28.402344 21.316406 27.578125 21.316406 26.558594 C 21.316406 25.539062 22.144531 24.710938 23.164062 24.710938 C 24.183594 24.710938 25.011719 25.539062 25.011719 26.558594 Z M 25.011719 26.558594 "/>
  </g>
</svg>