<?xml version="1.0" encoding="UTF-8" standalone="yes"?>
<svg xmlns="http://www.w3.org/2000/svg" xmlns:xlink="http://www.w3.org/1999/xlink" width="48px" height="48px" viewBox="0 0 36 36" version="1.1">
  <g id="surface1">
    <path style=" stroke:none;fill-rule:nonzero;fill:rgb(51.372549%,74.901961%,30.980392%);fill-opacity:1;" d="M 24.285156 15.085938 C 23.796875 18.453125 27.621094 24.386719 27.621094 24.386719 L 28.484375 23.957031 C 26.042969 16.332031 27.316406 7.671875 27.316406 7.671875 C 27.316406 7.671875 24.832031 11.320312 24.285156 15.085938 Z M 24.285156 15.085938 "/>
    <path style=" stroke:none;fill-rule:nonzero;fill:rgb(45.882353%,65.882353%,26.27451%);fill-opacity:1;" d="M 16.289062 1.875 L 28.535156 24.046875 L 26.003906 25.265625 Z M 16.289062 1.875 "/>
    <path style=" stroke:none;fill-rule:nonzero;fill:rgb(80%,56.862745%,19.607843%);fill-opacity:1;" d="M 22.371094 6.628906 C 23.78125 9.476562 23.046875 11.367188 21.398438 12.191406 C 19.753906 13.015625 17.8125 12.464844 16.398438 9.617188 C 14.988281 6.769531 16.289062 1.875 16.289062 1.875 C 16.289062 1.875 20.957031 3.777344 22.371094 6.628906 Z M 22.371094 6.628906 "/>
    <path style=" stroke:none;fill-rule:nonzero;fill:rgb(95.686275%,73.72549%,34.509804%);fill-opacity:1;" d="M 19.585938 6.355469 C 24.582031 6.851562 23.707031 11.582031 21.539062 12.667969 C 19.371094 13.753906 16.503906 12.394531 15.136719 9.632812 C 13.769531 6.867188 14.792969 3.558594 14.792969 3.558594 C 14.792969 3.558594 15.90625 5.992188 19.585938 6.355469 Z M 19.585938 6.355469 "/>
    <path style=" stroke:none;fill-rule:nonzero;fill:rgb(100%,85.098039%,23.137255%);fill-opacity:1;" d="M 17.863281 7.21875 C 15.246094 11.527344 19.527344 13.675781 21.695312 12.589844 C 23.863281 11.503906 24.511719 8.382812 23.140625 5.621094 C 21.773438 2.859375 18.53125 1.6875 18.53125 1.6875 C 18.53125 1.6875 19.789062 4.046875 17.863281 7.21875 Z M 17.863281 7.21875 "/>
    <path style=" stroke:none;fill-rule:nonzero;fill:rgb(51.372549%,74.901961%,30.980392%);fill-opacity:1;" d="M 16.71875 21.867188 C 19.296875 24.066406 26.328125 23.953125 26.328125 23.953125 L 26.421875 22.988281 C 18.699219 21.03125 12.070312 15.355469 12.070312 15.355469 C 12.070312 15.355469 13.832031 19.40625 16.71875 21.867188 Z M 16.71875 21.867188 "/>
    <path style=" stroke:none;fill-rule:nonzero;fill:rgb(45.882353%,65.882353%,26.27451%);fill-opacity:1;" d="M 1.125 19.894531 L 26.238281 20.925781 L 25.964844 23.726562 Z M 1.125 19.894531 "/>
    <path style=" stroke:none;fill-rule:nonzero;fill:rgb(52.941176%,7.058824%,7.058824%);fill-opacity:1;" d="M 8.355469 17.230469 C 11.507812 17.535156 12.710938 19.160156 12.535156 21.003906 C 12.359375 22.847656 10.867188 24.210938 7.714844 23.90625 C 4.5625 23.597656 1.125 19.894531 1.125 19.894531 C 1.125 19.894531 5.207031 16.921875 8.355469 17.230469 Z M 8.355469 17.230469 "/>
    <path style=" stroke:none;fill-rule:nonzero;fill:rgb(80%,21.176471%,21.176471%);fill-opacity:1;" d="M 6.652344 19.460938 C 9.71875 15.464844 13.242188 18.714844 13.011719 21.140625 C 12.777344 23.5625 10.113281 25.285156 7.054688 24.988281 C 4 24.691406 1.753906 22.066406 1.753906 22.066406 C 1.753906 22.066406 4.398438 22.402344 6.652344 19.460938 Z M 6.652344 19.460938 "/>
    <path style=" stroke:none;fill-rule:nonzero;fill:rgb(88.627451%,29.411765%,29.411765%);fill-opacity:1;" d="M 6.46875 21.386719 C 8.714844 25.898438 12.792969 23.390625 13.027344 20.964844 C 13.261719 18.542969 10.972656 16.335938 7.917969 16.039062 C 4.863281 15.742188 2.15625 17.886719 2.15625 17.886719 C 2.15625 17.886719 4.8125 18.0625 6.46875 21.386719 Z M 6.46875 21.386719 "/>
    <path style=" stroke:none;fill-rule:nonzero;fill:rgb(51.372549%,74.901961%,30.980392%);fill-opacity:1;" d="M 16.273438 22.515625 C 19.222656 20.855469 26.101562 22.324219 26.101562 22.324219 L 26.011719 23.289062 C 18.054688 23.722656 10.46875 28.011719 10.46875 28.011719 C 10.46875 28.011719 12.96875 24.375 16.273438 22.515625 Z M 16.273438 22.515625 "/>
    <path style=" stroke:none;fill-rule:nonzero;fill:rgb(51.372549%,74.901961%,30.980392%);fill-opacity:1;" d="M 19.019531 16.253906 C 20.039062 19.5 26.050781 23.164062 26.050781 23.164062 L 26.640625 22.398438 C 21.144531 16.605469 18.535156 8.253906 18.535156 8.253906 C 18.535156 8.253906 17.878906 12.628906 19.019531 16.253906 Z M 19.019531 16.253906 "/>
    <path style=" stroke:none;fill-rule:nonzero;fill:rgb(45.882353%,65.882353%,26.27451%);fill-opacity:1;" d="M 6.910156 9.226562 L 27.628906 23.546875 L 25.902344 25.765625 Z M 6.910156 9.226562 "/>
    <path style=" stroke:none;fill-rule:nonzero;fill:rgb(66.666667%,12.156863%,39.607843%);fill-opacity:1;" d="M 14.445312 10.84375 C 16.949219 12.789062 17.109375 14.808594 15.980469 16.273438 C 14.855469 17.738281 12.871094 18.09375 10.367188 16.148438 C 7.859375 14.203125 6.910156 9.226562 6.910156 9.226562 C 6.910156 9.226562 11.941406 8.894531 14.445312 10.84375 Z M 14.445312 10.84375 "/>
    <path style=" stroke:none;fill-rule:nonzero;fill:rgb(82.745098%,21.568627%,46.666667%);fill-opacity:1;" d="M 11.820312 11.816406 C 16.53125 10.074219 17.792969 14.71875 16.3125 16.644531 C 14.832031 18.570312 11.664062 18.601562 9.234375 16.714844 C 6.804688 14.828125 6.292969 11.398438 6.292969 11.398438 C 6.292969 11.398438 8.351562 13.101562 11.820312 11.816406 Z M 11.820312 11.816406 "/>
    <path style=" stroke:none;fill-rule:nonzero;fill:rgb(90.980392%,30.196078%,53.333333%);fill-opacity:1;" d="M 10.644531 13.351562 C 10.152344 18.375 14.9375 18.429688 16.417969 16.503906 C 17.902344 14.578125 17.132812 11.484375 14.703125 9.597656 C 12.277344 7.710938 8.847656 8.078125 8.847656 8.078125 C 8.847656 8.078125 11.003906 9.652344 10.644531 13.351562 Z M 10.644531 13.351562 "/>
    <path style=" stroke:none;fill-rule:nonzero;fill:rgb(51.372549%,74.901961%,30.980392%);fill-opacity:1;" d="M 32.867188 32.71875 L 31.777344 33.8125 L 30.386719 32.417969 L 31.476562 31.320312 Z M 32.867188 32.71875 "/>
    <path style=" stroke:none;fill-rule:nonzero;fill:rgb(45.882353%,65.882353%,26.27451%);fill-opacity:1;" d="M 33.625 31.957031 L 32.53125 33.054688 L 31.140625 31.65625 L 32.234375 30.558594 Z M 33.625 31.957031 "/>
    <path style=" stroke:none;fill-rule:nonzero;fill:rgb(51.372549%,74.901961%,30.980392%);fill-opacity:1;" d="M 34.378906 31.195312 L 33.289062 32.292969 L 31.898438 30.894531 L 32.988281 29.796875 Z M 34.378906 31.195312 "/>
    <path style=" stroke:none;fill-rule:nonzero;fill:rgb(25.882353%,67.843137%,88.627451%);fill-opacity:1;" d="M 12.839844 26.882812 C 12.839844 26.882812 22.480469 25.246094 27.074219 29.867188 C 28.058594 30.859375 28.679688 34.3125 28.679688 34.3125 L 34.875 28.082031 C 34.875 28.082031 31.441406 27.460938 30.453125 26.46875 C 25.859375 21.847656 27.484375 12.15625 27.484375 12.15625 Z M 12.839844 26.882812 "/>
    <path style=" stroke:none;fill-rule:nonzero;fill:rgb(100%,31.372549%,43.137255%);fill-opacity:1;" d="M 32.628906 26.390625 L 26.996094 32.054688 L 24.898438 29.945312 L 30.53125 24.28125 Z M 32.628906 26.390625 "/>
  </g>
</svg>