<?xml version="1.0" encoding="UTF-8" standalone="yes"?>
<svg xmlns="http://www.w3.org/2000/svg" xmlns:xlink="http://www.w3.org/1999/xlink" width="48px" height="48px" viewBox="0 0 36 36" version="1.1">
  <g id="surface1">
    <path style=" stroke:none;fill-rule:nonzero;fill:rgb(82.745098%,59.215686%,43.137255%);fill-opacity:1;" d="M 32.453125 30.753906 L 1.125 34.875 L 1.125 29.019531 L 32.46875 24.792969 Z M 32.488281 18.664062 L 1.125 23.007812 L 1.125 16.835938 L 32.503906 12.371094 Z M 32.488281 18.664062 "/>
    <path style=" stroke:none;fill-rule:nonzero;fill:rgb(100%,100%,100%);fill-opacity:1;" d="M 32.46875 24.792969 L 1.125 29.019531 L 1.125 23.007812 L 32.488281 18.664062 Z M 32.46875 24.792969 "/>
    <path style=" stroke:none;fill-rule:nonzero;fill:rgb(93.72549%,30.196078%,23.529412%);fill-opacity:1;" d="M 11.707031 22.339844 C 11.8125 24.8125 9.714844 27.089844 7.023438 27.457031 C 4.339844 27.820312 2.039062 26.148438 1.878906 23.691406 Z M 11.707031 22.339844 "/>
    <path style=" stroke:none;fill-rule:nonzero;fill:rgb(100%,44.313725%,49.803922%);fill-opacity:1;" d="M 10.445312 22.515625 C 10.527344 24.347656 8.96875 26.050781 6.964844 26.324219 C 4.960938 26.597656 3.25 25.347656 3.136719 23.519531 Z M 10.445312 22.515625 "/>
    <path style=" stroke:none;fill-rule:nonzero;fill:rgb(93.72549%,30.196078%,23.529412%);fill-opacity:1;" d="M 31.589844 19.605469 C 31.585938 22.105469 29.375 24.410156 26.652344 24.78125 C 23.9375 25.152344 21.695312 23.460938 21.644531 20.972656 Z M 31.589844 19.605469 "/>
    <path style=" stroke:none;fill-rule:nonzero;fill:rgb(100%,44.313725%,49.803922%);fill-opacity:1;" d="M 30.308594 19.785156 C 30.3125 21.640625 28.671875 23.363281 26.640625 23.636719 C 24.617188 23.914062 22.949219 22.648438 22.917969 20.800781 Z M 30.308594 19.785156 "/>
    <path style=" stroke:none;fill-rule:nonzero;fill:rgb(93.72549%,30.196078%,23.529412%);fill-opacity:1;" d="M 11.921875 26.789062 C 11.816406 24.339844 13.9375 22.035156 16.667969 21.660156 C 19.402344 21.285156 21.660156 22.992188 21.714844 25.457031 Z M 11.921875 26.789062 "/>
    <path style=" stroke:none;fill-rule:nonzero;fill:rgb(100%,44.313725%,49.803922%);fill-opacity:1;" d="M 13.175781 26.617188 C 13.101562 24.800781 14.683594 23.089844 16.707031 22.8125 C 18.730469 22.535156 20.410156 23.800781 20.453125 25.628906 Z M 13.175781 26.617188 "/>
    <path style=" stroke:none;fill-rule:nonzero;fill:rgb(78.823529%,52.54902%,34.901961%);fill-opacity:1;" d="M 1.679688 19.539062 L 3.226562 20.679688 L 4.609375 19.132812 L 3.0625 17.980469 Z M 11.679688 19.25 L 13.203125 20.394531 L 14.621094 18.84375 L 13.097656 17.691406 Z M 26.695312 17.722656 L 28.183594 18.875 L 29.660156 17.3125 L 28.167969 16.15625 Z M 14.410156 17.222656 L 15.625 18.140625 L 16.769531 16.890625 L 15.550781 15.96875 Z M 25.640625 15.671875 L 24.46875 16.929688 L 25.667969 17.851562 L 26.835938 16.601562 Z M 10.5 15.835938 L 9.371094 17.089844 L 10.597656 18.011719 L 11.730469 16.761719 Z M 4.792969 20.464844 L 6.140625 21.460938 L 7.359375 20.109375 L 6.011719 19.105469 Z M 8.066406 17.609375 L 7.277344 18.484375 L 8.144531 19.132812 L 8.933594 18.257812 Z M 17.304688 18.199219 L 18.15625 18.84375 L 18.964844 17.96875 L 18.113281 17.316406 Z M 19.765625 16.199219 L 20.617188 16.851562 L 21.433594 15.96875 L 20.582031 15.3125 Z M 22.324219 18.054688 L 23.167969 18.699219 L 23.988281 17.820312 L 23.140625 17.171875 Z M 27.921875 14.289062 L 27.074219 13.628906 L 26.242188 14.523438 L 27.089844 15.179688 Z M 19.160156 19.253906 L 20.007812 19.898438 L 20.816406 19.023438 L 19.972656 18.378906 Z M 9.046875 20.648438 L 9.90625 21.289062 L 10.695312 20.421875 L 9.835938 19.78125 Z M 5.914062 17.308594 L 5.042969 16.65625 L 4.257812 17.539062 L 5.128906 18.1875 Z M 30.6875 13.625 L 29.847656 14.519531 L 30.6875 15.175781 L 31.527344 14.285156 Z M 30.6875 13.625 "/>
    <path style=" stroke:none;fill-rule:nonzero;fill:rgb(78.823529%,52.54902%,34.901961%);fill-opacity:1;" d="M 31.515625 28.183594 L 30.0625 27.078125 L 28.617188 28.574219 L 30.070312 29.671875 Z M 21.699219 28.460938 L 20.222656 27.355469 L 18.8125 28.851562 L 20.285156 29.945312 Z M 7.050781 29.917969 L 5.542969 28.820312 L 4.183594 30.304688 L 5.6875 31.394531 Z M 19.003906 30.394531 L 17.828125 29.519531 L 16.710938 30.703125 L 17.886719 31.570312 Z M 8.148438 31.84375 L 9.242188 30.667969 L 8.042969 29.796875 L 6.957031 30.976562 Z M 22.765625 31.691406 L 23.894531 30.515625 L 22.726562 29.644531 L 21.597656 30.824219 Z M 28.511719 27.289062 L 27.226562 26.316406 L 25.964844 27.632812 L 27.246094 28.601562 Z M 25.179688 30.027344 L 25.980469 29.191406 L 25.160156 28.574219 L 24.359375 29.410156 Z M 16.1875 29.46875 L 15.351562 28.851562 L 14.570312 29.683594 L 15.40625 30.300781 Z M 13.8125 31.351562 L 12.980469 30.742188 L 12.203125 31.570312 L 13.039062 32.179688 Z M 11.296875 29.605469 L 10.457031 28.988281 L 9.679688 29.824219 L 10.523438 30.4375 Z M 6.011719 33.125 L 6.851562 33.730469 L 7.613281 32.90625 L 6.773438 32.300781 Z M 14.367188 28.457031 L 13.527344 27.835938 L 12.746094 28.675781 L 13.585938 29.296875 Z M 24.324219 27.109375 L 23.496094 26.484375 L 22.691406 27.328125 L 23.519531 27.949219 Z M 27.261719 30.308594 L 28.078125 30.921875 L 28.882812 30.09375 L 28.066406 29.476562 Z M 3.398438 33.734375 L 4.152344 32.914062 L 3.308594 32.304688 L 2.554688 33.128906 Z M 3.398438 33.734375 "/>
    <path style=" stroke:none;fill-rule:nonzero;fill:rgb(56.078431%,39.215686%,32.54902%);fill-opacity:1;" d="M 34.875 12.136719 C 34.875 9.734375 24.839844 7.21875 22.648438 7.511719 C 13.261719 8.757812 1.125 16.835938 1.125 16.835938 C 11.054688 15.542969 20.988281 14.261719 30.921875 12.988281 C 31.773438 12.878906 32.289062 13.027344 32.289062 13.730469 C 32.289062 16.152344 32.277344 30.777344 32.277344 30.777344 L 34.875 30.46875 Z M 34.875 12.136719 "/>
    <path style=" stroke:none;fill-rule:nonzero;fill:rgb(44.705882%,30.588235%,25.490196%);fill-opacity:1;" d="M 31.464844 11.785156 C 36.265625 11.117188 22.773438 7.453125 20.6875 7.726562 C 11.742188 8.886719 2.707031 15.835938 2.707031 15.835938 C 2.707031 15.835938 30.304688 11.945312 31.464844 11.785156 Z M 31.464844 11.785156 "/>
    <path style=" stroke:none;fill-rule:evenodd;fill:rgb(54.901961%,77.647059%,24.313725%);fill-opacity:1;" d="M 23.785156 5.628906 L 24.867188 4.117188 L 22.390625 3.855469 L 22.105469 1.5625 L 20.472656 2.566406 L 18.515625 1.125 L 17.96875 7.308594 L 25.339844 7.441406 Z M 23.785156 5.628906 "/>
    <path style=" stroke:none;fill-rule:evenodd;fill:rgb(93.72549%,30.196078%,23.529412%);fill-opacity:1;" d="M 22.375 10.40625 C 20.046875 12.5625 14.976562 12.808594 13.875 11.792969 C 12.765625 10.761719 13.046875 6.09375 15.382812 3.929688 C 17.105469 2.335938 19.699219 3.082031 21.492188 4.738281 C 23.28125 6.394531 24.09375 8.8125 22.375 10.40625 Z M 22.375 10.40625 "/>
    <path style=" stroke:none;fill-rule:evenodd;fill:rgb(100%,100%,76.862745%);fill-opacity:1;" d="M 16.449219 9.246094 L 16.050781 9.617188 L 16.449219 9.992188 L 16.851562 9.617188 Z M 22.199219 6.964844 L 21.800781 7.335938 L 22.199219 7.707031 L 22.601562 7.335938 Z M 20.285156 7.335938 L 19.886719 7.707031 L 20.285156 8.082031 L 20.6875 7.707031 Z M 18.441406 6.964844 L 18.039062 7.335938 L 18.441406 7.707031 L 18.839844 7.335938 Z M 20.558594 5.449219 L 20.160156 5.824219 L 20.558594 6.195312 L 20.960938 5.824219 Z M 19.390625 3.855469 L 18.988281 4.226562 L 19.390625 4.597656 L 19.789062 4.226562 Z M 18.039062 5.230469 L 17.640625 5.601562 L 18.039062 5.976562 L 18.441406 5.601562 Z M 16.378906 6.847656 L 15.980469 7.21875 L 16.378906 7.59375 L 16.78125 7.21875 Z M 18.539062 9.015625 L 18.140625 9.386719 L 18.539062 9.757812 L 18.941406 9.386719 Z M 21.492188 9.074219 L 21.09375 9.445312 L 21.492188 9.816406 L 21.894531 9.445312 Z M 19.886719 10.570312 L 19.488281 10.941406 L 19.886719 11.316406 L 20.285156 10.941406 Z M 17.25 10.941406 L 16.851562 11.316406 L 17.25 11.6875 L 17.652344 11.316406 Z M 14.757812 10.199219 L 14.355469 10.570312 L 14.757812 10.941406 L 15.15625 10.570312 Z M 14.484375 8.269531 L 14.082031 8.640625 L 14.484375 9.015625 L 14.882812 8.640625 Z M 15.714844 4.597656 L 15.3125 4.96875 L 15.714844 5.34375 L 16.113281 4.96875 Z M 14.757812 6.304688 L 14.355469 6.675781 L 14.757812 7.046875 L 15.15625 6.675781 Z M 17.367188 3.378906 L 16.964844 3.75 L 17.367188 4.121094 L 17.765625 3.75 Z M 17.367188 3.378906 "/>
  </g>
</svg>