<?xml version="1.0" encoding="UTF-8" standalone="yes"?>
<svg xmlns="http://www.w3.org/2000/svg" xmlns:xlink="http://www.w3.org/1999/xlink" width="48px" height="48px" viewBox="0 0 36 36" version="1.1">
  <g id="surface1">
    <path style=" stroke:none;fill-rule:nonzero;fill:rgb(81.568627%,81.568627%,81.568627%);fill-opacity:1;" d="M 34.875 27.777344 C 34.875 23.859375 27.320312 20.679688 18 20.679688 C 8.679688 20.679688 1.125 23.859375 1.125 27.777344 C 1.125 31.699219 8.679688 34.875 18 34.875 C 27.320312 34.875 34.875 31.699219 34.875 27.777344 Z M 34.875 27.777344 "/>
    <path style=" stroke:none;fill-rule:nonzero;fill:rgb(82.745098%,59.215686%,43.137255%);fill-opacity:1;" d="M 4.332031 13.972656 L 4.332031 26.628906 C 4.332031 29.800781 10.449219 32.375 18 32.375 C 25.546875 32.375 31.667969 29.800781 31.667969 26.628906 L 31.667969 13.972656 Z M 4.332031 13.972656 "/>
    <path style=" stroke:none;fill-rule:nonzero;fill:rgb(80.784314%,66.27451%,96.862745%);fill-opacity:1;" d="M 4.332031 16.683594 C 4.332031 16.6875 4.332031 16.695312 4.332031 16.699219 L 4.339844 16.683594 Z M 31.667969 16.683594 L 31.667969 16.699219 Z M 31.667969 16.683594 "/>
    <path style=" stroke:none;fill-rule:nonzero;fill:rgb(100%,86.666667%,49.019608%);fill-opacity:1;" d="M 31.667969 17.671875 C 31.605469 19.925781 23.011719 22.421875 18 22.421875 C 12.988281 22.421875 4.394531 19.925781 4.332031 17.671875 L 4.332031 21.117188 C 11.367188 26.152344 24.632812 26.152344 31.667969 21.117188 Z M 31.667969 17.671875 "/>
    <path style=" stroke:none;fill-rule:nonzero;fill:rgb(100%,86.666667%,49.019608%);fill-opacity:1;" d="M 31.667969 23.042969 C 31.605469 25.296875 23.011719 27.792969 18 27.792969 C 12.988281 27.792969 4.394531 25.296875 4.332031 23.042969 L 4.332031 26.488281 C 11.359375 31.523438 24.640625 31.523438 31.667969 26.488281 Z M 31.667969 23.042969 "/>
    <path style=" stroke:none;fill-rule:nonzero;fill:rgb(65.882353%,0%,21.960784%);fill-opacity:1;" d="M 4.332031 13.972656 L 4.332031 23.46875 C 4.332031 23.980469 4.804688 24.398438 5.390625 24.398438 C 5.976562 24.398438 6.449219 23.980469 6.449219 23.46875 L 6.449219 21.296875 C 6.449219 20.617188 7.082031 20.0625 7.859375 20.0625 C 8.636719 20.0625 9.265625 20.617188 9.265625 21.296875 L 9.265625 23.972656 C 9.265625 24.769531 9.996094 25.414062 10.902344 25.414062 C 11.804688 25.414062 12.535156 24.769531 12.535156 23.972656 L 12.535156 21.238281 C 12.535156 20.523438 13.195312 19.945312 14.007812 19.945312 C 14.824219 19.945312 15.484375 20.523438 15.484375 21.238281 L 15.484375 22.984375 C 15.484375 23.378906 15.847656 23.703125 16.300781 23.703125 C 16.753906 23.703125 17.117188 23.378906 17.117188 22.984375 L 17.117188 21.601562 C 17.117188 21.082031 17.59375 20.664062 18.183594 20.664062 C 18.769531 20.664062 19.246094 21.082031 19.246094 21.601562 L 19.246094 23.972656 C 19.246094 24.769531 19.980469 25.414062 20.882812 25.414062 C 21.785156 25.414062 22.519531 24.769531 22.519531 23.972656 L 22.519531 21.3125 C 22.519531 20.636719 23.140625 20.089844 23.910156 20.089844 C 24.679688 20.089844 25.300781 20.636719 25.300781 21.3125 L 25.300781 23.253906 C 25.300781 23.652344 25.667969 23.972656 26.121094 23.972656 C 26.570312 23.972656 26.9375 23.652344 26.9375 23.253906 L 26.9375 21.894531 C 26.9375 21.542969 27.265625 21.253906 27.664062 21.253906 C 28.070312 21.253906 28.394531 21.542969 28.394531 21.894531 L 28.394531 23.972656 C 28.394531 24.769531 29.128906 25.414062 30.03125 25.414062 C 30.933594 25.414062 31.667969 24.769531 31.667969 23.972656 L 31.667969 14.011719 Z M 4.332031 13.972656 "/>
    <path style=" stroke:none;fill-rule:nonzero;fill:rgb(100%,17.254902%,40.784314%);fill-opacity:1;" d="M 31.667969 13.972656 C 31.667969 10.796875 25.550781 8.222656 18 8.222656 C 10.449219 8.222656 4.332031 10.796875 4.332031 13.972656 C 4.332031 17.148438 10.449219 19.722656 18 19.722656 C 25.550781 19.722656 31.667969 17.148438 31.667969 13.972656 Z M 31.667969 13.972656 "/>
    <path style=" stroke:none;fill-rule:nonzero;fill:rgb(100%,64.313725%,64.313725%);fill-opacity:1;" d="M 8.089844 13.371094 C 8.015625 9.691406 24.238281 9.207031 24.304688 12.453125 C 24.355469 14.878906 14.003906 15.007812 13.964844 13.066406 C 13.9375 11.691406 20.359375 11.667969 20.382812 12.691406 C 20.402344 13.71875 15.15625 13.847656 16.359375 12.589844 C 14.277344 14.140625 20.890625 14.25 20.863281 12.789062 C 20.828125 11.082031 13.019531 11.347656 13.054688 13.09375 C 13.105469 15.707031 25.085938 15.414062 25.023438 12.488281 C 24.945312 8.679688 7.050781 8.808594 7.144531 13.394531 C 7.246094 18.398438 24.722656 20.222656 30.378906 13.839844 C 22.679688 19.613281 8.160156 16.808594 8.089844 13.371094 Z M 8.089844 13.371094 "/>
    <path style=" stroke:none;fill-rule:nonzero;fill:rgb(25.882353%,67.843137%,88.627451%);fill-opacity:1;" d="M 6.632812 6.539062 L 6.632812 12.613281 C 6.632812 13.480469 8.433594 13.328125 8.433594 12.613281 L 8.433594 6.539062 C 8.433594 5.671875 6.632812 5.671875 6.632812 6.539062 Z M 6.632812 6.539062 "/>
    <path style=" stroke:none;fill-rule:nonzero;fill:rgb(25.882353%,54.509804%,75.686275%);fill-opacity:1;" d="M 8.433594 7.113281 L 6.632812 8.035156 L 6.632812 9.113281 L 8.433594 8.1875 Z M 6.632812 10.964844 L 6.632812 11.984375 L 8.433594 11.0625 L 8.433594 10.039062 Z M 6.632812 10.964844 "/>
    <path style=" stroke:none;fill-rule:nonzero;fill:rgb(100%,54.509804%,0%);fill-opacity:1;" d="M 8.492188 5.160156 C 8.492188 6.542969 6.632812 6.542969 6.632812 5.160156 C 6.632812 4.703125 7.5625 3.226562 7.5625 3.226562 C 7.5625 3.226562 8.492188 4.703125 8.492188 5.160156 Z M 8.492188 5.160156 "/>
    <path style=" stroke:none;fill-rule:nonzero;fill:rgb(100%,94.117647%,20%);fill-opacity:1;" d="M 8.027344 5.601562 C 8.027344 6.390625 7.097656 6.390625 7.097656 5.601562 C 7.097656 5.371094 7.5625 4.632812 7.5625 4.632812 C 7.5625 4.632812 8.027344 5.371094 8.027344 5.601562 Z M 8.027344 5.601562 "/>
    <path style=" stroke:none;fill-rule:nonzero;fill:rgb(25.882353%,67.843137%,88.627451%);fill-opacity:1;" d="M 17.183594 4.023438 L 17.183594 9.339844 C 17.183594 10.167969 18.761719 10.035156 18.761719 9.339844 L 18.761719 4.023438 C 18.761719 3.195312 17.183594 3.195312 17.183594 4.023438 Z M 17.183594 4.023438 "/>
    <path style=" stroke:none;fill-rule:nonzero;fill:rgb(25.882353%,54.509804%,75.686275%);fill-opacity:1;" d="M 18.761719 4.523438 L 17.183594 5.335938 L 17.183594 6.277344 L 18.761719 5.46875 Z M 17.183594 7.894531 L 17.183594 8.789062 L 18.761719 7.980469 L 18.761719 7.085938 Z M 17.183594 7.894531 "/>
    <path style=" stroke:none;fill-rule:nonzero;fill:rgb(100%,54.509804%,0%);fill-opacity:1;" d="M 18.8125 2.816406 C 18.8125 4.09375 17.183594 4.09375 17.183594 2.816406 C 17.183594 2.414062 18 1.125 18 1.125 C 18 1.125 18.8125 2.414062 18.8125 2.816406 Z M 18.8125 2.816406 "/>
    <path style=" stroke:none;fill-rule:nonzero;fill:rgb(100%,94.117647%,20%);fill-opacity:1;" d="M 18.40625 3.203125 C 18.40625 3.964844 17.59375 3.964844 17.59375 3.203125 C 17.59375 3.003906 18 2.359375 18 2.359375 C 18 2.359375 18.40625 3.003906 18.40625 3.203125 Z M 18.40625 3.203125 "/>
    <path style=" stroke:none;fill-rule:nonzero;fill:rgb(25.882353%,67.843137%,88.627451%);fill-opacity:1;" d="M 27.503906 6.53125 L 27.503906 12.605469 C 27.503906 13.472656 29.304688 13.320312 29.304688 12.605469 L 29.304688 6.53125 C 29.304688 5.664062 27.503906 5.664062 27.503906 6.53125 Z M 27.503906 6.53125 "/>
    <path style=" stroke:none;fill-rule:nonzero;fill:rgb(25.882353%,54.509804%,75.686275%);fill-opacity:1;" d="M 29.304688 7.105469 L 27.503906 8.027344 L 27.503906 9.105469 L 29.304688 8.179688 Z M 27.503906 10.957031 L 27.503906 11.976562 L 29.304688 11.054688 L 29.304688 10.03125 Z M 27.503906 10.957031 "/>
    <path style=" stroke:none;fill-rule:nonzero;fill:rgb(100%,54.509804%,0%);fill-opacity:1;" d="M 29.367188 5.152344 C 29.367188 6.542969 27.503906 6.542969 27.503906 5.152344 C 27.503906 4.695312 28.433594 3.21875 28.433594 3.21875 C 28.433594 3.21875 29.367188 4.695312 29.367188 5.152344 Z M 29.367188 5.152344 "/>
    <path style=" stroke:none;fill-rule:nonzero;fill:rgb(100%,94.117647%,20%);fill-opacity:1;" d="M 28.902344 5.59375 C 28.902344 6.382812 27.96875 6.382812 27.96875 5.59375 C 27.96875 5.363281 28.4375 4.625 28.4375 4.625 C 28.4375 4.625 28.902344 5.363281 28.902344 5.59375 Z M 28.902344 5.59375 "/>
    <path style=" stroke:none;fill-rule:nonzero;fill:rgb(62.352941%,89.411765%,100%);fill-opacity:1;" d="M 11.257812 10.3125 L 11.257812 17.65625 C 11.257812 18.585938 13.429688 18.402344 13.429688 17.65625 L 13.429688 10.3125 C 13.429688 9.378906 11.257812 9.378906 11.257812 10.3125 Z M 11.257812 10.3125 "/>
    <path style=" stroke:none;fill-rule:nonzero;fill:rgb(25.882353%,67.843137%,88.627451%);fill-opacity:1;" d="M 13.429688 11.003906 L 11.257812 12.121094 L 11.257812 13.425781 L 13.429688 12.304688 Z M 11.257812 15.660156 L 11.257812 16.894531 L 13.429688 15.777344 L 13.429688 14.542969 Z M 11.257812 15.660156 "/>
    <path style=" stroke:none;fill-rule:nonzero;fill:rgb(100%,54.509804%,0%);fill-opacity:1;" d="M 13.507812 8.644531 C 13.507812 10.1875 11.257812 10.1875 11.257812 8.644531 C 11.257812 8.089844 12.382812 6.304688 12.382812 6.304688 C 12.382812 6.304688 13.507812 8.089844 13.507812 8.644531 Z M 13.507812 8.644531 "/>
    <path style=" stroke:none;fill-rule:nonzero;fill:rgb(100%,94.117647%,20%);fill-opacity:1;" d="M 12.945312 9.175781 C 12.945312 10.015625 11.820312 10.015625 11.820312 9.175781 C 11.820312 8.898438 12.382812 8.007812 12.382812 8.007812 C 12.382812 8.007812 12.945312 8.898438 12.945312 9.175781 Z M 12.945312 9.175781 "/>
    <path style=" stroke:none;fill-rule:nonzero;fill:rgb(62.352941%,89.411765%,100%);fill-opacity:1;" d="M 22.515625 10.296875 L 22.515625 17.640625 C 22.515625 18.570312 24.691406 18.386719 24.691406 17.640625 L 24.691406 10.296875 C 24.691406 9.363281 22.515625 9.363281 22.515625 10.296875 Z M 22.515625 10.296875 "/>
    <path style=" stroke:none;fill-rule:nonzero;fill:rgb(25.882353%,67.843137%,88.627451%);fill-opacity:1;" d="M 24.691406 10.988281 L 22.515625 12.105469 L 22.515625 13.410156 L 24.691406 12.289062 Z M 22.515625 15.644531 L 22.515625 16.878906 L 24.691406 15.761719 L 24.691406 14.527344 Z M 22.515625 15.644531 "/>
    <path style=" stroke:none;fill-rule:nonzero;fill:rgb(100%,54.509804%,0%);fill-opacity:1;" d="M 24.765625 8.628906 C 24.765625 10.164062 22.515625 10.164062 22.515625 8.628906 C 22.515625 8.074219 23.640625 6.289062 23.640625 6.289062 C 23.640625 6.289062 24.765625 8.074219 24.765625 8.628906 Z M 24.765625 8.628906 "/>
    <path style=" stroke:none;fill-rule:nonzero;fill:rgb(100%,94.117647%,20%);fill-opacity:1;" d="M 24.207031 9.160156 C 24.207031 10 23.078125 10 23.078125 9.160156 C 23.078125 8.882812 23.640625 7.992188 23.640625 7.992188 C 23.640625 7.992188 24.207031 8.882812 24.207031 9.160156 Z M 24.207031 9.160156 "/>
  </g>
</svg>