<?xml version="1.0" encoding="UTF-8" standalone="yes"?>
<svg xmlns="http://www.w3.org/2000/svg" xmlns:xlink="http://www.w3.org/1999/xlink" width="48px" height="48px" viewBox="0 0 36 36" version="1.1">
  <g id="surface1">
    <path style=" stroke:none;fill-rule:nonzero;fill:rgb(100%,80.784314%,19.215686%);fill-opacity:1;" d="M 1.152344 17.652344 C 1.152344 17.652344 1.1875 15.835938 1.152344 15.089844 C 1.121094 14.335938 1.539062 14.585938 2.050781 14.179688 C 2.566406 13.773438 3.144531 12.960938 3.433594 13.273438 C 3.722656 13.585938 4.425781 14.023438 4.8125 12.710938 C 5.195312 11.398438 5.515625 11.835938 5.808594 11.585938 C 6.09375 11.335938 6.832031 11.835938 7.152344 11.273438 C 7.476562 10.710938 7.21875 10.523438 8.019531 10.019531 C 8.824219 9.519531 9.367188 8.894531 10.042969 8.894531 C 10.714844 8.894531 12.125 8.332031 12.445312 7.332031 C 12.769531 6.332031 13.25 6.394531 13.632812 6.171875 C 14.019531 5.953125 14.308594 5.453125 15.496094 5.453125 C 16.683594 5.453125 24.316406 4.359375 33.105469 9.050781 C 33.105469 9.050781 34.199219 9.613281 34.488281 9.832031 C 34.777344 10.054688 34.839844 9.925781 34.871094 12.273438 C 34.902344 14.621094 34.710938 22.496094 34.710938 24.472656 C 34.710938 25.8125 34.488281 25.628906 33.941406 25.722656 C 33.941406 25.722656 26.050781 26.910156 24.894531 27.097656 C 23.742188 27.285156 23.582031 27.222656 23.226562 26.941406 C 22.875 26.660156 21.816406 26.65625 21.300781 27.207031 C 20.789062 27.757812 21.109375 27.757812 20.179688 27.851562 C 19.25 27.945312 14.566406 28.664062 13.570312 28.820312 C 12.574219 28.976562 12.191406 28.132812 11.070312 28.164062 C 9.945312 28.195312 9.335938 29.382812 8.917969 29.476562 C 8.503906 29.570312 2.597656 30.414062 2.117188 30.476562 C 1.636719 30.539062 1.152344 30.914062 1.152344 30.351562 C 1.152344 29.789062 1.027344 28.539062 1.316406 28.414062 C 1.605469 28.289062 1.863281 27.945312 1.863281 27.476562 C 1.863281 26.597656 1.285156 26.660156 1.285156 24.878906 C 1.285156 23.097656 1.21875 21.28125 1.378906 21.09375 C 1.378906 21.09375 2.109375 20.667969 2.109375 19.589844 C 2.109375 18.277344 1.152344 18.433594 1.152344 17.652344 Z M 1.152344 17.652344 "/>
    <path style=" stroke:none;fill-rule:nonzero;fill:rgb(100%,92.54902%,25.098039%);fill-opacity:1;" d="M 1.164062 15.453125 C 1.011719 14.289062 1.511719 14.585938 2.023438 14.179688 C 2.539062 13.773438 3.117188 12.960938 3.40625 13.273438 C 3.695312 13.585938 4.398438 14.023438 4.785156 12.710938 C 5.167969 11.398438 5.488281 11.835938 5.777344 11.585938 C 6.066406 11.335938 6.804688 11.835938 7.125 11.273438 C 7.449219 10.710938 7.191406 10.523438 7.992188 10.019531 C 8.796875 9.519531 9.339844 8.894531 10.011719 8.894531 C 10.6875 8.894531 12.097656 8.332031 12.417969 7.332031 C 12.742188 6.332031 13.222656 6.394531 13.605469 6.171875 C 13.992188 5.953125 14.28125 5.453125 15.46875 5.453125 C 16.65625 5.453125 24.289062 4.359375 33.078125 9.050781 C 33.078125 9.050781 34.171875 9.613281 34.460938 9.832031 C 34.496094 9.859375 34.957031 10.421875 34.164062 10.589844 C 32.046875 11.042969 27.253906 11.875 21.960938 12.726562 C 21.769531 12.757812 21.179688 12.140625 20.988281 12.171875 C 20.734375 12.214844 20.878906 12.902344 20.625 12.941406 C 11.394531 14.410156 1.214844 15.859375 1.164062 15.453125 Z M 1.164062 15.453125 "/>
    <path style=" stroke:none;fill-rule:nonzero;fill:rgb(83.921569%,56.078431%,0%);fill-opacity:1;" d="M 2 15.484375 C 2.492188 15.40625 5.652344 14.949219 5.894531 14.914062 C 6.445312 14.835938 6.203125 14.503906 6.675781 14.25 C 7.144531 13.996094 8.003906 14.535156 8.34375 14.503906 C 8.6875 14.472656 17.105469 13.207031 18 13.09375 C 18.890625 12.984375 19.425781 12.890625 19.25 12.667969 C 19.070312 12.445312 18.664062 11.78125 20.15625 11.78125 C 21.648438 11.78125 21.636719 12.210938 21.746094 12.367188 C 21.863281 12.527344 21.960938 12.511719 22.378906 12.449219 C 22.800781 12.382812 25.203125 12.097656 25.21875 11.957031 C 25.238281 11.8125 25.429688 11.53125 26.179688 11.625 C 26.921875 11.71875 26.730469 11.894531 26.519531 12.195312 C 26.308594 12.496094 26.179688 12.71875 26.40625 13.035156 C 26.632812 13.347656 25.367188 12.890625 25.253906 12.449219 C 25.140625 12.003906 22.542969 12.796875 21.992188 12.8125 C 21.441406 12.824219 21.34375 12.605469 21.132812 12.398438 C 20.921875 12.195312 20.757812 13.046875 21.308594 13.269531 C 21.859375 13.492188 20.824219 14.046875 20.304688 13.902344 C 19.785156 13.761719 19.785156 13.113281 19.234375 13.207031 C 18.679688 13.300781 9.070312 14.972656 8.597656 14.960938 C 8.128906 14.953125 7.597656 14.84375 7.273438 15.160156 C 6.949219 15.476562 5.324219 15.429688 4.335938 15.523438 C 3.34375 15.617188 0.410156 15.742188 2 15.484375 Z M 34.488281 9.832031 C 34.199219 9.613281 33.105469 9.050781 33.105469 9.050781 C 29.378906 7.058594 25.855469 6.113281 22.945312 5.679688 C 23.246094 5.761719 29.355469 7.449219 31.796875 8.898438 C 33.46875 9.886719 33.554688 10.027344 33.339844 10.335938 C 33.125 10.644531 32.59375 10.605469 28.472656 11.480469 C 27.703125 11.644531 27.128906 11.691406 27.152344 11.882812 C 27.171875 12.074219 28.339844 11.777344 29.554688 11.683594 C 30.765625 11.589844 34.292969 10.851562 34.550781 11.164062 C 34.679688 11.324219 34.855469 12.597656 34.871094 13.460938 C 34.875 12.988281 34.875 12.582031 34.871094 12.273438 C 34.839844 9.925781 34.773438 10.050781 34.488281 9.832031 Z M 34.488281 9.832031 "/>
    <path style=" stroke:none;fill-rule:nonzero;fill:rgb(83.921569%,56.078431%,0%);fill-opacity:1;" d="M 11.066406 28.160156 C 12.191406 28.128906 12.574219 28.972656 13.570312 28.816406 L 13.601562 28.8125 C 13.40625 28.738281 13.144531 28.585938 12.808594 28.292969 C 11.683594 27.324219 10.429688 27.324219 9.996094 28.125 C 9.5625 28.925781 9.359375 29.152344 8.917969 29.476562 C 9.335938 29.382812 9.945312 28.191406 11.066406 28.160156 Z M 22.304688 26.183594 C 20.992188 26.4375 20.824219 27.722656 20.820312 27.742188 C 20.980469 27.667969 20.992188 27.539062 21.300781 27.207031 C 21.8125 26.65625 22.871094 26.660156 23.226562 26.941406 C 23.402344 27.082031 23.53125 27.167969 23.761719 27.195312 C 23.144531 27.070312 23.507812 25.953125 22.304688 26.183594 Z M 22.304688 26.183594 "/>
    <path style=" stroke:none;fill-rule:nonzero;fill:rgb(94.901961%,69.803922%,0%);fill-opacity:1;" d="M 23.996094 27.203125 C 24.046875 27.203125 24.101562 27.199219 24.160156 27.195312 C 24.105469 27.195312 24.050781 27.199219 23.996094 27.203125 Z M 23.945312 27.203125 L 23.960938 27.203125 Z M 23.945312 27.203125 "/>
    <path style=" stroke:none;fill-rule:nonzero;fill:rgb(83.921569%,56.078431%,0%);fill-opacity:1;" d="M 2.207031 27.742188 C 2.25 26.59375 1.34375 25.738281 1.34375 25.738281 C 1.488281 26.667969 1.859375 26.769531 1.859375 27.472656 C 1.859375 27.941406 1.605469 28.285156 1.316406 28.410156 C 1.265625 28.433594 1.234375 28.492188 1.207031 28.570312 C 1.449219 28.421875 2.171875 28.691406 2.207031 27.742188 Z M 2.207031 18.335938 C 1.738281 18.292969 1.476562 18.207031 1.324219 18.128906 C 1.601562 18.457031 2.109375 18.632812 2.109375 19.589844 C 2.109375 20.667969 1.378906 21.09375 1.378906 21.09375 C 1.351562 21.125 1.332031 21.207031 1.316406 21.324219 C 1.523438 20.882812 1.992188 20.878906 2.511719 20.40625 C 3.203125 19.773438 3.246094 18.421875 2.207031 18.335938 Z M 12.824219 6.625 C 12.6875 6.773438 12.558594 6.984375 12.445312 7.332031 C 12.125 8.332031 10.714844 8.894531 10.039062 8.894531 C 9.929688 8.894531 9.824219 8.914062 9.722656 8.945312 C 10.394531 9.132812 11.152344 9.484375 12.625 8.042969 C 13.335938 7.351562 12.199219 7.449219 12.824219 6.625 Z M 12.824219 6.625 "/>
    <path style=" stroke:none;fill-rule:nonzero;fill:rgb(100%,92.54902%,25.098039%);fill-opacity:1;" d="M 5.082031 25.875 C 5.125 26.003906 5.175781 26.144531 5.234375 26.289062 C 5.753906 27.554688 8.542969 28.125 8.675781 26.289062 C 8.691406 26.085938 8.679688 25.878906 8.648438 25.675781 C 7.757812 26.664062 6.027344 26.703125 5.082031 25.875 Z M 5.082031 25.875 "/>
    <path style=" stroke:none;fill-rule:nonzero;fill:rgb(83.921569%,56.078431%,0%);fill-opacity:1;" d="M 8.648438 25.675781 C 8.414062 24.308594 7.03125 23.832031 6.078125 24.074219 C 4.988281 24.355469 4.761719 24.882812 5.082031 25.875 C 6.027344 26.703125 7.757812 26.664062 8.648438 25.675781 Z M 8.648438 25.675781 "/>
    <path style=" stroke:none;fill-rule:nonzero;fill:rgb(100%,92.54902%,25.098039%);fill-opacity:1;" d="M 12.851562 17.285156 C 12.890625 17.449219 12.914062 17.621094 12.914062 17.800781 C 12.914062 19.195312 11.636719 20.324219 10.058594 20.324219 C 8.855469 20.324219 7.832031 19.667969 7.410156 18.738281 C 7.25 19.191406 7.171875 19.71875 7.214844 20.324219 C 7.429688 23.363281 12.054688 22.421875 12.914062 20.324219 C 13.519531 18.851562 13.574219 17.902344 12.851562 17.285156 Z M 12.851562 17.285156 "/>
    <path style=" stroke:none;fill-rule:nonzero;fill:rgb(83.921569%,56.078431%,0%);fill-opacity:1;" d="M 10.058594 20.324219 C 11.636719 20.324219 12.914062 19.195312 12.914062 17.800781 C 12.914062 17.621094 12.890625 17.449219 12.851562 17.285156 C 12.546875 17.019531 12.121094 16.8125 11.515625 16.65625 C 10.082031 16.289062 8.054688 16.917969 7.414062 18.738281 C 7.832031 19.667969 8.855469 20.324219 10.058594 20.324219 Z M 10.058594 20.324219 "/>
    <path style=" stroke:none;fill-rule:nonzero;fill:rgb(100%,92.54902%,25.098039%);fill-opacity:1;" d="M 16.140625 25.71875 C 15.246094 25.71875 14.457031 25.277344 13.929688 24.59375 C 13.566406 25.675781 13.757812 26.996094 15.828125 27.191406 C 18.328125 27.425781 19.398438 24.800781 18.898438 23.488281 C 18.554688 24.773438 17.457031 25.71875 16.140625 25.71875 Z M 16.140625 25.71875 "/>
    <path style=" stroke:none;fill-rule:nonzero;fill:rgb(83.921569%,56.078431%,0%);fill-opacity:1;" d="M 16.140625 25.71875 C 17.457031 25.71875 18.554688 24.773438 18.898438 23.488281 C 18.863281 23.398438 18.820312 23.308594 18.765625 23.226562 C 17.988281 22.046875 15.496094 22.097656 14.355469 23.734375 C 14.1875 23.972656 14.035156 24.273438 13.929688 24.59375 C 14.457031 25.277344 15.246094 25.71875 16.140625 25.71875 Z M 16.140625 25.71875 "/>
    <path style=" stroke:none;fill-rule:nonzero;fill:rgb(100%,92.54902%,25.098039%);fill-opacity:1;" d="M 33.15625 21.949219 C 33.105469 22.917969 32.179688 23.691406 31.035156 23.691406 C 30.082031 23.691406 29.28125 23.148438 29.015625 22.40625 C 28.929688 22.71875 28.898438 23.035156 28.914062 23.355469 C 28.980469 24.679688 31.023438 25.578125 32.734375 24.164062 C 33.574219 23.46875 33.554688 22.628906 33.15625 21.949219 Z M 33.15625 21.949219 "/>
    <path style=" stroke:none;fill-rule:nonzero;fill:rgb(83.921569%,56.078431%,0%);fill-opacity:1;" d="M 31.035156 23.691406 C 32.179688 23.691406 33.105469 22.917969 33.15625 21.949219 C 32.742188 21.253906 31.921875 20.730469 31.21875 20.730469 C 29.996094 20.730469 29.269531 21.472656 29.015625 22.40625 C 29.28125 23.148438 30.082031 23.691406 31.035156 23.691406 Z M 31.035156 23.691406 "/>
    <path style=" stroke:none;fill-rule:nonzero;fill:rgb(100%,92.54902%,25.098039%);fill-opacity:1;" d="M 27.238281 18.363281 C 27.242188 18.410156 27.253906 18.457031 27.253906 18.507812 C 27.253906 20.097656 25.777344 21.386719 23.957031 21.386719 C 22.648438 21.386719 21.527344 20.71875 20.996094 19.753906 C 21.125 20.308594 21.402344 20.914062 21.832031 21.59375 C 22.820312 23.164062 24.792969 23.09375 25.886719 22.027344 C 27.027344 20.917969 27.757812 19.578125 27.238281 18.363281 Z M 27.238281 18.363281 "/>
    <path style=" stroke:none;fill-rule:nonzero;fill:rgb(83.921569%,56.078431%,0%);fill-opacity:1;" d="M 23.957031 21.386719 C 25.777344 21.386719 27.253906 20.097656 27.253906 18.507812 C 27.253906 18.457031 27.242188 18.410156 27.238281 18.363281 C 27.101562 18.042969 26.886719 17.734375 26.5625 17.441406 C 25.003906 16.023438 22.039062 16.730469 21.316406 17.785156 C 20.910156 18.382812 20.820312 19.027344 20.996094 19.753906 C 21.527344 20.71875 22.648438 21.386719 23.957031 21.386719 Z M 23.957031 21.386719 "/>
    <path style=" stroke:none;fill-rule:nonzero;fill:rgb(100%,92.54902%,25.098039%);fill-opacity:1;" d="M 32.621094 14.210938 C 32.625 14.242188 32.632812 14.273438 32.632812 14.304688 C 32.632812 15.390625 31.628906 16.265625 30.390625 16.265625 C 29.5 16.265625 28.738281 15.808594 28.375 15.15625 C 28.464844 15.53125 28.652344 15.945312 28.945312 16.40625 C 29.617188 17.476562 30.957031 17.425781 31.703125 16.703125 C 32.476562 15.945312 32.976562 15.035156 32.621094 14.210938 Z M 32.621094 14.210938 "/>
    <path style=" stroke:none;fill-rule:nonzero;fill:rgb(83.921569%,56.078431%,0%);fill-opacity:1;" d="M 30.386719 16.265625 C 31.628906 16.265625 32.632812 15.386719 32.632812 14.304688 C 32.632812 14.273438 32.625 14.242188 32.621094 14.210938 C 32.515625 13.96875 32.359375 13.753906 32.160156 13.582031 C 31.101562 12.617188 29.085938 13.097656 28.59375 13.816406 C 28.316406 14.222656 28.253906 14.660156 28.375 15.15625 C 28.738281 15.808594 29.5 16.265625 30.386719 16.265625 Z M 30.386719 16.265625 "/>
    <path style=" stroke:none;fill-rule:nonzero;fill:rgb(100%,77.254902%,26.27451%);fill-opacity:1;" d="M 12.984375 10.410156 C 13.652344 10.410156 14.261719 10.535156 14.753906 10.742188 C 14.605469 10.410156 14.21875 10.097656 13.507812 9.808594 C 12.191406 9.277344 10.011719 9.679688 10.148438 11.515625 C 10.148438 11.546875 10.15625 11.574219 10.160156 11.601562 C 10.484375 10.917969 11.617188 10.410156 12.984375 10.410156 Z M 12.984375 10.410156 "/>
    <path style=" stroke:none;fill-rule:nonzero;fill:rgb(83.921569%,56.078431%,0%);fill-opacity:1;" d="M 14.246094 12.101562 C 14.746094 11.617188 14.945312 11.164062 14.753906 10.742188 C 14.261719 10.535156 13.648438 10.410156 12.984375 10.410156 C 11.617188 10.410156 10.484375 10.917969 10.160156 11.601562 C 10.375 13.347656 12.898438 13.417969 14.246094 12.101562 Z M 14.246094 12.101562 "/>
    <path style=" stroke:none;fill-rule:nonzero;fill:rgb(100%,77.254902%,26.27451%);fill-opacity:1;" d="M 19.300781 7.386719 C 19.761719 7.382812 20.210938 7.488281 20.621094 7.695312 C 20.5 7.441406 20.265625 7.179688 19.875 6.867188 C 18.515625 5.78125 16.792969 6.800781 16.902344 8.59375 C 16.910156 8.699219 16.9375 8.773438 16.953125 8.863281 C 17.1875 8.019531 18.148438 7.386719 19.300781 7.386719 Z M 19.300781 7.386719 "/>
    <path style=" stroke:none;fill-rule:nonzero;fill:rgb(83.921569%,56.078431%,0%);fill-opacity:1;" d="M 19.875 9.355469 C 20.585938 8.664062 20.859375 8.203125 20.621094 7.695312 C 20.210938 7.488281 19.761719 7.382812 19.300781 7.386719 C 18.148438 7.386719 17.1875 8.019531 16.953125 8.863281 C 17.226562 10.371094 18.875 10.332031 19.875 9.355469 Z M 19.875 9.355469 "/>
    <path style=" stroke:none;fill-rule:nonzero;fill:rgb(100%,77.254902%,26.27451%);fill-opacity:1;" d="M 26.855469 8.761719 C 27.179688 8.761719 27.488281 8.8125 27.777344 8.894531 C 27.726562 8.71875 27.625 8.5625 27.484375 8.441406 C 26.308594 7.363281 23.570312 8.054688 23.570312 9.804688 C 23.570312 10.226562 23.78125 10.539062 24.113281 10.726562 C 24.257812 9.625 25.421875 8.761719 26.855469 8.761719 Z M 26.855469 8.761719 "/>
    <path style=" stroke:none;fill-rule:nonzero;fill:rgb(83.921569%,56.078431%,0%);fill-opacity:1;" d="M 26.902344 10.292969 C 27.292969 9.988281 27.949219 9.476562 27.777344 8.894531 C 27.480469 8.808594 27.167969 8.761719 26.855469 8.761719 C 25.421875 8.761719 24.257812 9.625 24.113281 10.726562 C 24.796875 11.121094 25.996094 11.003906 26.902344 10.292969 Z M 26.902344 10.292969 "/>
  </g>
</svg>