<?xml version="1.0" encoding="UTF-8" standalone="yes"?>
<svg xmlns="http://www.w3.org/2000/svg" xmlns:xlink="http://www.w3.org/1999/xlink" width="48px" height="48px" viewBox="0 0 36 36" version="1.1">
  <defs>
    <filter id="alpha" filterUnits="objectBoundingBox" x="0%" y="0%" width="100%" height="100%">
      <feColorMatrix type="matrix" in="SourceGraphic" values="0 0 0 0 1 0 0 0 0 1 0 0 0 0 1 0 0 0 1 0"/>
    </filter>
    <mask id="mask0">
      <g filter="url(#alpha)">
        <rect x="0" y="0" width="36" height="36" style="fill:rgb(0%,0%,0%);fill-opacity:0.501961;stroke:none;"/>
      </g>
    </mask>
    <mask id="mask1">
      <g filter="url(#alpha)">
        <rect x="0" y="0" width="36" height="36" style="fill:rgb(0%,0%,0%);fill-opacity:0.501961;stroke:none;"/>
      </g>
    </mask>
    <mask id="mask2">
      <g filter="url(#alpha)">
        <rect x="0" y="0" width="36" height="36" style="fill:rgb(0%,0%,0%);fill-opacity:0.501961;stroke:none;"/>
      </g>
    </mask>
    <clipPath id="clip2">
      <rect width="36" height="36"/>
    </clipPath>
    <clipPath id="clip1">
      <rect width="36" height="36"/>
    </clipPath>
    <clipPath id="clip3">
      <rect width="36" height="36"/>
    </clipPath>
    <g id="surface7" clip-path="url(#clip2)">
      <path style=" stroke:none;fill-rule:nonzero;fill:rgb(24.313725%,26.27451%,27.843137%);fill-opacity:1;" d="M 30.648438 7.050781 C 31.035156 6.796875 31.40625 6.625 31.765625 6.558594 C 31.925781 5.054688 31.609375 3.804688 30.726562 2.921875 C 29.96875 2.167969 29.25 1.953125 28.515625 2.148438 C 30.542969 3.355469 31.042969 5.105469 30.648438 7.050781 Z M 7.445312 30.117188 C 2.785156 31.730469 2 28.394531 1.996094 28.390625 C 1.574219 29.277344 1.699219 30.136719 2.605469 31.039062 C 3.546875 31.980469 4.898438 32.277344 6.527344 32.046875 C 6.550781 31.4375 6.882812 30.800781 7.445312 30.117188 Z M 7.445312 30.117188 "/>
    </g>
    <g id="surface9" clip-path="url(#clip1)">
      <use xlink:href="#surface7" mask="url(#mask1)"/>
    </g>
    <g id="surface12" clip-path="url(#clip3)">
      <path style=" stroke:none;fill-rule:nonzero;fill:rgb(24.313725%,26.27451%,27.843137%);fill-opacity:1;" d="M 8.078125 25.257812 C 9.328125 25.550781 10.269531 26.039062 10.175781 26.347656 C 10.085938 26.65625 8.992188 26.667969 7.738281 26.375 C 6.484375 26.082031 5.546875 25.59375 5.636719 25.285156 C 5.730469 24.976562 6.824219 24.964844 8.078125 25.257812 Z M 11.375 22.902344 C 12.628906 23.195312 13.570312 23.683594 13.476562 23.992188 C 13.382812 24.300781 12.292969 24.3125 11.039062 24.019531 C 9.785156 23.726562 8.84375 23.238281 8.9375 22.929688 C 9.03125 22.621094 10.121094 22.609375 11.375 22.902344 Z M 15.144531 20.074219 C 16.398438 20.367188 17.339844 20.855469 17.246094 21.164062 C 17.152344 21.472656 16.058594 21.484375 14.808594 21.191406 C 13.554688 20.898438 12.613281 20.410156 12.707031 20.101562 C 12.800781 19.792969 13.890625 19.78125 15.144531 20.074219 Z M 18.445312 16.777344 C 19.699219 17.070312 20.636719 17.558594 20.546875 17.863281 C 20.453125 18.175781 19.359375 18.183594 18.109375 17.894531 C 16.855469 17.601562 15.914062 17.113281 16.007812 16.804688 C 16.101562 16.496094 17.191406 16.484375 18.445312 16.777344 Z M 22.214844 13.007812 C 23.46875 13.296875 24.40625 13.785156 24.316406 14.09375 C 24.222656 14.402344 23.128906 14.414062 21.878906 14.125 C 20.625 13.832031 19.683594 13.34375 19.777344 13.035156 C 19.871094 12.726562 20.960938 12.714844 22.214844 13.007812 Z M 25.511719 8.765625 C 26.765625 9.058594 27.707031 9.546875 27.613281 9.851562 C 27.519531 10.164062 26.429688 10.175781 25.175781 9.882812 C 23.921875 9.589844 22.980469 9.101562 23.074219 8.792969 C 23.167969 8.484375 24.257812 8.472656 25.511719 8.765625 Z M 25.511719 8.765625 "/>
    </g>
  </defs>
  <g id="surface1">
    <path style=" stroke:none;fill-rule:nonzero;fill:rgb(85.098039%,64.705882%,34.901961%);fill-opacity:1;" d="M 28.84375 2.453125 C 32.117188 5.726562 28.859375 14.285156 21.574219 21.574219 C 14.285156 28.863281 5.726562 32.117188 2.453125 28.84375 C -2.394531 23.996094 7.050781 21.628906 14.339844 14.339844 C 21.625 7.050781 23.992188 -2.394531 28.84375 2.453125 Z M 28.84375 2.453125 "/>
    <path style=" stroke:none;fill-rule:nonzero;fill:rgb(98.431373%,74.901961%,40.392157%);fill-opacity:1;" d="M 15.28125 15.285156 C 22.273438 8.292969 24.738281 -0.679688 29.207031 2.882812 C 29.097656 2.730469 28.972656 2.585938 28.84375 2.453125 C 23.996094 -2.394531 21.628906 7.050781 14.339844 14.339844 C 7.050781 21.628906 -2.394531 23.996094 2.453125 28.84375 C 2.585938 28.976562 2.730469 29.09375 2.882812 29.207031 C -0.679688 24.738281 8.289062 22.273438 15.28125 15.285156 Z M 15.28125 15.285156 "/>
    <path style=" stroke:none;fill-rule:nonzero;fill:rgb(78.823529%,27.843137%,27.843137%);fill-opacity:1;" d="M 30.726562 2.921875 C 33.984375 6.179688 29.574219 14.359375 21.808594 22.125 C 14.046875 29.890625 5.867188 34.300781 2.605469 31.039062 C -1.171875 27.261719 8.46875 24.316406 16.234375 16.550781 C 24 8.785156 26.945312 -0.855469 30.726562 2.921875 Z M 30.726562 2.921875 "/>
    <path style=" stroke:none;fill-rule:nonzero;fill:rgb(98.431373%,74.901961%,40.392157%);fill-opacity:1;" d="M 33.632812 7.242188 C 36.863281 10.476562 33.574219 19 26.285156 26.289062 C 19 33.574219 10.472656 36.863281 7.242188 33.632812 C 4.011719 30.402344 12.3125 26.890625 19.601562 19.601562 C 26.890625 12.316406 30.402344 4.011719 33.632812 7.242188 Z M 33.632812 7.242188 "/>
    <path style=" stroke:none;fill-rule:nonzero;fill:rgb(85.098039%,64.705882%,34.901961%);fill-opacity:1;" d="M 24.558594 24.558594 C 13.980469 35.140625 7.558594 33.53125 7.003906 33.367188 C 7.078125 33.453125 7.152344 33.542969 7.242188 33.632812 C 10.472656 36.863281 19 33.574219 26.289062 26.289062 C 33.179688 19.398438 36.492188 11.402344 34.097656 7.820312 C 34.898438 10.835938 33.152344 15.964844 24.558594 24.558594 Z M 24.558594 24.558594 "/>
    <path style=" stroke:none;fill-rule:nonzero;fill:rgb(100%,80.784314%,19.215686%);fill-opacity:1;" d="M 5.929688 29.320312 C 6.378906 26.839844 8.683594 27.808594 9.765625 26.140625 C 10.300781 25.3125 10.632812 24.367188 11.078125 23.484375 C 11.488281 22.671875 13.09375 22.972656 13.941406 22.675781 C 16 21.964844 15.121094 17.992188 17.644531 18.242188 C 18.824219 18.355469 20.335938 17.820312 20.523438 16.417969 C 20.621094 15.703125 20.617188 15.097656 20.539062 14.367188 C 20.3125 12.332031 22.933594 12.695312 23.910156 12.152344 C 25.253906 11.402344 25.800781 10.59375 25.378906 9.050781 C 24.949219 7.46875 27.292969 9.152344 29.363281 7.082031 C 30.363281 6.082031 29.671875 4.308594 29.109375 3.667969 C 28.253906 2.699219 27.609375 3.800781 27.695312 5.085938 C 27.753906 5.96875 25.996094 5.601562 25.300781 5.59375 C 24.863281 5.589844 24.234375 5.710938 23.910156 6.042969 C 22.882812 7.101562 24.121094 8.277344 23.441406 9.554688 C 22.621094 11.101562 20.519531 10.042969 19.144531 12.027344 C 17.808594 13.957031 18.863281 16.355469 17.007812 16.175781 C 15.65625 16.042969 14.761719 17.429688 14.167969 18.414062 C 13.523438 19.472656 13.253906 21.105469 11.59375 20.925781 C 11.03125 20.863281 10.628906 21.101562 10.195312 21.398438 C 8.367188 22.660156 9.195312 24.664062 6.734375 25.324219 C 4.78125 25.847656 4.347656 26.847656 3.996094 28.8125 C 3.765625 30.074219 5.703125 30.59375 5.929688 29.320312 Z M 5.929688 29.320312 "/>
    <use xlink:href="#surface9" mask="url(#mask0)"/>
    <use xlink:href="#surface12" mask="url(#mask2)"/>
  </g>
</svg>