<?xml version="1.0" encoding="UTF-8" standalone="yes"?>
<svg xmlns="http://www.w3.org/2000/svg" xmlns:xlink="http://www.w3.org/1999/xlink" width="48px" height="48px" viewBox="0 0 36 36" version="1.1">
  <defs>
    <filter id="alpha" filterUnits="objectBoundingBox" x="0%" y="0%" width="100%" height="100%">
      <feColorMatrix type="matrix" in="SourceGraphic" values="0 0 0 0 1 0 0 0 0 1 0 0 0 0 1 0 0 0 1 0"/>
    </filter>
    <mask id="mask0">
      <g filter="url(#alpha)">
        <rect x="0" y="0" width="36" height="36" style="fill:rgb(0%,0%,0%);fill-opacity:0.6;stroke:none;"/>
      </g>
    </mask>
    <clipPath id="clip1">
      <rect width="36" height="36"/>
    </clipPath>
    <g id="surface6" clip-path="url(#clip1)">
      <path style=" stroke:none;fill-rule:nonzero;fill:rgb(65.098039%,68.235294%,69.019608%);fill-opacity:1;" d="M 15.683594 6.417969 C 13.605469 4.261719 14.988281 1.125 14.988281 1.125 C 14.988281 1.125 10.628906 5.273438 13.382812 8.132812 C 16.570312 11.441406 14.988281 13.5 14.988281 13.5 C 14.988281 13.5 18.9375 9.796875 15.683594 6.417969 Z M 9.464844 8.347656 C 7.90625 6.78125 8.945312 4.5 8.945312 4.5 C 8.945312 4.5 5.671875 7.515625 7.738281 9.597656 C 10.128906 12.003906 8.945312 13.5 8.945312 13.5 C 8.945312 13.5 11.90625 10.808594 9.464844 8.347656 Z M 21.839844 8.347656 C 20.28125 6.78125 21.320312 4.5 21.320312 4.5 C 21.320312 4.5 18.046875 7.515625 20.113281 9.597656 C 22.503906 12.003906 21.320312 13.5 21.320312 13.5 C 21.320312 13.5 24.28125 10.804688 21.839844 8.347656 Z M 21.839844 8.347656 "/>
    </g>
  </defs>
  <g id="surface1">
    <path style=" stroke:none;fill-rule:nonzero;fill:rgb(93.72549%,96.470588%,96.862745%);fill-opacity:1;" d="M 27.667969 21.558594 L 29.269531 20.238281 L 32.515625 20.074219 L 34.875 22.425781 C 34.875 19.628906 33 17.898438 29.269531 18.980469 C 29.03125 19.046875 28.289062 19.089844 28.289062 19.089844 Z M 27.667969 21.558594 "/>
    <path style=" stroke:none;fill-rule:nonzero;fill:rgb(93.72549%,96.470588%,96.862745%);fill-opacity:1;" d="M 33.535156 22.292969 C 33.535156 24.90625 27.386719 25.59375 25.511719 26.90625 C 24.726562 27.457031 23.394531 29.917969 23.394531 29.917969 L 34.320312 23.59375 C 34.324219 23.59375 33.535156 20.261719 33.535156 22.292969 Z M 33.535156 22.292969 "/>
    <path style=" stroke:none;fill-rule:nonzero;fill:rgb(82.352941%,84.705882%,85.098039%);fill-opacity:1;" d="M 27.667969 22.503906 L 28.582031 22.292969 C 28.582031 22.292969 28.734375 21.425781 29.464844 20.773438 C 30.398438 19.941406 33.546875 20.125 33.546875 22.152344 C 33.546875 25.503906 27.222656 26.53125 25.347656 27.84375 C 24.5625 28.394531 23.664062 30.101562 23.664062 30.101562 C 23.664062 30.101562 24.34375 30.230469 24.496094 30.101562 C 27.367188 27.734375 34.875 26.75 34.875 22.324219 C 34.875 20.734375 32.566406 18.742188 29.269531 19.925781 C 29.039062 20.007812 28.289062 20.035156 28.289062 20.035156 Z M 22.445312 30.929688 L 7.414062 30.929688 C 7.414062 30.929688 7.609375 32.484375 9.617188 33.742188 C 10.359375 34.207031 12.125 34.875 14.929688 34.875 C 17.734375 34.875 19.5 34.207031 20.242188 33.742188 C 22.246094 32.484375 22.445312 30.929688 22.445312 30.929688 Z M 22.445312 30.929688 "/>
    <path style=" stroke:none;fill-rule:nonzero;fill:rgb(93.72549%,96.470588%,96.862745%);fill-opacity:1;" d="M 28.734375 16.96875 L 1.125 16.96875 C 1.125 16.96875 1.484375 23.546875 5.171875 28.867188 C 6.535156 30.835938 9.777344 33.664062 14.929688 33.664062 C 20.082031 33.664062 23.324219 30.835938 24.6875 28.867188 C 28.375 23.546875 28.734375 16.96875 28.734375 16.96875 Z M 28.734375 16.96875 "/>
    <path style=" stroke:none;fill-rule:nonzero;fill:rgb(93.72549%,96.470588%,96.862745%);fill-opacity:1;" d="M 28.734375 17 C 28.734375 13.824219 22.550781 11.25 14.929688 11.25 C 7.304688 11.25 1.125 13.824219 1.125 17 C 1.125 20.171875 7.304688 22.746094 14.929688 22.746094 C 22.550781 22.746094 28.734375 20.171875 28.734375 17 Z M 28.734375 17 "/>
    <path style=" stroke:none;fill-rule:nonzero;fill:rgb(82.352941%,84.705882%,85.098039%);fill-opacity:1;" d="M 14.929688 13.597656 C 21.28125 13.597656 26.582031 15.414062 27.824219 17.828125 C 28.003906 17.492188 28.097656 17.121094 28.101562 16.742188 C 28.101562 13.804688 22.203125 11.429688 14.929688 11.429688 C 7.652344 11.429688 1.757812 13.804688 1.757812 16.742188 C 1.757812 17.113281 1.851562 17.476562 2.03125 17.828125 C 3.277344 15.414062 8.578125 13.597656 14.929688 13.597656 Z M 14.929688 13.597656 "/>
    <path style=" stroke:none;fill-rule:nonzero;fill:rgb(44.705882%,30.588235%,25.490196%);fill-opacity:1;" d="M 14.929688 22.054688 C 21.28125 22.054688 26.582031 20.242188 27.824219 17.828125 C 26.582031 15.414062 21.28125 13.597656 14.929688 13.597656 C 8.578125 13.597656 3.277344 15.414062 2.03125 17.828125 C 3.277344 20.242188 8.578125 22.054688 14.929688 22.054688 Z M 14.929688 22.054688 "/>
    <path style=" stroke:none;fill-rule:nonzero;fill:rgb(56.078431%,41.568627%,32.941176%);fill-opacity:1;" d="M 23.769531 16.398438 C 21.824219 14.152344 15.511719 15.160156 14.929688 16.28125 C 14.125 15.085938 7.96875 14.195312 6.085938 16.398438 C 4.910156 17.785156 7.632812 19.089844 10.363281 20.03125 C 12.089844 20.683594 10.363281 21.425781 10.363281 21.425781 C 17.210938 21.425781 22.019531 19.007812 22.019531 19.007812 C 23.582031 18.222656 24.566406 17.316406 23.769531 16.398438 Z M 23.769531 16.398438 "/>
    <path style=" stroke:none;fill-rule:nonzero;fill:rgb(70.980392%,57.254902%,40.392157%);fill-opacity:1;" d="M 20.550781 17.191406 C 19.410156 15.386719 15.191406 16.125 14.738281 17.011719 C 14.28125 16.054688 10.277344 15.285156 8.90625 17.023438 C 8.046875 18.109375 9.761719 19.171875 11.503906 19.945312 C 12.597656 20.480469 11.414062 21.050781 11.414062 21.050781 C 15.921875 21.117188 19.242188 19.246094 19.242188 19.246094 L 19.238281 19.246094 C 20.316406 18.636719 21.019531 17.929688 20.550781 17.191406 Z M 20.550781 17.191406 "/>
    <path style=" stroke:none;fill-rule:nonzero;fill:rgb(97.647059%,95.294118%,85.098039%);fill-opacity:1;" d="M 18.613281 17.84375 C 17.847656 16.636719 15.023438 17.132812 14.71875 17.726562 C 14.417969 17.082031 11.738281 16.570312 10.816406 17.730469 C 10.242188 18.457031 11.390625 19.171875 12.554688 19.6875 C 13.289062 20.046875 12.496094 20.429688 12.496094 20.429688 C 15.515625 20.472656 17.734375 19.21875 17.734375 19.21875 C 18.457031 18.8125 18.925781 18.339844 18.613281 17.84375 Z M 18.613281 17.84375 "/>
    <use xlink:href="#surface6" mask="url(#mask0)"/>
  </g>
</svg>