<?xml version="1.0" encoding="UTF-8" standalone="yes"?>
<svg xmlns="http://www.w3.org/2000/svg" xmlns:xlink="http://www.w3.org/1999/xlink" width="48px" height="48px" viewBox="0 0 36 36" version="1.1">
  <defs>
    <filter id="alpha" filterUnits="objectBoundingBox" x="0%" y="0%" width="100%" height="100%">
      <feColorMatrix type="matrix" in="SourceGraphic" values="0 0 0 0 1 0 0 0 0 1 0 0 0 0 1 0 0 0 1 0"/>
    </filter>
    <mask id="mask0">
      <g filter="url(#alpha)">
        <rect x="0" y="0" width="36" height="36" style="fill:rgb(0%,0%,0%);fill-opacity:0.8;stroke:none;"/>
      </g>
    </mask>
    <clipPath id="clip1">
      <rect width="36" height="36"/>
    </clipPath>
    <g id="surface6" clip-path="url(#clip1)">
      <path style=" stroke:none;fill-rule:nonzero;fill:rgb(63.137255%,72.156863%,78.039216%);fill-opacity:1;" d="M 30.375 11.5 C 30.375 5.085938 27.164062 1.125 27.164062 1.125 L 8.835938 1.125 C 8.835938 1.125 5.625 5.089844 5.625 11.5 C 5.625 17.589844 10.832031 23.25 17.378906 23.585938 C 17.300781 27.125 17 30.808594 16.132812 32.082031 C 14.914062 33.882812 10.636719 32.957031 10.636719 34.875 L 25.363281 34.875 C 25.363281 32.957031 21.085938 33.882812 19.867188 32.082031 C 19 30.808594 18.699219 27.125 18.621094 23.585938 C 25.167969 23.25 30.375 17.589844 30.375 11.5 Z M 18 22.082031 C 12.492188 22.082031 7.960938 17.703125 7.371094 12.710938 C 7.328125 12.347656 7.304688 11.984375 7.304688 11.617188 C 7.304688 6.078125 10.078125 2.648438 10.078125 2.648438 L 25.921875 2.648438 C 25.921875 2.652344 28.644531 6.019531 28.691406 11.480469 C 28.691406 11.527344 28.695312 11.570312 28.695312 11.617188 C 28.695312 17.046875 23.90625 22.082031 18 22.082031 Z M 18 22.082031 "/>
    </g>
  </defs>
  <g id="surface1">
    <path style=" stroke:none;fill-rule:nonzero;fill:rgb(58.823529%,8.627451%,13.72549%);fill-opacity:1;" d="M 8.472656 12.445312 C 9 16.925781 13.0625 20.851562 18.003906 20.851562 C 23.300781 20.851562 27.597656 16.335938 27.597656 11.464844 C 27.597656 11.421875 27.59375 11.382812 27.59375 11.34375 C 22.128906 10.601562 15.164062 14.574219 8.472656 12.445312 Z M 8.472656 12.445312 "/>
    <use xlink:href="#surface6" mask="url(#mask0)"/>
  </g>
</svg>