<?xml version="1.0" encoding="UTF-8" standalone="yes"?>
<svg xmlns="http://www.w3.org/2000/svg" xmlns:xlink="http://www.w3.org/1999/xlink" width="48px" height="48px" viewBox="0 0 36 36" version="1.1">
  <defs>
    <filter id="alpha" filterUnits="objectBoundingBox" x="0%" y="0%" width="100%" height="100%">
      <feColorMatrix type="matrix" in="SourceGraphic" values="0 0 0 0 1 0 0 0 0 1 0 0 0 0 1 0 0 0 1 0"/>
    </filter>
    <mask id="mask0">
      <g filter="url(#alpha)">
        <rect x="0" y="0" width="36" height="36" style="fill:rgb(0%,0%,0%);fill-opacity:0.8;stroke:none;"/>
      </g>
    </mask>
    <mask id="mask1">
      <g filter="url(#alpha)">
        <rect x="0" y="0" width="36" height="36" style="fill:rgb(0%,0%,0%);fill-opacity:0.8;stroke:none;"/>
      </g>
    </mask>
    <clipPath id="clip1">
      <rect width="36" height="36"/>
    </clipPath>
    <clipPath id="clip2">
      <rect width="36" height="36"/>
    </clipPath>
    <g id="surface6" clip-path="url(#clip1)">
      <path style=" stroke:none;fill-rule:nonzero;fill:rgb(63.137255%,72.156863%,78.039216%);fill-opacity:1;" d="M 26.824219 6.945312 L 12.730469 6.945312 C 15.363281 13.0625 7.363281 24.136719 16.667969 26 C 16.664062 26.003906 16.65625 26.003906 16.660156 26.007812 C 19.503906 26.992188 19.351562 29.34375 18.425781 31.558594 C 17.441406 33.902344 15.085938 34.328125 15.0625 34.339844 C 14.992188 34.382812 14.953125 34.511719 14.960938 34.644531 C 14.976562 34.777344 15.035156 34.875 15.109375 34.875 L 24.449219 34.875 C 24.519531 34.875 24.582031 34.777344 24.59375 34.644531 C 24.605469 34.511719 24.5625 34.382812 24.492188 34.339844 C 24.46875 34.328125 22.113281 33.902344 21.132812 31.558594 C 20.203125 29.34375 20.050781 26.992188 22.894531 26.007812 C 22.902344 26.003906 22.894531 26.003906 22.886719 26 C 32.191406 24.136719 24.195312 13.0625 26.824219 6.945312 Z M 19.777344 25.273438 C 8.015625 25.273438 16.28125 13.46875 13.867188 7.46875 L 25.6875 7.46875 C 23.273438 13.46875 31.539062 25.273438 19.777344 25.273438 Z M 19.777344 25.273438 "/>
    </g>
    <g id="surface9" clip-path="url(#clip2)">
      <path style=" stroke:none;fill-rule:nonzero;fill:rgb(96.470588%,33.333333%,0%);fill-opacity:1;" d="M 14.203125 18.1875 C 13.867188 21.605469 14.496094 24.386719 19.777344 24.386719 C 24.175781 24.386719 25.347656 22.457031 25.421875 19.839844 C 21.863281 20.472656 18.714844 17.453125 14.203125 18.1875 Z M 14.203125 18.1875 "/>
      <path style=" stroke:none;fill-rule:nonzero;fill:rgb(98.823529%,70.196078%,20.392157%);fill-opacity:1;" d="M 25.421875 19.839844 C 25.480469 17.875 24.917969 15.523438 24.644531 13.304688 C 21.617188 13.421875 18.800781 11.222656 15.054688 11.46875 C 15.011719 13.597656 14.414062 16.019531 14.203125 18.1875 C 18.714844 17.453125 21.863281 20.472656 25.421875 19.839844 Z M 25.421875 19.839844 "/>
    </g>
  </defs>
  <g id="surface1">
    <path style=" stroke:none;fill-rule:evenodd;fill:rgb(39.215686%,53.72549%,18.431373%);fill-opacity:1;" d="M 32.203125 4.789062 C 30.988281 1.804688 27.542969 0.351562 24.503906 1.539062 C 21.464844 2.734375 19.984375 6.117188 21.199219 9.101562 C 22.410156 12.089844 25.855469 13.542969 28.894531 12.351562 C 31.933594 11.164062 33.414062 7.777344 32.203125 4.789062 Z M 32.203125 4.789062 "/>
    <path style=" stroke:none;fill-rule:evenodd;fill:rgb(99.215686%,100%,72.156863%);fill-opacity:1;" d="M 31.859375 4.925781 C 30.722656 2.125 27.492188 0.761719 24.640625 1.878906 C 21.792969 2.996094 20.40625 6.167969 21.542969 8.96875 C 22.679688 11.769531 25.910156 13.132812 28.757812 12.015625 C 31.605469 10.898438 32.992188 7.722656 31.859375 4.925781 Z M 31.859375 4.925781 "/>
    <path style=" stroke:none;fill-rule:evenodd;fill:rgb(80.784314%,84.313725%,30.196078%);fill-opacity:1;" d="M 25.140625 1.96875 C 25.292969 1.777344 28.324219 1.769531 28.417969 2.054688 C 28.453125 2.160156 28.605469 2.226562 28.585938 2.335938 C 28.511719 2.753906 26.921875 6.257812 26.921875 6.257812 C 26.867188 6.242188 26.695312 6.054688 26.585938 6.210938 C 26.492188 6.347656 24.9375 2.394531 24.996094 2.332031 C 25.070312 2.25 25.046875 2.085938 25.140625 1.96875 Z M 28.289062 11.929688 C 28.136719 12.121094 25.109375 12.128906 25.015625 11.84375 C 24.980469 11.734375 24.828125 11.671875 24.84375 11.558594 C 24.921875 11.144531 26.511719 7.640625 26.511719 7.640625 C 26.5625 7.65625 26.734375 7.84375 26.84375 7.6875 C 26.941406 7.546875 28.496094 11.503906 28.4375 11.566406 C 28.359375 11.648438 28.386719 11.808594 28.289062 11.929688 Z M 31.773438 5.402344 C 31.972656 5.550781 31.976562 8.488281 31.683594 8.582031 C 31.574219 8.617188 31.507812 8.765625 31.394531 8.746094 C 30.964844 8.671875 27.355469 7.128906 27.355469 7.128906 C 27.375 7.078125 27.5625 6.910156 27.402344 6.804688 C 27.261719 6.714844 31.335938 5.203125 31.398438 5.257812 C 31.484375 5.332031 31.652344 5.308594 31.773438 5.402344 Z M 21.640625 8.457031 C 21.441406 8.308594 21.4375 5.371094 21.730469 5.277344 C 21.839844 5.242188 21.90625 5.09375 22.019531 5.113281 C 22.449219 5.1875 26.054688 6.730469 26.054688 6.730469 C 26.039062 6.78125 25.847656 6.949219 26.011719 7.054688 C 26.152344 7.144531 22.078125 8.65625 22.015625 8.597656 C 21.929688 8.527344 21.761719 8.550781 21.640625 8.457031 Z M 22.101562 4.601562 C 22.070312 4.359375 24.210938 2.277344 24.484375 2.414062 C 24.585938 2.464844 24.742188 2.40625 24.808594 2.5 C 25.058594 2.84375 26.484375 6.414062 26.484375 6.414062 C 26.4375 6.4375 26.179688 6.425781 26.214844 6.609375 C 26.25 6.773438 22.269531 5.042969 22.265625 4.960938 C 22.257812 4.851562 22.125 4.75 22.101562 4.601562 Z M 31.429688 9.351562 C 31.460938 9.59375 29.324219 11.675781 29.050781 11.539062 C 28.949219 11.488281 28.792969 11.550781 28.726562 11.457031 C 28.476562 11.113281 27.050781 7.542969 27.050781 7.542969 C 27.097656 7.519531 27.355469 7.53125 27.320312 7.34375 C 27.285156 7.183594 31.265625 8.914062 31.269531 8.996094 C 31.273438 9.105469 31.414062 9.203125 31.429688 9.351562 Z M 29.152344 2.386719 C 29.398438 2.359375 31.542969 4.433594 31.402344 4.699219 C 31.351562 4.796875 31.414062 4.949219 31.316406 5.011719 C 30.960938 5.257812 27.285156 6.640625 27.285156 6.640625 C 27.261719 6.59375 27.273438 6.34375 27.082031 6.382812 C 26.917969 6.414062 28.699219 2.550781 28.78125 2.546875 C 28.894531 2.539062 29 2.40625 29.152344 2.386719 Z M 24.285156 11.449219 C 24.039062 11.480469 21.890625 9.40625 22.03125 9.140625 C 22.085938 9.042969 22.023438 8.890625 22.117188 8.824219 C 22.472656 8.582031 26.148438 7.199219 26.148438 7.199219 C 26.175781 7.242188 26.160156 7.496094 26.351562 7.457031 C 26.519531 7.425781 24.738281 11.289062 24.652344 11.292969 C 24.539062 11.296875 24.4375 11.429688 24.285156 11.449219 Z M 24.285156 11.449219 "/>
    <path style=" stroke:none;fill-rule:nonzero;fill:rgb(75.686275%,0.784314%,34.901961%);fill-opacity:1;" d="M 13.664062 5.050781 C 12.230469 3.644531 9.90625 3.644531 8.472656 5.050781 L 3.375 10.0625 L 4.152344 10.828125 L 9.253906 5.816406 C 10.257812 4.832031 11.882812 4.832031 12.886719 5.816406 L 24.15625 16.890625 L 24.933594 16.125 Z M 13.664062 5.050781 "/>
    <use xlink:href="#surface6" mask="url(#mask0)"/>
    <use xlink:href="#surface9" mask="url(#mask1)"/>
  </g>
</svg>