<?xml version="1.0" encoding="UTF-8" standalone="yes"?>
<svg xmlns="http://www.w3.org/2000/svg" xmlns:xlink="http://www.w3.org/1999/xlink" width="48px" height="48px" viewBox="0 0 36 36" version="1.1">
  <defs>
    <filter id="alpha" filterUnits="objectBoundingBox" x="0%" y="0%" width="100%" height="100%">
      <feColorMatrix type="matrix" in="SourceGraphic" values="0 0 0 0 1 0 0 0 0 1 0 0 0 0 1 0 0 0 1 0"/>
    </filter>
    <mask id="mask0">
      <g filter="url(#alpha)">
        <rect x="0" y="0" width="36" height="36" style="fill:rgb(0%,0%,0%);fill-opacity:0.501961;stroke:none;"/>
      </g>
    </mask>
    <clipPath id="clip1">
      <rect width="36" height="36"/>
    </clipPath>
    <g id="surface6" clip-path="url(#clip1)">
      <path style=" stroke:none;fill-rule:nonzero;fill:rgb(24.313725%,26.27451%,27.843137%);fill-opacity:1;" d="M 16.128906 15.949219 C 16.128906 15.949219 14.804688 14.769531 13.265625 15.816406 L 14.21875 16.65625 C 14.734375 16.339844 15.507812 16.066406 16.425781 16.246094 C 16.425781 16.246094 16.113281 15.046875 16.910156 14.070312 L 16.421875 13.492188 C 16.105469 13.964844 15.398438 15.210938 16.128906 15.949219 Z M 16.128906 15.949219 "/>
    </g>
  </defs>
  <g id="surface1">
    <path style=" stroke:none;fill-rule:nonzero;fill:rgb(69.803922%,75.686275%,75.294118%);fill-opacity:1;" d="M 10.277344 15.046875 C 10.277344 15.046875 11.222656 13.835938 13.429688 13.222656 C 15.164062 12.738281 14.726562 11.148438 15.554688 10.3125 L 16.265625 12.703125 L 15.769531 15.097656 L 16.128906 15.949219 C 16.128906 15.949219 15.179688 15.257812 14.773438 15.210938 C 13.285156 15.039062 10.5 15.273438 10.277344 15.046875 Z M 10.277344 15.046875 "/>
    <path style=" stroke:none;fill-rule:nonzero;fill:rgb(24.313725%,26.27451%,27.843137%);fill-opacity:1;" d="M 10.277344 15.046875 C 10.277344 15.046875 11.222656 13.835938 13.429688 13.222656 C 15.164062 12.738281 14.726562 11.148438 15.554688 10.3125 L 16.265625 12.703125 L 15.769531 15.097656 L 16.128906 15.949219 C 16.128906 15.949219 15.179688 15.257812 14.773438 15.210938 C 13.285156 15.039062 10.5 15.273438 10.277344 15.046875 Z M 10.277344 15.046875 "/>
    <path style=" stroke:none;fill-rule:nonzero;fill:rgb(27.45098%,45.098039%,18.431373%);fill-opacity:1;" d="M 21.519531 17.253906 C 18.03125 15.773438 17.765625 15.632812 16.6875 14.558594 L 16.015625 13.074219 C 15.824219 12.882812 15.832031 12.4375 15.503906 12.101562 C 15.167969 11.765625 13.945312 11.351562 13.59375 10.992188 C 13.59375 10.992188 13.726562 10.753906 13.546875 10.570312 C 13.363281 10.390625 12.8125 10.761719 11.902344 11.679688 C 10.988281 12.597656 10.617188 13.152344 10.796875 13.335938 C 10.980469 13.523438 11.214844 13.386719 11.214844 13.386719 C 11.570312 13.742188 11.980469 14.972656 12.316406 15.3125 C 12.648438 15.644531 13.085938 15.636719 13.277344 15.828125 L 14.75 16.511719 C 15.816406 17.597656 15.933594 17.882812 17.394531 21.402344 C 18.640625 24.398438 19.449219 27.671875 21.273438 30.386719 C 22.367188 32.011719 24.265625 34.066406 26.445312 34.742188 C 26.773438 34.84375 27.457031 35.046875 27.925781 34.578125 L 34.578125 27.890625 C 35.046875 27.417969 34.84375 26.730469 34.746094 26.402344 C 34.101562 24.253906 32.0625 22.277344 30.449219 21.167969 C 27.761719 19.320312 24.484375 18.511719 21.519531 17.253906 Z M 21.519531 17.253906 "/>
    <path style=" stroke:none;fill-rule:nonzero;fill:rgb(100%,90.588235%,56.862745%);fill-opacity:1;" d="M 22.460938 17.632812 C 22.148438 17.507812 21.835938 17.378906 21.527344 17.246094 C 18.039062 15.773438 16.328125 13.386719 16.328125 13.386719 L 15.726562 14.90625 L 16.128906 15.949219 L 15.324219 15.378906 L 13.3125 15.84375 C 13.3125 15.84375 15.867188 17.730469 17.390625 21.410156 C 17.527344 21.746094 17.640625 22.039062 17.757812 22.335938 L 18.730469 21.363281 L 19.121094 22.3125 L 20.632812 21.300781 L 21.261719 21.152344 L 21.414062 20.515625 L 22.421875 18.992188 L 21.488281 18.605469 Z M 22.460938 17.632812 "/>
    <path style=" stroke:none;fill-rule:nonzero;fill:rgb(100%,90.588235%,56.862745%);fill-opacity:1;" d="M 14.578125 14.792969 C 14.121094 14.585938 13.230469 14.605469 12.390625 15.003906 C 12.390625 15.003906 12.386719 14.554688 12.078125 14.53125 C 11.773438 14.5 10.886719 14.980469 10.277344 15.046875 C 10.277344 15.046875 10.671875 15.535156 10.621094 16 C 10.566406 16.457031 11.535156 15.511719 11.964844 15.382812 C 11.964844 15.382812 11.796875 16.015625 11.730469 16.59375 C 11.667969 17.171875 15.078125 14.890625 16.128906 15.945312 C 16.128906 15.949219 15.230469 15.085938 14.578125 14.792969 Z M 14.578125 14.792969 "/>
    <path style=" stroke:none;fill-rule:nonzero;fill:rgb(100%,90.588235%,56.862745%);fill-opacity:1;" d="M 16.128906 15.949219 C 16.128906 15.949219 15.324219 15.175781 15.484375 13.75 C 15.484375 13.75 16.160156 13.519531 15.9375 13.296875 C 15.714844 13.074219 15.0625 13.519531 15.175781 12.527344 C 15.285156 11.53125 15.761719 11.066406 15.554688 10.3125 C 15.554688 10.3125 16.53125 10.132812 16.613281 10.886719 C 16.695312 11.640625 16.332031 12.292969 16.71875 12.25 C 17.257812 12.1875 17.886719 12.523438 16.988281 13.425781 C 16.085938 14.335938 15.816406 15.230469 16.128906 15.949219 Z M 33.554688 25.621094 L 25.679688 33.496094 C 24.277344 32.601562 23.085938 31.410156 22.191406 30.011719 L 30.066406 22.132812 C 31.46875 23.03125 32.65625 24.21875 33.554688 25.621094 Z M 33.554688 25.621094 "/>
    <path style=" stroke:none;fill-rule:nonzero;fill:rgb(92.941176%,88.627451%,81.960784%);fill-opacity:1;" d="M 10.425781 12.742188 C 10.554688 12.078125 5.976562 12.375 4.59375 12.574219 C 1.699219 12.984375 2.058594 16.347656 4.707031 14.542969 C 7.066406 12.9375 10.386719 12.945312 10.425781 12.742188 Z M 13.632812 7.011719 C 13.761719 7.175781 16.035156 2.484375 15.289062 2.820312 C 14.605469 3.128906 13.53125 6.886719 13.632812 7.011719 Z M 11.933594 11.449219 C 12.121094 10.851562 8.824219 1.660156 7.917969 1.222656 C 7.011719 0.785156 5.71875 1.628906 9.382812 7.367188 C 10.953125 9.824219 11.570312 12.59375 11.933594 11.449219 Z M 9.507812 13.660156 C 8.425781 13.882812 6.644531 15.71875 7.59375 15.363281 C 8.539062 15.011719 10.1875 13.523438 9.507812 13.660156 Z M 12.972656 10.316406 C 13.6875 9.640625 15.441406 7.734375 14.523438 7.984375 C 13.796875 8.179688 12.261719 10.988281 12.972656 10.316406 Z M 12.238281 4.648438 C 11.703125 5.347656 11.847656 8.980469 12.292969 10.167969 C 12.769531 11.4375 12.777344 3.949219 12.238281 4.648438 Z M 6.511719 11.410156 C 8.730469 10.363281 0.0507812 10.191406 1.238281 11.191406 C 2.425781 12.191406 5.535156 11.871094 6.511719 11.410156 Z M 6.511719 11.410156 "/>
    <path style=" stroke:none;fill-rule:nonzero;fill:rgb(92.941176%,88.627451%,81.960784%);fill-opacity:1;" d="M 5.875 15.289062 C 5.769531 15.019531 5.375 14.925781 4.996094 15.078125 C 4.617188 15.230469 4.398438 15.570312 4.507812 15.839844 C 4.617188 16.105469 5.007812 16.199219 5.386719 16.046875 C 5.765625 15.894531 5.984375 15.554688 5.875 15.289062 Z M 5.875 15.289062 "/>
    <path style=" stroke:none;fill-rule:nonzero;fill:rgb(92.941176%,88.627451%,81.960784%);fill-opacity:1;" d="M 15.03125 6.179688 C 14.925781 6.085938 14.703125 6.164062 14.535156 6.355469 C 14.363281 6.550781 14.3125 6.78125 14.417969 6.875 C 14.523438 6.96875 14.746094 6.886719 14.914062 6.695312 C 15.085938 6.503906 15.136719 6.269531 15.03125 6.179688 Z M 15.03125 6.179688 "/>
    <path style=" stroke:none;fill-rule:nonzero;fill:rgb(92.941176%,88.627451%,81.960784%);fill-opacity:1;" d="M 7.382812 15.808594 C 7.253906 15.625 6.949219 15.617188 6.703125 15.792969 C 6.457031 15.964844 6.363281 16.253906 6.492188 16.4375 C 6.621094 16.621094 6.921875 16.625 7.171875 16.453125 C 7.417969 16.277344 7.511719 15.988281 7.382812 15.808594 Z M 7.382812 15.808594 "/>
    <path style=" stroke:none;fill-rule:nonzero;fill:rgb(92.941176%,88.627451%,81.960784%);fill-opacity:1;" d="M 11.292969 2.480469 C 11.121094 2.011719 10.726562 1.722656 10.414062 1.835938 C 10.097656 1.949219 9.984375 2.425781 10.15625 2.894531 C 10.328125 3.367188 10.71875 3.65625 11.035156 3.539062 C 11.347656 3.425781 11.464844 2.953125 11.292969 2.480469 Z M 11.292969 2.480469 "/>
    <path style=" stroke:none;fill-rule:nonzero;fill:rgb(92.941176%,88.627451%,81.960784%);fill-opacity:1;" d="M 13.773438 3.507812 C 13.726562 3.257812 13.550781 3.082031 13.386719 3.113281 C 13.21875 3.148438 13.121094 3.375 13.167969 3.625 C 13.21875 3.875 13.390625 4.050781 13.558594 4.019531 C 13.726562 3.988281 13.820312 3.757812 13.773438 3.507812 Z M 13.773438 3.507812 "/>
    <path style=" stroke:none;fill-rule:nonzero;fill:rgb(82.745098%,59.215686%,43.137255%);fill-opacity:1;" d="M 4.980469 5.703125 L 3.664062 7.695312 C 3.25 8.324219 3.417969 9.167969 4.046875 9.589844 L 4.613281 9.96875 C 5.070312 10.277344 5.664062 10.277344 6.121094 9.972656 L 7.351562 10.796875 C 7.648438 10.996094 8.019531 11.070312 8.371094 11 C 8.726562 10.929688 9.039062 10.71875 9.238281 10.417969 L 9.621094 9.851562 C 10.03125 9.222656 9.863281 8.375 9.238281 7.953125 L 8.019531 7.136719 C 8.136719 6.589844 7.90625 6.023438 7.441406 5.707031 L 6.871094 5.324219 C 6.246094 4.910156 5.398438 5.078125 4.980469 5.703125 Z M 4.980469 5.703125 "/>
    <path style=" stroke:none;fill-rule:nonzero;fill:rgb(53.72549%,40%,29.803922%);fill-opacity:1;" d="M 4.980469 5.703125 C 4.980469 5.703125 5.699219 5.28125 6.425781 5.765625 C 6.636719 5.90625 6.828125 6.03125 6.976562 6.167969 C 7.105469 6.277344 7.445312 6.75 6.800781 7.710938 C 6.046875 8.847656 5.929688 9.570312 5.929688 9.570312 C 5.929688 9.570312 7.003906 7.414062 8.15625 8.039062 C 8.996094 8.507812 10.089844 9.132812 9.238281 10.417969 L 9.617188 9.851562 C 10.03125 9.222656 9.863281 8.375 9.238281 7.953125 L 8.015625 7.136719 C 8.136719 6.585938 7.90625 6.023438 7.441406 5.707031 L 6.871094 5.324219 C 6.246094 4.910156 5.398438 5.078125 4.980469 5.703125 Z M 4.980469 5.703125 "/>
    <use xlink:href="#surface6" mask="url(#mask0)"/>
  </g>
</svg>