<?xml version="1.0" encoding="UTF-8" standalone="yes"?>
<svg xmlns="http://www.w3.org/2000/svg" xmlns:xlink="http://www.w3.org/1999/xlink" width="48px" height="48px" viewBox="0 0 36 36" version="1.1">
  <defs>
    <filter id="alpha" filterUnits="objectBoundingBox" x="0%" y="0%" width="100%" height="100%">
      <feColorMatrix type="matrix" in="SourceGraphic" values="0 0 0 0 1 0 0 0 0 1 0 0 0 0 1 0 0 0 1 0"/>
    </filter>
    <mask id="mask0">
      <g filter="url(#alpha)">
        <rect x="0" y="0" width="36" height="36" style="fill:rgb(0%,0%,0%);fill-opacity:0.8;stroke:none;"/>
      </g>
    </mask>
    <mask id="mask1">
      <g filter="url(#alpha)">
        <rect x="0" y="0" width="36" height="36" style="fill:rgb(0%,0%,0%);fill-opacity:0.8;stroke:none;"/>
      </g>
    </mask>
    <clipPath id="clip1">
      <rect width="36" height="36"/>
    </clipPath>
    <clipPath id="clip2">
      <rect width="36" height="36"/>
    </clipPath>
    <g id="surface6" clip-path="url(#clip1)">
      <path style=" stroke:none;fill-rule:nonzero;fill:rgb(63.137255%,72.156863%,78.039216%);fill-opacity:1;" d="M 16.023438 14.105469 L 19.527344 33.996094 C 19.917969 36.210938 33.578125 33.800781 33.1875 31.585938 L 32.472656 27.527344 C 33.878906 26.429688 34.726562 24.628906 34.851562 23.007812 C 34.972656 21.386719 34.613281 18.238281 34.050781 16.628906 C 33.625 15.414062 31.878906 15.53125 30.417969 15.871094 L 29.683594 11.699219 Z M 32.101562 25.421875 L 30.753906 17.785156 C 31.597656 17.609375 32.425781 17.628906 32.640625 18.257812 C 33.117188 19.640625 33.175781 21.851562 33.070312 23.324219 C 33.019531 24.078125 32.671875 24.828125 32.101562 25.421875 Z M 17.203125 15.175781 L 28.941406 13.105469 L 31.957031 30.222656 C 32.273438 32.015625 20.535156 34.085938 20.21875 32.292969 Z M 17.203125 15.175781 "/>
    </g>
    <g id="surface9" clip-path="url(#clip2)">
      <path style=" stroke:none;fill-rule:nonzero;fill:rgb(63.137255%,72.156863%,78.039216%);fill-opacity:1;" d="M 6.835938 6.261719 L 6.027344 10.851562 C 4.417969 10.476562 2.5 10.347656 2.03125 11.683594 C 1.410156 13.457031 1.015625 16.917969 1.152344 18.699219 C 1.285156 20.484375 2.222656 22.464844 3.765625 23.671875 L 2.980469 28.136719 C 2.550781 30.570312 17.574219 33.21875 18.003906 30.789062 L 21.859375 8.910156 Z M 3.105469 19.046875 C 2.992188 17.425781 3.058594 14.996094 3.582031 13.476562 C 3.820312 12.78125 4.726562 12.765625 5.65625 12.957031 L 4.175781 21.355469 C 3.546875 20.703125 3.164062 19.878906 3.105469 19.046875 Z M 17.246094 28.910156 C 16.894531 30.882812 3.984375 28.609375 4.335938 26.632812 L 7.652344 7.804688 L 20.5625 10.082031 Z M 17.246094 28.910156 "/>
    </g>
  </defs>
  <g id="surface1">
    <use xlink:href="#surface6" mask="url(#mask0)"/>
    <use xlink:href="#surface9" mask="url(#mask1)"/>
    <path style=" stroke:none;fill-rule:nonzero;fill:rgb(99.215686%,71.764706%,24.313725%);fill-opacity:1;" d="M 29.378906 19.160156 L 18.871094 20.992188 L 20.734375 31.628906 C 21.015625 33.234375 31.519531 31.382812 31.234375 29.777344 Z M 29.378906 19.160156 "/>
    <path style=" stroke:none;fill-rule:nonzero;fill:rgb(84.705882%,82.352941%,72.156863%);fill-opacity:1;" d="M 14.949219 14.902344 C 14.78125 12.515625 17.761719 10.839844 19.949219 11.796875 C 20.65625 9.796875 23.289062 9.753906 24.375 10.8125 C 25.300781 10.324219 27.324219 9.945312 28.363281 11.105469 C 30.578125 10.210938 32.421875 13.703125 28.929688 14.085938 C 23.839844 13.242188 18.199219 23.386719 18.199219 23.386719 C 17.25 23.554688 15.960938 23.082031 16.242188 21.566406 C 15.667969 21.644531 14.792969 20.664062 14.980469 19.769531 C 12.710938 19.144531 12.902344 15.515625 14.949219 14.902344 Z M 14.949219 14.902344 "/>
    <path style=" stroke:none;fill-rule:nonzero;fill:rgb(100%,100%,100%);fill-opacity:1;" d="M 15.421875 15.140625 C 15.246094 12.488281 18.761719 11.527344 20.300781 12.167969 C 20.835938 10.664062 23.09375 9.972656 24.429688 11.191406 C 25.128906 10.765625 27.214844 10.308594 28.234375 11.367188 C 30.609375 10.429688 31.738281 14.183594 28.484375 14.113281 L 29.378906 19.160156 L 21.707031 20.496094 C 21.667969 21.042969 20.839844 21.640625 19.910156 21.464844 C 20.09375 22.4375 19.136719 23.289062 18.199219 23.386719 C 17.152344 23.492188 16.28125 22.46875 16.742188 21.316406 C 15.734375 21.308594 15.289062 20.402344 15.523438 19.621094 C 13.34375 19.0625 13.34375 15.589844 15.421875 15.140625 Z M 15.421875 15.140625 "/>
    <path style=" stroke:none;fill-rule:nonzero;fill:rgb(99.607843%,87.843137%,68.627451%);fill-opacity:1;" d="M 26.210938 20.8125 C 27.417969 20.597656 28.5625 21.363281 28.769531 22.519531 C 28.972656 23.679688 28.160156 24.789062 26.949219 25.003906 C 25.742188 25.214844 24.597656 24.449219 24.394531 23.292969 C 24.1875 22.136719 25.003906 21.023438 26.210938 20.8125 Z M 26.210938 20.8125 "/>
    <path style=" stroke:none;fill-rule:nonzero;fill:rgb(99.607843%,87.843137%,68.627451%);fill-opacity:1;" d="M 23.75 25.359375 C 22.84375 25.519531 22.234375 26.355469 22.386719 27.222656 C 22.539062 28.089844 23.398438 28.664062 24.304688 28.503906 C 25.210938 28.34375 25.824219 27.511719 25.671875 26.644531 C 25.515625 25.777344 24.65625 25.199219 23.75 25.359375 Z M 23.75 25.359375 "/>
    <path style=" stroke:none;fill-rule:nonzero;fill:rgb(99.607843%,87.843137%,68.627451%);fill-opacity:1;" d="M 27.335938 26.761719 C 26.730469 26.867188 26.324219 27.421875 26.425781 28 C 26.527344 28.578125 27.101562 28.960938 27.707031 28.855469 C 28.308594 28.75 28.71875 28.195312 28.613281 27.617188 C 28.511719 27.039062 27.941406 26.65625 27.335938 26.761719 Z M 27.335938 26.761719 "/>
    <path style=" stroke:none;fill-rule:nonzero;fill:rgb(99.607843%,87.843137%,68.627451%);fill-opacity:1;" d="M 25.347656 29.714844 C 25.769531 29.640625 26.171875 29.910156 26.242188 30.316406 C 26.316406 30.71875 26.027344 31.109375 25.605469 31.183594 C 25.183594 31.257812 24.78125 30.988281 24.710938 30.585938 C 24.640625 30.179688 24.925781 29.789062 25.347656 29.714844 Z M 25.347656 29.714844 "/>
    <path style=" stroke:none;fill-rule:nonzero;fill:rgb(99.215686%,71.764706%,24.313725%);fill-opacity:1;" d="M 7.171875 14.464844 L 18.726562 16.484375 L 16.679688 28.183594 C 16.367188 29.949219 4.816406 27.914062 5.128906 26.144531 Z M 7.171875 14.464844 "/>
    <path style=" stroke:none;fill-rule:nonzero;fill:rgb(84.705882%,82.352941%,72.156863%);fill-opacity:1;" d="M 23.042969 9.785156 C 23.226562 7.160156 19.949219 5.320312 17.542969 6.371094 C 16.761719 4.167969 13.863281 4.125 12.675781 5.285156 C 11.65625 4.75 9.429688 4.335938 8.285156 5.609375 C 5.851562 4.625 3.824219 8.464844 7.664062 8.886719 C 13.261719 7.957031 19.464844 19.113281 19.464844 19.113281 C 20.511719 19.300781 21.925781 18.78125 21.617188 17.113281 C 22.253906 17.199219 23.210938 16.117188 23.007812 15.136719 C 25.503906 14.449219 25.292969 10.460938 23.042969 9.785156 Z M 23.042969 9.785156 "/>
    <path style=" stroke:none;fill-rule:nonzero;fill:rgb(100%,100%,100%);fill-opacity:1;" d="M 22.523438 10.046875 C 22.714844 7.128906 18.847656 6.070312 17.15625 6.777344 C 16.5625 5.121094 14.082031 4.359375 12.617188 5.703125 C 11.84375 5.234375 9.550781 4.734375 8.429688 5.894531 C 5.820312 4.867188 4.574219 8.992188 8.152344 8.914062 L 7.171875 14.464844 L 15.605469 15.9375 C 15.648438 16.539062 16.5625 17.195312 17.585938 17.003906 C 17.382812 18.074219 18.4375 19.007812 19.464844 19.113281 C 20.617188 19.234375 21.574219 18.105469 21.070312 16.839844 C 22.175781 16.832031 22.667969 15.835938 22.410156 14.976562 C 24.804688 14.359375 24.804688 10.539062 22.523438 10.046875 Z M 22.523438 10.046875 "/>
    <path style=" stroke:none;fill-rule:nonzero;fill:rgb(84.705882%,82.352941%,72.156863%);fill-opacity:1;" d="M 18.382812 8.390625 C 18.5 7.390625 17.699219 6.160156 15.867188 6.523438 C 15.617188 6.089844 15.164062 5.855469 14.375 6.285156 C 15.253906 6.277344 15.570312 6.539062 15.722656 7.015625 C 17.558594 7.03125 17.769531 8.691406 17.769531 8.691406 C 17.769531 8.691406 18.550781 8.746094 18.808594 9.769531 C 19.070312 9.316406 19.035156 8.648438 18.382812 8.390625 Z M 19.398438 12.523438 C 18.0625 11.222656 16.71875 11.820312 16.273438 12.71875 C 15.585938 12.582031 15.191406 13.121094 15.164062 13.644531 C 15.9375 12.925781 16.625 13.304688 16.625 13.304688 C 16.625 13.304688 17.703125 12.027344 19.253906 13.015625 C 19.636719 12.699219 20.046875 12.652344 20.78125 13.136719 C 20.355469 12.347656 19.84375 12.300781 19.398438 12.523438 Z M 19.398438 12.523438 "/>
    <path style=" stroke:none;fill-rule:nonzero;fill:rgb(99.607843%,87.843137%,68.627451%);fill-opacity:1;" d="M 10.65625 16.285156 C 9.324219 16.046875 8.066406 16.890625 7.84375 18.164062 C 7.617188 19.4375 8.511719 20.660156 9.84375 20.894531 C 11.167969 21.128906 12.429688 20.285156 12.652344 19.011719 C 12.878906 17.738281 11.984375 16.519531 10.65625 16.285156 Z M 10.65625 16.285156 "/>
    <path style=" stroke:none;fill-rule:nonzero;fill:rgb(99.607843%,87.843137%,68.627451%);fill-opacity:1;" d="M 13.359375 21.285156 C 12.359375 21.109375 11.417969 21.742188 11.25 22.695312 C 11.082031 23.652344 11.753906 24.566406 12.75 24.742188 C 13.746094 24.917969 14.691406 24.285156 14.859375 23.332031 C 15.027344 22.375 14.355469 21.460938 13.359375 21.285156 Z M 13.359375 21.285156 "/>
    <path style=" stroke:none;fill-rule:nonzero;fill:rgb(99.607843%,87.843137%,68.627451%);fill-opacity:1;" d="M 9.417969 22.828125 C 8.753906 22.707031 8.125 23.128906 8.011719 23.765625 C 7.902344 24.402344 8.347656 25.011719 9.011719 25.128906 C 9.679688 25.246094 10.308594 24.828125 10.417969 24.191406 C 10.53125 23.554688 10.082031 22.941406 9.417969 22.828125 Z M 11.605469 26.078125 C 11.136719 25.996094 10.699219 26.292969 10.617188 26.738281 C 10.539062 27.183594 10.855469 27.609375 11.320312 27.691406 C 11.785156 27.773438 12.226562 27.480469 12.304688 27.035156 C 12.382812 26.589844 12.070312 26.160156 11.605469 26.078125 Z M 11.605469 26.078125 "/>
    <path style=" stroke:none;fill-rule:nonzero;fill:rgb(25.882353%,67.843137%,88.627451%);fill-opacity:1;" d="M 25.019531 8.3125 L 30.414062 3.648438 L 27.839844 1.820312 Z M 27.5 9.273438 L 32.625 10.414062 L 32.625 7.699219 Z M 23.246094 6.59375 L 24.519531 1.125 L 21.753906 1.125 Z M 23.246094 6.59375 "/>
  </g>
</svg>