<?xml version="1.0" encoding="UTF-8" standalone="yes"?>
<svg xmlns="http://www.w3.org/2000/svg" xmlns:xlink="http://www.w3.org/1999/xlink" width="48px" height="48px" viewBox="0 0 36 36" version="1.1">
  <g id="surface1">
    <path style=" stroke:none;fill-rule:nonzero;fill:rgb(100%,90.980392%,65.098039%);fill-opacity:1;" d="M 23.398438 1.210938 C 20.566406 2.601562 18.117188 4.796875 16.449219 7.691406 C 15.59375 9.175781 14.984375 10.785156 14.640625 12.460938 C 14.191406 14.679688 14.574219 17.808594 18.480469 16.742188 C 20.574219 16.171875 22.597656 19.933594 18.679688 21 C 17.550781 21.308594 21.339844 22.199219 18.445312 23.753906 C 18.445312 23.753906 21.53125 24.507812 19.652344 25.949219 C 18.800781 26.601562 19.765625 27.714844 20.253906 28.117188 C 21.066406 28.792969 21.945312 29.394531 22.871094 29.90625 C 25.507812 31.371094 28.484375 32.109375 31.5 32.046875 C 26.257812 35.464844 19.257812 35.925781 13.359375 32.652344 C 5.023438 28.03125 2.042969 17.722656 6.699219 9.628906 C 10.144531 3.648438 16.796875 0.554688 23.398438 1.210938 Z M 23.398438 1.210938 "/>
    <path style=" stroke:none;fill-rule:nonzero;fill:rgb(95.686275%,86.27451%,62.352941%);fill-opacity:1;" d="M 11.871094 26.707031 C 12.699219 26.480469 13.558594 26.957031 13.785156 27.765625 C 14.015625 28.578125 13.53125 29.417969 12.707031 29.644531 C 11.878906 29.871094 11.023438 29.394531 10.792969 28.585938 C 10.5625 27.773438 11.046875 26.929688 11.871094 26.707031 Z M 9.613281 8.4375 C 10.441406 8.210938 11.296875 8.6875 11.527344 9.5 C 11.757812 10.3125 11.273438 11.152344 10.445312 11.378906 C 9.617188 11.601562 8.761719 11.128906 8.53125 10.316406 C 8.300781 9.503906 8.789062 8.664062 9.613281 8.4375 Z M 16.804688 27.292969 C 18.171875 26.921875 19.589844 27.707031 19.96875 29.050781 C 20.351562 30.394531 19.550781 31.785156 18.179688 32.160156 C 16.8125 32.53125 15.394531 31.746094 15.011719 30.402344 C 14.632812 29.058594 15.433594 27.667969 16.804688 27.292969 Z M 7.246094 17.492188 C 8.6875 17.097656 10.179688 17.925781 10.582031 19.339844 C 10.980469 20.753906 10.136719 22.21875 8.699219 22.613281 C 7.257812 23.003906 5.765625 22.175781 5.363281 20.761719 C 4.964844 19.347656 5.808594 17.886719 7.246094 17.492188 Z M 22.347656 31.019531 C 23.003906 30.84375 23.683594 31.21875 23.867188 31.863281 C 24.050781 32.507812 23.667969 33.175781 23.007812 33.351562 C 22.355469 33.53125 21.675781 33.15625 21.492188 32.511719 C 21.308594 31.867188 21.695312 31.203125 22.347656 31.019531 Z M 14.339844 4.160156 C 14.855469 4.019531 15.386719 4.3125 15.527344 4.820312 C 15.597656 5.0625 15.5625 5.324219 15.4375 5.542969 C 15.3125 5.761719 15.101562 5.921875 14.855469 5.984375 C 14.34375 6.125 13.8125 5.828125 13.667969 5.324219 C 13.527344 4.820312 13.828125 4.300781 14.339844 4.160156 Z M 14.339844 4.160156 "/>
    <path style=" stroke:none;fill-rule:nonzero;fill:rgb(49.803922%,33.72549%,16.078431%);fill-opacity:1;" d="M 10.390625 23.472656 C 10.664062 23.699219 10.972656 23.824219 11.300781 23.90625 C 11.625 23.992188 11.957031 24.035156 12.292969 24.0625 C 12.964844 24.117188 13.644531 24.117188 14.328125 24.085938 C 15.691406 24.039062 17.050781 23.894531 18.445312 23.753906 C 17.804688 24.050781 17.125 24.246094 16.4375 24.390625 C 15.75 24.535156 15.050781 24.621094 14.347656 24.648438 C 13.644531 24.667969 12.929688 24.644531 12.230469 24.496094 C 11.875 24.429688 11.53125 24.316406 11.203125 24.164062 C 10.882812 24.003906 10.566406 23.78125 10.390625 23.472656 Z M 10.390625 23.472656 "/>
    <path style=" stroke:none;fill-rule:nonzero;fill:rgb(71.764706%,60%,9.411765%);fill-opacity:1;" d="M 14.941406 26.332031 C 15.539062 25.9375 16.21875 25.746094 16.921875 25.671875 C 17.269531 25.644531 17.628906 25.648438 17.984375 25.726562 C 18.335938 25.800781 18.703125 25.949219 18.933594 26.234375 C 18.582031 26.15625 18.265625 26.15625 17.941406 26.164062 C 17.621094 26.175781 17.296875 26.199219 16.96875 26.230469 C 16.3125 26.28125 15.65625 26.367188 14.941406 26.332031 Z M 14.941406 26.332031 "/>
    <path style=" stroke:none;fill-rule:nonzero;fill:rgb(49.803922%,33.72549%,16.078431%);fill-opacity:1;" d="M 16.574219 21.09375 C 16.539062 20.898438 16.621094 20.679688 16.777344 20.53125 C 16.929688 20.375 17.121094 20.304688 17.289062 20.253906 C 17.640625 20.171875 17.960938 20.164062 18.34375 20.289062 C 18.078125 20.59375 17.738281 20.710938 17.433594 20.796875 L 17.019531 20.894531 C 16.863281 20.941406 16.714844 21.007812 16.574219 21.09375 Z M 16.574219 21.09375 "/>
    <path style=" stroke:none;fill-rule:nonzero;fill:rgb(100%,100%,100%);fill-opacity:1;" d="M 11.222656 12.945312 C 9.691406 13.363281 8.554688 14.984375 8.980469 16.484375 C 9.40625 17.988281 11.230469 18.800781 12.761719 18.382812 C 14.292969 17.964844 13.980469 16.738281 13.554688 15.238281 C 13.125 13.734375 12.75 12.527344 11.222656 12.945312 Z M 11.222656 12.945312 "/>
    <path style=" stroke:none;fill-rule:nonzero;fill:rgb(49.803922%,33.72549%,16.078431%);fill-opacity:1;" d="M 11.949219 13.84375 C 10.996094 14.105469 10.1875 15.144531 10.453125 16.082031 C 10.71875 17.023438 11.957031 17.503906 12.914062 17.242188 C 13.867188 16.980469 13.664062 16.21875 13.398438 15.277344 C 13.132812 14.339844 12.90625 13.582031 11.949219 13.84375 Z M 11.949219 13.84375 "/>
    <path style=" stroke:none;fill-rule:nonzero;fill:rgb(71.764706%,60%,9.411765%);fill-opacity:1;" d="M 15.117188 19.820312 C 14.933594 20.488281 14.34375 20.964844 13.804688 21.34375 C 13.25 21.730469 12.652344 22.03125 12.070312 22.335938 C 11.484375 22.632812 10.90625 22.921875 10.375 23.269531 C 9.859375 23.617188 9.347656 24.042969 9.300781 24.734375 C 9.199219 24.410156 9.265625 24.035156 9.433594 23.71875 C 9.601562 23.40625 9.84375 23.144531 10.105469 22.917969 C 10.632812 22.46875 11.230469 22.144531 11.816406 21.835938 L 13.582031 20.96875 C 14.148438 20.660156 14.726562 20.367188 15.117188 19.820312 Z M 15.117188 19.820312 "/>
  </g>
</svg>