<?xml version="1.0" encoding="UTF-8" standalone="yes"?>
<svg xmlns="http://www.w3.org/2000/svg" xmlns:xlink="http://www.w3.org/1999/xlink" width="48px" height="48px" viewBox="0 0 36 36" version="1.1">
  <g id="surface1">
    <path style=" stroke:none;fill-rule:nonzero;fill:rgb(100%,90.980392%,65.098039%);fill-opacity:1;" d="M 34.875 18 C 34.875 27.320312 27.320312 34.875 18 34.875 C 8.679688 34.875 1.125 27.320312 1.125 18 C 1.125 8.679688 8.679688 1.125 18 1.125 C 27.320312 1.125 34.875 8.679688 34.875 18 Z M 34.875 18 "/>
    <path style=" stroke:none;fill-rule:nonzero;fill:rgb(95.686275%,86.27451%,62.352941%);fill-opacity:1;" d="M 32.0625 19.828125 C 32.0625 22.003906 30.300781 23.765625 28.125 23.765625 C 25.949219 23.765625 24.1875 22.003906 24.1875 19.828125 C 24.1875 17.652344 25.949219 15.890625 28.125 15.890625 C 30.300781 15.890625 32.0625 17.652344 32.0625 19.828125 Z M 32.0625 19.828125 "/>
    <path style=" stroke:none;fill-rule:nonzero;fill:rgb(95.686275%,86.27451%,62.352941%);fill-opacity:1;" d="M 13.566406 21.964844 C 13.566406 23.828125 12.054688 25.339844 10.191406 25.339844 C 8.328125 25.339844 6.816406 23.828125 6.816406 21.964844 C 6.816406 20.101562 8.328125 18.589844 10.191406 18.589844 C 12.054688 18.589844 13.566406 20.101562 13.566406 21.964844 Z M 13.566406 21.964844 "/>
    <path style=" stroke:none;fill-rule:nonzero;fill:rgb(95.686275%,86.27451%,62.352941%);fill-opacity:1;" d="M 18.652344 28.152344 C 18.652344 30.949219 16.382812 33.214844 13.589844 33.214844 C 10.792969 33.214844 8.527344 30.949219 8.527344 28.152344 C 8.527344 25.355469 10.792969 23.089844 13.589844 23.089844 C 16.382812 23.089844 18.652344 25.355469 18.652344 28.152344 Z M 18.652344 28.152344 "/>
    <path style=" stroke:none;fill-rule:nonzero;fill:rgb(95.686275%,86.27451%,62.352941%);fill-opacity:1;" d="M 15.75 9.703125 C 15.75 10.945312 14.742188 11.953125 13.5 11.953125 C 12.257812 11.953125 11.25 10.945312 11.25 9.703125 C 11.25 8.460938 12.257812 7.453125 13.5 7.453125 C 14.742188 7.453125 15.75 8.460938 15.75 9.703125 Z M 15.75 9.703125 "/>
    <path style=" stroke:none;fill-rule:nonzero;fill:rgb(95.686275%,86.27451%,62.352941%);fill-opacity:1;" d="M 23.0625 10.265625 C 23.0625 11.507812 22.054688 12.515625 20.8125 12.515625 C 19.570312 12.515625 18.5625 11.507812 18.5625 10.265625 C 18.5625 9.023438 19.570312 8.015625 20.8125 8.015625 C 22.054688 8.015625 23.0625 9.023438 23.0625 10.265625 Z M 23.0625 10.265625 "/>
    <path style=" stroke:none;fill-rule:nonzero;fill:rgb(95.686275%,86.27451%,62.352941%);fill-opacity:1;" d="M 9.066406 14.582031 C 9.066406 15.824219 8.058594 16.832031 6.816406 16.832031 C 5.574219 16.832031 4.566406 15.824219 4.566406 14.582031 C 4.566406 13.339844 5.574219 12.332031 6.816406 12.332031 C 8.058594 12.332031 9.066406 13.339844 9.066406 14.582031 Z M 9.066406 14.582031 "/>
    <path style=" stroke:none;fill-rule:nonzero;fill:rgb(95.686275%,86.27451%,62.352941%);fill-opacity:1;" d="M 23.0625 5.203125 C 23.0625 5.824219 22.558594 6.328125 21.9375 6.328125 C 21.316406 6.328125 20.8125 5.824219 20.8125 5.203125 C 20.8125 4.582031 21.316406 4.078125 21.9375 4.078125 C 22.558594 4.078125 23.0625 4.582031 23.0625 5.203125 Z M 23.0625 5.203125 "/>
    <path style=" stroke:none;fill-rule:nonzero;fill:rgb(95.686275%,86.27451%,62.352941%);fill-opacity:1;" d="M 5.691406 21.964844 C 5.691406 22.585938 5.1875 23.089844 4.566406 23.089844 C 3.945312 23.089844 3.441406 22.585938 3.441406 21.964844 C 3.441406 21.34375 3.945312 20.839844 4.566406 20.839844 C 5.1875 20.839844 5.691406 21.34375 5.691406 21.964844 Z M 5.691406 21.964844 "/>
    <path style=" stroke:none;fill-rule:nonzero;fill:rgb(95.686275%,86.27451%,62.352941%);fill-opacity:1;" d="M 30.375 28.152344 C 30.375 28.773438 29.871094 29.277344 29.25 29.277344 C 28.628906 29.277344 28.125 28.773438 28.125 28.152344 C 28.125 27.53125 28.628906 27.027344 29.25 27.027344 C 29.871094 27.027344 30.375 27.53125 30.375 28.152344 Z M 30.375 28.152344 "/>
    <path style=" stroke:none;fill-rule:nonzero;fill:rgb(95.686275%,86.27451%,62.352941%);fill-opacity:1;" d="M 15.75 16.832031 C 15.75 17.761719 14.992188 18.519531 14.0625 18.519531 C 13.128906 18.519531 12.375 17.761719 12.375 16.832031 C 12.375 15.898438 13.128906 15.144531 14.0625 15.144531 C 14.992188 15.144531 15.75 15.898438 15.75 16.832031 Z M 15.75 16.832031 "/>
    <path style=" stroke:none;fill-rule:nonzero;fill:rgb(95.686275%,86.27451%,62.352941%);fill-opacity:1;" d="M 9.5625 8.859375 C 9.5625 9.480469 9.058594 9.984375 8.4375 9.984375 C 7.816406 9.984375 7.3125 9.480469 7.3125 8.859375 C 7.3125 8.238281 7.816406 7.734375 8.4375 7.734375 C 9.058594 7.734375 9.5625 8.238281 9.5625 8.859375 Z M 9.5625 8.859375 "/>
    <path style=" stroke:none;fill-rule:nonzero;fill:rgb(95.686275%,86.27451%,62.352941%);fill-opacity:1;" d="M 28.125 29.601562 C 28.125 30.84375 27.117188 31.851562 25.875 31.851562 C 24.632812 31.851562 23.625 30.84375 23.625 29.601562 C 23.625 28.359375 24.632812 27.351562 25.875 27.351562 C 27.117188 27.351562 28.125 28.359375 28.125 29.601562 Z M 28.125 29.601562 "/>
    <path style=" stroke:none;fill-rule:nonzero;fill:rgb(95.686275%,86.27451%,62.352941%);fill-opacity:1;" d="M 13.589844 6.046875 C 13.617188 7.578125 14.871094 8.804688 16.402344 8.804688 C 17.933594 8.804688 19.183594 7.578125 19.214844 6.046875 C 19.214844 4.492188 17.953125 3.234375 16.402344 3.234375 C 14.847656 3.234375 13.589844 4.492188 13.589844 6.046875 Z M 13.589844 6.046875 "/>
    <path style=" stroke:none;fill-rule:nonzero;fill:rgb(50.980392%,46.666667%,9.019608%);fill-opacity:1;" d="M 20.8125 21.910156 C 18.851562 24.671875 14.460938 24.640625 15.289062 19.808594 C 15.613281 17.929688 16.542969 12.515625 16.542969 12.515625 L 16.542969 18.484375 C 16.542969 22.800781 17.71875 22.632812 20.8125 21.910156 Z M 20.8125 21.910156 "/>
    <path style=" stroke:none;fill-rule:nonzero;fill:rgb(50.980392%,46.666667%,9.019608%);fill-opacity:1;" d="M 24.066406 24.707031 C 20.15625 27.433594 15.820312 27.417969 11.933594 24.707031 C 11.464844 24.382812 11.042969 24.945312 11.359375 25.46875 C 12.542969 27.421875 14.9375 29.15625 18 29.15625 C 21.0625 29.15625 23.457031 27.421875 24.640625 25.46875 C 24.957031 24.945312 24.535156 24.382812 24.066406 24.707031 Z M 24.066406 24.707031 "/>
    <path style=" stroke:none;fill-rule:nonzero;fill:rgb(50.980392%,46.666667%,9.019608%);fill-opacity:1;" d="M 21.605469 13.921875 C 23.695312 17.867188 27.90625 17.867188 29.996094 13.921875 C 30.101562 13.722656 29.828125 13.632812 29.496094 13.40625 C 27.398438 15.054688 24.007812 14.902344 22.105469 13.40625 C 21.773438 13.632812 21.503906 13.722656 21.605469 13.921875 Z M 6 13.921875 C 8.09375 17.867188 12.304688 17.867188 14.394531 13.921875 C 14.5 13.722656 14.226562 13.632812 13.894531 13.40625 C 11.796875 15.054688 8.40625 14.902344 6.503906 13.40625 C 6.171875 13.632812 5.898438 13.722656 6 13.921875 Z M 6 13.921875 "/>
  </g>
</svg>