<?xml version="1.0" encoding="UTF-8" standalone="yes"?>
<svg xmlns="http://www.w3.org/2000/svg" xmlns:xlink="http://www.w3.org/1999/xlink" width="48px" height="48px" viewBox="0 0 36 36" version="1.1">
  <g id="surface1">
    <path style=" stroke:none;fill-rule:nonzero;fill:rgb(100%,90.196078%,18.039216%);fill-opacity:1;" d="M 11.542969 33.589844 L 15.496094 29.539062 C 14.113281 29.242188 12.796875 28.695312 11.609375 27.925781 Z M 24.457031 2.410156 L 20.507812 6.460938 C 21.886719 6.757812 23.203125 7.304688 24.390625 8.074219 Z M 2.410156 24.457031 L 8.074219 24.386719 C 7.304688 23.203125 6.757812 21.886719 6.460938 20.503906 Z M 33.589844 11.542969 L 27.925781 11.613281 C 28.691406 12.796875 29.238281 14.113281 29.539062 15.496094 Z M 2.410156 11.542969 L 6.460938 15.496094 C 6.757812 14.113281 7.304688 12.796875 8.074219 11.609375 Z M 33.589844 24.457031 L 29.539062 20.503906 C 29.238281 21.886719 28.691406 23.203125 27.925781 24.390625 Z M 11.542969 2.410156 L 11.609375 8.074219 C 12.796875 7.304688 14.113281 6.757812 15.496094 6.460938 Z M 24.457031 33.589844 L 24.386719 27.925781 C 23.203125 28.695312 21.886719 29.242188 20.503906 29.539062 Z M 24.457031 33.589844 "/>
    <path style=" stroke:none;fill-rule:nonzero;fill:rgb(100%,80.784314%,19.215686%);fill-opacity:1;" d="M 8.296875 24.730469 L 6.066406 29.933594 L 11.269531 27.703125 C 10.109375 26.894531 9.105469 25.890625 8.296875 24.730469 Z M 27.703125 11.273438 L 29.933594 6.066406 L 24.730469 8.296875 C 25.890625 9.105469 26.894531 10.113281 27.703125 11.273438 Z M 6.386719 15.894531 L 1.125 18 L 6.386719 20.101562 C 6.261719 19.417969 6.1875 18.71875 6.1875 18 C 6.1875 17.28125 6.261719 16.582031 6.386719 15.894531 Z M 29.613281 20.105469 L 34.875 18 L 29.613281 15.894531 C 29.738281 16.582031 29.8125 17.28125 29.8125 18 C 29.8125 18.71875 29.738281 19.421875 29.613281 20.105469 Z M 11.273438 8.296875 L 6.066406 6.066406 L 8.296875 11.269531 C 9.105469 10.109375 10.113281 9.105469 11.273438 8.296875 Z M 24.726562 27.703125 L 29.933594 29.933594 L 27.703125 24.730469 C 26.894531 25.886719 25.886719 26.894531 24.726562 27.703125 Z M 20.105469 6.386719 L 18 1.125 L 15.894531 6.386719 C 16.589844 6.257812 17.292969 6.191406 18 6.1875 C 18.71875 6.1875 19.421875 6.261719 20.105469 6.386719 Z M 15.894531 29.613281 L 18 34.875 L 20.105469 29.613281 C 19.410156 29.742188 18.707031 29.808594 18 29.8125 C 17.28125 29.8125 16.578125 29.738281 15.894531 29.613281 Z M 15.894531 29.613281 "/>
    <path style=" stroke:none;fill-rule:nonzero;fill:rgb(100%,80.784314%,19.215686%);fill-opacity:1;" d="M 28.6875 18 C 28.6875 23.902344 23.902344 28.6875 18 28.6875 C 12.097656 28.6875 7.3125 23.902344 7.3125 18 C 7.3125 12.097656 12.097656 7.3125 18 7.3125 C 23.902344 7.3125 28.6875 12.097656 28.6875 18 Z M 28.6875 18 "/>
  </g>
</svg>