<?xml version="1.0" encoding="UTF-8" standalone="yes"?>
<svg xmlns="http://www.w3.org/2000/svg" xmlns:xlink="http://www.w3.org/1999/xlink" width="48px" height="48px" viewBox="0 0 36 36" version="1.1">
  <g id="surface1">
    <path style=" stroke:none;fill-rule:nonzero;fill:rgb(45.882353%,83.921569%,100%);fill-opacity:1;" d="M 34.03125 17.15625 L 30.152344 17.15625 L 32.488281 14.816406 C 32.710938 14.605469 32.796875 14.292969 32.71875 13.996094 C 32.644531 13.703125 32.414062 13.472656 32.117188 13.394531 C 31.824219 13.316406 31.507812 13.40625 31.296875 13.625 L 27.765625 17.15625 L 25.121094 17.15625 L 26.523438 15.753906 C 26.742188 15.542969 26.832031 15.226562 26.753906 14.933594 C 26.675781 14.636719 26.445312 14.40625 26.152344 14.332031 C 25.855469 14.253906 25.542969 14.339844 25.332031 14.558594 L 22.734375 17.15625 L 20.035156 17.15625 L 25.125 12.070312 L 30.117188 12.070312 C 30.585938 12.070312 30.960938 11.691406 30.960938 11.226562 C 30.960938 10.757812 30.585938 10.382812 30.117188 10.382812 L 26.8125 10.382812 L 29.933594 7.261719 C 30.152344 7.050781 30.238281 6.734375 30.164062 6.441406 C 30.085938 6.144531 29.855469 5.914062 29.558594 5.835938 C 29.265625 5.761719 28.949219 5.847656 28.738281 6.066406 L 25.617188 9.1875 L 25.617188 5.882812 C 25.617188 5.414062 25.242188 5.039062 24.773438 5.039062 C 24.308594 5.039062 23.929688 5.414062 23.929688 5.882812 L 23.929688 10.875 L 18.84375 15.964844 L 18.84375 13.265625 L 21.441406 10.667969 C 21.660156 10.457031 21.746094 10.144531 21.667969 9.847656 C 21.59375 9.554688 21.363281 9.324219 21.066406 9.246094 C 20.773438 9.167969 20.457031 9.257812 20.246094 9.476562 L 18.84375 10.878906 L 18.84375 8.234375 L 22.375 4.703125 C 22.59375 4.492188 22.683594 4.175781 22.605469 3.882812 C 22.527344 3.585938 22.296875 3.355469 22.003906 3.28125 C 21.707031 3.203125 21.394531 3.289062 21.183594 3.511719 L 18.84375 5.847656 L 18.84375 1.96875 C 18.84375 1.503906 18.464844 1.125 18 1.125 C 17.535156 1.125 17.15625 1.503906 17.15625 1.96875 L 17.15625 5.847656 L 14.816406 3.507812 C 14.605469 3.289062 14.292969 3.203125 13.996094 3.28125 C 13.703125 3.355469 13.472656 3.585938 13.394531 3.882812 C 13.316406 4.175781 13.40625 4.492188 13.625 4.703125 L 17.15625 8.234375 L 17.15625 10.878906 L 15.753906 9.476562 C 15.542969 9.257812 15.226562 9.167969 14.933594 9.246094 C 14.636719 9.324219 14.40625 9.554688 14.332031 9.847656 C 14.253906 10.144531 14.339844 10.457031 14.558594 10.667969 L 17.15625 13.265625 L 17.15625 15.960938 L 12.070312 10.875 L 12.070312 5.882812 C 12.070312 5.414062 11.691406 5.039062 11.226562 5.039062 C 10.757812 5.039062 10.382812 5.414062 10.382812 5.882812 L 10.382812 9.1875 L 7.261719 6.066406 C 7.050781 5.847656 6.734375 5.761719 6.441406 5.835938 C 6.144531 5.914062 5.914062 6.144531 5.835938 6.441406 C 5.761719 6.734375 5.847656 7.046875 6.066406 7.261719 L 9.1875 10.382812 L 5.882812 10.382812 C 5.414062 10.382812 5.039062 10.757812 5.039062 11.226562 C 5.039062 11.691406 5.414062 12.070312 5.882812 12.070312 L 10.875 12.070312 L 15.964844 17.15625 L 13.265625 17.15625 L 10.667969 14.558594 C 10.457031 14.339844 10.144531 14.253906 9.847656 14.328125 C 9.554688 14.40625 9.324219 14.636719 9.246094 14.933594 C 9.167969 15.226562 9.257812 15.539062 9.476562 15.753906 L 10.878906 17.15625 L 8.234375 17.15625 L 4.703125 13.625 C 4.492188 13.40625 4.179688 13.316406 3.882812 13.394531 C 3.589844 13.472656 3.359375 13.703125 3.28125 13.996094 C 3.203125 14.292969 3.292969 14.605469 3.511719 14.816406 L 5.847656 17.15625 L 1.96875 17.15625 C 1.503906 17.15625 1.125 17.535156 1.125 18 C 1.125 18.464844 1.503906 18.84375 1.96875 18.84375 L 5.847656 18.84375 L 3.511719 21.183594 C 3.179688 21.511719 3.179688 22.046875 3.511719 22.375 C 3.839844 22.703125 4.375 22.703125 4.703125 22.375 L 8.234375 18.84375 L 10.878906 18.84375 L 9.476562 20.246094 C 9.148438 20.578125 9.148438 21.109375 9.476562 21.441406 C 9.804688 21.769531 10.339844 21.769531 10.671875 21.441406 L 13.265625 18.84375 L 15.964844 18.84375 L 10.875 23.929688 L 5.882812 23.929688 C 5.417969 23.929688 5.039062 24.308594 5.039062 24.773438 C 5.039062 25.242188 5.417969 25.617188 5.882812 25.617188 L 9.1875 25.617188 L 6.066406 28.738281 C 5.738281 29.070312 5.738281 29.601562 6.070312 29.933594 C 6.398438 30.261719 6.933594 30.261719 7.261719 29.933594 L 10.382812 26.8125 L 10.382812 30.117188 C 10.382812 30.585938 10.761719 30.960938 11.226562 30.960938 C 11.691406 30.960938 12.070312 30.585938 12.070312 30.117188 L 12.070312 25.125 L 17.15625 20.035156 L 17.15625 22.734375 L 14.5625 25.332031 C 14.230469 25.660156 14.230469 26.195312 14.5625 26.523438 C 14.890625 26.851562 15.425781 26.851562 15.753906 26.523438 L 17.15625 25.121094 L 17.15625 27.765625 L 13.625 31.296875 C 13.296875 31.625 13.296875 32.160156 13.625 32.488281 C 13.957031 32.820312 14.492188 32.820312 14.820312 32.488281 L 17.160156 30.152344 L 17.160156 34.03125 C 17.160156 34.496094 17.535156 34.875 18.003906 34.875 C 18.46875 34.875 18.847656 34.496094 18.847656 34.03125 L 18.847656 30.152344 L 21.183594 32.488281 C 21.347656 32.65625 21.566406 32.738281 21.78125 32.738281 C 21.996094 32.738281 22.214844 32.65625 22.378906 32.488281 C 22.707031 32.160156 22.707031 31.625 22.378906 31.296875 L 18.84375 27.765625 L 18.84375 25.121094 L 20.246094 26.523438 C 20.410156 26.6875 20.628906 26.769531 20.84375 26.769531 C 21.058594 26.769531 21.277344 26.6875 21.441406 26.523438 C 21.769531 26.195312 21.769531 25.660156 21.441406 25.332031 L 18.84375 22.734375 L 18.84375 20.035156 L 23.929688 25.125 L 23.929688 30.117188 C 23.929688 30.585938 24.308594 30.960938 24.773438 30.960938 C 25.242188 30.960938 25.617188 30.585938 25.617188 30.117188 L 25.617188 26.8125 L 28.738281 29.933594 C 28.902344 30.097656 29.121094 30.179688 29.335938 30.179688 C 29.550781 30.179688 29.769531 30.097656 29.933594 29.933594 C 30.261719 29.601562 30.261719 29.070312 29.933594 28.738281 L 26.8125 25.617188 L 30.117188 25.617188 C 30.585938 25.617188 30.960938 25.242188 30.960938 24.773438 C 30.960938 24.308594 30.585938 23.929688 30.117188 23.929688 L 25.125 23.929688 L 20.035156 18.84375 L 22.734375 18.84375 L 25.332031 21.441406 C 25.496094 21.605469 25.710938 21.6875 25.925781 21.6875 C 26.144531 21.6875 26.359375 21.605469 26.523438 21.441406 C 26.851562 21.109375 26.851562 20.574219 26.523438 20.246094 L 25.121094 18.84375 L 27.765625 18.84375 L 31.296875 22.375 C 31.460938 22.539062 31.675781 22.621094 31.894531 22.621094 C 32.109375 22.621094 32.324219 22.539062 32.488281 22.375 C 32.820312 22.046875 32.820312 21.511719 32.488281 21.183594 L 30.152344 18.84375 L 34.03125 18.84375 C 34.496094 18.84375 34.875 18.464844 34.875 18 C 34.875 17.535156 34.496094 17.15625 34.03125 17.15625 Z M 34.03125 17.15625 "/>
  </g>
</svg>