<?xml version="1.0" encoding="UTF-8" standalone="yes"?>
<svg xmlns="http://www.w3.org/2000/svg" xmlns:xlink="http://www.w3.org/1999/xlink" width="48px" height="48px" viewBox="0 0 36 36" version="1.1">
  <defs>
    <filter id="alpha" filterUnits="objectBoundingBox" x="0%" y="0%" width="100%" height="100%">
      <feColorMatrix type="matrix" in="SourceGraphic" values="0 0 0 0 1 0 0 0 0 1 0 0 0 0 1 0 0 0 1 0"/>
    </filter>
    <mask id="mask0">
      <g filter="url(#alpha)">
        <rect x="0" y="0" width="36" height="36" style="fill:rgb(0%,0%,0%);fill-opacity:0.301961;stroke:none;"/>
      </g>
    </mask>
    <mask id="mask1">
      <g filter="url(#alpha)">
        <rect x="0" y="0" width="36" height="36" style="fill:rgb(0%,0%,0%);fill-opacity:0.301961;stroke:none;"/>
      </g>
    </mask>
    <clipPath id="clip1">
      <rect width="36" height="36"/>
    </clipPath>
    <clipPath id="clip2">
      <rect width="36" height="36"/>
    </clipPath>
    <g id="surface6" clip-path="url(#clip1)">
      <path style=" stroke:none;fill-rule:nonzero;fill:rgb(0%,0%,0%);fill-opacity:1;" d="M 17.921875 17.03125 L 17.921875 20.015625 L 32.398438 15.070312 C 32.804688 13.804688 33.285156 12.621094 33.871094 11.621094 Z M 17.921875 17.03125 "/>
    </g>
    <g id="surface9" clip-path="url(#clip2)">
      <path style=" stroke:none;fill-rule:nonzero;fill:rgb(0%,0%,0%);fill-opacity:1;" d="M 3.457031 15.273438 C 3.171875 14.222656 2.816406 13.191406 2.394531 12.1875 L 17.921875 17.03125 L 17.921875 20.015625 Z M 3.457031 15.273438 "/>
    </g>
  </defs>
  <g id="surface1">
    <path style=" stroke:none;fill-rule:nonzero;fill:rgb(2.745098%,38.039216%,43.921569%);fill-opacity:1;" d="M 17.921875 17.03125 L 17.921875 34.875 C 17.921875 34.875 25.261719 29.707031 30.4375 28.171875 C 30.4375 28.171875 30.648438 17.152344 33.871094 11.621094 Z M 17.921875 17.03125 "/>
    <path style=" stroke:none;fill-rule:nonzero;fill:rgb(70.196078%,41.176471%,5.490196%);fill-opacity:1;" d="M 22.5625 32.148438 C 22.5625 32.148438 22.871094 16.34375 23.425781 15.527344 C 23.980469 14.707031 28.851562 13.859375 28.851562 13.859375 C 28.851562 13.859375 26.859375 28.660156 27.363281 29.601562 C 27.363281 29.601562 25.328125 30.453125 22.5625 32.148438 Z M 22.5625 32.148438 "/>
    <path style=" stroke:none;fill-rule:nonzero;fill:rgb(23.137255%,66.666667%,81.176471%);fill-opacity:1;" d="M 17.921875 34.875 C 17.921875 34.875 12.746094 30.515625 4.714844 28.171875 C 4.714844 28.171875 5.351562 19.128906 2.390625 12.1875 L 17.921875 17.03125 Z M 17.921875 34.875 "/>
    <path style=" stroke:none;fill-rule:nonzero;fill:rgb(91.372549%,76.078431%,26.27451%);fill-opacity:1;" d="M 7.976562 29.636719 C 7.976562 29.636719 12.691406 31.574219 13.046875 32.148438 C 13.40625 32.726562 13.363281 16.253906 13.363281 16.253906 C 13.363281 16.253906 6.910156 14.46875 6.355469 14.46875 C 6.355469 14.46875 8.335938 21.128906 7.976562 29.636719 Z M 7.976562 29.636719 "/>
    <path style=" stroke:none;fill-rule:nonzero;fill:rgb(30.980392%,78.039216%,90.980392%);fill-opacity:1;" d="M 1.125 10.613281 L 17.179688 14.164062 L 34.875 9.925781 L 17.484375 8.957031 Z M 1.125 10.613281 "/>
    <path style=" stroke:none;fill-rule:nonzero;fill:rgb(23.137255%,66.666667%,81.176471%);fill-opacity:1;" d="M 1.125 10.613281 L 2.390625 14.164062 L 17.179688 18.324219 L 17.179688 14.164062 Z M 1.125 10.613281 "/>
    <path style=" stroke:none;fill-rule:nonzero;fill:rgb(2.745098%,38.039216%,43.921569%);fill-opacity:1;" d="M 17.179688 18.324219 C 17.179688 18.324219 30.542969 13.355469 33.871094 13.15625 C 33.871094 13.15625 34.074219 11.164062 34.875 9.925781 L 17.179688 14.164062 Z M 17.179688 18.324219 "/>
    <path style=" stroke:none;fill-rule:nonzero;fill:rgb(94.117647%,68.235294%,6.666667%);fill-opacity:1;" d="M 5.929688 11.675781 L 9.152344 14.773438 L 12.746094 13.183594 L 18 11.558594 L 24.550781 12.375 L 27.957031 13.058594 L 30.714844 10.921875 Z M 5.929688 11.675781 "/>
    <path style=" stroke:none;fill-rule:nonzero;fill:rgb(94.117647%,68.235294%,6.666667%);fill-opacity:1;" d="M 12.746094 13.183594 L 18 11.558594 L 24.550781 12.375 L 30.714844 10.921875 L 17.683594 9.652344 L 5.929688 11.675781 Z M 12.746094 13.183594 "/>
    <path style=" stroke:none;fill-rule:nonzero;fill:rgb(97.254902%,81.568627%,28.235294%);fill-opacity:1;" d="M 5.929688 11.675781 L 5.929688 15.617188 L 12.492188 17.433594 L 12.746094 13.183594 Z M 5.929688 11.675781 "/>
    <path style=" stroke:none;fill-rule:nonzero;fill:rgb(76.862745%,44.313725%,8.627451%);fill-opacity:1;" d="M 24.550781 12.375 L 24.640625 16.132812 L 30.28125 14.46875 L 30.714844 10.921875 Z M 24.550781 12.375 "/>
    <path style=" stroke:none;fill-rule:nonzero;fill:rgb(91.764706%,62.352941%,2.745098%);fill-opacity:1;" d="M 20.957031 9.753906 C 20.957031 9.753906 20.933594 5.820312 24.761719 2.378906 C 24.761719 2.378906 22.433594 3.207031 21.355469 2.996094 C 20.023438 2.738281 19.601562 1.125 19.601562 1.125 C 19.601562 1.125 16.316406 8.207031 17.28125 9.136719 C 18.242188 10.066406 20.957031 9.753906 20.957031 9.753906 Z M 20.957031 9.753906 "/>
    <path style=" stroke:none;fill-rule:nonzero;fill:rgb(97.254902%,81.568627%,28.235294%);fill-opacity:1;" d="M 16 12.015625 C 16 12.015625 13.8125 7.53125 9.152344 5.171875 C 9.152344 5.171875 12.792969 4.804688 13.675781 4.382812 C 14.773438 3.859375 15.371094 2.484375 15.371094 2.484375 C 15.371094 2.484375 19.429688 9.59375 19.078125 10.667969 C 18.726562 11.738281 16 12.015625 16 12.015625 Z M 16 12.015625 "/>
    <path style=" stroke:none;fill-rule:nonzero;fill:rgb(91.764706%,62.352941%,2.745098%);fill-opacity:1;" d="M 18.328125 11.511719 C 18.328125 11.511719 14.921875 12.835938 10.511719 12.835938 C 1.304688 12.835938 -0.0234375 6.164062 9.085938 6.816406 C 16.582031 7.355469 18.328125 11.511719 18.328125 11.511719 Z M 18.328125 11.511719 "/>
    <path style=" stroke:none;fill-rule:nonzero;fill:rgb(94.117647%,68.235294%,6.666667%);fill-opacity:1;" d="M 17.691406 11.488281 C 17.691406 11.488281 21.742188 11.804688 25.519531 10.84375 C 33.410156 8.84375 30.480469 2.835938 23.070312 5.375 C 16.976562 7.464844 17.691406 11.488281 17.691406 11.488281 Z M 17.691406 11.488281 "/>
    <path style=" stroke:none;fill-rule:nonzero;fill:rgb(50.980392%,25.098039%,0%);fill-opacity:1;" d="M 18.328125 11.511719 C 18.328125 11.511719 16.203125 12.339844 13.453125 12.339844 C 7.710938 12.339844 6.882812 8.175781 12.566406 8.582031 C 17.238281 8.917969 18.328125 11.511719 18.328125 11.511719 Z M 18.328125 11.507812 C 18.328125 11.507812 21.152344 11.726562 23.785156 11.058594 C 29.285156 9.660156 27.242188 5.472656 22.078125 7.242188 C 17.828125 8.703125 18.328125 11.507812 18.328125 11.507812 Z M 18.328125 11.507812 "/>
    <use xlink:href="#surface6" mask="url(#mask0)"/>
    <use xlink:href="#surface9" mask="url(#mask1)"/>
  </g>
</svg>