<?xml version="1.0" encoding="UTF-8" standalone="yes"?>
<svg xmlns="http://www.w3.org/2000/svg" xmlns:xlink="http://www.w3.org/1999/xlink" width="48px" height="48px" viewBox="0 0 36 36" version="1.1">
  <defs>
    <filter id="alpha" filterUnits="objectBoundingBox" x="0%" y="0%" width="100%" height="100%">
      <feColorMatrix type="matrix" in="SourceGraphic" values="0 0 0 0 1 0 0 0 0 1 0 0 0 0 1 0 0 0 1 0"/>
    </filter>
    <mask id="mask0">
      <g filter="url(#alpha)">
        <rect x="0" y="0" width="36" height="36" style="fill:rgb(0%,0%,0%);fill-opacity:0.501961;stroke:none;"/>
      </g>
    </mask>
    <clipPath id="clip1">
      <rect width="36" height="36"/>
    </clipPath>
    <g id="surface6" clip-path="url(#clip1)">
      <path style=" stroke:none;fill-rule:nonzero;fill:rgb(24.313725%,26.27451%,27.843137%);fill-opacity:1;" d="M 18.59375 2.90625 L 16.8125 5.574219 L 20.964844 11.804688 L 23.339844 11.804688 L 23.933594 10.914062 Z M 18.59375 2.90625 "/>
    </g>
  </defs>
  <g id="surface1">
    <path style=" stroke:none;fill-rule:nonzero;fill:rgb(25.882353%,54.509804%,75.686275%);fill-opacity:1;" d="M 26.898438 1.125 L 19.78125 11.804688 L 23.339844 11.804688 L 30.457031 1.125 Z M 26.898438 1.125 "/>
    <path style=" stroke:none;fill-rule:nonzero;fill:rgb(90.980392%,90.980392%,90.980392%);fill-opacity:1;" d="M 23.339844 1.125 L 16.21875 11.804688 L 19.78125 11.804688 L 26.898438 1.125 Z M 23.339844 1.125 "/>
    <path style=" stroke:none;fill-rule:nonzero;fill:rgb(92.941176%,29.803922%,36.078431%);fill-opacity:1;" d="M 19.78125 1.125 L 12.660156 11.804688 L 16.21875 11.804688 L 23.339844 1.125 Z M 19.78125 1.125 "/>
    <path style=" stroke:none;fill-rule:nonzero;fill:rgb(100%,76.078431%,0%);fill-opacity:1;" d="M 11.472656 9.429688 C 11.148438 9.429688 10.878906 9.699219 10.878906 10.023438 L 10.878906 15.363281 C 10.878906 15.691406 11.148438 15.957031 11.472656 15.957031 L 24.527344 15.957031 C 24.851562 15.957031 25.117188 15.691406 25.121094 15.363281 L 25.121094 10.023438 C 25.117188 9.699219 24.851562 9.433594 24.527344 9.429688 Z M 23.933594 13.585938 C 23.933594 13.910156 23.667969 14.175781 23.339844 14.179688 L 12.660156 14.179688 C 12.332031 14.179688 12.066406 13.910156 12.066406 13.585938 L 12.066406 11.210938 C 12.066406 10.882812 12.332031 10.617188 12.660156 10.617188 L 23.339844 10.617188 C 23.667969 10.621094 23.933594 10.882812 23.933594 11.210938 Z M 23.933594 13.585938 "/>
    <path style=" stroke:none;fill-rule:nonzero;fill:rgb(92.941176%,29.803922%,36.078431%);fill-opacity:1;" d="M 12.660156 11.804688 L 16.21875 11.804688 L 9.101562 1.125 L 5.542969 1.125 Z M 12.660156 11.804688 "/>
    <path style=" stroke:none;fill-rule:nonzero;fill:rgb(90.980392%,90.980392%,90.980392%);fill-opacity:1;" d="M 16.21875 11.804688 L 19.78125 11.804688 L 12.660156 1.125 L 9.101562 1.125 Z M 16.21875 11.804688 "/>
    <path style=" stroke:none;fill-rule:nonzero;fill:rgb(25.882353%,54.509804%,75.686275%);fill-opacity:1;" d="M 19.78125 11.804688 L 23.339844 11.804688 L 16.21875 1.125 L 12.660156 1.125 Z M 19.78125 11.804688 "/>
    <path style=" stroke:none;fill-rule:nonzero;fill:rgb(100%,76.078431%,0%);fill-opacity:1;" d="M 29.089844 23.785156 C 29.089844 29.910156 24.125 34.875 18 34.875 C 11.875 34.875 6.910156 29.910156 6.910156 23.785156 C 6.910156 17.660156 11.875 12.695312 18 12.695312 C 24.125 12.695312 29.089844 17.660156 29.089844 23.785156 Z M 29.089844 23.785156 "/>
    <path style=" stroke:none;fill-rule:nonzero;fill:rgb(90.196078%,54.117647%,0%);fill-opacity:1;" d="M 18.152344 13.703125 C 12.5 13.703125 7.917969 18.292969 7.917969 23.957031 C 7.917969 25.644531 8.332031 27.234375 9.054688 28.640625 C 8.679688 27.496094 8.488281 26.300781 8.484375 25.097656 C 8.484375 19.089844 13.125 14.183594 19.007812 13.746094 C 18.722656 13.71875 18.4375 13.707031 18.152344 13.703125 "/>
    <path style=" stroke:none;fill-rule:nonzero;fill:rgb(100%,89.019608%,58.039216%);fill-opacity:1;" d="M 25.863281 17.4375 C 28.753906 22.480469 27.242188 29.007812 22.261719 32.355469 C 21.261719 33.023438 20.164062 33.535156 19.007812 33.867188 C 20.625 33.667969 22.171875 33.09375 23.523438 32.183594 C 28.21875 29.027344 29.496094 22.726562 26.371094 18.109375 C 26.210938 17.878906 26.042969 17.652344 25.863281 17.4375 "/>
    <path style=" stroke:none;fill-rule:nonzero;fill:rgb(94.901961%,69.803922%,0%);fill-opacity:1;" d="M 18 19.300781 L 18 15.710938 L 16.175781 21.328125 L 17.011719 22.335938 Z M 18 19.300781 "/>
    <path style=" stroke:none;fill-rule:nonzero;fill:rgb(90.196078%,54.117647%,0%);fill-opacity:1;" d="M 18.988281 22.335938 L 19.824219 21.328125 L 18 15.710938 L 18 19.300781 Z M 18.988281 22.335938 "/>
    <path style=" stroke:none;fill-rule:nonzero;fill:rgb(76.862745%,45.882353%,0%);fill-opacity:1;" d="M 19.597656 24.214844 L 20.953125 24.800781 L 25.734375 21.328125 L 22.179688 22.335938 Z M 19.597656 24.214844 "/>
    <path style=" stroke:none;fill-rule:nonzero;fill:rgb(100%,89.019608%,58.039216%);fill-opacity:1;" d="M 22.179688 22.335938 L 25.734375 21.328125 L 19.824219 21.328125 L 18.988281 22.335938 Z M 22.179688 22.335938 "/>
    <path style=" stroke:none;fill-rule:nonzero;fill:rgb(100%,82.352941%,32.156863%);fill-opacity:1;" d="M 17.011719 22.335938 L 16.175781 21.328125 L 10.265625 21.328125 L 13.820312 22.335938 Z M 17.011719 22.335938 "/>
    <path style=" stroke:none;fill-rule:nonzero;fill:rgb(100%,85.882353%,45.882353%);fill-opacity:1;" d="M 13.820312 22.335938 L 10.265625 21.328125 L 15.046875 24.800781 L 16.402344 24.214844 Z M 13.820312 22.335938 "/>
    <path style=" stroke:none;fill-rule:nonzero;fill:rgb(90.196078%,54.117647%,0%);fill-opacity:1;" d="M 19.597656 24.214844 L 20.582031 27.25 L 22.78125 30.417969 L 20.953125 24.800781 Z M 19.597656 24.214844 "/>
    <path style=" stroke:none;fill-rule:nonzero;fill:rgb(94.901961%,69.803922%,0%);fill-opacity:1;" d="M 18 25.375 L 18 26.945312 L 22.78125 30.417969 L 20.582031 27.25 Z M 16.402344 24.214844 L 15.046875 24.800781 L 13.21875 30.417969 L 15.417969 27.25 Z M 16.402344 24.214844 "/>
    <path style=" stroke:none;fill-rule:nonzero;fill:rgb(90.196078%,54.117647%,0%);fill-opacity:1;" d="M 15.417969 27.25 L 13.21875 30.417969 L 18 26.945312 L 18 25.375 Z M 15.417969 27.25 "/>
    <path style=" stroke:none;fill-rule:nonzero;fill:rgb(100%,80.784314%,19.215686%);fill-opacity:1;" d="M 18.988281 22.335938 L 18 19.300781 L 17.011719 22.335938 L 13.820312 22.335938 L 16.402344 24.214844 L 15.417969 27.25 L 18 25.375 L 20.582031 27.25 L 19.597656 24.214844 L 22.179688 22.335938 Z M 18.988281 22.335938 "/>
    <use xlink:href="#surface6" mask="url(#mask0)"/>
  </g>
</svg>