<?xml version="1.0" encoding="UTF-8" standalone="yes"?>
<svg xmlns="http://www.w3.org/2000/svg" xmlns:xlink="http://www.w3.org/1999/xlink" width="48px" height="48px" viewBox="0 0 36 36" version="1.1">
  <g id="surface1">
    <path style=" stroke:none;fill-rule:nonzero;fill:rgb(94.901961%,69.803922%,0%);fill-opacity:1;" d="M 7.136719 17.839844 C 6.832031 17.839844 6.539062 17.769531 6.265625 17.632812 C 5.53125 17.261719 4.652344 16.25 4.652344 13.535156 C 4.652344 7.859375 1.65625 4.621094 1.625 4.589844 L 1.125 4.058594 L 3.789062 1.125 L 4.246094 1.8125 C 4.300781 1.894531 5.695312 3.914062 7.917969 3.320312 L 8.226562 4.773438 C 6.035156 5.359375 4.453125 4.132812 3.6875 3.328125 L 3.011719 4.074219 C 3.953125 5.324219 5.984375 8.585938 5.984375 13.535156 C 5.984375 15.007812 6.285156 16.007812 6.8125 16.273438 C 7.210938 16.472656 7.804688 16.253906 8.359375 15.703125 C 9.816406 14.257812 10.886719 10.648438 10.898438 10.613281 L 12.164062 11.078125 C 12.117188 11.242188 10.972656 15.105469 9.242188 16.820312 C 8.570312 17.488281 7.828125 17.839844 7.136719 17.839844 Z M 28.863281 17.839844 C 29.167969 17.839844 29.464844 17.769531 29.734375 17.632812 C 30.472656 17.261719 31.347656 16.25 31.347656 13.535156 C 31.347656 7.859375 34.34375 4.621094 34.375 4.589844 L 34.875 4.054688 L 32.210938 1.125 L 31.753906 1.8125 C 31.699219 1.894531 30.304688 3.914062 28.078125 3.320312 L 27.769531 4.769531 C 29.960938 5.355469 31.546875 4.132812 32.3125 3.324219 L 32.988281 4.074219 C 32.046875 5.324219 30.015625 8.585938 30.015625 13.535156 C 30.015625 15.007812 29.714844 16.007812 29.1875 16.269531 C 28.789062 16.472656 28.195312 16.253906 27.640625 15.703125 C 26.183594 14.253906 25.109375 10.648438 25.101562 10.613281 L 23.835938 11.078125 C 23.882812 11.242188 25.027344 15.101562 26.753906 16.816406 C 27.429688 17.488281 28.171875 17.839844 28.863281 17.839844 Z M 16.285156 14.023438 L 19.714844 14.023438 L 19.714844 27.792969 L 16.285156 27.792969 Z M 16.285156 14.023438 "/>
    <path style=" stroke:none;fill-rule:nonzero;fill:rgb(100%,80.784314%,19.215686%);fill-opacity:1;" d="M 16.988281 14.023438 L 19.011719 14.023438 L 19.011719 27.792969 L 16.988281 27.792969 Z M 16.988281 14.023438 "/>
    <path style=" stroke:none;fill-rule:nonzero;fill:rgb(94.901961%,69.803922%,0%);fill-opacity:1;" d="M 6.652344 1.125 C 7.617188 9.777344 12.332031 16.714844 18 16.714844 C 23.667969 16.714844 28.382812 9.777344 29.347656 1.125 Z M 6.652344 1.125 "/>
    <path style=" stroke:none;fill-rule:nonzero;fill:rgb(100%,80.784314%,19.215686%);fill-opacity:1;" d="M 8.839844 1.125 C 9.621094 9.878906 13.425781 16.898438 18 16.898438 C 22.574219 16.898438 26.378906 9.878906 27.160156 1.125 Z M 8.839844 1.125 "/>
    <path style=" stroke:none;fill-rule:nonzero;fill:rgb(94.901961%,69.803922%,0%);fill-opacity:1;" d="M 26.800781 30.375 L 9.199219 30.375 C 9.199219 30.375 13.136719 25.292969 18 25.292969 C 22.863281 25.292969 26.800781 30.375 26.800781 30.375 Z M 26.800781 30.375 "/>
    <path style=" stroke:none;fill-rule:nonzero;fill:rgb(100%,80.784314%,19.215686%);fill-opacity:1;" d="M 24.679688 30.375 L 11.320312 30.375 C 11.320312 30.375 14.3125 25.210938 18 25.210938 C 21.6875 25.210938 24.679688 30.375 24.679688 30.375 Z M 24.679688 30.375 "/>
    <path style=" stroke:none;fill-rule:nonzero;fill:rgb(73.72549%,51.764706%,36.862745%);fill-opacity:1;" d="M 6.648438 31.5 L 29.351562 31.5 L 29.351562 34.875 L 6.648438 34.875 Z M 6.648438 31.5 "/>
    <path style=" stroke:none;fill-rule:nonzero;fill:rgb(56.862745%,38.039216%,25.098039%);fill-opacity:1;" d="M 9.199219 30.375 L 26.800781 30.375 L 26.800781 31.5 L 9.199219 31.5 Z M 9.199219 30.375 "/>
    <path style=" stroke:none;fill-rule:nonzero;fill:rgb(94.901961%,69.803922%,0%);fill-opacity:1;" d="M 12.375 32.34375 L 23.625 32.34375 L 23.625 34.03125 L 12.375 34.03125 Z M 12.375 32.34375 "/>
    <path style=" stroke:none;fill-rule:nonzero;fill:rgb(80.784314%,61.176471%,47.843137%);fill-opacity:1;" d="M 6.648438 31.5 L 7.773438 31.5 L 7.773438 34.875 L 6.648438 34.875 Z M 6.648438 31.5 "/>
    <path style=" stroke:none;fill-rule:nonzero;fill:rgb(56.862745%,38.039216%,25.098039%);fill-opacity:1;" d="M 28.226562 31.5 L 29.351562 31.5 L 29.351562 34.875 L 28.226562 34.875 Z M 28.226562 31.5 "/>
    <path style=" stroke:none;fill-rule:nonzero;fill:rgb(100%,80.784314%,19.215686%);fill-opacity:1;" d="M 12.9375 32.34375 L 23.0625 32.34375 L 23.0625 34.03125 L 12.9375 34.03125 Z M 12.9375 32.34375 "/>
  </g>
</svg>