<?xml version="1.0" encoding="UTF-8" standalone="yes"?>
<svg xmlns="http://www.w3.org/2000/svg" xmlns:xlink="http://www.w3.org/1999/xlink" width="48px" height="48px" viewBox="0 0 36 36" version="1.1">
  <g id="surface1">
    <path style=" stroke:none;fill-rule:nonzero;fill:rgb(77.647059%,80.784314%,85.882353%);fill-opacity:1;" d="M 22.515625 13.484375 C 25.199219 16.164062 29.457031 16.300781 32.300781 13.898438 L 22.101562 3.699219 C 19.699219 6.542969 19.835938 10.804688 22.515625 13.484375 Z M 32.753906 3.246094 C 30.074219 0.5625 25.816406 0.425781 22.972656 2.832031 L 33.171875 13.027344 C 35.574219 10.183594 35.4375 5.925781 32.753906 3.246094 Z M 32.753906 3.246094 "/>
    <path style=" stroke:none;fill-rule:nonzero;fill:rgb(24.313725%,26.27451%,27.843137%);fill-opacity:1;" d="M 33.335938 13.195312 L 22.804688 2.664062 C 22.648438 2.792969 22.496094 2.929688 22.347656 3.078125 C 22.203125 3.222656 22.066406 3.375 21.9375 3.53125 L 32.46875 14.0625 C 32.625 13.933594 32.777344 13.796875 32.921875 13.652344 C 33.070312 13.503906 33.207031 13.351562 33.335938 13.195312 Z M 18.003906 11.765625 L 3.511719 29.683594 L 4.199219 30.367188 L 1.125 34.277344 L 1.722656 34.875 L 5.632812 31.800781 L 6.316406 32.488281 L 24.234375 17.996094 Z M 18.003906 11.765625 "/>
    <path style=" stroke:none;fill-rule:nonzero;fill:rgb(30.980392%,81.960784%,85.098039%);fill-opacity:1;" d="M 32.445312 21 C 32.078125 18.992188 30.191406 18.609375 30.191406 18.609375 L 26.664062 25.128906 C 26.558594 24.375 25.964844 23.578125 25.050781 23.082031 C 23.738281 22.371094 22.261719 22.554688 21.753906 23.492188 C 21.25 24.429688 21.902344 25.765625 23.214844 26.476562 C 24.527344 27.1875 26 27.003906 26.507812 26.066406 L 29.324219 20.863281 C 29.621094 20.855469 30.066406 21.035156 30.675781 21.734375 C 31.957031 23.199219 33.691406 23.367188 33.691406 23.367188 C 33.691406 23.367188 32.761719 22.742188 32.445312 21 Z M 16.519531 3.0625 C 14.84375 0.585938 12.085938 1.1875 12.085938 1.1875 L 11.222656 12.019531 C 10.632812 11.070312 9.363281 10.351562 7.847656 10.230469 C 5.667969 10.054688 3.800781 11.175781 3.679688 12.734375 C 3.554688 14.289062 5.21875 15.691406 7.398438 15.867188 C 9.574219 16.039062 11.441406 14.917969 11.566406 13.363281 L 12.257812 4.722656 C 12.652344 4.542969 13.355469 4.515625 14.589844 5.09375 C 17.167969 6.296875 19.59375 5.492188 19.59375 5.492188 C 19.59375 5.492188 17.976562 5.207031 16.519531 3.0625 Z M 16.519531 3.0625 "/>
    <path style=" stroke:none;fill-rule:nonzero;fill:rgb(24.313725%,26.27451%,27.843137%);fill-opacity:1;" d="M 28.011719 15.59375 L 20.40625 7.988281 L 19.480469 9.941406 L 26.058594 16.519531 Z M 28.011719 15.59375 "/>
    <path style=" stroke:none;fill-rule:nonzero;fill:rgb(77.647059%,80.784314%,85.882353%);fill-opacity:1;" d="M 24.234375 17.996094 L 18.003906 11.765625 L 19.480469 9.941406 L 26.058594 16.519531 Z M 22.425781 2.835938 L 33.164062 13.574219 L 32.851562 13.890625 L 22.109375 3.148438 Z M 22.425781 2.835938 "/>
    <path style=" stroke:none;fill-rule:nonzero;fill:rgb(54.117647%,58.039216%,62.745098%);fill-opacity:1;" d="M 3.519531 29.675781 L 6.324219 32.480469 L 5.839844 32.964844 L 3.035156 30.160156 Z M 3.519531 29.675781 "/>
    <path style=" stroke:none;fill-rule:nonzero;fill:rgb(77.647059%,80.784314%,85.882353%);fill-opacity:1;" d="M 9.675781 26.722656 C 9.675781 26.945312 9.496094 27.121094 9.277344 27.121094 C 9.058594 27.121094 8.878906 26.945312 8.878906 26.722656 C 8.878906 26.503906 9.058594 26.324219 9.277344 26.324219 C 9.496094 26.324219 9.675781 26.503906 9.675781 26.722656 Z M 9.675781 26.722656 "/>
    <path style=" stroke:none;fill-rule:nonzero;fill:rgb(77.647059%,80.784314%,85.882353%);fill-opacity:1;" d="M 8.417969 28.597656 C 8.417969 29.15625 7.964844 29.609375 7.40625 29.609375 C 6.84375 29.609375 6.390625 29.15625 6.390625 28.597656 C 6.390625 28.035156 6.84375 27.582031 7.40625 27.582031 C 7.964844 27.582031 8.417969 28.035156 8.417969 28.597656 Z M 8.417969 28.597656 "/>
    <path style=" stroke:none;fill-rule:nonzero;fill:rgb(24.313725%,26.27451%,27.843137%);fill-opacity:1;" d="M 6.257812 28.347656 L 8.554688 28.347656 L 8.554688 28.84375 L 6.257812 28.84375 Z M 6.257812 28.347656 "/>
    <path style=" stroke:none;fill-rule:nonzero;fill:rgb(77.647059%,80.784314%,85.882353%);fill-opacity:1;" d="M 20.152344 16.863281 C 20.152344 17.421875 19.699219 17.875 19.136719 17.875 C 18.578125 17.875 18.125 17.421875 18.125 16.863281 C 18.125 16.304688 18.578125 15.847656 19.136719 15.847656 C 19.699219 15.847656 20.152344 16.304688 20.152344 16.863281 Z M 20.152344 16.863281 "/>
    <path style=" stroke:none;fill-rule:nonzero;fill:rgb(24.313725%,26.27451%,27.843137%);fill-opacity:1;" d="M 19.777344 17.847656 L 18.152344 16.226562 L 18.5 15.878906 L 20.125 17.5 Z M 19.777344 17.847656 "/>
    <path style=" stroke:none;fill-rule:nonzero;fill:rgb(77.647059%,80.784314%,85.882353%);fill-opacity:1;" d="M 6.527344 31.167969 C 6.5 31.191406 6.464844 31.207031 6.429688 31.207031 C 6.390625 31.207031 6.355469 31.191406 6.328125 31.167969 L 4.832031 29.671875 C 4.804688 29.644531 4.792969 29.609375 4.792969 29.570312 C 4.792969 29.535156 4.804688 29.5 4.832031 29.472656 C 4.859375 29.445312 4.894531 29.429688 4.933594 29.429688 C 4.96875 29.429688 5.003906 29.445312 5.03125 29.472656 L 6.527344 30.96875 C 6.554688 30.992188 6.570312 31.03125 6.570312 31.066406 C 6.570312 31.105469 6.554688 31.140625 6.527344 31.167969 Z M 16.378906 17.628906 L 18.371094 19.621094 L 14.292969 23.695312 L 12.304688 21.707031 Z M 16.378906 17.628906 "/>
    <path style=" stroke:none;fill-rule:nonzero;fill:rgb(54.117647%,58.039216%,62.745098%);fill-opacity:1;" d="M 12.917969 21.648438 L 14.621094 19.945312 L 16.054688 21.378906 L 14.351562 23.082031 Z M 12.917969 21.648438 "/>
    <path style=" stroke:none;fill-rule:nonzero;fill:rgb(24.313725%,26.27451%,27.843137%);fill-opacity:1;" d="M 13.238281 21.570312 L 13.4375 21.371094 L 14.628906 22.5625 L 14.429688 22.761719 Z M 13.605469 21.199219 L 13.804688 21 L 15 22.195312 L 14.800781 22.394531 Z M 13.976562 20.832031 L 14.175781 20.632812 L 15.367188 21.824219 L 15.167969 22.023438 Z M 14.34375 20.464844 L 14.542969 20.265625 L 15.734375 21.457031 L 15.535156 21.65625 Z M 14.34375 20.464844 "/>
    <path style=" stroke:none;fill-rule:nonzero;fill:rgb(24.313725%,26.27451%,27.843137%);fill-opacity:1;" d="M 14.621094 19.945312 L 16.324219 18.242188 L 17.757812 19.675781 L 16.054688 21.378906 Z M 14.621094 19.945312 "/>
  </g>
</svg>