<?xml version="1.0" encoding="UTF-8" standalone="yes"?>
<svg xmlns="http://www.w3.org/2000/svg" xmlns:xlink="http://www.w3.org/1999/xlink" width="48px" height="48px" viewBox="0 0 36 36" version="1.1">
  <g id="surface1">
    <path style=" stroke:none;fill-rule:nonzero;fill:rgb(88.627451%,48.627451%,9.019608%);fill-opacity:1;" d="M 16.285156 17.664062 C 16.449219 17.828125 16.605469 17.992188 16.773438 18.167969 L 16.886719 18.289062 C 16.875 18.308594 16.863281 18.328125 16.847656 18.351562 C 16.464844 18.929688 15.890625 19.804688 15.984375 20.921875 C 16.082031 22.070312 16.371094 22.851562 16.894531 23.371094 C 17.226562 23.710938 17.660156 23.925781 18.128906 23.984375 L 17.96875 24.046875 C 16.96875 24.460938 15.601562 25.019531 15.113281 26.601562 C 14.933594 27.179688 14.820312 27.820312 14.703125 28.5 C 14.472656 29.839844 14.210938 31.359375 13.390625 32.179688 C 12.242188 33.324219 10.890625 33.796875 9.375 33.582031 C 7.886719 33.367188 6.300781 32.484375 4.910156 31.089844 C 3.515625 29.699219 2.628906 28.113281 2.417969 26.625 C 2.203125 25.109375 2.675781 23.757812 3.820312 22.609375 C 4.609375 21.824219 5.757812 21.417969 7.550781 21.300781 C 10.886719 21.078125 11.648438 19.136719 12.152344 17.847656 C 12.542969 16.84375 12.675781 16.503906 13.652344 16.429688 C 14.742188 16.347656 15.441406 16.820312 16.285156 17.664062 M 17.164062 16.785156 C 16.242188 15.859375 15.207031 15.0625 13.558594 15.191406 C 9.8125 15.472656 12.269531 19.742188 7.46875 20.0625 C 5.75 20.175781 4.121094 20.550781 2.941406 21.730469 C -0.0546875 24.730469 0.902344 28.84375 4.027344 31.972656 C 7.15625 35.097656 11.269531 36.058594 14.269531 33.058594 C 15.832031 31.496094 15.777344 28.664062 16.300781 26.96875 C 16.976562 24.78125 20.5 25.523438 20.339844 23.085938 C 20.324219 22.859375 20.265625 22.714844 20.179688 22.628906 C 19.742188 22.1875 18.511719 23.230469 17.773438 22.492188 C 17.503906 22.226562 17.300781 21.71875 17.222656 20.816406 C 17.105469 19.445312 18.789062 18.441406 18.175781 17.828125 C 17.835938 17.488281 17.507812 17.128906 17.164062 16.785156 Z M 17.164062 16.785156 "/>
    <path style=" stroke:none;fill-rule:nonzero;fill:rgb(100%,61.568627%,15.294118%);fill-opacity:1;" d="M 14.695312 28.492188 C 14.8125 27.8125 14.925781 27.171875 15.101562 26.59375 C 15.589844 25.011719 16.960938 24.449219 17.960938 24.039062 C 18.015625 24.015625 18.070312 23.996094 18.117188 23.972656 C 17.648438 23.914062 17.214844 23.699219 16.886719 23.363281 C 16.363281 22.839844 16.074219 22.0625 15.972656 20.910156 C 15.878906 19.796875 16.457031 18.921875 16.835938 18.339844 L 16.878906 18.277344 L 16.765625 18.160156 C 16.605469 17.988281 16.441406 17.820312 16.277344 17.65625 C 15.433594 16.8125 14.730469 16.339844 13.644531 16.421875 C 12.667969 16.496094 12.535156 16.832031 12.140625 17.839844 C 11.640625 19.128906 10.878906 21.074219 7.539062 21.292969 C 5.75 21.410156 4.597656 21.816406 3.8125 22.601562 C 2.664062 23.75 2.195312 25.101562 2.410156 26.617188 C 2.621094 28.105469 3.507812 29.691406 4.898438 31.082031 C 6.292969 32.476562 7.878906 33.359375 9.363281 33.574219 C 10.882812 33.789062 12.234375 33.316406 13.382812 32.171875 C 14.199219 31.351562 14.464844 29.832031 14.695312 28.492188 Z M 14.695312 28.492188 "/>
    <path style=" stroke:none;fill-rule:nonzero;fill:rgb(24.313725%,26.27451%,27.843137%);fill-opacity:1;" d="M 12.496094 20.699219 L 15.300781 23.5 L 13.925781 24.878906 L 11.121094 22.074219 Z M 9.804688 23.394531 L 12.609375 26.199219 L 11.234375 27.570312 L 8.433594 24.765625 Z M 7.550781 26.332031 L 9.722656 28.503906 L 8.9375 29.289062 L 6.765625 27.117188 Z M 16.195312 22.308594 L 13.691406 19.804688 L 28.035156 6.269531 L 29.730469 7.964844 Z M 16.195312 22.308594 "/>
    <path style=" stroke:none;fill-rule:nonzero;fill:rgb(24.313725%,26.27451%,27.843137%);fill-opacity:1;" d="M 13.988281 30.179688 C 13.988281 30.898438 13.410156 31.476562 12.695312 31.476562 C 11.976562 31.476562 11.398438 30.898438 11.398438 30.179688 C 11.398438 29.464844 11.976562 28.886719 12.695312 28.886719 C 13.410156 28.886719 13.988281 29.464844 13.988281 30.179688 Z M 13.988281 30.179688 "/>
    <path style=" stroke:none;fill-rule:nonzero;fill:rgb(24.313725%,26.27451%,27.843137%);fill-opacity:1;" d="M 10.636719 31.808594 C 10.636719 32.378906 10.171875 32.84375 9.601562 32.84375 C 9.027344 32.84375 8.5625 32.378906 8.5625 31.808594 C 8.5625 31.234375 9.027344 30.769531 9.601562 30.769531 C 10.171875 30.769531 10.636719 31.234375 10.636719 31.808594 Z M 10.636719 31.808594 "/>
    <path style=" stroke:none;fill-rule:nonzero;fill:rgb(24.313725%,26.27451%,27.843137%);fill-opacity:1;" d="M 29.613281 10.824219 C 29.246094 11.191406 29.023438 11.5625 29.351562 11.894531 C 29.683594 12.226562 30.054688 12.003906 30.421875 11.632812 C 30.789062 11.269531 31.011719 10.898438 30.683594 10.566406 C 30.351562 10.234375 29.980469 10.460938 29.613281 10.824219 Z M 29.613281 10.824219 "/>
    <path style=" stroke:none;fill-rule:nonzero;fill:rgb(24.313725%,26.27451%,27.843137%);fill-opacity:1;" d="M 29.664062 11.261719 L 28.789062 10.386719 L 29.175781 10 L 30.050781 10.875 Z M 31.550781 8.890625 C 31.183594 9.257812 30.960938 9.628906 31.289062 9.960938 C 31.621094 10.289062 31.992188 10.066406 32.359375 9.699219 C 32.722656 9.332031 32.949219 8.960938 32.617188 8.628906 C 32.289062 8.300781 31.917969 8.523438 31.550781 8.890625 Z M 31.550781 8.890625 "/>
    <path style=" stroke:none;fill-rule:nonzero;fill:rgb(24.313725%,26.27451%,27.843137%);fill-opacity:1;" d="M 31.597656 9.328125 L 30.722656 8.453125 L 31.113281 8.0625 L 31.988281 8.9375 Z M 31.597656 9.328125 "/>
    <path style=" stroke:none;fill-rule:nonzero;fill:rgb(24.313725%,26.27451%,27.843137%);fill-opacity:1;" d="M 33.484375 6.953125 C 33.117188 7.320312 32.894531 7.691406 33.226562 8.023438 C 33.558594 8.351562 33.925781 8.132812 34.292969 7.765625 C 34.660156 7.394531 34.882812 7.027344 34.554688 6.695312 C 34.222656 6.363281 33.851562 6.589844 33.484375 6.953125 Z M 33.484375 6.953125 "/>
    <path style=" stroke:none;fill-rule:nonzero;fill:rgb(24.313725%,26.27451%,27.843137%);fill-opacity:1;" d="M 33.535156 7.390625 L 32.660156 6.519531 L 33.046875 6.128906 L 33.921875 7.003906 Z M 33.535156 7.390625 "/>
    <path style=" stroke:none;fill-rule:nonzero;fill:rgb(24.313725%,26.27451%,27.843137%);fill-opacity:1;" d="M 25.175781 6.386719 C 24.808594 6.753906 24.4375 6.976562 24.105469 6.644531 C 23.777344 6.3125 24 5.945312 24.367188 5.574219 C 24.730469 5.207031 25.105469 4.988281 25.433594 5.316406 C 25.765625 5.648438 25.542969 6.019531 25.175781 6.386719 Z M 25.175781 6.386719 "/>
    <path style=" stroke:none;fill-rule:nonzero;fill:rgb(24.313725%,26.27451%,27.843137%);fill-opacity:1;" d="M 25.125 5.949219 L 26 6.824219 L 25.609375 7.214844 L 24.738281 6.335938 Z M 27.109375 4.453125 C 26.742188 4.816406 26.375 5.042969 26.042969 4.710938 C 25.710938 4.378906 25.933594 4.007812 26.300781 3.640625 C 26.667969 3.273438 27.039062 3.050781 27.371094 3.382812 C 27.699219 3.714844 27.476562 4.085938 27.109375 4.453125 Z M 27.109375 4.453125 "/>
    <path style=" stroke:none;fill-rule:nonzero;fill:rgb(24.313725%,26.27451%,27.843137%);fill-opacity:1;" d="M 27.0625 4.011719 L 27.9375 4.886719 L 27.550781 5.273438 L 26.675781 4.402344 Z M 27.0625 4.011719 "/>
    <path style=" stroke:none;fill-rule:nonzero;fill:rgb(24.313725%,26.27451%,27.843137%);fill-opacity:1;" d="M 29.046875 2.515625 C 28.679688 2.882812 28.308594 3.105469 27.976562 2.773438 C 27.648438 2.445312 27.871094 2.074219 28.238281 1.707031 C 28.601562 1.339844 28.976562 1.117188 29.308594 1.445312 C 29.636719 1.777344 29.414062 2.148438 29.046875 2.515625 Z M 29.046875 2.515625 "/>
    <path style=" stroke:none;fill-rule:nonzero;fill:rgb(24.313725%,26.27451%,27.843137%);fill-opacity:1;" d="M 28.996094 2.078125 L 29.871094 2.953125 L 29.484375 3.34375 L 28.609375 2.46875 Z M 28.996094 2.078125 "/>
    <path style=" stroke:none;fill-rule:nonzero;fill:rgb(24.313725%,26.27451%,27.843137%);fill-opacity:1;" d="M 30.839844 8.949219 C 27.816406 11.972656 26.960938 12.777344 25.089844 10.910156 C 23.222656 9.039062 24.027344 8.183594 27.050781 5.160156 C 31.101562 1.113281 31.070312 -0.0664062 33.570312 2.429688 C 36.066406 4.929688 34.886719 4.898438 30.839844 8.949219 Z M 30.839844 8.949219 "/>
    <path style=" stroke:none;fill-rule:nonzero;fill:rgb(54.117647%,58.431373%,60.784314%);fill-opacity:1;" d="M 30.96875 3.71875 C 30.96875 4.117188 30.648438 4.4375 30.25 4.4375 C 29.851562 4.4375 29.527344 4.117188 29.527344 3.71875 C 29.527344 3.320312 29.851562 2.996094 30.25 2.996094 C 30.648438 2.996094 30.96875 3.320312 30.96875 3.71875 Z M 30.96875 3.71875 "/>
    <path style=" stroke:none;fill-rule:nonzero;fill:rgb(54.117647%,58.431373%,60.784314%);fill-opacity:1;" d="M 29.027344 5.660156 C 29.027344 6.058594 28.703125 6.382812 28.304688 6.382812 C 27.90625 6.382812 27.582031 6.058594 27.582031 5.660156 C 27.582031 5.261719 27.90625 4.9375 28.304688 4.9375 C 28.703125 4.9375 29.027344 5.261719 29.027344 5.660156 Z M 29.027344 5.660156 "/>
    <path style=" stroke:none;fill-rule:nonzero;fill:rgb(54.117647%,58.431373%,60.784314%);fill-opacity:1;" d="M 27.082031 7.605469 C 27.082031 8.003906 26.757812 8.328125 26.359375 8.328125 C 25.960938 8.328125 25.640625 8.003906 25.640625 7.605469 C 25.640625 7.207031 25.960938 6.886719 26.359375 6.886719 C 26.757812 6.886719 27.082031 7.207031 27.082031 7.605469 Z M 27.082031 7.605469 "/>
    <path style=" stroke:none;fill-rule:nonzero;fill:rgb(54.117647%,58.431373%,60.784314%);fill-opacity:1;" d="M 33.011719 5.757812 C 33.011719 6.15625 32.6875 6.480469 32.289062 6.480469 C 31.890625 6.480469 31.570312 6.15625 31.570312 5.757812 C 31.570312 5.359375 31.890625 5.039062 32.289062 5.039062 C 32.6875 5.039062 33.011719 5.359375 33.011719 5.757812 Z M 33.011719 5.757812 "/>
    <path style=" stroke:none;fill-rule:nonzero;fill:rgb(54.117647%,58.431373%,60.784314%);fill-opacity:1;" d="M 30.855469 8.210938 C 30.574219 8.492188 30.117188 8.492188 29.835938 8.210938 C 29.554688 7.929688 29.554688 7.472656 29.835938 7.191406 C 30.117188 6.910156 30.574219 6.910156 30.855469 7.191406 C 31.136719 7.476562 31.136719 7.929688 30.855469 8.210938 Z M 30.855469 8.210938 "/>
    <path style=" stroke:none;fill-rule:nonzero;fill:rgb(54.117647%,58.431373%,60.784314%);fill-opacity:1;" d="M 29.125 9.644531 C 29.125 10.042969 28.800781 10.367188 28.402344 10.367188 C 28.003906 10.367188 27.679688 10.042969 27.679688 9.644531 C 27.679688 9.246094 28.003906 8.921875 28.402344 8.921875 C 28.800781 8.921875 29.125 9.246094 29.125 9.644531 Z M 29.125 9.644531 "/>
  </g>
</svg>