<?xml version="1.0" encoding="UTF-8" standalone="yes"?>
<svg xmlns="http://www.w3.org/2000/svg" xmlns:xlink="http://www.w3.org/1999/xlink" width="48px" height="48px" viewBox="0 0 36 36" version="1.1">
  <g id="surface1">
    <path style=" stroke:none;fill-rule:nonzero;fill:rgb(58.039216%,59.607843%,60.784314%);fill-opacity:1;" d="M 2.019531 12.375 C 1.683594 12.375 1.40625 12.652344 1.40625 12.992188 L 1.40625 24.132812 C 1.40625 24.472656 1.683594 24.75 2.019531 24.75 L 3.65625 24.332031 L 3.65625 12.792969 Z M 2.019531 12.375 "/>
    <path style=" stroke:none;fill-rule:nonzero;fill:rgb(24.313725%,26.27451%,27.843137%);fill-opacity:1;" d="M 3.65625 12.792969 L 3.65625 24.332031 L 26.15625 18.5625 Z M 23.90625 23.078125 L 21.09375 23.078125 L 16.03125 34.875 L 13.722656 34.875 L 13.722656 36 L 17.488281 36 L 21.65625 25.875 L 21.65625 34.875 L 19.96875 34.875 L 19.96875 36 L 25.03125 36 L 25.03125 34.875 L 23.34375 34.875 L 23.34375 25.875 L 27.605469 36 L 31.21875 36 L 31.21875 34.875 L 28.96875 34.875 Z M 23.90625 23.078125 "/>
    <path style=" stroke:none;fill-rule:nonzero;fill:rgb(24.313725%,26.27451%,27.843137%);fill-opacity:1;" d="M 23.34375 6.75 C 23.34375 10.476562 20.320312 13.5 16.59375 13.5 C 12.867188 13.5 9.84375 10.476562 9.84375 6.75 C 9.84375 3.023438 12.867188 0 16.59375 0 C 20.320312 0 23.34375 3.023438 23.34375 6.75 Z M 23.34375 6.75 "/>
    <path style=" stroke:none;fill-rule:nonzero;fill:rgb(58.039216%,59.607843%,60.784314%);fill-opacity:1;" d="M 18.84375 6.75 C 18.84375 7.992188 17.835938 9 16.59375 9 C 15.351562 9 14.34375 7.992188 14.34375 6.75 C 14.34375 5.507812 15.351562 4.5 16.59375 4.5 C 17.835938 4.5 18.84375 5.507812 18.84375 6.75 Z M 18.84375 6.75 "/>
    <path style=" stroke:none;fill-rule:nonzero;fill:rgb(24.313725%,26.27451%,27.843137%);fill-opacity:1;" d="M 34.59375 6.75 C 34.59375 10.476562 31.570312 13.5 27.84375 13.5 C 24.117188 13.5 21.09375 10.476562 21.09375 6.75 C 21.09375 3.023438 24.117188 0 27.84375 0 C 31.570312 0 34.59375 3.023438 34.59375 6.75 Z M 34.59375 6.75 "/>
    <path style=" stroke:none;fill-rule:nonzero;fill:rgb(58.039216%,59.607843%,60.784314%);fill-opacity:1;" d="M 30.09375 6.75 C 30.09375 7.992188 29.085938 9 27.84375 9 C 26.601562 9 25.59375 7.992188 25.59375 6.75 C 25.59375 5.507812 26.601562 4.5 27.84375 4.5 C 29.085938 4.5 30.09375 5.507812 30.09375 6.75 Z M 30.09375 6.75 "/>
    <path style=" stroke:none;fill-rule:nonzero;fill:rgb(24.313725%,26.27451%,27.843137%);fill-opacity:1;" d="M 34.59375 24.132812 C 34.59375 24.472656 34.3125 24.75 33.972656 24.75 L 10.460938 24.75 C 10.121094 24.75 9.84375 24.472656 9.84375 24.132812 L 9.84375 12.992188 C 9.84375 12.652344 10.121094 12.375 10.460938 12.375 L 33.972656 12.375 C 34.3125 12.375 34.59375 12.652344 34.59375 12.992188 Z M 34.59375 24.132812 "/>
    <path style=" stroke:none;fill-rule:nonzero;fill:rgb(58.039216%,59.607843%,60.784314%);fill-opacity:1;" d="M 33.46875 23.0625 C 33.46875 23.375 33.1875 23.625 32.84375 23.625 L 11.59375 23.625 C 11.25 23.625 10.96875 23.375 10.96875 23.0625 C 10.96875 22.753906 11.25 22.5 11.59375 22.5 L 32.84375 22.5 C 33.1875 22.5 33.46875 22.753906 33.46875 23.0625 Z M 23.34375 14.625 L 32.34375 14.625 L 32.34375 21.375 L 23.34375 21.375 Z M 23.34375 14.625 "/>
    <path style=" stroke:none;fill-rule:nonzero;fill:rgb(24.313725%,26.27451%,27.843137%);fill-opacity:1;" d="M 23.90625 15.1875 L 31.78125 15.1875 L 31.78125 20.8125 L 23.90625 20.8125 Z M 23.90625 15.1875 "/>
    <path style=" stroke:none;fill-rule:nonzero;fill:rgb(58.039216%,59.607843%,60.784314%);fill-opacity:1;" d="M 12.09375 18.5625 L 21.09375 18.5625 L 21.09375 20.8125 L 12.09375 20.8125 Z M 12.09375 15.1875 L 21.09375 15.1875 L 21.09375 17.4375 L 12.09375 17.4375 Z M 12.09375 15.1875 "/>
  </g>
</svg>