<?xml version="1.0" encoding="UTF-8" standalone="yes"?>
<svg xmlns="http://www.w3.org/2000/svg" xmlns:xlink="http://www.w3.org/1999/xlink" width="48px" height="48px" viewBox="0 0 36 36" version="1.1">
  <g id="surface1">
    <path style=" stroke:none;fill-rule:nonzero;fill:rgb(40%,69.019608%,86.666667%);fill-opacity:1;" d="M 5.4375 6.75 L 10.199219 6.75 C 12.007812 5.492188 14.125 4.648438 16.417969 4.382812 L 16.417969 6.75 L 19.582031 6.75 L 19.582031 4.382812 C 21.878906 4.648438 23.992188 5.492188 25.800781 6.75 L 30.5625 6.75 C 27.472656 3.300781 22.984375 1.125 18 1.125 C 13.015625 1.125 8.527344 3.300781 5.4375 6.75 Z M 5.4375 6.75 "/>
    <path style=" stroke:none;fill-rule:nonzero;fill:rgb(78.039216%,90.588235%,33.333333%);fill-opacity:1;" d="M 30.488281 12.375 L 33.90625 12.375 C 33.167969 10.300781 32.035156 8.390625 30.5625 6.75 L 25.800781 6.75 C 27.84375 8.167969 29.460938 10.113281 30.488281 12.375 Z M 10.199219 6.75 L 5.4375 6.75 C 3.964844 8.390625 2.828125 10.300781 2.09375 12.375 L 5.511719 12.375 C 6.539062 10.113281 8.15625 8.167969 10.199219 6.75 Z M 16.417969 6.75 L 19.582031 6.75 L 19.582031 12.375 L 16.417969 12.375 Z M 16.417969 6.75 "/>
    <path style=" stroke:none;fill-rule:nonzero;fill:rgb(100%,90.588235%,35.294118%);fill-opacity:1;" d="M 16.417969 17.210938 L 15.628906 18 L 20.371094 18 L 19.582031 17.210938 L 19.582031 12.375 L 16.417969 12.375 Z M 31.710938 18 L 34.875 18 C 34.875 16.027344 34.53125 14.136719 33.90625 12.375 L 30.488281 12.375 C 31.292969 14.140625 31.710938 16.058594 31.710938 18 Z M 2.09375 12.375 C 1.453125 14.179688 1.125 16.082031 1.125 18 L 4.289062 18 C 4.289062 15.992188 4.734375 14.09375 5.511719 12.375 Z M 2.09375 12.375 "/>
    <path style=" stroke:none;fill-rule:nonzero;fill:rgb(92.941176%,64.313725%,32.941176%);fill-opacity:1;" d="M 1.125 18 Z M 34.875 18 Z M 31.710938 18 C 31.710938 20.003906 31.277344 21.90625 30.5 23.625 L 33.90625 23.625 C 34.546875 21.820312 34.875 19.917969 34.875 18 Z M 10.003906 23.625 L 14.476562 23.625 L 16.417969 21.683594 L 16.417969 23.625 L 19.582031 23.625 L 19.582031 21.683594 L 21.523438 23.625 L 25.996094 23.625 L 20.371094 18 L 15.628906 18 Z M 5.5 23.625 C 4.699219 21.859375 4.289062 19.941406 4.289062 18 L 1.125 18 C 1.125 19.972656 1.46875 21.863281 2.09375 23.625 Z M 5.5 23.625 "/>
    <path style=" stroke:none;fill-rule:nonzero;fill:rgb(92.941176%,31.764706%,50.588235%);fill-opacity:1;" d="M 16.417969 23.625 L 19.582031 23.625 L 19.582031 29.25 L 16.417969 29.25 Z M 25.996094 23.625 L 21.523438 23.625 L 26.582031 28.683594 C 26.335938 28.882812 26.082031 29.070312 25.824219 29.25 L 30.566406 29.25 C 32.035156 27.609375 33.171875 25.699219 33.90625 23.625 L 30.496094 23.625 C 30.046875 24.625 29.476562 25.566406 28.800781 26.429688 Z M 14.476562 23.625 L 10.003906 23.625 L 7.199219 26.429688 C 6.523438 25.566406 5.953125 24.625 5.5 23.625 L 2.09375 23.625 C 2.828125 25.699219 3.964844 27.609375 5.433594 29.25 L 10.175781 29.25 C 9.914062 29.070312 9.664062 28.882812 9.417969 28.683594 Z M 14.476562 23.625 "/>
    <path style=" stroke:none;fill-rule:nonzero;fill:rgb(63.921569%,45.490196%,72.156863%);fill-opacity:1;" d="M 30.566406 29.25 L 25.824219 29.25 C 23.972656 30.542969 21.828125 31.359375 19.582031 31.617188 L 19.582031 29.25 L 16.417969 29.25 L 16.417969 31.617188 C 14.171875 31.359375 12.027344 30.542969 10.171875 29.25 L 5.433594 29.25 C 8.527344 32.699219 13.011719 34.875 18 34.875 C 22.984375 34.875 27.472656 32.699219 30.566406 29.25 Z M 30.566406 29.25 "/>
  </g>
</svg>