<?xml version="1.0" encoding="UTF-8" standalone="yes"?>
<svg xmlns="http://www.w3.org/2000/svg" xmlns:xlink="http://www.w3.org/1999/xlink" width="48px" height="48px" viewBox="0 0 36 36" version="1.1">
  <g id="surface1">
    <path style=" stroke:none;fill-rule:nonzero;fill:rgb(96.078431%,96.078431%,96.078431%);fill-opacity:1;" d="M 29.933594 6.066406 C 36.523438 12.660156 36.523438 23.339844 29.933594 29.933594 C 26.636719 33.226562 21.292969 33.226562 18 29.933594 C 14.703125 26.636719 14.703125 21.296875 18 18 C 21.292969 14.707031 21.292969 9.363281 18 6.066406 C 14.703125 2.773438 9.363281 2.773438 6.066406 6.066406 C 12.65625 -0.523438 23.34375 -0.523438 29.933594 6.066406 Z M 29.933594 6.066406 "/>
    <path style=" stroke:none;fill-rule:nonzero;fill:rgb(24.313725%,26.27451%,27.843137%);fill-opacity:1;" d="M 6.066406 29.933594 C -0.523438 23.339844 -0.523438 12.660156 6.066406 6.066406 C 9.363281 2.773438 14.703125 2.773438 18 6.066406 C 21.292969 9.363281 21.292969 14.703125 18 18 C 14.703125 21.296875 14.703125 26.636719 18 29.933594 C 21.292969 33.226562 26.636719 33.226562 29.933594 29.933594 C 23.34375 36.523438 12.65625 36.523438 6.066406 29.933594 Z M 6.066406 29.933594 "/>
    <path style=" stroke:none;fill-rule:nonzero;fill:rgb(24.313725%,26.27451%,27.843137%);fill-opacity:1;" d="M 27.128906 23.964844 C 27.128906 25.710938 25.714844 27.128906 23.964844 27.128906 C 22.21875 27.128906 20.800781 25.710938 20.800781 23.964844 C 20.800781 22.21875 22.21875 20.800781 23.964844 20.800781 C 25.714844 20.800781 27.128906 22.21875 27.128906 23.964844 Z M 27.128906 23.964844 "/>
    <path style=" stroke:none;fill-rule:nonzero;fill:rgb(96.078431%,96.078431%,96.078431%);fill-opacity:1;" d="M 15.199219 12.035156 C 15.199219 13.78125 13.78125 15.199219 12.035156 15.199219 C 10.285156 15.199219 8.871094 13.78125 8.871094 12.035156 C 8.871094 10.285156 10.285156 8.871094 12.035156 8.871094 C 13.78125 8.871094 15.199219 10.285156 15.199219 12.035156 Z M 15.199219 12.035156 "/>
  </g>
</svg>