<?xml version="1.0" encoding="UTF-8" standalone="yes"?>
<svg xmlns="http://www.w3.org/2000/svg" xmlns:xlink="http://www.w3.org/1999/xlink" width="48px" height="48px" viewBox="0 0 36 36" version="1.1">
  <g id="surface1">
    <path style=" stroke:none;fill-rule:nonzero;fill:rgb(24.313725%,26.27451%,27.843137%);fill-opacity:1;" d="M 34.875 18 C 34.875 27.320312 27.320312 34.875 18 34.875 C 8.679688 34.875 1.125 27.320312 1.125 18 C 1.125 8.679688 8.679688 1.125 18 1.125 C 27.320312 1.125 34.875 8.679688 34.875 18 Z M 34.875 18 "/>
    <path style=" stroke:none;fill-rule:nonzero;fill:rgb(100%,90.196078%,18.039216%);fill-opacity:1;" d="M 33.1875 18 C 33.1875 26.386719 26.386719 33.1875 18 33.1875 C 9.613281 33.1875 2.8125 26.386719 2.8125 18 C 2.8125 9.613281 9.613281 2.8125 18 2.8125 C 26.386719 2.8125 33.1875 9.613281 33.1875 18 Z M 33.1875 18 "/>
    <path style=" stroke:none;fill-rule:nonzero;fill:rgb(24.313725%,26.27451%,27.843137%);fill-opacity:1;" d="M 20.8125 18 C 20.8125 19.554688 19.554688 20.8125 18 20.8125 C 16.445312 20.8125 15.1875 19.554688 15.1875 18 C 15.1875 16.445312 16.445312 15.1875 18 15.1875 C 19.554688 15.1875 20.8125 16.445312 20.8125 18 Z M 20.8125 18 "/>
    <path style=" stroke:none;fill-rule:nonzero;fill:rgb(24.313725%,26.27451%,27.843137%);fill-opacity:1;" d="M 4.5 16.175781 L 14.128906 17.425781 C 14.261719 16.394531 14.804688 15.457031 15.628906 14.828125 L 9.734375 7.113281 C 6.921875 9.265625 4.972656 12.492188 4.5 16.175781 Z M 18 21.835938 C 17.484375 21.835938 16.972656 21.734375 16.5 21.535156 L 12.765625 30.5 C 14.421875 31.191406 16.203125 31.546875 18 31.542969 C 19.855469 31.542969 21.625 31.171875 23.234375 30.5 L 19.5 21.535156 C 19.027344 21.734375 18.515625 21.835938 18 21.835938 Z M 21.871094 17.425781 L 31.5 16.175781 C 31.027344 12.488281 29.078125 9.265625 26.265625 7.113281 L 20.371094 14.828125 C 21.195312 15.457031 21.738281 16.394531 21.871094 17.425781 Z M 21.871094 17.425781 "/>
  </g>
</svg>